<?xml version="1.0" encoding="UTF-8" standalone="no"?>
<svg
   xmlns:dc="http://purl.org/dc/elements/1.1/"
   xmlns:cc="http://creativecommons.org/ns#"
   xmlns:rdf="http://www.w3.org/1999/02/22-rdf-syntax-ns#"
   xmlns:svg="http://www.w3.org/2000/svg"
   xmlns="http://www.w3.org/2000/svg"
   id="svg8"
   version="1.1"
   viewBox="0 0 210 297"
   height="297mm"
   width="210mm">
  <defs
     id="defs2" />
  <metadata
     id="metadata5">
    <rdf:RDF>
      <cc:Work
         rdf:about="">
        <dc:format>image/svg+xml</dc:format>
        <dc:type
           rdf:resource="http://purl.org/dc/dcmitype/StillImage" />
        <dc:title></dc:title>
      </cc:Work>
    </rdf:RDF>
  </metadata>
  <g
     id="layer1">
    <g
       transform="matrix(0.85243826,0,0,0.85243826,-5.7472712,-57.137533)"
       id="g3833">
      <path
         style="opacity:1;fill:#b50000;fill-opacity:1;fill-rule:nonzero;stroke:#c30000;stroke-width:4.04697323;stroke-linejoin:round;stroke-miterlimit:4;stroke-dasharray:none;stroke-dashoffset:0;stroke-opacity:0.89743593"
         d="m 307.16368,989.29372 c -21.35916,-17.97254 -20.64183,-32.64728 4.29648,-87.89518 6.77119,-15.00077 13.57362,-27.27412 15.11651,-27.27412 3.99227,0 31.16609,60.00014 34.43291,76.02832 3.59024,17.61496 -4.27615,35.95311 -18.59993,43.36023 -15.68423,8.11063 -21.40688,7.42553 -35.24597,-4.21925 z"
         id="path3824"
         transform="scale(0.26458333)" />
      <path
         style="opacity:1;fill:#b50000;fill-opacity:1;fill-rule:nonzero;stroke:#c30000;stroke-width:4.04697323;stroke-linejoin:round;stroke-miterlimit:4;stroke-dasharray:none;stroke-dashoffset:0;stroke-opacity:0.89743593"
         d="m 325.46135,810.75363 c -1.48684,-2.49827 -37.17708,-120.22519 -61.80978,-203.88416 -1.44463,-4.90635 -13.76494,-8.8937 -47.27658,-15.30061 -24.92754,-4.76575 -50.47002,-9.74747 -56.76108,-11.07048 -11.27969,-2.3721 -11.14202,-1.99187 9.92815,27.42244 29.04989,40.55414 61.98991,79.59485 80.83206,95.80268 17.28995,14.87264 20.8315,28.97956 7.27532,28.97956 -11.22016,0 -60.06656,-50.49967 -90.31668,-93.37356 -13.15736,-18.64811 -33.86424,-44.21283 -46.01528,-56.81049 -13.297,-13.78573 -21.208,-25.21062 -19.87039,-28.69637 1.261,-3.28613 10.41682,-6.91471 21.1647,-8.38787 36.55536,-5.01047 73.23133,-30.10004 167.77156,-114.7704 45.14781,-40.43445 74.04431,-57.62642 96.62469,-57.48687 17.54897,0.10845 44.1142,11.75935 65.58369,28.76351 8.83017,6.99362 22.73624,15.01434 30.90237,17.82383 17.90529,6.16014 31.26634,1.64528 62.089,-20.98062 37.17091,-27.28597 64.34106,-31.81994 95.32434,-15.90707 18.95684,9.73614 36.47329,23.9132 104.59649,84.65583 57.24538,51.04337 104.3551,79.30201 132.20363,79.30201 5.2599,0 11.8069,2.70324 14.54894,6.00718 4.13108,4.97765 2.40506,8.26702 -10.07106,19.1929 -8.28111,7.25215 -32.79557,36.82329 -54.47651,65.71365 -39.98507,53.28098 -79.61449,94.95434 -90.29713,94.95434 -14.2019,0 -8.15848,-12.71 19.92804,-41.9109 16.46553,-17.11886 40.38525,-45.769 53.15488,-63.66696 12.76966,-17.89796 25.91356,-36.31538 29.20872,-40.92759 5.67051,-7.93704 5.45426,-8.25354 -4.04061,-5.91368 -5.5175,1.3597 -30.94194,6.39643 -56.4988,11.19276 l -46.46702,8.72058 -32.03832,106.74354 c -17.62106,58.70894 -33.21164,105.34179 -34.64573,103.62853 -1.43405,-1.71322 -9.42181,-25.84342 -17.75056,-53.62262 -8.32875,-27.77919 -21.29689,-70.50864 -28.81804,-94.95434 l -13.6748,-44.44671 H 496.81027 387.85097 l -29.20645,96.97465 c -16.06355,53.33605 -29.65942,97.55019 -30.21304,98.25362 -0.55362,0.70343 -1.89018,-0.20567 -2.97013,-2.02031 z M 690.59725,668.0533 c 10.45649,-34.4462 18.62365,-63.0606 18.14929,-63.58755 -1.02381,-1.13728 -70.93187,7.05277 -77.70215,9.10316 -3.1543,0.95528 1.11484,20.25863 13.10717,59.26529 9.78179,31.8167 18.91713,60.57597 20.30067,63.90947 3.18704,7.67875 2.07781,10.59299 26.14502,-68.69037 z M 356.40439,651.42184 c 6.06443,-20.25898 10.47967,-37.19984 9.81166,-37.64634 -3.23227,-2.1605 -77.88381,-9.80088 -79.54361,-8.14107 -1.04927,1.04926 1.23218,11.86881 5.0699,24.04344 5.06954,16.08245 12.17302,27.0929 25.97626,40.26342 10.44924,9.97026 20.94733,18.16989 23.32909,18.2214 2.38176,0.0515 9.29228,-16.48187 15.3567,-36.74085 z m 299.52103,-62.03553 c 63.45511,-7.47323 168.35836,-25.94435 173.20035,-30.49672 1.92212,-1.80712 -2.62357,-6.37806 -10.10153,-10.15763 -21.72252,-10.97921 -66.93804,-46.43896 -110.57089,-86.71398 -46.61862,-43.03097 -83.59,-68.76456 -98.61125,-68.63743 -14.0025,0.11851 -38.67721,11.66649 -64.37323,30.12724 -38.73741,27.83008 -58.9807,26.41769 -108.74902,-7.5875 -51.00154,-34.8478 -64.73977,-30.99508 -144.44935,40.50906 -57.2689,51.37354 -92.28106,78.71572 -116.88489,91.27939 -12.18865,6.22399 -14.48108,8.88071 -9.88325,11.45379 15.48086,8.66352 169.07902,31.82338 250.00675,37.69656 43.30737,3.14294 188.63306,-1.37417 240.41631,-7.47278 z"
         id="path3826"
         transform="scale(0.26458333)" />
      <path
         style="opacity:1;fill:#b50000;fill-opacity:1;fill-rule:nonzero;stroke:#c30000;stroke-width:4.04697323;stroke-linejoin:round;stroke-miterlimit:4;stroke-dasharray:none;stroke-dashoffset:0;stroke-opacity:0.89743593"
         d="m 410.71007,809.7963 c -39.04619,-8.47002 -43.68828,-10.4362 -43.68828,-18.50439 0,-10.15884 7.28832,-10.41715 49.3004,-1.74729 50.3315,10.3867 129.22956,9.33301 174.19658,-2.32641 28.46887,-7.38164 38.7217,-5.1261 33.89339,7.45627 -7.32442,19.08714 -149.15613,29.12333 -213.70209,15.12182 z"
         id="path3828"
         transform="scale(0.26458333)" />
    </g>
  </g>
</svg>
