<?xml version="1.0" encoding="UTF-8" standalone="no"?>
<!-- Created with Inkscape (http://www.inkscape.org/) -->

<svg
   xmlns:dc="http://purl.org/dc/elements/1.1/"
   xmlns:cc="http://creativecommons.org/ns#"
   xmlns:rdf="http://www.w3.org/1999/02/22-rdf-syntax-ns#"
   xmlns:svg="http://www.w3.org/2000/svg"
   xmlns="http://www.w3.org/2000/svg"
   xmlns:sodipodi="http://sodipodi.sourceforge.net/DTD/sodipodi-0.dtd"
   xmlns:inkscape="http://www.inkscape.org/namespaces/inkscape"
   width="210mm"
   height="297mm"
   viewBox="0 0 210 297"
   version="1.1"
   id="svg1960"
   inkscape:version="0.92.1 r15371"
   sodipodi:docname="112263.svg">
  <defs
     id="defs1954" />
  <sodipodi:namedview
     id="base"
     pagecolor="#ffffff"
     bordercolor="#666666"
     borderopacity="1.0"
     inkscape:pageopacity="0.0"
     inkscape:pageshadow="2"
     inkscape:zoom="0.35"
     inkscape:cx="-49.814037"
     inkscape:cy="572.33068"
     inkscape:document-units="mm"
     inkscape:current-layer="layer1"
     showgrid="false"
     inkscape:window-width="1536"
     inkscape:window-height="801"
     inkscape:window-x="-8"
     inkscape:window-y="-8"
     inkscape:window-maximized="1" />
  <metadata
     id="metadata1957">
    <rdf:RDF>
      <cc:Work
         rdf:about="">
        <dc:format>image/svg+xml</dc:format>
        <dc:type
           rdf:resource="http://purl.org/dc/dcmitype/StillImage" />
        <dc:title></dc:title>
      </cc:Work>
    </rdf:RDF>
  </metadata>
  <g
     inkscape:label="Layer 1"
     inkscape:groupmode="layer"
     id="layer1">
    <g
       id="g2097"
       transform="matrix(0.63741006,0,0,0.63741006,76.42323,90.147817)">
      <path
         inkscape:connector-curvature="0"
         id="path1973"
         d="m -108.64506,38.817634 3.8754,0.133636 1.46998,-1.336347 c 0,0 0.66818,0 1.33636,-0.133636 0.66817,-0.133635 0.93544,0 1.46998,0.267269"
         style="fill:#d40000;stroke:#000000;stroke-width:0.26458332px;stroke-linecap:butt;stroke-linejoin:miter;stroke-opacity:1" />
      <path
         inkscape:connector-curvature="0"
         id="path1975"
         d="m -101.35705,37.672242 v 0 0 c 0,0 2.672697,1.069078 3.207234,1.33635 0.534541,0.267269 0.935445,0.267269 1.603619,0.400902 0.668173,0.133636 2.271792,0 2.271792,0 l 1.202711,-0.534538 c 0,0 0,0.133636 0.668173,0 0.668176,-0.133636 2.138156,-0.53454 2.138156,-0.53454 l 2.271792,0.668175 0.801808,0.801809 0.935443,1.202713 c 0,0 0.668174,0.935443 0.668174,1.603617 0,0.668174 0,1.202713 0,2.138156 0,0.935443 0.668174,2.138156 0.801809,2.939965 0.133635,0.801809 0.133635,4.276312 0,4.677217 -0.133635,0.400904 -0.400904,1.202713 -0.534539,1.603617 -0.133635,0.400904 -0.133635,-0.133635 -0.26727,1.202713 -0.133635,1.336347 -0.400904,6.949007 -0.400904,6.949007 0,0 0.267269,1.202713 0.267269,1.737252 0,0.534539 -0.534539,2.939965 -0.668173,3.608139 -0.133635,0.668174 0,1.603617 -0.133635,2.138156 -0.133635,0.534539 -0.133635,2.138156 -0.133635,2.539061 0,0.400904 -0.133635,2.53906 -0.133635,2.53906 l 0.935444,2.672696 c 0,0 0.400904,0.801808 0.400904,1.469982 0,0.668174 -0.400904,2.004521 -0.400904,2.405426 0,0.400904 -0.400905,1.603617 -0.400905,1.603617 v 0.668174 l 0.668174,1.469982 c 0,0 -0.400904,0.801809 -0.267269,1.336348 0.133634,0.534539 0.668174,1.870886 0.668174,1.870886 l 0.400904,1.737252 0.400904,1.336348 c 0,0 0.400904,0.133635 0.935443,0.534539 0.53454,0.400904 1.870887,-0.400904 1.870887,-0.400904 l 1.336348,-0.400905 1.202713,0.935444 0.400904,1.336347 1.336348,0.133635 c 0,0 -0.400905,-0.534539 0.534539,-0.668174 0.935443,-0.133634 2.271791,0.534539 2.271791,0.534539 l 1.469982,-0.801808 1.069078,-0.400904 1.603617,0.267269 0.26727,0.935443 0.801808,0.935444 1.469983,1.603617 0.534539,0.801809 c 0,0 0.267269,0.400904 -0.133635,1.069078 -0.400904,0.668173 -1.069078,1.603617 -1.069078,1.603617 0,0 -0.935443,0.93545 -1.336348,1.06908 -0.400904,0.13364 -1.469982,0.40091 -1.469982,0.40091 l -1.469982,0.93544 c 0,0 -0.801809,0.26727 -1.870887,-0.13364 -1.069078,-0.4009 -1.870887,-0.4009 -2.405426,-0.4009 -0.534539,0 -1.336347,0 -1.336347,0 l -1.603618,1.06908 c 0,0 -1.336347,0.13363 -1.870886,0.13363 -0.534539,0 -0.935444,-1.20271 -0.935444,-1.20271 l -1.603617,-0.66817 -3.875408,0.93544 c 0,0 -2.004521,-0.26727 -2.539061,-0.26727 -0.534539,0 -1.202712,0 -1.737251,-0.26727 -0.53454,-0.26727 -1.870887,-0.26727 -2.405426,-0.26727 -0.534539,0 -3.340869,0.66817 -3.340869,0.66817 0,0 0.133634,0.66818 -1.202713,-0.13363 -1.336347,-0.80181 -2.539067,-0.66817 -2.539067,-0.66817 l -2.53906,0.53453 -2.00452,0.13364 -1.60361,-0.4009 c 0,0 -0.13364,-0.66818 -0.66818,-1.20272 -0.53454,-0.53454 0.26727,-0.13363 -0.53454,-0.668174 -0.80181,-0.53454 -0.93544,0 -1.20271,-0.668174 -0.26727,-0.668174 -0.4009,-1.870887 -0.4009,-1.870887 l 0.66817,-0.801809 0.53454,-1.469982 0.4009,-0.935443 c 0,0 0.80181,-0.801809 1.20272,-0.534539 0.4009,0.267269 0.53453,-0.801809 0.53453,-0.801809 l 1.06908,-0.26727 h 1.73725 c 0,0 0.66817,0.133635 1.46998,0 0.80181,-0.133634 2.00453,0 2.00453,0 l 1.33635,-0.668173 c 0,0 0.801806,0.133634 1.336345,0.400904 0.534539,0.267269 1.469983,0 1.469983,0 l 0.801808,-1.603617 0.935444,-0.534539 c 0,0 0.801808,-0.26727 0.534539,-1.069078 -0.26727,-0.801809 -0.26727,-0.400905 -0.534539,-1.202713 -0.26727,-0.801809 -0.534539,-0.534539 -0.26727,-1.469983 0.26727,-0.935443 0.26727,-1.069078 0.534539,-1.603617 0.26727,-0.534539 0.668174,-1.069078 0.801809,-1.603617 0.133635,-0.534539 0.534539,-1.069078 0.534539,-1.603617 0,-0.534539 0,-0.26727 0,-0.935443 0,-0.668174 -0.26727,-1.336348 -0.668174,-2.271791 -0.400904,-0.935444 -0.801809,-0.53454 -0.801809,-1.737252 0,-1.202713 -0.267269,-1.469983 0.133635,-2.271791 0.400905,-0.801809 0.26727,-0.801809 1.336348,-1.870887 1.069078,-1.069078 1.069078,-0.133635 1.069078,-1.069078 0,-0.935444 0,-0.534539 0,-1.603617 0,-1.069078 0,-1.469983 0,-2.138157 0,-0.668173 -0.400904,-1.202712 0,-2.138156 0.400904,-0.935443 0.534539,-1.069078 1.069078,-1.737252 0.534539,-0.668174 0.801809,-0.267269 0.801809,-1.069078 0,-0.801808 0,-1.336347 -0.26727,-2.004521 -0.267269,-0.668174 0.133635,-0.400905 -0.400904,-1.336348 -0.534539,-0.935443 -0.534539,-0.267269 -0.801809,-1.870887 -0.267269,-1.603617 -0.668174,-1.603617 -0.267269,-2.53906 0.400904,-0.935444 0.668174,-0.935444 0.801808,-2.138156 0.133635,-1.202713 0,-2.138157 0,-2.138157 0,0 -0.668173,-0.133634 -0.935443,-1.202712 -0.26727,-1.069079 0.26727,-0.801809 -0.133635,-2.138157 -0.400904,-1.336347 -0.935443,-1.603617 -0.935443,-1.603617 h -1.870887 c 0,0 -1.737252,0.668174 -2.80633,0.400904 -1.069078,-0.267269 -1.202713,-0.935443 -2.00452,-0.801808 -0.80181,0.133635 -1.33635,0.668174 -1.33635,0.668174 0,0 -0.80181,0.668173 -1.20272,0.801808 -0.4009,0.133635 -0.26727,0 -0.93544,0.26727 -0.66818,0.267269 -1.20271,0.801808 -2.40542,0.400904 -1.20272,-0.400904 -1.20272,-1.603617 -1.20272,-1.603617 0,0 0,-0.400904 -0.66817,-0.935443 -0.66817,-0.53454 -1.06908,-0.26727 -1.06908,-0.801809 0,-0.534539 -0.70158,-1.637026 -0.70158,-1.637026 l -0.30068,-1.135896 c 0,0 -0.60135,-0.200452 -0.50113,-0.534539 0.10023,-0.334087 0.13364,-0.668174 0.26727,-0.7684 0.13364,-0.100226 1.10249,-0.334088 1.10249,-0.334088"
         style="fill:#d40000;stroke:#000000;stroke-width:0.26458332px;stroke-linecap:butt;stroke-linejoin:miter;stroke-opacity:1" />
      <path
         inkscape:connector-curvature="0"
         id="path1975-9"
         d="m -55.358203,38.082639 v 0 0 c 0,0 2.6727,1.069078 3.20724,1.33635 0.53454,0.267269 0.93544,0.267269 1.60361,0.400902 0.66818,0.133636 2.2718,0 2.2718,0 l 1.20271,-0.534538 c 0,0 0,0.133636 0.66817,0 0.66818,-0.133636 2.13816,-0.53454 2.13816,-0.53454 l 2.271788,0.668175 0.801808,0.801809 0.935443,1.202713 c 0,0 0.668174,0.935443 0.668174,1.603617 0,0.668174 0,1.202713 0,2.138156 0,0.935443 0.668174,2.138156 0.801809,2.939965 0.133634,0.801809 0.133634,4.276312 0,4.677217 -0.133635,0.400904 -0.400904,1.202713 -0.534539,1.603617 -0.133635,0.400904 -0.133635,-0.133635 -0.26727,1.202713 -0.133635,1.336347 -0.400904,6.949007 -0.400904,6.949007 0,0 0.267269,1.202713 0.267269,1.737252 0,0.534539 -0.534539,2.939964 -0.668173,3.608138 -0.133635,0.668176 0,1.603618 -0.133635,2.138156 -0.133635,0.53454 -0.133635,2.138156 -0.133635,2.539063 0,0.400902 -0.133635,2.539055 -0.133635,2.539055 l 0.935444,2.6727 c 0,0 0.400904,0.80181 0.400904,1.46998 0,0.66818 -0.400904,2.00452 -0.400904,2.40543 0,0.4009 -0.400905,1.60362 -0.400905,1.60362 v 0.66817 l 0.668174,1.46998 c 0,0 -0.400904,0.80181 -0.267269,1.33635 0.133634,0.53454 0.668174,1.87089 0.668174,1.87089 l 0.400904,1.73725 0.400903,1.33634 c 0,0 0.400905,0.13364 0.935443,0.53454 0.53454,0.40091 1.870887,-0.4009 1.870887,-0.4009 l 1.336349,-0.4009 1.202712,0.93544 0.400904,1.33634 1.33635,0.13364 c 0,0 -0.400905,-0.53454 0.534537,-0.66817 0.935443,-0.13364 2.271791,0.53453 2.271791,0.53453 l 1.469983,-0.8018 1.069078,-0.40091 1.603616,0.26727 0.267269,0.93544 0.801809,0.93545 1.469982,1.60362 0.534541,0.80181 c 0,0 0.267269,0.4009 -0.133636,1.06908 -0.400905,0.66817 -1.069078,1.60361 -1.069078,1.60361 0,0 -0.935442,0.935454 -1.336347,1.069084 -0.400904,0.13364 -1.469983,0.40091 -1.469983,0.40091 l -1.469982,0.93544 c 0,0 -0.801809,0.26727 -1.870886,-0.13364 -1.069079,-0.4009 -1.870888,-0.4009 -2.405425,-0.4009 -0.534541,0 -1.336347,0 -1.336347,0 l -1.603619,1.06908 c 0,0 -1.336347,0.13363 -1.870887,0.13363 -0.534538,0 -0.935442,-1.20271 -0.935442,-1.20271 l -1.603619,-0.66817 -3.875407,0.93544 c 0,0 -2.004518,-0.26727 -2.539058,-0.26727 -0.53454,0 -1.20271,0 -1.73725,-0.26727 -0.53454,-0.26727 -1.87089,-0.26727 -2.40543,-0.26727 -0.53454,0 -3.34087,0.66817 -3.34087,0.66817 0,0 0.13364,0.66818 -1.20271,-0.13363 -1.33635,-0.80181 -2.53906,-0.66817 -2.53906,-0.66817 l -2.53906,0.53453 -2.00453,0.13364 -1.60361,-0.4009 c 0,0 -0.13364,-0.66818 -0.66818,-1.202724 -0.53454,-0.53453 0.26727,-0.13363 -0.53454,-0.66817 -0.80181,-0.53454 -0.93544,0 -1.20271,-0.66818 -0.26727,-0.66817 -0.4009,-1.87088 -0.4009,-1.87088 l 0.66817,-0.80181 0.53454,-1.46999 0.4009,-0.93544 c 0,0 0.80181,-0.80181 1.20272,-0.53454 0.4009,0.26727 0.53453,-0.80181 0.53453,-0.80181 l 1.06908,-0.26727 h 1.73726 c 0,0 0.66817,0.13364 1.46998,0 0.80181,-0.13363 2.00452,0 2.00452,0 l 1.33635,-0.66817 c 0,0 0.80181,0.13364 1.33635,0.4009 0.53454,0.26727 1.46998,0 1.46998,0 l 0.80181,-1.60361 0.93544,-0.53454 c 0,0 0.80181,-0.26727 0.53454,-1.06908 -0.26727,-0.80181 -0.26727,-0.4009 -0.53454,-1.20271 -0.26727,-0.80181 -0.53454,-0.53454 -0.26727,-1.46999 0.26727,-0.93544 0.26727,-1.06907 0.53454,-1.60361 0.26727,-0.53454 0.66817,-1.06908 0.80181,-1.60362 0.13363,-0.53454 0.53454,-1.06908 0.53454,-1.60362 0,-0.53453 0,-0.26727 0,-0.93544 0,-0.66817 -0.26727,-1.33635 -0.66818,-2.27179 -0.4009,-0.93545 -0.8018,-0.53454 -0.8018,-1.73725 0,-1.20272 -0.26727,-1.469984 0.13363,-2.271794 0.40091,-0.801809 0.26727,-0.801809 1.33635,-1.870887 1.06908,-1.069078 1.06908,-0.133633 1.06908,-1.069078 0,-0.935442 0,-0.534538 0,-1.603616 0,-1.069078 0,-1.469982 0,-2.138156 0,-0.668173 -0.40091,-1.202714 0,-2.138156 0.4009,-0.935444 0.53454,-1.069079 1.06907,-1.737253 0.53454,-0.668174 0.80181,-0.267269 0.80181,-1.069078 0,-0.801808 0,-1.336347 -0.26727,-2.004521 -0.26727,-0.668174 0.13364,-0.400905 -0.4009,-1.336348 -0.53454,-0.935443 -0.53454,-0.267269 -0.80181,-1.870887 -0.26727,-1.603617 -0.66817,-1.603617 -0.26727,-2.53906 0.40091,-0.935444 0.66818,-0.935444 0.80181,-2.138156 0.13363,-1.202713 0,-2.138157 0,-2.138157 0,0 -0.66817,-0.133634 -0.93544,-1.202712 -0.26727,-1.069079 0.26727,-0.801809 -0.13364,-2.138157 -0.4009,-1.336347 -0.93544,-1.603617 -0.93544,-1.603617 h -1.87089 c 0,0 -1.73725,0.668174 -2.80633,0.400904 -1.06908,-0.267269 -1.20271,-0.935443 -2.00452,-0.801808 -0.80181,0.133635 -1.33635,0.668174 -1.33635,0.668174 0,0 -0.80181,0.668173 -1.20271,0.801808 -0.40091,0.133635 -0.26727,0 -0.93544,0.26727 -0.66818,0.267269 -1.20272,0.801808 -2.40543,0.400904 -1.20272,-0.400904 -1.20272,-1.603617 -1.20272,-1.603617 0,0 0,-0.400904 -0.66817,-0.935443 -0.66817,-0.53454 -1.06908,-0.26727 -1.06908,-0.801809 0,-0.534539 -0.70158,-1.637026 -0.70158,-1.637026 l -0.30068,-1.135896 c 0,0 -0.60135,-0.200452 -0.50113,-0.534539 0.10023,-0.334087 0.13364,-0.668174 0.26727,-0.7684 0.13364,-0.100226 1.10249,-0.334088 1.10249,-0.334088"
         style="fill:#d40000;stroke:#000000;stroke-width:0.26458332px;stroke-linecap:butt;stroke-linejoin:miter;stroke-opacity:1" />
      <path
         inkscape:connector-curvature="0"
         id="path1992"
         d="m -7.3047301,102.30704 c 0,0 2.645833,-0.7087 2.787574,-0.99218 0.141741,-0.28349 0.708705,-0.66145 0.850447,-1.03943 0.141741,-0.377967 0.377976,-0.614207 0.47247,-1.086677 0.09449,-0.47247 0.519717,-1.18118 0.519717,-1.606401 0,-0.425226 0.377976,-1.795389 0.377976,-2.362351 0,-0.566965 0.188988,-0.944941 -0.09449,-1.559153 -0.283482,-0.614211 -1.370163,-2.69308 -1.511905,-2.882069 -0.141741,-0.188987 -0.614211,-1.039434 -0.94494,-1.322917 -0.330729,-0.283482 0.09449,-0.425222 -1.370164,-0.94494 -1.4646582,-0.519716 -1.8898812,-0.661459 -2.6458332,-0.708705 -0.755952,-0.04725 -1.4646587,-0.188987 -2.1733637,-0.04725 -0.708706,0.14174 -1.27567,0.425222 -1.842634,0.803198 -0.566964,0.377979 -1.464658,0.708708 -1.937128,1.181177 -0.47247,0.472469 -0.47247,0.708705 -1.039434,1.842635 -0.566965,1.133927 -0.708706,1.464657 -0.897694,2.031622 -0.188988,0.566962 -0.425223,1.322916 -0.519717,1.748139 -0.09449,0.425222 -0.283483,2.031621 -0.141741,2.267857 0.141741,0.236238 0.708705,1.322918 1.133928,1.606398 0.425224,0.28348 0.992188,0.75596 1.700893,1.086687 0.708706,0.33073 1.322917,1.03942 1.984375,1.27566 0.661459,0.23623 0.992188,0.37797 1.464658,0.66146 0.47247,0.28348 0.661458,0.18898 1.5591527,0.33073 0.897693,0.14174 2.2678572,-0.28349 2.2678572,-0.28349 z"
         style="fill:#d40000;stroke:#000000;stroke-width:0.26458332px;stroke-linecap:butt;stroke-linejoin:miter;stroke-opacity:1" />
      <path
         inkscape:connector-curvature="0"
         id="path1992-2"
         d="m 104.98276,103.24679 c 0,0 2.64583,-0.7087 2.78757,-0.99218 0.14174,-0.28349 0.70871,-0.66146 0.85045,-1.03944 0.14174,-0.37797 0.37798,-0.61421 0.47247,-1.08668 0.0945,-0.472466 0.51972,-1.181176 0.51972,-1.606396 0,-0.42523 0.37797,-1.79539 0.37797,-2.36235 0,-0.56697 0.18899,-0.94494 -0.0945,-1.559155 -0.28348,-0.614211 -1.37016,-2.69308 -1.5119,-2.88207 -0.14174,-0.188986 -0.61421,-1.039433 -0.94494,-1.322916 -0.33073,-0.283482 0.0945,-0.425222 -1.37017,-0.94494 -1.46465,-0.519716 -1.88988,-0.661459 -2.64583,-0.708705 -0.75595,-0.04725 -1.46466,-0.188987 -2.17336,-0.04725 -0.70871,0.14174 -1.275674,0.425222 -1.842644,0.803198 -0.56696,0.377979 -1.46465,0.708708 -1.93712,1.181177 -0.47247,0.472469 -0.47247,0.708705 -1.03944,1.842634 -0.56696,1.133928 -0.7087,1.464658 -0.89769,2.031623 -0.18899,0.566964 -0.42523,1.322914 -0.51972,1.748134 -0.0945,0.42523 -0.28348,2.03163 -0.14174,2.26786 0.14174,0.23624 0.7087,1.32292 1.13393,1.606396 0.42522,0.28348 0.99219,0.75596 1.70089,1.08669 0.70871,0.33073 1.32292,1.03943 1.98438,1.27567 0.661454,0.23623 0.992184,0.37797 1.464654,0.66146 0.47247,0.28348 0.66146,0.18898 1.55916,0.33073 0.89769,0.14174 2.26785,-0.28349 2.26785,-0.28349 z"
         style="fill:#d40000;stroke:#000000;stroke-width:0.26458332px;stroke-linecap:butt;stroke-linejoin:miter;stroke-opacity:1" />
      <path
         inkscape:connector-curvature="0"
         id="path2009"
         d="m 41.421412,103.15409 c 0,0 -1.737254,-0.66817 -2.271792,-0.53454 -0.53454,0.13364 -1.737251,0.93545 -1.737251,0.93545 0,0 -2.004523,0.26727 -2.939966,-0.13364 -0.935442,-0.4009 -0.133636,-0.80181 -2.00452,-0.80181 -1.870887,0 -4.276312,-0.13363 -5.211757,-0.13363 -0.935443,0 -1.603616,0 -2.539061,0 -0.935442,0 -1.603616,-0.13364 -2.271789,0 -0.668176,0.13363 -1.469983,0.13363 -2.138156,0.53454 -0.668176,0.4009 -2.271792,0.4009 -3.474506,0.4009 -1.202711,0 -1.870887,0.13364 -2.939965,0 -1.069078,-0.13363 -2.939963,-0.93544 -3.474503,-0.93544 -0.534538,0 -2.939965,0.53454 -2.939965,0.53454 0,0 -0.668174,-0.26727 -1.469983,-0.40091 -0.801807,-0.13363 -1.737252,-0.4009 -2.405425,-0.8018 C 2.934599,101.41684 2.667331,101.55047 2.266426,100.8823 1.865521,100.21413 1.865521,100.21413 1.598253,99.412317 1.330981,98.61051 1.197348,97.675065 1.197348,96.739623 c 0,-0.935445 0.267269,-1.737252 0.133633,-2.672697 C 1.197348,93.131484 1.197348,92.73058 1.197348,91.92877 c 0,-0.801809 -0.133636,-1.603615 0.668173,-2.405425 0.80181,-0.801809 0.400905,0 0.80181,-1.069078 0.400904,-1.069078 0.400904,-1.469982 0.801806,-2.138156 0.400905,-0.668173 0.534541,-1.202714 1.069078,-1.603618 0.534541,-0.400905 0.534541,0.400904 0.801809,-0.801807 0.267272,-1.202713 0.133636,-1.603618 0.668174,-2.004523 0.53454,-0.400904 0.668176,-0.801809 1.336349,-0.534537 0.668174,0.267268 0.668174,0.133633 0.668174,0.133633 0,0 1.469983,-1.202711 2.405425,-1.737252 0.935442,-0.534537 2.138156,-1.469982 2.672696,-2.672694 0.534538,-1.202713 -0.133635,-1.069078 0.534538,-1.336349 0.668173,-0.267269 0.935445,-0.267269 0.935445,-0.267269 0,0 0.668173,0.400905 2.405425,-0.668173 1.737251,-1.069078 1.469983,-0.80181 2.271789,-1.603619 0.801809,-0.801806 0.133636,-0.935442 1.33635,-1.202711 1.202711,-0.267271 1.469982,-0.53454 2.672693,-0.801809 1.202714,-0.267269 1.469983,-0.267269 2.138156,-0.400905 0.668174,-0.133636 2.138157,-0.801809 2.138157,-0.801809 0,0 2.138156,-1.870885 2.405427,-2.405425 0.267269,-0.534538 -0.400904,-0.801809 1.202711,-1.603616 1.603619,-0.801809 1.737252,-1.069078 2.271792,-1.870887 0.534538,-0.801809 -0.267269,0.400905 0.801809,-1.336349 1.069078,-1.737252 1.069078,-1.737252 1.336347,-2.939963 0.267269,-1.202714 0.267269,-2.271792 0.267269,-3.073601 0,-0.801809 0.267272,-0.534538 0,-2.271789 C 35.541481,52.773785 35.541481,51.838342 34.873308,50.769264 34.205134,49.700186 33.80423,48.631108 33.002421,47.829299 32.200611,47.02749 30.9979,47.161125 30.9979,47.161125 c 0,0 2.004521,0.267269 -1.737251,0 -3.741775,-0.267268 -4.944489,-1.336346 -4.944489,-1.336346 0,0 -0.400904,-0.668174 -1.202711,-0.80181 -0.801809,-0.133635 -0.133635,-0.400904 -0.935445,0 -0.801806,0.400905 -0.267269,0.400905 -1.870884,1.069078 -1.603619,0.668174 -1.069081,0.80181 -2.806332,1.202714 -1.737252,0.400905 -2.539061,0.668174 -3.474503,1.202711 -0.935443,0.534541 -0.935443,-0.668173 -1.469983,1.202714 -0.534538,1.870887 -0.267269,1.603619 -0.534538,2.539061 -0.267271,0.935442 -0.53454,1.469982 -0.53454,2.271792 0,0.801806 -0.133636,1.202711 -0.534538,2.00452 -0.400904,0.801809 -1.202714,1.603618 -1.469982,2.138156 -0.267272,0.53454 -0.267272,0.801809 -0.80181,1.469983 -0.53454,0.668173 -0.935442,0.668173 -2.00452,0.935442 -1.069078,0.267272 -1.33635,1.069078 -2.004523,0.133636 -0.668173,-0.935442 -0.935442,-2.004521 -0.935442,-2.539061 0,-0.534538 -0.935445,-0.400904 0.133633,-1.336347 1.069078,-0.935445 0.53454,-2.806329 0.668173,-3.608139 0.133636,-0.801809 1.202714,-2.004523 1.737254,-2.53906 0.534538,-0.534541 1.202712,-0.801809 1.336347,-1.336347 0.133636,-0.53454 0.267269,-0.801809 0.935443,-1.202714 0.668173,-0.400905 2.004523,-2.806329 2.004523,-2.806329 0,0 -1.202714,-0.668174 0,-1.202714 1.202711,-0.534538 2.138156,-2.004521 2.138156,-2.004521 0,0 -0.133636,-0.133635 0.400904,-0.668173 0.534538,-0.53454 0.133633,-0.53454 1.069078,-0.53454 0.935443,0 2.939963,-0.133636 3.741772,-0.133636 0.801809,0 3.474506,-0.267269 3.474506,-0.267269 0,0 0,-0.668173 0.801806,-0.801809 0.80181,-0.133633 1.469983,-0.267269 2.405428,0.133636 0.935442,0.400904 0.801806,0.53454 1.870885,0.935442 1.069078,0.400904 3.207234,0.400904 4.276312,0.53454 1.069078,0.133636 0.801809,-0.53454 1.069078,0.133636 0.267271,0.668173 0.400904,1.202711 0.400904,1.202711 0,0 0.133636,0.801809 1.737252,0.801809 1.603618,0 1.202714,0 2.672696,0.267269 1.469983,0.267272 2.939966,0.133636 3.073599,0.935445 0.133635,0.801807 0.133635,1.069078 0.267271,2.138156 0.133633,1.069078 -0.668173,0.267269 0.267269,2.138156 0.935442,1.870888 0.668174,1.603616 1.469983,2.80633 0.801809,1.202714 0.534537,1.336347 1.336347,2.138156 0.801809,0.801809 0.53454,2.939965 0.668173,3.608139 0.133636,0.668173 0.668174,1.336347 0.801809,2.138156 0.133636,0.801809 0.668174,0.935442 0.400905,2.138156 -0.267269,1.202714 -0.53454,2.138156 -1.069078,2.939965 -0.534541,0.801809 -0.534541,1.469983 -1.469983,2.271789 -0.935442,0.80181 -2.271792,1.603619 -2.939965,2.405428 -0.668174,0.801806 -1.469983,1.069078 -2.138156,1.870885 -0.668174,0.801809 1.336347,-0.400902 -1.202711,1.737254 -2.539061,2.138156 -2.539061,2.405425 -3.073601,2.672693 -0.534538,0.267269 -1.870888,0.935445 -2.405425,1.069079 -0.534541,0.133635 -2.004523,0.267268 -2.004523,0.267268 0,0 -2.405425,1.33635 -3.073599,1.737255 -0.668173,0.400904 -0.668173,0.133633 -1.202714,0.801806 -0.534537,0.668176 -1.603615,0.668176 -2.138156,0.801809 -0.534537,0.133636 -1.603615,0.534541 -2.138156,0.668174 -0.534537,0.133635 -3.073598,1.336349 -3.741772,1.469982 -0.668173,0.133636 -1.469982,2.405425 -1.469982,2.405425 0,0 -1.202714,1.202714 -1.336347,1.870888 -0.133636,0.668173 -0.133636,2.806329 -0.133636,2.806329 0,0 0.801809,1.469983 1.870887,1.737254 1.069078,0.267269 2.138156,0.534538 3.741772,0.400902 1.603619,-0.133633 2.004523,0 3.073601,-0.133633 1.069078,-0.133636 1.870885,-0.400904 1.870885,-0.400904 0,0 0.668176,0.267268 1.336349,0.400904 0.668174,0.133633 2.80633,0.133633 2.80633,0.133633 0,0 2.672694,0.133636 3.608139,0 0.935442,-0.133633 1.202711,-0.534537 2.138156,-0.400902 0.935442,0.133633 0.133633,0.133633 1.336347,0.133633 1.202713,0 1.336347,-0.133633 2.806329,0.133636 1.469983,0.267269 1.603619,0 2.539061,0.400905 0.935445,0.400904 1.469983,0.267269 2.004523,0.668173 0.534538,0.400905 0.935442,1.469983 0.935442,1.469983 0,0 0.400905,1.603616 0.534541,2.138156 0.133633,0.534538 -0.267272,2.405425 -0.267272,2.405425 0,0 -0.668173,1.069082 -0.668173,1.469982 0,0.40091 0,1.46999 0,1.46999 z"
         style="fill:#d40000;stroke:#000000;stroke-width:0.26458332px;stroke-linecap:butt;stroke-linejoin:miter;stroke-opacity:1" />
      <path
         inkscape:connector-curvature="0"
         id="path2011"
         d="m 14.699824,55.121076 c 0,0 1.336346,0.267269 2.00452,0.400905 0.668176,0.133636 1.069078,0.133636 1.603618,0 0.534538,-0.133636 0.974426,-0.491596 0.974426,-0.491596 l -0.14174,-0.472469 -0.236235,-0.614212 c 0,0 0,-0.14174 -0.33073,-0.472469 -0.330729,-0.330729 -0.14174,-0.472471 -0.519715,-0.755954 -0.377976,-0.28348 -0.708705,-0.425222 -0.992188,-0.519716 -0.283482,-0.09449 -0.425225,-0.04725 -1.181177,-0.09449 -0.755951,-0.04725 -0.566965,-0.0945 -1.08668,0 -0.519719,0.09449 -0.708705,0.236233 -0.708705,0.566962 0,0.33073 -0.236236,0.519719 -0.18899,0.897695 0.04725,0.377975 0.141743,0.377975 0,0.566965 -0.14174,0.188986 -0.283482,0.236233 -0.283482,0.519715 0,0.283483 1.087078,0.468667 1.087078,0.468667 z"
         style="fill:#d40000;stroke:#000000;stroke-width:0.26458332px;stroke-linecap:butt;stroke-linejoin:miter;stroke-opacity:1" />
      <path
         inkscape:connector-curvature="0"
         id="path2009-3"
         d="m 88.373405,103.78837 c 0,0 -1.73725,-0.66817 -2.27179,-0.53454 -0.53454,0.13364 -1.73725,0.93545 -1.73725,0.93545 0,0 -2.00453,0.26727 -2.93997,-0.13364 -0.93544,-0.4009 -0.13364,-0.80181 -2.00452,-0.80181 -1.87089,0 -4.27631,-0.13363 -5.21176,-0.13363 -0.93544,0 -1.60361,0 -2.53906,0 -0.93544,0 -1.60361,-0.13364 -2.27179,0 -0.66817,0.13363 -1.46998,0.13363 -2.13815,0.53454 -0.66818,0.4009 -2.27179,0.4009 -3.47451,0.4009 -1.202706,0 -1.870886,0.13364 -2.93996,0 -1.06908,-0.13363 -2.93997,-0.93544 -3.474506,-0.93544 -0.534538,0 -2.939965,0.53454 -2.939965,0.53454 0,0 -0.668174,-0.26727 -1.469984,-0.40091 -0.801806,-0.13363 -1.737252,-0.40089 -2.405424,-0.8018 -0.668174,-0.40091 -0.935442,-0.26728 -1.336347,-0.93544 -0.400905,-0.66818 -0.400905,-0.66818 -0.668173,-1.46999 -0.267272,-0.801807 -0.400905,-1.737252 -0.400905,-2.672694 0,-0.935445 0.267269,-1.737252 0.133633,-2.672697 -0.133633,-0.935442 -0.133633,-1.336347 -0.133633,-2.138156 0,-0.801809 -0.133636,-1.603616 0.668173,-2.405425 0.80181,-0.801809 0.400905,0 0.80181,-1.069078 0.400904,-1.069078 0.400904,-1.469983 0.801806,-2.138156 0.400905,-0.668174 0.534541,-1.202714 1.069078,-1.603618 0.53454,-0.400905 0.53454,0.400904 0.801808,-0.801807 0.267273,-1.202714 0.133637,-1.603618 0.668174,-2.004523 0.534541,-0.400905 0.668177,-0.801809 1.33635,-0.534538 0.668174,0.267269 0.668174,0.133633 0.668174,0.133633 0,0 1.469983,-1.202711 2.405425,-1.737251 0.935446,-0.534538 2.138156,-1.469983 2.672696,-2.672694 0.53454,-1.202714 -0.13364,-1.069078 0.53454,-1.33635 0.668174,-0.267268 0.935444,-0.267268 0.935444,-0.267268 0,0 0.66818,0.400904 2.405426,-0.668174 1.73725,-1.069078 1.46998,-0.801809 2.27179,-1.603618 0.80181,-0.801807 0.13363,-0.935443 1.33635,-1.202711 1.20271,-0.267272 1.46998,-0.534541 2.67269,-0.80181 1.20271,-0.267269 1.46998,-0.267269 2.13816,-0.400904 0.66817,-0.133636 2.13815,-0.80181 2.13815,-0.80181 0,0 2.13816,-1.870884 2.40543,-2.405424 0.26727,-0.534538 -0.4009,-0.80181 1.20271,-1.603617 1.60362,-0.801809 1.73725,-1.069078 2.27179,-1.870887 0.53454,-0.801809 -0.26727,0.400905 0.80181,-1.336349 1.06908,-1.737252 1.06908,-1.737252 1.33635,-2.939963 0.26727,-1.202714 0.26727,-2.271792 0.26727,-3.073601 0,-0.801809 0.26727,-0.534538 0,-2.271789 -0.26727,-1.737254 -0.26727,-2.672697 -0.93544,-3.741775 -0.66818,-1.069078 -1.06908,-2.138156 -1.87089,-2.939965 -0.80181,-0.801809 -2.00452,-0.668174 -2.00452,-0.668174 0,0 2.00452,0.267269 -1.73725,0 -3.74178,-0.267268 -4.94449,-1.336346 -4.94449,-1.336346 0,0 -0.40091,-0.668174 -1.20271,-0.80181 -0.80181,-0.133635 -0.13364,-0.400904 -0.93545,0 -0.8018,0.400905 -0.26727,0.400905 -1.87088,1.069078 -1.60362,0.668174 -1.06908,0.80181 -2.80633,1.202714 -1.737256,0.400905 -2.539066,0.668174 -3.47451,1.202711 -0.93544,0.534541 -0.93544,-0.668173 -1.46998,1.202714 -0.53454,1.870887 -0.26727,1.603619 -0.53454,2.539061 -0.26727,0.935442 -0.53454,1.469982 -0.53454,2.271792 0,0.801806 -0.13363,1.202711 -0.53454,2.00452 -0.400901,0.801809 -1.202711,1.603618 -1.469978,2.138156 -0.267272,0.53454 -0.267272,0.801809 -0.80181,1.469983 -0.53454,0.668173 -0.935442,0.668173 -2.00452,0.935442 -1.069078,0.267272 -1.336351,1.069078 -2.004523,0.133636 -0.668173,-0.935442 -0.935442,-2.004521 -0.935442,-2.539061 0,-0.534538 -0.935445,-0.400904 0.133633,-1.336347 1.069078,-0.935445 0.534539,-2.806329 0.668173,-3.608139 0.133636,-0.801809 1.202714,-2.004523 1.737253,-2.53906 0.534539,-0.534541 1.202713,-0.801809 1.336348,-1.336347 0.133636,-0.53454 0.267268,-0.801809 0.935442,-1.202714 0.668174,-0.400905 2.004523,-2.806329 2.004523,-2.806329 0,0 -1.202713,-0.668174 0,-1.202714 1.202711,-0.534538 2.138161,-2.004521 2.138161,-2.004521 0,0 -0.13364,-0.133635 0.4009,-0.668173 0.53454,-0.53454 0.13363,-0.53454 1.069084,-0.53454 0.93544,0 2.939956,-0.133636 3.741766,-0.133636 0.80181,0 3.47451,-0.267269 3.47451,-0.267269 0,0 0,-0.668173 0.8018,-0.801809 0.80181,-0.133633 1.46998,-0.267269 2.40543,0.133636 0.93544,0.400904 0.80181,0.53454 1.87088,0.935442 1.06908,0.400904 3.20724,0.400904 4.27632,0.53454 1.06908,0.133636 0.8018,-0.53454 1.06908,0.133636 0.26726,0.668173 0.4009,1.202711 0.4009,1.202711 0,0 0.13363,0.801809 1.73725,0.801809 1.60362,0 1.20272,0 2.6727,0.267269 1.46998,0.267272 2.93996,0.133636 3.0736,0.935445 0.13363,0.801807 0.13363,1.069078 0.26727,2.138156 0.13363,1.069078 -0.66818,0.267269 0.26726,2.138156 0.93545,1.870888 0.66818,1.603616 1.46999,2.80633 0.80181,1.202714 0.53453,1.336347 1.33635,2.138156 0.80181,0.801809 0.53453,2.939965 0.66817,3.608139 0.13364,0.668173 0.66817,1.336347 0.80181,2.138156 0.13363,0.801809 0.66817,0.935442 0.4009,2.138156 -0.26727,1.202714 -0.53454,2.138156 -1.06907,2.939965 -0.53455,0.801809 -0.53455,1.469983 -1.46999,2.27179 -0.93544,0.801809 -2.27179,1.603618 -2.93996,2.405427 -0.66818,0.801807 -1.46999,1.069078 -2.13816,1.870885 -0.66817,0.801809 1.33635,-0.400902 -1.20271,1.737254 -2.53906,2.138156 -2.53906,2.405425 -3.0736,2.672694 -0.53454,0.267269 -1.87089,0.935445 -2.40543,1.069078 -0.53454,0.133636 -2.00452,0.267269 -2.00452,0.267269 0,0 -2.40542,1.336349 -3.0736,1.737254 -0.66817,0.400905 -0.66817,0.133633 -1.20271,0.801807 -0.53454,0.668176 -1.60362,0.668176 -2.13816,0.801809 -0.53454,0.133636 -1.60361,0.53454 -2.13815,0.668173 -0.53454,0.133636 -3.0736,1.33635 -3.74178,1.469983 -0.668166,0.133636 -1.469976,2.405425 -1.469976,2.405425 0,0 -1.202714,1.202714 -1.336354,1.870887 -0.13363,0.668174 -0.13363,2.80633 -0.13363,2.80633 0,0 0.801814,1.469982 1.870894,1.737254 1.069066,0.267269 2.138146,0.534538 3.741766,0.400902 1.60362,-0.133633 2.00452,0 3.0736,-0.133633 1.06908,-0.133636 1.87088,-0.400905 1.87088,-0.400905 0,0 0.66818,0.267269 1.33635,0.400905 0.66818,0.133633 2.80633,0.133633 2.80633,0.133633 0,0 2.6727,0.133636 3.60814,0 0.93544,-0.133633 1.20271,-0.534538 2.13816,-0.400902 0.93544,0.133633 0.13363,0.133633 1.33635,0.133633 1.20271,0 1.33634,-0.133633 2.80632,0.133636 1.46999,0.267269 1.60362,0 2.53906,0.400904 0.93545,0.400905 1.46999,0.267269 2.00453,0.668174 0.53454,0.400905 0.93544,1.469983 0.93544,1.469983 0,0 0.40091,1.603615 0.53454,2.138156 0.13363,0.534537 -0.26727,2.405425 -0.26727,2.405425 0,0 -0.66817,1.069079 -0.66817,1.469979 0,0.40091 0,1.46999 0,1.46999 z"
         style="fill:#d40000;stroke:#000000;stroke-width:0.26458332px;stroke-linecap:butt;stroke-linejoin:miter;stroke-opacity:1" />
      <path
         inkscape:connector-curvature="0"
         id="path2011-4"
         d="m 61.512814,55.145319 c 0,0 1.336354,0.267269 2.004524,0.400905 0.668176,0.133636 1.069076,0.133636 1.603616,0 0.53454,-0.133636 0.97443,-0.491596 0.97443,-0.491596 l -0.14174,-0.472469 -0.23624,-0.614212 c 0,0 0,-0.14174 -0.33073,-0.472469 -0.33073,-0.330729 -0.14174,-0.472471 -0.51971,-0.755954 -0.37798,-0.28348 -0.70871,-0.425222 -0.99219,-0.519716 -0.283476,-0.09449 -0.425226,-0.04725 -1.181176,-0.09449 -0.75595,-0.04725 -0.56696,-0.0945 -1.08668,0 -0.519724,0.09449 -0.708704,0.236233 -0.708704,0.566962 0,0.33073 -0.23624,0.519719 -0.18899,0.897695 0.0472,0.377975 0.14174,0.377975 0,0.566965 -0.14174,0.188986 -0.28349,0.236233 -0.28349,0.519715 0,0.283483 1.08708,0.468667 1.08708,0.468667 z"
         style="fill:#d40000;stroke:#000000;stroke-width:0.26458332px;stroke-linecap:butt;stroke-linejoin:miter;stroke-opacity:1" />
      <path
         inkscape:connector-curvature="0"
         id="path2041"
         d="m 149.53993,37.34935 c 0,0 -2.36235,-1.228423 -2.74033,-1.228423 -0.37798,0 -1.03943,-0.377976 -1.32292,0 -0.28348,0.377976 -0.37797,0.755952 -1.41741,0.755952 -1.03943,0 -1.88988,0.0945 -2.92931,0.283482 -1.03944,0.188989 -1.6064,0 -2.55134,0.377976 -0.94494,0.377978 -1.70089,0.566965 -3.02381,0.566965 -1.32292,0 -1.79539,-0.09449 -2.64583,0.188989 -0.85045,0.283483 -1.32292,0.377976 -1.98438,0.566963 -0.66146,0.188989 -1.5119,0.661458 -2.36235,0.94494 -0.85045,0.283483 -0.85045,-0.09449 -1.88988,0.850448 -1.03944,0.944941 -1.13393,0.755952 -2.07887,1.700892 -0.94494,0.944941 -0.75595,0.944941 -1.70089,1.889882 -0.94494,0.944941 -1.6064,1.039434 -2.26786,1.606399 -0.66146,0.566963 -1.32292,0.377976 -1.6064,1.322917 -0.28348,0.944938 -0.18899,1.322917 -0.56696,2.173362 -0.37798,0.850447 -1.98438,1.322916 -2.55134,1.889881 -0.56697,0.566965 -0.47247,3.401785 -0.75596,3.779761 -0.28348,0.377978 -0.47246,1.700895 -0.37797,2.078871 0.0945,0.377976 0.0945,0 0,1.322917 -0.0945,1.322916 0.18899,1.133927 -0.18899,2.36235 -0.37798,1.228424 -0.56696,1.039434 -0.94494,2.83482 -0.37798,1.795389 -0.18899,1.795389 -0.47247,3.212799 -0.28348,1.417409 -0.56697,2.456846 -0.56697,3.307291 0,0.850448 -0.47246,12.378722 -0.47246,12.945684 0,0.566965 -0.37798,2.834823 -0.37798,3.590774 0,0.755952 0.47247,2.078869 0.85044,2.929316 0.37798,0.850448 0.28349,1.322917 1.13393,1.984375 0.85045,0.661458 1.51191,0.850448 2.74033,2.173364 1.22842,1.322917 1.13393,1.228421 1.51191,2.078869 0.37797,0.850444 0.85044,1.417409 1.88988,2.173361 1.03943,0.755956 2.55134,3.118303 3.21279,3.496273 0.66146,0.37798 0.94495,0.0945 1.79539,0.56697 0.85045,0.47247 0.0945,-0.94494 1.6064,0.56696 1.51191,1.51191 4.8192,1.6064 4.8192,1.6064 0,0 1.41741,0.0945 2.36235,0 0.94494,-0.0945 1.5119,-0.56696 2.26786,-0.56696 0.75595,0 1.4174,0.47247 2.74032,0 1.32292,-0.47247 1.79539,-0.66146 2.17337,-0.94494 0.37797,-0.28348 1.03943,-0.75596 1.70089,-1.32292 0.66146,-0.56696 0.18899,-0.18899 0.94494,-0.75595 0.75595,-0.56697 1.22842,-0.56697 1.70089,-1.417408 0.47247,-0.850449 0.37798,-0.566969 0.85045,-1.700894 0.47247,-1.133927 0.28348,-0.944941 0.85044,-1.795386 0.56697,-0.850447 0.18899,-0.755954 1.22843,-1.13393 1.03943,-0.377976 0.75595,-0.283482 1.6064,-0.661458 0.85044,-0.377976 1.32291,-0.850445 1.5119,-1.322917 0.18899,-0.472469 1.03943,-4.346726 1.03943,-4.346726 0,0 0.0945,0.377976 0.0945,-1.322916 0,-1.700893 0,-2.078868 0,-2.929316 0,-0.850445 -0.0945,-1.039434 -0.0945,-1.795386 0,-0.755954 0,-1.13393 -0.0945,-1.795388 -0.0945,-0.661459 0.28348,-1.133928 0,-2.362351 -0.28348,-1.228423 0.18899,-0.850445 -0.66146,-2.456844 -0.85044,-1.606399 -1.03943,-1.511906 -1.5119,-2.362351 -0.47247,-0.850447 -1.79539,-2.55134 -2.36235,-3.307291 -0.56697,-0.755955 -0.75596,-1.039437 -1.6064,-1.700896 -0.85045,-0.661458 -0.66146,-0.472469 -1.88988,-1.511903 -1.22843,-1.039434 -2.74033,-2.078868 -2.74033,-2.078868 0,0 -1.13393,-1.039437 -2.17336,-1.228423 -1.03944,-0.18899 -1.51191,-0.18899 -2.55134,0 -1.03944,0.188986 -1.79539,0.283482 -2.17336,0 -0.37798,-0.283483 0.0945,-0.755952 -1.22843,-0.755952 -1.32291,0 -4.15774,0 -4.91369,0 -0.75595,0 -1.5119,0 -2.45684,0.755952 -0.94494,0.755951 -2.26786,1.322916 -3.11831,1.889881 -0.85044,0.566963 -1.70089,1.889879 -1.70089,1.889879 l -1.5119,-0.188986 c 0,0 -0.28349,-1.13393 0.0945,-1.606399 0.37798,-0.472472 1.32292,-1.700893 1.5119,-2.078869 0.18899,-0.377978 0.85045,-1.228423 0.94494,-1.700895 0.0945,-0.472469 -0.56696,-0.566962 0.18899,-1.322916 0.75595,-0.755952 1.41741,-2.173362 1.41741,-2.173362 l 0.28349,-0.850448 1.22842,-2.834819 0.18899,-1.322917 c 0,0 0.37797,-0.283483 1.32291,-0.566965 0.94494,-0.283483 1.41741,-0.377976 1.70089,-1.039434 0.28349,-0.661459 -0.18898,-0.944941 0.66146,-1.322917 0.85045,-0.377976 1.32292,0.377976 2.07887,-0.661458 0.75596,-1.039434 0.37798,-1.228424 1.13393,-1.511906 0.75595,-0.283483 0.37798,0 2.83482,-0.566965 2.45685,-0.566963 2.07887,-0.188987 3.02381,-0.755952 0.94494,-0.566965 0.85045,-0.661458 1.79539,-0.850445 0.94494,-0.188989 0.47247,-0.0945 1.88988,-0.283482 1.41741,-0.188989 1.70089,0.283482 2.74033,-0.283483 1.03943,-0.566965 0.37797,-0.566965 1.79538,-0.755951 1.41741,-0.18899 1.22843,-0.0945 2.26786,-0.661459 1.03944,-0.566965 1.22842,-0.472471 1.6064,-0.94494 0.37798,-0.472472 0.56696,-0.850448 0.56696,-1.322917 0,-0.472472 0.0945,-1.322917 0,-1.795389 -0.0945,-0.472469 -0.37797,-1.700892 -0.37797,-1.700892 z"
         style="fill:#d40000;stroke:#000000;stroke-width:0.26458332px;stroke-linecap:butt;stroke-linejoin:miter;stroke-opacity:1" />
      <path
         inkscape:connector-curvature="0"
         id="path2043"
         d="m 195.45781,34.135401 c 0,0 -4.72471,-0.09449 -5.19718,-0.09449 -0.47247,0 -3.87425,0 -3.87425,0 l -1.13393,-0.472471 c 0,0 -0.56697,-0.755952 -1.03944,-0.661459 -0.47247,0.09449 -0.47247,0 -1.03943,0.377976 -0.56697,0.377976 -0.85045,0.377976 -2.26786,0.661458 -1.41741,0.283483 -7.18155,0.377976 -7.74851,0.377976 -0.56697,0 -1.22842,-0.188986 -2.64583,0 -1.41741,0.18899 -1.41741,0.0945 -2.64584,0.283483 -1.22842,0.188989 -3.77976,0.566965 -4.25223,0.566965 -0.47247,0 -1.41741,-0.283483 -2.36235,0.09449 -0.94494,0.377976 -1.41741,0.377976 -1.6064,0.755954 -0.18899,0.377976 -1.32292,3.685268 -1.51191,4.063244 -0.18898,0.377975 -0.66145,0.850445 -0.66145,1.889881 0,1.039434 -0.18899,2.551338 0,3.023809 0.18898,0.47247 0.85044,1.133928 1.79538,1.228424 0.94494,0.09449 1.7009,0.28348 2.36235,-0.0945 0.66146,-0.377976 0.18899,-0.283483 1.41741,-0.661458 1.22843,-0.377976 1.22843,-0.283483 1.98438,-1.039435 0.75595,-0.755951 0.85045,-0.661458 1.13393,-1.511905 0.28348,-0.850445 0.37798,-1.133928 2.36235,-1.133928 1.98438,0 1.41741,0 2.55134,0 1.13393,0 0.56696,0.09449 2.07887,0.09449 1.5119,0 1.13393,0.0945 2.92931,0.0945 1.79539,0 1.7009,0.09449 2.74033,-0.188989 1.03944,-0.283482 0.66146,0.188989 1.51191,-0.472469 0.85044,-0.661458 -0.28349,-1.417413 1.60639,-0.661458 1.88989,0.755951 1.98438,0.188986 1.98438,1.039434 0,0.850445 0.94494,0 -0.0945,1.700892 -1.03944,1.700893 -0.0945,1.511904 -1.88989,2.267858 -1.79538,0.755951 -2.17336,0.850445 -2.83482,1.322916 -0.66145,0.47247 -1.03943,0.377976 -1.32291,1.228424 -0.28349,0.850445 -0.56697,0.944938 -0.75595,1.795386 -0.18899,0.850447 1.03943,-0.09449 -1.32292,1.795385 -2.36235,1.889882 -2.74033,2.456847 -2.74033,2.456847 l -1.79539,1.511903 c 0,0 -1.41741,-0.472469 -1.79538,0 -0.37798,0.472472 -0.75596,1.322917 -1.03944,1.889882 -0.28348,0.566965 -0.18899,0.944941 -0.47247,1.41741 -0.28348,0.472472 0,0.944941 -0.56696,1.322916 -0.56697,0.377979 -1.13393,0 -1.32292,1.133931 -0.18899,1.133927 -1.03943,0.850444 -0.18899,2.267857 0.85045,1.41741 3.40179,1.606399 4.34673,1.41741 0.94494,-0.188989 0.94494,0 2.07887,-0.566965 1.13393,-0.566962 1.5119,-0.755952 2.36235,-1.133927 0.85045,-0.377976 1.13393,-0.850448 1.98437,-1.133931 0.85045,-0.283479 0.18899,0.18899 1.7009,-0.661458 1.5119,-0.850445 1.03943,-0.28348 1.88988,-1.41741 0.85045,-1.133927 1.13393,-1.41741 1.79538,-1.133927 0.66146,0.283482 -0.18898,-0.0945 1.41742,0.944941 1.6064,1.039434 2.26785,0.661458 2.64583,0.755951 0.37798,0.09449 0.28348,-0.188989 0.75595,0.566965 0.47247,0.755952 0.0945,0.09449 0.75595,1.41741 0.66146,1.322917 0.47247,1.322917 1.03944,1.984375 0.56696,0.661459 -0.28348,-0.09449 0.66146,0.850445 0.94494,0.944941 0.75595,-0.28348 1.32291,1.322917 0.56697,1.606399 0.47247,1.039437 0.66146,1.795388 0.18899,0.755952 -0.18899,5.102678 -0.28348,5.669643 -0.0945,0.566965 -0.75595,2.456844 -0.75595,2.456844 0,0 -0.47247,0.94494 -0.47247,1.322916 0,0.377979 0.47247,0 -0.18899,1.039437 -0.66146,1.039434 -1.03944,1.511903 -1.03944,2.267855 0,0.755954 0.28349,0.944941 -0.37797,1.889882 -0.66146,0.94494 -2.17337,0.850447 -2.92932,0.94494 -0.75595,0.09449 -3.2128,2.929316 -3.2128,2.929316 0,0 0.37798,-0.188989 -0.37797,0.472469 -0.75595,0.661459 -1.98438,1.417413 -2.45685,1.511906 -0.47247,0.09449 0.18899,-0.188989 -0.94494,0.09449 -1.13392,0.283482 -1.22842,-0.09449 -2.17336,1.13393 -0.94494,1.22842 -1.5119,1.795385 -2.45685,2.173361 -0.94494,0.377976 -0.47246,0.377976 -1.22842,0.377976 -0.75595,0 -2.92931,-1.133927 -3.30729,-0.944941 -0.37798,0.188989 -1.22842,0.944941 -1.32292,1.322917 -0.0945,0.377978 0.47247,0.661458 -0.28348,1.13393 -0.75595,0.472459 -0.0945,0.472459 -1.41741,0.566959 -1.32292,0.0945 -0.75595,0.0945 -1.79539,0.37798 -1.03943,0.28348 -1.41741,0.18898 -1.98437,0.75595 -0.56697,0.56696 -0.94494,1.03943 -1.70089,1.41741 -0.75596,0.37797 -1.32292,0 -1.41742,1.32291 -0.0945,1.322916 -0.0945,1.606396 -0.0945,2.740326 0,1.13393 -0.56696,1.88988 0.66146,2.36235 1.22842,0.47247 3.2128,0.66146 3.49628,0.47247 0.28348,-0.18898 -1.13393,-0.28348 1.22842,-0.28348 2.36235,0 2.45685,0.18899 3.11831,0 0.66145,-0.18899 2.26785,-0.0945 2.64583,-0.37797 0.37798,-0.28349 -0.66146,0.47247 0.66146,-0.66146 1.32291,-1.13393 0,-0.66146 1.41741,-1.22843 1.41741,-0.56696 0.94494,-0.56696 2.26786,-0.56696 1.32291,0 1.5119,-0.0945 2.64583,-0.47247 1.13393,-0.37798 0.37797,0.0945 2.17336,-0.85045 1.79539,-0.944936 1.7009,-0.566956 2.83482,-1.606386 1.13393,-1.03944 0.94494,-0.94495 1.98438,-1.7009 1.03943,-0.75595 0.66146,-0.47247 1.6064,-0.85044 0.94494,-0.37798 1.70089,-0.56697 2.07887,-1.417409 0.37797,-0.850448 -0.28349,-1.13393 0.47247,-1.511906 0.75595,-0.377976 1.60639,-1.039434 1.60639,-1.039434 0,0 0.75596,-0.09449 1.41742,-0.850445 0.66145,-0.755954 0.47247,-0.755954 1.6064,-1.700895 1.13391,-0.944938 1.5119,-0.944938 1.70089,-1.795386 0.18899,-0.850448 1.98438,-3.401785 1.98438,-3.401785 0,0 -0.189,-0.755954 0.0945,-1.322917 0.2835,-0.566965 0.85045,-1.606399 0.85045,-1.606399 0,0 1.22843,-3.212798 1.22843,-3.685267 0,-0.472472 0,-1.417413 0.0945,-1.795389 0.0945,-0.377975 0.47247,-1.511903 0.47247,-1.511903 0,0 0.0945,-0.755954 0.0945,-1.417412 0,-0.661459 0.18899,-1.511904 0.0945,-2.173362 -0.0945,-0.661458 -0.0945,-0.661458 -0.0945,-1.795388 0,-1.133928 0.18899,-2.362351 -0.0945,-2.929313 -0.28347,-0.566965 -0.28347,-1.322917 -0.56695,-1.984375 -0.2835,-0.661459 -0.94496,-1.6064 -1.41742,-2.267858 -0.47247,-0.661458 -0.56695,-1.13393 -1.13393,-1.606399 -0.56695,-0.472472 -1.98437,-1.41741 -1.98437,-1.41741 l -1.13393,-0.377978 c 0,0 -0.85044,-0.09449 -1.88988,-0.566963 -1.03943,-0.472472 -0.37798,0 -1.79539,-1.039434 -1.41741,-1.039437 -2.45684,-1.322917 -3.0238,-1.511906 -0.56697,-0.188989 -1.41741,-0.661458 -2.07887,-0.755951 -0.66146,-0.0945 -0.56697,0.09449 -1.32292,-0.283483 -0.75595,-0.377976 -1.03944,-0.850448 -1.03944,-0.850448 0,0 1.88989,-1.133927 2.07887,-1.511903 0.18899,-0.377976 0.37798,-0.377976 0.18899,-0.944941 -0.18899,-0.566965 -0.94494,-0.377975 0,-1.039434 0.94494,-0.661458 1.79539,-1.228423 1.79539,-1.228423 l 2.83482,-2.078868 c 0,0 0.18899,-0.377976 1.03943,-1.13393 0.85045,-0.755952 0.85045,-0.566965 1.41742,-1.133928 0.56696,-0.566965 0.56696,-0.661458 1.88987,-1.13393 1.32291,-0.472469 1.5119,-0.566962 2.36235,-1.133927 0.85045,-0.566965 1.7009,-0.944941 1.79539,-1.322917 0.0945,-0.377976 0.18899,-1.41741 0.2835,-1.889882 0.0945,-0.472469 0.0945,-1.133927 0.0945,-1.41741 0,-0.283482 -0.18899,-2.173364 -0.18899,-2.173364 z"
         style="fill:#d40000;stroke:#000000;stroke-width:0.26458332px;stroke-linecap:butt;stroke-linejoin:miter;stroke-opacity:1" />
      <path
         inkscape:connector-curvature="0"
         id="path2045"
         d="m -55.358203,38.082639 -3.119885,0.113458 h -0.801807 l -0.801809,0.400905 -3.428219,0.554715"
         style="fill:#d40000;stroke:#000000;stroke-width:0.26458332px;stroke-linecap:butt;stroke-linejoin:miter;stroke-opacity:1" />
    </g>
  </g>
</svg>
