<?xml version="1.0" encoding="UTF-8" standalone="no"?>
<!-- Created with Inkscape (http://www.inkscape.org/) -->

<svg
   xmlns:dc="http://purl.org/dc/elements/1.1/"
   xmlns:cc="http://creativecommons.org/ns#"
   xmlns:rdf="http://www.w3.org/1999/02/22-rdf-syntax-ns#"
   xmlns:svg="http://www.w3.org/2000/svg"
   xmlns="http://www.w3.org/2000/svg"
   xmlns:sodipodi="http://sodipodi.sourceforge.net/DTD/sodipodi-0.dtd"
   xmlns:inkscape="http://www.inkscape.org/namespaces/inkscape"
   width="210mm"
   height="297mm"
   viewBox="0 0 210 297"
   version="1.1"
   id="svg8"
   inkscape:version="0.92.1 r15371"
   sodipodi:docname="christine.svg">
  <defs
     id="defs2" />
  <sodipodi:namedview
     id="base"
     pagecolor="#ffffff"
     bordercolor="#666666"
     borderopacity="1.0"
     inkscape:pageopacity="0.0"
     inkscape:pageshadow="2"
     inkscape:zoom="0.31489863"
     inkscape:cx="-853.10431"
     inkscape:cy="538.77693"
     inkscape:document-units="mm"
     inkscape:current-layer="layer1"
     showgrid="false"
     inkscape:window-width="1536"
     inkscape:window-height="801"
     inkscape:window-x="-8"
     inkscape:window-y="-8"
     inkscape:window-maximized="1" />
  <metadata
     id="metadata5">
    <rdf:RDF>
      <cc:Work
         rdf:about="">
        <dc:format>image/svg+xml</dc:format>
        <dc:type
           rdf:resource="http://purl.org/dc/dcmitype/StillImage" />
        <dc:title></dc:title>
      </cc:Work>
    </rdf:RDF>
  </metadata>
  <g
     inkscape:label="Layer 1"
     inkscape:groupmode="layer"
     id="layer1">
    <flowRoot
       xml:space="preserve"
       id="flowRoot1074"
       style="font-style:normal;font-weight:normal;font-size:40px;line-height:1.25;font-family:sans-serif;letter-spacing:0px;word-spacing:0px;fill:#000000;fill-opacity:1;stroke:none"
       transform="scale(0.26458333)"><flowRegion
         id="flowRegion1076"><rect
           id="rect1078"
           width="116.76631"
           height="44.910122"
           x="-1131.1737"
           y="321.9968" /></flowRegion><flowPara
         id="flowPara1080">20</flowPara></flowRoot>    <flowRoot
       xml:space="preserve"
       id="flowRoot1082"
       style="font-style:normal;font-weight:normal;font-size:40px;line-height:1.25;font-family:sans-serif;letter-spacing:0px;word-spacing:0px;fill:#000000;fill-opacity:1;stroke:none"
       transform="scale(0.26458333)"><flowRegion
         id="flowRegion1084"><rect
           id="rect1086"
           width="235.77814"
           height="44.348743"
           x="-1319.2347"
           y="342.76773" /></flowRegion><flowPara
         id="flowPara1088">lkj a;lkdj f;lksdjfl;asjdl;fasjdad</flowPara><flowPara
         id="flowPara1090" /></flowRoot>    <g
       id="g1265"
       transform="matrix(2.2176753,0,0,2.2176753,684.45971,-165.42742)">
      <g
         id="g1228">
        <path
           style="fill:none;stroke:#000000;stroke-width:0.26458332px;stroke-linecap:butt;stroke-linejoin:miter;stroke-opacity:1"
           d="m -300.71274,154.10812 c 0,0 -0.25237,-2.48543 -0.31991,-3.73225 -0.0846,-1.5621 -0.12795,-3.12772 -0.10665,-4.69197 0.0194,-1.42345 0.072,-2.84887 0.21328,-4.26543 0.14271,-1.43061 0.33939,-2.85945 0.63982,-4.26542 0.3316,-1.55182 0.67385,-3.11867 1.27963,-4.58534 0.6379,-1.54445 1.57593,-2.9495 2.4526,-4.37207 0.9672,-1.56947 1.94851,-3.1396 3.09245,-4.58533 1.17063,-1.47946 2.50338,-2.82629 3.8389,-4.1588 1.2644,-1.26156 2.54063,-2.52264 3.94552,-3.62561 1.51208,-1.18712 3.1482,-2.21329 4.79861,-3.19907 1.62454,-0.97033 3.25712,-1.95773 5.01187,-2.66589 1.43982,-0.58106 2.97288,-0.90126 4.47871,-1.27964 1.62282,-0.40778 3.24793,-0.83577 4.90524,-1.06635 1.69319,-0.23557 3.40904,-0.30926 5.11851,-0.31991 1.42356,-0.009 2.84788,0.0823 4.26543,0.21327 1.3215,0.12211 2.65021,0.24432 3.94552,0.53318 1.27281,0.28385 2.50208,0.7402 3.73225,1.17299 1.47573,0.51918 2.96345,1.02562 4.37206,1.70618 1.3339,0.64447 2.60445,1.42033 3.83889,2.23935 0.88857,0.58954 1.72092,1.26042 2.55926,1.91944 1.23083,0.96756 2.50213,1.89543 3.62561,2.9858 0.81344,0.78947 1.5006,1.6995 2.23935,2.55926 0.96991,1.12878 1.99409,2.21589 2.87917,3.41234 0.77986,1.05422 1.47622,2.17055 2.13271,3.30571 0.66058,1.14223 1.25647,2.32251 1.81281,3.51898 0.58449,1.25702 1.11768,2.53906 1.59953,3.83888 0.5978,1.61258 1.15337,3.24431 1.59954,4.90525 0.4431,1.64954 0.79887,3.32493 1.06636,5.01187 0.21271,1.34142 0.41689,2.69401 0.42654,4.05216 0.0112,1.5704 -0.42654,4.69197 -0.42654,4.69197"
           id="path21"
           inkscape:connector-curvature="0"
           sodipodi:nodetypes="csssssssssssssssssssssssssssssc" />
        <rect
           style="opacity:1;fill:#ececec;fill-opacity:1;fill-rule:nonzero;stroke:#000000;stroke-width:0.30000001;stroke-linejoin:round;stroke-miterlimit:4;stroke-dasharray:none;stroke-dashoffset:0;stroke-opacity:1"
           id="rect33"
           width="11.268177"
           height="1.4587288"
           x="-296.05869"
           y="147.28963"
           ry="0.7293644" />
        <rect
           style="opacity:1;fill:#ececec;fill-opacity:1;fill-rule:nonzero;stroke:#000000;stroke-width:0.30000001;stroke-linejoin:round;stroke-miterlimit:4;stroke-dasharray:none;stroke-dashoffset:0;stroke-opacity:1"
           id="rect33-1"
           width="11.268177"
           height="1.4587288"
           x="-254.39236"
           y="203.31715"
           ry="0.7293644"
           transform="rotate(13.44287)" />
        <rect
           style="opacity:1;fill:#ececec;fill-opacity:1;fill-rule:nonzero;stroke:#000000;stroke-width:0.30000001;stroke-linejoin:round;stroke-miterlimit:4;stroke-dasharray:none;stroke-dashoffset:0;stroke-opacity:1"
           id="rect33-0"
           width="11.268177"
           height="1.4587288"
           x="-188.06996"
           y="257.25571"
           ry="0.7293644"
           transform="rotate(29.787181)" />
        <rect
           style="opacity:1;fill:#ececec;fill-opacity:1;fill-rule:nonzero;stroke:#000000;stroke-width:0.30000001;stroke-linejoin:round;stroke-miterlimit:4;stroke-dasharray:none;stroke-dashoffset:0;stroke-opacity:1"
           id="rect33-09"
           width="11.268177"
           height="1.4587288"
           x="-113.38314"
           y="289.34222"
           ry="0.7293644"
           transform="rotate(45.289508)" />
        <rect
           style="opacity:1;fill:#ececec;fill-opacity:1;fill-rule:nonzero;stroke:#000000;stroke-width:0.30000001;stroke-linejoin:round;stroke-miterlimit:4;stroke-dasharray:none;stroke-dashoffset:0;stroke-opacity:1"
           id="rect33-9"
           width="11.268177"
           height="1.4587288"
           x="-35.904442"
           y="300.49158"
           ry="0.7293644"
           transform="rotate(60.149358)" />
        <rect
           style="opacity:1;fill:#ececec;fill-opacity:1;fill-rule:nonzero;stroke:#000000;stroke-width:0.30000001;stroke-linejoin:round;stroke-miterlimit:4;stroke-dasharray:none;stroke-dashoffset:0;stroke-opacity:1"
           id="rect33-2"
           width="11.268177"
           height="1.4587288"
           x="51.922474"
           y="288.62799"
           ry="0.7293644"
           transform="rotate(77.158099)" />
        <rect
           style="opacity:1;fill:#ececec;fill-opacity:1;fill-rule:nonzero;stroke:#000000;stroke-width:0.30000001;stroke-linejoin:round;stroke-miterlimit:4;stroke-dasharray:none;stroke-dashoffset:0;stroke-opacity:1"
           id="rect33-7"
           width="11.268177"
           height="1.4587288"
           x="111.41644"
           y="262.41251"
           ry="0.7293644"
           transform="rotate(89.467235)" />
        <rect
           style="opacity:1;fill:#ececec;fill-opacity:1;fill-rule:nonzero;stroke:#000000;stroke-width:0.30000001;stroke-linejoin:round;stroke-miterlimit:4;stroke-dasharray:none;stroke-dashoffset:0;stroke-opacity:1"
           id="rect33-8"
           width="11.268177"
           height="1.4587288"
           x="175.58797"
           y="215.13611"
           ry="0.7293644"
           transform="rotate(104.68617)" />
        <rect
           style="opacity:1;fill:#ececec;fill-opacity:1;fill-rule:nonzero;stroke:#000000;stroke-width:0.30000001;stroke-linejoin:round;stroke-miterlimit:4;stroke-dasharray:none;stroke-dashoffset:0;stroke-opacity:1"
           id="rect33-20"
           width="11.268177"
           height="1.4587288"
           x="-240.09181"
           y="-148.56027"
           ry="0.7293644"
           transform="rotate(-58.666217)" />
        <rect
           style="opacity:1;fill:#ececec;fill-opacity:1;fill-rule:nonzero;stroke:#000000;stroke-width:0.30000001;stroke-linejoin:round;stroke-miterlimit:4;stroke-dasharray:none;stroke-dashoffset:0;stroke-opacity:1"
           id="rect33-23"
           width="11.268177"
           height="1.4587288"
           x="-263.12778"
           y="-94.095978"
           ry="0.7293644"
           transform="rotate(-47.894682)" />
        <rect
           style="opacity:1;fill:#ececec;fill-opacity:1;fill-rule:nonzero;stroke:#000000;stroke-width:0.30000001;stroke-linejoin:round;stroke-miterlimit:4;stroke-dasharray:none;stroke-dashoffset:0;stroke-opacity:1"
           id="rect33-72"
           width="11.268177"
           height="1.4587288"
           x="-278.35349"
           y="-5.4635749"
           ry="0.7293644"
           transform="rotate(-30.38165)" />
        <rect
           style="opacity:1;fill:#ececec;fill-opacity:1;fill-rule:nonzero;stroke:#000000;stroke-width:0.30000001;stroke-linejoin:round;stroke-miterlimit:4;stroke-dasharray:none;stroke-dashoffset:0;stroke-opacity:1"
           id="rect33-6"
           width="11.268177"
           height="1.4587288"
           x="-239.4019"
           y="147.3257"
           ry="0.7293644" />
        <rect
           style="opacity:1;fill:#ececec;fill-opacity:1;fill-rule:nonzero;stroke:#000000;stroke-width:0.30000001;stroke-linejoin:round;stroke-miterlimit:4;stroke-dasharray:none;stroke-dashoffset:0;stroke-opacity:1"
           id="rect33-91"
           width="11.268177"
           height="1.4587288"
           x="-270.78372"
           y="67.332588"
           ry="0.7293644"
           transform="rotate(-16.549869)" />
        <path
           style="fill:none;stroke:#000000;stroke-width:0.26458332px;stroke-linecap:butt;stroke-linejoin:miter;stroke-opacity:1"
           d="m -300.71274,154.10812 0.38751,3.31075 0.99777,3.93852 1.73294,4.72622"
           id="path1096"
           inkscape:connector-curvature="0" />
        <path
           style="fill:none;stroke:#000000;stroke-width:0.26458332px;stroke-linecap:butt;stroke-linejoin:miter;stroke-opacity:1"
           d="m -221.69567,153.36167 -0.64688,3.74212 -1.26032,3.99103 -1.99552,4.93628"
           id="path1102"
           inkscape:connector-curvature="0" />
        <path
           style="fill:none;stroke:#000000;stroke-width:0.26458332px;stroke-linecap:butt;stroke-linejoin:miter;stroke-opacity:1"
           d="m -297.59452,166.08361 71.99613,-0.0525"
           id="path1104"
           inkscape:connector-curvature="0" />
        <path
           style="fill:none;stroke:#000000;stroke-width:0.26458332px;stroke-linecap:butt;stroke-linejoin:miter;stroke-opacity:1"
           d="m -264.31067,147.80074 21.70288,-27.35761 0.65076,0.41689 -17.02148,27.30825"
           id="path1108"
           inkscape:connector-curvature="0"
           sodipodi:nodetypes="cccc" />
        <path
           style="fill:none;stroke:#000000;stroke-width:0.45282868px;stroke-linecap:butt;stroke-linejoin:miter;stroke-opacity:1"
           d="m -264.29941,134.84142 -1.90385,0.53698 -2.24554,0.92749 c 0,0 -1.36687,0.73224 -1.46449,0.92751 -0.0977,0.19527 -1.56213,1.51331 -1.56213,1.51331 l -1.07393,1.85501 c 0,0 -0.68346,1.36686 -0.73227,1.61094 -0.0488,0.24408 -0.48816,1.80619 -0.48816,1.80619 0,0 -0.58577,0.58581 -0.58577,0.78108 0,0.19526 0.0488,2.24555 0.0488,2.24555 l 0.0975,1.31804 c 0,0 0.14652,0.68342 0.14652,0.87869 0,0.19526 -0.0488,0.87869 0,1.2204 0.0488,0.34171 0.24407,0.39053 0.0488,0.63462 -0.19525,0.24407 -0.39051,0.48814 -0.39051,0.48814 l -0.0488,1.41569 0.0488,1.07395 v 0.48816 l -0.48819,0.53698 -0.0488,0.34171 0.92754,1.02515 c 0,0 0.82986,0.92751 1.0251,0.97633 0.19531,0.0488 0.97636,0.39052 0.97636,0.39052 l 1.26923,0.14651 0.43933,-0.53698 0.97635,0.0488 0.78103,0.14649 0.0977,0.58579 -0.29291,0.68344 c 0,0 -0.14652,0.39053 -0.24407,0.58579 -0.0976,0.19527 -0.43933,0.82989 -0.43933,0.82989 l -0.0977,0.63461 0.34173,0.87869 0.53695,0.68342 0.48814,-0.68342 v -0.63461 c 0,0 0.0976,-0.34172 0.24412,-0.19528 0.14651,0.14652 0.14651,0.78106 0.14651,0.97632 0,0.19528 0,0.73226 0,0.92752 0,0.19527 0.1465,0.39052 0.1465,0.39052 l 0.73223,-0.0976 0.1465,-0.24409 0.34171,-0.2929 0.29291,-0.14651 0.2929,0.43934 0.24408,0.2929 0.5858,0.0488 0.34171,-0.0488 h 0.78105 l 0.19526,-0.2929 0.2929,-0.19526 0.53698,0.39052 c 0,0 0.19526,-0.14651 0.2441,-0.48817 0.0488,-0.34171 0.19526,-0.73223 0.29288,-0.92749 0.0977,-0.19527 0.19526,-0.24407 0.2441,0.14649 0.0488,0.39053 -0.0977,1.02515 -0.0977,1.02515 l 0.24407,0.39052 c 0,0 0.34172,0.19526 0.537,-0.0975 0.19527,-0.2929 0.14651,0.0975 0.19527,-0.34171 0.0488,-0.43936 0.0488,-0.63462 0.0488,-0.8787 0,-0.24409 -0.24407,-0.73224 0,-0.63461 0.24407,0.0975 0.34171,0.0975 0.34171,0.0975 v 1.17158 l 0.29291,0.53698 0.24407,0.0488 0.58579,-0.29291 c 0,0 -0.0977,-0.2441 0.2929,-0.2441 0.39054,0 0.73225,0 0.73225,0 l 0.63462,-0.24407 0.34171,-0.63462 c 0,0 0.0488,-0.1465 0.0488,-0.34172 0,-0.19526 0.0976,-0.48814 0.0976,-0.63458 0,-0.14651 0,-0.29291 0,-0.48818 0,-0.19526 -0.0488,-0.39053 -0.0976,-0.5858 -0.0488,-0.19525 -0.0488,-0.68343 -0.0488,-0.68343 l 0.24408,-0.29288 0.39053,-0.43936 c 0,0 0.68342,-0.2929 0.9275,-0.2929 0.24409,0 0.68344,0 0.68344,0 0,0 0,0.0488 0.19525,0.2441 0.19528,0.19526 0.78106,0.3417 0.78106,0.3417 h 0.68344 l 0.87869,-0.39054 0.78105,-0.78105 0.39053,-0.43935 v -0.78105 c 0,0 0.58581,-0.34171 0.58581,-0.48817 0,-0.1465 0.1465,-0.63461 0.1465,-0.82988 0,-0.19526 -0.43935,-0.97632 -0.43935,-0.97632 l -0.2929,-0.73224 c 0,0 -0.0488,-0.29291 0.0488,-0.68343 0.0976,-0.39053 0.39053,-0.92751 0.39053,-0.92751 v -0.5858 c 0,0 0,-0.58579 0.0977,-0.97633 0.0975,-0.39052 0.48814,-1.12276 0.48814,-1.12276 l 0.0977,-0.63462 -0.19526,-1.75738 -0.0975,-2.34319 -0.92751,-0.68342 0.0976,-1.02515 -0.82988,-1.65975 -0.73224,-1.07395 -1.07396,-1.07396 -1.51331,-1.07397 -1.31803,-1.17157 c 0,0 -0.39052,-0.29291 -0.6346,-0.48817 -0.24409,-0.19527 -1.31805,-0.39052 -1.31805,-0.39052 h -0.24409 l -0.58579,-0.29291 -1.07394,-0.1465 -2.05029,-0.1465 z"
           id="path23"
           inkscape:connector-curvature="0" />
        <path
           style="fill:none;stroke:#000000;stroke-width:0.45282868px;stroke-linecap:butt;stroke-linejoin:miter;stroke-opacity:1"
           d="m -265.42219,150.60907 -0.5858,0.9763 -0.48815,0.92753 c 0,0 -0.39054,0.39052 -0.43935,0.63461 -0.0488,0.24407 -0.53696,0.58578 -0.73223,0.78104 -0.19525,0.19529 -0.0977,0.29291 -0.73227,0.39055 -0.6346,0.0975 -1.12275,0.1465 -1.12275,0.1465 0,0 -0.53701,-0.24408 -0.8299,-0.2929 -0.29287,-0.0488 -1.12278,-0.5858 -1.12278,-0.5858 l -0.53697,-0.78105 -0.0976,-1.85502 0.24408,-1.26923 c 0,0 0,-0.63461 0.24407,-0.87869 0.24408,-0.24407 0.78109,-0.82989 0.78109,-0.82989 l 1.02511,-0.58578 1.1228,-0.34171 c 0,0 0.92752,-0.0488 1.12277,-0.0488 0.19527,0 0.5858,0.19527 0.5858,0.19527 l 0.9275,0.82987 0.43935,0.58579 0.39053,1.02514 z"
           id="path25"
           inkscape:connector-curvature="0" />
        <path
           style="fill:none;stroke:#000000;stroke-width:0.45282868px;stroke-linecap:butt;stroke-linejoin:miter;stroke-opacity:1"
           d="m -259.07608,153.14751 0.63462,0.9275 0.58579,0.34172 h 0.82987 l 0.68343,-0.14651 c 0,0 0.87869,-0.19526 1.07394,-0.19526 0.19528,0 1.1716,-0.68343 1.1716,-0.68343 l 0.39053,-0.78105 0.34171,-1.17159 -0.1465,-1.61095 -0.78107,-1.02514 -0.58578,-0.82988 -0.63461,-0.48814 -0.92752,-0.2441 -1.46448,0.0977 -1.07396,0.82989 -0.87871,0.39051 c 0,0 -0.48815,0.53698 -0.48815,0.68344 0,0.1465 0,0.82986 0,0.82986 l 0.39053,1.46449 0.39053,1.1716 z"
           id="path27"
           inkscape:connector-curvature="0" />
        <path
           style="fill:none;stroke:#000000;stroke-width:0.45282868px;stroke-linecap:butt;stroke-linejoin:miter;stroke-opacity:1"
           d="m -262.78612,151.04839 -0.53698,0.92752 -0.43933,1.07395 c 0,0 -0.29291,0.63462 -0.34171,0.97634 -0.0488,0.34171 -0.0977,0.53697 -0.29291,0.78104 -0.19526,0.24411 -0.63462,0.29291 -0.63462,0.29291 l -0.43933,0.68343 -0.0488,1.02515 0.39054,0.39051 c 0,0 0.73223,0.0488 0.87869,0 0.14649,-0.0488 0.73223,-0.29288 0.73223,-0.29288 l 0.39053,-0.82988 0.24409,-0.34171 -0.0488,0.73224 0.24408,0.53698 0.73223,0.34171 0.24409,-0.19526 0.48815,-0.24408 0.43934,-0.48816 v -0.53698 l -0.14649,-0.97633 -0.34171,-1.02514 -0.39053,-0.73224 -0.48816,-1.26923 z"
           id="path29"
           inkscape:connector-curvature="0" />
        <path
           style="opacity:1;fill:#f9f9f9;fill-opacity:1;fill-rule:nonzero;stroke:#000000;stroke-width:0.08449782;stroke-linejoin:round;stroke-miterlimit:4;stroke-dasharray:none;stroke-dashoffset:0;stroke-opacity:1"
           d="m -261.80734,162.98926 c -0.0194,-0.0509 -0.0174,-0.34967 0.006,-0.66378 0.0482,-0.68859 -0.0774,-0.97313 -0.41239,-0.93444 -0.15298,0.0177 -0.23676,0.10039 -0.36106,0.35659 -0.089,0.18345 -0.1846,0.467 -0.21241,0.63008 -0.0702,0.41244 -0.0882,0.42635 -0.32543,0.25107 -0.25242,-0.18663 -0.43504,-0.14607 -0.72478,0.16091 -0.19991,0.21181 -0.22622,0.21808 -0.91031,0.21723 l -0.70447,-0.001 -0.28189,-0.40611 -0.28191,-0.40608 -0.34818,0.17683 c -0.19147,0.0973 -0.44018,0.28039 -0.55258,0.40696 -0.12032,0.13541 -0.2769,0.23014 -0.38045,0.23014 -0.17436,0 -0.17624,-0.009 -0.20711,-0.94513 -0.0338,-1.02669 -0.10236,-1.24917 -0.40872,-1.32607 -0.27889,-0.07 -0.4667,0.18242 -0.46883,0.63007 0,0.21275 -0.0515,0.40868 -0.13241,0.51381 l -0.13077,0.16991 -0.15242,-0.16991 c -0.0838,-0.0934 -0.22375,-0.35338 -0.31094,-0.57761 -0.1828,-0.47008 -0.15515,-0.692 0.16458,-1.32071 0.11021,-0.21674 0.32879,-0.68997 0.48562,-1.05161 0.27848,-0.64205 0.2832,-0.6676 0.20012,-1.08575 -0.0805,-0.4052 -0.0991,-0.43136 -0.34451,-0.48671 -0.14271,-0.0321 -0.6097,-0.089 -1.03782,-0.12649 l -0.77831,-0.068 -0.21703,0.26291 -0.21702,0.26291 -0.52426,-0.0486 c -0.28831,-0.0266 -0.75568,-0.13921 -1.03854,-0.25022 -0.53679,-0.21068 -0.92376,-0.54657 -1.87432,-1.62691 l -0.40596,-0.46141 0.26684,-0.31174 0.26686,-0.31175 v -1.47101 -1.47098 l 0.26409,-0.38399 c 0.18931,-0.2752 0.24948,-0.42695 0.21236,-0.53564 -0.0284,-0.0834 -0.0782,-0.5853 -0.11048,-1.11531 -0.0324,-0.53001 -0.094,-1.18049 -0.13695,-1.4455 -0.043,-0.265 -0.10061,-1.15249 -0.12803,-1.9722 l -0.0497,-1.49035 0.29599,-0.32578 c 0.26117,-0.28741 0.32431,-0.43482 0.53632,-1.25235 0.28307,-1.09141 0.67001,-1.98967 1.40497,-3.26163 0.48181,-0.83383 0.62883,-1.01777 1.46834,-1.83724 0.57133,-0.55767 1.13115,-1.02838 1.4443,-1.21444 0.72566,-0.4311 2.58379,-1.19453 3.68438,-1.51375 l 0.93632,-0.27159 1.29724,0.0861 c 2.2191,0.14743 2.8177,0.22481 3.25204,0.4204 0.21899,0.0986 0.48656,0.17928 0.59463,0.17928 0.10812,0 0.4201,0.0621 0.69337,0.13777 0.52759,0.1463 0.7473,0.29731 1.79789,1.23577 0.32616,0.29134 0.90991,0.75579 1.29724,1.03208 0.82303,0.58714 1.80283,1.52241 2.25571,2.15324 0.17563,0.24461 0.51132,0.82777 0.74596,1.29586 l 0.42666,0.8511 -0.0434,0.55732 -0.0434,0.55734 0.46761,0.34534 0.46759,0.34535 0.0508,1.13721 c 0.0281,0.62546 0.0855,1.42075 0.12783,1.76728 0.13501,1.10415 0.11376,1.32905 -0.19265,2.04252 -0.23228,0.54082 -0.29079,0.78454 -0.35314,1.47108 -0.0469,0.51718 -0.13758,0.98812 -0.24391,1.26765 -0.34789,0.9146 -0.32091,1.14985 0.27305,2.38141 0.19914,0.41291 0.2183,0.51062 0.1723,0.87878 -0.0479,0.38343 -0.076,0.43082 -0.37647,0.63762 -0.31973,0.21998 -0.32471,0.22993 -0.32471,0.64793 v 0.42454 l -0.53742,0.53159 c -0.33042,0.32683 -0.67544,0.59024 -0.89569,0.68384 -0.65361,0.27772 -1.54125,0.13218 -1.71732,-0.28158 -0.0709,-0.16663 -0.0998,-0.17272 -0.66715,-0.14 -0.85382,0.0493 -1.31897,0.25493 -1.76829,0.78187 l -0.35988,0.42202 0.0633,0.51889 c 0.0348,0.28539 0.0582,0.87566 0.0518,1.31173 -0.01,0.6794 -0.0362,0.8367 -0.18389,1.09954 -0.21434,0.38134 -0.51608,0.51679 -1.15131,0.51679 -0.40786,0 -0.50247,0.0264 -0.65974,0.18359 -0.52499,0.52497 -0.6992,0.34821 -0.6992,-0.70944 v -0.71525 l -0.37741,-0.05 c -0.56024,-0.0743 -0.58331,-0.0345 -0.53281,0.92278 0.0315,0.59776 0.018,0.8381 -0.0516,0.92201 -0.11388,0.13727 -0.27304,0.14759 -0.32147,0.0208 z m 0.50487,-5.74723 c 0.16308,-0.0818 0.40493,-0.28378 0.53743,-0.44878 0.19687,-0.24516 0.2409,-0.36518 0.24081,-0.65646 -2.2e-4,-0.80519 -0.33091,-2.09792 -0.69645,-2.72262 -0.0974,-0.16634 -0.2955,-0.60964 -0.44038,-0.98508 -0.17211,-0.44605 -0.40924,-0.87641 -0.68414,-1.24165 -0.23139,-0.30744 -0.4417,-0.55898 -0.46734,-0.55897 -0.0256,1e-5 -0.21916,0.30857 -0.43004,0.68568 -0.44259,0.79147 -1.01648,2.18467 -1.13492,2.75515 -0.0941,0.45326 -0.27116,0.6764 -0.59276,0.74704 -0.16842,0.037 -0.29271,0.15208 -0.47935,0.44381 -0.21271,0.33255 -0.26018,0.48821 -0.30479,0.9996 l -0.0528,0.60572 0.28452,0.29137 c 0.27908,0.28581 0.2947,0.29136 0.81883,0.29136 0.65305,0 1.33689,-0.2324 1.45654,-0.49501 0.10326,-0.2266 0.16626,-0.21712 0.27321,0.0411 0.065,0.15722 0.21778,0.27336 0.58136,0.44227 0.48213,0.22402 0.49638,0.22604 0.64343,0.0917 0.0827,-0.0755 0.28381,-0.20436 0.44689,-0.28618 z m -6.89386,-2.69794 c 0.32183,-0.0675 0.44382,-0.15245 0.92659,-0.64497 0.54958,-0.56071 0.86405,-1.02619 1.69897,-2.51476 0.31765,-0.5663 0.45215,-0.89673 0.52033,-1.27827 0.0882,-0.49376 0.0837,-0.53625 -0.11087,-1.0524 -0.1116,-0.29584 -0.31262,-0.68962 -0.44678,-0.87508 -0.28562,-0.39482 -1.16272,-1.18364 -1.46127,-1.31415 -0.11591,-0.0507 -0.51984,-0.0907 -0.91587,-0.0907 -1.34513,0 -2.6267,0.55853 -3.52511,1.53631 -0.37172,0.40457 -0.50796,0.61101 -0.53997,0.81817 -0.0237,0.15238 -0.10702,0.62731 -0.18566,1.0554 -0.11918,0.64906 -0.13365,0.93841 -0.0872,1.74201 l 0.0557,0.96366 0.31062,0.45699 c 0.35127,0.51682 0.78252,0.80436 1.71626,1.14436 0.48337,0.17601 0.63938,0.19943 1.11773,0.16784 0.30579,-0.0202 0.72277,-0.0717 0.92662,-0.11452 z m 12.0958,-0.0558 c 1.12126,-0.23103 1.16819,-0.24813 1.81913,-0.66229 0.3645,-0.23193 0.4541,-0.33691 0.64128,-0.75142 0.11969,-0.265 0.2914,-0.7368 0.38163,-1.04842 0.15426,-0.53278 0.159,-0.61839 0.0793,-1.4339 l -0.0846,-0.86729 -0.66818,-0.89477 c -0.3675,-0.49213 -0.69178,-0.93296 -0.72064,-0.97962 -0.0289,-0.0466 -0.21105,-0.20441 -0.40488,-0.35056 -0.52192,-0.39352 -1.18186,-0.53579 -2.17239,-0.46827 l -0.77725,0.053 -0.5137,0.40194 c -0.28254,0.22107 -0.71566,0.49746 -0.96249,0.61419 -0.53665,0.25379 -0.6314,0.3275 -0.90489,0.70397 -0.18382,0.25303 -0.21001,0.35478 -0.20984,0.8154 2.3e-4,0.54905 0.18927,1.37553 0.5966,2.60791 0.17194,0.52018 0.27302,0.71053 0.44469,0.83746 0.12221,0.0903 0.37646,0.39629 0.56506,0.6799 0.25034,0.37649 0.44493,0.57516 0.72099,0.73614 0.48925,0.28528 0.81308,0.28627 2.17019,0.007 z"
           id="path950"
           inkscape:connector-curvature="0" />
        <path
           style="opacity:1;fill:#2b0000;fill-opacity:1;fill-rule:nonzero;stroke:#ffffff;stroke-width:0.03722373;stroke-linejoin:round;stroke-miterlimit:4;stroke-dasharray:none;stroke-dashoffset:0;stroke-opacity:0.07179488"
           d="m -270.43499,153.77159 c -0.52862,-0.24267 -0.95226,-0.54745 -1.05741,-0.76065 -0.31148,-0.63174 -0.37394,-1.60568 -0.17975,-2.80169 0.17539,-1.07993 0.23619,-1.2116 0.79893,-1.73032 0.70344,-0.64839 2.01795,-1.18912 2.8908,-1.18912 0.47153,0 0.74038,0.11162 1.22515,0.50892 0.75294,0.61696 1.29393,1.6735 1.15216,2.2501 -0.1748,0.71096 -1.28263,2.5615 -1.96344,3.2798 -0.87949,0.92789 -1.57579,1.0355 -2.86644,0.44296 z"
           id="path960"
           inkscape:connector-curvature="0" />
        <path
           style="opacity:1;fill:#2b0000;fill-opacity:1;fill-rule:nonzero;stroke:#ffffff;stroke-width:0.03722373;stroke-linejoin:round;stroke-miterlimit:4;stroke-dasharray:none;stroke-dashoffset:0;stroke-opacity:0.07179488"
           d="m -258.22666,153.79441 c -0.11551,-0.14148 -0.43421,-0.53102 -0.70825,-0.86562 -0.349,-0.42615 -0.598,-0.97952 -0.83125,-1.84752 -0.41339,-1.53829 -0.37428,-1.85298 0.28243,-2.27278 0.28297,-0.18087 0.79283,-0.53043 1.13304,-0.77678 0.52025,-0.37673 0.75388,-0.44782 1.46998,-0.44736 1.10253,6.6e-4 1.56846,0.28949 2.44185,1.51344 0.61896,0.86739 0.68794,1.04615 0.70563,1.82861 0.0237,1.04978 -0.37862,2.06266 -0.99132,2.4956 -0.85178,0.60187 -3.11802,0.84286 -3.50211,0.37241 z"
           id="path962"
           inkscape:connector-curvature="0" />
        <path
           style="opacity:1;fill:#2b0000;fill-opacity:1;fill-rule:nonzero;stroke:#ffffff;stroke-width:0;stroke-linejoin:round;stroke-miterlimit:4;stroke-dasharray:none;stroke-dashoffset:0;stroke-opacity:0.07179488"
           d="m -264.95935,156.83281 c -0.29637,-0.17261 -0.33545,-0.83491 -0.0688,-1.16623 0.0985,-0.12232 0.34978,-0.33152 0.5584,-0.46477 0.25788,-0.16473 0.4776,-0.54053 0.68639,-1.17396 0.43007,-1.30484 0.88529,-2.32814 1.03568,-2.32814 0.14446,0 0.23804,0.17845 0.98653,1.88104 0.29489,0.67076 0.57232,1.56997 0.61653,1.99824 0.0765,0.74195 0.0589,0.79397 -0.37495,1.10288 -0.36495,0.25987 -0.51443,0.29257 -0.75318,0.1648 -0.24856,-0.13303 -0.29787,-0.30602 -0.29787,-1.04491 0,-1.0384 -0.11931,-1.02613 -0.74154,0.0763 -0.24,0.42525 -0.60441,0.84978 -0.80981,0.94335 -0.44713,0.20373 -0.50575,0.20452 -0.83734,0.0114 z"
           id="path964"
           inkscape:connector-curvature="0" />
      </g>
      <path
         transform="scale(0.26458333)"
         inkscape:connector-curvature="0"
         id="path1230"
         d="m -1127.5763,618.01498 c -4.0722,-11.1165 -6.5521,-20.83767 -7.626,-29.89435 -1.7047,-14.37496 -2.1296,-21.1485 -2.1403,-34.11434 -0.014,-16.35067 0.7354,-24.23895 3.5616,-37.51207 2.6522,-12.45577 4.781,-17.53866 12.6348,-30.16844 8.6672,-13.93779 12.5943,-19.3112 19.2922,-26.39738 13.3839,-14.15979 21.166,-21.1021 30.7332,-27.41667 13.9553,-9.21083 26.5318,-15.85013 34.3364,-18.12671 7.4099,-2.16142 24.2325,-6.12741 28.9776,-6.83157 7.7934,-1.15652 19.12264,-1.59861 27.92447,-1.08969 15.95331,0.92243 22.35754,2.01297 33.00785,5.62072 17.45293,5.91211 23.87385,8.88575 34.35986,15.91267 6.58661,4.41383 21.38907,16.2614 24.84403,19.88463 4.61661,4.84144 17.63644,20.55173 20.34623,24.55064 10.91209,16.10326 20.40655,38.04943 25.61561,59.20972 4.49041,18.24101 5.48166,30.29281 3.61881,43.9981 -2.24473,16.51482 -4.5801,25.20209 -11.23138,41.77931 l -3.78265,9.42764 h -135.61847 -135.61846 z m 140.5158,-0.59543 c 1.043,-0.99826 1.17386,-1.03221 1.53002,-0.39695 0.5491,0.97938 2.22686,0.86026 4.26083,-0.3025 0.95016,-0.54318 2.31272,-0.9876 3.02791,-0.9876 0.71519,0 1.9218,-0.25966 2.68136,-0.57702 2.47413,-1.03376 3.95594,-6.33364 3.05343,-10.92098 -0.44077,-2.2404 -0.41858,-2.38196 0.57817,-3.68877 1.40915,-1.8475 5.66509,-3.06727 6.42304,-1.84088 0.46684,0.75535 3.48286,1.92561 4.98622,1.93472 2.44736,0.0148 5.51504,-1.64781 8.00745,-4.3399 1.82084,-1.96673 2.26349,-2.70614 2.26349,-3.78102 0,-0.94005 0.33572,-1.6719 1.13245,-2.46862 0.77522,-0.77522 1.22099,-1.7229 1.41314,-3.00424 0.24494,-1.63341 0.10072,-2.27038 -1.13245,-5.00158 -1.62091,-3.58995 -1.70802,-4.54754 -0.6481,-7.12429 0.42736,-1.03896 0.83802,-3.17395 0.93039,-4.83703 0.1231,-2.21629 0.4387,-3.51403 1.23491,-5.0779 1.22367,-2.4035 1.31147,-3.81698 0.67085,-10.80022 -0.23033,-2.51073 -0.42031,-5.75961 -0.42218,-7.21973 l -0.004,-2.65477 -1.79914,-1.29205 c -1.74715,-1.2547 -1.792,-1.33961 -1.55227,-2.93821 0.21618,-1.44159 0,-2.13808 -1.73947,-5.60439 -1.09248,-2.17702 -2.63914,-4.81344 -3.43702,-5.85873 -0.79788,-1.04528 -1.37012,-2.10611 -1.27165,-2.35739 0.0985,-0.25129 9.84607,-15.95882 21.66133,-34.90562 11.81544,-18.94681 21.48246,-34.5886 21.48246,-34.75955 0,-0.48152 -3.12507,-2.1229 -3.54625,-1.86259 -0.20569,0.12712 -11.56452,14.33912 -25.24185,31.58223 -13.67734,17.24311 -24.98671,31.34863 -25.13194,31.34561 -0.14523,-0.003 -1.42515,-0.99911 -2.84425,-2.21353 -3.16091,-2.70497 -4.15658,-3.24377 -7.27863,-3.93878 -1.3457,-0.29957 -3.18188,-0.81375 -4.08041,-1.14262 -0.9234,-0.33798 -4.99873,-0.86006 -9.3734,-1.20081 l -7.73971,-0.60285 -3.58273,0.98176 c -4.4291,1.21367 -11.6847,4.17344 -15.1561,6.18258 -7.1337,4.12881 -14.0559,14.06437 -16.9363,24.30928 -0.6279,2.23303 -1.4474,4.14093 -2.1716,5.05525 -1.1112,1.40295 -1.1625,1.64337 -1.149,5.38097 0.01,2.15183 0.1955,5.6987 0.4171,7.88194 1.0539,10.38377 1.0747,11.81433 0.19,13.09946 -0.7293,1.05958 -0.8237,1.81513 -0.8555,6.8536 -0.032,5.10429 -0.1153,5.75022 -0.8411,6.54973 -1.8249,2.01019 -1.6091,2.61912 2.4552,6.92745 3.2147,3.40777 4.0859,4.09921 6.1258,4.8621 1.308,0.48915 3.5036,1.02834 4.8791,1.19821 2.3083,0.28505 2.5791,0.23602 3.5151,-0.63634 1.0383,-0.96767 3.3421,-1.25591 5.4748,-0.68496 1.2142,0.32509 1.0084,1.42492 -1.1141,5.95431 -2.026,4.32332 -2.2326,5.48199 -1.3726,7.69743 0.6704,1.72696 3.2557,5.53874 3.7566,5.53874 0.1386,0 0.7271,-0.66773 1.3077,-1.48386 l 1.0558,-1.48386 v 2.00342 c 0,2.83116 0.6068,3.51511 2.8901,3.25775 1.3589,-0.15317 2.0698,-0.49283 2.7941,-1.33487 l 0.9715,-1.12943 1.0739,1.27629 c 1.0683,1.26958 1.0935,1.27628 4.7872,1.27628 3.28193,0 3.77883,-0.0936 4.27784,-0.80606 0.54966,-0.78475 0.59805,-0.78738 1.82999,-0.0992 1.24862,0.69745 1.27565,0.6944 2.03812,-0.23029 0.42499,-0.51542 0.77271,-0.77239 0.77271,-0.57105 0,0.71596 1.63243,2.10359 2.4747,2.10359 0.47078,0 1.36921,-0.49123 1.99651,-1.09162 z m -90.4847,-54.94361 c 2.0827,-1.10926 2.4884,-3.52596 0.9016,-5.37113 l -0.9577,-1.11375 -19.484,-0.11015 c -21.2712,-0.12024 -21.4289,-0.1051 -22.2824,2.13977 -0.6258,1.64615 -0.4412,2.53511 0.7805,3.75673 l 1.1603,1.16032 h 19.5073 c 14.0694,0 19.749,-0.12873 20.3744,-0.46179 z m 215.03346,-0.54144 c 0.61552,-0.6552 0.94249,-1.47769 0.94249,-2.37087 0,-0.89317 -0.32697,-1.71567 -0.94249,-2.37086 l -0.9425,-1.00324 h -19.92341 c -19.5549,0 -19.94275,0.0152 -20.96931,0.82272 -0.84386,0.66378 -1.04592,1.15668 -1.04592,2.55138 0,1.39471 0.20206,1.88761 1.04592,2.55139 1.02656,0.8075 1.41441,0.82271 20.96931,0.82271 h 19.92341 z m -23.51301,-26.59954 c 19.58003,-5.79869 19.93023,-5.94932 19.93023,-8.57263 0,-1.46959 -1.90243,-3.52589 -3.24433,-3.50671 -0.50802,0.007 -9.2222,2.48953 -19.36483,5.51615 -19.89146,5.93573 -19.86483,5.92417 -19.86483,8.62451 0,1.77196 1.47604,3.31208 3.17425,3.31208 0.67406,0 9.39034,-2.41803 19.36951,-5.3734 z m -187.28945,3.00178 c 1.6408,-1.64073 1.4249,-4.09513 -0.468,-5.32228 -0.5011,-0.3249 -9.2174,-2.57667 -19.3695,-5.00393 -20.3916,-4.87542 -20.2417,-4.85924 -21.6065,-2.33198 -0.6751,1.25001 -0.7041,1.56988 -0.2433,2.68236 0.2878,0.69471 0.9006,1.46891 1.3619,1.72045 1.332,0.72635 35.9848,8.97167 37.8546,9.00716 1.1816,0.0224 1.9219,-0.2028 2.4708,-0.75178 z m 176.65429,-29.308 c 8.84213,-5.16892 16.47852,-9.7934 16.96975,-10.27663 1.98407,-1.95177 0.42726,-5.67813 -2.37225,-5.67813 -1.00469,0 -5.19007,2.26637 -17.58413,9.52175 -8.94608,5.23696 -16.66751,9.98059 -17.15874,10.5414 -2.08667,2.3822 0.0156,6.13904 3.07638,5.49761 0.54581,-0.11438 8.22686,-4.43708 17.06899,-9.606 z m -168.57979,7.00369 c 0.4769,-0.25399 1.0847,-0.74522 1.3507,-1.09162 0.6342,-0.82609 0.6417,-3.2805 0.013,-4.10731 -0.2729,-0.35864 -7.9925,-4.94781 -17.1546,-10.19817 -17.9461,-10.28409 -18.3804,-10.46768 -20.2763,-8.57177 -1.173,1.17304 -1.305,3.30882 -0.2797,4.52528 0.9013,1.06925 33.7807,19.90538 34.7458,19.90538 0.404,0 1.1247,-0.20781 1.6015,-0.46179 z m 141.06098,-14.55446 c 3.92823,-3.92822 25.0267,-27.68705 25.42419,-28.62998 1.03418,-2.45325 -1.2581,-5.15498 -3.88434,-4.57816 -0.88182,0.19368 -4.23693,3.65847 -14.08442,14.54483 -7.10977,7.85983 -13.09607,14.73567 -13.30289,15.27965 -1.29734,3.41225 3.21043,6.02069 5.84746,3.38366 z m -125.80438,-4.25769 c 1.9775,-2.24707 1.8431,-2.44492 -9.7817,-14.40266 -16.2416,-16.70686 -17.128,-17.53036 -18.8677,-17.53036 -1.9762,0 -3.4045,1.42322 -3.4045,3.39231 0,1.35677 0.7143,2.17584 11.8731,13.61369 13.21,13.54039 15.4445,15.74275 16.3105,16.07584 1.1067,0.42562 2.9721,-0.1281 3.8703,-1.14882 z m 17.466,-11.51164 c 0.4912,-0.55822 0.893,-1.49621 0.8929,-2.08443 -3e-4,-1.51163 -19.0012,-34.53614 -20.2775,-35.24326 -1.4468,-0.8016 -2.5549,-0.66882 -3.906,0.46804 -0.8882,0.74744 -1.2217,1.36985 -1.223,2.28248 0,1.71742 18.7967,34.61993 20.2436,35.43081 1.3404,0.75122 3.1816,0.38313 4.27,-0.85364 z m 86.96998,-0.87143 c 1.27774,-1.08259 20.35207,-32.69083 20.58982,-34.11956 0.17355,-1.04293 -0.006,-1.48921 -0.99766,-2.48096 -1.47898,-1.47898 -3.17738,-1.59562 -4.60277,-0.31613 -0.54724,0.49123 -5.38018,8.11628 -10.73987,16.94455 -10.67186,17.57827 -10.90457,18.10913 -8.69897,19.84405 1.2775,1.00488 3.34436,1.06436 4.44945,0.12805 z m -19.83362,-8.73297 c 1.05558,-0.99727 1.5708,-2.68715 5.96056,-19.55038 2.64281,-10.15231 4.80511,-18.7849 4.80511,-19.18352 0,-1.18108 -2.15482,-3.04542 -3.51991,-3.04542 -2.74892,0 -2.82158,0.18146 -7.99823,19.97497 -2.61632,10.00377 -4.75694,18.7671 -4.75694,19.47407 0,3.04955 3.27976,4.43676 5.50941,2.33028 z m -45.98506,-0.30996 c 0.3899,-0.35289 0.8126,-1.05473 0.9394,-1.55965 0.1318,-0.52527 -1.619,-9.04048 -4.0923,-19.90371 -4.0392,-17.74078 -4.3949,-19.04784 -5.4245,-19.93347 -1.819,-1.5646 -4.9102,-0.60657 -5.4894,1.70127 -0.1331,0.53014 1.6079,8.9854 4.0994,19.9099 4.0351,17.6923 4.4055,19.05271 5.4254,19.93003 0.8578,0.73785 1.391,0.89352 2.4638,0.71942 0.7531,-0.1222 1.6882,-0.51091 2.0782,-0.86379 z m 23.60751,-3.26262 1.10301,-1.09162 -0.23132,-19.71594 c -0.17616,-15.01355 -0.35269,-19.91027 -0.74017,-20.53071 -1.15148,-1.84382 -4.4922,-2.03243 -5.69074,-0.32129 -0.86018,1.22808 -0.89482,38.48874 -0.0377,40.54015 1.03013,2.46544 3.69774,2.99897 5.59691,1.11941 z"
         style="opacity:1;fill:#ff0000;fill-opacity:1;fill-rule:nonzero;stroke:#ffffff;stroke-width:0;stroke-linejoin:round;stroke-miterlimit:4;stroke-dasharray:none;stroke-dashoffset:0;stroke-opacity:0.07179488" />
      <path
         transform="scale(0.26458333)"
         inkscape:connector-curvature="0"
         id="path1234"
         d="m -959.79329,524.19852 c -0.75433,-0.78811 -2.43642,-2.17413 -3.73798,-3.08004 -1.30156,-0.90591 -2.52824,-1.75991 -2.72596,-1.89777 -0.19773,-0.13787 10.84367,-14.37104 24.53644,-31.62928 23.33748,-29.41436 26.00713,-32.54999 26.00713,-30.54668 0,0.41032 -41.43214,67.1633 -42.26004,68.08685 -0.35158,0.39219 -0.74346,0.19124 -1.81959,-0.93308 z"
         style="opacity:1;fill:#000000;fill-opacity:1;fill-rule:nonzero;stroke:#ffffff;stroke-width:0;stroke-linejoin:round;stroke-miterlimit:4;stroke-dasharray:none;stroke-dashoffset:0;stroke-opacity:0.07179488" />
    </g>
  </g>
</svg>
