<?xml version="1.0" encoding="UTF-8" standalone="no"?>
<!-- Created with Inkscape (http://www.inkscape.org/) -->

<svg
   xmlns:dc="http://purl.org/dc/elements/1.1/"
   xmlns:cc="http://creativecommons.org/ns#"
   xmlns:rdf="http://www.w3.org/1999/02/22-rdf-syntax-ns#"
   xmlns:svg="http://www.w3.org/2000/svg"
   xmlns="http://www.w3.org/2000/svg"
   xmlns:sodipodi="http://sodipodi.sourceforge.net/DTD/sodipodi-0.dtd"
   xmlns:inkscape="http://www.inkscape.org/namespaces/inkscape"
   width="210mm"
   height="297mm"
   viewBox="0 0 210 297"
   version="1.1"
   id="svg8"
   inkscape:version="0.92.1 r15371"
   sodipodi:docname="corgi.svg">
  <defs
     id="defs2" />
  <sodipodi:namedview
     id="base"
     pagecolor="#ffffff"
     bordercolor="#666666"
     borderopacity="1.0"
     inkscape:pageopacity="0.0"
     inkscape:pageshadow="2"
     inkscape:zoom="0.7"
     inkscape:cx="-100.15537"
     inkscape:cy="513.75649"
     inkscape:document-units="mm"
     inkscape:current-layer="layer1"
     showgrid="false"
     inkscape:window-width="1536"
     inkscape:window-height="801"
     inkscape:window-x="-8"
     inkscape:window-y="-8"
     inkscape:window-maximized="1" />
  <metadata
     id="metadata5">
    <rdf:RDF>
      <cc:Work
         rdf:about="">
        <dc:format>image/svg+xml</dc:format>
        <dc:type
           rdf:resource="http://purl.org/dc/dcmitype/StillImage" />
        <dc:title></dc:title>
      </cc:Work>
    </rdf:RDF>
  </metadata>
  <g
     inkscape:label="Layer 1"
     inkscape:groupmode="layer"
     id="layer1">
    <g
       id="g138"
       transform="matrix(1.3074495,0,0,1.3074495,376.14727,6.4901032)">
      <path
         inkscape:connector-curvature="0"
         id="path4396"
         d="m -249.3611,37.038892 c -0.0953,0.0024 -0.19188,0.0064 -0.28759,0.01183 -2.8029,1.199581 -3.8891,4.609962 -3.455,7.44266 -0.31884,3.803949 -0.38288,7.760152 1.04399,11.366894 0.67431,2.972782 0.81656,6.161019 2.40313,8.845296 0.1949,2.49905 2.39025,5.481942 2.7183,7.946977 -3.80955,6.959695 -5.30464,11.418308 -4.60141,18.868655 -0.69725,3.066499 -1.07346,6.223468 -0.96126,9.385076 0.80538,2.98779 0.11414,6.0967 0.57518,9.10533 0.6549,3.12316 2.06067,6.05218 2.47405,9.23142 0.98145,3.06001 2.92054,5.68323 4.2508,8.5892 1.67529,3.17625 3.71983,6.14812 5.26326,9.38508 1.81523,2.47633 3.56045,5.02252 3.82926,8.17549 1.09398,3.43647 -2.91729,4.4871 -4.11291,7.02502 -1.14216,3.71603 0.1164,3.86797 2.00524,3.06138 0.64185,0.5411 1.42274,0.41534 3.49441,0.60676 0.65261,0.0603 2.02777,-0.11696 2.95861,-0.12608 1.47468,-0.0145 2.58197,-0.19872 3.48257,-0.27186 3.74962,-0.0637 4.27464,-0.47729 4.06564,-3.4672 -0.0222,-0.31798 0.71969,-0.19166 0.65397,-0.57918 -0.45416,-2.65919 -1.06807,-5.11369 -0.56336,-5.97698 0.85536,-1.46303 4.48774,4.40969 6.03542,4.34582 0.75351,-0.0311 1.4169,-0.61575 2.0013,-1.36718 0.86965,-0.0123 2.00957,-0.0205 3.35257,-0.0236 0.007,0.39232 0.009,0.79749 0.008,1.20958 -0.59002,6.18839 0.89642,4.89829 5.9133,5.50812 2.64256,0.20902 5.24444,-0.13337 7.89095,-0.18518 1.25045,-0.0736 2.82005,-0.2626 3.10044,-1.65874 0.18192,-0.90585 -0.90591,-2.04955 -1.79251,-3.26626 0.92644,0.13205 1.84737,0.20952 2.7577,0.21276 0.51631,0.1968 1.25533,0.31266 2.29678,0.32309 3.77358,-0.15047 7.56359,-0.0819 11.2908,-0.81559 -0.38203,-2.31604 7.77308,-2.70728 13.29604,-2.30095 6.18784,-0.0934 17.75049,-0.4019 19.14237,-0.42552 l 3.1359,-0.0512 c -0.0742,-0.66967 -0.37287,-1.29892 -1.58765,-1.76118 l 2.38344,0.12608 c -0.28002,-1.03294 -1.31628,-1.87558 -2.41889,-2.70284 l 2.96255,0.87074 c -0.19807,-1.8904 -1.26781,-2.40983 -2.15888,-3.2111 l 1.56007,-0.0276 c -0.64441,-1.15441 -1.46393,-1.50702 -2.42284,-2.03304 l 1.97766,-0.42158 c -1.54763,-1.97559 -3.2751,-3.61249 -5.65327,-4.03062 -3.46495,-0.6092 -7.70208,-0.0573 -11.05444,0.26792 -2.62317,-0.002 -5.24136,0.41601 -7.86337,0.22458 -2.9155,-0.90532 -2.88827,-4.37554 -3.09257,-6.8556 -0.9899,-6.19847 -1.93881,-12.73652 -5.80693,-17.90335 -1.89118,-2.60199 -3.92601,-5.24004 -6.5712,-7.10382 -2.41502,-1.32531 -5.16702,-2.16725 -7.14243,-4.164576 -3.1754,-1.91556 -3.4491,-5.928419 -5.17266,-8.876816 -0.66061,-0.947029 -2.43842,-0.938578 -2.13525,-2.32854 1.6841,-7.720962 -3.16746,-10.729399 -1.89887,-15.381753 0.2992,-3.121567 1.93119,-5.909127 2.95862,-8.817718 1.08483,-2.485343 0.27216,-5.427054 1.70583,-7.809077 1.32416,-3.195539 0.85208,-6.703284 0.48851,-10.031237 -0.0339,-2.319714 0.16988,-5.310759 -2.16282,-6.654657 -2.69692,-1.489676 -5.62286,0.388876 -7.93036,1.769057 -2.98898,2.004449 -5.06849,5.003585 -7.56397,7.537219 -2.54987,0.905796 -3.12154,4.406466 -5.78329,4.901359 -3.01684,-0.417862 -5.98133,0.12283 -8.96646,-0.0079 -3.08193,-0.537839 -3.48867,-4.543314 -6.20481,-6.05578 -2.04683,-2.15768 -3.76949,-4.629055 -6.16543,-6.449775 -2.23204,-1.843145 -4.99134,-3.269376 -7.94611,-3.199283 z"
         style="fill:#000000;stroke:none;stroke-width:0.26458332" />
      <path
         inkscape:connector-curvature="0"
         id="path4415"
         d="m -225.58008,84.476471 c -1.34588,0.757819 -2.6796,1.585415 -4.08534,1.87938 0.0179,2.393024 1.84183,4.330057 4.08928,4.330057 2.24744,0 4.07133,-1.937033 4.08927,-4.330057 -1.40655,-0.293965 -2.74734,-1.121561 -4.09321,-1.87938 z"
         style="fill:#ff0000;fill-rule:evenodd;stroke:none;stroke-width:0.26458332" />
      <path
         inkscape:connector-curvature="0"
         id="path4423"
         d="m -154.47663,133.70683 c -1.71962,-0.009 -3.4876,0.13014 -5.15691,0.29156 l -3.1477,1.35141 c 1.18591,0.0772 2.51748,0.0253 3.70319,0.11427 1.27709,0.0959 2.38269,0.36938 2.89558,1.2214 l 0.0512,0.0827 -0.0985,0.0118 c -0.96712,0.1192 -2.05508,0.15314 -2.99407,0.28368 -0.87288,0.12135 -1.59382,0.33946 -1.98554,0.75254 1.07265,0.11172 2.0734,0.10809 2.98619,0.22064 0.95434,0.11766 1.82176,0.36941 2.5686,1.03228 l 0.1497,0.13396 -0.20091,-0.0236 c -2.44436,-0.31754 -4.2634,0.15871 -6.03149,0.72102 1.98714,0.50511 3.99675,0.69014 6.00391,2.364 l 0.0906,0.0788 -0.11425,0.0315 -2.30071,0.63827 c 2.26788,0.15128 3.48446,1.00632 5.03084,1.61935 l -0.0158,0.12213 -3.27379,0.25216 2.2889,1.40264 0.17727,0.10639 -0.20879,0.008 c -2.0513,0.0791 -3.58991,0.42751 -4.83386,0.93377 4.76402,-0.11068 9.2322,-0.22231 10.06166,-0.2364 l 3.1359,-0.0512 c -0.0742,-0.66968 -0.37287,-1.29893 -1.58764,-1.76119 l 2.38343,0.12608 c -0.28002,-1.03293 -1.31627,-1.87558 -2.41889,-2.70284 l 2.96255,0.87075 c -0.19806,-1.8904 -1.26779,-2.40983 -2.15888,-3.21109 l 1.56007,-0.0276 c -0.6444,-1.15441 -1.46392,-1.50702 -2.42283,-2.03304 l 1.97766,-0.42158 c -1.54763,-1.97559 -3.2751,-3.61249 -5.65328,-4.03062 -1.08279,-0.19038 -2.24034,-0.26589 -3.42348,-0.27186 z"
         style="fill:#ffffff;stroke:none;stroke-width:0.26458332" />
      <path
         sodipodi:nodetypes="cscssccccccccccccccccccccccccccccccccccccccccccccccccccsccccccccccccccccccccssscccccsccccccccccsscccssscccsccsscccccccccccccccccccccccccscccssssssccssssscc"
         inkscape:connector-curvature="0"
         d="m -234.82734,65.080351 c 1.40813,-0.01132 3.11497,1.112269 3.39197,2.474317 0.24463,1.202891 -1.39261,2.14262 -2.47012,2.730421 -0.6969,0.380182 -1.73821,0.381328 -2.37949,-0.08668 -0.66117,-0.482526 -1.0874,-1.500571 -0.88247,-2.293077 0.29875,-1.155264 1.01528,-2.747746 2.20616,-2.821041 0.0448,-0.0028 0.0885,-0.0036 0.13395,-0.0039 z m 10.4785,9.821921 c 0.0393,-3.7e-5 0.0786,0.0039 0.11819,0.0079 0.57517,0.05004 1.15034,0.188794 1.65856,0.468863 0.86277,0.469419 1.43356,1.377069 1.5837,2.336416 0.06,0.408597 0.072,0.833906 -0.004,1.241103 -0.068,0.192942 -0.10668,0.396991 -0.18122,0.58706 -0.15461,0.310356 -0.53597,0.337579 -0.84307,0.338841 -0.15577,-0.03379 -0.40196,0.07884 -0.47668,-0.08668 -0.23712,-0.329051 0.0152,-0.777367 -0.22851,-1.103198 -0.23283,-0.364644 -0.78217,-0.44136 -1.11095,-0.161542 -0.32639,0.235202 -0.4695,0.649409 -0.44517,1.040159 0.0223,0.214027 0.004,0.488736 0.21273,0.61858 0.319,0.17381 0.69628,0.114943 1.04398,0.161542 0.24494,-0.05992 0.34966,0.215781 0.4767,0.37824 0.19326,0.293775 0.15603,0.686207 -0.0315,0.97318 -0.11254,0.146899 -0.19932,0.358185 -0.39001,0.4137 -0.35457,0.02119 -0.69478,-0.198237 -1.05187,-0.106379 -0.42953,0.150352 -0.71926,0.524598 -1.07944,0.784059 -0.20765,0.17009 -0.49225,0.25106 -0.75245,0.165478 -0.41662,-0.168256 -0.6941,-0.550106 -1.0637,-0.79194 -0.2036,-0.15729 -0.46909,-0.222031 -0.72094,-0.157597 -0.23912,0.02656 -0.48669,0.173908 -0.72488,0.0788 -0.22206,-0.211048 -0.40634,-0.485474 -0.46093,-0.791941 -0.067,-0.371223 0.18011,-0.695251 0.4176,-0.949539 0.19909,0.01558 0.39593,-0.02275 0.59487,-0.02363 0.25477,-0.01905 0.5642,-0.02061 0.7367,-0.24034 0.10555,-0.195757 0.0987,-0.432736 0.10244,-0.6501 0,-0.435009 -0.25883,-0.874979 -0.67368,-1.032279 -0.42261,-0.164013 -0.9564,0.143346 -0.9967,0.602818 -0.0128,0.276334 0.0485,0.57903 -0.12607,0.819521 -0.10126,0.11834 -0.33129,0.03234 -0.4885,0.0591 -0.30678,-0.0011 -0.69241,-0.04345 -0.83126,-0.362484 -0.0635,-0.194366 -0.11245,-0.395454 -0.17334,-0.590997 -0.0796,-0.502126 -0.0553,-1.023279 0.067,-1.516901 0.21967,-0.907029 0.8333,-1.72193 1.68613,-2.119718 0.48006,-0.223253 1.00899,-0.349562 1.53645,-0.386119 0.0479,-0.0016 0.0939,-0.0021 0.14182,0 0.42173,-0.0044 0.74918,0.309054 1.15036,0.386119 0.1904,0.01693 0.37521,-0.08267 0.54759,-0.157601 0.23812,-0.13489 0.50534,-0.232204 0.78004,-0.232461 z m -11.96018,7.725172 c 0.9325,1.602647 1.09998,3.531465 2.08359,5.109765 0.51205,0.83797 1.29911,1.498026 2.20762,1.86862 0.24187,0.129556 0.58992,0.166809 0.78548,0.305924 0.004,-0.228131 0.0244,-0.403711 0.66146,-1.124479 0.008,-0.04454 0.60697,-0.60969 0.75241,0.09095 0.5066,2.440582 2.55676,2.312336 4.14238,2.348177 1.77144,0.04004 4.41812,-0.526092 4.7377,-2.406055 0.88409,-0.195217 1.06297,0.673852 1.05006,0.975651 -0.003,0.05894 -0.006,0.107275 -0.008,0.165365 0.0331,-0.05747 0.0935,-0.112242 0.2067,-0.157097 0.0474,-0.01429 0.0935,-0.02577 0.14056,-0.04134 0.9363,-0.310298 1.79805,-0.875125 2.38125,-1.67845 0.78138,-1.054185 1.10312,-2.355398 1.51309,-3.580143 0.2157,-0.646465 0.45694,-1.286836 0.80202,-1.876888 -0.89176,1.22661 -1.91332,2.415095 -3.24115,3.183268 -0.89475,0.522488 -1.95488,0.766635 -2.98483,0.620117 -1.35204,-0.182012 -2.56628,-0.862039 -3.73724,-1.521354 -0.25441,-0.144344 -0.51406,-0.286428 -0.76894,-0.429948 -1.26462,0.7059 -2.51256,1.498097 -3.93568,1.843815 -0.98377,0.245001 -2.04508,0.1778 -2.97656,-0.23151 -1.32802,-0.574384 -2.37318,-1.6338 -3.26595,-2.745053 -0.18748,-0.23554 -0.36999,-0.474903 -0.54571,-0.719335 z m 20.40737,-17.547093 c 0.0454,2.65e-4 0.0892,0.0011 0.13394,0.0039 1.19089,0.0733 1.90744,1.665777 2.20615,2.821038 0.20496,0.792506 -0.22129,1.810554 -0.88246,2.29308 -0.64127,0.468008 -1.68258,0.466863 -2.3795,0.08668 -1.0775,-0.587801 -2.71473,-1.527529 -2.4701,-2.730418 0.27699,-1.362048 1.98383,-2.485631 3.39197,-2.47432 z m -29.88951,-19.948215 c -3.81099,0.0042 -7.02409,3.068997 -6.26786,10.728616 0.67432,2.972784 0.81656,6.161021 2.40314,8.845296 0.69352,2.946842 4.3971,2.706812 3.63613,5.838706 -0.1398,0.575389 0.5201,2.434426 0.0326,3.278108 -3.80955,6.959695 -3.84251,9.809781 -3.13928,17.26013 -0.69725,3.0665 -0.931,3.732837 -0.81879,6.894447 0.80538,2.987791 8.22357,7.174231 8.6846,10.182861 -5.13539,-0.85811 -9.64991,7.18465 -8.19036,11.08321 0.98145,3.06001 2.92054,5.68324 4.25079,8.5892 1.6753,3.17625 3.71983,6.14812 5.26326,9.38508 1.81524,2.47633 3.56046,5.02252 3.82927,8.17549 1.09397,3.43647 -2.91729,4.4871 -4.11291,7.02502 -1.14216,3.71603 0.1164,3.86797 2.00524,3.06138 0.64184,0.5411 1.42273,0.41534 3.4944,0.60676 0.65261,0.0603 2.0278,-0.11697 2.95861,-0.12608 1.47468,-0.0145 2.58197,-0.19872 3.48257,-0.27186 3.74962,-0.0637 4.27465,-0.47729 4.06564,-3.4672 -0.0222,-0.31798 0.7197,-0.19166 0.65398,-0.57918 -0.45415,-2.65919 -1.06808,-5.11369 -0.56336,-5.97698 0.85535,-1.46303 4.48773,4.40969 6.03541,4.34582 2.43534,-0.1005 3.91532,-5.98185 4.89689,-4.60192 0.41212,0.57936 0.47003,2.44917 0.46486,4.42068 -0.59001,6.18839 0.89642,4.89829 5.9133,5.50812 2.64256,0.20902 5.24447,-0.13337 7.89095,-0.18518 1.25048,-0.0737 2.82005,-0.26261 3.10045,-1.65874 0.24315,-1.21075 -1.78783,-2.83864 -2.56467,-4.5113 -1.03933,-2.23796 -1.30487,-4.4747 -1.46157,-5.03138 0.67447,-0.33097 1.46423,-0.67215 3.39198,0.0512 1.49598,0.56137 1.38075,1.65674 1.05185,2.80528 -0.5397,1.8847 -1.65114,3.91078 2.84437,3.95576 3.77358,-0.15047 7.5636,-0.0819 11.29081,-0.81558 -0.37213,-2.256 7.34937,-2.68334 12.8548,-2.32854 0.1039,-0.67322 0.0935,-1.32962 -0.0197,-1.97 -0.33544,-1.89766 -1.57084,-3.66848 -3.3841,-5.3584 l -0.0315,-0.0315 0.0158,-0.0394 c 1.11509,-2.9646 0.64327,-4.54797 0.0906,-6.96197 -1.14451,-1.48286 -1.17029,-3.82758 -1.31976,-5.64208 -0.9899,-6.19848 -1.93883,-12.73653 -5.80691,-17.90336 -1.89121,-2.60199 -3.92602,-5.24003 -6.5712,-7.10382 -2.41503,-1.3253 -5.16704,-2.16725 -7.14245,-4.164571 -4.49318,2.574721 -4.60285,13.663961 -4.69202,13.927891 l -0.80762,-2.08032 -1.45764,1.81634 -1.15823,-2.05667 c -0.41157,0.78051 -0.82944,1.55778 -1.23702,2.34035 -1.61646,-2.83823 -3.22245,-5.64951 -4.59824,-8.08143 l 2.868,-0.2955 c -0.31986,-0.77771 -0.64419,-1.55363 -0.96125,-2.33248 h 2.98226 c -0.40903,-0.68125 -0.81312,-1.3655 -1.22522,-2.044855 l 2.07616,-2e-6 c -0.13597,-1.042393 -0.15754,-1.846475 -0.19421,-2.300968 2.82279,-2.533086 1.97721,-3.915508 2.13577,-5.137044 -0.66059,-0.947028 -2.87706,-2.693334 -2.57388,-4.083293 1.68407,-7.720965 -2.87502,-10.656284 -1.60645,-15.308644 0.29919,-3.121562 3.174,-6.859616 4.20143,-9.768207 1.08483,-2.485343 0.27218,-5.427054 1.70583,-7.809077 -0.65222,-6.641988 -10.60451,-10.967442 -13.5206,-7.647537 -3.61081,4.110881 1.47294,6.623084 2.48981,9.566314 0.74569,2.158331 3.20149,12.184012 1.87918,11.71756 -1.11593,-0.393655 -3.27538,1.584859 -3.80956,0.169418 -1.0393,-2.753908 -2.621,-5.923759 -4.33747,-7.485997 -1.37217,-1.248859 -2.20333,-0.9184 -4.85355,-3.14806 -1.49552,-1.25821 -0.91342,-3.129266 -0.79972,-5.649957 -3.01684,-0.417862 -5.98133,0.12283 -8.96646,-0.0079 -0.5597,1.723138 -1.77805,5.217012 -3.4432,6.682237 -2.09852,1.846556 -5.31665,2.809613 -5.88965,5.149577 -1.17708,4.806876 -1.91874,4.506651 -3.38015,4.65314 -1.72231,0.172641 -2.36411,-2.096148 -0.63821,-8.396136 0.41358,-1.509676 5.2945,-10.646058 4.18776,-11.902737 -2.08754,-2.37037 -4.97615,-3.801009 -7.58367,-3.798159 z"
         style="fill:#d40000;fill-opacity:1;fill-rule:evenodd;stroke:none;stroke-width:0.26458332"
         id="path3042" />
      <path
         sodipodi:nodetypes="cccccccccccccccccccccccccccccccccccccccccccccccccccccccccccccccccccccccccccccccccccccccccccccccccccccccccccccccccccccccccccccccccccccccccccccccccccccccccccccccccccccccccccccccccccccccccccccccccccccccccccccccccccccccccccccccccccccccccccccccccccccccccscccccccccccccccccccccc"
         inkscape:connector-curvature="0"
         id="path4458"
         d="m -226.36196,56.128182 c -0.54193,-0.0056 -1.13858,0.0722 -1.54037,0.472797 -0.44257,0.43968 -0.51397,1.109583 -0.46487,1.702081 0.0965,0.938075 0.43405,1.82481 0.68943,2.726481 0.34586,1.175446 0.63587,2.421405 0.41365,3.648434 -0.1038,0.613863 -0.36366,1.185757 -0.69337,1.70996 -0.96758,1.618459 -2.08118,3.145285 -3.22651,4.641318 -0.94517,1.215901 -1.90782,2.421856 -2.97042,3.53812 -0.26677,0.259913 -0.52285,0.549166 -0.85094,0.73284 -0.66622,0.17344 -1.36614,0.288578 -2.0604,0.319138 -0.92167,0.04139 -1.89804,-0.117377 -2.6474,-0.689499 -0.78754,-0.589984 -1.23115,-1.494285 -1.68613,-2.340359 -0.30023,-0.557114 -0.61509,-1.118904 -1.06369,-1.572061 -1.26572,2.814492 -2.67998,5.56329 -3.86078,8.41584 -0.45063,1.119761 -0.8919,2.256078 -1.11096,3.447499 -0.0794,0.51556 -0.14274,1.070169 0.067,1.564177 0.0361,0.08337 0.16283,0.03943 0.24031,0.06304 0.44364,0.04049 0.88786,0.08238 1.33157,0.122139 -0.18316,0.409483 -0.36497,0.819566 -0.5476,1.229281 0.50947,0.04645 1.01935,0.08878 1.52856,0.137898 -0.5025,0.639945 -1.00598,1.279131 -1.50886,1.91878 0.67361,0.135509 1.34763,0.269102 2.021,0.40582 -0.2762,0.730859 -0.54864,1.463162 -0.82337,2.194579 0.75635,0.283821 1.51314,0.566454 2.2692,0.85104 -1.6139,0.717124 -3.22783,1.434153 -4.84174,2.15124 0.40447,0.03934 0.80889,0.07917 1.21339,0.1182 -0.22488,0.633375 -0.4519,1.265994 -0.67761,1.899081 l 1.04005,-0.161544 0.0237,1.126839 c 0.4925,0.04356 0.98459,0.09587 1.47734,0.133961 0.0936,0.188939 0.18642,0.37827 0.27971,0.567359 0.59745,0.366515 1.19535,0.73229 1.79251,1.099262 -0.0447,0.451776 -0.0893,0.903576 -0.13395,1.35536 0.63847,0.226452 1.27491,0.458957 1.91464,0.681617 -0.0444,0.30191 -0.0865,0.60416 -0.13002,0.9062 0.69731,-0.23246 1.39461,-0.46491 2.09192,-0.69737 -0.37728,0.75628 -0.75371,1.51298 -1.13066,2.26944 0.91375,0.54935 1.82937,1.09564 2.74193,1.64691 -0.77897,0.87544 -1.56307,1.74639 -2.34403,2.6201 l 0.52396,1.17018 c 1.04914,0.50188 2.09902,1.00226 3.14772,1.50508 0.23395,1.88608 0.4712,3.77176 0.70519,5.65784 -0.86981,-0.75351 -1.74143,-1.50492 -2.61194,-2.25762 -0.56597,0.0986 -1.13209,0.19633 -1.69796,0.2955 -0.45833,-0.73902 -0.91091,-1.48172 -1.36703,-2.22216 -0.23635,0.70527 -0.47291,1.41047 -0.70912,2.11578 -0.97701,-0.0814 -1.95403,-0.16286 -2.93104,-0.24428 0.59849,0.62151 1.19957,1.24056 1.79644,1.86362 -0.64668,0.36405 -1.29209,0.73039 -1.93827,1.09532 0.71392,0.41841 1.43166,0.83043 2.14313,1.25292 -0.79806,0.3596 -1.59974,0.71123 -2.3992,1.06774 0.56872,0.12952 1.13652,0.26321 1.70584,0.39006 -1.03213,1.04141 -2.07288,2.07443 -3.10833,3.1126 h 4.30989 c -0.59056,1.22946 -1.18193,2.45853 -1.77281,3.68784 h 1.82796 c -0.47258,0.4637 -0.93706,0.93566 -1.40641,1.40263 0.66681,0.26859 1.33591,0.53185 2.0013,0.80377 -0.0887,1.0598 -0.17586,2.11973 -0.26396,3.17957 0.73157,-0.54748 1.46208,-1.09641 2.19434,-1.64298 -0.18027,1.19731 -0.35408,2.3956 -0.53184,3.59329 0.72114,-0.94676 1.44054,-1.89485 2.16282,-2.84075 -0.0872,1.13226 -0.17892,2.26417 -0.26789,3.39628 0.52837,-0.74826 1.05283,-1.49932 1.58371,-2.2458 0.22009,0.92997 0.44131,1.85966 0.66185,2.78952 0.22059,-0.66061 0.44141,-1.32115 0.66184,-1.98181 0.37208,0.7084 0.7517,1.41285 1.12672,2.11972 0.69015,-0.41597 1.38512,-0.8242 2.07222,-1.24505 0.10599,0.68727 0.19037,1.37805 0.2994,2.06456 0.0797,0.35851 0.16065,0.71711 0.24032,1.07562 0.39978,-0.26435 0.7949,-0.53621 1.19763,-0.79588 1.1171,1.25681 2.23483,2.51093 3.34862,3.77058 -0.0474,0.1043 -0.34006,0.14488 -0.46485,0.22458 -1.74813,0.71559 -3.67235,1.03826 -5.55481,0.82346 -2.13528,-0.23001 -4.14289,-1.08147 -6.01572,-2.09608 -0.29229,-0.15838 -0.58158,-0.32043 -0.87065,-0.48462 1.23504,1.69654 2.4393,3.46079 3.11621,5.46478 0.26691,0.78967 0.44582,1.61178 0.51608,2.4428 0.25192,0.75352 0.26378,1.60692 -0.0748,2.33642 -0.41626,0.91763 -1.19032,1.59429 -1.92251,2.25762 -0.79672,0.71903 -1.64458,1.44407 -2.11555,2.43098 -0.22493,0.76254 -0.44621,1.54618 -0.43336,2.34824 0.008,0.38148 0.11644,0.83709 0.49246,1.01651 0.41808,0.18722 0.89063,0.0615 1.30794,-0.063 0.25713,-0.0183 0.54378,-0.34375 0.76032,-0.14578 0.49932,0.34161 1.12894,0.34106 1.70978,0.39006 0.62225,0.034 1.24199,0.0905 1.86342,0.13396 1.01169,0.003 2.01746,-0.14697 3.02953,-0.14185 1.07513,-0.0182 2.14177,-0.16758 3.21075,-0.26791 0.88435,-0.0244 1.77766,-0.0247 2.64344,-0.22852 0.48828,-0.11393 0.98928,-0.37041 1.21339,-0.84316 0.27437,-0.57852 0.25217,-1.23868 0.23637,-1.86362 0.003,-0.20282 -0.0426,-0.41082 -0.0158,-0.6107 0.14184,-0.22157 0.50239,-0.13931 0.63033,-0.37824 0.0327,-0.19536 -0.0519,-0.39156 -0.0709,-0.58706 -0.22626,-1.31206 -0.52095,-2.61658 -0.64608,-3.94394 -0.0307,-0.50091 -0.0752,-1.03283 0.13,-1.50508 0.0806,-0.21595 0.32296,-0.34894 0.5476,-0.27974 0.45535,0.12921 0.80688,0.46352 1.15429,0.7683 1.10973,1.02814 2.04933,2.23318 3.20681,3.2111 0.32237,0.25331 0.66725,0.52999 1.08732,0.58312 0.62398,0.0111 1.16762,-0.38192 1.58764,-0.8077 0.94652,-0.97665 1.52482,-2.22426 2.28495,-3.33718 0.18721,-0.24978 0.37323,-0.54022 0.67761,-0.65404 0.23924,-0.0729 0.42854,0.16026 0.51215,0.3546 0.22986,0.55432 0.26453,1.16606 0.31517,1.75724 0.0526,0.85825 0.0681,1.71751 0.0512,2.57676 -0.0896,1.07586 -0.19058,2.1679 -0.0354,3.24262 0.0829,0.54857 0.29187,1.13144 0.77216,1.45386 0.53787,0.35893 1.20216,0.41432 1.82796,0.47673 1.13874,0.0851 2.28161,0.12687 3.4156,0.26793 2.62079,0.19902 5.24004,-0.13756 7.85943,-0.18912 0.77497,-0.0527 1.5895,-0.12055 2.27314,-0.52402 0.49361,-0.2886 0.84012,-0.84762 0.81549,-1.42628 -0.058,-0.581 -0.40988,-1.07417 -0.73275,-1.54054 -0.69885,-0.97117 -1.53587,-1.87057 -1.98949,-2.9944 -0.61036,-1.39895 -0.96675,-2.88923 -1.2449,-4.38522 -0.0183,-0.16284 -0.16431,-0.37891 0.0827,-0.40976 0.5591,-0.28287 1.20511,-0.35639 1.82007,-0.2561 0.58674,0.0934 1.16473,0.26753 1.70584,0.5122 0.46285,0.21627 0.86079,0.62904 0.93762,1.15048 0.10988,0.68884 -0.13245,1.36676 -0.32699,2.01728 -0.19209,0.6472 -0.44877,1.31488 -0.3585,2.00152 0.0585,0.47462 0.41329,0.86159 0.83914,1.05198 0.73399,0.33805 1.56007,0.38313 2.35585,0.40976 0.83359,-0.0147 1.66784,-0.0536 2.50163,-0.0709 2.99091,-0.0815 6.00228,-0.16028 8.94677,-0.74072 -0.0777,-0.39528 0.16171,-0.77283 0.4688,-1.00076 0.25128,-0.19706 0.54085,-0.3405 0.83519,-0.46098 -0.62611,-0.98912 -1.25452,-1.97678 -1.87918,-2.96682 0.3225,-0.0496 0.64618,-0.0914 0.96915,-0.1379 -0.46824,-1.03254 -0.94125,-2.06294 -1.40644,-3.09684 0.96864,0.51167 1.9412,1.01599 2.91134,1.52478 -0.17071,-0.80901 -0.34143,-1.61802 -0.51214,-2.42704 -0.77245,-0.27088 -1.54253,-0.54961 -2.31646,-0.81558 -0.22082,-0.71682 -0.44974,-1.43136 -0.67367,-2.1473 -0.31641,0.13545 -0.63343,0.26942 -0.94943,0.40582 -0.3618,-0.95241 -0.725,-1.90429 -1.08733,-2.8565 -0.58976,0.36227 -1.17846,0.72627 -1.76887,1.08744 -0.67924,-1.31247 -1.35494,-2.6268 -2.03281,-3.94 -0.78149,0.82597 -1.56187,1.65295 -2.34404,2.47826 -0.18523,-0.7811 -0.36747,-1.56292 -0.55154,-2.3443 l -7.82793,5.80756 c -0.49284,1.12248 -1.3659,2.07701 -2.45041,2.65162 -1.37751,0.74004 -2.98486,0.9293 -4.52657,0.81558 -1.57716,-0.12545 -3.14034,-0.54035 -4.54232,-1.2805 -0.70393,-0.38437 -1.39715,-0.8563 -1.83979,-1.54054 1.71316,-0.80784 2.98233,-1.97416 3.98685,-3.41598 0.40466,-0.50142 0.80844,-1.00354 1.21339,-1.50508 0.41458,0.24031 0.82123,0.49165 1.23309,0.73678 0.0626,-0.36188 0.1265,-0.72162 0.1891,-1.0835 0.0764,-0.6909 0.1315,-1.38486 0.20485,-2.07637 0.70625,0.38784 1.4183,0.76371 2.12737,1.14654 0.34115,-0.72383 0.68617,-1.44572 1.02429,-2.17095 0.25146,0.6495 0.50478,1.29693 0.7564,1.94636 0.17628,-0.93925 0.35207,-1.87775 0.5279,-2.8171 0.56562,0.72051 1.12692,1.44459 1.69007,2.167 -0.14241,-1.12663 -0.28874,-2.24972 -0.42941,-3.37657 0.76624,0.91063 1.52769,1.8228 2.29283,2.73436 -0.23426,-1.18793 -0.4645,-2.37827 -0.70124,-3.5657 0.75731,0.51128 1.51253,1.02436 2.26919,1.5366 -0.13817,-1.0545 -0.27491,-2.10941 -0.41365,-3.16382 0.65175,-0.30312 1.30855,-0.59454 1.96189,-0.89438 -0.4909,-0.44424 -0.97545,-0.89485 -1.46945,-1.33566 l 1.82403,-0.0867 c -0.64841,-1.19997 -1.29806,-2.40104 -1.94616,-3.60116 l 4.30595,-0.20488 c -1.08344,-0.98799 -2.16986,-1.96755 -3.25015,-2.95894 0.56271,-0.15366 1.12025,-0.3165 1.6822,-0.4728 -0.81543,-0.31827 -1.63229,-0.63207 -2.44646,-0.95348 0.69065,-0.45569 1.39071,-0.89968 2.08402,-1.35142 -0.66273,-0.33394 -1.32632,-0.66773 -1.98947,-1.00076 0.56669,-0.65061 1.13742,-1.29722 1.70582,-1.94636 -0.97207,0.12758 -1.9432,0.25461 -2.91528,0.38218 l -0.8076,-2.08032 -1.4559,1.81776 -1.15998,-2.0581 c -0.41156,0.78051 -0.82945,1.55779 -1.23703,2.34036 -1.53313,-2.69343 -3.06726,-5.38586 -4.59747,-8.08094 -0.0154,-0.0532 0.12937,-0.0191 0.17728,-0.0394 l 2.69072,-0.2561 c -0.31987,-0.77771 -0.6442,-1.55363 -0.96125,-2.33248 h 2.98226 c -0.40901,-0.68125 -0.81312,-1.3655 -1.22522,-2.044858 h 2.07616 c -0.66575,-5.104328 0.67641,-1.616861 -3.98291,-4.65314 -0.46412,0.603243 -0.92454,1.206794 -1.39066,1.808459 -0.86025,-0.911267 -1.72263,-1.820542 -2.58436,-2.730418 0.46839,-0.08857 0.93486,-0.187195 1.40249,-0.279738 -0.18301,-0.456848 -0.36216,-0.915276 -0.54761,-1.371121 0.90883,-0.09094 1.81744,-0.184026 2.72619,-0.275799 -0.40877,-0.904719 -0.81462,-1.810777 -1.22522,-2.71466 0.72752,-0.221438 1.45218,-0.452525 2.17859,-0.67768 -0.59261,-1.001858 -1.18235,-2.005436 -1.77674,-3.006217 0.45822,-0.13689 0.91662,-0.273126 1.37491,-0.409763 -0.18211,-0.412575 -0.36789,-0.823547 -0.54761,-1.237159 0.86668,-0.181452 1.73342,-0.362445 2.60012,-0.543719 -0.92809,-2.845004 -1.73306,-5.762908 -3.19104,-8.396137 -0.85425,-1.550839 -1.94592,-2.977345 -3.26986,-4.156699 -0.8264,1.280969 -1.67002,2.586918 -2.82859,3.597219 -0.80451,0.705845 -1.81698,1.206934 -2.8956,1.276559 -0.85342,0.06368 -1.70978,-0.111567 -2.50556,-0.40976 -0.69389,-0.394218 -1.27651,-0.955072 -1.84372,-1.509019 -1.41498,-1.432788 -2.66698,-3.020864 -3.78198,-4.696479 -0.56312,-0.848571 -1.07909,-1.728864 -1.54038,-2.635858 -0.62737,-1.08331 -0.84714,-2.361584 -0.78397,-3.601157 0.0517,-1.365977 0.41507,-2.691339 0.55942,-4.046381 0.0589,-0.526608 0.0321,-1.061593 -0.0788,-1.579938 -0.0789,-0.406961 -0.20321,-0.875856 -0.60275,-1.079558 -0.31749,-0.162195 -0.68241,-0.177882 -1.03218,-0.18124 z m 2.01312,18.77409 c 0.0393,-3.7e-5 0.0786,0.0039 0.11819,0.0079 0.57517,0.05004 1.15034,0.188794 1.65856,0.468863 0.86277,0.469419 1.43356,1.377069 1.5837,2.336416 0.06,0.408597 0.072,0.833906 -0.004,1.241103 -0.068,0.192942 -0.10668,0.396991 -0.18122,0.58706 -0.15461,0.310356 -0.53597,0.337579 -0.84307,0.338841 -0.15577,-0.03379 -0.40196,0.07884 -0.47668,-0.08668 -0.23712,-0.329051 0.0152,-0.777367 -0.22851,-1.103198 -0.23283,-0.364644 -0.78217,-0.44136 -1.11095,-0.161542 -0.32639,0.235202 -0.4695,0.649409 -0.44517,1.040159 0.0223,0.214027 0.004,0.488736 0.21273,0.61858 0.319,0.17381 0.69628,0.114943 1.04398,0.161542 0.24494,-0.05992 0.34966,0.215781 0.4767,0.37824 0.19326,0.293775 0.15603,0.686207 -0.0315,0.97318 -0.11254,0.146899 -0.19932,0.358185 -0.39001,0.4137 -0.35457,0.02119 -0.69478,-0.198237 -1.05187,-0.106379 -0.42953,0.150352 -0.71926,0.524598 -1.07944,0.784059 -0.20765,0.17009 -0.49225,0.25106 -0.75245,0.165478 -0.41662,-0.168256 -0.6941,-0.550106 -1.0637,-0.79194 -0.2036,-0.15729 -0.46909,-0.222031 -0.72094,-0.157597 -0.23912,0.02656 -0.48669,0.173908 -0.72488,0.0788 -0.22206,-0.211048 -0.40634,-0.485474 -0.46093,-0.791941 -0.067,-0.371223 0.18011,-0.695251 0.4176,-0.949539 0.19909,0.01558 0.39593,-0.02275 0.59487,-0.02363 0.25477,-0.01905 0.5642,-0.02061 0.7367,-0.24034 0.10555,-0.195757 0.0987,-0.432736 0.10244,-0.6501 0,-0.435009 -0.25883,-0.874979 -0.67368,-1.032279 -0.42261,-0.164013 -0.9564,0.143346 -0.9967,0.602818 -0.0128,0.276334 0.0485,0.57903 -0.12607,0.819521 -0.10126,0.11834 -0.33129,0.03234 -0.4885,0.0591 -0.30678,-0.0011 -0.69241,-0.04345 -0.83126,-0.362484 -0.0635,-0.194366 -0.11245,-0.395454 -0.17334,-0.590997 -0.0796,-0.502126 -0.0553,-1.023279 0.067,-1.516901 0.21967,-0.907029 0.8333,-1.72193 1.68613,-2.119718 0.48006,-0.223253 1.00899,-0.349562 1.53645,-0.386119 0.0479,-0.0016 0.0939,-0.0021 0.14182,0 0.42173,-0.0044 0.74918,0.309054 1.15036,0.386119 0.1904,0.01693 0.37521,-0.08267 0.54759,-0.157601 0.23812,-0.13489 0.50534,-0.232204 0.78004,-0.232461 z m -11.9566,7.726338 c 0.17572,0.244433 0.35619,0.485479 0.54366,0.721019 0.89278,1.111253 1.93789,2.171795 3.26591,2.746179 0.93148,0.409311 1.99455,0.473522 2.97832,0.228521 1.42312,-0.345718 2.67101,-1.141958 3.93563,-1.847858 0.25488,0.14352 0.50985,0.289055 0.76427,0.433398 1.17095,0.659315 2.38266,1.334889 3.73471,1.516901 1.02995,0.146519 2.09538,-0.09215 2.99014,-0.61464 1.32783,-0.768173 2.35051,-1.956909 3.24227,-3.18352 -0.34508,0.590053 -0.58797,1.232916 -0.80367,1.879381 -0.40997,1.224745 -0.73536,2.519391 -1.51674,3.573576 -0.6125,0.843677 -1.5305,1.427006 -2.52133,1.725721 -0.33013,-0.01074 -0.21213,0.320069 -0.27184,0.539782 -0.12551,0.898919 -0.6513,1.71096 -1.35914,2.265497 -0.94743,0.747099 -2.12043,1.150758 -3.30136,1.339601 -0.82394,0.14038 -1.67048,0.07992 -2.48193,-0.106383 -1.13946,-0.262385 -2.27064,-0.737825 -3.10831,-1.575996 -0.62511,-0.618593 -1.00287,-1.475417 -1.02036,-2.356123 -0.19556,-0.139115 -0.53816,-0.17776 -0.78003,-0.307316 -0.90851,-0.370594 -1.69412,-1.029592 -2.20616,-1.867561 -0.98362,-1.578301 -1.15154,-3.507531 -2.08404,-5.110179 z"
         style="fill:#ffffff;fill-rule:evenodd;stroke:none;stroke-width:0.26458332" />
      <path
         inkscape:connector-curvature="0"
         id="path118"
         d="m -239.74066,137.48521 1.50329,2.19326 0.93544,1.67044 0.60136,1.50339 0.46772,1.46998 0.12519,1.071 0.17549,1.10056 v 0.60136 l -0.26727,0.60136 -0.80181,1.26953 -1.67043,1.50339 -1.06908,1.1693 -0.48054,0.77904 -0.32127,1.12526 -0.10023,1.13589 0.13364,0.66818 0.30068,0.46772 0.43431,0.10023 0.91998,-0.19554 0.63813,-0.24036 0.12219,0.0946 0.72512,0.34132 0.96885,0.0334 0.93545,0.13363 0.94378,0.0157 1.6621,-0.0491 1.46998,-0.10022 1.40316,-0.10023 1.70496,-0.16026 0.73388,0.0266 1.40316,-0.16705 0.96886,-0.20045 0.63476,-0.46772 0.23386,-0.66817 0.13364,-0.80181 -0.0307,-1.26741 v 0 l 0.63033,-0.37824 c 0,0 0.0709,0.58706 0,0 -0.0709,-0.58706 -0.36579,-2.39681 -0.36579,-2.39681 0,0 -0.20046,-0.96885 -0.20046,-1.01061 0,-0.0418 -0.15869,-1.22777 -0.15869,-1.22777 l -0.008,-0.81016 0.10023,-0.49278 0.15869,-0.27562 0.23386,-0.13363 0.22551,0.0251 0.23386,0.0835 0.2088,0.12529 0.50114,0.3842 0.73499,0.70158 0.77675,0.81016 0.47607,0.52618 0.60136,0.62642 0.77675,0.70993 0.34244,0.25892 c 0,0 0.26727,0.18375 0.33409,0.21716 0.0668,0.0334 0.4378,0.12567 0.4378,0.12567 l 0.31389,-0.0171 0.25057,-0.0752 0.32573,-0.1587 0.21716,-0.15034 0.30903,-0.23386 0.25892,-0.25891 0.24221,-0.29233 0.15861,-0.1808"
         style="fill:none;stroke:#000000;stroke-width:0.26458332px;stroke-linecap:butt;stroke-linejoin:miter;stroke-opacity:1" />
      <path
         inkscape:connector-curvature="0"
         id="path120"
         d="m -216.0875,148.6433 0.96894,-1.24742"
         style="fill:none;stroke:#000000;stroke-width:0.26458332px;stroke-linecap:butt;stroke-linejoin:miter;stroke-opacity:1" />
      <path
         inkscape:connector-curvature="0"
         id="path122"
         d="m -212.73493,148.6197 -0.045,2.65159 -0.0334,1.57021 0.13364,0.60135 0.15869,0.52619 0.1921,0.31738 0.2088,0.20881 0.26727,0.20045 0.23386,0.10022 0.26727,0.0919 0.30903,0.0752 0.45937,0.0668 0.5596,0.0501 0.81016,0.0501 0.86027,0.0585 0.70158,0.0585 0.77676,0.0835 0.66817,0.0501 1.00226,0.0167 1.56186,-0.008 1.52009,-0.0752 0.91874,-0.0501 0.9605,-0.0668 0.9438,-0.0334 0.5763,-0.0167 0.56794,-0.0585 0.43432,-0.0585 0.36749,-0.0919 0.47608,-0.16704 0.39255,-0.23386 0.29233,-0.26727 0.2255,-0.32574 0.12529,-0.34244 0.0501,-0.25891 -0.0418,-0.35079 -0.11693,-0.33409 -0.21716,-0.44267 -0.26727,-0.42596 -0.35079,-0.45937 -0.37585,-0.50948 -0.29232,-0.37585 -0.16104,-0.2172 -0.12292,-0.43457"
         style="fill:none;stroke:#000000;stroke-width:0.26458332px;stroke-linecap:butt;stroke-linejoin:miter;stroke-opacity:1" />
      <path
         inkscape:connector-curvature="0"
         id="path124"
         d="m -195.12725,150.38362 0.2702,0.0564 0.36763,0.11196 0.26577,0.0679 0.56696,0.0856 0.26576,0.0236 0.34255,0.0207 0.31006,0.0118 0.15355,-0.003 0.36321,-0.0118 0.31596,-0.009 0.29825,-0.009 0.31892,-0.0118 0.28053,-0.006 0.18603,-0.003 0.80025,-0.0266 0.44589,-0.0118 0.42522,-0.009 0.3514,-0.0118 0.45476,-0.0148 0.4518,-0.0177 1.2048,-0.0531 0.42817,-0.0266 0.41341,-0.0236 0.42818,-0.0266 0.35435,-0.0295 0.27758,-0.0266 0.57582,-0.0561 0.44885,-0.0473 0.52267,-0.062 0.58173,-0.0827 0.43703,-0.062 0.34254,-0.0591 0.16537,-0.0295 0.38093,-0.0738 0.0623,-0.0105 -7.9e-4,-5.2e-4 c 0,0 -0.0114,-0.11311 -0.0114,-0.12196 0,-0.009 0,-0.0975 0,-0.10926 0,-0.0118 0.0207,-0.11517 0.0207,-0.11517 l 0.0325,-0.11221 0.062,-0.1506 0.0709,-0.11221 0.0945,-0.10631 0.14765,-0.13878 0.12697,-0.0945 0.2008,-0.12698 0.22442,-0.12106 0.1506,-0.0797 0.18441,-0.073"
         style="fill:none;stroke:#000000;stroke-width:0.26458332px;stroke-linecap:butt;stroke-linejoin:miter;stroke-opacity:1" />
      <path
         inkscape:connector-curvature="0"
         id="path126"
         d="m -158.89297,147.4575 13.19756,-0.2876 2.5e-4,-9e-5 -0.15048,-0.65926 -0.23386,-0.28397 c 0,0 -0.20045,-0.25057 -0.28397,-0.30068 -0.0835,-0.0501 -0.31738,-0.23386 -0.40091,-0.28398 -0.0835,-0.0501 -0.51843,-0.23329 -0.51843,-0.23329 l 2.38344,0.12608 -0.0902,-0.24775 -0.13364,-0.31321 -0.20462,-0.30903 -0.1754,-0.23804 -0.25474,-0.27144 -0.40926,-0.40091 -0.29232,-0.25056 -0.30486,-0.23386 -0.28397,-0.23387 -0.26991,-0.20417 1.71483,0.50903 1.24772,0.36171 -0.0158,-0.12785 -0.0376,-0.22968 -0.0626,-0.2798 -0.071,-0.2631 -0.0919,-0.25474 -0.14616,-0.2965 -0.16705,-0.27145 -0.21297,-0.28397 -0.27563,-0.2965 -0.30903,-0.26727 -0.22968,-0.1921 -0.20046,-0.16287 -0.21715,-0.17957 -0.12188,-0.1057 1.55982,-0.0275 -0.064,-0.12572 -0.25474,-0.35914 -0.2798,-0.32991 -0.35079,-0.32156 -0.44266,-0.30903 -0.35915,-0.22551 -0.42178,-0.22968 -0.24966,-0.13259 1.97742,-0.42148 -0.10326,-0.13081 -0.21716,-0.26309 -0.27145,-0.34244 -0.37584,-0.41344 -0.25892,-0.28815 -0.31321,-0.30903 -0.64729,-0.58465 -0.49696,-0.39673 -0.43849,-0.2965 -0.47607,-0.28397 -0.51366,-0.24639 -0.51366,-0.20463 -0.55124,-0.17122 -0.4886,-0.096 -0.65147,-0.11275 c 0,0 -0.7517,-0.0501 -0.77675,-0.071 -0.0251,-0.0209 -0.68071,-0.0543 -0.68071,-0.0543 l -0.593,-0.0292 h -1.67044 l -0.91038,0.0334 -0.59718,0.0334 -0.73917,0.0501 -0.42596,0.0376 -0.86445,0.0752 -0.46355,0.0376 -0.19473,0.0161 -1.21673,0.28448"
         style="fill:none;stroke:#000000;stroke-width:0.26458332px;stroke-linecap:butt;stroke-linejoin:miter;stroke-opacity:1" />
    </g>
  </g>
</svg>
