<?xml version="1.0" encoding="UTF-8" standalone="no"?>
<!-- Created with Inkscape (http://www.inkscape.org/) -->

<svg
   xmlns:dc="http://purl.org/dc/elements/1.1/"
   xmlns:cc="http://creativecommons.org/ns#"
   xmlns:rdf="http://www.w3.org/1999/02/22-rdf-syntax-ns#"
   xmlns:svg="http://www.w3.org/2000/svg"
   xmlns="http://www.w3.org/2000/svg"
   xmlns:sodipodi="http://sodipodi.sourceforge.net/DTD/sodipodi-0.dtd"
   xmlns:inkscape="http://www.inkscape.org/namespaces/inkscape"
   width="210mm"
   height="297mm"
   viewBox="0 0 210 297"
   version="1.1"
   id="svg8"
   inkscape:version="0.92.1 r15371"
   sodipodi:docname="cujo.svg">
  <defs
     id="defs2" />
  <sodipodi:namedview
     id="base"
     pagecolor="#ffffff"
     bordercolor="#666666"
     borderopacity="1.0"
     inkscape:pageopacity="0.0"
     inkscape:pageshadow="2"
     inkscape:zoom="0.35"
     inkscape:cx="1732.6994"
     inkscape:cy="627.46902"
     inkscape:document-units="mm"
     inkscape:current-layer="g1036"
     showgrid="false"
     inkscape:window-width="1536"
     inkscape:window-height="801"
     inkscape:window-x="-8"
     inkscape:window-y="-8"
     inkscape:window-maximized="1" />
  <metadata
     id="metadata5">
    <rdf:RDF>
      <cc:Work
         rdf:about="">
        <dc:format>image/svg+xml</dc:format>
        <dc:type
           rdf:resource="http://purl.org/dc/dcmitype/StillImage" />
        <dc:title></dc:title>
      </cc:Work>
    </rdf:RDF>
  </metadata>
  <g
     inkscape:label="Layer 1"
     inkscape:groupmode="layer"
     id="layer1">
    <g
       id="g1036">
      <g
         id="g1089"
         transform="matrix(2.8524387,0,0,2.8524387,-170.073,-312.96808)"
         style="stroke-width:0.35057721;stroke-miterlimit:4;stroke-dasharray:none">
        <path
           style="fill:none;stroke:#000000;stroke-width:0.35057721;stroke-linecap:butt;stroke-linejoin:miter;stroke-miterlimit:4;stroke-dasharray:none;stroke-opacity:1"
           d="m 121.27355,164.03341 0.20045,-3.20724 -0.0668,-3.00678 0.33409,-3.00678 0.13363,-1.5368 -0.73499,-2.33861 -1.13589,-2.00452 -0.735,-0.66817 -2.3386,-4.67722 -1.93771,-2.40543 -2.47224,-2.20497 -2.33861,-1.26953 -2.13815,-0.86863 -1.93771,-0.13363 -1.46998,-1.06908 -2.93997,-1.87089 -2.071335,-1.26953 -1.403165,-1.13589 -1.00226,-0.26727 -1.937705,-0.46772 -2.004521,-0.0668 h -2.672696 l -2.405425,0.40091 -1.035669,0.43431 -1.035669,0.53454 -1.670436,1.36975 -0.968852,0.83522 -0.434313,0.83522 -0.801807,0.73499 -2.004523,0.96885 -1.937702,-0.0334 -0.935445,-0.23386 -1.469983,-0.60136 -1.069078,-0.20045 h -0.46772 l -1.269531,-0.33408 -1.03567,-0.43432 -0.968851,-0.4009 -1.102487,-0.23386 -1.369756,0.13363 -1.904296,0.43432 -1.937705,1.1693 -0.902033,1.00226 -0.56795,0.86862 -0.100224,0.96886 0.367496,0.63476 0.534538,0.3675"
           id="path21"
           inkscape:connector-curvature="0" />
        <path
           style="fill:none;stroke:#000000;stroke-width:0.35057721;stroke-linecap:butt;stroke-linejoin:miter;stroke-miterlimit:4;stroke-dasharray:none;stroke-opacity:1"
           d="m 71.594823,137.13941 -0.334087,-0.26727 -0.601355,-0.13363 -0.300678,0.10022 -0.367496,0.33409 -0.267269,0.66817 -0.267271,0.46773 -0.567947,0.30067 -0.634764,0.16705 h -0.534541 l -0.267268,-0.16705 -0.400905,-0.26727 -0.400905,-0.43431 -0.100226,-0.33409 -0.200451,-0.16704 h -0.534541 l -0.501129,0.26727 -0.06682,0.66817 0.267268,0.53454 0.734992,0.23387 0.53454,0.10022 0.400905,0.20045 0.400904,0.40091 0.534538,0.0334 0.902036,-0.16705 0.400902,-0.10023 0.200454,-0.23385 0.06682,-0.56795 0.23386,-0.3675 0.534541,-0.20045 0.367493,-0.16704 0.367495,-0.20046 0.267272,-0.23386 z"
           id="path23"
           inkscape:connector-curvature="0" />
        <path
           style="fill:none;stroke:#000000;stroke-width:0.35057721;stroke-linecap:butt;stroke-linejoin:miter;stroke-miterlimit:4;stroke-dasharray:none;stroke-opacity:1"
           d="m 63.287388,139.18313 -0.0118,0.64964 -0.200801,0.4961 -0.318918,0.61421 -0.14174,0.42522 -0.0945,0.41341 -0.0118,0.23624 -0.212611,0.62602 -0.141743,1.29929 0.188989,1.27567 0.496094,1.6064 0.472469,1.41741 0.259861,1.11031 0.09449,0.68508 0.212611,0.63784 0.543341,1.25204 0.8032,0.89769 0.590588,0.40161 0.614211,0.47246"
           id="path25"
           inkscape:connector-curvature="0" />
        <path
           style="fill:none;stroke:#000000;stroke-width:0.35057721;stroke-linecap:butt;stroke-linejoin:miter;stroke-miterlimit:4;stroke-dasharray:none;stroke-opacity:1"
           d="m 67.657738,149.18768 -0.330729,-0.16536 h -0.543343 l -0.212611,0.47247 -0.02363,1.46466 v 1.55915 l 0.09449,1.02762 0.118118,0.75595 0.224422,0.66146 0.425225,0.64965 0.212611,0.2008 0.08268,-0.14174 -0.04725,-0.43704 -0.04725,-0.87407 0.08268,-1.63002 0.106304,-1.004 0.07087,-1.16936 -0.05906,-0.75595 -0.106304,-0.59059 z"
           id="path27"
           inkscape:connector-curvature="0" />
        <path
           style="fill:none;stroke:#000000;stroke-width:0.35057721;stroke-linecap:butt;stroke-linejoin:miter;stroke-miterlimit:4;stroke-dasharray:none;stroke-opacity:1"
           d="m 70.279947,147.88839 -0.283482,-0.18899 -0.47247,-0.0945 H 69.09877 l -0.259858,0.16536 -0.07087,0.23624 -0.02363,0.54334 0.118118,1.22842 0.212611,0.77958 0.236236,0.92131 0.472469,1.13393 0.4016,0.66146 0.377976,0.4961 0.307105,0.35435 0.425225,0.18899 0.07087,-0.0472 -0.165365,-0.37798 -0.14174,-0.61421 -0.212611,-0.75595 -0.212611,-0.85045 -0.141743,-0.87407 -0.118118,-0.82682 -0.07087,-0.66146 v -0.85045 z"
           id="path29"
           inkscape:connector-curvature="0" />
        <path
           style="fill:none;stroke:#000000;stroke-width:0.35057721;stroke-linecap:butt;stroke-linejoin:miter;stroke-miterlimit:4;stroke-dasharray:none;stroke-opacity:1"
           d="m 74.272322,148.5971 -0.73233,-0.28349 -0.354354,-0.0945 -0.708705,-0.23623 h -0.330729 l -0.14174,0.0945 -0.212611,0.28348 -0.0945,0.47247 0.141743,0.89769 0.330729,1.08669 0.377976,1.03943 0.54334,1.1103 0.614212,0.94495 0.614211,0.61421 0.708705,0.7087 0.496094,0.0945 0.236236,-0.0709 -0.283483,-0.35436 -0.283482,-0.44884 -0.307105,-0.54334 -0.25986,-0.73233 -0.283483,-0.94494 -0.09449,-1.13393 -0.02363,-1.32292 0.04725,-0.61421 z"
           id="path31"
           inkscape:connector-curvature="0" />
        <path
           style="fill:none;stroke:#000000;stroke-width:0.35057721;stroke-linecap:butt;stroke-linejoin:miter;stroke-miterlimit:4;stroke-dasharray:none;stroke-opacity:1"
           d="m 77.272506,150.08538 -0.283482,-0.21261 -0.33073,-0.21262 -0.448844,-0.14174 -0.307107,0.16537 -0.09449,0.49609 -0.04725,1.01581 0.07087,0.85045 0.236235,0.59059 0.283483,0.66145 0.259858,0.44885 0.188989,0.37798 0.283483,0.18899 0.04725,-0.47247 0.04725,-0.99219 0.07087,-0.70871 v -0.75595 l 0.02363,-0.89769 z"
           id="path33"
           inkscape:connector-curvature="0" />
        <path
           style="fill:none;stroke:#000000;stroke-width:0.35057721;stroke-linecap:butt;stroke-linejoin:miter;stroke-miterlimit:4;stroke-dasharray:none;stroke-opacity:1"
           d="m 79.067894,151.7154 -0.377975,-0.11812 -0.283483,0.0709 -0.307107,0.14174 -0.14174,0.28349 0.07087,0.7087 0.118116,0.47247 0.236236,0.33073 0.188989,0.42522 0.425222,0.18899 0.212611,-0.23623 0.02363,-0.23624 -0.02363,-0.77958 -0.07087,-0.35435 -0.04725,-0.4016 z"
           id="path35"
           inkscape:connector-curvature="0" />
        <path
           style="fill:none;stroke:#000000;stroke-width:0.35057721;stroke-linecap:butt;stroke-linejoin:miter;stroke-miterlimit:4;stroke-dasharray:none;stroke-opacity:1"
           d="m 81.73735,151.00669 -0.259858,-0.18898 -0.54334,-0.14174 h -0.283483 l -0.118118,0.14174 -0.07087,0.25986 -0.09449,0.75595 0.02363,0.54334 0.02363,0.33073 0.0945,0.51972 0.259858,0.63783 0.236236,0.47247 0.28348,0.47247 0.307107,0.28348 0.236236,0.0472 0.07087,-0.23624 v -0.40159 l -0.02363,-0.94495 -0.04725,-0.77957 0.04725,-0.77958 v -0.59059 z"
           id="path37"
           inkscape:connector-curvature="0" />
        <path
           style="fill:none;stroke:#000000;stroke-width:0.35057721;stroke-linecap:butt;stroke-linejoin:miter;stroke-miterlimit:4;stroke-dasharray:none;stroke-opacity:1"
           d="m 83.343749,160.78683 -0.212611,0.18899 -0.236236,0.28348 -0.519716,0.0945 h -0.354354 l -0.118118,-0.0709 -0.165364,-0.73233 0.02363,-0.82682 0.04725,-0.92132 0.188989,-0.8032 0.212611,-0.51971 0.212611,-0.30711 0.188987,-0.0945 0.02363,0.54334 v 0.8032 l 0.02363,0.92131 0.330729,0.73233 z"
           id="path39"
           inkscape:connector-curvature="0" />
        <path
           style="fill:none;stroke:#000000;stroke-width:0.35057721;stroke-linecap:butt;stroke-linejoin:miter;stroke-miterlimit:4;stroke-dasharray:none;stroke-opacity:1"
           d="m 80.969587,161.12937 -0.153553,-0.50791 -0.153554,-0.37797 -0.09449,-0.68508 -0.09449,-0.68509 -0.07087,-0.51971 -0.14174,-0.99219 -0.141742,-0.16536 -0.153554,-0.17718 -0.129929,0.1063 -0.04725,0.46066 -0.106304,0.75595 -0.03544,0.75596 -0.04725,0.99219 0.0118,1.0158 0.09449,0.25986 0.177175,0.0472 h 0.437036 l 0.318918,-0.0354 0.271669,-0.10631 z"
           id="path41"
           inkscape:connector-curvature="0" />
        <path
           style="fill:none;stroke:#000000;stroke-width:0.35057721;stroke-linecap:butt;stroke-linejoin:miter;stroke-miterlimit:4;stroke-dasharray:none;stroke-opacity:1"
           d="m 76.69373,160.49153 0.330729,0.30711 0.460658,0.14174 H 77.7686 l 0.188989,-0.0827 0.07087,-0.23624 -0.106307,-0.3071 -0.08268,-0.17718 -0.106307,-0.25986 -0.28348,-0.38979 -0.248047,-0.14174 -0.212613,0.10631 -0.08268,0.0827 -0.224422,0.29529 -0.153554,0.20081 -0.0118,0.36616 z"
           id="path43"
           inkscape:connector-curvature="0" />
        <path
           style="fill:none;stroke:#000000;stroke-width:0.35057721;stroke-linecap:butt;stroke-linejoin:miter;stroke-miterlimit:4;stroke-dasharray:none;stroke-opacity:1"
           d="m 74.284133,160.38523 0.259857,0.21261 0.401601,0.0709 0.377976,-0.0591 0.188989,-0.12993 0.2008,-0.11812 0.0118,-0.21261 -0.118118,-0.33073 -0.02363,-0.83863 v -0.48428 l -0.07087,-0.61421 -0.07087,-0.40161 -0.03543,-0.17717 -0.212611,-0.0472 -0.212612,0.24805 -0.165364,0.4016 -0.129929,0.4016 -0.03544,0.23623 -0.129929,0.28349 -0.0945,0.28348 -0.04725,0.36616 -0.08268,0.48428 z"
           id="path45"
           inkscape:connector-curvature="0" />
        <path
           style="fill:none;stroke:#000000;stroke-width:0.35057721;stroke-linecap:butt;stroke-linejoin:miter;stroke-miterlimit:4;stroke-dasharray:none;stroke-opacity:1"
           d="m 71.425688,160.55059 0.507905,0.0354 0.377976,-0.0354 0.366164,-0.21261 0.08268,-0.47247 -0.04725,-0.7087 -0.09449,-0.73233 -0.0945,-0.8032 0.07087,-0.59059 0.141743,-0.54334 0.07087,-0.61421 0.118118,-0.4016 -0.02363,-0.30711 -0.354354,0.16537 -0.425222,0.66146 -0.448847,0.85044 -0.165365,0.70871 -0.236236,1.48828 -0.02363,0.87407 z"
           id="path47"
           inkscape:connector-curvature="0" />
        <path
           style="fill:none;stroke:#000000;stroke-width:0.35057721;stroke-linecap:butt;stroke-linejoin:miter;stroke-miterlimit:4;stroke-dasharray:none;stroke-opacity:1"
           d="m 67.775854,160.78683 0.141742,0.11811 0.354351,0.0236 0.236236,-0.18899 v -0.49609 -0.49609 l 0.07087,-0.54335 0.04725,-0.59058 -0.14174,-0.0945 -0.236236,0.35436 -0.4016,0.96856 -0.09449,0.51972 z"
           id="path49"
           inkscape:connector-curvature="0" />
        <path
           style="fill:none;stroke:#000000;stroke-width:0.35057721;stroke-linecap:butt;stroke-linejoin:miter;stroke-miterlimit:4;stroke-dasharray:none;stroke-opacity:1"
           d="m 66.287572,161.49553 0.401601,0.23624 0.236236,-0.16537 0.212611,-0.49609 0.04725,-0.61421 -0.04725,-0.8032 0.02363,-0.4016 0.09449,-0.56696 0.118118,-0.23624 -0.33073,0.14174 -0.354353,0.44885 -0.14174,0.77957 -0.236236,0.77958 -0.02363,0.68508 z"
           id="path51"
           inkscape:connector-curvature="0" />
        <path
           style="fill:none;stroke:#000000;stroke-width:0.35057721;stroke-linecap:butt;stroke-linejoin:miter;stroke-miterlimit:4;stroke-dasharray:none;stroke-opacity:1"
           d="m 88.895276,155.89676 0.850445,1.08669 0.566965,1.84263 0.14174,1.70089 -0.14174,1.93713 -0.236236,1.03943 -0.519716,0.0945 0.04725,-0.7087 v -1.98438 l -0.141743,-1.18118 -0.236233,-1.37016 -0.377978,-1.18118 -0.28348,-0.94494 z"
           id="path53"
           inkscape:connector-curvature="0" />
        <path
           style="fill:none;stroke:#000000;stroke-width:0.35057721;stroke-linecap:butt;stroke-linejoin:miter;stroke-miterlimit:4;stroke-dasharray:none;stroke-opacity:1"
           d="m 72.714343,161.53533 0.828287,0.16683 0.993946,0.364 1.242429,0.71282 0.524583,0.36399 0.966336,0.45499 1.325262,0.42466 1.242429,0.455 1.684187,0.18199 h 1.518527 l 1.159603,-0.13649 0.883506,-0.455 0.662631,-0.65215 0.165656,-0.42467 -0.138048,-0.40948 -0.138049,-0.0758 -0.248485,0.15166 -0.193266,0.39432 -0.248488,0.4095 -0.469363,0.18199 -0.52458,0.28816 -0.607412,0.22749 -0.773068,0.091 -1.297652,-0.0303 -0.883505,-0.0758 -0.800679,-0.16683 -0.828287,-0.33367 -0.800677,-0.33365 -0.635024,-0.3185 -0.828286,-0.42466 -0.69024,-0.43982 -0.717849,-0.3185 -0.635021,-0.24266 -0.980139,-0.17441 -0.731654,-0.15166 h -0.441757 l -0.248485,0.0607 0.08283,0.11375 z"
           id="path57"
           inkscape:connector-curvature="0" />
        <path
           style="fill:none;stroke:#000000;stroke-width:0.35057721;stroke-linecap:butt;stroke-linejoin:miter;stroke-miterlimit:4;stroke-dasharray:none;stroke-opacity:1"
           d="m 81.73735,151.00669 0.55641,0.0709 0.385205,-0.16538 0.442274,-0.21264 0.342404,0.0236 0.513608,0.47252 0.342406,0.40164 0.256803,0.6379 0.342406,0.77965 0.22827,0.89778 0.413739,1.84281 0.256805,1.55931 0.114134,0.54339 0.156937,1.39393 0.07133,1.32304 v 0.61427 l -0.171201,0.0709 -0.242537,-0.40164 -0.0764,-0.43247 v -0.40094 l 0.01009,-0.5513 -0.141235,-1.06918 -0.312735,-1.50354 -0.151323,-0.96895 -0.191676,-0.95224 -0.363176,-1.00236 -0.181587,-0.58471 -0.201765,-0.43435 -0.262293,-0.31741 -0.363176,-0.23388 H 83.188251 82.804899 82.4619 l -0.181588,-0.10024 -0.453969,-0.30071"
           id="path59"
           inkscape:connector-curvature="0" />
        <path
           style="fill:none;stroke:#000000;stroke-width:0.35057721;stroke-linecap:butt;stroke-linejoin:miter;stroke-miterlimit:4;stroke-dasharray:none;stroke-opacity:1"
           d="m 80.532551,150.81771 -0.484283,-0.24805 -0.48428,-0.11812 -0.425225,-0.18899 -0.425222,-0.1063 -0.366165,-0.0472 -0.413412,0.0472 -0.34254,0.0827 -0.271671,0.15355"
           id="path61"
           inkscape:connector-curvature="0" />
        <path
           style="fill:none;stroke:#000000;stroke-width:0.35057721;stroke-linecap:butt;stroke-linejoin:miter;stroke-miterlimit:4;stroke-dasharray:none;stroke-opacity:1"
           d="m 80.367189,151.83352 -0.460661,-0.37798 -0.460658,-0.22442 -0.437036,-0.22443 -0.271669,-0.1063 -0.413411,-0.11812 -0.295294,0.0591 -0.519718,0.2008 -0.212611,0.2008"
           id="path63"
           inkscape:connector-curvature="0" />
        <path
           style="fill:none;stroke:#000000;stroke-width:0.35057721;stroke-linecap:butt;stroke-linejoin:miter;stroke-miterlimit:4;stroke-dasharray:none;stroke-opacity:1"
           d="m 110.3155,167.57473 -1.5368,-0.93544 -2.33861,-2.2718 -0.93544,-1.87088 -0.7684,-1.60362 -0.30068,-1.67043 -0.23387,-2.23839 0.13364,-1.97111 -0.10023,-3.10701 -0.13363,-1.80407 0.16704,-1.36975 0.43432,0.33409 0.0668,1.06907 0.0668,2.23839 0.0334,2.80633 v 1.70384 l 0.46772,2.17156 0.3675,1.93771 0.83522,1.83748 2.43883,2.13815 1.57021,1.1359 1.87089,0.23386"
           id="path65"
           inkscape:connector-curvature="0" />
        <path
           style="fill:none;stroke:#000000;stroke-width:0.35057721;stroke-linecap:butt;stroke-linejoin:miter;stroke-miterlimit:4;stroke-dasharray:none;stroke-opacity:1"
           d="m 121.27355,164.03341 -0.60136,1.20271 -1.67043,0.66817 -2.93997,0.66818 -3.64158,-0.23386 v 0"
           id="path67"
           inkscape:connector-curvature="0" />
        <path
           style="fill:none;stroke:#000000;stroke-width:0.35057721;stroke-linecap:butt;stroke-linejoin:miter;stroke-miterlimit:4;stroke-dasharray:none;stroke-opacity:1"
           d="m 128.0221,177.93142 -0.86862,-1.46998 -0.735,-1.60362 -0.8018,-1.33634 -0.26727,-1.33635 -0.33409,-1.06908 -0.60136,-1.26953 -1.20271,-1.9377 -1.06908,-1.40317 -0.5992,-0.80513 -0.33073,-0.77958 -0.0945,-0.42522"
           id="path69"
           inkscape:connector-curvature="0" />
        <path
           style="fill:none;stroke:#000000;stroke-width:0.35057721;stroke-linecap:butt;stroke-linejoin:miter;stroke-miterlimit:4;stroke-dasharray:none;stroke-opacity:1"
           d="m 71.828686,156.24918 -0.534541,-0.20045 -0.601355,-0.31738 -0.601356,-0.3675 -0.484428,-0.21715 -0.701583,-0.21716 -0.551243,-0.10023 -0.35079,-0.13363 -0.392919,-0.33445"
           id="path71"
           inkscape:connector-curvature="0" />
        <path
           style="fill:none;stroke:#000000;stroke-width:0.35057721;stroke-linecap:butt;stroke-linejoin:miter;stroke-miterlimit:4;stroke-dasharray:none;stroke-opacity:1"
           d="m 66.429328,153.69977 v 0 0 l 0.301186,0.21557"
           id="path73"
           inkscape:connector-curvature="0" />
        <path
           style="fill:none;stroke:#000000;stroke-width:0.35057721;stroke-linecap:butt;stroke-linejoin:miter;stroke-miterlimit:4;stroke-dasharray:none;stroke-opacity:1"
           d="m 71.198096,160.01601 -0.400904,-0.0167 -0.492779,0.0292 -0.471898,0.12528 -0.522009,0.18375 -0.471898,0.23804 -0.330425,0.16394"
           id="path75"
           inkscape:connector-curvature="0" />
        <path
           style="fill:none;stroke:#000000;stroke-width:0.35057721;stroke-linecap:butt;stroke-linejoin:miter;stroke-miterlimit:4;stroke-dasharray:none;stroke-opacity:1"
           d="m 67.775854,160.78683 -0.323707,-0.0149 -0.275622,0.11693"
           id="path77"
           inkscape:connector-curvature="0" />
        <path
           style="fill:none;stroke:#000000;stroke-width:0.35057721;stroke-linecap:butt;stroke-linejoin:miter;stroke-miterlimit:4;stroke-dasharray:none;stroke-opacity:1"
           d="m 66.287572,161.49553 -0.271668,0.44885 -0.177176,0.59059 -0.04725,0.31891 0.271669,0.6024 0.283483,0.37798 0.224422,0.33073 0.307107,0.49609 0.330729,0.41341 0.64416,0.36208 0.668174,0.83522 0.935442,0.83522 0.634767,0.7684 0.400902,0.70158 0.501131,0.70158 0.935443,0.56795 0.968854,0.30068 1.436573,0.36749 0.935443,0.13364 1.403164,-0.20045 0.601359,0.13363 0.801806,0.30068 0.968854,0.36749 0.902033,0.86863 0.567947,0.70158 0.267272,0.90204 0.267268,1.06908 0.200451,1.00226 -0.133633,1.50339 -0.467722,1.9377 -0.534538,1.70384 -0.467722,3.00679 0.267268,1.60361"
           id="path79"
           inkscape:connector-curvature="0" />
        <path
           style="fill:none;stroke:#000000;stroke-width:0.35057721;stroke-linecap:butt;stroke-linejoin:miter;stroke-miterlimit:4;stroke-dasharray:none;stroke-opacity:1"
           d="m 91.659225,137.96651 0.637836,0.87408 0.496094,1.01581 0.04725,0.59058 -0.259857,0.54335 -0.59059,0.37797 -0.708705,0.25986 -0.779576,0.16536 -1.393786,-0.28348 -0.637836,-0.35435 -0.68508,-0.47247 -0.637837,-0.68508 -0.07087,-0.35436 0.04725,-0.56696 0.496094,-0.85045 0.614209,-0.42522 0.614212,-0.14174 0.566965,-0.0709 0.826823,-0.0472 0.448847,0.0472 0.519716,0.16536 0.212613,0.0709 z"
           id="path81"
           inkscape:connector-curvature="0" />
        <path
           style="fill:none;stroke:#000000;stroke-width:0.35057721;stroke-linecap:butt;stroke-linejoin:miter;stroke-miterlimit:4;stroke-dasharray:none;stroke-opacity:1"
           d="m 75.902343,149.68378 -0.519716,-0.33073 -1.110305,-0.75595 v 0"
           id="path83"
           inkscape:connector-curvature="0" />
        <path
           style="fill:none;stroke:#000000;stroke-width:0.35057721;stroke-linecap:butt;stroke-linejoin:miter;stroke-miterlimit:4;stroke-dasharray:none;stroke-opacity:1"
           d="m 72.146204,147.98288 -0.968563,-0.0472 -0.330729,0.0945 -0.566965,-0.14174"
           id="path85"
           inkscape:connector-curvature="0" />
        <path
           style="fill:none;stroke:#000000;stroke-width:0.35057721;stroke-linecap:butt;stroke-linejoin:miter;stroke-miterlimit:4;stroke-dasharray:none;stroke-opacity:1"
           d="m 69.09877,147.6049 -0.944938,0.23624 -0.685083,0.4961 -0.685083,0.68508"
           id="path87"
           inkscape:connector-curvature="0" />
        <path
           style="fill:none;stroke:#000000;stroke-width:0.35057721;stroke-linecap:butt;stroke-linejoin:miter;stroke-miterlimit:4;stroke-dasharray:none;stroke-opacity:1"
           d="m 82.02083,161.3538 -0.461865,0.11549 -0.451017,-0.0668 -0.19744,-0.13138"
           id="path89"
           inkscape:connector-curvature="0" />
        <path
           style="fill:none;stroke:#000000;stroke-width:0.35057721;stroke-linecap:butt;stroke-linejoin:miter;stroke-miterlimit:4;stroke-dasharray:none;stroke-opacity:1"
           d="m 79.70571,161.3656 -0.610635,-0.11347 -0.400904,-0.0668 -0.334087,-0.0835 -0.402495,-0.24411"
           id="path91"
           inkscape:connector-curvature="0" />
        <path
           style="fill:none;stroke:#000000;stroke-width:0.35057721;stroke-linecap:butt;stroke-linejoin:miter;stroke-miterlimit:4;stroke-dasharray:none;stroke-opacity:1"
           d="m 76.516568,160.39704 -0.444979,0.0366 -0.358233,-0.072"
           id="path93"
           inkscape:connector-curvature="0" />
        <path
           style="fill:none;stroke:#000000;stroke-width:0.35057721;stroke-linecap:butt;stroke-linejoin:miter;stroke-miterlimit:4;stroke-dasharray:none;stroke-opacity:1"
           d="m 74.284133,160.38523 -0.434221,0.015 -0.434314,-0.0835 -0.442666,-0.0668 -0.192098,-0.0752"
           id="path95"
           inkscape:connector-curvature="0" />
        <path
           style="fill:none;stroke:#000000;stroke-width:0.35057721;stroke-linecap:butt;stroke-linejoin:miter;stroke-miterlimit:4;stroke-dasharray:none;stroke-opacity:1"
           d="m 128.0221,177.93142 v 0 l 2.28519,3.59685 0.28348,0.75595 0.28349,0.56697 -50.960678,2.69741"
           id="path101"
           inkscape:connector-curvature="0" />
        <path
           inkscape:connector-curvature="0"
           id="path1042"
           d="m 72.736786,156.48735 1.665465,0.21261 2.610397,0.4961 2.102493,0.1063 0.681517,0.18295"
           style="fill:none;stroke:#000000;stroke-width:0.35057721;stroke-linecap:butt;stroke-linejoin:miter;stroke-miterlimit:4;stroke-dasharray:none;stroke-opacity:1" />
        <path
           inkscape:connector-curvature="0"
           id="path1044"
           d="m 80.234785,157.56653 1.789011,0.24666"
           style="fill:none;stroke:#000000;stroke-width:0.35057721;stroke-linecap:butt;stroke-linejoin:miter;stroke-miterlimit:4;stroke-dasharray:none;stroke-opacity:1" />
        <path
           transform="scale(0.26458333)"
           inkscape:connector-curvature="0"
           id="path1046"
           d="m 302.544,700.25335 c -0.0708,-0.22808 -0.29819,-1.44705 -0.5054,-2.70884 -0.32101,-1.95485 -0.24479,-3.11695 0.51535,-7.85715 0.49065,-3.05964 1.37066,-7.11231 1.95559,-9.00595 1.62102,-5.24784 2.76774,-10.51543 3.02126,-13.87846 0.20584,-2.73049 0.0996,-3.55638 -1.05669,-8.21428 -1.42711,-5.74893 -1.85542,-6.55154 -5.26043,-9.85753 -1.98067,-1.92307 -2.68461,-2.34221 -5.99423,-3.56909 -2.69875,-1.00044 -4.25059,-1.37626 -5.53571,-1.34065 -8.1815,0.22672 -8.05881,0.23712 -12.7711,-1.0821 -5.77388,-1.61641 -7.86884,-2.88995 -9.7755,-5.94261 -1.83946,-2.94506 -4.45223,-6.1294 -6.14616,-7.49068 -0.7575,-0.60875 -1.92402,-1.83855 -2.59226,-2.73288 -0.66824,-0.89434 -1.8671,-2.00922 -2.66413,-2.47751 -0.96609,-0.56762 -2.11188,-1.83571 -3.43728,-3.8042 -2.76816,-4.11123 -2.89576,-4.40972 -2.63334,-6.15966 0.31543,-2.10349 0.93346,-2.89107 1.87376,-2.38784 0.59368,0.31773 0.85758,0.2446 1.44781,-0.40121 0.39698,-0.43436 0.98579,-1.31208 1.30845,-1.95047 0.57827,-1.14412 1.38697,-1.5015 1.81832,-0.80357 0.41963,0.67898 1.68304,0.35055 5.01563,-1.30383 2.8432,-1.41144 3.68029,-1.6663 5.57186,-1.69643 2.09172,-0.0333 2.23896,0.0184 2.44116,0.8574 0.19621,0.8142 0.40533,0.90209 2.37382,0.99766 1.66468,0.0808 2.34189,-0.0436 2.95943,-0.54363 0.7177,-0.58117 1.06652,-0.60805 3.3623,-0.25911 1.40883,0.21413 3.01394,0.5793 3.56691,0.81149 1.35387,0.56849 3.14212,0.53272 4.01742,-0.0804 1.12516,-0.78809 3.37389,-0.58816 4.74152,0.42155 0.71183,0.52555 2.00808,1.00218 3.21428,1.1819 1.11176,0.16565 3.46781,0.62323 5.23567,1.01683 1.76786,0.39361 4.5,0.71734 6.07143,0.71942 1.57143,0.002 3.09821,0.0202 3.39286,0.0403 0.29464,0.0201 1.62213,-0.10843 2.94998,-0.28562 1.91377,-0.25539 2.63564,-0.53427 3.48214,-1.34527 0.58733,-0.5627 1.06788,-1.23811 1.06788,-1.50091 0,-0.26279 -0.5625,-1.59478 -1.25,-2.95997 -1.2158,-2.41424 -1.25015,-2.59726 -1.25547,-6.68752 -0.006,-4.88318 -0.21549,-5.50359 -1.55863,-4.62353 -0.50092,0.32822 -1.09891,0.95837 -1.32886,1.40033 -0.22994,0.44197 -0.45474,0.84861 -0.49955,0.90366 -0.0448,0.055 -1.24666,-0.0807 -2.67079,-0.30167 -2.27879,-0.35356 -2.72166,-0.55247 -3.69287,-1.65862 l -1.10357,-1.25689 -0.74911,0.8709 c -0.69577,0.80888 -0.9004,0.85207 -2.87371,0.60654 -1.16852,-0.1454 -3.17419,-0.27792 -4.45703,-0.2945 -1.28284,-0.0166 -4.49712,-0.45052 -7.14285,-0.96433 -2.64573,-0.51381 -6.25685,-1.12167 -8.02471,-1.35081 -2.86594,-0.37146 -3.20554,-0.49276 -3.1336,-1.11937 0.0444,-0.38652 0.18704,-1.54652 0.31703,-2.57777 0.18592,-1.47496 0.13061,-1.87471 -0.25925,-1.87366 -0.96813,0.003 -2.65173,1.32929 -3.3542,2.64312 -0.89841,1.68031 -1.35547,1.61362 -5.75918,-0.84023 -2.06164,-1.14879 -4.35987,-2.09181 -6.25,-2.56453 -4.29813,-1.07493 -4.37819,-1.17876 -4.09577,-5.31112 0.52329,-7.65645 0.65528,-12.12455 0.41498,-14.04783 -0.23382,-1.8714 -0.35604,-2.08586 -1.53293,-2.68963 l -1.27885,-0.65609 1.93017,-1.42958 c 3.11439,-2.30666 3.04313,-2.341 3.32016,1.60007 0.28848,4.10405 1.80424,10.00406 3.5113,13.66759 1.61895,3.47442 4.26109,6.95177 5.64993,7.43592 1.3411,0.46751 2.26014,0.16923 1.91943,-0.62297 -1.57419,-3.66019 -4.07161,-16.40533 -4.07585,-20.80032 l -0.002,-2.00713 1.63503,-0.18429 c 2.58812,-0.29172 2.97184,-0.0825 2.6299,1.43355 -0.76819,3.40609 2.87005,13.94165 6.81313,19.72928 1.99876,2.93377 5.77778,6.41916 7.01603,6.47088 3.08255,0.12876 3.16783,-0.0974 1.15518,-3.06377 -1.18859,-1.75182 -2.20045,-3.83698 -2.90832,-5.99324 -0.9952,-3.0315 -1.09999,-3.82222 -1.25905,-9.50015 l -0.17349,-6.19342 2.33444,1.54986 2.33444,1.54986 -0.0198,4.46499 c -0.0213,4.80636 0.14959,5.42457 3.0204,10.92726 0.83106,1.59296 2.58569,3.31459 2.97815,2.92214 0.0753,-0.0753 0.31982,-2.86049 0.54333,-6.18926 0.44353,-6.60543 0.49596,-6.74307 2.72805,-7.16182 1.35523,-0.25424 3.19116,0.3487 6.02981,1.98025 l 1.82155,1.04695 0.24157,2.61259 c 0.18933,2.04771 0.57966,3.30827 1.80528,5.83015 1.67746,3.45158 2.33344,4.235 3.84695,4.59423 0.88898,0.21101 0.98502,0.12496 1.21223,-1.08617 0.13571,-0.72344 0.14588,-3.19138 0.0226,-5.48431 l -0.22416,-4.16899 2.76194,0.17625 c 3.1469,0.20082 4.12989,0.69442 5.05454,2.53813 1.11192,2.21713 2.84499,7.9383 3.4184,11.28473 0.30292,1.76786 0.87787,4.90179 1.27767,6.96429 0.3998,2.0625 0.77563,5.29288 0.83518,7.17864 0.14054,4.45067 1.09278,6.35345 2.6775,5.35015 1.05487,-0.66785 -0.49528,-14.29879 -2.84634,-25.02879 -1.66799,-7.6125 -3.1582,-11.30536 -5.57051,-13.80413 -2.04459,-2.11787 -2.65527,-2.2712 -4.76308,-1.19587 -1.68672,0.8605 -2.78491,0.9037 -3.8584,0.1518 -0.44168,-0.30936 -1.72297,-0.64852 -2.84732,-0.75369 -1.12435,-0.10517 -3.4907,-0.66905 -5.25856,-1.25308 -2.60777,-0.86149 -3.65233,-1.03388 -5.53572,-0.91362 -2.00385,0.12796 -2.47063,0.0358 -3.41208,-0.67339 -1.65584,-1.24742 -3.65764,-1.99158 -4.33607,-1.61192 -0.43156,0.24151 -1.37912,-0.20162 -3.72504,-1.74203 -4.547,-2.98572 -8.60628,-4.2755 -13.45614,-4.2755 -2.53865,0 -3.99228,-0.16275 -4.69377,-0.5255 -2.23726,-1.15693 -5.92437,-0.99007 -8.65679,0.39178 -1.48246,0.74971 -5.15369,4.29586 -5.62475,5.4331 -0.29209,0.70516 -0.38827,3.33562 -0.3123,8.54054 0.0722,4.94632 -0.0125,7.44925 -0.24734,7.31043 -1.22207,-0.72229 -4.12946,-3.06787 -5.25902,-4.24278 -1.77478,-1.84604 -3.68141,-6.35593 -4.5781,-10.82889 -0.40025,-1.99653 -1.59244,-6.34885 -2.64932,-9.67182 -2.7743,-8.72277 -3.1464,-12.19345 -1.79733,-16.76401 0.26091,-0.88392 0.58125,-2.24112 0.71188,-3.01598 0.13062,-0.77487 0.65228,-2.2213 1.15924,-3.21429 0.50695,-0.99299 1.10473,-2.41618 1.32839,-3.16264 l 0.40667,-1.3572 0.99891,0.78574 c 0.82286,0.64726 1.0547,0.69763 1.31547,0.28578 0.4673,-0.73807 0.41431,-0.86853 -0.56585,-1.39309 -0.49133,-0.26296 -1.21489,-1.02309 -1.60789,-1.68918 -1.99343,-3.37861 1.74441,-9.15088 8.61228,-13.29978 2.9765,-1.79811 4.19762,-2.30699 7.21792,-3.00795 7.50081,-1.74082 9.83488,-1.55633 16.67103,1.31773 3.70999,1.55976 6.74404,2.36164 11.61965,3.071 1.38188,0.20105 3.43984,0.77566 4.57326,1.27691 3.80319,1.68195 6.87859,2.33153 11.03855,2.33153 h 3.85295 l 3.65289,-1.83311 c 4.33068,-2.17323 6.43659,-3.87601 7.71562,-6.23862 0.68312,-1.26183 2.25731,-2.84929 5.76137,-5.80993 6.56887,-5.55014 10.0058,-7.2245 17.45884,-8.50539 4.93604,-0.84832 5.66877,-0.88385 13.4817,-0.65382 7.99091,0.23528 8.43952,0.28794 13.67427,1.60524 5.35867,1.34847 5.43784,1.38296 7.98804,3.47992 1.41665,1.16487 4.26322,3.14421 6.32572,4.39854 5.73692,3.48897 16.34647,10.36041 18.80173,12.17723 2.19435,1.62377 2.19497,1.62396 5.92002,1.85188 3.32519,0.20345 4.14761,0.40178 7.65505,1.84602 2.16129,0.88995 5.8455,2.65269 8.18713,3.91721 5.69158,3.07355 11.89787,8.49296 17.18091,15.00259 3.4982,4.31041 4.06725,5.24888 8.22915,13.57143 3.50815,7.01523 4.76283,9.19126 5.82571,10.10369 2.01956,1.73369 5.37323,8.03037 6.95397,13.05642 1.498,4.76301 1.49703,4.67384 0.17427,15.99251 -0.47383,4.05445 -0.59755,6.91968 -0.45495,10.53571 0.10773,2.73172 7.2e-4,7.93998 -0.23789,11.5739 -0.41633,6.34159 -0.4793,6.69249 -1.56658,8.73047 -1.06851,2.0028 -1.2747,2.18176 -3.6328,3.15304 -1.375,0.56636 -5.16597,1.65429 -8.42437,2.41763 l -5.92437,1.38789 -7.46849,-0.51148 c -12.11502,-0.82968 -12.5475,-0.92176 -15.91493,-3.38841 -1.57246,-1.15183 -4.87437,-3.83362 -7.33758,-5.95954 -4.36552,-3.76774 -4.5171,-3.94772 -6.00506,-7.13025 -1.27037,-2.71713 -1.80262,-4.61055 -3.17228,-11.28495 l -1.64578,-8.02 -0.0215,-8.53648 c -0.0118,-4.69507 -0.14799,-11.3331 -0.30261,-14.75118 l -0.28113,-6.21469 -1.21524,-1.00785 c -0.66839,-0.55431 -1.31092,-1.01216 -1.42785,-1.01745 -0.31302,-0.0141 -1.11419,7.043 -0.88245,7.77313 0.39307,1.23845 0.81097,17.12686 0.5468,20.7887 -0.28681,3.97561 0.18488,9.74572 1.2869,15.74229 0.49879,2.71417 1.11144,4.26933 3.89984,9.89957 l 3.30809,6.67956 4.59814,4.29749 c 4.96991,4.64495 9.98716,8.12488 10.50534,7.28643 0.42407,-0.68614 0.28099,-0.82079 -2.97077,-2.79598 -2.0776,-1.26197 -4.21193,-3.06908 -7.29745,-6.17865 l -4.36101,-4.395 -2.9166,-6.07143 c -4.21246,-8.76903 -4.58262,-11.09374 -4.86209,-30.53571 -0.25251,-17.56695 -0.25027,-19.61807 0.0218,-19.89011 0.12591,-0.12592 0.32869,-0.12919 0.45061,-0.007 0.12193,0.12192 0.29465,6.61746 0.38384,14.43453 l 0.16216,14.21284 1.5999,8.03572 c 1.2632,6.34465 1.91522,8.77573 3.0983,11.5522 l 1.49841,3.5165 4.46429,4.01514 c 2.45536,2.20833 5.99142,5.13798 7.85793,6.51035 l 3.39364,2.49519 3.74922,0.44157 c 2.06206,0.24286 6.80278,0.64164 10.53492,0.88617 l 6.78572,0.4446 5.89286,-1.341 c 6.44822,-1.46738 11.66369,-3.3778 12.44857,-4.55988 0.48406,-0.72904 0.53256,-0.69085 1.34221,1.05668 0.462,0.99719 2.11087,3.45418 3.66414,5.45999 6.24339,8.06233 9.90001,14.94101 11.32718,21.3082 0.71844,3.20529 1.25165,4.6561 2.42827,6.60714 0.82923,1.375 2.13835,3.86607 2.90915,5.53572 1.55323,3.36445 4.42996,8.26114 9.44175,16.07143 3.25956,5.07965 5.58392,9.54528 5.17905,9.95014 -0.11247,0.11247 -5.54023,0.4857 -12.06169,0.82939 -6.52146,0.34368 -48.4197,2.55115 -93.1072,4.90548 -44.6875,2.35434 -82.18464,4.35441 -83.32696,4.44461 -1.3927,0.10998 -2.11936,0.0274 -2.20564,-0.25067 z m 17.49688,-78.71579 c 1.17857,-0.60532 2.78572,-1.76526 3.57143,-2.57766 1.23508,-1.27701 1.42857,-1.69419 1.42857,-3.08004 0,-1.6414 -0.54173,-2.38294 -1.605,-2.19698 -0.29347,0.0513 -1.04198,0.87029 -1.66337,1.81994 -0.95717,1.46282 -1.58501,1.94228 -4.10928,3.13815 l -2.97949,1.41154 -5.89286,-0.13666 c -4.96315,-0.1151 -6.25882,-0.264 -8.2125,-0.94377 -3.00801,-1.04661 -9.19325,-3.96557 -12.14464,-5.73133 -4.27188,-2.55578 -10.13587,-4.29494 -14.48141,-4.29494 -3.47441,0 -2.9073,1.46352 0.83275,2.14904 3.28147,0.60146 7.26397,2.19271 10.2558,4.09781 3.92769,2.50103 4.64589,2.83348 10.75637,4.97911 6.89651,2.42163 8.55607,2.68385 16.20792,2.56099 5.79571,-0.0931 5.92818,-0.11277 8.03571,-1.1952 z m 20.90568,-3.32678 c 0.80148,-1.29682 1.23703,-5.25687 1.23506,-11.22926 -0.002,-6.30181 -0.0257,-6.50251 -1.19668,-10.17857 -0.93945,-2.94914 -1.58623,-4.26445 -3.02854,-6.1589 l -1.83398,-2.4089 -1.06126,1.06126 -1.06125,1.06125 1.20202,3.84765 c 2.11461,6.76887 2.62091,10.17518 2.6606,17.90033 l 0.0355,6.90983 1.39075,-0.18632 c 0.76492,-0.10248 1.51092,-0.38074 1.65778,-0.61837 z m -41.25944,-35.57026 c 0.64157,-0.97915 0.6405,-1.1804 -0.04,-7.51577 -0.21888,-2.03765 -0.32097,-2.24291 -1.28224,-2.57801 -1.46036,-0.50909 -3.78147,0.42742 -4.08819,1.64948 -0.84694,3.3745 1.92388,9.30299 4.38387,9.37979 0.22294,0.007 0.68492,-0.41401 1.0266,-0.93549 z m 45.36801,-46.749 c 3.02965,-0.78891 5.0278,-2.0637 5.893,-3.75962 1.14031,-2.23521 0.50126,-4.46238 -2.63264,-9.17504 -1.27905,-1.92339 -1.75504,-2.33866 -3.37729,-2.94643 -3.45084,-1.29284 -10.51589,-0.73082 -12.98746,1.03315 -0.71743,0.51203 -1.72986,1.63531 -2.24984,2.49618 -1.87891,3.11066 -1.68172,5.14855 0.73906,7.63791 2.24296,2.3065 5.31821,4.10284 8.04575,4.69976 3.04113,0.66554 4.05932,0.66772 6.56942,0.0141 z m -85.14355,-7.13464 c 2.69253,-0.5664 3.8793,-1.27404 3.8793,-2.31313 0,-1.78007 0.72236,-2.68328 2.78597,-3.48346 2.83106,-1.09777 4.33129,-2.44207 4.4453,-3.98329 0.0772,-1.0442 -0.0795,-1.31947 -1.09369,-1.92139 -0.65111,-0.38642 -1.80651,-0.7189 -2.56755,-0.73886 -1.73807,-0.0456 -2.92866,0.98883 -4.23429,3.6788 -1.14427,2.35752 -2.11662,3.11059 -4.71915,3.65494 -1.95931,0.4098 -2.01715,0.39805 -3.68326,-0.74826 -0.93098,-0.64054 -1.87434,-1.59187 -2.09635,-2.11409 -0.97703,-2.29813 -2.55648,-2.79854 -5.06198,-1.60376 -1.67713,0.79977 -2.07003,2.86012 -0.96026,5.03546 0.70443,1.38078 0.86352,1.47595 3.51054,2.09999 1.7934,0.42279 3.1527,0.9834 3.84869,1.58728 1.80266,1.5641 2.24823,1.62777 5.94673,0.84977 z"
           style="opacity:1;fill:#d40000;fill-opacity:1;fill-rule:nonzero;stroke:#000000;stroke-width:1.32501624;stroke-linejoin:round;stroke-miterlimit:4;stroke-dasharray:none;stroke-dashoffset:0;stroke-opacity:1" />
      </g>
      <path
         style="opacity:1;fill:#ffffff;fill-opacity:1;fill-rule:nonzero;stroke:#000000;stroke-width:1.51181104;stroke-linejoin:round;stroke-miterlimit:4;stroke-dasharray:none;stroke-dashoffset:0;stroke-opacity:1"
         d="m 82.736681,489.00591 c -4.742841,-7.9295 -6.537415,-21.66878 -5.953193,-45.57771 0.404303,-16.54585 0.661948,-17.81373 3.619908,-17.81373 2.156387,0 4.594,1.17471 4.96685,2.39357 0.149641,0.48918 0.533016,3.04862 0.851945,5.68765 0.650638,5.38379 0.34634,13.98948 -0.884047,25.00127 -0.484818,4.33906 -0.816333,12.09557 -0.858037,20.0756 -0.03738,7.15249 -0.07168,13.00507 -0.07623,13.00572 -0.0045,5e-4 -0.754785,-1.24691 -1.667196,-2.77237 z"
         id="path1113"
         inkscape:connector-curvature="0"
         transform="scale(0.26458333)" />
      <path
         style="opacity:1;fill:#ffffff;fill-opacity:1;fill-rule:nonzero;stroke:#000000;stroke-width:1.51181104;stroke-linejoin:round;stroke-miterlimit:4;stroke-dasharray:none;stroke-dashoffset:0;stroke-opacity:1"
         d="m 118.8496,472.46029 c -4.60301,-5.90968 -6.99694,-10.03066 -9.89563,-17.03469 -6.5985,-15.94371 -10.598736,-41.0546 -7.05151,-44.26479 0.75828,-0.68624 1.55676,-0.78757 4.23503,-0.53747 1.8153,0.16951 4.09051,0.68307 5.05601,1.14122 l 1.75546,0.83302 v 7.15487 c 0,12.08326 2.62102,29.78183 6.55017,44.23034 2.72036,10.00346 3.32133,12.64438 2.87736,12.64438 -0.15473,0 -1.74183,-1.87509 -3.52689,-4.16688 z"
         id="path1115"
         inkscape:connector-curvature="0"
         transform="scale(0.26458333)" />
      <path
         style="opacity:1;fill:#ffffff;fill-opacity:1;fill-rule:nonzero;stroke:#000000;stroke-width:1.51181104;stroke-linejoin:round;stroke-miterlimit:4;stroke-dasharray:none;stroke-dashoffset:0;stroke-opacity:1"
         d="m 167.74973,488.75963 c -0.55558,-0.23674 -4.11564,-3.57477 -7.91123,-7.41787 -4.71385,-4.77283 -7.82272,-8.42815 -9.80901,-11.53312 -9.33076,-14.58586 -18.82205,-42.26877 -17.23834,-50.27844 0.52745,-2.66761 2.39333,-5.02741 3.97513,-5.02741 1.17583,0 12.38883,3.48411 16.45456,5.11277 l 2.64371,1.05902 -0.32247,10.71879 c -0.44763,14.87888 0.36251,24.88765 2.63932,32.60689 3.2769,11.10997 5.38743,15.91988 9.90209,22.5669 1.91622,2.82128 1.86906,3.13108 -0.33376,2.19247 z"
         id="path1117"
         inkscape:connector-curvature="0"
         transform="scale(0.26458333)" />
      <path
         style="opacity:1;fill:#ffffff;fill-opacity:1;fill-rule:nonzero;stroke:#000000;stroke-width:1.51181104;stroke-linejoin:round;stroke-miterlimit:4;stroke-dasharray:none;stroke-dashoffset:0;stroke-opacity:1"
         d="m 184.05696,472.09921 c -1.30932,-2.44207 -3.49812,-7.1588 -4.86399,-10.48163 -2.27574,-5.5363 -2.51211,-6.50231 -2.8266,-11.55213 -0.41713,-6.69776 0.39104,-16.75506 1.42984,-17.79387 1.09007,-1.09007 3.73488,-0.3863 7.36456,1.95967 l 3.13724,2.0277 -0.36943,11.72408 c -0.20319,6.44825 -0.6218,15.51133 -0.93023,20.14019 l -0.5608,8.41611 z"
         id="path1119"
         inkscape:connector-curvature="0"
         transform="scale(0.26458333)" />
      <path
         style="opacity:1;fill:#ffffff;fill-opacity:1;fill-rule:nonzero;stroke:#000000;stroke-width:1.51181104;stroke-linejoin:round;stroke-miterlimit:4;stroke-dasharray:none;stroke-dashoffset:0;stroke-opacity:1"
         d="m 206.99697,476.58877 c -0.63737,-0.2479 -1.51434,-1.30151 -1.94882,-2.34136 -0.43447,-1.03985 -1.41425,-2.80489 -2.17728,-3.92231 -1.48054,-2.1682 -2.29338,-5.15039 -2.79033,-10.23727 -0.2817,-2.88365 -0.20238,-3.26064 0.92293,-4.38594 1.25703,-1.25703 4.2856,-2.13914 5.60546,-1.63266 0.76851,0.29491 0.87629,0.79727 1.75134,8.16327 1.5052,12.67053 1.24865,15.37217 -1.3633,14.35627 z"
         id="path1121"
         inkscape:connector-curvature="0"
         transform="scale(0.26458333)" />
      <path
         style="opacity:1;fill:#ffffff;fill-opacity:1;fill-rule:nonzero;stroke:#000000;stroke-width:1.51181104;stroke-linejoin:round;stroke-miterlimit:4;stroke-dasharray:none;stroke-dashoffset:0;stroke-opacity:1"
         d="m 235.82695,485.00989 c -2.32456,-2.646 -6.55665,-10.81622 -8.21995,-15.86898 -1.50749,-4.57942 -2.09939,-13.67536 -1.27432,-19.58271 0.35848,-2.56657 0.80397,-4.91276 0.98999,-5.21374 0.65315,-1.05682 5.28919,-0.28737 8.21574,1.36358 1.78078,1.00458 2.29726,3.78226 2.04707,11.00926 -0.12425,3.58894 -0.018,11.45967 0.23602,17.4905 0.6001,14.24467 0.67473,13.84047 -1.99455,10.80209 z"
         id="path1123"
         inkscape:connector-curvature="0"
         transform="scale(0.26458333)" />
      <path
         style="opacity:1;fill:#ffffff;fill-opacity:1;fill-rule:nonzero;stroke:#000000;stroke-width:1.51181104;stroke-linejoin:round;stroke-miterlimit:4;stroke-dasharray:none;stroke-dashoffset:0;stroke-opacity:1"
         d="m 241.23943,550.87921 c -1.03169,-5.46774 -0.357,-20.04655 1.21573,-26.26979 0.66693,-2.63903 1.65336,-5.76647 2.19206,-6.94988 l 0.97946,-2.15165 0.35077,10.20149 0.35076,10.20149 3.32199,6.93294 3.32198,6.93294 -1.60991,2.00332 c -1.69055,2.10367 -3.12224,2.6118 -7.39128,2.62329 l -2.06555,0.006 z"
         id="path1125"
         inkscape:connector-curvature="0"
         transform="scale(0.26458333)" />
      <path
         style="opacity:1;fill:#ffffff;fill-opacity:1;fill-rule:nonzero;stroke:#000000;stroke-width:1.51181104;stroke-linejoin:round;stroke-miterlimit:4;stroke-dasharray:none;stroke-dashoffset:0;stroke-opacity:1"
         d="m 218.05733,554.50703 c -1.47612,-2.75815 0.63495,-42.54694 2.12981,-40.14207 0.21014,0.33807 1.29316,7.27025 2.4067,15.40483 1.56903,11.46203 2.36021,15.73372 3.51602,18.98342 0.82028,2.3063 1.49141,4.49801 1.49141,4.87046 0,0.92654 -0.8684,1.18959 -5.23302,1.5851 -3.45934,0.31347 -3.79701,0.25851 -4.31092,-0.70174 z"
         id="path1127"
         inkscape:connector-curvature="0"
         transform="scale(0.26458333)" />
      <path
         style="opacity:1;fill:#ffffff;fill-opacity:1;fill-rule:nonzero;stroke:#000000;stroke-width:1.51181104;stroke-linejoin:round;stroke-miterlimit:4;stroke-dasharray:none;stroke-dashoffset:0;stroke-opacity:1"
         d="m 189.34123,548.72681 c -2.69422,-1.49106 -5.17652,-3.67202 -5.17652,-4.54813 0,-0.82293 3.76412,-5.98985 4.77627,-6.55628 1.07507,-0.60164 3.95086,3.12046 5.78274,7.48453 0.87598,2.08685 1.45892,4.01073 1.29541,4.27528 -0.55921,0.90482 -4.56997,0.51118 -6.6779,-0.6554 z"
         id="path1129"
         inkscape:connector-curvature="0"
         transform="scale(0.26458333)" />
      <path
         style="opacity:1;fill:#ffffff;fill-opacity:1;fill-rule:nonzero;stroke:#000000;stroke-width:1.51181104;stroke-linejoin:round;stroke-miterlimit:4;stroke-dasharray:none;stroke-dashoffset:0;stroke-opacity:1"
         d="m 163.96166,546.94189 c -2.76221,-0.33062 -3.53682,-1.12419 -3.51762,-3.60373 0.0304,-3.92293 1.26786,-10.78295 2.60911,-14.46362 0.70298,-1.92913 1.91093,-5.49671 2.68432,-7.92796 1.59713,-5.02077 2.51002,-6.26478 2.98206,-4.06371 0.80218,3.74042 1.27328,9.64017 1.28745,16.12307 0.011,5.03792 0.23977,7.76921 0.7786,9.29643 0.41966,1.18943 0.70376,2.20074 0.63135,2.24737 -0.0724,0.0466 -0.81352,0.54895 -1.64689,1.11626 -1.58084,1.07615 -3.66051,1.53298 -5.80838,1.27589 z"
         id="path1131"
         inkscape:connector-curvature="0"
         transform="scale(0.26458333)" />
      <path
         style="opacity:1;fill:#ffffff;fill-opacity:1;fill-rule:nonzero;stroke:#000000;stroke-width:1.51181104;stroke-linejoin:round;stroke-miterlimit:4;stroke-dasharray:none;stroke-dashoffset:0;stroke-opacity:1"
         d="m 129.54342,545.98979 c -1.17851,-0.31317 -1.94725,-3.88105 -1.94725,-9.03757 0,-4.24948 1.76967,-17.01174 3.35735,-24.2121 0.80115,-3.63333 4.10466,-10.43616 7.81413,-16.09141 1.67678,-2.55633 1.98482,-2.83515 1.75246,-1.58626 -0.15505,0.83338 -0.5153,3.21987 -0.80055,5.30331 -0.28525,2.08344 -0.86367,5.03813 -1.28538,6.56599 -1.35952,4.92556 -1.44163,10.64686 -0.28269,19.69797 1.34913,10.5365 1.45783,15.73477 0.36392,17.40429 -1.18225,1.80434 -5.77462,2.80541 -8.97199,1.95578 z"
         id="path1133"
         inkscape:connector-curvature="0"
         transform="scale(0.26458333)" />
      <path
         style="opacity:1;fill:#ffffff;fill-opacity:1;fill-rule:nonzero;stroke:#000000;stroke-width:1.51181104;stroke-linejoin:round;stroke-miterlimit:4;stroke-dasharray:none;stroke-dashoffset:0;stroke-opacity:1"
         d="m 74.678915,557.3531 c -1.09498,-1.09498 -0.752703,-7.79426 0.617374,-12.08366 0.673921,-2.1099 1.599004,-5.86009 2.055741,-8.33376 0.456736,-2.47367 1.095687,-4.77389 1.419891,-5.11159 0.44984,-0.46858 0.559775,1.9511 0.464129,10.21549 -0.116387,10.05655 -0.206843,11.00118 -1.26734,13.23489 -1.183053,2.49185 -2.220849,3.14758 -3.289795,2.07863 z"
         id="path1135"
         inkscape:connector-curvature="0"
         transform="scale(0.26458333)" />
      <path
         style="opacity:1;fill:#ffffff;fill-opacity:1;fill-rule:nonzero;stroke:#000000;stroke-width:1.51181104;stroke-linejoin:round;stroke-miterlimit:4;stroke-dasharray:none;stroke-dashoffset:0;stroke-opacity:1"
         d="m 89.886228,549.07469 c -0.754865,-1.96715 0.573858,-7.81603 3.043198,-13.39582 l 1.210686,-2.73569 -0.262606,8.08122 c -0.165172,5.08291 -0.470661,8.21889 -0.823372,8.45229 -0.984059,0.65117 -2.854864,0.41377 -3.167906,-0.402 z"
         id="path1137"
         inkscape:connector-curvature="0"
         transform="scale(0.26458333)" />
      <path
         style="opacity:1;fill:#ffffff;fill-opacity:1;fill-rule:nonzero;stroke:#000000;stroke-width:4.96326923;stroke-linejoin:round;stroke-miterlimit:4;stroke-dasharray:none;stroke-dashoffset:0;stroke-opacity:1"
         d="m 323.74473,341.53316 c -6.84941,-1.50162 -12.86819,-4.89224 -19.8882,-11.20383 -4.71798,-4.24187 -5.22664,-5.11094 -5.20932,-8.90042 0.0276,-6.03234 4.59484,-12.91534 10.45132,-15.75041 5.86049,-2.83702 20.24337,-3.92665 27.82451,-2.10796 4.49624,1.07863 5.89205,2.03657 9.40203,6.4526 5.09994,6.41642 8.87149,14.68807 8.87149,19.45666 0,4.94852 -4.38055,8.86766 -12.828,11.47682 -7.38457,2.28086 -10.42105,2.37486 -18.62383,0.57654 z"
         id="path1139"
         inkscape:connector-curvature="0"
         transform="scale(0.26458333)" />
      <path
         style="opacity:1;fill:#ffffff;fill-opacity:1;fill-rule:nonzero;stroke:#000000;stroke-width:0.04963269;stroke-linejoin:round;stroke-miterlimit:4;stroke-dasharray:none;stroke-dashoffset:0;stroke-opacity:1"
         d="m 87.892286,321.50763 c -1.176578,-0.68629 -3.31831,-2.08413 -4.759406,-3.10631 -1.441096,-1.02218 -5.92628,-2.70892 -9.967076,-3.74831 -8.014446,-2.06151 -9.903329,-3.70292 -9.903329,-8.60583 0,-2.62099 0.560308,-3.452 3.012315,-4.46766 3.652205,-1.51279 5.813069,-0.82175 7.002708,2.23945 0.976338,2.51232 4.767497,6.23542 10.024463,9.84449 2.831706,1.94406 4.235731,2.22582 8.763006,1.75856 2.965069,-0.30602 7.435459,-1.46075 9.934203,-2.56606 l 4.54316,-2.00966 -0.55828,3.69661 c -0.30706,2.03314 -0.90997,4.08477 -1.33981,4.55919 -0.6114,0.67481 -11.720434,3.5354 -14.107646,3.63273 -0.277792,0.0113 -1.467731,-0.54091 -2.644308,-1.2272 z"
         id="path1141"
         inkscape:connector-curvature="0"
         transform="scale(0.26458333)" />
      <path
         style="opacity:1;fill:#ffffff;fill-opacity:1;fill-rule:nonzero;stroke:#000000;stroke-width:1.75478065;stroke-linejoin:round;stroke-miterlimit:4;stroke-dasharray:none;stroke-dashoffset:0;stroke-opacity:1"
         d="m 325.0899,564.58179 c 0.11369,-15.24174 -0.16301,-18.72238 -2.63467,-33.14231 -1.00755,-5.87812 -1.77553,-8.97597 -3.89571,-15.71429 -4.33762,-13.78572 -4.27765,-13.55394 -3.66526,-14.16633 0.46972,-0.46972 0.96157,0.0173 4.27057,4.22845 l 3.73971,4.75931 2.96267,9.64286 2.96266,9.64285 0.7332,8.75 c 0.71917,8.58255 0.72128,8.92771 0.1104,18.03572 -0.6921,10.31903 -0.92487,12.16892 -2.23341,17.74927 -0.80662,3.4399 -0.98845,3.85789 -1.67828,3.85805 l -0.77365,1.8e-4 z"
         id="path1143"
         inkscape:connector-curvature="0"
         transform="scale(0.26458333)" />
      <path
         style="opacity:1;fill:#ffffff;fill-opacity:1;fill-rule:nonzero;stroke:#000000;stroke-width:1.75478065;stroke-linejoin:round;stroke-miterlimit:4;stroke-dasharray:none;stroke-dashoffset:0;stroke-opacity:1"
         d="m 233.9167,589.98119 c -1.00285,-0.15424 1.53804,-0.21251 5.79575,-0.13291 12.77262,0.23877 18.95493,-0.95033 26.19471,-5.03829 1.48761,-0.83998 4.02188,-2.03517 5.6317,-2.65599 l 2.92695,-1.12875 2.13616,-3.61305 c 1.17489,-1.98718 2.13616,-3.81107 2.13616,-4.05309 0,-0.48356 0.96269,-1.56249 1.39416,-1.56249 0.14944,0 0.44768,0.57334 0.66275,1.2741 0.66742,2.17467 -0.27034,3.92171 -4.18408,7.79486 -3.00877,2.97756 -3.93214,3.64479 -7.87283,5.68891 l -4.46428,2.31572 -6.42858,0.75326 c -6.64504,0.77862 -19.90317,0.97682 -23.92857,0.35772 z"
         id="path1145"
         inkscape:connector-curvature="0"
         transform="scale(0.26458333)" />
      <path
         style="opacity:1;fill:#ffffff;fill-opacity:1;fill-rule:nonzero;stroke:#000000;stroke-width:1.75478065;stroke-linejoin:round;stroke-miterlimit:4;stroke-dasharray:none;stroke-dashoffset:0;stroke-opacity:1"
         d="m 283.54803,550.47274 c -0.15309,-0.35222 -0.39594,-4.25648 -0.53967,-8.67612 -0.29781,-9.15746 -0.97642,-14.38642 -3.33719,-25.71429 -0.88013,-4.22321 -1.94033,-9.84821 -2.356,-12.5 -1.65361,-10.54936 -2.8671,-15.74804 -5.16864,-22.14285 -1.23718,-3.4375 -2.52303,-7.21429 -2.85743,-8.39286 -0.97444,-3.4343 -3.03937,-7.701 -4.7532,-9.82143 -0.8732,-1.08036 -2.64158,-2.64732 -3.92974,-3.48214 l -2.3421,-1.51786 h -5.76466 -5.76466 l -2.39116,-1.51699 -2.39116,-1.517 -0.005,-3.03658 c -0.003,-1.67011 -0.0959,-3.37583 -0.20724,-3.79047 -0.18943,-0.70575 -0.0922,-0.74358 1.52274,-0.59234 1.51313,0.14171 2.26611,-0.0838 6.12827,-1.83539 2.42175,-1.09832 4.88524,-1.99694 5.47443,-1.99694 1.94144,0 9.01752,7.06551 10.2334,10.21811 0.29464,0.76396 1.70693,4.13312 3.13841,7.487 1.737,4.06971 3.01774,7.75221 3.85053,11.07143 2.56796,10.23493 5.61158,24.53741 7.00306,32.90848 0.79075,4.75712 1.66911,9.74925 1.95191,11.09362 1.22452,5.82119 3.62374,33.5546 2.96021,34.21814 -0.0973,0.0973 -0.30214,-0.1113 -0.45523,-0.46352 z"
         id="path1147"
         inkscape:connector-curvature="0"
         transform="scale(0.26458333)" />
      <path
         style="opacity:1;fill:#ffffff;fill-opacity:1;fill-rule:nonzero;stroke:#000000;stroke-width:1.75478065;stroke-linejoin:round;stroke-miterlimit:4;stroke-dasharray:none;stroke-dashoffset:0;stroke-opacity:1"
         d="m 220.8453,449.07297 c -0.901,-1.0894 -12.85777,-6.73147 -16.12768,-7.61021 -2.78702,-0.74898 -3.32251,-0.79112 -5.24539,-0.41282 -1.17782,0.23172 -3.27126,0.88719 -4.65208,1.4566 l -2.51059,1.03528 v -1.73633 c 0,-1.57729 0.10632,-1.80043 1.16071,-2.43613 1.75458,-1.05786 4.73035,-1.64149 8.30358,-1.62858 3.54567,0.0128 6.57872,0.69289 9.99148,2.24031 1.19662,0.54257 3.37556,1.27619 4.84209,1.63027 2.02196,0.48818 5.84019,1.98391 6.28068,2.46037 0.0236,0.0255 -0.14047,1.23939 -0.3645,2.69758 -0.42434,2.76208 -0.83404,3.32444 -1.6783,2.30366 z"
         id="path1149"
         inkscape:connector-curvature="0"
         transform="scale(0.26458333)" />
      <path
         style="opacity:1;fill:#ffffff;fill-opacity:1;fill-rule:nonzero;stroke:#000000;stroke-width:1.75478065;stroke-linejoin:round;stroke-miterlimit:4;stroke-dasharray:none;stroke-dashoffset:0;stroke-opacity:1"
         d="m 197.6667,581.09237 c -8.25729,-2.72688 -15.16107,-5.8579 -19.64285,-8.90846 -4.45948,-3.03539 -15.48824,-9.30087 -18.38306,-10.44348 -1.38039,-0.54486 -2.14971,-0.99618 -1.70959,-1.00295 2.21507,-0.034 14.73644,5.4982 19.59076,8.65565 4.1204,2.68008 17.98745,9.71903 24.07789,12.222 6.89389,2.83316 5.78106,2.68525 -3.93315,-0.52276 z"
         id="path1151"
         inkscape:connector-curvature="0"
         transform="scale(0.26458333)" />
      <path
         style="opacity:1;fill:#ffffff;fill-opacity:1;fill-rule:nonzero;stroke:#000000;stroke-width:0.0038179;stroke-linejoin:round;stroke-miterlimit:4;stroke-dasharray:none;stroke-dashoffset:0;stroke-opacity:1"
         d="m 108.39973,308.93263 c -0.19926,-0.24009 0.0312,-0.84443 0.88925,-2.33215 0.63702,-1.10445 1.82224,-3.6559 2.63383,-5.66989 1.43668,-3.56519 1.52076,-3.70335 3.18674,-5.23642 1.02574,-0.94391 2.15427,-1.72622 2.81747,-1.9531 1.03416,-0.3538 1.28789,-0.33751 3.88954,0.24978 2.29311,0.51764 2.97209,0.78305 3.8559,1.50726 l 1.07269,0.87899 -0.41655,1.56167 c -0.36974,1.38618 -0.57726,1.69551 -1.84673,2.75267 -1.77085,1.4747 -6.52724,3.86281 -11.19282,5.61974 -2.97338,1.1197 -3.61767,1.4576 -4.07599,2.13772 -0.42387,0.62897 -0.60392,0.73606 -0.81333,0.48373 z"
         id="path1153"
         inkscape:connector-curvature="0"
         transform="scale(0.26458333)" />
    </g>
  </g>
</svg>
