<?xml version="1.0" encoding="UTF-8" standalone="no"?>
<!-- Created with Inkscape (http://www.inkscape.org/) -->

<svg
   xmlns:dc="http://purl.org/dc/elements/1.1/"
   xmlns:cc="http://creativecommons.org/ns#"
   xmlns:rdf="http://www.w3.org/1999/02/22-rdf-syntax-ns#"
   xmlns:svg="http://www.w3.org/2000/svg"
   xmlns="http://www.w3.org/2000/svg"
   xmlns:sodipodi="http://sodipodi.sourceforge.net/DTD/sodipodi-0.dtd"
   xmlns:inkscape="http://www.inkscape.org/namespaces/inkscape"
   width="210mm"
   height="297mm"
   viewBox="0 0 210 297"
   version="1.1"
   id="svg8"
   inkscape:version="0.92.1 r15371"
   sodipodi:docname="dolores.svg">
  <defs
     id="defs2" />
  <sodipodi:namedview
     id="base"
     pagecolor="#ffffff"
     bordercolor="#666666"
     borderopacity="1.0"
     inkscape:pageopacity="0.0"
     inkscape:pageshadow="2"
     inkscape:zoom="0.24748737"
     inkscape:cx="1047.2691"
     inkscape:cy="434.03763"
     inkscape:document-units="mm"
     inkscape:current-layer="layer1"
     showgrid="false"
     inkscape:window-width="1536"
     inkscape:window-height="801"
     inkscape:window-x="-8"
     inkscape:window-y="-8"
     inkscape:window-maximized="1" />
  <metadata
     id="metadata5">
    <rdf:RDF>
      <cc:Work
         rdf:about="">
        <dc:format>image/svg+xml</dc:format>
        <dc:type
           rdf:resource="http://purl.org/dc/dcmitype/StillImage" />
        <dc:title></dc:title>
      </cc:Work>
    </rdf:RDF>
  </metadata>
  <g
     inkscape:label="Layer 1"
     inkscape:groupmode="layer"
     id="layer1">
    <g
       id="g1033"
       style="stroke-width:7;stroke-miterlimit:4;stroke-dasharray:none"
       transform="matrix(0.44826998,0,0,0.44826998,263.06489,42.68076)">
      <path
         inkscape:connector-curvature="0"
         id="path21"
         d="m -447.67646,74.364484 -61.60562,87.397136 29.39965,-2.33861 0.26726,7.21628 h 1.87089 l 11.42577,-1.06908 33.94323,5.54584 2.07134,54.12208 -2.67269,-1.60362 -4.27632,-1.33634 -3.34087,-0.26727 -3.34086,1.46998 -2.13816,1.20271 -2.6727,2.80633 -1.46998,2.93997 -0.93544,3.20723 -0.66818,3.87541 v 2.67269 l 0.13364,2.00453 -5.87993,0.80181 -6.68174,1.73725 -0.66817,1.60361 0.53454,2.00453 1.20271,0.4009 1.33635,-0.66818 4.40994,-0.4009 4.81086,-1.46998 1.33634,-0.53454 0.66818,5.47903 1.20271,4.40994 3.0736,5.7463 0.93544,1.46998 6.28084,7.08264 3.20723,1.33635 4.14268,0.80181 4.14268,-1.33635 3.4745,-2.53906 1.73725,-2.53906 2.13816,-2.80633 1.60362,-7.61718 -0.13364,-6.1472 -1.87089,-8.01809 -2.13815,-4.27631 -3.47451,-6.81537 -3.60813,-3.60814 -1.33635,-1.60362"
         style="fill:none;stroke:#000000;stroke-width:7;stroke-linecap:butt;stroke-linejoin:miter;stroke-miterlimit:4;stroke-dasharray:none;stroke-opacity:1" />
      <path
         inkscape:connector-curvature="0"
         id="path23"
         d="m -445.40467,262.7895 -1.97111,0.50113 -5.17835,2.60588 -7.11605,3.842 -7.40029,4.87553 -6.04762,7.74852 -2.45684,9.07143 3.59077,10.58333 10.20536,10.96131 10.96131,5.10268 11.52827,3.40178 19.27679,5.85863 31.18303,5.10268 34.39584,1.70089 29.10416,-1.13392 21.16667,-3.40179 29.67113,-5.66964 22.1116,-9.44941 13.41816,-10.01637 3.77976,-7.37053 2.07887,-7.74851 -4.53572,-10.77233 -4.7247,-4.91369 -9.26041,-6.04761 -13.79614,-6.61459 -14.55208,-4.34672 -11.1503,-2.64584 -4.34672,-0.75595 1.22842,-37.98661 6.89807,-2.36235 0.47247,-1.88988 -0.66146,-0.66146 -0.66146,-0.37797 -6.3311,1.32291 1.22842,-34.01785 93.37831,-15.79083 -0.13364,-2.6727 -83.78899,-77.775429 -163.83622,-6.681737 93.33739,112.464596 61.04315,-9.47303"
         style="fill:none;stroke:#000000;stroke-width:7;stroke-linecap:butt;stroke-linejoin:miter;stroke-miterlimit:4;stroke-dasharray:none;stroke-opacity:1" />
      <path
         inkscape:connector-curvature="0"
         id="path25"
         d="m -309.76539,179.93594 -0.53453,35.17936"
         style="fill:none;stroke:#000000;stroke-width:7;stroke-linecap:butt;stroke-linejoin:miter;stroke-miterlimit:4;stroke-dasharray:none;stroke-opacity:1" />
      <path
         inkscape:connector-curvature="0"
         id="path27"
         d="m -294.52434,211.30303 -39.59301,9.5439 -1.32291,-1.03943 -2.92932,-0.66146 -13.04018,2.64583 -13.32365,4.25223 -3.68527,1.22843 -0.5469,1.70738 v 0.33408 l -40.75861,9.75534 -10.95805,1.9377"
         style="fill:none;stroke:#000000;stroke-width:7;stroke-linecap:butt;stroke-linejoin:miter;stroke-miterlimit:4;stroke-dasharray:none;stroke-opacity:1" />
      <path
         inkscape:connector-curvature="0"
         id="path29"
         d="m -419.54634,245.61743 9.88897,-1.87088 0.66818,-1.00227 40.89223,-10.15624 1.26953,1.20272 2.20498,0.26727 14.29892,-2.47225 6.41446,-1.67043 6.94901,-2.27179 2.20498,-1.26953 1.46998,-1.40317 v -0.86863 l 39.04424,-8.83045"
         style="fill:none;stroke:#000000;stroke-width:7;stroke-linecap:butt;stroke-linejoin:miter;stroke-miterlimit:4;stroke-dasharray:none;stroke-opacity:1" />
      <path
         inkscape:connector-curvature="0"
         id="path31"
         d="m -310.50038,219.02411 -0.60135,32.20598 -1.46999,60.737 5.27858,-0.53454 2.47224,-0.66817 2.60588,-0.86863 3.00678,-0.80181 1.87089,-1.00226 1.86807,-54.83329"
         style="fill:none;stroke:#000000;stroke-width:7;stroke-linecap:butt;stroke-linejoin:miter;stroke-miterlimit:4;stroke-dasharray:none;stroke-opacity:1" />
      <path
         inkscape:connector-curvature="0"
         id="path33"
         d="m -432.37528,171.11605 -2.80633,-77.641796"
         style="fill:none;stroke:#000000;stroke-width:7;stroke-linecap:butt;stroke-linejoin:miter;stroke-miterlimit:4;stroke-dasharray:none;stroke-opacity:1" />
      <path
         inkscape:connector-curvature="0"
         id="path35"
         d="m -447.94373,78.239891 93.60466,108.589189"
         style="fill:none;stroke:#000000;stroke-width:7;stroke-linecap:butt;stroke-linejoin:miter;stroke-miterlimit:4;stroke-dasharray:none;stroke-opacity:1" />
      <path
         inkscape:connector-curvature="0"
         id="path37"
         d="m -412.83119,118.96508 3.0736,120.00402"
         style="fill:none;stroke:#000000;stroke-width:7;stroke-linecap:butt;stroke-linejoin:miter;stroke-miterlimit:4;stroke-dasharray:none;stroke-opacity:1" />
      <path
         inkscape:connector-curvature="0"
         id="path39"
         d="m -409.65737,243.74655 1.5368,65.68148"
         style="fill:none;stroke:#000000;stroke-width:7;stroke-linecap:butt;stroke-linejoin:miter;stroke-miterlimit:4;stroke-dasharray:none;stroke-opacity:1" />
      <path
         inkscape:connector-curvature="0"
         id="path41"
         d="m -426.96307,302.51243 -1.43657,-31.55451"
         style="fill:none;stroke:#000000;stroke-width:7;stroke-linecap:butt;stroke-linejoin:miter;stroke-miterlimit:4;stroke-dasharray:none;stroke-opacity:1" />
      <path
         inkscape:connector-curvature="0"
         id="path43"
         d="m -475.57493,291.43399 0.90425,14.65317 1.46998,2.6727 8.15172,9.75534 3.87541,3.20723 6.01357,3.74177 6.68173,3.47451 7.21628,2.80633 17.37252,4.81085 9.75534,2.00452 8.95353,1.87089 13.76438,1.33634 19.91158,2.2718 14.29892,0.4009 13.0962,0.4009 13.09621,-0.13363 17.50615,-2.80633 9.08716,-1.60362 25.52424,-5.47902 14.03165,-5.21176 11.49259,-5.21175 9.62171,-7.34992 5.07812,-4.81085 3.0736,-6.41447 2.53906,-6.81537 -0.0442,-9.6494"
         style="fill:none;stroke:#000000;stroke-width:7;stroke-linecap:butt;stroke-linejoin:miter;stroke-miterlimit:4;stroke-dasharray:none;stroke-opacity:1" />
      <path
         inkscape:connector-curvature="0"
         id="path45"
         d="m -457.11441,324.26149 2.62258,58.26476 0.4009,2.00451 2.27179,4.27633 2.80633,3.8754 3.34087,4.81084 7.34992,5.7463 6.01356,4.00905 8.15172,4.54358 5.47903,2.27179 4.27631,1.60362 9.35443,3.07361 5.47903,1.60361 4.67721,1.33633 5.87993,1.60362 16.83798,1.60364 3.60814,0.66815 h 5.61266 6.28083 l 4.94449,-0.13362 8.28536,-0.13364 10.15624,-1.06907 7.48355,-1.06908 7.48354,-1.20272 8.41899,-1.33635 7.08264,-2.40544 6.1472,-1.87086 5.87993,-1.73726 11.89349,-6.1472 5.07813,-3.34086 2.93996,-2.40544 4.00904,-2.93997 3.60814,-3.60812 3.74177,-4.27633 3.07361,-3.74176 1.20271,-4.54358 2.00452,-9.08717 2.50565,-52.18437"
         style="fill:none;stroke:#000000;stroke-width:7;stroke-linecap:butt;stroke-linejoin:miter;stroke-miterlimit:4;stroke-dasharray:none;stroke-opacity:1" />
      <path
         inkscape:connector-curvature="0"
         id="path47"
         d="m -297.33735,308.09168 3.50791,-0.73499 3.54132,-1.36975 4.6104,-1.33635 4.40995,-2.43884 2.27179,-1.33634 2.80633,-2.17157 3.27405,-2.07134 2.87315,-2.7061 1.63702,-2.03793 0.66818,-1.73725 0.43431,-1.73725 0.23386,-1.5034 v -1.20271 l -0.60136,-3.37428 -0.56794,-1.1693 -0.66818,-1.43658 -1.5368,-2.83973 -1.5368,-1.93771 -2.23838,-1.70384 -1.9043,-1.20271 -1.9377,-1.20272 -1.43657,-0.80181 -1.73725,-1.03566 -1.9043,-0.93545 -2.3052,-1.30294 -2.27179,-0.93544 -2.3052,-0.80181 -3.00678,-1.06908 -1.16931,-0.23386 -1.57021,-0.13363"
         style="fill:none;stroke:#000000;stroke-width:7;stroke-linecap:butt;stroke-linejoin:miter;stroke-miterlimit:4;stroke-dasharray:none;stroke-opacity:1" />
      <path
         inkscape:connector-curvature="0"
         id="path49"
         d="m -295.90078,271.30872 3.30746,1.1693 2.40543,1.06908 2.20497,1.33635 2.43884,1.10248 3.107,1.97111 1.63703,1.30294 1.97111,1.33635 2.13816,1.60362 1.26953,1.36975 2.37202,2.57247 1.83747,1.9043 1.26953,1.83748 0.3675,1.23612 0.20045,1.1693 v 0.73499"
         style="fill:none;stroke:#000000;stroke-width:7;stroke-linecap:butt;stroke-linejoin:miter;stroke-miterlimit:4;stroke-dasharray:none;stroke-opacity:1" />
      <path
         inkscape:connector-curvature="0"
         id="path51"
         d="m -311.48602,267.57424 -2.4096,-0.56697 -2.17336,-0.47247 -3.02381,-0.61421 -4.06325,-0.56696 -3.02381,-0.37798 -3.73251,-0.61421 -2.92932,-0.47247 -3.35453,-0.14174 -3.35454,-0.0472 -2.45685,-0.0472 -1.65364,-0.0472"
         style="fill:none;stroke:#000000;stroke-width:7;stroke-linecap:butt;stroke-linejoin:miter;stroke-miterlimit:4;stroke-dasharray:none;stroke-opacity:1" />
      <path
         inkscape:connector-curvature="0"
         id="path53"
         d="m -345.17315,263.57005 -3.51336,-0.14578 -5.51243,-0.3675 -5.01131,-0.33409 h -4.81085 l -4.00904,0.0668 -4.40995,0.46772 -5.41221,0.93545 -4.74403,0.66817 -5.41221,0.73499 -4.00904,0.80181 -3.67496,1.00226 -4.20949,1.26953 -4.2095,1.20271 -2.80633,0.93544 -2.13815,0.735"
         style="fill:none;stroke:#000000;stroke-width:7;stroke-linecap:butt;stroke-linejoin:miter;stroke-miterlimit:4;stroke-dasharray:none;stroke-opacity:1" />
      <path
         inkscape:connector-curvature="0"
         id="path55"
         d="m -428.37516,279.66948 -0.18898,-0.0472 -2.36236,1.46466 -2.22061,1.22842 -1.88988,1.98437 -1.60639,1.65365 -1.32292,2.22061 -0.75595,1.65365 -0.8977,1.55915 -0.37797,0.8032"
         style="fill:none;stroke:#000000;stroke-width:7;stroke-linecap:butt;stroke-linejoin:miter;stroke-miterlimit:4;stroke-dasharray:none;stroke-opacity:1" />
      <path
         inkscape:connector-curvature="0"
         id="path57"
         d="m -431.77392,272.0103 -2.03464,0.9501 -1.41741,0.85045 -1.7009,1.08668 -1.84263,1.46465 -1.32292,1.22843 -0.94494,1.6064 -0.75595,1.41741 -0.66146,2.12611 0.14174,4.8192 0.28348,2.59859 0.8977,2.26785 1.79538,1.41741 0.42523,0.28349 2.4096,2.69308 4.01599,3.63802 1.55915,0.66145 3.96343,1.39281 4.21031,2.67044 2.64583,1.08668 2.07887,1.03944 3.2128,1.13392 3.68527,0.70871 3.00942,0.27641 11.62623,3.20723 10.42351,1.87089 5.47902,0.26727 11.22532,0.80181 6.41447,0.66817 h 5.34539 l 8.01809,0.26727 5.47902,-0.53454 4.40995,-0.26726 6.94901,-0.53454 5.07812,-0.53454 4.14267,-0.66818 4.54359,-0.93544 6.41446,-1.06908 v 0"
         style="fill:none;stroke:#000000;stroke-width:7;stroke-linecap:butt;stroke-linejoin:miter;stroke-miterlimit:4;stroke-dasharray:none;stroke-opacity:1" />
      <path
         inkscape:connector-curvature="0"
         id="path59"
         d="m -344.79517,230.30815 -0.36672,85.7181"
         style="fill:none;stroke:#000000;stroke-width:7;stroke-linecap:butt;stroke-linejoin:miter;stroke-miterlimit:4;stroke-dasharray:none;stroke-opacity:1" />
      <path
         inkscape:connector-curvature="0"
         id="path61"
         d="m -343.52486,316.00954 0.11693,-86.20277"
         style="fill:none;stroke:#000000;stroke-width:7;stroke-linecap:butt;stroke-linejoin:miter;stroke-miterlimit:4;stroke-dasharray:none;stroke-opacity:1" />
      <path
         inkscape:connector-curvature="0"
         id="path63"
         d="m -311.30218,251.23009 -2.53907,-0.50113 -2.50565,-0.73499 -3.17382,-0.33409 -2.17157,-0.30067 -1.80407,-0.26727 -3.8754,-0.23387 -4.67722,-0.43431 -4.6104,-0.16704 -3.34087,-0.16705 -2.50565,0.0334 -0.96885,-0.0334"
         style="fill:none;stroke:#000000;stroke-width:7;stroke-linecap:butt;stroke-linejoin:miter;stroke-miterlimit:4;stroke-dasharray:none;stroke-opacity:1" />
      <path
         inkscape:connector-curvature="0"
         id="path65"
         d="m -345.04496,248.1899 -3.50791,-0.20045 -3.4411,-0.0668 -3.27405,-0.0334 -3.10701,-0.0334 -6.11379,0.33409 -2.17156,0.30068 -4.87767,0.20045 -5.27858,0.30068 -3.00678,0.10023 -3.64154,0.0334 -3.14042,0.50112 -2.27179,0.33409 -4.9779,0.70158 -4.57699,0.53454 -5.64607,0.66818 -3.67495,0.83522 -1.67044,0.33408"
         style="fill:none;stroke:#000000;stroke-width:7;stroke-linecap:butt;stroke-linejoin:miter;stroke-miterlimit:4;stroke-dasharray:none;stroke-opacity:1" />
      <path
         inkscape:connector-curvature="0"
         id="path67"
         d="m -356.27028,184.88043 -3.74178,0.73499 -4.54358,-0.33408 -0.20045,-3.94223 -46.63853,-7.14946"
         style="fill:none;stroke:#000000;stroke-width:7;stroke-linecap:butt;stroke-linejoin:miter;stroke-miterlimit:4;stroke-dasharray:none;stroke-opacity:1" />
      <path
         inkscape:connector-curvature="0"
         id="path69"
         d="m -479.88243,159.42301 -0.7143,-12.57405 2.07889,0.0945 11.24479,-0.66146 34.01785,3.30729"
         style="fill:none;stroke:#000000;stroke-width:7;stroke-linecap:butt;stroke-linejoin:miter;stroke-miterlimit:4;stroke-dasharray:none;stroke-opacity:1" />
      <path
         inkscape:connector-curvature="0"
         id="path71"
         d="m -466.31851,165.57021 -0.95454,-19.28821 33.82885,-2.36236"
         style="fill:none;stroke:#000000;stroke-width:7;stroke-linecap:butt;stroke-linejoin:miter;stroke-miterlimit:4;stroke-dasharray:none;stroke-opacity:1" />
      <path
         inkscape:connector-curvature="0"
         id="path73"
         d="m -412.27753,142.40774 17.95389,-1.51191"
         style="fill:none;stroke:#000000;stroke-width:7;stroke-linecap:butt;stroke-linejoin:miter;stroke-miterlimit:4;stroke-dasharray:none;stroke-opacity:1" />
      <path
         inkscape:connector-curvature="0"
         id="path75"
         d="m -382.60639,154.78646 -29.19867,-3.11831"
         style="fill:none;stroke:#000000;stroke-width:7;stroke-linecap:butt;stroke-linejoin:miter;stroke-miterlimit:4;stroke-dasharray:none;stroke-opacity:1" />
      <path
         inkscape:connector-curvature="0"
         id="path77"
         d="m -364.75609,181.33911 v 0 l -0.0854,-6.51992"
         style="fill:none;stroke:#000000;stroke-width:7;stroke-linecap:butt;stroke-linejoin:miter;stroke-miterlimit:4;stroke-dasharray:none;stroke-opacity:1" />
      <path
         inkscape:connector-curvature="0"
         id="path79"
         d="m -360.01205,185.61542 v 0 l -0.29375,-5.55181"
         style="fill:none;stroke:#000000;stroke-width:7;stroke-linecap:butt;stroke-linejoin:miter;stroke-miterlimit:4;stroke-dasharray:none;stroke-opacity:1" />
      <path
         inkscape:connector-curvature="0"
         id="path97"
         d="m -311.54687,259.76934 -6.61458,-1.22842 -5.24442,-1.27567 -6.33111,-0.75595 -7.51228,-0.85045 -5.90587,0.18899 -0.23622,-0.0472"
         style="fill:none;stroke:#000000;stroke-width:7;stroke-linecap:butt;stroke-linejoin:miter;stroke-miterlimit:4;stroke-dasharray:none;stroke-opacity:1" />
      <path
         inkscape:connector-curvature="0"
         id="path99"
         d="m -344.99777,255.98958 -7.32327,-0.18899 -5.6224,-0.47247 -8.64621,0.61421 -6.33111,0.14174 -8.17372,0.70871 -6.99256,0.94494 -4.91369,0.61421 -7.89027,1.65365 -5.33889,1.03943 -2.36236,0.56696 -0.66146,0.18899"
         style="fill:none;stroke:#000000;stroke-width:7;stroke-linecap:butt;stroke-linejoin:miter;stroke-miterlimit:4;stroke-dasharray:none;stroke-opacity:1" />
      <path
         transform="scale(0.26458333)"
         inkscape:connector-curvature="0"
         id="path101"
         d="m -1397.7124,1606.3335 c -0.5282,-0.5282 -16.3623,-2.4069 -35.187,-4.1749 -35.4326,-3.3279 -59.9506,-8.859 -108.9779,-24.5849 -54.9832,-17.6363 -82.8362,-31.8466 -125.4513,-64.0043 -13.5436,-10.2201 -18.8414,-16.0281 -30.8201,-33.7883 -7.9559,-11.7957 -15.3263,-24.0691 -16.3787,-27.2741 -1.0524,-3.2051 -3.765,-49.466 -6.028,-102.802 -2.2631,-53.3361 -4.5986,-102.5982 -5.1901,-109.4714 l -1.0755,-12.4967 14.6901,8.0992 c 43.9838,24.2499 138.5474,47.7409 230.8628,57.3499 27.7792,2.8915 56.417,6.0865 63.6396,7.1 7.2226,1.0135 47.6792,2.4243 89.9036,3.1351 l 76.7716,1.2924 49.2256,-8.2895 c 78.5403,-13.226 146.4992,-28.6927 177.0485,-40.2943 32.48001,-12.3347 67.48232,-27.9564 72.32923,-32.2807 3.48408,-3.1085 3.58778,-2.4775 2.43843,14.8377 -0.66023,9.9463 -2.97522,54.4498 -5.14442,98.8965 -3.42909,70.2616 -4.61109,83.7103 -9.05364,103.0105 -2.95071,12.8191 -7.12872,25.1966 -9.8883,29.2945 -9.811,14.5687 -34.8725,39.2986 -55.1849,54.4545 -23.2998,17.3849 -65.7405,40.2847 -84.3898,45.5342 -6.667,1.8766 -23.0315,6.9266 -36.3655,11.2221 -29.552,9.5201 -101.1218,21.0741 -149.5025,24.1353 -33.2192,2.1019 -96.5606,2.8104 -98.2718,1.0992 z"
         style="opacity:1;fill:#d40000;fill-opacity:1;fill-rule:nonzero;stroke:none;stroke-width:26.45669365;stroke-linejoin:round;stroke-miterlimit:4;stroke-dasharray:none;stroke-dashoffset:0;stroke-opacity:1" />
      <path
         transform="scale(0.26458333)"
         inkscape:connector-curvature="0"
         id="path103"
         d="m -1408.5371,1258.3912 c -49.6288,-2.5048 -64.0146,-4.0633 -117.2638,-12.7043 -56.6,-9.1847 -64.6423,-11.0376 -119.198,-27.4627 -35.5813,-10.7125 -66.4183,-21.3122 -78.7058,-27.0538 -18.8393,-8.803 -21.5303,-10.8482 -39.8659,-30.2977 -19.1738,-20.3388 -19.8205,-21.3399 -26.0084,-40.2613 l -6.3456,-19.4039 4.5183,-16.6928 c 6.0487,-22.3469 21.1373,-41.7832 43.9167,-56.5711 17.6172,-11.4367 57.8404,-32.80215 61.7542,-32.80215 1.4027,0 7.5251,5.86755 13.6052,13.03905 10.5125,12.3994 18.7626,17.5945 31.2444,19.6749 3.1808,0.5302 2.084,1.8099 -5.2197,6.0902 -11.7907,6.9098 -22.8757,19.1627 -26.0571,28.8024 -1.681,5.0934 -2.0159,12.5169 -1.0364,22.9699 l 1.4472,15.4444 17.11,17.485 c 12.3685,12.6396 19.7263,18.4593 26.5514,21.0013 5.1929,1.934 16.8193,7.4925 25.8365,12.3522 19.4461,10.4801 34.3529,15.8689 49.379,17.8505 6.0487,0.7976 20.5436,4.0447 32.2108,7.2157 41.4448,11.2641 86.5514,16.628 164.6549,19.5802 28.3089,1.0701 89.4655,-2.2921 117.8358,-6.4781 66.9704,-9.8814 96.4292,-15.7674 112.479,-22.4737 3.3335,-1.3929 15.6069,-5.5149 27.2741,-9.1602 29.0938,-9.0898 54.0345,-23.6661 75.3421,-44.0326 11.4952,-10.9874 16.7902,-25.2955 14.4803,-39.1285 -1.6266,-9.7405 -10.6917,-28.6265 -16.8772,-35.1613 -11.4158,-12.0606 -55.232,-35.9153 -77.4909,-42.188 l -13.637,-3.84304 0.027,-13.15721 c 0.016,-7.23647 0.5649,-15.16103 1.2216,-17.61012 1.385,-5.16551 1.0198,-5.1997 37.2361,3.48706 60.7132,14.56251 106.39957,32.74498 143.34233,57.04801 25.49623,16.7729 34.50224,27.0581 44.17033,50.4443 l 8.12492,19.6533 -3.97111,14.3302 c -2.18411,7.8817 -7.04935,20.4024 -10.81164,27.8239 -6.33368,12.4937 -8.71807,14.8879 -32.17791,32.3098 -22.9782,17.0642 -29.17496,20.4692 -66.55376,36.5698 l -41.21646,17.7537 -60.404,11.4333 c -104.4324,19.767 -128.433,22.9644 -190.7138,25.4074 -30.5571,1.1986 -57.3766,2.0425 -59.599,1.8752 -2.2223,-0.1673 -29.4964,-1.5889 -60.6091,-3.1592 z"
         style="opacity:1;fill:#d40000;fill-opacity:1;fill-rule:nonzero;stroke:none;stroke-width:26.45669365;stroke-linejoin:round;stroke-miterlimit:4;stroke-dasharray:none;stroke-dashoffset:0;stroke-opacity:1" />
      <path
         transform="scale(0.26458333)"
         inkscape:connector-curvature="0"
         id="path105"
         d="m -1365.1006,1300.0638 c -23.8901,-0.8209 -63.4375,-3.779 -87.8832,-6.5735 -24.4457,-2.7945 -51.2653,-5.6831 -59.599,-6.419 -35.0915,-3.0989 -138.2962,-27.7525 -169.6616,-40.5287 -27.5927,-11.2396 -56.6275,-28.2117 -71.0688,-41.543 -11.4016,-10.5252 -37.9085,-43.7446 -38.9252,-48.7824 -0.4998,-2.4762 -1.3526,-13.1389 -1.8952,-23.695 l -0.9866,-19.1929 5.0479,14.5915 c 4.4511,12.8665 7.3424,17.046 24.4581,35.3553 27.3918,29.3021 32.4639,31.65 133.8334,61.9521 41.457,12.3926 54.7009,15.3526 104.4464,23.3432 50.1705,8.059 64.6367,9.5493 121.2183,12.4883 54.3418,2.8226 73.1277,2.9837 121.8277,1.0446 63.2919,-2.5201 87.8965,-5.8434 195.0256,-26.3422 l 52.5941,-10.0637 41.35012,-17.6176 c 37.94777,-16.168 43.48064,-19.1963 67.24351,-36.8041 24.52283,-18.171 26.27471,-19.9437 33.09734,-33.4916 3.96217,-7.8679 8.35744,-17.9528 9.76727,-22.4109 l 2.56332,-8.1058 0.19981,11.3762 c 0.35042,19.9579 -15.41937,55.3859 -31.451,70.657 -28.85935,27.4903 -58.22871,44.2254 -113.63617,64.7516 -31.6689,11.732 -102.4365,27.6252 -178.8952,40.1769 -53.5258,8.7869 -62.8043,9.128 -158.6709,5.8337 z"
         style="opacity:1;fill:#d40000;fill-opacity:1;fill-rule:nonzero;stroke:none;stroke-width:26.45669365;stroke-linejoin:round;stroke-miterlimit:4;stroke-dasharray:none;stroke-dashoffset:0;stroke-opacity:1" />
      <path
         transform="scale(0.26458333)"
         inkscape:connector-curvature="0"
         id="path107"
         d="m -1392.0255,640.07283 c -230.4799,-277.62465 -296.1357,-356.92862 -295.7536,-357.23313 0.743,-0.59199 585.3752,23.27543 600.7253,24.52442 l 14.397,1.17144 157.83402,146.50956 c 102.74553,95.3736 157.83405,147.8548 157.83405,150.3638 0,2.11985 -0.22728,3.86365 -0.50507,3.87511 -0.27779,0.0121 -78.23632,13.21433 -173.24116,29.33968 -139.21444,23.62912 -399.23574,65.59381 -406.43194,65.59381 -0.8837,0 -25.57,-28.86511 -54.8586,-64.14469 z"
         style="opacity:1;fill:#d40000;fill-opacity:1;fill-rule:nonzero;stroke:none;stroke-width:26.45669365;stroke-linejoin:round;stroke-miterlimit:4;stroke-dasharray:none;stroke-dashoffset:0;stroke-opacity:1" />
      <path
         transform="scale(0.26458333)"
         inkscape:connector-curvature="0"
         id="path109"
         d="m -1468.1361,670.43974 c -46.1135,-7.20627 -84.2112,-13.45367 -84.6617,-13.88311 -1.8029,-1.71886 -2.6795,-81.63864 -0.8954,-81.63864 1.0282,0 22.2901,2.23546 47.2488,4.96768 24.9586,2.73222 49.0352,5.23235 53.5034,5.55584 7.8107,0.56547 9.3446,1.99967 39.7696,37.18358 l 31.6455,36.59542 1.4026,12.39698 c 1.1221,9.91868 0.8455,12.34976 -1.3838,12.16077 -1.5325,-0.12991 -40.5156,-6.13224 -86.629,-13.33852 z"
         style="opacity:1;fill:#d40000;fill-opacity:1;fill-rule:nonzero;stroke:none;stroke-width:26.45669365;stroke-linejoin:round;stroke-miterlimit:4;stroke-dasharray:none;stroke-dashoffset:0;stroke-opacity:1" />
      <path
         transform="scale(0.26458333)"
         inkscape:connector-curvature="0"
         id="path111"
         d="m -1698.4509,634.88845 c -33.8906,-5.51563 -61.8254,-10.18301 -62.0773,-10.37196 -0.6978,-0.52348 -4.1597,-68.69861 -3.5258,-69.43349 0.5544,-0.64263 101.7072,8.82273 117.3262,10.97879 l 8.2866,1.14388 1.4154,38.43252 c 0.7785,21.13789 1.1407,38.62291 0.8048,38.8556 -0.3358,0.2327 -28.3393,-4.08971 -62.2299,-9.60534 z"
         style="opacity:1;fill:#d40000;fill-opacity:1;fill-rule:nonzero;stroke:none;stroke-width:26.45669365;stroke-linejoin:round;stroke-miterlimit:4;stroke-dasharray:none;stroke-dashoffset:0;stroke-opacity:1" />
      <path
         transform="scale(0.26458333)"
         inkscape:connector-curvature="0"
         id="path113"
         d="m -1919.3956,606.7378 c 3.2201,-5.32448 223.5611,-317.81958 225.7292,-320.13694 1.7438,-1.86385 21.6193,20.84384 83.7341,95.66584 44.7962,53.9604 81.0522,98.50526 80.5688,98.98858 -0.4833,0.48333 -36.9349,-40.93864 -81.0035,-92.04883 -44.0687,-51.11018 -81.0065,-93.47249 -82.0841,-94.13846 -5.3257,-3.29149 0.087,3.86291 22.0544,29.14929 l 24.0135,27.64213 3.2835,87.79071 c 1.8059,48.28489 3.2731,91.09406 3.2605,95.13148 l -0.023,7.3408 -12.6269,1.25909 c -20.2647,2.02073 -128.1381,9.1536 -147.6726,9.7645 l -17.8679,0.5588 1.4237,23.73858 c 0.783,13.05622 1.0959,23.74111 0.6953,23.74422 -0.4006,0.003 -22.0931,1.80921 -48.2055,4.01358 -57.0156,4.8132 -57.2655,4.82015 -55.2797,1.53663 z"
         style="opacity:1;fill:#d40000;fill-opacity:1;fill-rule:nonzero;stroke:none;stroke-width:26.45669365;stroke-linejoin:round;stroke-miterlimit:4;stroke-dasharray:none;stroke-dashoffset:0;stroke-opacity:1" />
      <path
         transform="scale(0.26458333)"
         inkscape:connector-curvature="0"
         id="path115"
         d="m -1812.5252,595.8869 c -0.7629,-17.64432 -1.7949,-33.54666 -2.2933,-35.33853 -0.7803,-2.80545 2.3523,-3.4586 22.5551,-4.7027 12.9037,-0.79462 23.7676,-1.13836 24.1421,-0.76386 0.542,0.54197 4.5654,68.43707 4.1283,69.66459 -0.065,0.18201 -10.699,0.98121 -23.6315,1.77601 l -23.5136,1.44508 z"
         style="opacity:1;fill:#d40000;fill-opacity:1;fill-rule:nonzero;stroke:none;stroke-width:26.45669365;stroke-linejoin:round;stroke-miterlimit:4;stroke-dasharray:none;stroke-dashoffset:0;stroke-opacity:1" />
      <path
         transform="scale(0.26458333)"
         inkscape:connector-curvature="0"
         id="path117"
         d="m -1598.6196,889.58051 c -5.1181,-10.2783 -13.1823,-22.77894 -17.9204,-27.7792 l -8.6147,-9.09137 -3.5196,-95.96449 c -1.9359,-52.78047 -6.0237,-164.14979 -9.084,-247.48737 -3.0604,-83.33759 -5.3718,-151.77021 -5.1364,-152.07251 0.3392,-0.43564 57.7892,65.51187 77.0057,88.39574 4.2153,5.01981 4.3483,8.09636 9.9366,229.84341 3.1153,123.61551 5.0676,225.352 4.3385,226.08108 -1.5427,1.54269 -26.524,6.57915 -33.1746,6.68827 -3.7144,0.061 -6.1929,-3.27452 -13.8311,-18.61356 z"
         style="opacity:1;fill:#d40000;fill-opacity:1;fill-rule:nonzero;stroke:none;stroke-width:26.45669365;stroke-linejoin:round;stroke-miterlimit:4;stroke-dasharray:none;stroke-dashoffset:0;stroke-opacity:1" />
      <path
         transform="scale(0.26458333)"
         inkscape:connector-curvature="0"
         id="path119"
         d="m -1701.4814,557.7337 c -23.3345,-2.47879 -40.6081,-4.67985 -38.3858,-4.89125 2.2224,-0.21139 25.6327,-1.93349 52.0229,-3.82689 47.8739,-3.43476 47.9823,-3.43335 48.0098,0.62335 0.015,2.23623 0.5758,6.11144 1.2458,8.61156 1.1586,4.32327 0.6877,4.5321 -9.624,4.26791 -5.9632,-0.15278 -29.9341,-2.30589 -53.2687,-4.78468 z"
         style="opacity:1;fill:#d40000;fill-opacity:1;fill-rule:nonzero;stroke:none;stroke-width:26.45669365;stroke-linejoin:round;stroke-miterlimit:4;stroke-dasharray:none;stroke-dashoffset:0;stroke-opacity:1" />
      <path
         transform="scale(0.26458333)"
         inkscape:connector-curvature="0"
         id="path121"
         d="m -1506.8035,577.32764 -47.7588,-5.17648 -1.2336,-9.00009 c -0.6785,-4.95004 -1.2336,-12.33976 -1.2336,-16.42159 v -7.4215 l 30.8096,-2.40689 c 16.9453,-1.32378 32.2243,-2.4029 33.9533,-2.39804 2.6807,0.008 15.5979,13.8308 39.1818,41.93017 l 5.5109,6.56599 -5.7354,-0.24755 c -3.1545,-0.13615 -27.2269,-2.57696 -53.4942,-5.42402 z"
         style="opacity:1;fill:#d40000;fill-opacity:1;fill-rule:nonzero;stroke:none;stroke-width:26.45669365;stroke-linejoin:round;stroke-miterlimit:4;stroke-dasharray:none;stroke-dashoffset:0;stroke-opacity:1" />
      <path
         transform="scale(0.26458333)"
         inkscape:connector-curvature="0"
         id="path123"
         d="m -1557.0295,516.93123 c 0,-11.09711 -0.6055,-30.07279 -1.3456,-42.16817 l -1.3456,-21.9916 32.6603,37.72978 c 17.9632,20.75138 32.6603,38.55422 32.6603,39.56187 0,1.00764 -8.7657,2.44825 -19.4793,3.20134 -10.7136,0.75309 -24.8052,1.92593 -31.3147,2.60631 l -11.8354,1.23705 z"
         style="opacity:1;fill:#d40000;fill-opacity:1;fill-rule:nonzero;stroke:none;stroke-width:26.45669365;stroke-linejoin:round;stroke-miterlimit:4;stroke-dasharray:none;stroke-dashoffset:0;stroke-opacity:1" />
      <path
         transform="scale(0.26458333)"
         inkscape:connector-curvature="0"
         id="path125"
         d="m -1170.8974,775.43327 c 0.1396,-19.72323 0.8215,-49.04167 1.5152,-65.15208 l 1.2614,-29.29167 28.2843,-4.32626 c 15.5563,-2.37944 28.6351,-3.9996 29.064,-3.60035 1.1274,1.04957 -3.6528,122.58434 -4.8693,123.80087 -0.7284,0.7284 -49.9167,13.56246 -55.0044,14.35157 -0.2778,0.0431 -0.3908,-16.05885 -0.2512,-35.78208 z"
         style="opacity:1;fill:#d40000;fill-opacity:1;fill-rule:nonzero;stroke:none;stroke-width:26.45669365;stroke-linejoin:round;stroke-miterlimit:4;stroke-dasharray:none;stroke-dashoffset:0;stroke-opacity:1" />
      <path
         transform="scale(0.26458333)"
         inkscape:connector-curvature="0"
         id="path127"
         d="m -1370.1575,700.2425 c -3.7745,-0.2927 -6.9181,-0.58901 -6.9858,-0.65846 -0.2653,-0.27232 -0.9073,-16.8494 -1.0463,-27.02158 l -0.1468,-10.73287 0.6087,0.63135 c 2.2659,2.35034 15.3175,17.80748 15.3204,18.14413 0,0.22958 0.2285,4.45172 0.5032,9.38252 0.2747,4.93081 0.5004,9.39127 0.5014,9.91213 0,1.13136 0.9405,1.09463 -8.7548,0.34278 z"
         style="opacity:1;fill:#d40000;fill-opacity:1;fill-rule:nonzero;stroke:none;stroke-width:26.45669365;stroke-linejoin:round;stroke-miterlimit:4;stroke-dasharray:none;stroke-dashoffset:0;stroke-opacity:1" />
      <path
         transform="scale(0.26458333)"
         inkscape:connector-curvature="0"
         id="path129"
         d="m -1360.1442,700.043 c 0,-0.46077 -0.2218,-4.70098 -0.4854,-9.42268 -0.2636,-4.72171 -0.4459,-8.61836 -0.405,-8.65923 0.041,-0.0409 3.2247,3.57485 7.0753,8.03492 3.8505,4.46008 6.9618,8.14278 6.9139,8.1838 -0.048,0.041 -2.8144,0.60664 -6.1479,1.25694 -3.3335,0.65031 -6.2598,1.24125 -6.5029,1.3132 -0.3576,0.10587 -0.4431,-0.029 -0.448,-0.70695 z"
         style="opacity:1;fill:#d40000;fill-opacity:1;fill-rule:nonzero;stroke:none;stroke-width:26.45669365;stroke-linejoin:round;stroke-miterlimit:4;stroke-dasharray:none;stroke-dashoffset:0;stroke-opacity:1" />
      <path
         transform="scale(0.26458333)"
         inkscape:connector-curvature="0"
         id="path131"
         d="m -1649.2914,1022.2967 c -6.9044,-2.5598 -12.6577,-7.2454 -22.2694,-18.1363 -17.1148,-19.39269 -27.2629,-39.52345 -30.3628,-60.23075 -1.3172,-8.79902 -2.5435,-16.22787 -2.7251,-16.50854 -0.1816,-0.28067 -5.6219,1.31032 -12.0896,3.53553 -6.4677,2.22522 -14.7399,4.04585 -18.3827,4.04585 -3.6428,0 -8.9388,0.88033 -11.7688,1.9563 -4.1772,1.58818 -5.5178,1.26053 -7.1243,-1.74122 -1.3632,-2.54729 -1.2176,-4.65261 0.4683,-6.76774 2.3313,-2.92496 20.8383,-7.96635 39.3176,-10.71029 l 8.5863,-1.27496 0.024,-12.44933 c 0.058,-30.1306 11.0538,-50.29412 32.6296,-59.83468 8.341,-3.6883 10.6552,-3.90398 20.203,-1.88293 14.6142,3.09347 19.144,5.74229 31.3004,18.303 12.8577,13.28523 29.0436,44.97529 33.7425,66.06337 9.556,42.88714 -2.2939,80.51189 -29.6509,94.14439 -11.9125,5.9363 -19.0079,6.2673 -31.8981,1.4883 z"
         style="opacity:1;fill:#d40000;fill-opacity:1;fill-rule:nonzero;stroke:none;stroke-width:26.45669365;stroke-linejoin:round;stroke-miterlimit:4;stroke-dasharray:none;stroke-dashoffset:0;stroke-opacity:1" />
      <path
         transform="scale(0.26458333)"
         inkscape:connector-curvature="0"
         id="path133"
         d="m -1548.6175,1168.1735 c -11.3615,-0.9658 -27.0984,-5.3411 -36.7691,-10.2228 -2.3677,-1.1952 -5.971,-2.8298 -8.0073,-3.6325 -2.0364,-0.8027 -7.2681,-3.7058 -11.6259,-6.4513 l -7.9234,-4.9919 -2.3524,-53.0021 c -1.2938,-29.1511 -2.5333,-55.7433 -2.7543,-59.0938 -0.398,-6.034 -0.3842,-6.0997 1.4566,-6.9384 1.0221,-0.4658 4.6031,-2.8482 7.9577,-5.2944 4.6435,-3.386 6.9879,-5.7364 9.8225,-9.8472 2.0478,-2.9698 5.4206,-7.6025 7.4951,-10.2949 2.0746,-2.69239 3.772,-5.00421 3.772,-5.13738 0,-0.13318 1.2857,-6.38635 2.8571,-13.89595 2.669,-12.75463 2.8572,-14.43319 2.8572,-25.48849 0,-9.51653 -0.2937,-13.08567 -1.4994,-18.22131 -0.8247,-3.51264 -1.3872,-6.47772 -1.25,-6.58906 0.3395,-0.27558 35.1661,-6.81102 35.333,-6.63047 0.073,0.079 1.2818,50.28647 2.6862,111.57216 1.4044,61.2857 2.756,116.6518 3.0036,123.0357 0.4273,11.0209 0.3831,11.6011 -0.876,11.4871 -0.7293,-0.066 -2.6117,-0.2294 -4.1832,-0.363 z"
         style="opacity:1;fill:#d40000;fill-opacity:1;fill-rule:nonzero;stroke:none;stroke-width:26.45669365;stroke-linejoin:round;stroke-miterlimit:4;stroke-dasharray:none;stroke-dashoffset:0;stroke-opacity:1" />
      <path
         transform="scale(0.26458333)"
         inkscape:connector-curvature="0"
         id="path135"
         d="m -1545.4094,1011.3352 c 0,-7.5625 -0.2061,-15.41385 -0.4504,-17.4474 l -0.4442,-3.69736 2.8725,-0.77347 c 4.1316,-1.11253 50.8217,-10.66387 58.0283,-11.87078 10.384,-1.73904 43.3575,-5.94851 55.7143,-7.11262 6.4822,-0.61067 19.8214,-1.42204 29.6429,-1.80306 9.8214,-0.38101 24.6071,-1.17338 32.8571,-1.76081 13.2887,-0.9462 16.3039,-0.94691 26.4286,-0.006 6.2857,0.58402 16.4648,1.06567 22.6201,1.07033 6.1554,0.005 11.7001,0.20356 12.3215,0.44202 0.9736,0.37361 1.1298,2.25034 1.1298,13.57143 v 13.13787 l -5.1786,-0.0142 c -2.8482,-0.008 -14.1785,-0.64428 -25.1785,-1.41433 -36.037,-2.52279 -59.6676,-1.82451 -84.2857,2.49061 -5.5,0.96405 -18.3572,2.89679 -28.5715,4.29497 -20.5444,2.8122 -30.3619,4.5923 -40,7.2528 -12.3494,3.4089 -42.2036,12.3531 -49.6046,14.8613 -4.104,1.3909 -7.5593,2.5289 -7.6786,2.5289 -0.1192,0 -0.2196,-6.1875 -0.223,-13.75 z"
         style="opacity:1;fill:#d40000;fill-opacity:1;fill-rule:nonzero;stroke:none;stroke-width:26.45669365;stroke-linejoin:round;stroke-miterlimit:4;stroke-dasharray:none;stroke-dashoffset:0;stroke-opacity:1" />
      <path
         transform="scale(0.26458333)"
         inkscape:connector-curvature="0"
         id="path137"
         d="m -1546.1175,978.37006 c 0,-5.61672 -0.2072,-12.66367 -0.4604,-15.65989 -0.3663,-4.33231 -0.2566,-5.51123 0.5357,-5.75812 5.733,-1.7866 21.9646,-4.50378 39.2105,-6.56386 11.5892,-1.38438 28.625,-3.66307 37.8571,-5.06376 13.594,-2.06246 19.9775,-2.65301 33.5714,-3.10578 25.211,-0.83968 46.6488,-2.02698 54.6429,-3.0263 7.4059,-0.9258 75.5153,-1.33054 76.3915,-0.45396 0.2413,0.24142 0.2162,6.63906 -0.056,14.21697 l -0.4946,13.77803 -14.7062,-0.45706 c -8.0884,-0.25138 -18.7785,-0.82887 -23.7557,-1.28329 -7.4075,-0.67631 -12.2031,-0.61801 -26.4286,0.32133 -9.5585,0.63117 -22.8434,1.32516 -29.5219,1.54222 -20.8266,0.67685 -50.2844,3.70288 -83.2143,8.5481 -7.4133,1.09078 -58.4338,11.46008 -61.6072,12.52093 l -1.9643,0.65665 z"
         style="opacity:1;fill:#d40000;fill-opacity:1;fill-rule:nonzero;stroke:none;stroke-width:26.45669365;stroke-linejoin:round;stroke-miterlimit:4;stroke-dasharray:none;stroke-dashoffset:0;stroke-opacity:1" />
      <path
         transform="scale(0.26458333)"
         inkscape:connector-curvature="0"
         id="path139"
         d="m -1587.0811,919.56081 c -0.9885,-4.21696 -1.707,-7.75739 -1.5968,-7.86762 0.1103,-0.11024 9.3297,-1.82016 20.4876,-3.79983 15.1488,-2.68774 39.7222,-8.25358 97.0204,-21.97503 l 76.7333,-18.37565 1.3242,-3.97275 c 1.1218,-3.36519 1.676,-4.0854 3.6239,-4.7093 1.2648,-0.40509 15.4782,-4.97847 31.5853,-10.16307 27.7209,-8.92283 30.6025,-9.69669 53.9286,-14.48253 l 24.6429,-5.05599 5.5854,1.16629 c 3.9814,0.83137 6.3156,1.76821 8.1282,3.26229 1.3985,1.1528 2.9029,1.97717 3.3431,1.83193 2.9143,-0.96155 149.7476,-36.0246 160.0861,-38.22775 11.7325,-2.50021 13.0011,-2.64606 14.5027,-1.66736 2.2256,1.4506 2.5123,2.48513 1.6137,5.82225 l -0.7647,2.83984 -13.033,4.38777 c -11.0835,3.73144 -24.0379,6.87478 -86.6044,21.01432 -72.3115,16.34183 -73.5755,16.65664 -73.8093,18.38298 -0.3246,2.39707 -3.8242,5.88532 -9.0094,8.98016 -4.9179,2.93533 -24.6956,9.5816 -42.5384,14.29499 -6.6511,1.75696 -23.6109,5.16683 -38.9286,7.82683 -31.062,5.39409 -33.0538,5.47059 -37.5142,1.44091 l -2.6438,-2.38859 -77.421,19.21276 c -73.59,18.26207 -77.5094,19.31457 -79.2067,21.27025 -1.6865,1.94312 -2.7587,2.23989 -19.2873,5.3383 -9.6259,1.80444 -17.7152,3.2808 -17.9761,3.2808 -0.261,0 -1.2833,-3.45024 -2.2717,-7.6672 z"
         style="opacity:1;fill:#d40000;fill-opacity:1;fill-rule:nonzero;stroke:none;stroke-width:26.45669365;stroke-linejoin:round;stroke-miterlimit:4;stroke-dasharray:none;stroke-dashoffset:0;stroke-opacity:1" />
      <path
         transform="scale(0.26458333)"
         inkscape:connector-curvature="0"
         id="path141"
         d="m -1180.4032,1175.052 c 0,-1.5897 1.1347,-49.2415 2.5215,-105.8929 1.3869,-56.6514 3.1204,-133.95921 3.8522,-171.79519 0.7319,-37.83597 1.4455,-68.90426 1.5857,-69.04064 0.6568,-0.63883 58.5716,-13.37377 58.9769,-12.96848 0.2542,0.25414 -0.4108,27.69922 -1.4777,60.98908 -3.0848,96.25212 -8.9449,269.70903 -9.4318,279.17733 l -0.4448,8.6503 -4.041,1.8688 c -2.2225,1.0278 -5.9695,2.3885 -8.3267,3.0238 -2.3571,0.6352 -8.3036,2.4324 -13.2143,3.9938 -6.234,1.9821 -11.6231,3.1453 -17.8571,3.8545 -12.8255,1.4589 -12.1429,1.5635 -12.1429,-1.8604 z"
         style="opacity:1;fill:#d40000;fill-opacity:1;fill-rule:nonzero;stroke:none;stroke-width:26.45669365;stroke-linejoin:round;stroke-miterlimit:4;stroke-dasharray:none;stroke-dashoffset:0;stroke-opacity:1" />
      <path
         transform="scale(0.26458333)"
         inkscape:connector-curvature="0"
         id="path143"
         d="m -1192.1889,978.29144 c -6.6786,-1.29618 -16,-3.33166 -20.7143,-4.5233 -13.8448,-3.49958 -47.6342,-7.36356 -68.0357,-7.78021 l -16.6071,-0.33915 0.011,-12.60324 c 0.01,-6.93178 0.297,-13.05501 0.6465,-13.60717 0.532,-0.84031 3.5862,-0.92548 18.7391,-0.52261 9.9569,0.26473 23.7285,0.95145 30.6035,1.52605 6.875,0.57459 16.1964,1.35716 20.7143,1.73904 13.7907,1.16567 31.5483,3.62079 36.0714,4.98713 2.3571,0.71204 6.4553,1.69609 9.1071,2.18678 l 4.8215,0.89216 v 8.31197 c 0,4.57159 -0.2112,11.44591 -0.4649,15.27627 -0.3815,5.76099 -0.6585,6.95121 -1.6034,6.88862 -0.6284,-0.0416 -6.6067,-1.13616 -13.2853,-2.43234 z"
         style="opacity:1;fill:#d40000;fill-opacity:1;fill-rule:nonzero;stroke:none;stroke-width:26.45669365;stroke-linejoin:round;stroke-miterlimit:4;stroke-dasharray:none;stroke-dashoffset:0;stroke-opacity:1" />
      <path
         transform="scale(0.26458333)"
         inkscape:connector-curvature="0"
         id="path145"
         d="m -1190.4032,1007.504 c -5.6964,-1.3197 -16.1428,-3.2172 -23.2143,-4.2166 -7.0714,-0.9995 -20.0892,-2.9657 -28.9285,-4.36939 -14.6556,-2.3273 -17.7862,-2.58614 -35.5357,-2.93808 l -19.4643,-0.38595 v -13.71997 -13.71997 l 5.8928,-0.45873 c 10.3473,-0.80549 17.9396,-0.511 34.2529,1.32863 29.0246,3.27308 33.6871,3.9641 45.5686,6.75365 6.4821,1.52189 16.848,3.67618 23.0353,4.78732 l 11.2497,2.02025 3e-4,7.21169 c 5e-4,10.86945 -0.7999,20.30315 -1.7137,20.19745 -0.4323,-0.05 -5.4466,-1.1706 -11.1431,-2.4903 z"
         style="opacity:1;fill:#d40000;fill-opacity:1;fill-rule:nonzero;stroke:none;stroke-width:26.45669365;stroke-linejoin:round;stroke-miterlimit:4;stroke-dasharray:none;stroke-dashoffset:0;stroke-opacity:1" />
      <path
         transform="scale(0.26458333)"
         inkscape:connector-curvature="0"
         id="path147"
         d="m -1018.0513,1100.7066 c -0.6407,-3.3714 -1.6903,-5.6593 -4.279,-9.3268 -5.3013,-7.5109 -21.919,-24.6709 -28.7645,-29.7031 -3.3517,-2.464 -8.1439,-5.9997 -10.6493,-7.8572 -10.359,-7.6802 -15.335,-10.5805 -36.8734,-21.4919 -2.75,-1.3932 -8.2142,-3.698 -12.1428,-5.1219 l -7.1429,-2.5888 0.024,-4.4087 c 0.013,-2.4248 0.093,-8.6331 0.1786,-13.7962 l 0.1548,-9.3875 4.1071,0.43627 c 3.844,0.40831 21.3574,6.15823 30.1786,9.90813 7.0256,2.9867 27.8544,14.4623 39.6428,21.8414 14.955,9.3611 19.0743,13.7967 26.3207,28.3417 5.5726,11.1852 7.3029,18.3252 6.6723,27.5332 -0.4001,5.8436 -3.3478,16.0996 -5.3311,18.5488 -1.2286,1.5174 -1.2591,1.4749 -2.0957,-2.9274 z"
         style="opacity:1;fill:#d40000;fill-opacity:1;fill-rule:nonzero;stroke:none;stroke-width:26.45669365;stroke-linejoin:round;stroke-miterlimit:4;stroke-dasharray:none;stroke-dashoffset:0;stroke-opacity:1" />
      <path
         transform="scale(0.26458333)"
         inkscape:connector-curvature="0"
         id="path149"
         d="m -1303.4109,1124.5494 c 0.1528,-38.0089 0.4903,-110.6954 0.7499,-161.52559 l 0.4721,-92.4185 1.6072,-0.5942 1.6071,-0.5942 v 162.11979 162.1199 h -2.3571 -2.357 z"
         style="opacity:1;fill:#d40000;fill-opacity:1;fill-rule:nonzero;stroke:none;stroke-width:26.45669365;stroke-linejoin:round;stroke-miterlimit:4;stroke-dasharray:none;stroke-dashoffset:0;stroke-opacity:1" />
      <path
         inkscape:connector-curvature="0"
         id="path153"
         d="m -439.99792,292.18998 -0.35616,0.78222"
         style="fill:none;stroke:#000000;stroke-width:7;stroke-linecap:butt;stroke-linejoin:miter;stroke-miterlimit:4;stroke-dasharray:none;stroke-opacity:1" />
      <path
         transform="scale(0.26458333)"
         inkscape:connector-curvature="0"
         id="path155"
         d="m -1665.7675,1105.4238 c -1.2773,-0.9598 -3.9305,-7.7953 -4.46,-11.4905 -0.2588,-1.8056 -0.6708,-8.1696 -0.9157,-14.1421 l -0.4451,-10.8592 1.4126,-4.4189 c 0.777,-2.4304 2.6723,-6.6351 4.2118,-9.3439 3.9379,-6.9283 8.8887,-11.5713 19.8337,-18.6006 7.2138,-4.6329 11.5064,-6.6879 19.9513,-9.5514 l 6.364,-2.158 0.3183,7.1367 c 1.0186,22.8375 1.0319,24.0567 0.2634,24.0567 -0.405,0 -2.6777,1.2189 -5.0505,2.7086 -2.3728,1.4898 -6.2649,3.7721 -8.6493,5.0718 -3.703,2.0185 -5.3337,3.3948 -11.1826,9.4382 -7.9694,8.2346 -9.0919,9.9962 -19.0391,29.8798 -0.799,1.5973 -1.5248,2.9041 -1.6127,2.9041 -0.088,0 -0.538,-0.2841 -1.0001,-0.6313 z"
         style="opacity:1;fill:#d40000;fill-opacity:1;fill-rule:nonzero;stroke:none;stroke-width:26.45669365;stroke-linejoin:round;stroke-miterlimit:4;stroke-dasharray:none;stroke-dashoffset:0;stroke-opacity:1" />
      <path
         transform="scale(0.26458333)"
         inkscape:connector-curvature="0"
         id="path157"
         d="m -1349.7052,1194.1387 c -38.2375,-1.5805 -108.5746,-7.2049 -126.2691,-10.0968 -10.5561,-1.7252 -29.3369,-5.9236 -41.7351,-9.3298 l -22.5422,-6.193 -1.1557,-24.4505 c -0.6356,-13.4478 -1.4013,-45.3586 -1.7014,-70.913 l -0.5458,-46.4625 31.3147,-9.3995 c 59.2979,-17.79906 126.2516,-25.10809 189.121,-20.64549 l 18.0157,1.27879 -0.7457,97.2111 c -0.4101,53.4661 -0.9751,97.4605 -1.2554,97.7653 -1.0402,1.1312 -26.8634,1.8818 -42.501,1.2354 z"
         style="opacity:1;fill:#800000;fill-opacity:1;fill-rule:nonzero;stroke:none;stroke-width:26.45669365;stroke-linejoin:round;stroke-miterlimit:4;stroke-dasharray:none;stroke-dashoffset:0;stroke-opacity:1" />
      <path
         transform="scale(0.26458333)"
         inkscape:connector-curvature="0"
         id="path159"
         d="m -1628.6157,1135.8488 c -5.4962,-2.7404 -15.3845,-10.4326 -21.9738,-17.0939 l -11.9807,-12.1114 5.74,-10.6853 c 3.157,-5.8769 8.3359,-14.0169 11.5086,-18.0889 5.6772,-7.2861 23.2065,-19.2025 25.2464,-17.1626 0.5742,0.5741 1.8273,15.8823 2.7849,34.0182 2.2286,42.2113 2.2533,46.1064 0.2913,46.1064 -0.893,0 -6.1205,-2.2421 -11.6167,-4.9825 z"
         style="opacity:1;fill:#800000;fill-opacity:1;fill-rule:nonzero;stroke:none;stroke-width:26.45669365;stroke-linejoin:round;stroke-miterlimit:4;stroke-dasharray:none;stroke-dashoffset:0;stroke-opacity:1" />
      <path
         transform="scale(0.26458333)"
         inkscape:connector-curvature="0"
         id="path161"
         d="m -1296.1671,1094.7708 v -97.99522 l 21.0555,1.28829 c 21.3969,1.30918 46.3964,4.71703 78.6641,10.72313 l 17.8974,3.3313 -1.2506,51.7296 c -2.1268,87.9754 -3.4652,113.5848 -5.9744,114.3175 -14.5625,4.2523 -64.1257,11.1065 -99.7854,13.7996 l -10.6066,0.8011 z"
         style="opacity:1;fill:#800000;fill-opacity:1;fill-rule:nonzero;stroke:none;stroke-width:26.45669365;stroke-linejoin:round;stroke-miterlimit:4;stroke-dasharray:none;stroke-dashoffset:0;stroke-opacity:1" />
      <path
         transform="scale(0.26458333)"
         inkscape:connector-curvature="0"
         id="path163"
         d="m -1121.6801,1139.1597 c 0.6828,-12.9702 1.8329,-43.3765 2.556,-67.5694 1.528,-51.126 -1.588,-47.4892 27.822,-32.4724 23.7949,12.1497 42.8731,26.2588 57.6587,42.6412 14.4662,16.0283 16.7041,22.8431 9.9092,30.1751 -5.4931,5.9273 -21.1519,17.0644 -40.5838,28.8646 -12.4193,7.5417 -34.427,16.1758 -51.7872,20.3171 l -6.8162,1.6261 z"
         style="opacity:1;fill:#800000;fill-opacity:1;fill-rule:nonzero;stroke:none;stroke-width:26.45669365;stroke-linejoin:round;stroke-miterlimit:4;stroke-dasharray:none;stroke-dashoffset:0;stroke-opacity:1" />
    </g>
  </g>
</svg>
