<?xml version="1.0" encoding="UTF-8" standalone="no"?>
<!-- Created with Inkscape (http://www.inkscape.org/) -->

<svg
   xmlns:dc="http://purl.org/dc/elements/1.1/"
   xmlns:cc="http://creativecommons.org/ns#"
   xmlns:rdf="http://www.w3.org/1999/02/22-rdf-syntax-ns#"
   xmlns:svg="http://www.w3.org/2000/svg"
   xmlns="http://www.w3.org/2000/svg"
   xmlns:sodipodi="http://sodipodi.sourceforge.net/DTD/sodipodi-0.dtd"
   xmlns:inkscape="http://www.inkscape.org/namespaces/inkscape"
   width="210mm"
   height="297mm"
   viewBox="0 0 210 297"
   version="1.1"
   id="svg8"
   inkscape:version="0.92.1 r15371"
   sodipodi:docname="dome.svg">
  <defs
     id="defs2" />
  <sodipodi:namedview
     id="base"
     pagecolor="#ffffff"
     bordercolor="#666666"
     borderopacity="1.0"
     inkscape:pageopacity="0.0"
     inkscape:pageshadow="2"
     inkscape:zoom="0.49497475"
     inkscape:cx="382.73367"
     inkscape:cy="583.45775"
     inkscape:document-units="mm"
     inkscape:current-layer="layer1"
     showgrid="false"
     inkscape:window-width="1536"
     inkscape:window-height="801"
     inkscape:window-x="-8"
     inkscape:window-y="-8"
     inkscape:window-maximized="1" />
  <metadata
     id="metadata5">
    <rdf:RDF>
      <cc:Work
         rdf:about="">
        <dc:format>image/svg+xml</dc:format>
        <dc:type
           rdf:resource="http://purl.org/dc/dcmitype/StillImage" />
        <dc:title></dc:title>
      </cc:Work>
    </rdf:RDF>
  </metadata>
  <g
     inkscape:label="Layer 1"
     inkscape:groupmode="layer"
     id="layer1">
    <g
       id="g155"
       transform="translate(5.7613553,-1.787042)">
      <g
         transform="translate(-1.9749289,67.426952)"
         id="layer1-8">
        <path
           inkscape:connector-curvature="0"
           id="path3811"
           d="M 68.465892,151.52703 46.157443,148.22221 31.530775,143.48656 C 15.510522,138.29973 16.024436,138.57757 10.663746,132.20505 L 8.1018517,129.1596 8.1200686,114.09585 8.1382856,99.032083 11.680505,83.944828 15.222723,68.857584 25.178589,54.205047 35.134453,39.55251 52.311139,29.008467 69.487824,18.464436 l 16.541611,-3.000055 16.541605,-3.000067 15.78349,3.016738 15.7835,3.016727 16.73999,10.872491 16.73998,10.872479 9.96441,14.246065 9.9644,14.246065 2.98159,8.32484 c 1.63987,4.578667 3.7514,10.583261 4.69225,13.343546 l 1.71069,5.018706 -0.96039,17.289749 c -0.52824,9.50936 -0.97,18.17412 -0.98173,19.25504 l -0.0213,1.96529 -8.52971,4.27579 -8.5297,4.27579 -17.84676,3.8655 -17.84675,3.86549 -24.79988,2.3599 c -13.63991,1.29795 -25.214062,2.33684 -25.720322,2.30863 -0.50626,-0.0282 -10.959276,-1.53845 -23.228923,-3.35612 z m 49.603498,-0.58018 c 11.5479,-1.07295 21.20423,-2.13365 21.4585,-2.35715 0.42243,-0.37129 -21.08593,-35.62417 -21.74488,-35.64053 -0.25041,-0.006 -23.023774,38.73667 -23.527755,40.02633 -0.108677,0.27809 0.466256,0.36947 1.31226,0.20855 0.828127,-0.15751 10.953965,-1.16425 22.501875,-2.2372 z M 83.848676,140.10586 c -3.921173,-7.0009 -9.013474,-16.10555 -11.316227,-20.23252 -2.30275,-4.12697 -4.396673,-7.43363 -4.653151,-7.34814 -0.502945,0.16765 -19.359784,33.32268 -19.359784,34.03935 0,0.23759 1.00388,0.57898 2.230844,0.75863 1.226965,0.17966 9.907578,1.46826 19.290249,2.86355 9.382672,1.3953 17.931969,2.56189 18.998433,2.59249 l 1.939034,0.0556 z m 20.684054,-7.85676 c 6.41233,-11.02621 11.58397,-20.12243 11.49253,-20.21387 -0.22182,-0.22183 -46.19874,-1.14085 -46.418922,-0.92786 -0.223327,0.21602 22.659952,41.18546 23.005172,41.18767 0.144348,9.1e-4 5.508901,-9.01974 11.92122,-20.04594 z m 55.65526,12.52856 c 8.44165,-1.81818 15.49642,-3.45375 15.67727,-3.6346 0.35098,-0.35097 -12.45321,-32.90804 -12.94644,-32.91878 -0.29498,-0.006 -19.39155,38.95075 -19.39155,39.55897 0,0.55345 0.83947,0.40203 16.66072,-3.00559 z m -6.5591,-21.50183 c 4.31965,-8.89565 7.7704,-16.24756 7.66831,-16.33758 -0.22769,-0.20076 -41.55627,4.54581 -41.89569,4.81171 -0.1334,0.10454 0.087,0.71075 0.48974,1.3472 0.40277,0.63644 5.20445,8.36147 10.6704,17.16676 5.46595,8.80526 10.19284,16.32538 10.50421,16.71138 0.65367,0.81031 0.74449,0.63897 12.56303,-23.69947 z M 44.551547,144.04265 c -0.457945,-1.08261 -4.139659,-9.88133 -8.181591,-19.55269 -4.041931,-9.67137 -7.523691,-17.76456 -7.737243,-17.98486 -0.213554,-0.22031 -2.590322,6.58585 -5.281707,15.1248 -2.796962,8.87391 -4.69427,15.71371 -4.428566,15.96498 0.507598,0.48003 24.720589,8.35823 25.798558,8.39411 0.502726,0.0166 0.461729,-0.45418 -0.169451,-1.94634 z m 12.29449,-15.66955 c 5.30133,-9.40345 9.434956,-17.27396 9.185831,-17.49001 -0.502234,-0.43561 -35.8404,-6.56509 -36.121345,-6.26533 -0.09706,0.10359 3.577842,9.13497 8.16645,20.06983 4.588607,10.93486 8.342922,20.08788 8.342922,20.34005 0,1.52774 1.765772,-1.29287 10.426142,-16.65454 z m 129.686593,7.94566 c 5.35154,-2.68165 6.72997,-3.58997 6.57179,-4.33046 -0.11008,-0.51537 -0.81484,-6.25169 -1.56609,-12.74739 -1.38348,-11.96262 -1.63088,-13.48616 -2.11171,-13.00531 -0.31958,0.31956 -10.20583,32.26893 -10.20583,32.98212 0,0.75624 0.084,0.72293 7.31184,-2.89896 z m -3.16978,-16.08002 c 2.91844,-9.41126 5.30623,-17.26515 5.30623,-17.45307 0,-0.18794 -0.47376,-0.34171 -1.0528,-0.34171 -1.11528,0 -21.86086,3.55238 -22.93819,3.92783 -0.42138,0.14685 1.37524,5.18256 5.37822,15.07452 7.69832,19.02379 7.06113,17.62089 7.57592,16.67973 0.23344,-0.42675 2.81221,-8.47604 5.73062,-17.8873 z M 15.851644,134.33192 c -0.129852,-0.36087 -1.385034,-6.26605 -2.789294,-13.12262 -1.40426,-6.85656 -2.740532,-12.46648 -2.969493,-12.46648 -0.2289612,0 -0.4162917,4.50659 -0.4162917,10.01463 v 10.01463 l 2.7032417,3.10799 c 2.531343,2.91034 4.013442,3.95702 3.471837,2.45185 z m 6.390042,-14.17243 c 2.411822,-7.57831 4.486207,-14.36926 4.609746,-15.091 0.219785,-1.28405 0.04937,-1.35702 -7.925165,-3.3932 -4.482379,-1.14452 -8.272428,-1.958289 -8.422328,-1.808388 -0.348129,0.348128 6.618824,34.071348 7.038872,34.071348 0.17256,0 2.287054,-6.20045 4.698875,-13.77876 z m 172.457794,-13.77874 0.37047,-8.923385 -2.09514,2.099624 -2.09513,2.099611 1.23508,9.44829 c 0.67929,5.19655 1.27716,9.80259 1.32859,10.23564 0.20838,1.75462 0.90821,-6.57993 1.25613,-14.95978 z m -78.99216,3.49945 c 0,-0.60673 -21.431706,-31.809285 -21.974739,-31.993189 -0.602004,-0.203868 -23.857089,30.865449 -23.425994,31.297649 0.298109,0.29888 9.868659,0.55193 38.708193,1.02346 3.6809,0.0602 6.69254,-0.0874 6.69254,-0.32792 z m 35.053,-3.38293 c 5.566,-0.64149 10.13713,-1.36171 10.15803,-1.60051 0.0631,-0.72194 -26.90689,-36.154129 -27.2548,-35.806248 -0.44675,0.446764 -14.67441,40.659548 -14.46116,40.872788 0.0946,0.0946 4.95693,-0.38402 10.80501,-1.06379 5.84809,-0.67975 15.1869,-1.76077 20.75292,-2.40224 z m -84.064164,1.85188 C 66.549984,107.84392 64.134159,98.808996 61.327646,88.271537 58.521134,77.734066 56.085584,68.956492 55.915312,68.765792 55.74504,68.575103 49.839441,76.075778 42.791759,85.433983 35.744073,94.792164 30.092733,102.56382 30.23322,102.7043 c 0.22265,0.22265 34.209336,6.35995 36.037201,6.50758 0.419415,0.0339 0.586928,-0.30559 0.425735,-0.86273 z m 51.367104,-0.52491 c 0.20276,-0.50523 2.33603,-6.46946 4.74063,-13.253841 2.40459,-6.784397 5.45276,-15.362339 6.77373,-19.062096 1.32095,-3.699757 2.40175,-6.829502 2.40175,-6.954992 0,-0.499704 -1.9681,-0.108192 -19.04725,3.789485 -11.65618,2.660045 -17.656803,4.250998 -17.506907,4.641636 0.125443,0.32688 4.444974,6.729793 9.598957,14.228686 5.15399,7.498894 9.9614,14.509182 10.68315,15.578432 1.47871,2.19068 1.8295,2.34445 2.35594,1.03269 z M 80.512996,92.160165 C 86.921737,83.617087 92.088504,76.552995 91.9947,76.462157 91.688485,76.165612 59.050463,67.800256 58.199739,67.800256 c -0.545463,0 -0.731642,0.313146 -0.546139,0.918577 0.538559,1.757726 10.287389,38.435407 10.287389,38.703877 0,1.20887 2.415421,-1.72348 12.572007,-15.262545 z M 176.8331,102.64601 c 6.07675,-1.04367 11.21859,-2.05218 11.42633,-2.24113 0.32972,-0.29989 -16.30361,-31.053526 -17.46261,-32.286865 -0.24897,-0.264948 -0.56948,0.07823 -0.73544,0.787354 -0.27127,1.159267 -6.06283,35.021941 -6.06283,35.448821 0,0.41078 2.20806,0.11692 12.83455,-1.70818 z M 165.75745,85.122112 c 1.63481,-9.671374 2.97076,-18.0158 2.96881,-18.54316 -0.002,-0.896136 -0.42406,-0.934918 -6.43365,-0.592948 -22.97895,1.307575 -26.89234,1.596463 -26.81502,1.979479 0.19923,0.986714 26.69143,35.463337 26.98547,35.118557 0.17713,-0.20769 1.65961,-8.290566 3.29439,-17.961928 z M 26.99607,85.054742 C 26.670324,75.718884 26.327883,68.004548 26.235091,67.911765 26.060917,67.737582 10.721437,96.576095 10.55647,97.387859 c -0.08313,0.40908 16.473874,5.095481 16.868135,4.774461 0.09005,-0.0734 -0.102789,-7.771732 -0.428535,-17.107578 z m 16.494547,-2.998038 c 5.941566,-7.892977 10.802848,-14.522423 10.802848,-14.732107 0,-0.327952 -21.619151,-2.184597 -25.130872,-2.158239 l -1.247707,0.0094 0.343258,13.778735 c 0.188792,7.578322 0.487796,15.545075 0.664452,17.703893 l 0.321195,3.925144 1.721988,-2.087978 C 31.912873,97.347213 37.54905,89.94974 43.490617,82.056775 Z m 149.915913,14.862009 1.79398,-1.850911 -2.56163,-7.46614 c -2.85701,-8.327129 -3.91438,-10.751379 -3.94878,-9.053507 -0.0284,1.402848 1.54322,17.558392 1.85229,19.040433 0.33307,1.597077 0.7648,1.496093 2.86414,-0.669875 z m -5.76189,-13.202541 c -0.61833,-6.588529 -1.22227,-12.456613 -1.34206,-13.040205 -0.18205,-0.886898 -1.35318,-1.341532 -7.13504,-2.769866 -3.80448,-0.939838 -7.01269,-1.613347 -7.12936,-1.496682 -0.18754,0.187538 4.21921,8.339021 13.32867,24.654967 1.58294,2.835217 2.99597,5.037029 3.14009,4.892921 0.1441,-0.144095 -0.24392,-5.652607 -0.8623,-12.241135 z M 18.740356,78.469057 c 3.397249,-6.531364 6.076003,-11.976034 5.952787,-12.099246 -0.164805,-0.164802 -7.466212,2.752097 -8.011742,3.20069 -0.08875,0.07292 -4.905217,20.316754 -4.905217,20.61678 0,1.242931 1.783163,-1.75749 6.964172,-11.718224 z m 74.432251,-6.33834 c 0.01989,-1.371323 0.438286,-8.580172 0.929738,-16.019683 0.791661,-11.984057 0.803387,-13.491783 0.10286,-13.222965 -2.286706,0.877494 -35.764507,23.059719 -35.136198,23.281072 2.277455,0.802373 31.898983,8.382228 32.886365,8.415299 1.059742,0.03551 1.184752,-0.216492 1.217229,-2.453723 z m 20.215503,-1.449335 c 9.46176,-2.168445 17.31867,-4.058103 17.4598,-4.199249 0.14113,-0.141134 0.1582,-0.342866 0.038,-0.448298 C 129.686,64.982111 97.247242,42.604821 96.922553,42.604821 c -0.365297,0 -2.26773,26.14096 -2.225175,30.575697 0.0085,0.882662 0.300155,1.443483 0.750755,1.443483 0.405295,0 8.478337,-1.774173 17.940087,-3.942619 z m 70.89698,-3.655276 c -0.22361,-0.582708 -14.38232,-21.093702 -15.37841,-22.277923 -0.10123,-0.120298 -0.27894,-0.120298 -0.39501,0 -0.35959,0.372716 1.90317,18.561046 2.37373,19.0801 0.32167,0.35483 9.8217,3.118985 13.50938,3.930714 0.103,0.02265 0.0537,-0.307117 -0.10973,-0.732891 z m -161.030383,-2.01582 3.342498,-1.671738 2.831408,-7.823542 c 1.557273,-4.302959 2.733201,-7.921766 2.613172,-8.041793 -0.120029,-0.120026 -2.287395,2.810052 -4.816368,6.511295 -2.528973,3.701244 -5.339377,7.792454 -6.245344,9.091593 -2.422913,3.474428 -2.521196,3.678272 -1.754975,3.640127 0.37791,-0.01876 2.191233,-0.78648 4.029609,-1.705942 z M 153.21049,64.891664 c 7.7797,-0.439001 14.2259,-0.879194 14.3249,-0.978195 0.099,-0.09899 -6.61775,-6.762038 -14.92614,-14.806757 -8.98904,-8.703762 -15.16089,-14.310178 -15.24133,-13.844973 -0.3248,1.878543 -2.76403,27.580904 -2.76403,29.124805 0,1.693766 0.0212,1.708101 2.23085,1.506676 1.22695,-0.111851 8.59605,-0.562556 16.37575,-1.001556 z M 57.035317,50.571409 c 0.79236,-7.990339 1.38138,-14.717016 1.308931,-14.948162 -0.07245,-0.231145 -6.720828,5.910229 -14.77417,13.647513 -14.517557,13.947821 -14.627166,14.069275 -12.851301,14.240897 7.447906,0.719795 24.41129,1.952933 24.618966,1.789653 0.141305,-0.111143 0.905213,-6.73955 1.697574,-14.729901 z m 76.410373,8.961596 c 1.41424,-13.951077 2.38305,-25.325325 2.17375,-25.520745 -0.28049,-0.261893 -36.623535,6.757342 -37.015267,7.149078 -0.154391,0.154396 6.760397,5.185715 15.366207,11.180716 8.6058,5.99499 16.23742,11.327586 16.95916,11.850203 0.72176,0.522617 1.45445,0.957701 1.62821,0.966845 0.17376,0.0094 0.57333,-2.522603 0.88794,-5.626097 z M 79.177057,50.628302 c 7.478973,-4.851403 13.595593,-9.054711 13.592485,-9.340696 -0.0065,-0.605113 -31.74601,-7.637621 -32.258485,-7.14752 -0.308434,0.294975 -3.068163,26.737837 -3.068163,29.398212 0,1.248075 -1.092642,1.897114 21.734163,-12.909996 z m 89.521553,10.216963 c -0.0132,-0.64957 -0.54738,-5.314661 -1.18696,-10.366876 l -1.1629,-9.185828 -12.32932,-3.244014 c -6.78114,-1.784225 -12.68365,-3.250468 -13.11669,-3.258337 -0.76429,-0.01392 26.63767,27.179104 27.42628,27.217107 0.21653,0.01062 0.38284,-0.512482 0.36959,-1.162052 z M 47.932441,42.968594 c 4.440621,-4.262112 7.978881,-7.844261 7.862797,-7.960347 -0.292252,-0.29225 -18.903865,5.353196 -19.345224,5.867967 -0.511145,0.596181 -6.827069,18.245612 -6.827069,19.077799 0,0.381743 2.303018,-1.540219 5.11782,-4.271031 2.814802,-2.730812 8.751055,-8.452288 13.191676,-12.714388 z M 95.475338,38.27436 c 0.684643,-3.1183 2.885322,-18.965112 2.6644,-19.186028 -0.363791,-0.363797 -34.984794,13.128883 -34.63251,13.497152 0.36315,0.37963 28.909527,6.757649 30.53777,6.822954 0.808186,0.03245 1.251378,-0.318986 1.43034,-1.134078 z m 19.969532,-2.107848 c 9.23832,-1.800779 16.91505,-3.468942 17.05939,-3.707037 0.21609,-0.356411 -32.0533,-14.106323 -32.38635,-13.799749 -0.0576,0.05297 -0.702585,3.986061 -1.433321,8.74009 -0.730741,4.754041 -1.461997,9.411369 -1.625016,10.34965 -0.243724,1.402778 -0.128932,1.70462 0.645975,1.698556 0.518301,-0.0035 8.500992,-1.480731 17.739322,-3.28151 z m 45.31677,1.740936 c -0.19479,-0.554567 -25.24452,-16.862112 -25.50361,-16.603016 -0.18692,0.186913 1.9752,10.435166 2.26564,10.738908 0.13622,0.142456 21.68455,6.008948 23.23797,6.326482 0.0963,0.0197 0.0963,-0.188399 0,-0.462374 z M 51.370918,34.505723 c 4.261296,-1.278834 7.80343,-2.400818 7.871407,-2.493295 0.06798,-0.0925 1.603616,-2.13318 3.412527,-4.534895 1.808911,-2.401703 3.1929,-4.46277 3.075536,-4.58013 -0.222501,-0.222509 -21.246633,12.510225 -22.152518,13.416107 -0.751365,0.751368 -0.677048,0.734118 7.793048,-1.807787 z m 84.092042,-4.367379 c -0.14382,-0.505226 -0.66038,-2.808246 -1.14792,-5.117826 -0.48755,-2.309579 -1.07452,-4.403741 -1.30441,-4.653694 -0.43494,-0.472921 -27.27575,-2.083342 -27.69728,-1.661803 -0.29783,0.297831 -0.55824,0.184152 15.64301,6.828074 7.3618,3.01898 13.69624,5.496867 14.07657,5.506435 0.41123,0.01062 0.58553,-0.354936 0.43003,-0.901186 z M 77.86818,24.966646 c 14.667456,-5.637069 15.089358,-5.814932 14.699589,-6.196828 -0.1545,-0.151375 -21.118554,1.011786 -22.386062,1.242058 -0.272709,0.04955 -7.489766,9.851751 -7.489766,10.172601 0,0.191148 0.156458,0.347538 0.347682,0.347538 0.191227,0 6.864079,-2.504409 14.828557,-5.565369 z m 21.814962,-9.193945 c 1.030368,-0.983186 1.030368,-0.98787 0,-0.9962 -1.933109,-0.01557 -11.530535,1.749385 -12.056946,2.217339 -0.305589,0.271662 1.880136,0.320001 5.249047,0.116098 4.616044,-0.279402 5.980092,-0.547335 6.807899,-1.337225 z m 18.648698,1.428416 c 0,-0.114564 -3.46146,-0.858404 -7.69214,-1.653002 -7.42862,-1.39525 -7.71633,-1.41165 -8.39847,-0.47875 -0.38849,0.531278 -0.70634,1.146242 -0.70634,1.366568 0,0.220327 1.5944,0.483222 3.54311,0.584218 5.83441,0.302385 13.25384,0.403688 13.25384,0.180966 z"
           style="opacity:1;fill:#b50000;fill-opacity:1;fill-rule:nonzero;stroke:#c30000;stroke-width:0.52573127;stroke-linejoin:round;stroke-miterlimit:4;stroke-dasharray:none;stroke-dashoffset:0;stroke-opacity:0.89743593" />
      </g>
      <path
         transform="scale(0.26458333)"
         inkscape:connector-curvature="0"
         id="path21"
         d="m 316.37327,836.94914 c -11.78571,-1.7306 -50.03571,-7.35937 -85,-12.50837 l -63.57143,-9.36181 -42.14285,-13.59372 C 76.000667,785.4673 67.927753,782.62741 58.806926,777.96794 50.094227,773.51698 45.514705,769.35613 33.066161,754.58049 l -9.907174,-11.7592 V 686.58688 630.35247 L 36.67941,572.80344 c 7.436233,-31.65196 13.784447,-57.98736 14.107143,-58.52311 0.322696,-0.53575 16.470805,-24.33394 35.884688,-52.88486 l 35.297969,-51.91078 h 3.88559 c 3.40947,0 3.82607,0.15318 3.39975,1.25 -10.88803,28.01287 -25.34768,69.73598 -24.4715,70.61216 1.12862,1.12862 15.57422,-12.24805 65.02672,-60.21496 l 12.00793,-11.6472 h 4.18338 4.18338 l -6.54845,6.22878 c -46.68429,44.40531 -75.09112,72.33732 -77.12312,75.83402 -1.27715,2.19777 -1.27388,2.22441 0.35715,2.9129 1.69852,0.71698 30.6514,3.22151 66.27445,5.73298 23.97303,1.69012 28.50903,1.77494 28.94973,0.54132 0.48953,-1.37028 4.31107,-36.1256 6.73477,-61.25 1.1938,-12.375 2.35811,-24.1875 2.58738,-26.25 l 0.41684,-3.75 h 2.80575 c 2.19788,0 2.80464,0.27081 2.80065,1.25 -0.003,0.6875 -0.97535,10.41072 -2.16123,21.60715 -2.99036,28.23352 -5.69082,57.4432 -5.69082,61.55523 0,1.9083 0.33128,3.44477 0.74274,3.44477 2.18625,0 11.48262,-5.69553 51.04297,-31.27208 51.72597,-33.44186 81.78572,-53.73722 81.78572,-55.21903 0,-0.30085 -0.5625,-0.694 -1.25,-0.87366 -0.6875,-0.17966 4.69643,-0.35903 11.96428,-0.39858 7.7073,-0.0419 12.80675,0.18625 12.23637,0.54758 -1.15918,0.73433 1.18435,2.67331 18.08077,14.95951 13.77303,10.01505 105.07976,73.97189 107.36036,75.2018 0.88333,0.47637 1.81592,0.65628 2.0724,0.3998 1.34114,-1.34114 4.72915,-30.87626 8.45452,-73.70249 1.60119,-18.40702 1.37688,-17.5 4.32795,-17.5 2.96359,0 2.91193,-0.51888 1.42236,14.28572 -1.64195,16.31905 -5.97768,63.9381 -6.50724,71.46844 -0.62419,8.87611 -0.0705,9.60733 6.79011,8.96664 2.58004,-0.24093 15.45883,-1.08412 28.61955,-1.87373 86.31296,-5.17859 88.57142,-5.34195 88.57142,-6.40647 0,-0.76272 -48.30835,-48.43082 -69.86657,-68.9406 l -18.01918,-17.14285 4.35405,-0.21406 4.35404,-0.21406 30.60643,30.31259 c 16.83353,16.67192 35.3511,34.69704 41.15013,40.05582 9.37977,8.66767 10.66217,9.62476 11.61687,8.67007 1.30473,-1.30474 1.08407,-3.7335 -4.30402,-47.37422 l -3.7277,-30.19242 -2.18917,-0.63601 c -1.77227,-0.5149 -1.16897,-0.64364 3.16798,-0.67603 l 5.35714,-0.04 36.66159,52.45638 36.66159,52.45638 5.33782,14.84065 c 7.46913,20.7663 18.48775,52.00262 24.84892,70.44335 l 5.38216,15.60271 -2.46765,44.75443 c -3.75373,68.07874 -4.63871,85.95794 -4.63871,93.71536 v 7.1074 l -32.27595,16.14109 -32.27594,16.14109 -67.18835,14.57161 -67.18833,14.5716 -44.64286,4.27002 c -80.03023,7.65478 -145.51391,13.66426 -147.5,13.53618 -0.39286,-0.0254 -10.35714,-1.46201 -22.14286,-3.19261 z m 66.2941,-5.99187 c 15.78825,-1.55716 39.15233,-3.82414 51.92019,-5.03773 45.48987,-4.32384 80.65913,-8.11193 83.75,-9.02073 0.6875,-0.20214 1.25,-0.77761 1.25,-1.27882 0,-3.64056 -79.49429,-133.99244 -81.71446,-133.99244 -0.69903,0 -23.89916,38.85015 -57.37093,96.07143 -27.57883,47.14708 -31.78211,54.64188 -31.32,55.84611 0.31389,0.818 1.00524,0.9982 2.60335,0.67858 1.19677,-0.23936 15.09361,-1.70923 30.88185,-3.2664 z m -46.65124,0.97451 c 0,-0.36192 -34.22823,-61.69199 -65.52897,-117.41469 -10.80541,-19.23616 -18.59351,-31.98634 -20.50904,-33.5761 -0.75022,-0.62261 -1.27997,-0.35675 -2.37655,1.19267 -5.07841,7.17561 -53.79433,92.3932 -67.60889,118.26662 -2.26157,4.23572 -3.94814,8.12817 -3.74794,8.64988 0.2002,0.52173 1.78048,1.30526 3.51172,1.74119 4.5874,1.15512 107.52833,16.35717 140.18824,20.70264 5.74459,0.76432 16.07143,1.04563 16.07143,0.43779 z m 19.15341,-21.91137 c 30.60262,-51.16401 76.42479,-130.9099 75.66036,-131.67432 -0.66943,-0.66944 -68.57799,-2.35128 -145.34948,-3.59976 -24.48803,-0.39824 -29.46429,-0.31639 -29.46429,0.4846 0,3.00677 84.857,154.96805 86.53602,154.96805 0.30141,0 5.97924,-9.08036 12.61739,-20.17857 z m 193.16335,2.62188 c 12.16883,-2.36773 67.44491,-14.27113 85.54038,-18.42064 19.5798,-4.48989 23.57143,-5.5418 23.57143,-6.21177 0,-3.54246 -41.91348,-110.50518 -47.79027,-121.96022 l -1.29344,-2.52118 -1.88851,3.22249 c -1.03868,1.77237 -11.16431,21.99645 -22.50139,44.94239 -33.24566,67.28827 -49.51613,101.28462 -48.92897,102.23466 0.56752,0.91829 3.34347,0.64974 13.29077,-1.28573 z m -17.80085,-5.83617 c 7.64884,-12.68523 72.62413,-146.84806 71.60993,-147.86225 -0.45833,-0.45833 -63.69681,6.49323 -118.82963,13.06249 -40.7535,4.85592 -39.43907,4.64723 -39.43907,6.26159 0,1.29066 15.47938,26.52558 58.80135,95.8596 21.20855,33.94292 23.09324,36.78571 24.38784,36.78571 0.5462,0 2.10751,-1.84821 3.46958,-4.10714 z m -367.65086,-1.19918 c 0.36997,-0.96413 -12.79301,-33.0037 -40.81097,-99.33653 -16.24699,-38.46493 -20.62266,-48.34632 -21.40314,-48.33382 -2.489126,0.0399 -34.276218,99.3923 -36.460865,113.96057 l -0.471946,3.14717 4.176649,1.57673 c 17.164706,6.47985 89.961092,29.85881 93.306212,29.9658 0.69983,0.0223 1.44866,-0.41858 1.66406,-0.97992 z m 7.44608,-2.72939 c 3.02248,-3.2177 14.26296,-22.15996 34.43878,-58.03571 25.25975,-44.91575 38.38576,-70.19297 36.92027,-71.0987 -3.07335,-1.89943 -131.00391,-24.05824 -135.09016,-23.39892 -1.55136,0.25032 2.61337,10.81413 33.17197,84.14047 10.39637,24.94643 21.11773,50.9006 23.82525,57.67594 2.70752,6.77533 4.9906,12.31997 5.0735,12.32143 0.0829,10e-4 0.83009,-0.72058 1.66039,-1.60451 z m 522.58536,-30.46996 c 20.63678,-10.30765 28.2606,-14.72633 29.07644,-16.85236 0.75061,-1.95605 -10.18624,-92.46602 -11.75981,-97.32054 -1.46751,-4.52734 -1.05555,-5.48288 -10.54748,24.46429 -11.66384,36.79951 -30.09421,97.42657 -30.09421,98.99546 0,1.83558 5.2101,-0.23881 23.32506,-9.28685 z m -25.20487,-6.32267 c 6.7169,-20.34088 28.24444,-89.49112 35.70009,-114.67492 l 2.49623,-8.43184 -1.69495,-0.64442 c -2.32678,-0.88464 -19.95584,1.78766 -66.34664,10.05717 -23.99664,4.27758 -23.27716,4.10551 -23.26573,5.56408 0.0291,3.71108 10.47392,31.19995 31.657,83.31542 14.76227,36.31874 15.52656,37.99493 16.92915,37.12808 0.31699,-0.19591 2.35317,-5.73702 4.52485,-12.31357 z M 52.89454,763.59184 c -0.807142,-3.0093 -5.40466,-24.40839 -10.473759,-48.75 -4.925426,-23.6517 -10.353831,-47.0919 -11.236563,-48.52019 -1.265844,-2.04818 -1.740355,6.81186 -2.101258,39.23447 l -0.397544,35.71429 7.813753,8.92857 c 11.324266,12.93994 17.66261,18.11753 16.395371,13.39286 z m 10.763505,-15 c 6.519309,-18.56965 25.624513,-78.74012 29.584249,-93.17347 1.762114,-6.42298 1.3182,-7.44952 -4.097761,-9.47589 -4.567445,-1.7089 -36.212987,-9.88253 -47.183278,-12.18682 -10.954575,-2.301 -10.35014,-2.95061 -8.321309,8.94332 5.218482,30.59311 23.875404,118.21428 25.171024,118.21428 0.286741,0 2.467925,-5.54464 4.847075,-12.32142 z M 724.85807,710.38013 c 1.41222,-10.3033 3.61395,-46.3512 4.43921,-72.68115 l 0.44776,-14.28572 -7.94388,7.86911 -7.94389,7.86912 4.82943,37.30869 c 2.65619,20.51978 5.02681,37.30903 5.26806,37.30946 0.24124,4.2e-4 0.64773,-1.52485 0.90331,-3.38951 z M 424.76613,671.16204 c 3.06562,-0.28953 4.82143,-0.77234 4.82143,-1.3258 0,-1.5203 -23.61679,-36.7105 -54.74394,-81.5712 -20.13833,-29.02353 -27.39638,-38.89928 -28.35798,-38.58559 -3.7367,1.21897 -88.32665,113.82494 -88.32665,117.58026 0,0.95294 9.10784,1.43385 42.85714,2.26296 72.85437,1.78979 116.0924,2.36258 123.75,1.63937 z m 28.39286,-1.32398 c 6.29706,-0.50163 48.17331,-5.22807 95.09412,-10.73296 31.80655,-3.73164 49.92241,-6.31655 51.88159,-7.40287 0.65162,-0.3613 -0.0528,-1.88877 -2.52086,-5.46662 -15.9623,-23.13942 -94.25395,-125.5881 -98.95896,-129.49291 -0.87776,-0.72847 -1.35256,-0.0971 -2.988,3.97366 -7.64681,19.03335 -52.50789,146.51895 -52.50789,149.21621 0,0.77642 0.59735,0.95367 2.32143,0.68884 1.27678,-0.19612 4.73214,-0.54863 7.67857,-0.78335 z m -208.68886,-3.03194 c 0.46029,-0.8891 -2.52574,-13.10811 -10.3423,-42.32143 -20.98412,-78.42527 -29.27586,-108.50481 -30.17349,-109.45895 -0.87177,-0.92665 -17.56822,20.0808 -48.39259,60.88752 -32.02008,42.38968 -49.23733,66.32963 -48.3219,67.1898 0.63389,0.59563 51.64109,10.08254 97.34771,18.10586 25.72175,4.51519 35.93688,6.29901 38.72487,6.76234 0.28082,0.0466 0.80179,-0.47764 1.1577,-1.16514 z m 198.99119,-17.06973 c 14.4777,-40.32518 47.46475,-133.66788 47.67135,-134.89455 0.48227,-2.86348 -5.5852,-1.78086 -61.90225,11.04518 -47.03268,10.71156 -73.72813,17.53264 -75.61934,19.32184 -0.88647,0.83866 -0.98615,0.6896 63.75864,95.34726 8.33,12.17857 15.99563,22.90437 17.03472,23.83512 1.88533,1.68874 1.89168,1.68926 3.05576,0.25169 0.64158,-0.79232 3.34208,-7.50026 6.00112,-14.90654 z m -189.13951,8.14116 c 5.17143,-5.52046 10.31801,-12.02366 28.9706,-36.60714 34.98821,-46.11327 57.31028,-76.77271 56.48886,-77.58767 -0.69564,-0.69018 -25.45492,-7.23764 -75.19371,-19.88458 -51.65364,-13.13382 -52.66264,-13.36511 -53.71462,-12.31313 -1.14115,1.14115 -1.50812,-0.37102 13.5549,55.85681 7.10393,26.51785 15.5153,58.17857 18.69192,70.35714 3.17662,12.17857 5.92131,22.54464 6.09932,23.03571 0.55469,1.53026 1.47594,1.01443 5.10273,-2.85714 z M 647.4447,645.14029 c 34.10157,-5.66118 55.74679,-9.90919 56.17485,-11.02468 0.18959,-0.49407 -1.80416,-5.1935 -4.43056,-10.44318 -13.5298,-27.04359 -56.53399,-105.65012 -60.71153,-110.97345 -1.07182,-1.36579 -1.16293,-1.37216 -2.07325,-0.14475 -1.15742,1.56055 -2.00032,6.04754 -11.09728,59.07332 -10.79971,62.95106 -12.98819,76.49861 -12.54444,77.65501 0.53856,1.40347 3.16727,1.08951 34.68221,-4.14227 z m -36.09803,-24.0819 c 6.18838,-33.75988 18.20218,-106.95241 18.4099,-112.1599 l 0.18813,-4.71683 -2.85714,-0.51156 c -2.8239,-0.50561 -9.8312,-0.22156 -46.78572,1.89653 -50.79044,2.9111 -74.59371,4.70226 -75.57862,5.68716 -0.59438,0.59438 4.41683,7.69523 21.18335,30.01662 25.7399,34.2677 60.293,78.92468 74.25815,95.9724 4.60606,5.62278 6.20491,7.14691 6.6545,6.34353 0.32548,-0.58159 2.36283,-10.71917 4.52745,-22.52795 z M 96.155308,628.05612 C 95.58833,595.54004 92.569277,515.57177 91.815403,513.10118 c -0.482764,-1.58212 -0.79343,-1.25682 -3.410775,3.57143 -21.06938,38.8669 -46.072716,85.89833 -52.681011,99.09331 -1.828542,3.65111 -3.143017,6.93222 -2.921056,7.29136 1.196063,1.93527 57.603041,18.06583 61.784997,17.66851 l 1.785715,-0.16967 z m 19.743542,-8.94301 c 26.54511,-34.18268 81.50364,-107.89935 81.53089,-109.35855 0.008,-0.44087 -1.25797,-1.00512 -2.81379,-1.2539 -9.22354,-1.47491 -67.95886,-6.46303 -86.27839,-7.32724 l -10.178573,-0.48016 0.0014,7.78857 c 0.0043,29.67686 3.488993,121.64931 4.746713,125.28858 0.45291,1.31053 1.57469,0.045 12.99197,-14.6573 z m 603.07824,6.4535 c 1.75747,-1.36924 5.03014,-4.56641 7.2726,-7.10483 l 4.07721,-4.61532 -5.44321,-15.93088 c -12.27682,-35.93107 -17.40963,-48.97479 -18.90764,-48.04897 -0.40893,0.25273 -0.54256,2.28257 -0.31912,4.84786 0.21141,2.42719 0.87415,10.03808 1.47276,16.91308 1.59596,18.32936 4.52718,46.20449 5.32441,50.63371 0.65817,3.65664 1.69797,5.79486 2.81799,5.79486 0.28028,0 1.94753,-1.12028 3.705,-2.48951 z m -13.676,-10.18906 c -0.002,-6.44309 -5.96034,-73.36615 -7.89399,-88.67088 -0.74841,-5.92365 -1.22788,-6.74534 -5.08398,-8.71258 -4.6502,-2.37235 -43.2526,-12.08083 -48.03526,-12.08083 h -1.85417 l 4.28085,8.53977 c 4.65183,9.27981 26.59543,49.44085 41.97227,76.81738 10.00584,17.81414 15.08988,26.07143 16.05224,26.07143 0.30954,0 0.56246,-0.88393 0.56204,-1.96429 z M 39.811265,594.30612 c 2.4435,-3.28839 6.258282,-10.03103 15.827606,-27.97536 8.215217,-15.4051 28.44533,-55.42914 29.746713,-58.85203 0.627297,-1.64992 0.547196,-1.72737 -1.386553,-1.34062 -2.180588,0.43612 -17.725108,6.47484 -24.541603,9.5339 l -4.073951,1.82828 -2.952534,12.2422 c -4.18227,17.3411 -15.700528,66.17102 -15.700528,66.56002 0,1.03866 1.592306,0.007 3.08085,-1.99639 z m 361.562005,-67.7367 c 58.44568,-13.15718 85.44672,-19.80716 85.88571,-21.15246 0.33656,-1.03137 -3.94226,-4.20735 -31.24285,-23.19012 -63.27942,-43.99977 -96.53199,-66.49776 -97.2347,-65.78697 -1.31413,1.32925 -6.88228,73.08263 -8.19612,105.61847 -0.47297,11.71266 -0.43287,12.27695 0.97251,13.68232 l 1.46582,1.46583 9.8891,-2.10255 c 5.43901,-1.15642 22.74625,-4.99695 38.46053,-8.53452 z m -57.61005,8.80813 c 0.35997,-0.6875 0.87434,-5.42857 1.14303,-10.53571 0.26869,-5.10715 1.59167,-27.125 2.93994,-48.92858 2.51196,-40.62205 3.02684,-58.1341 1.73274,-58.9339 -0.8991,-0.55567 -5.40914,2.01161 -21.77709,12.39629 -42.62532,27.04376 -111.6824,73.54477 -111.76217,75.25736 -0.033,0.70915 5.7437,2.34493 37.11932,10.51097 51.8278,13.48906 83.9303,21.40796 86.93915,21.44576 2.16825,0.0272 3.19371,-0.31193 3.66508,-1.21219 z m 345.82434,-25.59223 c 0,-1.36421 -8.32039,-13.82921 -33.81407,-50.65777 -22.46932,-32.45954 -24.69855,-35.50031 -25.75468,-35.13044 -1.02165,0.35779 -0.7605,5.90442 1.06551,22.63044 1.6074,14.72356 5.19066,40.66321 6.38908,46.25126 l 0.77874,3.63112 7.98914,2.53886 c 12.56671,3.99356 40.29562,11.71425 42.45342,11.82051 0.49107,0.0242 0.89286,-0.46361 0.89286,-1.08398 z M 74.757655,503.33681 c 12.080638,-5.42947 18.1947,-8.71433 18.732668,-10.06439 0.282228,-0.70825 3.821628,-10.44844 7.865347,-21.64487 8.65228,-23.95688 12.74816,-36.43611 12.15393,-37.03034 -0.23556,-0.23556 -0.65188,-0.10832 -0.92516,0.28275 -0.27329,0.39107 -2.7638,3.75676 -5.53447,7.47931 -5.05072,6.78593 -35.92452,51.44981 -41.10436,59.46403 -4.336642,6.70962 -3.188225,6.90687 8.812045,1.51351 z"
         style="opacity:1;fill:#ffffff;fill-opacity:1;fill-rule:nonzero;stroke:#000000;stroke-width:1.88976371;stroke-linejoin:round;stroke-miterlimit:4;stroke-dasharray:none;stroke-dashoffset:0;stroke-opacity:1" />
      <path
         transform="scale(0.26458333)"
         inkscape:connector-curvature="0"
         id="path23"
         d="m 324.82029,405.5655 c -27.38491,-7.0187 -89.37075,-20.3518 -99.5737,-21.41822 l -4.14008,-0.43272 -0.42169,2.10841 c -0.23193,1.15963 -0.97556,6.83963 -1.65252,12.62222 -0.98988,8.45553 -1.42921,10.43769 -2.24413,10.12498 -0.55731,-0.21386 -1.97295,-0.38884 -3.14586,-0.38884 -1.69337,0 -2.05767,-0.25744 -1.7689,-1.25 0.85063,-2.92381 1.34521,-17.50162 0.58473,-17.235 -0.4247,0.14889 -5.37053,4.44929 -10.99073,9.55643 l -10.21855,9.28571 -3.83546,-0.21886 -3.83547,-0.21887 9.72832,-9.884 c 5.35059,-5.43621 9.72833,-10.20941 9.72833,-10.60712 0,-0.39772 -0.72322,-0.55614 -1.60714,-0.35205 -9.4747,2.1876 -50.69989,14.50772 -63.86881,19.08715 -6.02685,2.0958 -7.57779,2.37421 -10.92449,1.96102 l -3.90043,-0.48155 2.11472,-2.2399 c 1.55692,-1.64908 108.92517,-68.17333 128.18615,-79.4228 1.86191,-1.08746 18.17866,-4.29784 63.92857,-12.57818 33.78571,-6.11492 62.39286,-11.10748 63.57143,-11.09459 1.17857,0.0129 28.5,5.09067 60.71428,11.28393 l 58.57143,11.26048 62.5,40.58789 c 34.375,22.32334 62.97067,41.03168 63.54592,41.5741 0.89753,0.8463 0.51086,0.98621 -2.72553,0.98621 -2.07429,0 -4.34471,0.3068 -5.04536,0.68178 -0.93353,0.49961 -9.65252,-1.51579 -32.63161,-7.54284 -17.24674,-4.52353 -37.30413,-9.67003 -44.57199,-11.43665 -7.26786,-1.76662 -13.77678,-3.37615 -14.46428,-3.57673 -2.65481,-0.77454 -0.90535,1.50848 8.7459,11.41328 l 9.99591,10.25851 -4.37915,0.45771 -4.37914,0.45771 -6.05432,-5.53496 c -7.59251,-6.9412 -17.41736,-15.17781 -18.10451,-15.17781 -0.2863,0 -0.71046,1.20536 -0.94257,2.67857 -0.52657,3.34222 -1.83265,15.15158 -1.84055,16.64194 -0.004,0.82388 -0.75427,1.09735 -2.93797,1.07143 l -2.9321,-0.0348 0.41428,-3.57143 c 0.88048,-7.59033 1.36095,-21.78569 0.73736,-21.78495 -3.775,0.004 -94.14834,17.15624 -124.31329,23.59318 -11.03218,2.35416 -13.36396,2.65115 -15.71429,2.00144 -2.64056,-0.72994 -21.44293,-0.50954 -23.83128,0.27935 -0.58928,0.19465 -7.82143,-1.37611 -16.07143,-3.49056 z m 27.33147,-3.40357 c 1.45592,-1.85091 2.7499,-8.82974 6.56543,-35.40917 3.19573,-22.26195 5.23684,-39.31865 4.76193,-39.79355 -1.23866,-1.23866 -117.01163,43.49244 -129.49296,50.03206 l -1.9076,0.9995 2.4423,0.79025 c 3.83768,1.24175 36.98672,8.92712 66.728,15.47042 49.01332,10.78328 48.68348,10.73202 50.9029,7.91049 z m 33.20264,-2.21505 c 47.49186,-8.67856 107.68018,-21.22175 107.68018,-22.44045 0,-1.01531 -28.56579,-13.82059 -68.92857,-30.89884 -21.47967,-9.08845 -51.52488,-21.2834 -52.43679,-21.2834 -0.34356,0 -0.80504,0.47008 -1.02551,1.04462 -0.90821,2.36674 -12.04272,75.39688 -11.651,76.4177 0.64803,1.68876 2.92043,1.44398 26.36169,-2.83963 z m 214.82304,-1.32534 c 0,-2.29282 -94.87008,-64.37965 -96.25595,-62.99379 -1.01923,1.01923 7.00484,38.64944 8.54911,40.09249 1.19302,1.11483 83.2234,23.74243 86.45684,23.84861 0.6875,0.0226 1.25,-0.40371 1.25,-0.94731 z M 178.74886,387.75031 c 10.01786,-2.97188 22.60359,-6.83064 27.96829,-8.57504 l 9.754,-3.17161 9.99087,-13.37545 c 9.91962,-13.28006 14.4297,-19.86489 14.4297,-21.06772 0,-0.82366 -3.53123,1.19271 -33.21428,18.96574 -29.93986,17.9268 -48.81833,29.83341 -50.73646,31.99938 l -1.4064,1.58811 2.5,-0.48 c 1.375,-0.264 10.69643,-2.91154 20.71428,-5.88341 z m 325.58575,-16.53327 c 0.43045,-0.84601 -0.46071,-6.08121 -2.75737,-16.19841 -4.22096,-18.59407 -5.58192,-23.14676 -7.04451,-23.56531 -7.9436,-2.27321 -104.35529,-7.47896 -104.35529,-5.63467 0,1.09273 4.7718,3.18138 45.71428,20.00949 32.75636,13.46346 65.86982,26.56118 67.2963,26.61842 0.28082,0.0113 0.79679,-0.54202 1.14659,-1.22952 z m -267.49286,-2.95842 c 3.20963,-1.13606 19.33569,-7.22048 35.83569,-13.52093 62.1479,-23.73091 71.19015,-27.43781 69.95092,-28.67666 -0.41061,-0.41049 -5.99607,-0.40371 -14.59378,0.0177 -22.82725,1.11891 -62.93371,3.49918 -67.01307,3.97714 l -3.79877,0.44509 -10.19794,13.6616 c -13.76361,18.43833 -17.83585,24.42579 -17.25352,25.36802 0.64732,1.04738 0.38383,1.09479 7.07047,-1.27198 z m 116.24722,-49.39995 c 9.85962,-0.88827 14.03667,-2.17154 16.99145,-5.2201 1.50892,-1.55682 2.07802,-2.61582 1.57334,-2.92773 -2.00089,-1.23661 -43.91967,5.80608 -47.41455,7.96603 -2.74996,1.69958 11.03826,1.78646 28.84976,0.1818 z m 85.98132,0.82577 c -1.60443,-1.51263 -47.44782,-10.07454 -53.94254,-10.07454 -3.63654,0 -4.41636,0.25466 -6.01516,1.96429 -1.93238,2.06633 -2.92485,4.63822 -2.22613,5.76878 0.95758,1.54938 19.15473,2.68964 45.75526,2.86709 10.09985,0.0674 16.82919,-0.14792 16.42857,-0.52562 z"
         style="opacity:1;fill:#ffffff;fill-opacity:1;fill-rule:nonzero;stroke:#000000;stroke-width:1.88976371;stroke-linejoin:round;stroke-miterlimit:4;stroke-dasharray:none;stroke-dashoffset:0;stroke-opacity:1" />
      <path
         transform="scale(0.26458333)"
         inkscape:connector-curvature="0"
         id="path25"
         d="m 219.10601,662.38749 c -23.20432,-4.09767 -94.95777,-17.17401 -104.04614,-18.96136 l -6.18899,-1.21715 2.92359,-4.33526 c 14.61646,-21.67401 85.74839,-115.44713 90.64624,-119.49879 0.91535,-0.7572 1.66171,1.25494 5.43145,14.64286 9.3773,33.30265 35.16242,130.23695 35.16242,132.18646 0,1.27152 -2.33179,0.99703 -23.92857,-2.81676 z"
         style="opacity:1;fill:#d40000;fill-opacity:1;fill-rule:nonzero;stroke:#000000;stroke-width:1.88976371;stroke-linejoin:round;stroke-miterlimit:4;stroke-dasharray:none;stroke-dashoffset:0;stroke-opacity:1" />
      <path
         transform="scale(0.26458333)"
         inkscape:connector-curvature="0"
         id="path27"
         d="m 248.11003,650.98268 c -5.11725,-19.60669 -25.51611,-96.49939 -30.39881,-114.58706 -6.60346,-24.46218 -6.48873,-23.92857 -5.14496,-23.92857 3.20069,0 123.56036,30.90676 124.9039,32.07366 1.26464,1.09838 -72.68578,99.97618 -83.06141,111.05994 l -3.98298,4.25481 z"
         style="opacity:1;fill:#d40000;fill-opacity:1;fill-rule:nonzero;stroke:#000000;stroke-width:1.88976371;stroke-linejoin:round;stroke-miterlimit:4;stroke-dasharray:none;stroke-dashoffset:0;stroke-opacity:1" />
      <path
         transform="scale(0.26458333)"
         inkscape:connector-curvature="0"
         id="path29"
         d="m 297.67744,525.03968 c -40.20408,-10.1577 -74.077,-19.02325 -77.44656,-20.27005 -1.61059,-0.59595 -1.10888,-1.08552 7.14286,-6.97003 27.6114,-19.69031 118.23051,-78.90398 120.75268,-78.90398 1.19089,0 0.61233,18.46593 -1.85751,59.28571 -1.36679,22.58929 -2.73401,44.60714 -3.03827,48.92857 l -0.5532,7.85715 -2.14286,0.17962 c -1.17857,0.0988 -20.46429,-4.44935 -42.85714,-10.10699 z"
         style="opacity:1;fill:#d40000;fill-opacity:1;fill-rule:nonzero;stroke:#000000;stroke-width:1.88976371;stroke-linejoin:round;stroke-miterlimit:4;stroke-dasharray:none;stroke-dashoffset:0;stroke-opacity:1" />
      <path
         transform="scale(0.26458333)"
         inkscape:connector-curvature="0"
         id="path31"
         d="m 211.20333,489.78847 c 3.1749,-36.65735 9.52878,-97.15192 10.81249,-102.94445 0.35429,-1.59868 0.58545,-1.66715 4.08999,-1.21136 13.2161,1.71883 92.28977,19.12733 109.6161,24.13258 l 5.18734,1.49852 -4.83019,3.53319 c -7.60628,5.56385 -36.06121,24.50455 -64.11591,42.67804 -45.51712,29.48542 -58.88162,37.8492 -60.47933,37.8492 -0.51293,0 -0.6041,-1.7993 -0.28049,-5.53572 z"
         style="opacity:1;fill:#d40000;fill-opacity:1;fill-rule:nonzero;stroke:#000000;stroke-width:1.88976371;stroke-linejoin:round;stroke-miterlimit:4;stroke-dasharray:none;stroke-dashoffset:0;stroke-opacity:1" />
      <path
         transform="scale(0.26458333)"
         inkscape:connector-curvature="0"
         id="path33"
         d="m 340.53458,401.27092 c -30.26919,-6.34116 -90.94499,-19.98319 -100.71429,-22.64407 l -3.57143,-0.97276 5,-2.30031 c 17.9603,-8.26288 119.69938,-47.35402 120.68333,-46.37008 0.17368,0.17368 -0.46749,6.41242 -1.42483,13.86385 -4.24717,33.05776 -7.90498,55.8141 -9.32482,58.01235 -1.22262,1.89292 -3.20835,1.96957 -10.64796,0.41102 z"
         style="opacity:1;fill:#d40000;fill-opacity:1;fill-rule:nonzero;stroke:#000000;stroke-width:1.88976371;stroke-linejoin:round;stroke-miterlimit:4;stroke-dasharray:none;stroke-dashoffset:0;stroke-opacity:1" />
      <path
         transform="scale(0.26458333)"
         inkscape:connector-curvature="0"
         id="path35"
         d="m 231.9935,367.39265 c 1.18429,-1.96611 15.65436,-21.84787 20.8366,-28.62934 l 5.28659,-6.91801 3.70894,-0.42599 c 5.72545,-0.65758 50.10971,-3.15221 63.70895,-3.58077 l 12.14286,-0.38267 -3.9031,1.84447 c -6.49938,3.07139 -96.1955,37.53677 -100.50303,38.61789 -1.48978,0.37391 -1.75413,0.26518 -1.27781,-0.52558 z"
         style="opacity:1;fill:#d40000;fill-opacity:1;fill-rule:nonzero;stroke:#000000;stroke-width:1.88976371;stroke-linejoin:round;stroke-miterlimit:4;stroke-dasharray:none;stroke-dashoffset:0;stroke-opacity:1" />
      <path
         transform="scale(0.26458333)"
         inkscape:connector-curvature="0"
         id="path37"
         d="m 501.60601,370.48429 c -5.36943,-1.67863 -86.11535,-34.3744 -102.5,-41.50448 l -5,-2.17583 6.07143,-0.0219 c 19.98869,-0.0722 92.50515,5.02219 94.0606,6.60792 1.3341,1.36006 9.17357,34.39729 8.66277,36.50679 -0.12285,0.50737 -0.70552,0.77176 -1.2948,0.58754 z"
         style="opacity:1;fill:#d40000;fill-opacity:1;fill-rule:nonzero;stroke:#000000;stroke-width:1.88976371;stroke-linejoin:round;stroke-miterlimit:4;stroke-dasharray:none;stroke-dashoffset:0;stroke-opacity:1" />
      <path
         transform="scale(0.26458333)"
         inkscape:connector-curvature="0"
         id="path39"
         d="m 360.51704,399.88971 c 0.35669,-2.54989 8.63443,-55.99071 10.51848,-67.90704 l 0.81065,-5.12724 4.60777,1.73436 c 17.6315,6.63648 111.26735,46.62887 113.54859,48.49724 1.09331,0.89543 -112.34966,23.52281 -125.94055,25.12015 l -3.9338,0.46234 z"
         style="opacity:1;fill:#d40000;fill-opacity:1;fill-rule:nonzero;stroke:#000000;stroke-width:1.88976371;stroke-linejoin:round;stroke-miterlimit:4;stroke-dasharray:none;stroke-dashoffset:0;stroke-opacity:1" />
      <path
         transform="scale(0.26458333)"
         inkscape:connector-curvature="0"
         id="path41"
         d="m 444.46315,465.80901 c -44.8048,-31.36018 -69.69413,-49.0923 -74.48102,-53.06316 l -1.98101,-1.6433 2.6953,-0.72355 c 7.54852,-2.02638 90.28194,-18.17246 117.33816,-22.89946 6.875,-1.20114 13.27173,-2.35648 14.21497,-2.56743 l 1.71498,-0.38355 -0.48649,7.71924 c -1.67621,26.59721 -8.57015,96.80798 -10.30943,104.99562 l -0.49117,2.31217 z"
         style="opacity:1;fill:#d40000;fill-opacity:1;fill-rule:nonzero;stroke:#000000;stroke-width:1.88976371;stroke-linejoin:round;stroke-miterlimit:4;stroke-dasharray:none;stroke-dashoffset:0;stroke-opacity:1" />
      <path
         transform="scale(0.26458333)"
         inkscape:connector-curvature="0"
         id="path43"
         d="m 351.95248,533.13274 c -0.4887,-2.22502 -0.36385,-5.25876 1.49717,-36.37998 1.76762,-29.55944 5.64226,-77.72244 6.30615,-78.38757 0.6726,-0.67385 123.7973,84.19436 125.02204,86.17602 0.43863,0.70972 0.81929,0.59114 -13.88612,4.3258 -23.8603,6.05969 -114.09719,26.45718 -117.04447,26.45718 -0.99669,0 -1.55537,-0.64617 -1.89477,-2.19145 z"
         style="opacity:1;fill:#d40000;fill-opacity:1;fill-rule:nonzero;stroke:#000000;stroke-width:1.88976371;stroke-linejoin:round;stroke-miterlimit:4;stroke-dasharray:none;stroke-dashoffset:0;stroke-opacity:1" />
      <path
         transform="scale(0.26458333)"
         inkscape:connector-curvature="0"
         id="path45"
         d="m 434.02573,661.89181 c -3.36365,-4.29083 -74.02345,-107.68359 -77.34246,-113.17115 l -1.61787,-2.67495 2.0203,-0.77631 c 6.78661,-2.60779 42.41968,-11.26693 92.02031,-22.36172 29.75621,-6.65594 39.56522,-8.61351 40.1634,-8.01533 0.21605,0.21606 -0.48769,2.89268 -1.56389,5.94805 -20.92668,59.41192 -49.08963,138.22282 -50.41863,141.09093 -1.11024,2.39602 -1.35423,2.39307 -3.26116,-0.0395 z"
         style="opacity:1;fill:#d40000;fill-opacity:1;fill-rule:nonzero;stroke:#000000;stroke-width:1.88976371;stroke-linejoin:round;stroke-miterlimit:4;stroke-dasharray:none;stroke-dashoffset:0;stroke-opacity:1" />
      <path
         transform="scale(0.26458333)"
         inkscape:connector-curvature="0"
         id="path47"
         d="M 371.60601,669.55779 C 319,668.55845 271.27184,667.34788 265.66725,666.87077 l -5.58161,-0.47515 4.99407,-7.26285 c 20.66214,-30.04882 79.3907,-107.38001 81.5489,-107.38001 1.28103,0 33.0058,45.33586 63.72924,91.07143 l 17.75372,26.42857 -5.21706,0.44236 c -6.57978,0.55789 -16.02209,0.53261 -51.2885,-0.13733 z"
         style="opacity:1;fill:#d40000;fill-opacity:1;fill-rule:nonzero;stroke:#000000;stroke-width:1.88976371;stroke-linejoin:round;stroke-miterlimit:4;stroke-dasharray:none;stroke-dashoffset:0;stroke-opacity:1" />
      <path
         transform="scale(0.26458333)"
         inkscape:connector-curvature="0"
         id="path49"
         d="m 445.17744,668.26971 c 0,-2.52203 49.60077,-142.9962 52.40993,-148.42996 0.74693,-1.4448 1.52261,-0.6544 10.86535,11.07143 27.98768,35.12659 91.06549,118.88176 90.19099,119.75625 -1.02018,1.02019 -29.03732,4.59576 -97.75199,12.47518 -51.21103,5.87231 -55.71428,6.28672 -55.71428,5.1271 z"
         style="opacity:1;fill:#d40000;fill-opacity:1;fill-rule:nonzero;stroke:#000000;stroke-width:1.88976371;stroke-linejoin:round;stroke-miterlimit:4;stroke-dasharray:none;stroke-dashoffset:0;stroke-opacity:1" />
      <path
         transform="scale(0.26458333)"
         inkscape:connector-curvature="0"
         id="path51"
         d="m 602.16269,637.33573 c -9.87721,-11.69896 -45.35594,-57.47588 -72.69617,-93.79726 -20.67715,-27.46949 -23.08713,-30.849 -22.32853,-31.31113 2.00175,-1.21943 114.91935,-8.0834 119.36591,-7.25595 l 2.3979,0.44622 -0.48201,4.06043 c -2.2425,18.89078 -21.28026,129.75392 -22.50809,131.07198 -0.29868,0.32063 -1.98574,-1.1258 -3.74901,-3.21429 z"
         style="opacity:1;fill:#d40000;fill-opacity:1;fill-rule:nonzero;stroke:#000000;stroke-width:1.88976371;stroke-linejoin:round;stroke-miterlimit:4;stroke-dasharray:none;stroke-dashoffset:0;stroke-opacity:1" />
      <path
         transform="scale(0.26458333)"
         inkscape:connector-curvature="0"
         id="path53"
         d="m 503.07163,501.822 c -0.84086,-1.57118 0.15916,-14.88468 4.61933,-61.49781 3.7646,-39.34368 4.78155,-48.87942 5.27241,-49.43824 0.55198,-0.6284 12.39362,9.64561 27.57121,23.92125 18.03013,16.95866 80.42321,77.8772 81.14658,79.22885 0.54128,1.01139 0.25398,1.28634 -1.6752,1.60322 -2.05692,0.33786 -23.01924,1.67278 -62.68567,3.99194 -34.01561,1.98878 -47.76293,2.86785 -50.49076,3.22862 -2.4998,0.33062 -3.1167,0.16024 -3.7579,-1.03783 z"
         style="opacity:1;fill:#d40000;fill-opacity:1;fill-rule:nonzero;stroke:#000000;stroke-width:1.88976371;stroke-linejoin:round;stroke-miterlimit:4;stroke-dasharray:none;stroke-dashoffset:0;stroke-opacity:1" />
      <path
         transform="scale(0.26458333)"
         inkscape:connector-curvature="0"
         id="path55"
         d="m 615.83491,475.86977 c -14.71476,-13.71443 -87.08605,-85.92673 -87.08605,-86.89474 0,-0.36777 10.52679,2.00336 23.39286,5.26919 24.44974,6.20613 67.55524,17.51622 67.84889,17.80229 0.29585,0.28823 8.0945,64.08928 8.54228,69.88482 0.23525,3.04464 0.27415,5.53572 0.0865,5.53572 -0.18769,0 -5.94069,-5.21878 -12.78444,-11.59728 z"
         style="opacity:1;fill:#d40000;fill-opacity:1;fill-rule:nonzero;stroke:#000000;stroke-width:1.88976371;stroke-linejoin:round;stroke-miterlimit:4;stroke-dasharray:none;stroke-dashoffset:0;stroke-opacity:1" />
      <path
         transform="scale(0.26458333)"
         inkscape:connector-curvature="0"
         id="path57"
         d="m 590.17744,396.06283 c -2.55358,-0.71651 -18.30358,-5.02211 -35,-9.568 -16.69643,-4.54589 -32.92858,-9.03414 -36.07143,-9.97389 l -5.71429,-1.70865 -1.24944,-4.56548 c -1.03451,-3.78015 -6.96484,-31.39616 -6.96484,-32.43347 0,-1.20047 72.1076,45.45728 88.212,57.07821 3.99047,2.87952 3.50583,3.05625 -3.212,1.17128 z"
         style="opacity:1;fill:#d40000;fill-opacity:1;fill-rule:nonzero;stroke:#000000;stroke-width:1.88976371;stroke-linejoin:round;stroke-miterlimit:4;stroke-dasharray:none;stroke-dashoffset:0;stroke-opacity:1" />
      <path
         transform="scale(0.26458333)"
         inkscape:connector-curvature="0"
         id="path59"
         d="m 396.24886,318.1664 c -11.71782,-0.55135 -18.21428,-1.27754 -18.21428,-2.03602 0,-0.67788 2.25447,-3.90748 3.17288,-4.54525 2.04366,-1.41919 15.25406,0.35163 37.89855,5.08019 l 10,2.08818 -11.07143,-0.0415 c -6.08929,-0.0228 -15.89286,-0.26834 -21.78572,-0.54562 z"
         style="opacity:1;fill:#d40000;fill-opacity:1;fill-rule:nonzero;stroke:#000000;stroke-width:1.88976371;stroke-linejoin:round;stroke-miterlimit:4;stroke-dasharray:none;stroke-dashoffset:0;stroke-opacity:1" />
      <path
         transform="scale(0.26458333)"
         inkscape:connector-curvature="0"
         id="path61"
         d="m 330.19303,318.64309 c 0.18785,-0.18722 5.32369,-1.30778 11.41298,-2.49014 9.87351,-1.91715 16.15065,-2.91975 25.35714,-4.05008 l 2.85714,-0.35079 -1.97567,1.76159 c -1.08662,0.96887 -3.17591,2.08079 -4.64286,2.47093 -4.15545,1.10516 -33.84981,3.49671 -33.00873,2.65849 z"
         style="opacity:1;fill:#d40000;fill-opacity:1;fill-rule:nonzero;stroke:#000000;stroke-width:1.88976371;stroke-linejoin:round;stroke-miterlimit:4;stroke-dasharray:none;stroke-dashoffset:0;stroke-opacity:1" />
      <path
         transform="scale(0.26458333)"
         inkscape:connector-curvature="0"
         id="path63"
         d="m 173.74886,498.8393 c -34.31455,-2.46677 -63.92874,-5.01638 -65.35714,-5.62688 -1.25035,-0.5344 1.15568,-3.18706 19.28572,-21.26263 31.73101,-31.63571 82.88796,-80.04716 83.71395,-79.22118 0.57131,0.57132 -5.27777,61.96899 -8.73523,91.69339 -0.97044,8.34309 -1.76444,15.33416 -1.76444,15.53572 0,0.59445 -7.76857,0.27434 -27.14286,-1.11842 z"
         style="opacity:1;fill:#d40000;fill-opacity:1;fill-rule:nonzero;stroke:#000000;stroke-width:1.88976371;stroke-linejoin:round;stroke-miterlimit:4;stroke-dasharray:none;stroke-dashoffset:0;stroke-opacity:1" />
      <path
         transform="scale(0.26458333)"
         inkscape:connector-curvature="0"
         id="path65"
         d="m 106.60601,478.72102 c 0,-1.59752 18.07502,-52.45183 22.63808,-63.69256 l 2.00477,-4.93858 5,-1.72941 c 16.05003,-5.55144 59.92153,-18.75057 62.32348,-18.75057 1.56995,0 0.62297,0.9583 -35.18779,35.60832 -45.79494,44.31056 -56.77854,54.66049 -56.77854,53.5028 z"
         style="opacity:1;fill:#d40000;fill-opacity:1;fill-rule:nonzero;stroke:#000000;stroke-width:1.88976371;stroke-linejoin:round;stroke-miterlimit:4;stroke-dasharray:none;stroke-dashoffset:0;stroke-opacity:1" />
      <path
         transform="scale(0.26458333)"
         inkscape:connector-curvature="0"
         id="path67"
         d="m 161.70987,390.69651 c 2.20203,-2.20203 74.92671,-46.29413 75.46644,-45.7544 0.71851,0.71851 -21.57703,30.09685 -23.19435,30.56268 -0.71749,0.20666 -12.49741,3.78628 -26.1776,7.95471 -23.20092,7.06946 -26.97311,8.11563 -26.09449,7.23701 z"
         style="opacity:1;fill:#d40000;fill-opacity:1;fill-rule:nonzero;stroke:#000000;stroke-width:1.88976371;stroke-linejoin:round;stroke-miterlimit:4;stroke-dasharray:none;stroke-dashoffset:0;stroke-opacity:1" />
      <path
         transform="scale(0.26458333)"
         inkscape:connector-curvature="0"
         id="path69"
         d="m 66.106692,504.36569 c 0.463649,-1.20826 28.423493,-42.01457 37.919108,-55.34148 3.16865,-4.44713 5.86345,-7.77885 5.98847,-7.40381 0.20246,0.6074 -2.53223,8.55099 -14.530571,42.20764 l -3.413515,9.57528 -11.482089,5.52334 c -13.299232,6.39745 -15.110191,7.07762 -14.481403,5.43903 z"
         style="opacity:1;fill:#d40000;fill-opacity:1;fill-rule:nonzero;stroke:#000000;stroke-width:1.88976371;stroke-linejoin:round;stroke-miterlimit:4;stroke-dasharray:none;stroke-dashoffset:0;stroke-opacity:1" />
      <path
         transform="scale(0.26458333)"
         inkscape:connector-curvature="0"
         id="path71"
         d="m 39.463149,591.43524 c 0,-1.28795 16.903265,-72.54956 17.29639,-72.91897 0.385985,-0.36269 15.215146,-6.54664 20.423135,-8.5167 2.870737,-1.08594 5.430235,-1.76372 5.687772,-1.50618 0.540638,0.54064 -7.09754,16.08525 -21.431913,43.61651 -13.658442,26.23304 -21.975384,41.11636 -21.975384,39.32534 z"
         style="opacity:1;fill:#d40000;fill-opacity:1;fill-rule:nonzero;stroke:#000000;stroke-width:1.88976371;stroke-linejoin:round;stroke-miterlimit:4;stroke-dasharray:none;stroke-dashoffset:0;stroke-opacity:1" />
      <path
         transform="scale(0.26458333)"
         inkscape:connector-curvature="0"
         id="path73"
         d="m 89.106006,638.43143 c -15.159205,-3.60868 -52.85365,-14.70288 -54.159214,-15.94008 -0.323282,-0.30636 1.081827,-3.89251 3.122463,-7.96923 7.991209,-15.96458 49.625142,-94.16715 51.850419,-97.39258 0.937843,-1.35936 0.972296,-1.34679 0.979136,0.35714 0.0039,0.97135 0.471026,12.69465 1.038058,26.05179 0.567033,13.35715 1.360896,35.05358 1.764141,48.21429 0.403245,13.16071 0.91974,29.3125 1.147767,35.89286 0.333388,9.62088 0.231298,11.94878 -0.521231,11.88516 -0.514704,-0.0435 -2.864396,-0.53823 -5.221539,-1.09935 z"
         style="opacity:1;fill:#d40000;fill-opacity:1;fill-rule:nonzero;stroke:#000000;stroke-width:1.88976371;stroke-linejoin:round;stroke-miterlimit:4;stroke-dasharray:none;stroke-dashoffset:0;stroke-opacity:1" />
      <path
         transform="scale(0.26458333)"
         inkscape:connector-curvature="0"
         id="path75"
         d="m 103.50511,625.17772 c -0.8524,-12.32624 -1.87484,-37.21508 -2.57617,-62.71067 -0.38363,-13.94643 -0.9128,-33.20255 -1.175924,-42.79137 l -0.47841,-17.43423 10.629984,0.49734 c 22.37076,1.04664 83.66547,6.49789 84.76663,7.53872 0.31087,0.29384 -3.37348,5.96919 -8.18745,12.61189 -16.2649,22.44365 -72.35004,96.6518 -80.30579,106.25532 l -2.21375,2.67225 z"
         style="opacity:1;fill:#d40000;fill-opacity:1;fill-rule:nonzero;stroke:#000000;stroke-width:1.88976371;stroke-linejoin:round;stroke-miterlimit:4;stroke-dasharray:none;stroke-dashoffset:0;stroke-opacity:1" />
      <path
         transform="scale(0.26458333)"
         inkscape:connector-curvature="0"
         id="path77"
         d="M 57.071336,749.1842 C 49.561194,717.6472 33.031227,635.08944 34.027465,634.09321 c 0.580498,-0.5805 12.432368,1.96877 30.792827,6.62337 18.229265,4.62134 26.336413,7.13414 27.485941,8.51924 0.693203,0.83526 0.406561,2.66321 -1.427361,9.10247 -5.682799,19.95343 -29.616713,94.46016 -31.323016,97.50916 -0.44735,0.79937 -1.167011,-1.1307 -2.48452,-6.66325 z"
         style="opacity:1;fill:#d40000;fill-opacity:1;fill-rule:nonzero;stroke:#000000;stroke-width:1.88976371;stroke-linejoin:round;stroke-miterlimit:4;stroke-dasharray:none;stroke-dashoffset:0;stroke-opacity:1" />
      <path
         transform="scale(0.26458333)"
         inkscape:connector-curvature="0"
         id="path79"
         d="m 152.32029,802.75897 c -29.29791,-8.9161 -85.352294,-27.50136 -86.545908,-28.69497 -0.696846,-0.69685 0.675365,-6.59409 5.191536,-22.31124 8.103587,-28.20205 26.257908,-84.33561 28.876156,-89.28571 0.924826,-1.7485 0.999056,-1.66662 3.561536,3.92857 4.01313,8.76268 15.05903,34.82116 36.03056,85 20.29407,48.55788 22.45672,53.94754 21.62609,53.89586 -0.28912,-0.018 -4.22211,-1.15762 -8.73997,-2.53251 z"
         style="opacity:1;fill:#d40000;fill-opacity:1;fill-rule:nonzero;stroke:#000000;stroke-width:1.88976371;stroke-linejoin:round;stroke-miterlimit:4;stroke-dasharray:none;stroke-dashoffset:0;stroke-opacity:1" />
      <path
         transform="scale(0.26458333)"
         inkscape:connector-curvature="0"
         id="path81"
         d="m 166.31997,795.07239 c -1.53232,-3.98652 -12.41085,-30.39106 -24.17451,-58.67677 -24.83708,-59.72076 -33.08758,-79.92247 -33.78994,-82.73612 l -0.5047,-2.02183 3.48474,0.49663 c 29.01599,4.13521 127.5102,21.62013 128.74522,22.85514 1.48459,1.48459 -57.66859,108.41108 -68.47477,123.77639 l -2.5,3.55475 z"
         style="opacity:1;fill:#d40000;fill-opacity:1;fill-rule:nonzero;stroke:#000000;stroke-width:1.88976371;stroke-linejoin:round;stroke-miterlimit:4;stroke-dasharray:none;stroke-dashoffset:0;stroke-opacity:1" />
      <path
         transform="scale(0.26458333)"
         inkscape:connector-curvature="0"
         id="path83"
         d="m 48.488821,760.98724 c -1.048687,-0.8249 -5.597758,-5.71199 -10.109045,-10.86022 l -8.202341,-9.36039 0.0016,-17.89979 c 9.04e-4,-9.84489 0.223359,-25.45337 0.494344,-34.68551 l 0.4927,-16.78571 2.005837,8.21428 c 3.458229,14.16211 17.847252,82.25347 17.46296,82.63776 -0.131668,0.13166 -1.097412,-0.43552 -2.146098,-1.26042 z"
         style="opacity:1;fill:#d40000;fill-opacity:1;fill-rule:nonzero;stroke:#000000;stroke-width:1.88976371;stroke-linejoin:round;stroke-miterlimit:4;stroke-dasharray:none;stroke-dashoffset:0;stroke-opacity:1" />
      <path
         transform="scale(0.26458333)"
         inkscape:connector-curvature="0"
         id="path85"
         d="m 318.74886,829.86892 c -31.21752,-4.1641 -134.19548,-19.33166 -138.03571,-20.33119 -1.47321,-0.38345 -2.67857,-1.0169 -2.67857,-1.40768 0,-2.44121 45.21307,-82.7789 68.20916,-121.19872 1.46965,-2.45536 2.8815,-4.46428 3.13745,-4.46428 0.56935,0 1.39281,1.27901 8.96751,13.92857 5.49679,9.1795 75.40016,133.75671 75.40016,134.37323 0,0.53799 -7.66992,0.0778 -15,-0.89993 z"
         style="opacity:1;fill:#d40000;fill-opacity:1;fill-rule:nonzero;stroke:#000000;stroke-width:1.88976371;stroke-linejoin:round;stroke-miterlimit:4;stroke-dasharray:none;stroke-dashoffset:0;stroke-opacity:1" />
      <path
         transform="scale(0.26458333)"
         inkscape:connector-curvature="0"
         id="path87"
         d="m 341.60971,826.50814 c -7.973,-12.64474 -81.28547,-144.08344 -83.29369,-149.33356 -0.51021,-1.33388 0.16089,-1.35341 30.49129,-0.88717 56.70235,0.87164 134.54705,2.67525 137.28835,3.18089 l 2.70393,0.49875 -10.25419,18.21428 c -17.19306,30.53962 -62.01601,107.35524 -72.79645,124.75538 -3.04254,4.91079 -3.20586,5.05171 -4.13924,3.57143 z"
         style="opacity:1;fill:#d40000;fill-opacity:1;fill-rule:nonzero;stroke:#000000;stroke-width:1.88976371;stroke-linejoin:round;stroke-miterlimit:4;stroke-dasharray:none;stroke-dashoffset:0;stroke-opacity:1" />
      <path
         transform="scale(0.26458333)"
         inkscape:connector-curvature="0"
         id="path89"
         d="m 350.89172,832.14755 c 0,-1.2851 75.07478,-129.50719 84.84733,-144.91285 l 2.18636,-3.44663 4.22496,6.30377 c 9.82262,14.65566 43.14984,68.82951 61.00284,99.16092 13.96032,23.71792 15.1782,26.0072 14.04945,26.40913 -1.7413,0.62006 -38.97844,4.57469 -80.9538,8.5974 -22.78571,2.18367 -50.83882,4.92373 -62.34024,6.08903 -22.01202,2.23021 -23.0169,2.30876 -23.0169,1.79923 z"
         style="opacity:1;fill:#d40000;fill-opacity:1;fill-rule:nonzero;stroke:#000000;stroke-width:1.88976371;stroke-linejoin:round;stroke-miterlimit:4;stroke-dasharray:none;stroke-dashoffset:0;stroke-opacity:1" />
      <path
         transform="scale(0.26458333)"
         inkscape:connector-curvature="0"
         id="path91"
         d="M 522.57594,803.04186 C 515.02639,791.50502 452.05668,690.19519 447.077,681.57419 c -1.07788,-1.86607 -1.70516,-3.39529 -1.39396,-3.39825 0.3112,-0.003 2.4944,-0.31223 4.85154,-0.68725 13.45378,-2.14048 148.86138,-17.46979 149.41598,-16.91518 0.68223,0.68222 -57.34685,120.96998 -67.07377,139.03639 -6.17194,11.46355 -5.2468,11.15531 -10.30085,3.43196 z"
         style="opacity:1;fill:#d40000;fill-opacity:1;fill-rule:nonzero;stroke:#000000;stroke-width:1.88976371;stroke-linejoin:round;stroke-miterlimit:4;stroke-dasharray:none;stroke-dashoffset:0;stroke-opacity:1" />
      <path
         transform="scale(0.26458333)"
         inkscape:connector-curvature="0"
         id="path93"
         d="m 537.24629,811.60547 c 3.88118,-10.11446 70.44066,-145.43843 71.17374,-144.70536 1.71851,1.71852 35.45565,86.78779 44.24756,111.57166 l 3.17608,8.95315 -3.01169,0.81744 c -12.98312,3.52391 -99.72471,22.28816 -113.54162,24.56173 -2.55773,0.42087 -2.64572,0.36928 -2.04407,-1.19862 z"
         style="opacity:1;fill:#d40000;fill-opacity:1;fill-rule:nonzero;stroke:#000000;stroke-width:1.88976371;stroke-linejoin:round;stroke-miterlimit:4;stroke-dasharray:none;stroke-dashoffset:0;stroke-opacity:1" />
      <path
         transform="scale(0.26458333)"
         inkscape:connector-curvature="0"
         id="path95"
         d="m 660.54446,772.1099 c -2.68038,-5.91278 -17.16786,-41.53541 -28.72993,-70.64279 -10.25729,-25.8226 -16.19929,-42.60153 -15.36359,-43.38349 0.88387,-0.82704 70.87413,-12.97405 83.54792,-14.49999 3.2921,-0.39637 3.74966,-0.29586 3.74719,0.8231 -0.005,2.34648 -37.66302,123.5749 -40.31282,129.77534 l -0.94597,2.21355 z"
         style="opacity:1;fill:#d40000;fill-opacity:1;fill-rule:nonzero;stroke:#000000;stroke-width:1.88976371;stroke-linejoin:round;stroke-miterlimit:4;stroke-dasharray:none;stroke-dashoffset:0;stroke-opacity:1" />
      <path
         transform="scale(0.26458333)"
         inkscape:connector-curvature="0"
         id="path97"
         d="m 671.60601,779.6854 c 0,-2.38561 36.01395,-118.4604 37.10415,-119.58856 0.31065,-0.32146 0.9429,1.92854 1.40499,5 0.64675,4.29884 7.45228,60.64527 10.44278,86.46103 l 0.43251,3.73367 -4.51365,2.93352 c -5.30486,3.44775 -42.28978,22.09913 -43.82167,22.09913 -0.57701,0 -1.04911,-0.28745 -1.04911,-0.63879 z"
         style="opacity:1;fill:#d40000;fill-opacity:1;fill-rule:nonzero;stroke:#000000;stroke-width:1.88976371;stroke-linejoin:round;stroke-miterlimit:4;stroke-dasharray:none;stroke-dashoffset:0;stroke-opacity:1" />
      <path
         transform="scale(0.26458333)"
         inkscape:connector-curvature="0"
         id="path99"
         d="m 723.48016,701.03847 c -0.29411,-1.76785 -2.24784,-16.23214 -4.34161,-32.14285 l -3.80685,-28.92857 6.43133,-6.42858 6.43132,-6.42857 -0.44016,12.85715 c -0.63125,18.43902 -1.8857,41.92194 -2.88084,53.92857 -0.72406,8.73593 -0.94214,9.854 -1.39319,7.14285 z"
         style="opacity:1;fill:#d40000;fill-opacity:1;fill-rule:nonzero;stroke:#000000;stroke-width:1.88976371;stroke-linejoin:round;stroke-miterlimit:4;stroke-dasharray:none;stroke-dashoffset:0;stroke-opacity:1" />
      <path
         transform="scale(0.26458333)"
         inkscape:connector-curvature="0"
         id="path101"
         d="m 614.19187,646.67389 c 0.15567,-0.93877 1.90298,-11.51042 3.88293,-23.49256 3.97828,-24.07559 13.99336,-82.58239 16.81213,-98.21428 0.99177,-5.5 2.04662,-10.24627 2.34412,-10.54726 1.41255,-1.42916 64.37496,114.18495 64.37496,118.20789 0,0.61219 -0.72322,1.29157 -1.60715,1.50974 -10.29415,2.54078 -72.12474,13.12869 -80.63429,13.80787 -5.45235,0.43518 -5.45555,0.43439 -5.1727,-1.2714 z"
         style="opacity:1;fill:#d40000;fill-opacity:1;fill-rule:nonzero;stroke:#000000;stroke-width:1.88976371;stroke-linejoin:round;stroke-miterlimit:4;stroke-dasharray:none;stroke-dashoffset:0;stroke-opacity:1" />
      <path
         transform="scale(0.26458333)"
         inkscape:connector-curvature="0"
         id="path103"
         d="m 701.06727,609.78847 c -3.94876,-6.33085 -7.12068,-11.92442 -21.77123,-38.39285 -25.85397,-46.7091 -34.5433,-63.02769 -33.90232,-63.66866 0.85914,-0.85915 39.61389,8.70548 45.45491,11.21822 2.35621,1.01362 3.73465,2.12129 4.2373,3.40496 0.98095,2.50517 5.23146,45.81331 8.37138,85.29548 0.24213,3.04464 0.27958,5.53571 0.0832,5.53571 -0.19637,0 -1.30934,-1.52678 -2.47326,-3.39286 z"
         style="opacity:1;fill:#d40000;fill-opacity:1;fill-rule:nonzero;stroke:#000000;stroke-width:1.88976371;stroke-linejoin:round;stroke-miterlimit:4;stroke-dasharray:none;stroke-dashoffset:0;stroke-opacity:1" />
      <path
         transform="scale(0.26458333)"
         inkscape:connector-curvature="0"
         id="path105"
         d="m 714.17119,624.25818 c -0.92391,-3.68117 -6.88186,-62.96151 -6.82918,-67.94897 0.0159,-1.50385 0.18586,-1.76854 0.63256,-0.98502 1.03863,1.82181 5.62168,14.44067 13.33403,36.71361 l 7.39501,21.35646 -2.89416,3.45676 c -3.55735,4.24887 -9.0929,9.18745 -10.298,9.18745 -0.49139,0 -1.0945,-0.80113 -1.34026,-1.78029 z"
         style="opacity:1;fill:#d40000;fill-opacity:1;fill-rule:nonzero;stroke:#000000;stroke-width:1.88976371;stroke-linejoin:round;stroke-miterlimit:4;stroke-dasharray:none;stroke-dashoffset:0;stroke-opacity:1" />
      <path
         transform="scale(0.26458333)"
         inkscape:connector-curvature="0"
         id="path107"
         d="m 684.82029,508.53677 c -0.39285,-0.13533 -5.60962,-1.56009 -11.59281,-3.16612 -23.19335,-6.22567 -33.44934,-9.62391 -34.09087,-11.29572 -1.45085,-3.78084 -8.54201,-60.93181 -8.10972,-65.35992 0.20324,-2.08183 1.31532,-0.70837 13.17767,16.27488 19.62619,28.09867 43.11573,62.57292 43.11573,63.27847 0,0.62169 -1.12413,0.74238 -2.5,0.26841 z"
         style="opacity:1;fill:#d40000;fill-opacity:1;fill-rule:nonzero;stroke:#000000;stroke-width:1.88976371;stroke-linejoin:round;stroke-miterlimit:4;stroke-dasharray:none;stroke-dashoffset:0;stroke-opacity:1" />
    </g>
  </g>
</svg>
