<?xml version="1.0" encoding="UTF-8" standalone="no"?>
<!-- Created with Inkscape (http://www.inkscape.org/) -->

<svg
   xmlns:dc="http://purl.org/dc/elements/1.1/"
   xmlns:cc="http://creativecommons.org/ns#"
   xmlns:rdf="http://www.w3.org/1999/02/22-rdf-syntax-ns#"
   xmlns:svg="http://www.w3.org/2000/svg"
   xmlns="http://www.w3.org/2000/svg"
   xmlns:sodipodi="http://sodipodi.sourceforge.net/DTD/sodipodi-0.dtd"
   xmlns:inkscape="http://www.inkscape.org/namespaces/inkscape"
   width="210mm"
   height="297mm"
   viewBox="0 0 210 297"
   version="1.1"
   id="svg955"
   inkscape:version="0.92.1 r15371"
   sodipodi:docname="misery.svg">
  <defs
     id="defs949" />
  <sodipodi:namedview
     id="base"
     pagecolor="#ffffff"
     bordercolor="#666666"
     borderopacity="1.0"
     inkscape:pageopacity="0.0"
     inkscape:pageshadow="2"
     inkscape:zoom="0.35"
     inkscape:cx="7.4362583"
     inkscape:cy="872.34321"
     inkscape:document-units="mm"
     inkscape:current-layer="layer1"
     showgrid="false"
     inkscape:window-width="1536"
     inkscape:window-height="801"
     inkscape:window-x="-8"
     inkscape:window-y="-8"
     inkscape:window-maximized="1" />
  <metadata
     id="metadata952">
    <rdf:RDF>
      <cc:Work
         rdf:about="">
        <dc:format>image/svg+xml</dc:format>
        <dc:type
           rdf:resource="http://purl.org/dc/dcmitype/StillImage" />
        <dc:title></dc:title>
      </cc:Work>
    </rdf:RDF>
  </metadata>
  <g
     inkscape:label="Layer 1"
     inkscape:groupmode="layer"
     id="layer1">
    <path
       style="opacity:1;fill:#ffffff;fill-opacity:1;fill-rule:nonzero;stroke:none;stroke-width:21.59730148;stroke-linejoin:round;stroke-miterlimit:4;stroke-dasharray:none;stroke-dashoffset:0;stroke-opacity:1"
       d=""
       id="path1050"
       inkscape:connector-curvature="0"
       transform="scale(0.26458333)" />
    <g
       id="g1331"
       transform="matrix(1.0089713,0,0,1.0089713,-0.20267792,-2.0621562)">
      <g
         transform="matrix(6.5057085,0,0,6.5057085,2724.0884,-613.49026)"
         id="g1238">
        <path
           style="opacity:1;fill:#d40000;fill-opacity:1;fill-rule:nonzero;stroke:none;stroke-width:0.50507629;stroke-linejoin:round;stroke-miterlimit:4;stroke-dasharray:none;stroke-dashoffset:0;stroke-opacity:1"
           d="m -411.77594,129.5913 c -0.47344,-0.14539 -0.97822,-0.53244 -1.24447,-0.95423 -0.36396,-0.57652 -0.35872,-0.46408 -0.35872,-7.71753 v -6.70111 h -0.86627 c -0.78809,0 -0.87252,-0.0117 -0.93543,-0.12924 -0.038,-0.0711 -0.0692,-0.53248 -0.0692,-1.02532 0,-1.15651 -0.0372,-1.11723 1.05764,-1.11723 h 0.81325 v -0.73499 -0.735 h 1.13588 1.13591 v -3.37427 -3.37428 h 8.31877 8.31876 v 3.34087 3.34087 h 1.1693 1.1693 v 0.7684 0.7684 h 0.7728 c 0.42505,0 0.83095,0.0311 0.90204,0.0692 0.11885,0.0636 0.12925,0.1488 0.12925,1.0609 0,0.73697 -0.0225,1.01042 -0.0877,1.0645 -0.0492,0.0409 -0.43749,0.0811 -0.88535,0.0917 l -0.79764,0.019 -0.0334,6.88219 c -0.0334,6.87761 -0.0335,6.8824 -0.17777,7.1946 -0.19466,0.42117 -0.64596,0.89717 -1.05566,1.11344 l -0.33676,0.17777 -8.95353,0.0114 c -4.92445,0.006 -9.02891,-0.0117 -9.12101,-0.04 z m 15.4228,-1.3056 c 0.0161,-0.25588 -0.006,-0.35151 -0.0963,-0.41761 -0.15213,-0.11124 -12.45078,-0.12734 -12.65777,-0.0166 -0.1002,0.0536 -0.12922,0.14119 -0.12922,0.38977 0,0.17633 0.0201,0.34079 0.0449,0.36548 0.0246,0.0247 2.9187,0.0372 6.43118,0.0278 l 6.3863,-0.017 z m -13.3659,-0.80781 c 0.128,-0.0897 0.14851,-0.16501 0.14851,-0.54598 0,-0.59261 -0.0864,-0.68635 -0.63235,-0.68635 -0.55828,0 -0.65342,0.081 -0.69009,0.58772 -0.0265,0.36627 -0.0127,0.42173 0.1424,0.57692 0.14136,0.14138 0.2345,0.17171 0.52737,0.17171 0.21375,0 0.41492,-0.0415 0.50416,-0.10402 z m 1.68532,-0.0296 c 0.10279,-0.1028 0.13361,-0.22272 0.13361,-0.51967 0,-0.57388 -0.10205,-0.68304 -0.63855,-0.68304 -0.57888,0 -0.69778,0.11387 -0.69778,0.66817 0,0.54617 0.122,0.66818 0.66815,0.66818 0.31184,0 0.43061,-0.0297 0.53457,-0.13364 z m 1.64004,-0.0304 c 0.21945,-0.21945 0.23736,-0.83173 0.0304,-1.03871 -0.17653,-0.17653 -0.894,-0.19184 -1.08054,-0.023 -0.18179,0.16453 -0.17401,0.90665 0.0114,1.09213 0.20698,0.20697 0.81926,0.18907 1.0387,-0.0304 z m 1.61912,0.06 c 0.12896,-0.0903 0.14851,-0.16444 0.14851,-0.56318 0,-0.59144 -0.0717,-0.66915 -0.61756,-0.66915 -0.56518,0 -0.65196,0.0898 -0.65196,0.67474 0,0.54938 0.10766,0.66161 0.63476,0.66161 0.19756,0 0.39939,-0.0432 0.48625,-0.10402 z m 1.67045,0 c 0.128,-0.0897 0.14848,-0.16501 0.14848,-0.54598 0,-0.59261 -0.0864,-0.68635 -0.63233,-0.68635 -0.55829,0 -0.65344,0.081 -0.69008,0.58772 -0.0265,0.36627 -0.0127,0.42173 0.1424,0.57692 0.14136,0.14138 0.2345,0.17171 0.52736,0.17171 0.21376,0 0.4149,-0.0415 0.50417,-0.10402 z m 1.68529,-0.0296 c 0.10279,-0.1028 0.13364,-0.22272 0.13364,-0.51967 0,-0.57388 -0.10205,-0.68304 -0.63855,-0.68304 -0.57888,0 -0.69781,0.11387 -0.69781,0.66817 0,0.54617 0.122,0.66818 0.66818,0.66818 0.31181,0 0.43061,-0.0297 0.53454,-0.13364 z m 1.64007,-0.0304 c 0.21944,-0.21945 0.23736,-0.83173 0.0304,-1.03871 -0.17653,-0.17653 -0.89402,-0.19184 -1.08053,-0.023 -0.18179,0.16453 -0.17404,0.90665 0.0114,1.09213 0.20696,0.20697 0.81925,0.18907 1.0387,-0.0304 z m 1.61912,0.06 c 0.12895,-0.0903 0.14851,-0.16444 0.14851,-0.56318 0,-0.59144 -0.0717,-0.66915 -0.61759,-0.66915 -0.56515,0 -0.65196,0.0898 -0.65196,0.67474 0,0.54938 0.10768,0.66161 0.63479,0.66161 0.19753,0 0.39938,-0.0432 0.48625,-0.10402 z m 1.67044,0 c 0.12801,-0.0897 0.14849,-0.16501 0.14849,-0.54598 0,-0.59261 -0.0864,-0.68635 -0.63236,-0.68635 -0.55827,0 -0.65341,0.081 -0.69006,0.58772 -0.0265,0.36627 -0.0127,0.42173 0.14238,0.57692 0.14139,0.14138 0.23452,0.17171 0.52736,0.17171 0.21379,0 0.41492,-0.0415 0.50419,-0.10402 z m 1.68529,-0.0296 c 0.10279,-0.1028 0.13364,-0.22272 0.13364,-0.51967 0,-0.57388 -0.10205,-0.68304 -0.63857,-0.68304 -0.57885,0 -0.69778,0.11387 -0.69778,0.66817 0,0.31182 0.0297,0.4306 0.13364,0.53454 0.10393,0.10394 0.22272,0.13364 0.53454,0.13364 0.31181,0 0.43061,-0.0297 0.53453,-0.13364 z m -15.70209,-1.5368 c 0.10395,-0.10394 0.13364,-0.22272 0.13364,-0.53454 0,-0.54617 -0.122,-0.66817 -0.66818,-0.66817 -0.54615,0 -0.66815,0.122 -0.66815,0.66817 0,0.54617 0.122,0.66818 0.66815,0.66818 0.31181,0 0.43061,-0.0297 0.53454,-0.13364 z m 1.67211,-0.0501 c 0.12129,-0.15368 0.14042,-0.24809 0.11687,-0.57693 -0.0351,-0.49092 -0.13486,-0.57567 -0.67728,-0.57567 -0.55631,0 -0.64397,0.0918 -0.64397,0.67474 0,0.56092 0.10321,0.66161 0.67821,0.66161 0.33612,0 0.3983,-0.0217 0.52617,-0.18375 z m 1.58708,0.0797 c 0.128,-0.0897 0.14851,-0.16501 0.14851,-0.54598 0,-0.59011 -0.0874,-0.68635 -0.62315,-0.68635 -0.55898,0 -0.64637,0.0912 -0.64637,0.67474 0,0.54939 0.10766,0.66161 0.63476,0.66161 0.19754,0 0.39939,-0.0432 0.48625,-0.10402 z m 1.67045,0 c 0.128,-0.0897 0.14848,-0.16501 0.14848,-0.54598 0,-0.59261 -0.0864,-0.68635 -0.63233,-0.68635 -0.55517,0 -0.6536,0.0823 -0.68892,0.57567 -0.0236,0.32884 -0.005,0.42325 0.11687,0.57693 0.12787,0.16203 0.19005,0.18375 0.5262,0.18375 0.23686,0 0.43741,-0.0394 0.5297,-0.10402 z m 1.68529,-0.0296 c 0.10395,-0.10394 0.13364,-0.22272 0.13364,-0.53454 0,-0.31181 -0.0297,-0.4306 -0.13364,-0.53454 -0.10393,-0.10394 -0.22273,-0.13363 -0.53454,-0.13363 -0.31181,0 -0.43061,0.0297 -0.53454,0.13363 -0.10393,0.10394 -0.13364,0.22273 -0.13364,0.53454 0,0.54617 0.122,0.66818 0.66818,0.66818 0.31181,0 0.43061,-0.0297 0.53454,-0.13364 z m 1.67211,-0.0501 c 0.12128,-0.15368 0.14041,-0.24809 0.11687,-0.57693 -0.0351,-0.49092 -0.13486,-0.57567 -0.67731,-0.57567 -0.55629,0 -0.64394,0.0918 -0.64394,0.67474 0,0.56092 0.10321,0.66161 0.67818,0.66161 0.33615,0 0.39833,-0.0217 0.5262,-0.18375 z m 1.58708,0.0797 c 0.128,-0.0897 0.14851,-0.16501 0.14851,-0.54598 0,-0.59011 -0.0874,-0.68635 -0.62318,-0.68635 -0.55898,0 -0.64637,0.0912 -0.64637,0.67474 0,0.54939 0.10768,0.66161 0.63476,0.66161 0.19756,0 0.39941,-0.0432 0.48628,-0.10402 z m 1.67042,0 c 0.12803,-0.0897 0.14851,-0.16501 0.14851,-0.54598 0,-0.59598 -0.0849,-0.68635 -0.64511,-0.68635 -0.55864,0 -0.69122,0.12004 -0.69122,0.62575 0,0.53667 0.16107,0.7106 0.65815,0.7106 0.23685,0 0.43741,-0.0394 0.52967,-0.10402 z m 1.68531,-0.0296 c 0.10393,-0.10394 0.13364,-0.22272 0.13364,-0.53454 0,-0.31181 -0.0297,-0.4306 -0.13364,-0.53454 -0.10393,-0.10394 -0.22272,-0.13363 -0.53453,-0.13363 -0.31182,0 -0.43061,0.0297 -0.53454,0.13363 -0.10396,0.10394 -0.13364,0.22273 -0.13364,0.53454 0,0.54617 0.122,0.66818 0.66818,0.66818 0.31181,0 0.4306,-0.0297 0.53453,-0.13364 z m 1.67212,-0.0501 c 0.12128,-0.15368 0.14041,-0.24809 0.11686,-0.57693 -0.0351,-0.49092 -0.13485,-0.57567 -0.6773,-0.57567 -0.55632,0 -0.64395,0.0918 -0.64395,0.67474 0,0.56092 0.10322,0.66161 0.67818,0.66161 0.33616,0 0.39833,-0.0217 0.52621,-0.18375 z m 1.58707,0.0797 c 0.12801,-0.0897 0.14849,-0.16501 0.14849,-0.54598 0,-0.59011 -0.0874,-0.68635 -0.62315,-0.68635 -0.55898,0 -0.64638,0.0912 -0.64638,0.67474 0,0.54939 0.10766,0.66161 0.63477,0.66161 0.19756,0 0.39941,-0.0432 0.48627,-0.10402 z m -17.37846,-1.53264 c 0.25376,-0.17773 0.28164,-0.89928 0.044,-1.13695 -0.0664,-0.0664 -0.23516,-0.0995 -0.5071,-0.0995 -0.56518,0 -0.65196,0.0898 -0.65196,0.67474 0,0.39297 0.0198,0.46747 0.14851,0.55759 0.19129,0.13399 0.77761,0.13651 0.96658,0.004 z m 1.67637,-0.004 c 0.128,-0.0897 0.14851,-0.16501 0.14851,-0.54598 0,-0.59261 -0.0864,-0.68635 -0.63235,-0.68635 -0.55828,0 -0.65342,0.081 -0.69009,0.58772 -0.0265,0.36628 -0.0127,0.42173 0.1424,0.57693 0.14136,0.14138 0.2345,0.1717 0.52737,0.1717 0.21375,0 0.41492,-0.0415 0.50416,-0.10402 z m 1.68532,-0.0296 c 0.10392,-0.10393 0.13361,-0.22272 0.13361,-0.53454 0,-0.54617 -0.122,-0.66817 -0.66818,-0.66817 -0.54615,0 -0.66815,0.122 -0.66815,0.66817 0,0.54618 0.122,0.66818 0.66815,0.66818 0.31184,0 0.43061,-0.0297 0.53457,-0.13364 z m 1.57689,0.0825 c 0.14369,-0.0959 0.22717,-0.34564 0.22717,-0.67946 0,-0.48061 -0.14039,-0.60575 -0.67964,-0.60575 -0.56319,0 -0.65672,0.0919 -0.65672,0.64512 0,0.5672 0.11745,0.69163 0.65148,0.6902 0.2113,-5.3e-4 0.41728,-0.0231 0.45771,-0.0501 z m 1.68227,-0.0529 c 0.12896,-0.0903 0.14851,-0.16443 0.14851,-0.56317 0,-0.59145 -0.0717,-0.66916 -0.61756,-0.66916 -0.56518,0 -0.65196,0.0898 -0.65196,0.67474 0,0.54939 0.10766,0.66161 0.63476,0.66161 0.19756,0 0.39939,-0.0432 0.48625,-0.10402 z m 1.67045,0 c 0.128,-0.0897 0.14848,-0.16501 0.14848,-0.54598 0,-0.59261 -0.0864,-0.68635 -0.63233,-0.68635 -0.55515,0 -0.6536,0.0823 -0.68892,0.57567 -0.0236,0.32884 -0.005,0.42325 0.11687,0.57693 0.12787,0.16203 0.19005,0.18375 0.5262,0.18375 0.23686,0 0.43741,-0.0394 0.5297,-0.10402 z m 1.68529,-0.0296 c 0.10395,-0.10393 0.13364,-0.22272 0.13364,-0.53454 0,-0.31181 -0.0297,-0.4306 -0.13364,-0.53454 -0.10393,-0.10393 -0.22273,-0.13363 -0.53454,-0.13363 -0.31181,0 -0.43058,0.0297 -0.53454,0.13363 -0.10393,0.10394 -0.13364,0.22273 -0.13364,0.53454 0,0.54618 0.122,0.66818 0.66818,0.66818 0.31181,0 0.43061,-0.0297 0.53454,-0.13364 z m 1.6656,-0.0424 c 0.10099,-0.12842 0.13848,-0.27304 0.13848,-0.53454 0,-0.50261 -0.13374,-0.62575 -0.67963,-0.62575 -0.56322,0 -0.65672,0.0919 -0.65672,0.64512 0,0.57021 0.11612,0.69123 0.66331,0.69123 0.34829,0 0.41277,-0.0212 0.53456,-0.17606 z m 1.59359,0.072 c 0.12895,-0.0903 0.14851,-0.16443 0.14851,-0.56317 0,-0.59145 -0.0717,-0.66916 -0.61759,-0.66916 -0.56515,0 -0.65196,0.0898 -0.65196,0.67474 0,0.54939 0.10768,0.66161 0.63479,0.66161 0.19753,0 0.39938,-0.0432 0.48625,-0.10402 z m 1.67044,0 c 0.12801,-0.0897 0.14849,-0.16501 0.14849,-0.54598 0,-0.59261 -0.0864,-0.68635 -0.63236,-0.68635 -0.55515,0 -0.65357,0.0823 -0.68889,0.57567 -0.0236,0.32884 -0.005,0.42325 0.11686,0.57693 0.12788,0.16203 0.19005,0.18375 0.52621,0.18375 0.23685,0 0.43741,-0.0394 0.52969,-0.10402 z m 1.68529,-0.0296 c 0.10393,-0.10393 0.13364,-0.22272 0.13364,-0.53454 0,-0.31181 -0.0297,-0.4306 -0.13364,-0.53454 -0.10392,-0.10393 -0.22272,-0.13363 -0.53453,-0.13363 -0.31182,0 -0.43061,0.0297 -0.53454,0.13363 -0.10393,0.10394 -0.13364,0.22273 -0.13364,0.53454 0,0.31182 0.0297,0.43061 0.13364,0.53454 0.10393,0.10394 0.22272,0.13364 0.53454,0.13364 0.31181,0 0.43061,-0.0297 0.53453,-0.13364 z m 1.66558,-0.0424 c 0.10102,-0.12842 0.13848,-0.27304 0.13848,-0.53454 0,-0.50261 -0.13372,-0.62575 -0.6796,-0.62575 -0.56322,0 -0.65673,0.0919 -0.65673,0.64512 0,0.57021 0.11613,0.69123 0.66331,0.69123 0.3483,0 0.41278,-0.0212 0.53454,-0.17606 z m -4.79136,-4.63773 c 0.29591,-0.0822 0.62081,-0.3413 0.75618,-0.60306 0.14253,-0.27562 0.1252,-0.85169 -0.0335,-1.11188 -0.0719,-0.11796 -0.25329,-0.29556 -0.40304,-0.39466 -0.24228,-0.16034 -0.35844,-0.18519 -1.05498,-0.22566 -0.8814,-0.0512 -1.06756,-0.11945 -1.43475,-0.5259 -0.26901,-0.29776 -0.3827,-0.62232 -0.38325,-1.09412 v -0.31666 l 2.85644,-0.0174 2.85644,-0.0174 0.0188,-0.75169 0.0188,-0.7517 h -0.70376 c -0.58106,0 -0.7038,0.0175 -0.7038,0.10023 0,0.0824 -0.11877,0.10022 -0.66815,0.10022 -0.5494,0 -0.66818,-0.0178 -0.66818,-0.10022 0,-0.0883 -0.63476,-0.10023 -5.31198,-0.10023 -4.67723,0 -5.31199,0.012 -5.31199,0.10023 0,0.0824 -0.11877,0.10022 -0.66818,0.10022 -0.54938,0 -0.66815,-0.0178 -0.66815,-0.10022 0,-0.0824 -0.1188,-0.10023 -0.66818,-0.10023 h -0.66818 v 0.7684 0.7684 h 2.87314 2.87316 v 0.31738 c 0,0.4745 -0.11435,0.79712 -0.38827,1.10096 -0.36616,0.40611 -0.66382,0.51615 -1.40087,0.5179 -0.70381,0.002 -0.99914,0.0946 -1.33551,0.42012 -0.57856,0.55996 -0.36608,1.50581 0.41834,1.86216 0.25077,0.11392 0.5639,0.12174 4.91164,0.12277 2.99283,8e-4 4.73215,-0.0234 4.89231,-0.0679 z m -11.50721,-6.17767 c 0,-0.0823 0.11798,-0.10023 0.66101,-0.10023 0.52594,0 0.66889,0.0205 0.69948,0.10023 0.0338,0.0879 0.68686,0.10022 5.31913,0.10022 4.64939,0 5.28068,-0.012 5.28068,-0.10022 0,-0.0824 0.11878,-0.10023 0.66818,-0.10023 0.54938,0 0.66816,0.0178 0.66816,0.10023 0,0.0827 0.1225,0.10022 0.70159,0.10022 h 0.70157 v -4.81085 -4.81085 h -8.01806 -8.0181 v 4.81085 4.81085 h 0.66818 c 0.54938,0 0.66818,-0.0178 0.66818,-0.10022 z m -3.94224,-0.96885 v -0.20046 h -0.80182 -0.80179 v 0.20046 0.20045 h 0.80179 0.80182 z m 22.78473,0 v -0.20046 h -0.76841 -0.7684 v 0.20046 0.20045 h 0.7684 0.76841 z"
           id="path1119"
           inkscape:connector-curvature="0" />
        <path
           style="opacity:1;fill:#ffffff;fill-opacity:1;fill-rule:nonzero;stroke:none;stroke-width:1.90894973;stroke-linejoin:round;stroke-miterlimit:4;stroke-dasharray:none;stroke-dashoffset:0;stroke-opacity:1"
           d="m -1552.5288,411.2742 v -18.22083 h 30.3045 30.3046 v 18.22089 18.2209 l -2.5862,-0.15756 c -1.4224,-0.0867 -2.6252,-0.27429 -2.6727,-0.41696 -0.1262,-0.37849 -4.9152,-0.33831 -5.298,0.0444 -0.4384,0.43847 -39.3113,0.4366 -39.7498,-0.002 -0.3775,-0.37747 -5.1703,-0.41975 -5.2947,-0.0467 -0.047,0.14037 -1.1926,0.32797 -2.5464,0.4169 l -2.4613,0.16179 z"
           id="path1121"
           inkscape:connector-curvature="0"
           transform="scale(0.26458333)" />
        <path
           style="opacity:1;fill:#ffffff;fill-opacity:1;fill-rule:nonzero;stroke:none;stroke-width:1.90894973;stroke-linejoin:round;stroke-miterlimit:4;stroke-dasharray:none;stroke-dashoffset:0;stroke-opacity:1"
           d="m -1532.4521,452.39983 c -5.6666,-0.0859 -8.4954,-0.22034 -8.8388,-0.42021 -0.7893,-0.45936 -1.8353,-1.65596 -2.1305,-2.43728 -0.6473,-1.71311 -0.1855,-3.31652 1.3412,-4.65698 1.0339,-0.90776 1.4402,-1.01214 5.0104,-1.28733 2.3814,-0.18355 2.8311,-0.29527 3.749,-0.9314 1.5696,-1.08777 2.5049,-2.89688 2.5079,-4.85088 v -1.57836 h -10.8591 -10.8591 v -2.94228 -2.94227 l 2.4613,0.16168 c 1.3538,0.0889 2.4997,0.27652 2.5464,0.41689 0.124,0.37187 4.9171,0.33088 5.2933,-0.0453 0.4342,-0.4342 39.3204,-0.4342 39.7546,0 0.3696,0.36963 5.1683,0.41756 5.2923,0.0529 0.046,-0.13619 1.2668,-0.32491 2.7123,-0.41936 l 2.6282,-0.17174 -0.1632,0.98757 c -0.09,0.54317 -0.1643,1.81148 -0.1658,2.81848 v 1.8309 h -8.8008 c -4.8404,0 -9.6702,0.0735 -10.7328,0.16333 l -1.9322,0.16332 v 1.54131 c 0,1.2491 0.1465,1.7926 0.7625,2.86681 1.2049,2.10086 2.0697,2.52391 5.9978,2.93392 2.9378,0.30665 3.4384,0.42849 4.2248,1.02836 1.4979,1.14247 1.7833,1.89415 1.6762,4.41509 -0.047,1.1093 -1.8757,2.95807 -3.121,3.15554 -1.2525,0.19863 -18.9138,0.29037 -28.3567,0.1473 z"
           id="path1123"
           inkscape:connector-curvature="0"
           transform="scale(0.26458333)" />
        <path
           style="opacity:1;fill:#ffffff;fill-opacity:1;fill-rule:nonzero;stroke:none;stroke-width:0.95447487;stroke-linejoin:round;stroke-miterlimit:4;stroke-dasharray:none;stroke-dashoffset:0;stroke-opacity:1"
           d="m -1568.4057,425.36611 v -0.69448 h 2.9673 2.9673 v 0.69448 0.69448 h -2.9673 -2.9673 z"
           id="path1125"
           inkscape:connector-curvature="0"
           transform="scale(0.26458333)" />
        <path
           style="opacity:1;fill:#ffffff;fill-opacity:1;fill-rule:nonzero;stroke:none;stroke-width:0.95447487;stroke-linejoin:round;stroke-miterlimit:4;stroke-dasharray:none;stroke-dashoffset:0;stroke-opacity:1"
           d="m -1482.0377,425.36611 v -0.69448 h 2.8411 2.841 v 0.69448 0.69448 h -2.841 -2.8411 z"
           id="path1127"
           inkscape:connector-curvature="0"
           transform="scale(0.26458333)" />
        <path
           style="opacity:1;fill:#ffffff;fill-opacity:1;fill-rule:nonzero;stroke:none;stroke-width:0.95447487;stroke-linejoin:round;stroke-miterlimit:4;stroke-dasharray:none;stroke-dashoffset:0;stroke-opacity:1"
           d="m -1543.8074,486.08002 -2.739,-0.0465 -0.087,-0.57788 c -0.1137,-0.75824 0.017,-1.81569 0.254,-2.05252 0.1532,-0.15318 0.8543,-0.20592 3.7596,-0.28284 5.0097,-0.13263 30.8963,-0.12622 38.1038,0.009 l 5.9957,0.11285 0.2349,0.29004 c 0.1958,0.24187 0.2276,0.46185 0.1915,1.32434 -0.024,0.56886 -0.073,1.06381 -0.109,1.09988 -0.078,0.0781 -41.6503,0.19037 -45.6048,0.12321 z"
           id="path1131"
           inkscape:connector-curvature="0"
           transform="scale(0.26458333)" />
        <path
           style="opacity:1;fill:#ffffff;fill-opacity:1;fill-rule:nonzero;stroke:none;stroke-width:0.95447487;stroke-linejoin:round;stroke-miterlimit:4;stroke-dasharray:none;stroke-dashoffset:0;stroke-opacity:1"
           d="m -1551.8013,481.93313 c -1.0438,-0.56392 -1.2839,-1.15632 -1.0966,-2.70561 0.2023,-1.6729 0.6229,-2.01371 2.4855,-2.01371 1.9969,0 2.3355,0.35825 2.3358,2.47134 2e-4,1.51805 -0.1009,1.84763 -0.6573,2.14096 -0.5996,0.31618 -2.5541,0.38437 -3.0674,0.10702 z"
           id="path1133"
           inkscape:connector-curvature="0"
           transform="scale(0.26458333)" />
        <path
           style="opacity:1;fill:#ffffff;fill-opacity:1;fill-rule:nonzero;stroke:none;stroke-width:0.95447487;stroke-linejoin:round;stroke-miterlimit:4;stroke-dasharray:none;stroke-dashoffset:0;stroke-opacity:1"
           d="m -1555.015,476.15071 c -0.7255,-0.25095 -0.9536,-0.80222 -0.9509,-2.29728 0,-2.07431 0.3463,-2.39911 2.5288,-2.39911 1.9735,0 2.3306,0.38165 2.3298,2.48975 -6e-4,1.36533 -0.2269,1.88964 -0.9453,2.1898 -0.5297,0.22131 -2.3414,0.23161 -2.9624,0.0168 z"
           id="path1135"
           inkscape:connector-curvature="0"
           transform="scale(0.26458333)" />
        <path
           style="opacity:1;fill:#ffffff;fill-opacity:1;fill-rule:nonzero;stroke:none;stroke-width:0.95447487;stroke-linejoin:round;stroke-miterlimit:4;stroke-dasharray:none;stroke-dashoffset:0;stroke-opacity:1"
           d="m -1557.9098,470.38798 c -0.2346,-0.0593 -0.5755,-0.25693 -0.7577,-0.43909 -0.3181,-0.31811 -0.3312,-0.38733 -0.3312,-1.74887 0,-1.65319 0.1496,-2.13749 0.7369,-2.38541 0.5083,-0.21458 2.9422,-0.22334 3.3189,-0.012 0.4729,0.26547 0.7306,1.00663 0.7368,2.11978 0.01,1.22807 -0.2821,1.99219 -0.8698,2.30009 -0.4434,0.23231 -2.171,0.33317 -2.8339,0.16545 z"
           id="path1137"
           inkscape:connector-curvature="0"
           transform="scale(0.26458333)" />
        <path
           style="opacity:1;fill:#ffffff;fill-opacity:1;fill-rule:nonzero;stroke:none;stroke-width:0.95447487;stroke-linejoin:round;stroke-miterlimit:4;stroke-dasharray:none;stroke-dashoffset:0;stroke-opacity:1"
           d="m -1551.8013,470.31637 c -1.0438,-0.56391 -1.2839,-1.15632 -1.0966,-2.7056 0.2023,-1.6729 0.6229,-2.01371 2.4855,-2.01371 1.9969,0 2.3355,0.35825 2.3358,2.47134 2e-4,1.51805 -0.1009,1.84763 -0.6573,2.14096 -0.5996,0.31618 -2.5541,0.38436 -3.0674,0.10701 z"
           id="path1139"
           inkscape:connector-curvature="0"
           transform="scale(0.26458333)" />
        <path
           style="opacity:1;fill:#ffffff;fill-opacity:1;fill-rule:nonzero;stroke:none;stroke-width:0.95447487;stroke-linejoin:round;stroke-miterlimit:4;stroke-dasharray:none;stroke-dashoffset:0;stroke-opacity:1"
           d="m -1548.7929,476.13143 c -0.7064,-0.30728 -0.8619,-0.70568 -0.8619,-2.20922 0,-1.68776 0.1442,-2.06581 0.8971,-2.35337 0.4297,-0.16411 0.8203,-0.19819 1.7275,-0.15074 0.6447,0.0337 1.2975,0.12838 1.4506,0.21034 0.5211,0.27887 0.7056,0.85549 0.7147,2.23361 0.01,1.20887 -0.01,1.29453 -0.3513,1.74404 -0.1978,0.26 -0.4998,0.52602 -0.6711,0.59116 -0.4731,0.17986 -2.4434,0.13523 -2.9056,-0.0658 z"
           id="path1141"
           inkscape:connector-curvature="0"
           transform="scale(0.26458333)" />
        <path
           style="opacity:1;fill:#ffffff;fill-opacity:1;fill-rule:nonzero;stroke:none;stroke-width:0.95447487;stroke-linejoin:round;stroke-miterlimit:4;stroke-dasharray:none;stroke-dashoffset:0;stroke-opacity:1"
           d="m -1545.671,481.95909 c -0.7143,-0.24706 -0.9533,-0.80719 -0.9533,-2.23415 0,-2.03117 0.3355,-2.40489 2.2453,-2.50091 0.8381,-0.0421 1.2437,-0.004 1.6615,0.15534 0.7776,0.29698 0.9547,0.72407 0.9541,2.30152 -6e-4,1.44268 -0.2153,1.95635 -0.9453,2.26136 -0.5296,0.22131 -2.3414,0.23161 -2.9623,0.0168 z"
           id="path1143"
           inkscape:connector-curvature="0"
           transform="scale(0.26458333)" />
        <path
           style="opacity:1;fill:#ffffff;fill-opacity:1;fill-rule:nonzero;stroke:none;stroke-width:0.95447487;stroke-linejoin:round;stroke-miterlimit:4;stroke-dasharray:none;stroke-dashoffset:0;stroke-opacity:1"
           d="m -1539.4921,481.89108 c -0.6371,-0.33737 -0.8979,-1.13303 -0.8447,-2.5771 0.065,-1.7731 0.588,-2.18836 2.6186,-2.08031 1.8057,0.0961 2.3081,0.58235 2.3129,2.23873 0.01,1.91164 -0.7615,2.65165 -2.7482,2.65165 -0.6303,0 -1.03,-0.0696 -1.3386,-0.23297 z"
           id="path1145"
           inkscape:connector-curvature="0"
           transform="scale(0.26458333)" />
        <path
           style="opacity:1;fill:#ffffff;fill-opacity:1;fill-rule:nonzero;stroke:none;stroke-width:0.95447487;stroke-linejoin:round;stroke-miterlimit:4;stroke-dasharray:none;stroke-dashoffset:0;stroke-opacity:1"
           d="m -1542.4795,476.13882 c -0.7087,-0.32137 -0.8618,-0.71503 -0.8618,-2.21661 0,-2.13182 0.2268,-2.40376 2.0834,-2.49794 2.1162,-0.10735 2.5249,0.2896 2.5252,2.45251 3e-4,1.51804 -0.1009,1.84762 -0.6573,2.14096 -0.5651,0.29794 -2.5296,0.37493 -3.0895,0.12108 z"
           id="path1147"
           inkscape:connector-curvature="0"
           transform="scale(0.26458333)" />
        <path
           style="opacity:1;fill:#ffffff;fill-opacity:1;fill-rule:nonzero;stroke:none;stroke-width:0.95447487;stroke-linejoin:round;stroke-miterlimit:4;stroke-dasharray:none;stroke-dashoffset:0;stroke-opacity:1"
           d="m -1545.671,470.34233 c -0.7255,-0.25094 -0.9537,-0.80222 -0.9509,-2.29728 0,-2.0743 0.3462,-2.39911 2.5288,-2.39911 1.9734,0 2.3305,0.38165 2.3297,2.48976 -6e-4,1.36532 -0.2269,1.88964 -0.9453,2.18979 -0.5296,0.22132 -2.3414,0.23162 -2.9623,0.0168 z"
           id="path1149"
           inkscape:connector-curvature="0"
           transform="scale(0.26458333)" />
        <path
           style="opacity:1;fill:#ffffff;fill-opacity:1;fill-rule:nonzero;stroke:none;stroke-width:0.95447487;stroke-linejoin:round;stroke-miterlimit:4;stroke-dasharray:none;stroke-dashoffset:0;stroke-opacity:1"
           d="m -1539.3576,470.34923 c -0.7252,-0.26234 -0.9532,-0.81346 -0.9532,-2.30418 0,-2.14961 0.2586,-2.40126 2.4622,-2.39586 1.4721,0.004 1.7714,0.10523 2.1529,0.73085 0.4863,0.79755 0.2331,3.25211 -0.394,3.81963 -0.216,0.19549 -0.4971,0.24507 -1.5481,0.27301 -0.795,0.0211 -1.45,-0.0259 -1.7198,-0.12345 z"
           id="path1151"
           inkscape:connector-curvature="0"
           transform="scale(0.26458333)" />
        <path
           style="opacity:1;fill:#ffffff;fill-opacity:1;fill-rule:nonzero;stroke:none;stroke-width:0.95447487;stroke-linejoin:round;stroke-miterlimit:4;stroke-dasharray:none;stroke-dashoffset:0;stroke-opacity:1"
           d="m -1536.5691,475.87387 c -0.6763,-0.61095 -0.813,-1.12071 -0.6623,-2.46837 0.1851,-1.65384 0.6137,-2.00006 2.4764,-2.00006 1.9969,0 2.3355,0.35824 2.3358,2.47134 10e-5,0.70732 -0.054,1.42906 -0.1207,1.60388 -0.2027,0.53335 -0.8077,0.75317 -2.2311,0.81077 l -1.2787,0.0517 z"
           id="path1153"
           inkscape:connector-curvature="0"
           transform="scale(0.26458333)" />
        <path
           style="opacity:1;fill:#ffffff;fill-opacity:1;fill-rule:nonzero;stroke:none;stroke-width:0.95447487;stroke-linejoin:round;stroke-miterlimit:4;stroke-dasharray:none;stroke-dashoffset:0;stroke-opacity:1"
           d="m -1533.1355,481.94719 c -0.7088,-0.32136 -0.8619,-0.71502 -0.8619,-2.2166 0,-2.23197 0.2382,-2.4679 2.491,-2.4679 1.3117,0 1.3657,0.0111 1.7046,0.34977 0.3369,0.33659 0.3516,0.40554 0.3911,1.8309 0.047,1.698 -0.054,2.07618 -0.6354,2.38275 -0.565,0.29795 -2.5295,0.37494 -3.0894,0.12108 z"
           id="path1155"
           inkscape:connector-curvature="0"
           transform="scale(0.26458333)" />
        <path
           style="opacity:1;fill:#ffffff;fill-opacity:1;fill-rule:nonzero;stroke:none;stroke-width:0.95447487;stroke-linejoin:round;stroke-miterlimit:4;stroke-dasharray:none;stroke-dashoffset:0;stroke-opacity:1"
           d="m -1526.8001,481.93313 c -1.0437,-0.56392 -1.2838,-1.15632 -1.0965,-2.70561 0.2022,-1.6729 0.6229,-2.01371 2.4855,-2.01371 1.9969,0 2.3355,0.35825 2.3358,2.47134 2e-4,1.51805 -0.101,1.84763 -0.6573,2.14096 -0.5997,0.31618 -2.5541,0.38437 -3.0675,0.10702 z"
           id="path1157"
           inkscape:connector-curvature="0"
           transform="scale(0.26458333)" />
        <path
           style="opacity:1;fill:#ffffff;fill-opacity:1;fill-rule:nonzero;stroke:none;stroke-width:0.95447487;stroke-linejoin:round;stroke-miterlimit:4;stroke-dasharray:none;stroke-dashoffset:0;stroke-opacity:1"
           d="m -1530.0137,476.15071 c -0.7277,-0.25172 -0.9532,-0.80044 -0.9532,-2.31934 0,-1.10044 0.037,-1.33594 0.2615,-1.6415 0.4777,-0.65173 0.9828,-0.81822 2.3381,-0.77071 1.9138,0.0671 2.2621,0.45601 2.2613,2.52491 -6e-4,1.36533 -0.2269,1.88964 -0.9453,2.1898 -0.5297,0.22131 -2.3415,0.23161 -2.9624,0.0168 z"
           id="path1159"
           inkscape:connector-curvature="0"
           transform="scale(0.26458333)" />
        <path
           style="opacity:1;fill:#ffffff;fill-opacity:1;fill-rule:nonzero;stroke:none;stroke-width:0.95447487;stroke-linejoin:round;stroke-miterlimit:4;stroke-dasharray:none;stroke-dashoffset:0;stroke-opacity:1"
           d="m -1533.1355,470.33044 c -0.7088,-0.32137 -0.8619,-0.71502 -0.8619,-2.2166 0,-2.23197 0.2382,-2.4679 2.491,-2.4679 1.3117,0 1.3657,0.0111 1.7046,0.34976 0.3369,0.33659 0.3516,0.40555 0.3911,1.8309 0.047,1.698 -0.054,2.07619 -0.6354,2.38276 -0.565,0.29795 -2.5295,0.37494 -3.0894,0.12108 z"
           id="path1161"
           inkscape:connector-curvature="0"
           transform="scale(0.26458333)" />
        <path
           style="opacity:1;fill:#ffffff;fill-opacity:1;fill-rule:nonzero;stroke:none;stroke-width:0.95447487;stroke-linejoin:round;stroke-miterlimit:4;stroke-dasharray:none;stroke-dashoffset:0;stroke-opacity:1"
           d="m -1526.9971,470.30739 c -0.1778,-0.11461 -0.4619,-0.41093 -0.6314,-0.65851 -0.2764,-0.40393 -0.305,-0.56418 -0.279,-1.56157 0.052,-2.00039 0.4155,-2.40401 2.2306,-2.47845 2.2082,-0.0906 2.6013,0.28103 2.6016,2.45954 2e-4,1.51772 -0.1008,1.8471 -0.6573,2.14232 -0.6046,0.32076 -2.8152,0.38622 -3.2645,0.0967 z"
           id="path1163"
           inkscape:connector-curvature="0"
           transform="scale(0.26458333)" />
        <path
           style="opacity:1;fill:#ffffff;fill-opacity:1;fill-rule:nonzero;stroke:none;stroke-width:0.95447487;stroke-linejoin:round;stroke-miterlimit:4;stroke-dasharray:none;stroke-dashoffset:0;stroke-opacity:1"
           d="m -1523.7916,476.13143 c -0.7065,-0.30728 -0.8619,-0.70568 -0.8619,-2.20922 0,-1.68776 0.1441,-2.06581 0.8971,-2.35337 0.4297,-0.16411 0.8203,-0.19819 1.7275,-0.15074 0.6447,0.0337 1.2975,0.12838 1.4506,0.21034 0.5211,0.27887 0.7056,0.85549 0.7147,2.23361 0.01,1.20887 -0.01,1.29453 -0.3513,1.74404 -0.1978,0.26 -0.4998,0.52602 -0.6711,0.59116 -0.4731,0.17986 -2.4434,0.13523 -2.9056,-0.0658 z"
           id="path1165"
           inkscape:connector-curvature="0"
           transform="scale(0.26458333)" />
        <path
           style="opacity:1;fill:#ffffff;fill-opacity:1;fill-rule:nonzero;stroke:none;stroke-width:0.95447487;stroke-linejoin:round;stroke-miterlimit:4;stroke-dasharray:none;stroke-dashoffset:0;stroke-opacity:1"
           d="m -1520.6698,481.95909 c -0.7142,-0.24706 -0.9532,-0.80719 -0.9532,-2.23415 0,-2.03117 0.3355,-2.40489 2.2452,-2.50091 0.8382,-0.0421 1.2438,-0.004 1.6616,0.15534 0.7776,0.29698 0.9547,0.72407 0.9541,2.30152 -6e-4,1.44268 -0.2153,1.95635 -0.9453,2.26136 -0.5297,0.22131 -2.3414,0.23161 -2.9624,0.0168 z"
           id="path1167"
           inkscape:connector-curvature="0"
           transform="scale(0.26458333)" />
        <path
           style="opacity:1;fill:#ffffff;fill-opacity:1;fill-rule:nonzero;stroke:none;stroke-width:0.95447487;stroke-linejoin:round;stroke-miterlimit:4;stroke-dasharray:none;stroke-dashoffset:0;stroke-opacity:1"
           d="m -1514.4908,481.89108 c -0.6371,-0.33737 -0.8979,-1.13303 -0.8448,-2.5771 0.065,-1.7731 0.588,-2.18836 2.6187,-2.08031 1.8057,0.0961 2.3081,0.58235 2.3128,2.23873 0.01,1.91164 -0.7614,2.65165 -2.7481,2.65165 -0.6303,0 -1.03,-0.0696 -1.3386,-0.23297 z"
           id="path1169"
           inkscape:connector-curvature="0"
           transform="scale(0.26458333)" />
        <path
           style="opacity:1;fill:#ffffff;fill-opacity:1;fill-rule:nonzero;stroke:none;stroke-width:0.95447487;stroke-linejoin:round;stroke-miterlimit:4;stroke-dasharray:none;stroke-dashoffset:0;stroke-opacity:1"
           d="m -1517.4782,476.13882 c -0.7088,-0.32137 -0.8618,-0.71503 -0.8618,-2.21661 0,-2.13182 0.2268,-2.40376 2.0834,-2.49794 2.1162,-0.10735 2.5249,0.2896 2.5252,2.45251 2e-4,1.51804 -0.101,1.84762 -0.6573,2.14096 -0.5651,0.29794 -2.5296,0.37493 -3.0895,0.12108 z"
           id="path1171"
           inkscape:connector-curvature="0"
           transform="scale(0.26458333)" />
        <path
           style="opacity:1;fill:#ffffff;fill-opacity:1;fill-rule:nonzero;stroke:none;stroke-width:0.95447487;stroke-linejoin:round;stroke-miterlimit:4;stroke-dasharray:none;stroke-dashoffset:0;stroke-opacity:1"
           d="m -1520.6698,470.34233 c -0.7277,-0.25171 -0.9532,-0.80044 -0.9532,-2.31934 0,-1.10044 0.038,-1.33594 0.2615,-1.6415 0.4777,-0.65173 0.9828,-0.81822 2.3381,-0.77071 1.9138,0.0671 2.2621,0.45601 2.2613,2.52492 -6e-4,1.36532 -0.2269,1.88964 -0.9453,2.18979 -0.5297,0.22132 -2.3414,0.23162 -2.9624,0.0168 z"
           id="path1173"
           inkscape:connector-curvature="0"
           transform="scale(0.26458333)" />
        <path
           style="opacity:1;fill:#ffffff;fill-opacity:1;fill-rule:nonzero;stroke:none;stroke-width:0.95447487;stroke-linejoin:round;stroke-miterlimit:4;stroke-dasharray:none;stroke-dashoffset:0;stroke-opacity:1"
           d="m -1514.3563,470.34802 c -0.7251,-0.26027 -0.9533,-0.81149 -0.9533,-2.30297 0,-2.14931 0.257,-2.39911 2.4679,-2.39911 1.5182,0 1.9084,0.15674 2.2146,0.88965 0.2626,0.62851 0.2294,2.27123 -0.059,2.89842 -0.4077,0.88779 -0.6371,1.00616 -2.0167,1.04028 -0.7279,0.018 -1.3936,-0.0328 -1.6539,-0.12627 z"
           id="path1175"
           inkscape:connector-curvature="0"
           transform="scale(0.26458333)" />
        <path
           style="opacity:1;fill:#ffffff;fill-opacity:1;fill-rule:nonzero;stroke:none;stroke-width:0.95447487;stroke-linejoin:round;stroke-miterlimit:4;stroke-dasharray:none;stroke-dashoffset:0;stroke-opacity:1"
           d="m -1511.3053,476.07186 c -0.7284,-0.34064 -0.953,-0.87162 -0.9648,-2.28157 -0.016,-1.8983 0.3548,-2.28648 2.2638,-2.3703 2.1915,-0.0962 2.588,0.28016 2.5884,2.45679 2e-4,1.51804 -0.101,1.84762 -0.6573,2.14096 -0.6579,0.34685 -2.5368,0.37834 -3.2301,0.0541 z"
           id="path1177"
           inkscape:connector-curvature="0"
           transform="scale(0.26458333)" />
        <path
           style="opacity:1;fill:#ffffff;fill-opacity:1;fill-rule:nonzero;stroke:none;stroke-width:0.95447487;stroke-linejoin:round;stroke-miterlimit:4;stroke-dasharray:none;stroke-dashoffset:0;stroke-opacity:1"
           d="m -1508.1343,481.94719 c -0.7088,-0.32136 -0.8618,-0.71502 -0.8618,-2.2166 0,-2.23197 0.2381,-2.4679 2.491,-2.4679 1.3116,0 1.3656,0.0111 1.7046,0.34977 0.3369,0.33659 0.3516,0.40554 0.391,1.8309 0.047,1.698 -0.054,2.07618 -0.6353,2.38275 -0.5651,0.29795 -2.5296,0.37494 -3.0895,0.12108 z"
           id="path1179"
           inkscape:connector-curvature="0"
           transform="scale(0.26458333)" />
        <path
           style="opacity:1;fill:#ffffff;fill-opacity:1;fill-rule:nonzero;stroke:none;stroke-width:0.95447487;stroke-linejoin:round;stroke-miterlimit:4;stroke-dasharray:none;stroke-dashoffset:0;stroke-opacity:1"
           d="m -1501.7988,481.93313 c -1.0437,-0.56392 -1.2838,-1.15632 -1.0965,-2.70561 0.2022,-1.6729 0.6229,-2.01371 2.4855,-2.01371 1.9968,0 2.3354,0.35825 2.3358,2.47134 2e-4,1.51805 -0.101,1.84763 -0.6573,2.14096 -0.5997,0.31618 -2.5541,0.38437 -3.0675,0.10702 z"
           id="path1181"
           inkscape:connector-curvature="0"
           transform="scale(0.26458333)" />
        <path
           style="opacity:1;fill:#ffffff;fill-opacity:1;fill-rule:nonzero;stroke:none;stroke-width:0.95447487;stroke-linejoin:round;stroke-miterlimit:4;stroke-dasharray:none;stroke-dashoffset:0;stroke-opacity:1"
           d="m -1505.0124,476.15071 c -0.7277,-0.25172 -0.9533,-0.80044 -0.9533,-2.31934 0,-1.10044 0.038,-1.33594 0.2616,-1.6415 0.4777,-0.65173 0.9828,-0.81822 2.3381,-0.77071 1.9138,0.0671 2.2621,0.45601 2.2612,2.52491 -5e-4,1.36533 -0.2268,1.88964 -0.9452,2.1898 -0.5297,0.22131 -2.3415,0.23161 -2.9624,0.0168 z"
           id="path1183"
           inkscape:connector-curvature="0"
           transform="scale(0.26458333)" />
        <path
           style="opacity:1;fill:#ffffff;fill-opacity:1;fill-rule:nonzero;stroke:none;stroke-width:0.95447487;stroke-linejoin:round;stroke-miterlimit:4;stroke-dasharray:none;stroke-dashoffset:0;stroke-opacity:1"
           d="m -1508.1343,470.33044 c -0.7088,-0.32137 -0.8618,-0.71502 -0.8618,-2.2166 0,-2.23197 0.2381,-2.4679 2.491,-2.4679 1.3116,0 1.3656,0.0111 1.7046,0.34976 0.3369,0.33659 0.3516,0.40555 0.391,1.8309 0.047,1.698 -0.054,2.07619 -0.6353,2.38276 -0.5651,0.29795 -2.5296,0.37494 -3.0895,0.12108 z"
           id="path1185"
           inkscape:connector-curvature="0"
           transform="scale(0.26458333)" />
        <path
           style="opacity:1;fill:#ffffff;fill-opacity:1;fill-rule:nonzero;stroke:none;stroke-width:0.95447487;stroke-linejoin:round;stroke-miterlimit:4;stroke-dasharray:none;stroke-dashoffset:0;stroke-opacity:1"
           d="m -1501.9958,470.30739 c -0.1779,-0.11461 -0.462,-0.41093 -0.6314,-0.65851 -0.2764,-0.40393 -0.305,-0.56418 -0.279,-1.56157 0.052,-2.00039 0.4155,-2.40401 2.2306,-2.47845 2.2082,-0.0906 2.6012,0.28103 2.6016,2.45954 2e-4,1.51772 -0.1009,1.8471 -0.6573,2.14232 -0.6046,0.32076 -2.8152,0.38622 -3.2645,0.0967 z"
           id="path1187"
           inkscape:connector-curvature="0"
           transform="scale(0.26458333)" />
        <path
           style="opacity:1;fill:#ffffff;fill-opacity:1;fill-rule:nonzero;stroke:none;stroke-width:0.95447487;stroke-linejoin:round;stroke-miterlimit:4;stroke-dasharray:none;stroke-dashoffset:0;stroke-opacity:1"
           d="m -1498.7904,476.13143 c -0.7064,-0.30728 -0.8618,-0.70568 -0.8618,-2.20922 0,-1.68776 0.1441,-2.06581 0.8971,-2.35337 0.4297,-0.16411 0.8203,-0.19819 1.7274,-0.15074 0.6447,0.0337 1.2975,0.12838 1.4507,0.21034 0.5211,0.27887 0.7056,0.85549 0.7146,2.23361 0.01,1.20887 -0.01,1.29453 -0.3512,1.74404 -0.1978,0.26 -0.4998,0.52602 -0.6712,0.59116 -0.473,0.17986 -2.4434,0.13523 -2.9056,-0.0658 z"
           id="path1189"
           inkscape:connector-curvature="0"
           transform="scale(0.26458333)" />
        <path
           style="opacity:1;fill:#ffffff;fill-opacity:1;fill-rule:nonzero;stroke:none;stroke-width:0.95447487;stroke-linejoin:round;stroke-miterlimit:4;stroke-dasharray:none;stroke-dashoffset:0;stroke-opacity:1"
           d="m -1495.776,481.91283 c -0.6614,-0.32598 -0.8457,-0.80278 -0.8457,-2.18789 0,-2.03117 0.3355,-2.40489 2.2452,-2.50091 0.8382,-0.0421 1.2438,-0.004 1.6616,0.15534 0.7776,0.29698 0.9546,0.72407 0.954,2.30152 -5e-4,1.44268 -0.2152,1.95635 -0.9452,2.26136 -0.6152,0.25703 -2.5258,0.23872 -3.0699,-0.0294 z"
           id="path1191"
           inkscape:connector-curvature="0"
           transform="scale(0.26458333)" />
        <path
           style="opacity:1;fill:#ffffff;fill-opacity:1;fill-rule:nonzero;stroke:none;stroke-width:0.95447487;stroke-linejoin:round;stroke-miterlimit:4;stroke-dasharray:none;stroke-dashoffset:0;stroke-opacity:1"
           d="m -1492.4769,476.13882 c -0.7088,-0.32137 -0.8618,-0.71503 -0.8618,-2.21661 0,-2.13182 0.2268,-2.40376 2.0834,-2.49794 2.1161,-0.10735 2.5248,0.2896 2.5252,2.45251 2e-4,1.51804 -0.101,1.84762 -0.6573,2.14096 -0.5651,0.29794 -2.5296,0.37493 -3.0895,0.12108 z"
           id="path1193"
           inkscape:connector-curvature="0"
           transform="scale(0.26458333)" />
        <path
           style="opacity:1;fill:#ffffff;fill-opacity:1;fill-rule:nonzero;stroke:none;stroke-width:0.95447487;stroke-linejoin:round;stroke-miterlimit:4;stroke-dasharray:none;stroke-dashoffset:0;stroke-opacity:1"
           d="m -1495.776,470.29607 c -0.6728,-0.3316 -0.8457,-0.79633 -0.8457,-2.27333 0,-1.10076 0.037,-1.33611 0.2615,-1.64149 0.4779,-0.65154 0.983,-0.81797 2.3381,-0.77047 1.9138,0.0671 2.2621,0.45601 2.2612,2.52492 -7e-4,1.93001 -0.4673,2.37397 -2.4892,2.36872 -0.7644,-0.002 -1.2385,-0.0667 -1.5259,-0.20835 z"
           id="path1195"
           inkscape:connector-curvature="0"
           transform="scale(0.26458333)" />
        <path
           style="opacity:1;fill:#ffffff;fill-opacity:1;fill-rule:nonzero;stroke:none;stroke-width:0.95447487;stroke-linejoin:round;stroke-miterlimit:4;stroke-dasharray:none;stroke-dashoffset:0;stroke-opacity:1"
           d="m -1489.355,470.34802 c -0.7251,-0.26027 -0.9533,-0.81149 -0.9533,-2.30297 0,-2.14931 0.257,-2.39911 2.4679,-2.39911 1.5182,0 1.9084,0.15674 2.2146,0.88965 0.2626,0.62851 0.2294,2.27123 -0.059,2.89842 -0.4077,0.88779 -0.6372,1.00616 -2.0168,1.04028 -0.7278,0.018 -1.3935,-0.0328 -1.6538,-0.12627 z"
           id="path1197"
           inkscape:connector-curvature="0"
           transform="scale(0.26458333)" />
      </g>
      <path
         inkscape:connector-curvature="0"
         id="path1282"
         d="m 119.4374,123.33797 c 1.1286,-1.29235 1.64442,-3.92413 2.4534,-12.51757 0.75704,-8.04168 1.26059,-10.02571 2.54454,-10.02571 0.57884,0 0.93075,0.40645 1.71951,1.98605 0.94658,1.8956 1.65852,1.8443 2.80971,-0.20244 1.02398,-1.82059 1.41263,-3.86615 1.41951,-7.471369 0.006,-2.956872 -0.36758,-6.773512 -0.73643,-7.530546 -0.22861,-0.469197 -3.33098,-2.431586 -7.10898,-4.496736 -3.5181,-1.923093 -5.48158,-3.438311 -6.92047,-5.34052 l -1.05097,-1.389379 0.89679,-0.977438 0.8968,-0.977439 -3.13247,-3.350755 -3.13248,-3.350755 -19.991482,21.383654 -19.99149,21.383653 3.134408,3.35842 3.134417,3.35843 11.806644,-12.62786 c 6.493662,-6.94533 11.912133,-12.627876 12.041053,-12.627876 0.36587,0 2.95102,2.622837 3.78968,3.84494 0.41523,0.605078 1.58173,2.777346 2.59221,4.827256 1.01048,2.04991 2.29235,4.54615 2.84859,5.5472 1.2587,2.26524 1.22295,2.13111 1.57365,5.90398 0.31564,3.39589 0.55556,4.02248 1.36317,3.56015 0.68369,-0.39141 0.78363,-1.02271 0.78363,-4.95058 0,-3.57769 0.0139,-3.6927 0.51562,-4.26582 0.71615,-0.81806 2.26287,-0.83459 3.15268,-0.0337 1.24229,1.11817 1.39472,3.36205 0.6708,9.87523 -0.24551,2.209 -0.40882,4.65045 -0.3629,5.42544 0.13422,2.26458 1.13052,2.99935 2.28086,1.6821 z M 92.121733,91.241778 109.98226,72.135647 l 1.01615,1.07061 c 0.55888,0.588834 0.98939,1.156467 0.95669,1.261404 -0.0327,0.104938 -8.04782,8.733715 -17.811381,19.17506 l -17.751927,18.984259 -1.0653,-1.13952 -1.065299,-1.13954 z m 18.722597,11.153042 c -0.29441,-0.62149 -0.5353,-1.21691 -0.5353,-1.32317 0,-0.10624 0.38272,-0.42326 0.8505,-0.70449 3.88953,-2.33837 8.8142,-7.568967 11.37983,-12.086768 l 0.77047,-1.356691 1.10133,0.672825 c 0.60574,0.370053 1.13031,0.765804 1.16572,0.879434 0.10684,0.342857 -2.78767,4.79722 -4.4119,6.789452 -0.83618,1.025655 -2.30483,2.596648 -3.26366,3.491098 -1.68974,1.57628 -5.92314,4.7683 -6.32395,4.7683 -0.10875,0 -0.43862,-0.50849 -0.73304,-1.12999 z m -2.32334,-4.84368 c -1.38667,-2.750061 -2.88741,-4.905172 -4.57216,-6.56574 l -1.60231,-1.579321 5.09969,-5.455047 5.09968,-5.455057 0.9337,1.278803 c 1.22567,1.678698 3.80479,3.839132 6.18727,5.182845 1.05309,0.593939 1.9147,1.157317 1.9147,1.251946 0,0.09463 -0.56527,1.085863 -1.25616,2.202728 -2.40365,3.885643 -5.20379,6.881155 -8.83076,9.446903 -1.04411,0.7386 -1.95336,1.34223 -2.02055,1.34139 -0.0672,-8.9e-4 -0.49608,-0.74308 -0.9531,-1.64945 z"
         style="opacity:1;fill:#d40000;fill-opacity:1;fill-rule:nonzero;stroke:none;stroke-width:1.66280365;stroke-linejoin:round;stroke-miterlimit:4;stroke-dasharray:none;stroke-dashoffset:0;stroke-opacity:1" />
    </g>
  </g>
</svg>
