<?xml version="1.0" encoding="UTF-8" standalone="no"?>
<!-- Created with Inkscape (http://www.inkscape.org/) -->

<svg
   xmlns:dc="http://purl.org/dc/elements/1.1/"
   xmlns:cc="http://creativecommons.org/ns#"
   xmlns:rdf="http://www.w3.org/1999/02/22-rdf-syntax-ns#"
   xmlns:svg="http://www.w3.org/2000/svg"
   xmlns="http://www.w3.org/2000/svg"
   xmlns:sodipodi="http://sodipodi.sourceforge.net/DTD/sodipodi-0.dtd"
   xmlns:inkscape="http://www.inkscape.org/namespaces/inkscape"
   width="210mm"
   height="297mm"
   viewBox="0 0 210 297"
   version="1.1"
   id="svg8"
   inkscape:version="0.92.1 r15371"
   sodipodi:docname="mist.svg">
  <defs
     id="defs2" />
  <sodipodi:namedview
     id="base"
     pagecolor="#ffffff"
     bordercolor="#666666"
     borderopacity="1.0"
     inkscape:pageopacity="0.0"
     inkscape:pageshadow="2"
     inkscape:zoom="0.35"
     inkscape:cx="339.58632"
     inkscape:cy="271.19098"
     inkscape:document-units="mm"
     inkscape:current-layer="layer1"
     showgrid="false"
     inkscape:window-width="1536"
     inkscape:window-height="801"
     inkscape:window-x="-8"
     inkscape:window-y="-8"
     inkscape:window-maximized="1" />
  <metadata
     id="metadata5">
    <rdf:RDF>
      <cc:Work
         rdf:about="">
        <dc:format>image/svg+xml</dc:format>
        <dc:type
           rdf:resource="http://purl.org/dc/dcmitype/StillImage" />
        <dc:title></dc:title>
      </cc:Work>
    </rdf:RDF>
  </metadata>
  <g
     inkscape:label="Layer 1"
     inkscape:groupmode="layer"
     id="layer1">
    <g
       id="g887"
       transform="matrix(0.66487598,0,0,0.66986173,131.46339,-38.692508)">
      <path
         inkscape:connector-curvature="0"
         id="path21"
         d="m -67.468749,249.75297 2.456844,-6.80357 1.700895,-10.58333 -1.700895,-8.12649 -6.236605,-6.42559 -3.023812,-2.83483 -3.590771,-0.56696 -2.456847,1.32292 c 0,0 -1.889882,1.32291 -3.401785,1.5119 -1.511906,0.18899 -1.700892,0 -3.401785,0.18899 -1.700895,0.18899 -4.724704,0.94494 -5.858631,1.32292 -1.13393,0.37797 -1.511906,0.37797 -2.456847,0.56696 -0.944938,0.18899 -2.83482,-0.37798 -2.83482,-0.37798 0,0 -1.889882,-0.75595 -2.834822,-0.94494 -0.94494,-0.18898 -1.32292,0 -1.88988,0 -0.56696,0 -1.32292,0.18899 -1.88988,0.56697 -0.56697,0.37797 -3.02381,2.07887 -3.02381,2.07887 0,0 -0.37798,2.64583 -0.75595,3.40178 -0.37798,0.75595 -1.32292,3.40179 -1.32292,3.40179 l -0.75595,2.07887 v 1.70089 l -1.13393,1.88988 -3.02381,1.13393"
         style="fill:none;stroke:#000000;stroke-width:0.26458332px;stroke-linecap:butt;stroke-linejoin:miter;stroke-opacity:1" />
      <path
         inkscape:connector-curvature="0"
         id="path23"
         d="m -114.90476,234.25595 c 0,0 -0.55567,0.50366 -0.68931,0.60388 -0.13363,0.10023 -1.03567,0.10023 -1.03567,0.10023 0,0 -0.30068,-0.10023 -0.50113,-0.20045 -0.20045,-0.10023 -1.1693,-0.66818 -1.1693,-0.66818 0,0 -0.93545,-0.20045 -1.30294,-0.20045 -0.3675,0 -1.16931,0.30068 -1.36976,0.50113 -0.20045,0.20045 -0.7684,0.56795 -0.90203,0.80181 -0.13364,0.23386 -0.16705,0.46772 -0.30068,0.63476 -0.13364,0.16705 -1.1359,0.40091 -1.43657,0.50113 -0.30068,0.10023 -1.10249,0.40091 -1.10249,0.40091 0,0 -0.93545,0.46772 -1.10249,0.56795 -0.16704,0.10022 -0.96885,0.63476 -1.20271,0.96885 -0.23386,0.33408 -0.53454,1.23612 -0.66818,1.60362 -0.13363,0.36749 -0.36749,1.83747 -0.4009,1.97111 -0.0334,0.13363 -0.16704,0.73499 -0.16704,0.86862 0,0.13364 0.16704,0.83522 0.16704,0.83522 0,0 0.30068,0.0334 0.30068,-0.13363 0,-0.16705 0.0334,-1.16931 0.20045,-1.50339 0.16704,-0.33409 0.60136,-0.83522 0.7684,-1.16931 0.16704,-0.33409 0.30068,-0.66817 0.73499,-0.90203 0.43431,-0.23386 0.96885,-0.43432 1.30294,-0.50113 0.33409,-0.0668 0.66817,-0.20046 1.23612,0 0.56795,0.20045 0.43431,0 0.93545,0.33408 0.50113,0.33409 0.63476,0.3675 0.70158,0.56795 0.0668,0.20045 -0.0334,0 0.16704,0.66817 0.20045,0.66818 0.30068,0.80181 0.46772,1.00227 0.16705,0.20045 0.40091,0.26726 0.56795,0.46772 0.16704,0.20045 0.26727,0.60135 0.0668,0.90203 -0.20045,0.30068 -0.3675,0.86863 -0.50113,1.23612 -0.13364,0.3675 -0.46772,0.93545 -0.43432,1.10249 0.0334,0.16704 -1.5702,2.87315 -1.5702,2.87315 0,0 -1.73726,1.5368 -1.87089,1.87089 -0.13363,0.33408 -0.86863,2.07133 -0.86863,2.67269 0,0.60135 0,1.06908 0.13364,1.73725 0.13363,0.66817 0.60136,1.87089 0.66817,2.27179 0.0668,0.40091 0,1.46999 -0.13363,2.13816 -0.13364,0.66817 0,0.4009 -0.40091,1.46998 -0.4009,1.06908 0,1.26953 -0.53454,1.33635 -0.53454,0.0668 -1.00226,-0.93544 -1.5368,-0.93544 -0.53453,0 -1.73725,-0.20046 -2.07133,-0.20046 -0.33409,0 -0.735,0.0668 -1.00226,-0.33408 -0.26728,-0.40091 -0.53454,-0.66818 -0.86863,-0.86863 -0.33409,-0.20045 -0.86863,-0.80181 -1.33635,-1.13589 -0.46772,-0.33409 -1.73725,-0.26727 -1.9377,0.0668 -0.20045,0.33409 -0.40091,0.73499 -0.66818,1.06908 -0.26727,0.33409 -1.20271,0.33409 -1.26953,0.60136 -0.0668,0.26727 -1.46998,0 -1.87088,-0.26727 -0.40091,-0.26727 -0.86863,-0.53454 -1.1359,-0.66818 -0.26727,-0.13363 -0.60135,-0.33408 -1.40316,-0.66817 -0.80181,-0.33409 -0.46773,-0.33409 -1.33635,-0.53454 -0.86863,-0.20045 -1.26953,-0.20045 -2.27179,-0.20045 -1.00226,0 -2.27179,0.26727 -2.73951,0.46772 -0.46773,0.20045 -1.26954,0.86863 -1.26954,0.86863 l -1.33634,3.27405 c 0,0 -0.80181,1.40316 -1.00226,1.73725 -0.20046,0.33409 -0.40091,0.66818 -0.60136,1.26952 -0.20045,0.60138 -0.20045,1.06908 -0.33409,1.53681 -0.13363,0.46773 0.0668,1.67045 0.0668,1.67045 0,0 0.46772,-0.60138 0.53454,-0.86863 0.0668,-0.26728 0,-0.86863 0.33409,-1.33636 0.33408,-0.46773 2.00452,-1.46997 2.3386,-1.87089 0.33409,-0.4009 0.53454,-0.93544 0.86863,-1.33634 0.33409,-0.40091 -0.26727,-0.26727 0.40091,-0.46772 0.66817,-0.20046 0.93544,0.0668 1.9377,-0.20046 1.00226,-0.26727 0.86863,-0.4009 1.73725,-0.26727 0.86863,0.13364 1.26953,0.73499 1.80407,0.86863 0.53454,0.13363 1.40316,0 2.07134,0.53454 0.66817,0.53454 1.60362,1.26954 2.00452,1.87088 0.40091,0.60135 0.73499,1.00227 1.33635,1.80407 0.60136,0.80182 0.93544,0.60137 1.26953,1.9377 0.33409,1.33636 0.4009,1.9377 0.46772,2.93997 0.0668,1.00227 0.26727,1.47 -0.26727,2.47224 -0.53454,1.00227 -0.93544,1.60361 -1.26953,2.27179 -0.33409,0.66818 -0.60136,0.60137 -0.80181,1.67045 -0.20045,1.06907 -0.20045,1.40316 -0.46772,2.07134 -0.26727,0.66815 -0.0668,0.93544 -0.73499,1.53678 -0.66818,0.60137 -1.00226,1.73726 -1.00226,1.73726 0,0 0.80181,2.00453 0.86863,2.33862 0.0668,0.33409 0.20045,0.86863 -0.33409,1.33633 -0.53454,0.46773 -0.66818,0.46773 -1.26953,1.20272 -0.60136,0.73498 -1.06908,1.73725 -1.93771,2.20498 -0.86862,0.46771 -1.26953,0.53454 -1.9377,1.20272 -0.66817,0.66815 -1.06908,1.00224 -1.20271,1.67042 -0.13364,0.66818 -0.33409,1.26952 -0.40091,1.53681 -0.0668,0.26725 -0.73499,0.60134 -1.20271,0.80179 -0.46772,0.20047 -1.80407,0.40092 -1.93771,0.66818 -0.13363,0.26728 -0.66817,1.13591 -1.00226,1.73725 -0.33408,0.60137 -0.86862,3.54132 -0.93544,3.94224 -0.0668,0.4009 0.60136,4.2763 0.60136,4.54358 0,0.26726 1.33634,2.00451 1.67043,2.20496 0.33409,0.20045 1.20271,0 1.20271,0 0,0 -1.33634,-0.86862 -1.40316,-1.33633 -0.0668,-0.46773 -0.60136,-1.93773 -0.60136,-2.60588 0,-0.66818 0,-1.60361 0.20046,-2.27179 0.20045,-0.66818 0.60135,-1.8709 1.13589,-2.20499 0.53454,-0.33409 2.60588,-0.80179 2.60588,-0.80179 0,0 0.20045,-0.26728 1.13589,0.4677 0.93545,0.73499 1.1359,0.66818 1.33635,1.33636 0.20045,0.66818 0.4009,1.60361 1.00226,1.73726 0.60136,0.13364 0.73499,0 1.33635,-0.26729 0.60136,-0.26725 2.07134,-0.73498 2.33861,-0.73498 0.26727,0 1.9377,0.66818 1.9377,0.66818 0,0 0.46772,0.93543 0.86863,1.80406 0.4009,0.86862 0.93544,2.53907 0.93544,3.00678 0,0.46773 0.0668,1.40316 0.26727,1.67044 0.20045,0.26726 0.46772,1.60362 0.80181,2.07135 0.33409,0.4677 1.06908,0.66815 1.06908,1.13588 0,0.46773 -0.73499,1.80406 -1.1359,2.67269 -0.4009,0.86862 -0.26727,2.47226 -0.33409,2.93997 -0.0668,0.46773 -0.73499,1.20271 -0.93544,1.5368 -0.20045,0.33409 -0.26727,0.93544 -0.4009,1.40317 -0.13364,0.46773 -0.66818,1.20271 -1.06908,1.80406 -0.4009,0.60137 -0.93544,1.40316 -0.93544,1.80409 0,0.40089 0.53454,2.87313 0.66817,3.20722 0.13363,0.33409 2.67269,3.40768 2.67269,3.40768 l 2.07134,1.60361 2.00453,1.60364 0.66817,-0.0668 c 0,0 -1.06908,-0.73499 -1.20271,-1.20272 -0.13364,-0.4677 -0.0668,-0.73499 -0.40091,-1.33633 -0.33409,-0.60137 -0.46772,-1.20272 -0.80181,-1.80409 -0.33408,-0.60134 -1.40316,-2.20496 -1.60361,-2.67269 -0.20045,-0.4677 0.53454,-1.20271 0.73499,-1.46997 0.20045,-0.26728 0.20045,-0.60137 0.60135,-0.60137 0.40091,0 -0.4009,0.40092 1.1359,0.93546 1.5368,0.53454 2.80633,0.86863 3.20723,0.66818 0.40091,-0.20048 0.26727,-0.20048 1.00227,-0.26728 0.73499,-0.0668 0.46772,-0.13364 1.33634,0.53454 0.86863,0.66817 1.1359,0.93543 1.80407,1.5368 0.66818,0.60135 2.00452,1.80406 2.40543,2.13815 0.4009,0.33409 1.06908,1.06908 1.33634,1.40317 0.26728,0.33409 1.5368,1.9377 1.73726,2.27179 0.20045,0.33409 0.93544,1.80406 1.06908,2.13815 0.13363,0.33409 0.26727,0.66818 0.4009,1.26952 0.13363,0.60137 0.53454,2.13818 0.60136,2.47227 0.0668,0.33406 0.13363,0.53454 -0.26727,0.86863 -0.40091,0.33406 -0.53454,0.60134 -0.93545,0.80179 -0.4009,0.20045 -0.80181,0.26728 -1.13589,-0.13364 -0.33409,-0.4009 -1.87089,-1.33633 -1.93771,-1.87087 -0.0668,-0.53454 -0.53454,-0.93546 -0.60135,-1.67045 -0.0668,-0.73498 -0.0668,-1.26952 0.13363,-1.87089 0.20045,-0.60135 0.73499,-1.9377 0.73499,-1.9377 l 0.0668,-1.00225 c 0,0 -1.00226,0.66816 -1.13589,0.93544 -0.13364,0.26728 -0.80181,1.46997 -0.80181,1.46997 0,0 -0.735,1.53681 -0.735,2.00454 0,0.4677 0.33409,2.47224 0.33409,2.87313 0,0.40093 1.06908,3.67496 1.06908,3.67496 l 0.20045,0.60137 -0.73499,1.80406 -3.0736,2.67269 c 0,0 -2.67269,4.27633 -3.0736,4.81087 -0.4009,0.53454 -4.54358,6.41445 -4.54358,6.41445 0,0 -1.33635,2.40543 -1.20271,3.20725 0.13363,0.8018 0.53454,3.20723 1.20271,3.60813 0.66817,0.40089 2.53906,0.40089 2.53906,0.40089 0,0 2.13816,-1.33633 2.80633,-1.60361 0.66817,-0.26726 3.74177,-3.47451 3.74177,-3.47451 l 3.60814,-4.81084 1.06908,-1.87089 0.80181,5.3454 c 0,0 0.93544,2.00451 1.60362,2.40543 0.66817,0.4009 0.93544,0.4009 1.20271,1.06908 0.26727,0.66815 -1.20271,3.07358 -1.87089,4.14266 -0.66817,1.06907 -2.27179,4.14269 -2.80633,4.54358 -0.53454,0.40093 -2.80633,2.93997 -2.80633,2.93997 0,0 -0.4009,1.20272 -1.06908,1.20272 -0.66817,0 -3.34087,2.13815 -3.34087,2.13815 0,0 -0.93544,0.66818 -0.93544,1.33636 0,0.66818 -0.53454,2.53904 0.13364,2.80633 0.66817,0.26725 1.06908,0.80179 1.73725,0.80179 0.66817,0 2.13816,-1.33633 2.13816,-1.33633 l 3.34086,-1.60361 c 0,0 1.73726,-2.00454 2.27179,-2.40544 0.53455,-0.40089 2.00453,-1.87089 2.80633,-2.00453 0.80181,-0.13362 2.80633,-1.60362 2.80633,-1.60362 l 1.33635,-2.93997 2.13816,-5.34537 v 2.40543 l 0.4009,4.14266 0.80181,3.20725 v 1.46997 l -2.67269,6.41448 -1.33635,3.87541 c 0,0 -0.66818,1.73725 -0.80181,2.53905 -0.13364,0.80182 -0.53454,1.60361 -0.66817,2.53907 -0.13364,0.93543 0.93544,3.20723 1.46998,3.20723 0.53454,0 1.33635,-0.26729 1.33635,-0.26729 0,0 0.13363,2.00454 0.13363,2.67272 0,0.66818 -0.53454,1.73725 0.80181,2.00451 1.33635,0.26728 1.20271,0.53454 1.87089,0.26728 0.66817,-0.26728 2.53906,-1.47 2.53906,-1.47 l 0.93544,-1.60361 0.13364,-1.20272 1.87088,1.33636 c 0,0 2.806332,-0.13364 3.073601,-0.66818 0.267269,-0.53454 1.469982,-2.53905 1.469982,-2.53905 0,0 3.207235,-4.81086 3.474503,-5.3454 0.267272,-0.53454 3.741775,-5.21176 3.741775,-5.21176 0,0 0.267269,-2.40541 0.267269,-2.93995 0,-0.53453 0.267269,-5.21176 0.400904,-5.7463 0.133636,-0.53453 0.80181,-4.54358 0.80181,-5.3454 0,-0.80179 0.801809,-4.00905 1.069078,-4.54358 0.267268,-0.53454 0.801809,-2.00451 0.801809,-2.00451 l -1.603619,-7.6172 c 0,0 -1.336347,-3.47448 -1.336347,-4.14266 0,-0.66818 0,-3.07361 -0.400904,-3.60815 -0.400905,-0.53454 0.668173,-1.46997 0.668173,-1.46997 l 2.539061,1.06907 c 0,0 0.801809,0.53454 1.069078,1.33636 0.267269,0.8018 1.870887,2.40541 2.672697,2.53905 0.801806,0.13364 3.741771,0.80182 4.276312,0.93543 0.534537,0.13365 2.405425,0.26729 2.405425,0.26729 0,0 0.400904,-0.13364 -0.267269,1.33635 -0.668174,1.46998 0.801806,4.00902 1.069078,4.81084 0.267269,0.80182 0.801806,2.40544 0.668173,3.47451 -0.133635,1.06908 -0.53454,3.07359 -0.935445,3.60812 -0.400902,0.53454 -1.202711,2.00454 -1.202711,2.00454 l 3.608139,-1.87089 c 0,0 1.202711,-3.60813 1.603616,-4.27631 0.400904,-0.66817 0.53454,-1.73725 1.336349,-2.13815 0.801807,-0.40092 1.737252,-1.20271 2.138156,-2.13817 0.400902,-0.93544 2.138156,-1.73726 2.80633,-3.07359 0.668173,-1.33636 0.400905,-2.00454 1.202711,-2.13815 0.801809,-0.13364 2.806332,1.46997 5.479026,0.93543 2.672697,-0.53453 5.479026,-2.67268 5.479026,-2.67268 0,0 0.133633,1.87086 0.534538,2.53904 0.400904,0.66818 1.737251,1.8709 2.53906,1.33636 0.80181,-0.53454 1.603619,-1.20272 2.672697,-1.33636 1.069078,-0.13364 3.073598,-0.53453 4.276312,-0.13364 1.202714,0.40093 4.142677,1.33636 4.142677,1.33636"
         style="fill:none;stroke:#000000;stroke-width:0.26458332px;stroke-linecap:butt;stroke-linejoin:miter;stroke-opacity:1" />
      <path
         inkscape:connector-curvature="0"
         id="path25"
         d="m -103.9679,398.69604 c 0,0 0.40085,2.67272 0,0 -0.40085,-2.67269 0.66823,-4.54358 0.66823,-4.54358 0,0 0.53454,-1.33633 1.06908,-2.00451 0.53454,-0.66818 1.33634,-1.20272 1.73725,-1.8709 0.4009,-0.66817 0.801807,-1.46997 0.935443,-2.00451 0.133633,-0.53453 1.603616,-2.40543 1.870885,-3.07361 0.267271,-0.66818 0.53454,-2.27179 0.53454,-2.27179 0,0 0.534538,-1.20272 0.668173,-2.13815 0.133636,-0.93543 0.80181,-4.14269 0.80181,-4.14269 l -0.267269,-3.60812 -0.133636,-2.40543"
         style="fill:none;stroke:#000000;stroke-width:0.26458332px;stroke-linecap:butt;stroke-linejoin:miter;stroke-opacity:1" />
      <path
         inkscape:connector-curvature="0"
         id="path27"
         d="m -110.38237,398.02786 1.06913,-4.00902 c 0,0 0.93545,-1.60364 1.20272,-2.53907 0.26727,-0.93543 1.20271,-3.60812 1.20271,-3.60812 l 2.00452,-3.3409 c 0,0 0.26727,-0.53453 0.53454,-1.06907 0.26727,-0.53454 0.80181,-2.27179 0.80181,-2.27179 l 1.06908,-2.00451 c 0,0 0.66817,-2.00454 0.66817,-2.67269 0,-0.66818 -0.80181,-3.74179 -0.80181,-3.74179 l -0.4009,-2.13815 -0.26727,-1.60362 0.13363,-0.93543"
         style="fill:none;stroke:#000000;stroke-width:0.26458332px;stroke-linecap:butt;stroke-linejoin:miter;stroke-opacity:1" />
      <path
         inkscape:connector-curvature="0"
         id="path29"
         d="m -39.555949,356.60113 c 0,0 1.403223,-0.13367 2.071399,-0.33412 0.668174,-0.20045 2.873148,-1.33636 3.340868,-1.80406 0.467722,-0.46773 2.605878,-1.60361 2.605878,-1.60361 0,0 -0.06682,-0.20045 0.734992,0.40089 0.801809,0.60135 2.00452,1.26953 2.472242,1.53681 0.467723,0.26725 2.004522,0.93543 2.338609,1.06907 0.334087,0.13364 -0.534539,1.20272 1.670434,1.20272 2.204974,0 3.0736,-0.13364 3.674956,-0.20045 0.601357,-0.0668 1.135896,-0.73501 1.403165,-0.53454 0.26727,0.20045 0.935444,1.73723 1.069078,2.00451 0.133635,0.26726 0.734991,1.67042 0.734991,2.13815 0,0.46773 0.133635,1.53681 0.26727,1.93771 0.133635,0.40089 0.467722,1.13591 0.200452,1.60361 -0.267269,0.46773 -1.804069,2.53907 -1.804069,2.53907 0,0 -0.935443,0.8018 -0.668174,0.8018 0.26727,0 3.0736,-1.67042 3.0736,-1.67042 0,0 1.737252,-1.93771 1.804069,-2.40544 0.06682,-0.46773 0.668174,-3.80859 0.868626,-4.47675 0.200452,-0.66817 -0.400904,-4.00904 -0.534539,-4.27632 -0.133635,-0.26726 0,-1.93771 -0.06682,-2.40544 -0.06682,-0.4677 -0.668173,-1.06907 -0.534539,-1.67042 0.133635,-0.60134 0.801809,-1.73725 0.801809,-1.73725 0,0 0.26727,-2.13815 0.668174,-2.40543 0.400904,-0.26726 2.53906,-0.93544 3.340869,-1.13589 0.8018084,-0.20045 2.472243,-1.20271 3.4076861,-1.80406 0.9354434,-0.60137 1.8708868,-1.80409 2.5390607,-1.93773 0.6681738,-0.13361 2.5390604,0.53457 3.80859069,0.53457 1.26953021,0 5.67947741,-1.67045 6.88219041,-2.80636 1.2027127,-1.13588 5.6794771,-2.93994 6.2140161,-3.54131 0.534539,-0.60135 2.472243,-2.67269 2.672696,-2.60589 0.200452,0.0668 3.274051,-0.13361 3.741773,-0.13361 0.467721,0 1.536799,0.80179 2.405425,1.06907 0.868626,0.26726 2.071339,0.13365 2.405426,0.33409 0.334087,0.20045 2.939966,1.87087 3.34087,2.53905 0.400902,0.66818 1.536798,1.67045 1.603616,1.9377 0.06682,0.26729 0.400905,1.60362 0.467723,2.20499 0.06682,0.60134 -0.200454,2.47224 -0.400905,3.14042 -0.200451,0.66818 -0.801809,2.13815 -0.801809,2.4054 0,0.26729 -0.334087,0.93546 -0.334087,0.93546 0,0 2.204974,-2.27179 2.539061,-2.53907 0.334086,-0.26725 1.069078,-1.46997 1.603618,-2.3386 0.534538,-0.86863 1.00226,-2.27179 1.00226,-3.27406 0,-1.00224 -0.267269,-3.20722 -0.601358,-4.07585 -0.334087,-0.86863 -0.668173,-2.20499 -1.069078,-2.73952 -0.400902,-0.53454 -1.536798,-1.73726 -1.670434,-2.00451 -0.133635,-0.26729 0.133636,-0.93544 -0.400904,-1.73726 -0.534538,-0.80182 -1.269529,-2.47224 -1.403165,-3.67495 -0.133636,-1.20272 -0.467722,-1.40317 -0.133636,-2.67269 0.33409,-1.26953 2.405428,-2.00454 3.674957,-2.80633 1.269532,-0.80182 1.269532,-1.47 1.670436,-2.53908 0.400902,-1.06907 0.133633,-1.46997 1.670434,-1.46997 1.5368,0 4.075861,1.00227 5.34539,0.4009 1.269529,-0.60135 2.672696,-1.33633 3.274052,-2.13815 0.601356,-0.80182 1.870887,-3.74177 1.804069,-4.2095 -0.06682,-0.46773 -0.400904,-6.61492 -0.53454,-7.01582 -0.133633,-0.4009 -0.668173,-1.9377 0.53454,-2.27179 1.202712,-0.33409 4.610399,-0.73499 5.011304,-1.06908 0.400905,-0.33409 0.534538,-1.47 1.00226,-2.00453 0.467723,-0.53454 1.135896,-3.87541 1.069078,-4.2095 -0.06682,-0.33409 1.536801,-0.4009 2.138156,-0.4677 0.601356,-0.0668 2.405425,0.93543 2.672697,1.20271 0.267269,0.26726 1.135896,1.00225 1.670433,1.73723 0.534541,0.73501 1.536801,3.54134 1.536801,3.54134 l 0.200451,0.60135 c 0,0 0.267269,-2.47224 0.06682,-3.00678 -0.200451,-0.53454 -0.601356,-2.47224 -0.935443,-3.27406 -0.334086,-0.80179 -1.069078,-2.93997 -1.403164,-3.20723 -0.33409,-0.26728 -1.403168,-1.40316 -1.937705,-1.67044 -0.534541,-0.26726 -1.403165,-0.8018 -2.138157,-0.8018 -0.734991,0 -1.336346,-0.40089 -2.271791,-0.13364 -0.935443,0.26729 -1.536801,0.60137 -2.204974,0.13364 -0.668174,-0.46773 -3.741772,-1.33635 -3.741772,-1.33635 l -1.403165,0.53453 c 0,0 0.06682,-3.4745 0.06682,-4.00904 0,-0.53454 -0.267272,-1.73726 -0.33409,-2.7395 -0.06682,-1.00227 0.06682,-1.73725 1.069079,-3.00677 1.002262,-1.26956 1.202713,-2.2718 3.006783,-3.14042 1.804069,-0.86863 3.207234,-2.60589 3.674956,-3.34087 0.467723,-0.73501 2.138156,-2.20499 1.737252,-3.47451 -0.400905,-1.26952 -0.734992,-3.40769 -0.734992,-4.07587 0,-0.66817 -1.269529,-0.60135 0.534541,-1.80407 1.804069,-1.20271 2.00452,-1.13589 2.138156,-1.73725 0.133633,-0.60135 0.400902,-2.60588 0.267269,-3.0736 -0.133636,-0.46772 -0.267269,-1.9377 0,-2.73951 0.267269,-0.80181 2.405425,-2.60588 2.405425,-2.60588 l 4.810852,-0.33408 c 0,0 1.202711,0.60135 1.536798,0.93544 0.33409,0.33409 1.737254,1.26953 1.737254,1.26953 0,0 -0.200453,-1.9377 -0.400904,-2.27179 -0.200454,-0.33409 -1.603619,-1.73725 -2.138156,-2.07134 -0.534541,-0.33409 -1.403165,-1.20271 -2.539061,-1.60362 -1.135896,-0.4009 -3.608139,-1.26953 -4.075861,-1.26953 -0.467723,0 -2.939966,1.06908 -3.207234,1.26953 -0.267269,0.20045 -0.534538,0.53454 -0.935443,0.73499 -0.400904,0.20046 -0.200453,1.00226 -1.135896,0.735 -0.935445,-0.26728 -0.467722,-0.735 -1.336347,-0.80181 -0.868627,-0.0668 -0.935445,0.20045 -1.336349,-0.0668 -0.400905,-0.26727 -0.534538,-1.46998 -0.534538,-1.46998 0,0 0.267269,-0.93545 0.601356,-1.60362 0.334086,-0.66818 0.668173,-2.6727 0.53454,-3.20723 -0.133636,-0.53454 -1.202714,-1.20272 -0.53454,-1.87089 0.668173,-0.66817 0.734991,0.33409 2.004523,-1.1359 1.269529,-1.46998 1.603615,-2.20497 1.670433,-3.00678 0.06682,-0.80181 -0.06682,-1.20271 -0.06682,-1.9377 0,-0.73499 0.80181,-1.40317 1.737252,-1.46999 0.935445,-0.0668 1.670436,-0.0668 1.937705,0.40091 0.267269,0.46772 1.336347,1.60362 1.603616,1.60362"
         style="fill:none;stroke:#000000;stroke-width:0.26458332px;stroke-linecap:butt;stroke-linejoin:miter;stroke-opacity:1" />
      <path
         inkscape:connector-curvature="0"
         id="path31"
         d="m 42.04985,182.6622 c -0.472469,0.28348 -1.41741,1.70089 -3.307291,2.36235 -1.889882,0.66146 -1.133928,0.85045 -3.212799,0.85045 -2.078868,0 -2.456844,-0.47247 -4.724701,-0.75596 -2.267858,-0.28348 -3.212799,-0.75595 -4.630208,-0.85044 -1.417411,-0.0945 -4.535714,-0.75595 -6.047619,-0.75595 -1.511905,0 -3.685268,0 -5.008185,0.18898 -1.322916,0.18899 -3.685267,0.56697 -4.346726,0.94495 -0.661458,0.37797 -3.3072913,2.36235 -3.6852676,2.64583 -0.3779761,0.28348 -0.7559524,0.47247 -1.1339285,1.03943 -0.377976,0.56697 -1.0394344,1.79539 -1.0394344,1.79539 0,0 -0.2834822,0.75595 0,1.5119 0.283482,0.75596 0.7559522,2.45685 0.7559522,1.88989 0,-0.56697 0.094494,-1.98438 0.4724704,-2.55134 0.3779761,-0.56697 1.6063986,-1.13393 2.8348212,-1.6064 1.2284227,-0.47247 0.7559524,-0.66146 3.0238097,-0.47247 2.267857,0.18898 2.267857,0.18898 3.874256,0.94494 1.606399,0.75595 3.49628,1.41741 3.96875,1.88988 0.47247,0.47247 1.984375,1.22842 0.94494,2.55134 -1.039434,1.32291 -1.41741,1.98437 -2.929315,2.83482 -1.511905,0.85045 -4.346726,1.98437 -4.724703,2.92931 -0.377976,0.94494 0.566965,1.41742 -0.188987,1.7009 -0.755953,0.28348 -3.1183042,-0.66146 -4.5357149,-0.94494 -1.4174108,-0.28348 -4.4412201,-0.37798 -5.5751486,-0.0945 -1.1339287,0.28348 -1.88988103,0.66146 -3.9687501,0.66146 -2.0788689,0 -5.9531248,1.03943 -6.6145831,1.32292 -0.6614584,0.28348 -4.4412203,2.45684 -5.0081843,2.74033 -0.566965,0.28348 -1.700893,0.56696 -2.267857,1.60639 -0.566965,1.03944 -1.133929,1.79539 -1.228423,2.83483 -0.09449,1.03943 -0.188988,1.03943 -0.188988,2.17336 0,1.13393 -0.09449,2.07887 0,2.55134 0.09449,0.47247 1.133928,-0.47247 1.133928,-0.85045 0,-0.37797 0.188989,-2.26786 0.472471,-2.74033 0.283482,-0.47247 1.41741,-1.03943 2.740327,-1.41741 1.322917,-0.37797 2.2678572,-1.32291 3.779762,-1.32291 1.5119046,0 2.5513392,-0.37798 3.0238094,0.75595 0.4724702,1.13393 0.9449406,1.5119 1.0394344,2.55134 0.094494,1.03943 0.094494,2.17336 0.6614583,3.1183 0.5669645,0.94494 1.1339287,1.13393 2.4568453,1.79539 1.32291669,0.66146 1.79538692,0 1.79538692,1.41741 0,1.41741 0,1.6064 -0.47247023,4.7247 -0.47247024,3.11831 -1.0394345,5.38616 -0.85044642,6.61459 0.18898809,1.22842 0.75595238,2.26785 1.03943451,2.64583 0.28348214,0.37798 2.07886902,1.13393 2.55133942,1.88988 0.4724701,0.75595 0.377976,1.22842 1.6063986,1.70089 1.2284226,0.47247 2.9293155,0.28348 3.0238096,1.32292 0.094494,1.03943 0.094494,3.77976 -0.1889881,4.63021 -0.2834823,0.85044 -0.9449406,2.17336 -1.3229167,2.64583 -0.3779763,0.47247 -2.6458333,0.66146 -3.7797619,0.47247 -1.1339285,-0.18899 -2.92931542,-0.47247 -3.9687499,-0.28348 -1.0394346,0.18899 -0.094494,1.13393 -1.8898811,0.75595 -1.7953868,-0.37798 -3.9687499,-1.6064 -5.6696427,-1.03943 -1.7008924,0.56696 -3.1183034,1.22842 -3.6852684,1.70089 -0.566964,0.47247 -1.41741,0.66146 -2.078868,1.41741 -0.661459,0.75595 -1.133929,1.32292 -1.228423,2.07887 -0.09449,0.75595 -0.09449,0.94494 -0.09449,1.98437 0,1.03944 -0.283482,1.98438 0,2.26786 0.283482,0.28348 1.039434,-0.28348 1.039434,-0.66146 0,-0.37797 0.472471,-1.88988 0.661459,-2.36235 0.188988,-0.47247 1.133928,-1.03943 1.700892,-1.22842 0.566965,-0.18899 2.834822,-0.0945 3.9687507,-0.0945 1.1339285,0 2.1733629,-0.66146 2.7403271,0.56696 0.5669645,1.22842 0,1.32291 0.5669645,2.55134 0.5669643,1.22842 3.5907737,2.36235 4.6302082,2.36235 1.0394345,0 2.4568452,-0.47247 3.0238095,0.66146 0.5669643,1.13393 0.7559524,1.32291 0.6614583,2.17336 -0.094494,0.85045 -0.094494,1.22842 -0.4724702,2.17336 -0.3779762,0.94494 -0.1889881,5.10267 0,6.33111 0.1889881,1.22841 0.7559525,4.15774 0.7559525,5.38615 0,1.22843 0,1.88989 -0.6614585,3.21281 -0.6614583,1.32291 -0.9449405,1.60639 -1.51190472,1.7009 -0.56696429,0.0945 -1.13392856,0.18896 -1.88988098,0.0945 -0.7559523,-0.0945 -3.8742557,-0.85045 -3.8742557,-0.85045 0,0 -2.2678573,0.0945 -3.4017858,0.75597 -1.1339287,0.66146 -1.7953869,1.32291 -2.6458329,1.88986 -0.850447,0.56698 -1.417411,1.32292 -2.078869,2.36236 -0.661459,1.03944 -0.850447,4.06323 -0.566965,4.63021 0.283482,0.56695 1.511905,2.64583 1.511905,2.64583 0,0 0,-1.32291 0,-1.7009 0,-0.37798 -0.47247,-1.32291 0.09449,-2.07885 0.566964,-0.75597 -0.09449,-1.13393 1.322917,-1.8899 1.4174104,-0.75594 2.8348211,-1.51191 3.5907735,-1.51191 0.7559524,0 2.0788691,0.189 2.6458333,0.66146 0.5669642,0.47247 1.7953868,2.45684 2.173363,3.02382 0.3779762,0.56698 3.02380952,0.94493 3.21279761,1.32292 0.18898809,0.37798 -0.18898809,2.74031 0.18898809,3.68527 0.3779762,0.94494 1.4174107,1.51191 0.4724702,2.17337 -0.94494043,0.66146 -1.79538685,1.79538 -3.4017856,2.45684 -1.6063989,0.66146 -2.0788691,1.13393 -2.3623513,0.0945 -0.283482,-1.03944 -0.3779761,-2.26785 -1.4174105,-2.83482 -1.0394346,-0.56695 -2.1733631,-1.70088 -3.3072916,-1.60639 -1.1339287,0.0945 -1.7953867,0.66146 -2.5513397,0 -0.755952,-0.66146 -1.889881,-1.51191 -2.362351,-1.79539 -0.47247,-0.28347 -1.984375,-0.75596 -2.740327,-0.75596 -0.755953,0 -1.795387,0 -2.645834,0 -0.850446,0 -1.795386,0.37798 -2.362351,0.66145 -0.566964,0.28351 -1.41741,0.56698 -1.889881,1.41743 -0.47247,0.85045 -0.661458,1.4174 -0.850446,1.98438 -0.188988,0.56694 -0.09449,1.88986 -0.188988,2.26784 -0.09449,0.37799 0.09449,1.32292 0.283482,0.75597 0.188988,-0.56697 0.283482,-1.41742 0.755952,-1.7009 0.472471,-0.28347 1.511905,-0.85045 2.078869,-1.03944 0.566965,-0.18899 1.700893,-0.28347 1.700893,-0.28347 l 2.173363,0.85045 0.944941,1.88986 c 0,0 1.039434,1.88989 1.700893,2.64583 0.661458,0.75597 1.228422,3.3073 1.228422,3.3073 0,0 0.661459,0.75596 0.755952,1.22843 0.09449,0.47247 0.566965,0.47247 0.283483,1.13392 -0.283483,0.66146 -0.755953,3.21281 -0.944941,3.59077 -0.188988,0.37798 -0.661458,0.75597 -1.606398,0.85045 -0.944941,0.0945 -2.834822,-0.28347 -3.874256,0.0945 -1.039435,0.37796 -1.795387,1.70087 -2.645834,2.36233 -0.850446,0.66146 -1.322916,0.66146 -2.078869,0.94496 -0.755952,0.28348 -2.267857,1.88987 -3.212798,1.60639 -0.944941,-0.28347 -3.023809,-1.13392 -4.535712,-1.51191 -1.511906,-0.37798 -2.74033,-1.5119 -3.307292,-2.17336 -0.566965,-0.66146 -2.362353,-2.74032 -2.362353,-2.74032 l -2.740327,-0.75597 c 0,0 -1.984375,0.56698 -2.456844,0.85045 -0.472472,0.28348 -2.362351,0.47247 -2.645833,1.03945 -0.283483,0.56695 -1.039435,2.17336 -1.039435,2.17336 l 1.984375,-0.85045 c 0,0 1.322917,-1.13392 2.173362,-0.94493 0.850448,0.18897 1.41741,0.47247 1.795388,0.66146 0.377976,0.18896 1.133928,0.56695 1.133928,0.94493 0,0.37799 -0.283483,1.4174 -0.566965,1.79538 -0.283483,0.37799 -0.850445,1.32292 -0.850445,1.70091 0,0.37795 -0.850448,3.59076 -0.850448,3.59076 l -0.09449,1.4174 c 0,0 0.188987,1.98438 0.188987,2.92934 0,0.94493 0.755954,1.70087 -1.228421,1.88986 -1.984375,0.18899 -2.834823,1.41743 -4.535715,0.56698 -1.700893,-0.85045 -3.212798,-1.03945 -4.441219,-0.66146 -1.228423,0.37798 -1.984375,0.94493 -2.078871,1.7009 -0.09449,0.75594 -1.039434,1.13392 -1.039434,2.92931 0,1.79538 0.566965,2.64583 0,3.21278 -0.566965,0.56697 -2.456844,-0.94493 -2.456844,-0.94493 0,0 -0.283483,-0.0945 -2.55134,-0.75594 -2.267858,-0.66146 -2.267858,-0.0945 -2.929316,-1.98438 -0.661458,-1.88989 -0.377976,-1.41743 -1.133927,-2.55135 -0.755955,-1.13393 -0.283483,-3.77976 -0.283483,-3.77976 0,0 0.377976,-0.56697 -0.283483,-1.13392 -0.661458,-0.56698 -0.472469,-2.26785 -0.566965,-3.02382 -0.09449,-0.75594 -0.850444,-3.1183 -1.133927,-3.59077 -0.283482,-0.47246 -2.929316,-3.49628 -2.929316,-3.49628 0,0 -1.228423,-1.4174 -1.795386,-1.60639 -0.566965,-0.18899 -2.362353,-0.2835 -2.362353,-0.2835 0,0 1.228423,1.32291 1.606399,1.88989 0.377976,0.56698 1.511906,1.98437 1.606399,2.83483 0.09449,0.85045 0.18899,1.98437 0.09449,2.83482 -0.09449,0.85045 -0.472469,1.79538 -0.755952,2.17337 -0.283482,0.37795 -1.322917,0.66146 -1.606399,0.94493 -0.283483,0.28347 -1.41741,0.56695 -1.511903,1.60639 -0.0945,1.03944 -0.283483,1.88989 -1.039434,2.83483 -0.755955,0.94493 -2.645834,4.25222 -2.645834,4.25222 0,0 -0.377978,0.66146 -0.755954,0.75597 -0.377976,0.0945 -2.078868,0.66146 -1.984375,0 0.0945,-0.66146 0.850448,-1.60642 0.944941,-2.55135 0.09449,-0.94494 0,-3.40178 0,-3.40178 0,0 0.188989,0.0945 -0.566965,-1.51191 -0.755952,-1.60639 -1.41741,-5.57514 -1.606397,-6.04763 -0.188989,-0.47247 -0.661458,-2.36233 -0.944941,-2.92931 -0.283482,-0.56695 -1.606399,-2.83482 -2.55134,-3.77976 -0.94494,-0.94493 -1.228423,-2.45684 -2.456844,-3.49628 -1.228423,-1.03944 -2.645833,-1.88986 -2.645833,-1.88986 0,0 0.377976,0.66145 0.661458,1.2284 0.28348,0.56698 0.566963,1.22844 0.850445,2.36236 0.283483,1.13393 1.13393,1.51191 0,2.83483 -1.133927,1.32291 -1.133927,2.83482 -2.83482,2.9293 -1.700895,0.0945 -1.700895,0.37799 -2.078871,0.47247 -0.377975,0.0945 -1.133927,-0.37798 -1.133927,-1.13392 0,-0.75594 0.188987,-1.4174 -0.472472,-1.22844 -0.661458,0.18899 -1.41741,0.66146 -1.889879,0.56698 -0.472471,-0.0945 -1.039434,0 -0.944941,-0.66146 0.09449,-0.66146 0.188987,-1.03944 0.188987,-1.4174 0,-0.37798 -1.133927,-0.75597 -1.133927,-0.75597 0,0 0,0.18899 -0.283483,0.85045 -0.283482,0.66146 -0.377976,0.75594 -0.377976,0.75594 l -0.94494,-1.2284 c 0,0 -0.37798,0 -0.56696,0.37798 -0.18899,0.37796 -0.37798,0.75594 -0.75596,0.47247 -0.37797,-0.2835 -0.75595,-0.85045 -0.75595,-0.85045 0,0 -0.56696,0.0945 -1.03943,0.28347 -0.47247,0.18899 -0.18899,0.18899 -0.85045,0.28348 -0.66146,0.0945 -1.03943,-0.75595 -1.03943,-0.0945 0,0.66146 0.28348,1.4174 0.28348,1.4174 0,0 0.47247,0.75597 -0.0945,0.85045 -0.56697,0.0945 -1.51191,-1.2284 -2.07888,-1.51191 -0.56696,-0.28347 -1.60639,-0.75594 -1.60639,-1.13392 0,-0.37796 0.37797,-1.4174 0,-2.17337 -0.37798,-0.75594 -1.41741,-2.07886 -1.98438,-2.64583 -0.56696,-0.56695 -1.70089,-0.37796 -1.5119,-1.32292 0.18898,-0.94493 2.83482,-1.4174 3.40178,-1.79538 0.56697,-0.37796 0.66146,0 1.22843,-0.94493 0.56696,-0.94494 -1.13393,-0.66146 0.56696,-1.03945 1.70089,-0.37795 2.45684,0.189 2.45684,0.189 0,0 0.56697,1.22843 0.28349,2.07888 -0.28349,0.85042 -0.56697,1.88987 -0.56697,2.8348 0,0.94496 0.37798,2.92933 0.75595,1.98437 0.37798,-0.94493 1.41742,-3.21278 1.51191,-3.77975 0.0945,-0.56695 0.56696,-1.13393 0.37798,-1.98438 -0.18899,-0.85045 -0.66146,-1.51191 -0.94495,-1.98437 -0.28348,-0.47247 -1.98437,-1.79539 -2.74032,-2.55133 -0.75595,-0.75597 -2.45685,-1.13392 -3.1183,-1.41742 -0.66146,-0.28348 -2.64584,-1.13393 -2.64584,-1.13393 0,0 -1.41741,-1.98437 -1.41741,-2.55132 0,-0.56698 -1.32292,-1.98438 0.56696,-2.74035 1.88989,-0.75594 2.64584,-0.85045 3.59078,-1.88986 0.94494,-1.03944 1.22842,-1.79541 1.79538,-1.88989 0.56697,-0.0945 2.17337,1.60639 2.17337,1.60639 l 1.79538,-0.47247 c 0,0 0,0.66146 0,1.60639 0,0.94496 0.66146,1.51191 0.75596,1.8899 0.0945,0.37798 0.28348,1.13392 0.0945,1.79538 -0.18899,0.66146 -0.28348,2.45684 -0.47247,3.1183 -0.18899,0.66146 -0.37798,1.88989 -0.37798,2.36236 0,0.47246 0.28349,1.4174 0.56697,0.85045 0.28348,-0.56698 1.98437,-4.06326 2.36235,-5.10268 0.377975,-1.03944 1.039434,-3.30729 1.039434,-4.25225 0,-0.94493 0.283482,-3.59077 0.0945,-4.25222 -0.188989,-0.66146 -1.417414,-2.07886 -1.133934,-3.02382 0.283487,-0.94493 1.51191,-1.70087 0.755956,-2.8348 -0.755956,-1.13395 -0.661466,-1.7009 -1.889886,-2.26788 -1.22842,-0.56694 -2.36235,-1.03941 -1.79539,-1.70087 0.56697,-0.66146 1.51191,-1.88989 1.51191,-2.55135 0,-0.66146 0.0945,-2.07886 0,-2.74032 -0.0945,-0.66145 -0.56696,-2.92932 -0.56696,-2.92932 l 0.37797,-1.79539 c 0,0 1.03944,0.28348 1.70089,0.28348 0.661466,0 3.023819,0.28348 3.590782,-0.66146 0.566965,-0.94494 1.13393,-1.13392 1.700892,-2.45684 0.566965,-1.32292 0.944941,-1.51191 0.944941,-2.92932 0,-1.41741 -0.472469,-2.26785 0.188989,-2.45684 0.661459,-0.18899 2.645834,-1.03944 3.118303,-1.32292 0.472472,-0.28348 1.228423,-1.70089 1.228423,-1.70089 0,0 1.511906,-0.37798 2.078868,-0.0945 0.566965,0.28349 0.661459,0.47247 1.13393,0.66146 0.47247,0.18899 2.362351,2.07887 2.740327,2.74033 0.377976,0.66146 0.944941,1.70089 1.228423,2.36235 0.283483,0.66146 1.41741,2.26786 1.41741,2.26786 l -1.511906,-5.29167 c 0,0 -0.944938,-2.64583 -1.133927,-3.1183 -0.188989,-0.47247 -0.472469,-1.70089 -1.41741,-1.98438 -0.944941,-0.28348 -2.456847,-1.22842 -3.212798,-1.5119 -0.755952,-0.28348 -1.606399,0.18899 -1.700893,-0.28348 -0.09449,-0.47247 -0.944941,-2.45685 -0.944941,-2.45685 0,0 -0.472469,-1.13393 -0.755951,-1.32292 -0.283483,-0.18898 -1.417413,-0.56696 -1.511906,-0.94494 -0.09449,-0.37797 -0.566965,-1.98437 -0.566965,-1.98437 0,0 1.039437,-1.32292 1.511906,-1.70089 0.472469,-0.37798 1.039434,-0.85045 1.133927,-1.7009 0.0945,-0.85044 -0.188986,-2.26785 0.283483,-3.21279 0.472472,-0.94495 1.417412,-1.7009 2.267857,-2.17337 0.850448,-0.47247 1.889882,-1.13393 2.645834,-0.94494 0.755951,0.18899 0.661458,-0.85044 1.511905,-1.32291 0.850445,-0.47248 1.700893,-0.94494 2.267858,-0.66146 0.566962,0.28348 1.133927,1.13393 2.267855,0.85044 1.13393,-0.28348 1.228423,0 1.700895,-0.66146 0.472469,-0.66145 0.944938,-1.22842 1.511903,-1.13392 0.566965,0.0945 1.606399,0.56696 1.984375,0.94494 0.377976,0.37797 2.456847,2.74033 2.834823,3.30729 0.377975,0.56696 2.078868,3.02381 2.267857,3.59077 0.188987,0.56697 1.41741,2.26786 1.41741,2.83482 0,0.56697 0.283483,2.17337 0.377976,2.64584 0.09449,0.47247 0.377976,2.92931 0.472469,3.30729 0.0945,0.37797 -0.28348,3.96875 -0.28348,3.96875 l -0.188989,3.1183"
         style="fill:none;stroke:#000000;stroke-width:0.26458332px;stroke-linecap:butt;stroke-linejoin:miter;stroke-opacity:1" />
      <path
         inkscape:connector-curvature="0"
         id="path33"
         d="m -116.03869,341.60118 2.64583,-4.72469 c 0,0 0.37798,-2.64583 0.37798,-3.77976 0,-1.13395 0,-4.91371 0,-5.66965 0,-0.75596 -0.37798,-6.99256 -0.37798,-6.99256 0,0 0,-4.15775 0.75596,-5.29167 0.75595,-1.13393 2.64583,-5.29167 3.21279,-6.42559 0.56697,-1.13393 0.75596,-1.88989 0.75596,-1.88989"
         style="fill:none;stroke:#000000;stroke-width:0.26458332px;stroke-linecap:butt;stroke-linejoin:miter;stroke-opacity:1" />
      <path
         inkscape:connector-curvature="0"
         id="path35"
         d="m -89.668984,348.85032 v 0 l -0.667324,-4.22532 c 0,0 -0.566965,-1.32292 -1.13393,-2.45684 -0.566962,-1.13393 -0.377976,-2.83483 -0.755952,-3.59079 -0.377976,-0.75595 -1.511903,-2.8348 -1.511903,-2.8348 0,0 -0.566965,-6.99257 -0.755954,-7.74854 -0.188987,-0.75594 -1.700893,-9.26041 -1.511903,-10.39434 0.188986,-1.13392 0.755951,-3.21278 0.755951,-3.21278 l 1.511906,-3.96875"
         style="fill:none;stroke:#000000;stroke-width:0.26458332px;stroke-linecap:butt;stroke-linejoin:miter;stroke-opacity:1" />
      <path
         inkscape:connector-curvature="0"
         id="path37"
         d="m -116.03869,341.60118 c 0,0 2.22808,-2.43827 0,0 -2.22807,2.43824 -4.70038,4.24236 -4.70038,4.24236"
         style="fill:none;stroke:#000000;stroke-width:0.26458332px;stroke-linecap:butt;stroke-linejoin:miter;stroke-opacity:1" />
      <path
         inkscape:connector-curvature="0"
         id="path39"
         d="m 58.331573,233.99123 6.882191,0.73497 c 0,0 2.405425,0.80181 3.207234,-1.33635 0.801809,-2.13816 3.741774,-3.74177 3.741774,-3.74177 L 42.04985,182.6622"
         style="fill:none;stroke:#000000;stroke-width:0.26458332px;stroke-linecap:butt;stroke-linejoin:miter;stroke-opacity:1" />
      <path
         transform="scale(0.26458333)"
         inkscape:connector-curvature="0"
         id="path41"
         d="m -284.12283,1384.6371 c 1.71402,-7.4902 1.3428,-11.0767 -2.2479,-21.7182 -2.36553,-7.0106 -3.78698,-14.7044 -3.15879,-17.0974 1.22999,-4.6854 0.0484,-5.3344 -14.05439,-7.7198 -11.37295,-1.9236 -16.40803,-4.732 -20.30168,-11.3234 -1.90947,-3.2325 -5.67244,-6.4295 -8.36217,-7.1046 -3.72253,-0.9343 -5.17657,-2.9876 -6.08874,-8.5979 -0.65908,-4.0537 -2.3627,-10.5524 -3.78581,-14.4414 -7.90639,-21.6067 -9.88676,-28.9364 -12.28167,-45.4569 -8.22323,-56.7252 -7.92522,-51.5871 -3.69106,-63.6396 3.5182,-10.0146 4.70861,-11.3701 12.05661,-13.7284 9.6047,-3.0826 17.56489,-14.7435 14.76344,-21.627 -2.29682,-5.6435 -2.29222,-9.5546 0.009,-8.132 1.06592,0.6587 6.00815,7.3036 10.98273,14.7664 12.16762,18.2536 20.32318,46.4493 18.68008,64.5814 -1.14562,12.6422 -0.56226,13.769 5.85395,11.3068 4.31565,-1.656 19.11383,-24.2986 19.11383,-29.2458 0,-2.0215 2.61724,-5.0289 5.81609,-6.6831 3.19885,-1.6542 6.38083,-4.4794 7.07107,-6.2781 2.61211,-6.807 1.1642,-19.7825 -2.95041,-26.44 -5.68922,-9.2054 -1.92859,-8.6012 6.83401,1.098 11.33836,12.5502 14.23474,20.1849 16.62544,43.8238 0.4611,4.5594 2.55287,12.2896 4.64835,17.1782 3.39643,7.9235 4.99231,9.2825 14.70252,12.5205 21.04863,7.0189 19.98391,7.2398 19.98391,-4.1454 0,-7.123 1.22384,-11.6205 4.18725,-15.3878 4.63405,-5.8913 7.83576,-6.3751 20.5325,-3.1029 6.70736,1.7286 10.40494,1.6047 16.69651,-0.5596 8.02988,-2.7622 8.0774,-2.8401 7.48151,-12.2596 -0.64436,-10.1854 1.94735,-22.5921 7.03695,-33.6864 2.969,-6.4719 2.9295,-7.0878 -0.62355,-9.7219 -2.08637,-1.5468 -6.49672,-3.3647 -9.80078,-4.0398 l -6.00738,-1.2276 7.01753,-2.4036 c 8.85043,-3.0314 14.35924,-1.0644 22.27816,7.9548 4.00829,4.5652 10.8729,8.7832 19.92082,12.2406 l 13.80509,5.2753 9.410134,-5.0035 c 5.175557,-2.7518 12.178823,-7.3331 15.562774,-10.1805 4.557222,-3.8346 8.451461,-5.1771 15.017917,-5.1771 9.582772,0 11.437776,-1.7948 13.948732,-13.496 1.089854,-5.0788 -0.179807,-9.6212 -6.060168,-21.6804 -12.053726,-24.7194 -18.63394,-29.3305 -31.947448,-22.387 -5.622852,2.9325 -5.756556,2.8878 -4.573263,-1.5277 0.670418,-2.5017 1.231355,-5.207 1.246528,-6.0119 0.06101,-3.2413 12.52967,-7.628 21.681631,-7.628 7.052744,0 11.779632,1.3908 17.165725,5.0508 4.088087,2.7779 10.240502,5.0507 13.672051,5.0507 8.207893,0 15.40127,4.9078 17.962593,12.2552 2.618356,7.5111 5.35696,7.443 17.2408794,-0.4286 7.9162422,-5.2435 9.3485981,-7.1003 8.1819931,-10.6066 -0.7777972,-2.3377 -1.8420535,-8.0174 -2.3650297,-12.6214 -0.8217187,-7.2341 -1.7183503,-8.5246 -6.6018318,-9.5013 -3.5452111,-0.709 -7.2480869,-3.7143 -9.936992,-8.0651 -5.422519,-8.7738 -12.524356,-10.3437 -24.001568,-5.3057 -6.029681,2.6468 -9.522364,5.8097 -11.537679,10.4484 l -2.890249,6.6526 -0.07899,-7.8906 c -0.101823,-10.1516 6.895807,-19.5298 18.912622,-25.3471 8.367174,-4.0505 9.878302,-4.1754 21.4903285,-1.777 l 12.490314,2.5799 4.8285696,-5.6136 c 5.5441209,-6.4454 6.0092159,-12.9561 2.5498068,-35.6928 C 8.3462145,994.90646 8.2905349,987.7177 9.7961066,980.66029 12.62316,967.40798 9.9448011,961.2649 1.3379378,961.26058 c -10.2772516,-0.006 -20.0796708,-6.12213 -22.6577418,-14.13901 -2.085763,-6.48602 -3.005103,-7.12559 -11.111678,-7.73021 -14.27394,-1.06462 -23.572233,2.65812 -25.788306,10.32475 l -1.877934,6.49684 -0.182231,-7.12661 c -0.24373,-9.53313 4.075965,-15.12532 16.576825,-21.45998 9.319082,-4.72235 11.380076,-5.05984 19.557321,-3.20267 5.027287,1.14177 15.9590366,1.77253 24.29279511,1.40169 8.33375849,-0.37085 17.05977989,-0.73117 19.39115089,-0.80071 5.838399,-0.17415 11.37551,-12.90472 10.543144,-24.24009 -0.566514,-7.71528 -1.371262,-8.97486 -7.020237,-10.9881 C 15.027909,886.93354 2.6715816,875.97999 0.22955798,869.557 -0.9907467,866.34735 -0.63299108,858.53693 1.2718536,846.80182 c 4.0563483,-24.98964 3.9032092,-26.68405 -2.6363972,-29.1704 -8.043481,-3.05808 -12.6307054,-7.847 -12.6307054,-13.18594 0,-2.568 -1.532098,-7.88192 -3.404638,-11.8087 -2.969424,-6.22695 -4.325291,-7.13132 -10.606602,-7.07477 -3.961091,0.0357 -12.202218,2.53579 -18.313641,5.55584 -8.877786,4.38708 -11.368237,6.70948 -12.387884,11.55191 -1.184,5.6231 -1.292915,5.47716 -1.507673,-2.02031 -0.340866,-11.90013 5.176304,-19.0974 21.179464,-27.62913 20.231982,-10.78621 54.170036,-15.39256 80.094288,-10.87104 8.776771,1.53078 9.596449,1.33258 9.596449,-2.32039 0,-2.71674 3.253318,-5.76481 10.172499,-9.5307 12.510254,-6.80893 20.424982,-14.99615 19.681812,-20.35941 -0.823153,-5.94048 -23.924251,-17.1726 -35.318872,-17.1726 -8.710707,0 -20.36112,4.43543 -23.293855,8.8682 -0.905804,1.36911 -1.496339,0.7749 -1.515229,-1.52465 -0.03758,-4.56534 11.992551,-15.94868 21.985081,-20.80324 10.625795,-5.16222 41.590263,-4.70203 70.56712,1.04876 24.53537,4.86933 31.08558,4.28967 41.17082,-3.64337 l 4.70689,-3.70245 55.79547,87.00541 55.79548,87.0054 -6.83805,6.44911 c -3.76092,3.54701 -6.83805,7.38091 -6.83805,8.51979 0,3.76639 -5.92987,4.44071 -21.59033,2.45516 -11.10105,-1.40748 -16.54068,-3.10566 -19.24454,-6.00789 -4.27676,-4.59058 -6.28121,-4.92185 -11.82587,-1.95443 -2.27295,1.21644 -3.9078,4.21663 -3.9078,7.17139 0,7.57515 -5.57059,16.91478 -11.41381,19.13637 -3.89216,1.47979 -4.77962,2.82307 -3.61326,5.46904 1.83003,4.15155 1.78658,8.57634 -0.19819,20.17497 -1.23505,7.21764 -0.93944,8.5863 1.85462,8.5863 1.82813,0 4.94098,1.00989 6.91742,2.24419 2.877,1.79672 5.1434,1.19247 11.3662,-3.03045 4.27494,-2.90106 9.74011,-5.27466 12.1448,-5.27466 5.66728,0 23.78271,9.04117 28.45091,14.19947 3.88989,4.29828 2.49477,8.34821 -1.49978,4.35366 -1.31481,-1.31487 -7.08509,-2.39069 -12.82275,-2.39069 -8.57773,0 -11.37889,0.94678 -15.75838,5.32625 -4.41289,4.41292 -5.32625,7.15974 -5.32625,16.01816 0,10.54035 -2.02312,14.58094 -9.35507,18.6841 -2.63353,1.47381 -2.76864,3.49555 -0.90671,13.56772 2.09308,11.3224 1.94891,12.1808 -3.32372,19.7892 -3.03143,4.3743 -8.93331,10.1133 -13.11526,12.7533 -4.18197,2.6399 -9.91802,8.2973 -12.74679,12.5718 -4.80346,7.2585 -5.05436,8.8375 -3.79813,23.9008 1.28051,15.3543 1.56418,16.087 5.90656,15.2569 2.50879,-0.4796 6.67228,0.2577 9.25221,1.6384 2.57991,1.3808 9.35437,2.3581 15.05436,2.1718 12.51072,-0.4088 19.73541,4.3642 25.36382,16.7567 5.38931,11.8661 4.68578,14.633 -1.92208,7.5593 -10.81376,-11.5762 -21.95283,-11.2788 -25.49382,0.6807 -4.25672,14.3769 -6.41481,16.8165 -16.17026,18.2794 -4.96157,0.7441 -9.83392,2.3904 -10.82746,3.6586 -1.06365,1.3576 -1.02286,9.0597 0.0992,18.7316 1.7265,14.8815 1.50845,17.2045 -2.31908,24.7071 -5.80107,11.371 -12.94252,14.7151 -28.05222,13.1358 l -12.01185,-1.2555 -2.32511,6.8284 c -1.58551,4.6563 -5.19739,8.5709 -11.35494,12.3065 -7.77803,4.7186 -9.02371,6.3991 -8.98549,12.1218 0.0245,3.6541 1.84268,10.6068 4.04061,15.4506 2.19793,4.8439 3.99625,9.9305 3.99625,11.3037 0,1.3732 1.72445,4.0573 3.83209,5.9647 4.0277,3.645 8.28978,17.3543 8.28978,26.6647 0,4.654 -8.77829,23.0215 -11.00256,23.0215 -0.40188,0 -0.60595,-5.4265 -0.45348,-12.0589 0.26234,-11.4113 -0.13819,-12.4843 -7.4603,-19.9828 -5.409954,-5.5403 -11.641969,-9.2057 -20.716998,-12.1848 -18.139895,-5.9549 -23.551868,-5.5475 -32.586753,2.4533 -7.696393,6.8154 -19.755311,14.2213 -37.721298,23.1663 -7.8796546,3.9231 -11.8920613,4.7154 -19.3853123,3.828 -8.3784077,-0.9923 -10.5120317,-0.3634 -18.8305167,5.5508 -5.159798,3.6685 -13.39042,7.7924 -18.290266,9.1643 -8.199509,2.2957 -9.114243,3.2281 -11.489071,11.7102 -1.974707,7.0529 -2.076833,12.7105 -0.435093,24.1062 1.394334,9.6787 1.478985,17.872 0.24179,23.409 -2.142412,9.5884 -6.721454,17.61 -10.052472,17.61 -1.536503,0 -1.485066,-0.8869 0.166877,-2.8774 2.795092,-3.3678 1.349766,-14.7963 -3.250368,-25.7012 l -3.107007,-7.3653 -12.111204,1.0982 c -6.792588,0.6159 -12.688283,0.2489 -13.425291,-0.8357 -1.809223,-2.6626 -20.438557,-12.806 -23.519437,-12.806 -1.37696,0 -4.99192,1.9574 -8.03326,4.3497 -9.65767,7.5967 -18.87428,9.7489 -27.98434,6.5347 -10.62193,-3.7476 -24.3896,-3.543 -32.16543,0.478 -6.0978,3.1533 -6.48755,3.1052 -10.0012,-1.2339 -2.01087,-2.4834 -3.65613,-5.7782 -3.65613,-7.3218 0,-3.6178 0.41041,-3.6959 -13.11452,2.496 -10.23872,4.6874 -12.46235,5.039 -19.16635,3.0304 -10.65751,-3.193 -11.69877,-2.9647 -14.97649,3.2837 -1.60292,3.0557 -7.49195,10.2011 -13.08672,15.8787 -5.59476,5.6777 -11.72363,14.3145 -13.6197,19.1929 -6.25952,16.1055 -11.55277,19.271 -8.27543,4.9489 z"
         style="opacity:1;fill:#aa0000;fill-opacity:1;fill-rule:nonzero;stroke:#000000;stroke-width:7.63579893;stroke-linejoin:round;stroke-miterlimit:4;stroke-dasharray:none;stroke-dashoffset:0;stroke-opacity:1" />
      <path
         transform="scale(0.26458333)"
         inkscape:connector-curvature="0"
         id="path43"
         d="m -438.21402,1281.4821 c -0.15155,-7.3589 -11.77564,-24.575 -23.67424,-35.0633 -9.93602,-8.7583 -12.96871,-10.3408 -19.86316,-10.365 -4.47522,-0.016 -10.04254,-1.3635 -12.37181,-2.9949 -3.81373,-2.6713 -4.59355,-2.5702 -7.83869,1.0156 -3.47496,3.8398 -3.40477,4.3474 1.96553,14.2144 3.06305,5.6279 5.01274,10.7889 4.33265,11.469 -2.04884,2.0488 -19.0173,-17.5406 -20.31614,-23.4541 -0.85188,-3.8786 0.59104,-9.047 4.89572,-17.5362 3.35698,-6.6203 6.11511,-13.6094 6.12918,-15.5315 0.0141,-1.922 1.50095,-7.1819 3.30416,-11.6886 2.95869,-7.3945 2.97405,-8.5319 0.1574,-11.6576 -1.71664,-1.905 -3.72724,-6.1911 -4.46801,-9.5246 -4.14198,-18.6392 -7.25596,-24.9782 -12.87674,-26.2127 -3.07577,-0.6756 -8.23147,-0.2249 -11.45711,1.0015 -4.51292,1.7158 -6.0597,1.6451 -6.71035,-0.3069 -0.46505,-1.3951 -2.9649,-4.656 -5.55521,-7.2463 -3.6072,-3.6072 -6.02021,-4.4029 -10.30815,-3.3995 -8.22383,1.9246 -10.70609,5.1188 -12.55509,16.1562 l -1.65951,9.9062 -0.23763,-11.6817 c -0.30224,-14.858 3.66148,-24.7134 10.64433,-26.466 3.45941,-0.8682 6.2543,-3.7087 8.17705,-8.3105 1.60666,-3.8453 5.57146,-8.6032 8.81067,-10.5731 3.2392,-1.9698 8.39163,-6.5552 11.44984,-10.1897 4.61901,-5.4894 5.33638,-7.8022 4.23723,-13.6611 -0.91517,-4.8783 -0.35902,-8.4295 1.80371,-11.5173 1.71978,-2.4553 3.12687,-5.9448 3.12687,-7.7544 0,-1.8096 2.36678,-7.7414 5.25951,-13.1819 7.81049,-14.6895 6.32446,-27.7638 -4.62384,-40.6808 -14.43098,-17.0261 -34.5487,-20.48871 -45.39039,-7.81254 -2.94732,3.44604 -5.84238,5.79484 -6.43347,5.21954 -0.59108,-0.5753 1.34232,-6.27727 4.29646,-12.67102 4.58976,-9.93378 6.42367,-11.90841 12.60581,-13.57309 7.70134,-2.07376 15.06099,-0.69591 25.71732,4.81469 8.33322,4.30927 11.91389,4.14075 16.10843,-0.75812 4.49737,-5.25254 6.92764,-5.09509 12.47337,0.80807 2.50531,2.66677 7.43675,5.25565 10.95877,5.75305 3.52202,0.49741 7.87391,1.54841 9.67087,2.33557 4.86217,2.12987 8.87389,-14.80824 5.7495,-24.27526 -2.86437,-8.67912 -1.02383,-17.23029 4.90809,-22.80304 2.5431,-2.38911 6.71672,-8.81229 9.27472,-14.27373 4.49034,-9.58705 4.53333,-10.17764 1.24543,-17.10638 -3.85639,-8.12673 -10.90768,-10.98392 -18.533,-7.5096 -2.69598,1.22838 -4.90178,1.48466 -4.90178,0.56954 0,-2.8457 6.81646,-7.97269 12.47822,-9.38548 2.97393,-0.74209 7.01754,-3.12872 8.9858,-5.30363 2.96112,-3.272 5.34,-3.76447 13.78575,-2.85392 7.45513,0.80375 12.06403,0.14861 17.09453,-2.42993 8.13597,-4.17034 7.93796,-3.80464 16.42683,-30.33777 5.70967,-17.84636 7.54277,-21.30596 13.1133,-24.74874 7.46968,-4.61651 13.41632,-4.97478 26.13045,-1.57427 7.07349,1.89187 11.42923,1.89016 19.72697,-0.008 5.85696,-1.33964 17.46757,-3.45084 25.80133,-4.69154 8.33376,-1.2407 19.41687,-4.40724 24.62912,-7.03674 14.02017,-7.07297 18.39807,-5.36304 38.5671,15.06359 17.1143,17.33287 17.28268,17.60375 20.28329,32.63025 2.78103,13.92682 2.72451,16.90423 -0.69886,36.81396 -5.15281,29.9679 -7.09198,32.27587 -8.77051,10.43863 -1.47773,-19.22467 -5.27481,-28.22159 -19.4619,-46.11364 -9.90582,-12.49271 -14.75631,-14.42134 -22.27996,-8.85885 -5.34888,3.95458 -6.46831,4.11375 -11.18369,1.59016 -4.57597,-2.44899 -5.92361,-2.377 -10.63684,0.56822 -2.96834,1.85488 -8.82326,4.8797 -13.01095,6.72182 -9.74668,4.28747 -15.61954,11.79728 -15.61954,19.9732 0,4.15754 -1.68876,8.03294 -4.75619,10.91464 -5.48973,5.15733 -5.07694,13.33912 0.83253,16.50178 2.01471,1.07823 4.8135,5.1418 6.21953,9.03014 1.40605,3.88834 3.77373,7.06971 5.26154,7.06971 6.74382,0 19.13189,8.60574 21.88983,15.20642 4.40333,10.53865 3.47696,11.96768 -3.33937,5.15135 -8.81598,-8.81598 -14.98819,-9.90236 -21.69367,-3.81832 -2.9834,2.7069 -7.94442,5.99188 -11.0245,7.29995 -4.46578,1.89656 -5.36385,3.31972 -4.43364,7.02598 1.43466,5.71608 -1.94519,15.09361 -7.62556,21.15747 -3.11992,3.33056 -6.5493,4.54569 -12.82904,4.54569 -5.00116,0 -8.96807,1.0518 -9.52457,2.52538 -0.52454,1.38896 -0.48262,8.05987 0.0932,14.82421 0.83394,9.7973 0.28694,13.4587 -2.68928,18.001 -3.64561,5.5639 -3.64258,5.7554 0.12479,7.9041 2.12353,1.2112 5.95951,4.2059 8.5244,6.655 4.04317,3.8606 4.3518,5.1368 2.32038,9.5953 -1.81148,3.9757 -1.74489,6.9548 0.29351,13.1312 3.46684,10.5047 1.568,25.7609 -4.86656,39.1003 -4.98944,10.3435 -5.04448,10.3842 -3.89068,2.8801 0.64369,-4.1865 0.55007,-13.404 -0.20806,-20.4832 -1.23068,-11.492 -1.80391,-12.7602 -5.34873,-11.8332 -2.25175,0.5889 -5.70977,-0.5359 -7.98889,-2.5985 -3.90059,-3.53 -4.21003,-3.4521 -10.54017,2.6536 -3.58688,3.4596 -9.04503,7.2415 -12.12921,8.4042 -7.36464,2.7762 -8.42945,6.1991 -4.70299,15.1177 2.52995,6.055 5.33581,8.3694 15.88536,13.1026 13.13582,5.8937 23.71967,15.8729 23.71967,22.3646 0,2.0095 -1.41069,6.7127 -3.13487,10.4516 l -3.13488,6.7979 1.06941,-9.5489 c 0.58817,-5.2519 0.53789,-10.934 -0.11175,-12.6269 -1.586,-4.1331 -14.89096,-4.26 -14.89096,-0.1421 0,1.6148 -4.09112,4.7456 -9.09137,6.9575 -5.00026,2.2118 -9.09138,4.5883 -9.09138,5.281 0,0.6926 3.18198,4.2604 7.07107,7.9283 9.38123,8.8476 9.1446,14.406 -1.51523,35.593 l -8.58629,17.0657 0.58749,33.8233 c 0.58748,33.8224 -0.86336,45.5998 -6.54283,53.1123 -2.98686,3.9508 -3.0081,3.9504 -3.09074,-0.062 z"
         style="opacity:1;fill:#aa0000;fill-opacity:1;fill-rule:nonzero;stroke:#000000;stroke-width:7.63579893;stroke-linejoin:round;stroke-miterlimit:4;stroke-dasharray:none;stroke-dashoffset:0;stroke-opacity:1" />
      <path
         transform="scale(0.26458333)"
         inkscape:connector-curvature="0"
         id="path45"
         d="m -458.14266,1298.9475 c -2.56428,-8.4837 -3.95231,-17.9372 -3.04462,-20.736 1.15311,-3.5555 4.92086,-10.4475 6.53262,-11.9495 l 1.62597,-1.5152 -0.26577,1.5152 c -0.14617,0.8334 -0.96645,3.4472 -1.82285,5.8084 -2.03468,5.61 -2.0672,8.7975 -0.13869,13.5975 1.6376,4.0759 2.18433,4.7648 6.52305,8.2196 1.7362,1.3824 3.15673,2.7074 3.15673,2.9443 0,0.2369 -1.90051,2.0491 -4.22335,4.0269 -6.89326,5.8696 -5.92416,6.0917 -8.34309,-1.9112 z"
         style="opacity:1;fill:#aa0000;fill-opacity:1;fill-rule:nonzero;stroke:#000000;stroke-width:1.90894973;stroke-linejoin:round;stroke-miterlimit:4;stroke-dasharray:none;stroke-dashoffset:0;stroke-opacity:1" />
      <path
         transform="scale(0.26458333)"
         inkscape:connector-curvature="0"
         id="path47"
         d="m -411.46091,1521.756 c -4.70609,-1.3418 -4.6414,-1.1993 -4.6414,-10.225 0,-9.2478 2.06701,-18.6589 5.69888,-25.9472 1.07671,-2.1607 3.00855,-7.1429 4.29298,-11.0714 1.28442,-3.9286 3.86452,-9.7143 5.73355,-12.8572 4.2206,-7.0971 7.3709,-13.408 8.55732,-17.1428 0.4992,-1.5715 1.98612,-4.9602 3.30426,-7.5306 1.31814,-2.5704 2.92814,-6.8273 3.57777,-9.4598 1.16238,-4.7103 1.15152,-4.914 -0.6838,-12.8265 -2.45658,-10.591 -4.13306,-19.9197 -3.8905,-21.6486 0.10739,-0.7654 -0.12618,-1.3917 -0.51903,-1.3917 -1.68502,0 -0.70593,7.6054 3.49427,27.1429 1.14002,5.3029 0.239,9.9 -3.45438,17.6245 -1.37606,2.8779 -3.27043,7.2261 -4.20973,9.6626 -0.93929,2.4365 -3.68548,7.7715 -6.10263,11.8555 -2.78523,4.706 -5.39803,10.4085 -7.13393,15.5701 -1.5065,4.4794 -3.59451,9.8296 -4.64001,11.8892 -1.0455,2.0596 -2.7853,7.0417 -3.86622,11.0714 l -1.96532,7.3267 -2.58525,0.2167 c -2.47342,0.2074 -2.6661,0.055 -4.45389,-3.5331 -1.02774,-2.0624 -1.86863,-4.805 -1.86863,-6.0947 0,-5.1139 7.2436,-26.9531 15.70852,-47.3607 5.55886,-13.4016 5.75145,-14.6447 3.54333,-22.8711 -1.54348,-5.7502 -3.50014,-21.3196 -3.52336,-28.0357 -0.008,-2.2589 -0.27797,-4.1071 -0.60035,-4.1071 -0.32238,0 -2.47187,4.741 -4.77663,10.5357 -7.0048,17.6115 -8.54771,20.5661 -11.9691,22.92 -1.66609,1.1463 -5.13724,3.04 -7.71368,4.2082 -3.62256,1.6426 -6.37467,3.7775 -12.14087,9.4184 -6.15432,6.0205 -8.45601,7.7636 -13.18047,9.9818 -3.14822,1.4782 -7.27105,3.8684 -9.16185,5.3117 -1.8908,1.4433 -3.93193,2.6242 -4.53585,2.6242 -1.56636,0 -6.51163,-2.8957 -6.96558,-4.0787 -0.53215,-1.3867 0.77508,-10.1104 1.67806,-11.1985 1.51928,-1.8306 12.24059,-9.1404 14.15331,-9.6497 1.09149,-0.2907 2.72975,-1.6312 3.64059,-2.979 0.91084,-1.3478 4.60727,-5.7067 8.21429,-9.6863 5.23811,-5.7793 7.97908,-9.7095 13.61704,-19.525 7.67112,-13.3552 9.01231,-17.4403 6.41947,-19.5528 -0.73449,-0.5985 -2.39588,-1.9558 -3.69198,-3.0164 -3.63642,-2.9756 -5.5007,-7.5278 -6.85654,-16.7422 -2.20822,-15.0073 -1.84138,-14.4626 -5.44256,-8.0816 -4.17498,7.3976 -16.85107,23.4458 -22.73967,28.7888 -3.19145,2.8957 -8.3309,6.6087 -11.62505,8.3984 -5.46291,2.9681 -6.19155,3.1784 -9.74143,2.812 -2.11028,-0.2178 -4.25403,-0.7422 -4.76388,-1.1653 -1.42485,-1.1826 -3.52288,-8.5495 -3.5707,-12.538 -0.0612,-5.1061 2.1494,-9.2547 13.32172,-25 5.29639,-7.4643 11.81559,-17.0397 14.48712,-21.2787 3.7665,-5.9764 6.15683,-8.8451 10.64386,-12.7739 4.14193,-3.6267 6.19254,-6.0135 7.2151,-8.3981 1.46288,-3.4115 7.39717,-9.1286 16.19646,-15.6038 2.22949,-1.6406 4.28334,-3.7067 4.56412,-4.5914 0.28077,-0.8846 1.71388,-3.2226 3.18468,-5.1956 7.82497,-10.4963 8.55474,-15.5389 8.55474,-59.1116 v -31.9905 l 6.32121,-12.6711 c 3.47667,-6.9691 6.9048,-14.2782 7.61806,-16.2425 0.71327,-1.9642 1.53064,-3.8422 1.81639,-4.1733 0.69925,-0.8101 3.23092,0.6054 7.02348,3.9267 3.01577,2.6411 5.94662,3.5162 6.85479,2.0468 0.23789,-0.3849 -0.0646,-2.164 -0.67213,-3.9535 -1.40477,-4.1377 -1.42651,-4.0261 0.68124,-3.4971 1.02667,0.2577 3.04413,-0.055 4.74552,-0.7359 2.93213,-1.1732 2.97725,-1.1673 4.86032,0.6368 2.39899,2.2983 3.26949,2.2877 4.80688,-0.059 l 1.23155,-1.8796 2.299,2.7384 2.29899,2.7383 1.28617,-2.823 c 0.70739,-1.5527 1.35183,-2.9328 1.43209,-3.0669 0.0803,-0.1341 0.81326,-0.032 1.62889,0.2269 1.33936,0.4251 1.43911,0.8437 1.0302,4.3229 -0.43264,3.6811 -0.36713,3.8913 1.47433,4.7303 1.8577,0.8465 4.85408,0.4514 9.15588,-1.2072 1.01077,-0.3897 1.25084,-0.091 1.2544,1.5588 0.002,1.1224 0.47078,2.9348 1.04078,4.0275 0.97157,1.8626 0.90516,2.1754 -1.06158,5 -1.15388,1.6573 -3.28427,6.2275 -4.73419,10.156 -2.40697,6.5217 -2.63263,7.764 -2.59486,14.2857 0.0426,7.3497 5.92626,50.6395 8.82194,64.9081 0.80752,3.9792 4.00017,14.7884 7.09477,24.0205 3.0946,9.2322 5.99494,18.8666 6.4452,21.4099 0.45027,2.5432 1.12245,5.1917 1.49376,5.8855 0.47621,0.8898 0.32679,1.7931 -0.50719,3.0659 -0.981,1.4972 -1.05177,2.3193 -0.41564,4.8287 0.42166,1.6634 0.91229,5.7564 1.09029,9.0957 0.24338,4.5659 0.95636,7.8427 2.87522,13.2143 1.40338,3.9286 3.84708,13.3543 5.43044,20.9461 l 2.87886,13.8033 -2.03215,5.1253 c -2.5951,6.5452 -4.11825,12.7531 -5.11307,20.8396 -0.43498,3.5357 -1.40045,10.2857 -2.1455,15 -1.05285,6.662 -2.8572,28.7279 -2.8572,34.9416 0,0.5308 -2.67566,4.6182 -5.94592,9.0832 -6.27211,8.5634 -21.6556,31.9546 -25.18033,38.2876 -2.3397,4.2038 -2.59804,4.3639 -8.39975,5.2058 -4.05093,0.5879 -4.26815,0.5337 -7.67858,-1.9164 -3.34722,-2.4048 -3.5097,-2.6768 -3.5097,-5.8759 0,-7.8768 3.75445,-16.7618 9.76068,-23.0988 2.42598,-2.5596 4.75965,-6.031 6.2439,-9.288 1.30354,-2.8604 3.66809,-7.209 5.25455,-9.6636 1.58647,-2.4546 3.26343,-6.15 3.72659,-8.212 0.46315,-2.0621 1.26834,-4.8852 1.78931,-6.2737 0.52097,-1.3884 1.82675,-6.9325 2.90173,-12.3201 1.88963,-9.4705 1.93126,-10.1753 1.25394,-21.2296 -0.38531,-6.2886 -0.91307,-11.6463 -1.17278,-11.906 -1.17594,-1.1759 -1.27521,1.141 -0.50058,11.6832 l 0.83009,11.297 -2.16528,10 c -3.76473,17.3868 -5.24858,22.016 -8.74821,27.2919 -1.76974,2.668 -3.80837,6.405 -4.53029,8.3044 -0.74482,1.9596 -3.15095,5.482 -5.5626,8.1432 -2.67668,2.9536 -5.3269,6.934 -7.15905,10.7523 -2.78514,5.8044 -2.92217,6.4159 -3.21706,14.3568 -0.38477,10.3615 -1.69231,13.1177 -7.96783,16.7956 -5.25381,3.0792 -6.19359,3.3041 -9.66714,2.3137 z"
         style="opacity:1;fill:#ff0000;fill-opacity:1;fill-rule:nonzero;stroke:#000000;stroke-width:2.69966269;stroke-linejoin:round;stroke-miterlimit:4;stroke-dasharray:none;stroke-dashoffset:0;stroke-opacity:1" />
      <path
         inkscape:connector-curvature="0"
         id="path49"
         d="m -40.244336,183.00143 c 0,0 -35.157638,-12.35268 -42.759295,-10.45227 -7.601645,1.90042 -27.555989,13.3029 -28.506189,17.10372 -0.95021,3.80082 -10.45227,11.40248 -15.20331,16.15351 -4.75103,4.75103 -24.70536,0.95021 -34.20743,4.75103 -9.50207,3.80083 -24.70536,14.2531 -24.70536,19.95434 0,5.70124 -3.80084,25.65557 -4.75103,31.35681 -0.95021,5.70123 -0.95021,19.00413 2.85061,27.55599 3.80082,8.55186 7.60165,19.95434 15.2033,29.4564 7.60165,9.50207 18.05392,4.75102 15.20331,19.95433 -2.85063,15.20331 -8.55187,23.75515 -6.65145,30.4066 1.90042,6.65145 13.3029,25.65558 20.90454,30.4066 7.60165,4.75105 27.55599,8.55186 34.20743,8.55186 6.65145,0 28.506204,17.10372 50.360946,17.10372 21.854752,0 26.605784,-2.85061 33.257232,-19.00413 6.651439,-16.15351 -15.203304,-25.65557 18.0539185,-26.60578 33.2572315,-0.9502 44.6597025,-0.9502 48.4605265,-0.9502 3.800833,0 24.705376,-6.65143 26.605783,-17.10372 1.900417,-10.45227 4.751032,-21.85474 3.800824,-28.5062 -0.950208,-6.65142 -4.751032,-18.05392 -1.900407,-25.65556 2.850615,-7.60164 1.900407,-11.40249 14.25309,-11.40249 12.352688,0 22.804957,-1.9004 25.655577,-13.30287 2.85062,-11.40248 1.90041,-12.35268 2.85062,-18.05393 0.9502,-5.70124 1.90041,-25.65558 -5.70124,-31.35682 -7.601654,-5.70124 -18.053926,-7.60164 -18.053926,-7.60164 0,0 -18.053922,-3.80084 -19.95433,-17.10372 -1.900416,-13.30289 -1.900416,-19.95434 -1.900416,-19.95434 0,0 5.70124,-7.60165 8.551856,-12.35268 2.850624,-4.75103 3.800823,-15.2033 0,-16.15351 -3.800824,-0.95021 -22.804951,6.65145 -30.406598,8.55186 -7.601657,1.90041 -29.4564,-10.45228 -32.307024,-14.2531 -2.850616,-3.80082 -8.5518555,-2.85062 -12.35267847,0.95021 -3.80083303,3.80082 -5.70124003,8.55185 -11.40247953,11.40248 -5.70124,2.85061 -19.954336,7.60165 -19.954336,7.60165 z"
         style="fill:#b3b3b3;fill-opacity:0.4820513;stroke:#000000;stroke-width:0.23516409px;stroke-linecap:butt;stroke-linejoin:miter;stroke-opacity:1" />
      <path
         inkscape:connector-curvature="0"
         id="path49-7"
         d="m -74.272322,214.97916 c 0,0 25.22759,-12.35268 30.68222,-10.45227 5.45461,1.90042 19.77298,13.30291 20.45481,17.10372 0.68183,3.80083 7.50009,11.40249 10.90923,16.15352 3.40914,4.75103 17.7275,0.9502 24.54578,4.75103 6.81827,3.80083 17.7275,14.25309 17.7275,19.95434 0,5.70124 2.72731,25.65556 3.40913,31.3568 0.68183,5.70123 0.68183,19.00413 -2.04547,27.55599 -2.72731,8.55186 -5.45462,19.95434 -10.90923,29.4564 -5.45462,9.50207 -12.95472,4.75102 -10.90924,19.95433 2.04549,15.20331 6.13645,23.75515 4.77279,30.4066 -1.36366,6.65145 -9.54559,25.65558 -15.00019,30.4066 -5.45462,4.75105 -19.77299,8.55186 -24.54578,8.55186 -4.77279,0 -20.45482,17.10373 -36.13683,17.10373 -15.68204,0 -19.09117,-2.85062 -23.86396,-19.00414 -4.77279,-16.15351 10.90924,-25.65557 -12.95472,-26.60578 -23.863948,-0.9502 -32.045868,-0.9502 -34.773178,-0.9502 -2.72731,0 -17.72751,-6.65143 -19.09116,-17.10372 -1.36365,-10.45227 -3.40914,-21.85474 -2.72731,-28.5062 0.68183,-6.65142 3.40914,-18.05392 1.36366,-25.65556 -2.04549,-7.60164 -1.36366,-11.40249 -10.22741,-11.40249 -8.86375,0 -16.36384,-1.9004 -18.40933,-13.30287 -2.04548,-11.40248 -1.36365,-12.35268 -2.04548,-18.05393 -0.68182,-5.70124 -1.36366,-25.65557 4.09097,-31.35681 5.45461,-5.70125 12.95472,-7.60164 12.95472,-7.60164 0,0 12.9547,-3.80084 14.31835,-17.10372 1.36366,-13.30289 1.36366,-19.95434 1.36366,-19.95434 0,0 -4.09097,-7.60166 -6.13644,-12.35269 -2.04549,-4.75103 -2.7273,-15.2033 0,-16.15351 2.7273,-0.95021 16.36385,6.65145 21.81846,8.55186 5.45462,1.90041 21.13665,-10.45228 23.18213,-14.2531 2.04547,-3.80082 6.13644,-2.85062 8.86375,0.95021 2.72731,3.80082 4.090958,8.55185 8.181928,11.40248 4.09096,2.85061 14.31836,7.60165 14.31836,7.60165 z"
         style="fill:#b3b3b3;fill-opacity:0.23076926;stroke:#000000;stroke-width:0.1992045px;stroke-linecap:butt;stroke-linejoin:miter;stroke-opacity:1" />
    </g>
  </g>
</svg>
