<?xml version="1.0" encoding="UTF-8" standalone="no"?>
<!-- Created with Inkscape (http://www.inkscape.org/) -->

<svg
   xmlns:dc="http://purl.org/dc/elements/1.1/"
   xmlns:cc="http://creativecommons.org/ns#"
   xmlns:rdf="http://www.w3.org/1999/02/22-rdf-syntax-ns#"
   xmlns:svg="http://www.w3.org/2000/svg"
   xmlns="http://www.w3.org/2000/svg"
   xmlns:sodipodi="http://sodipodi.sourceforge.net/DTD/sodipodi-0.dtd"
   xmlns:inkscape="http://www.inkscape.org/namespaces/inkscape"
   width="210mm"
   height="297mm"
   viewBox="0 0 210 297"
   version="1.1"
   id="svg8"
   inkscape:version="0.92.1 r15371"
   sodipodi:docname="pet.svg">
  <defs
     id="defs2" />
  <sodipodi:namedview
     id="base"
     pagecolor="#ffffff"
     bordercolor="#666666"
     borderopacity="1.0"
     inkscape:pageopacity="0.0"
     inkscape:pageshadow="2"
     inkscape:zoom="0.35"
     inkscape:cx="400"
     inkscape:cy="560"
     inkscape:document-units="mm"
     inkscape:current-layer="layer1"
     showgrid="false"
     inkscape:window-width="1536"
     inkscape:window-height="801"
     inkscape:window-x="-8"
     inkscape:window-y="-8"
     inkscape:window-maximized="1" />
  <metadata
     id="metadata5">
    <rdf:RDF>
      <cc:Work
         rdf:about="">
        <dc:format>image/svg+xml</dc:format>
        <dc:type
           rdf:resource="http://purl.org/dc/dcmitype/StillImage" />
        <dc:title></dc:title>
      </cc:Work>
    </rdf:RDF>
  </metadata>
  <g
     inkscape:label="Layer 1"
     inkscape:groupmode="layer"
     id="layer1">
    <g
       id="layer1-5"
       inkscape:label="Layer 1"
       transform="translate(0.17707238,-12.389909)">
      <g
         transform="matrix(1.0617047,0,0,1.0617047,21.009629,-197.14305)"
         id="g1952">
        <path
           style="fill:none;stroke:#000000;stroke-width:0.26458332px;stroke-linecap:butt;stroke-linejoin:miter;stroke-opacity:1"
           d="m 108.26961,389.275 c 0,0 -1.39533,-1.36858 -1.60362,-2.27179 -0.43608,-1.89102 0.49157,-3.8571 0.93545,-5.7463 0.89592,-3.81308 2.13763,-7.54361 3.4745,-11.22532 0.70872,-1.9518 1.52789,-3.86436 2.40543,-5.7463 2.01225,-4.31542 4.19565,-8.55548 6.5481,-12.69529 1.78926,-3.14872 4.34133,-5.88285 5.74629,-9.22081 1.52981,-3.63458 2.30559,-7.58108 2.80633,-11.49257 0.37337,-2.91651 0.15336,-5.87968 0.13364,-8.81992 -0.0209,-3.11934 -0.26727,-9.35442 -0.26727,-9.35442"
           id="path1054"
           inkscape:connector-curvature="0"
           sodipodi:nodetypes="cssssssssc" />
        <path
           style="fill:none;stroke:#000000;stroke-width:0.26458332px;stroke-linecap:butt;stroke-linejoin:miter;stroke-opacity:1"
           d="m 127.91392,273.81456 c -0.20046,2.77066 1.5384,5.33874 2.27179,8.01809 0.64467,2.35522 1.50997,4.6676 1.87089,7.08264 0.34262,2.29259 0.35254,4.63253 0.26727,6.94901 -0.13191,3.58365 -0.81457,7.12578 -1.20272,10.69078 -0.0921,0.84603 -0.0309,1.7215 -0.26726,2.53905 -0.15286,0.52883 -0.43646,1.01565 -0.73006,1.4813 -0.48135,0.76341 -1.07257,1.4552 -1.67537,2.12685 -0.76637,0.8539 -1.63668,1.60846 -2.45875,2.40887 -2.18253,2.12502 -4.18382,4.45787 -6.56733,6.35471 -1.08695,0.86501 -2.20326,1.76016 -3.49629,2.26785 -1.87504,0.73621 -3.96,0.74742 -5.95312,1.03944 -1.85165,0.27129 -3.70824,0.53157 -5.57515,0.66146 -1.50858,0.10496 -3.03183,0.25319 -4.53571,0.0945 -1.64116,-0.17318 -3.25923,-0.59555 -4.8192,-1.13395 -1.77177,-0.6115 -3.41382,-1.5494 -5.10268,-2.36233 -1.39617,-0.67205 -2.78912,-1.35237 -4.15773,-2.07889 -1.02145,-0.54223 -2.09689,-1.00936 -3.02381,-1.70087 -1.12482,-0.83915 -2.16986,-1.81571 -3.02381,-2.92933 -0.78934,-1.02936 -1.27279,-2.2608 -1.88988,-3.40178 -0.64346,-1.18972 -1.38062,-2.33772 -1.88988,-3.59076 -0.87808,-2.16052 -1.44627,-4.43989 -1.98438,-6.70909 -0.36923,-1.55703 -0.76826,-3.12661 -0.85045,-4.72471 -0.086,-1.67193 0.14439,-3.35042 0.37798,-5.00818 0.23789,-1.68829 0.74549,-3.32874 1.03943,-5.00818 0.192,-1.09695 0.37299,-2.19813 0.47248,-3.3073 0.076,-0.84763 0.19691,-1.7065 0.0945,-2.55134 -0.19318,-1.59349 -0.95413,-3.06798 -1.32292,-4.6302 -0.23561,-0.99807 -0.3746,-2.01651 -0.56697,-3.02381 -0.21668,-1.13466 -0.51372,-2.25611 -0.66145,-3.40179 -0.12514,-0.97043 -0.24999,-1.95275 -0.18899,-2.92931 0.094,-1.50437 0.44987,-2.98812 0.85044,-4.44122 0.29393,-1.06626 0.5398,-2.18541 1.13393,-3.11831 0.21536,-0.33815 0.48006,-0.69702 0.85045,-0.85044 0.52381,-0.21697 1.13958,-0.0798 1.70089,0 1.00663,0.14317 2.03415,0.36829 2.92932,0.85044 0.98358,0.52977 1.73978,1.40559 2.55134,2.17336 1.32711,1.2555 2.52822,2.6379 3.77976,3.96875 0.8245,0.87676 1.51407,1.89772 2.45684,2.64584 0.39785,0.3157 0.85927,0.54864 1.32292,0.75595 0.36372,0.16262 0.73551,0.37584 1.13393,0.37798 0.92637,0.005 1.74686,-0.62678 2.64583,-0.85045 0.86939,-0.21631 1.76513,-0.30822 2.64584,-0.47247 1.13558,-0.21178 2.26268,-0.46947 3.40178,-0.66146 1.09814,-0.18508 2.20202,-0.3364 3.30729,-0.47247 0.91144,-0.1122 1.82323,-0.23617 2.74033,-0.28348 1.25825,-0.0649 2.52106,-0.0554 3.77976,0 1.07405,0.0473 2.1422,0.18527 3.2128,0.28348 0.66167,0.0607 1.36822,0.43768 1.98438,0.18899 0.53858,-0.21737 0.75787,-0.8803 1.13392,-1.32292 1.01315,-1.19251 2.00802,-2.40051 3.02382,-3.59077 1.00024,-1.17204 2.07804,-2.27986 3.02381,-3.49628 0.77769,-1.00023 1.29049,-2.20957 2.17336,-3.1183 0.73749,-0.75909 1.59792,-1.43042 2.55134,-1.88989 0.4405,-0.21228 0.94742,-0.51293 1.41741,-0.37797 0.62118,0.17838 1.01281,0.85038 1.32291,1.41741 0.73312,1.34052 0.97873,2.92123 1.13393,4.44122 0.13772,1.34886 -0.0587,2.71364 -0.18899,4.06324 -0.10402,1.07744 -0.26557,2.1503 -0.47246,3.2128 -0.22924,1.1773 -0.5786,2.32808 -0.85045,3.49628 -0.19746,0.84852 -0.29324,1.72427 -0.56696,2.55134 -0.14876,0.44949 -0.54572,0.82439 -0.57989,1.29662 z"
           id="path1056"
           inkscape:connector-curvature="0"
           sodipodi:nodetypes="ssssssssssssssssssssssssssssssssssssssssssssssssssssssssssssss" />
        <path
           style="fill:none;stroke:#000000;stroke-width:0.26458332px;stroke-linecap:butt;stroke-linejoin:miter;stroke-opacity:1"
           d="m 75.10466,281.0224 c 0,0 -0.99285,0.035 -1.46465,-0.0945 -0.90338,-0.24788 -1.64979,-0.89134 -2.50409,-1.27567 -0.86414,-0.38876 -1.75843,-0.70719 -2.64583,-1.03943 -1.14295,-0.42792 -2.27416,-0.89812 -3.44904,-1.22843 -1.03773,-0.29176 -2.10445,-0.47147 -3.16555,-0.66145 -1.36369,-0.24415 -2.72838,-0.51915 -4.11049,-0.61422 -1.42986,-0.0984 -2.88249,-0.1681 -4.29948,0.0472 -1.73893,0.26422 -3.40502,0.90376 -5.05543,1.51191 -1.09833,0.40472 -2.16295,0.89977 -3.2128,1.41741 -0.85338,0.42077 -1.68493,0.88612 -2.50409,1.37016 -0.70714,0.41785 -1.4244,0.82661 -2.07887,1.32292 -0.97751,0.74129 -1.84953,1.61331 -2.74033,2.45684 -0.84095,0.79633 -1.7107,1.57106 -2.45684,2.45685 -1.05564,1.25322 -1.99034,2.61179 -2.83482,4.01599 -0.79133,1.31581 -1.45925,2.70564 -2.07887,4.1105 -0.39424,0.89386 -0.71757,1.81792 -1.03944,2.74032 -0.51198,1.46721 -1.10486,2.919 -1.41741,4.44122 -0.26412,1.28639 -0.22368,2.61738 -0.37797,3.92151 -0.10651,0.90021 -0.2964,1.79027 -0.37798,2.69308 -0.0695,0.76921 -0.0787,1.54292 -0.0945,2.3151 -0.0148,0.72431 0,2.17337 0,2.17337"
           id="path1058"
           inkscape:connector-curvature="0"
           sodipodi:nodetypes="cssssssssssssssssssssc" />
        <path
           style="fill:none;stroke:#000000;stroke-width:0.26458332px;stroke-linecap:butt;stroke-linejoin:miter;stroke-opacity:1"
           d="m 95.70437,387.98968 0.0945,-4.06326 -0.18899,-6.33108 -0.28348,-2.83483 -0.0945,-3.21281"
           id="path1060"
           inkscape:connector-curvature="0" />
        <path
           style="fill:none;stroke:#000000;stroke-width:0.26458332px;stroke-linecap:butt;stroke-linejoin:miter;stroke-opacity:1"
           d="m 94.12565,389.39562 c 0,0 -0.41323,-1.63337 -0.68914,-2.53987 -0.23202,-0.76232 -0.58768,-1.48899 -0.75595,-2.26787 -0.32099,-1.4858 -0.36329,-3.01955 -0.47247,-4.5357 -0.1132,-1.5721 -0.41031,-3.16417 -0.18899,-4.72472 0.13987,-0.98618 0.48054,-1.95364 0.94494,-2.8348 0.608,-1.15362 1.492,-2.14724 2.36235,-3.11832 1.07072,-1.19463 2.1472,-2.43923 3.49629,-3.30729 0.9149,-0.58869 2.01252,-0.82729 3.0238,-1.22841 0.97328,-0.38604 2.92932,-1.13393 2.92932,-1.13393"
           id="path1062"
           inkscape:connector-curvature="0"
           sodipodi:nodetypes="cssssssssc" />
        <path
           style="fill:none;stroke:#000000;stroke-width:0.26458332px;stroke-linecap:butt;stroke-linejoin:miter;stroke-opacity:1"
           d="m 75.69614,389.60909 c 0,0 -1.55303,-2.10148 -2.3052,-3.4077 -0.66611,-1.15678 -1.73725,-3.60813 -1.73725,-3.60813"
           id="path1064"
           inkscape:connector-curvature="0"
           sodipodi:nodetypes="csc" />
        <path
           style="fill:none;stroke:#000000;stroke-width:0.26458332px;stroke-linecap:butt;stroke-linejoin:miter;stroke-opacity:1"
           d="m 122.76898,286.54328 -0.13363,1.5702 -0.50113,1.1359 -0.43432,0.53454 -0.70158,0.50113 -1.1359,0.53454 -1.20271,0.16704 -1.40316,-0.0334 -0.56795,-0.20045 -1.63702,-1.1693 -0.30069,-1.03567 -0.16704,-1.33635 0.26727,-1.23612 0.63477,-0.93544 0.63476,-0.60136 1.20271,-0.86863 0.80181,-0.36749 0.70159,0.0334 h 1.26953 l 0.66817,0.30067 0.7684,0.66818 0.56795,0.73499 0.33408,0.70158 c 0,0 0.66818,1.80407 0.33409,0.90204 z"
           id="path1066"
           inkscape:connector-curvature="0" />
        <path
           style="fill:none;stroke:#000000;stroke-width:0.26458332px;stroke-linecap:butt;stroke-linejoin:miter;stroke-opacity:1"
           d="m 118.12517,283.20242 0.53454,0.90202 0.13364,0.90204 0.16704,0.73499 0.0668,0.80181 -0.0334,0.66817 0.0334,0.56795 -0.13364,0.56795 -0.16704,0.43431 -0.13363,0.16704 -0.26728,-0.0334 -0.46772,-0.43431 -0.33408,-0.43431 -0.40091,-0.60136 -0.43431,-1.1693 -0.0334,-0.46772 v -0.60136 l 0.11693,-0.88533 0.13364,-0.3675"
           id="path1068"
           inkscape:connector-curvature="0" />
        <path
           style="fill:none;stroke:#000000;stroke-width:0.26458332px;stroke-linecap:butt;stroke-linejoin:miter;stroke-opacity:1"
           d="m 98.34723,287.27827 0.80181,1.00226 0.30068,0.73499 0.0334,1.06908 -0.26727,0.83521 -0.33409,0.80181 -0.50113,0.63477 -0.4009,0.53454 -0.66818,0.56794 -0.56795,0.16705 h -1.73725 l -0.93544,-0.0668 -1.40317,-0.46772 -0.96885,-1.06908 -0.56795,-0.83522 -0.4009,-1.06907 -0.0334,-1.03567 0.20045,-0.96886 0.93544,-1.06907 0.90204,-0.63477 1.26953,-0.4009 1.00226,-0.10023 0.93544,0.20045 0.80181,0.20045 0.90203,0.50114 z"
           id="path1070"
           inkscape:connector-curvature="0" />
        <path
           style="fill:none;stroke:#000000;stroke-width:0.26458332px;stroke-linecap:butt;stroke-linejoin:miter;stroke-opacity:1"
           d="m 94.53864,286.94418 -0.23387,0.90203 -0.20045,0.83522 0.0668,0.3675 0.0334,0.66817 0.10023,0.53454 0.33409,0.7684 0.43431,0.66817 v 0"
           id="path1072"
           inkscape:connector-curvature="0" />
        <path
           style="fill:none;stroke:#000000;stroke-width:0.26458332px;stroke-linecap:butt;stroke-linejoin:miter;stroke-opacity:1"
           d="m 95.94181,286.10896 0.4009,0.93545 0.10023,1.06907 -0.0334,0.53454 -0.0668,0.70159 -0.23386,0.7684 -0.13364,0.46772 -0.26727,0.60135 -0.27562,0.3675 -0.35914,0.13363"
           id="path1074"
           inkscape:connector-curvature="0" />
        <path
           style="fill:none;stroke:#000000;stroke-width:0.26458332px;stroke-linecap:butt;stroke-linejoin:miter;stroke-opacity:1"
           d="m 94.53864,286.94418 v 0 l 0.46772,-1.03565"
           id="path1076"
           inkscape:connector-curvature="0" />
        <path
           style="fill:none;stroke:#000000;stroke-width:0.26458332px;stroke-linecap:butt;stroke-linejoin:miter;stroke-opacity:1"
           d="m 89.79849,287.35352 0.85045,-1.51191 1.51191,-1.22842 1.37016,-0.56697 1.27567,-0.23623 1.84263,0.33073 1.46466,0.75595 1.27567,1.13393 0.66146,0.99219 0.8032,1.32291 0.61421,1.55916 0.56696,1.5119 0.37798,1.22842 0.28348,0.85045 0.0473,0.47247"
           id="path1080"
           inkscape:connector-curvature="0" />
        <path
           style="fill:none;stroke:#000000;stroke-width:0.26458332px;stroke-linecap:butt;stroke-linejoin:miter;stroke-opacity:1"
           d="m 114.17796,291.65299 -0.18899,-1.46465 v -0.94494 l 0.24409,-1.61434 0.11693,-0.86863 0.70159,-1.921 1.58691,-1.65373 0.90203,-1.10248 1.01897,-0.3842 1.36975,-0.21716 1.08579,0.11693 1.11919,0.4009 0.46772,0.56795"
           id="path1082"
           inkscape:connector-curvature="0" />
        <path
           style="fill:none;stroke:#000000;stroke-width:0.26458332px;stroke-linecap:butt;stroke-linejoin:miter;stroke-opacity:1"
           d="m 112.14502,303.28103 0.20045,-1.1359 0.66817,-1.60361 1.20272,-2.00452 -0.13364,-0.80181 -0.60135,-0.80181 -2.00452,-0.66817 -2.2718,0.20045 -1.06907,0.60136 -1.1359,0.93544 -0.60135,0.93544 v 0.60136 l 0.8018,0.33409 1.06908,1.06907 0.66817,1.20272 0.53454,1.20271"
           id="path1084"
           inkscape:connector-curvature="0" />
        <path
           style="fill:none;stroke:#000000;stroke-width:0.26458332px;stroke-linecap:butt;stroke-linejoin:miter;stroke-opacity:1"
           d="m 114.91028,295.5745 -0.73232,0.8032 -0.14174,0.66145 0.0465,0.69604"
           id="path1088"
           inkscape:connector-curvature="0" />
        <path
           style="fill:none;stroke:#000000;stroke-width:0.26458332px;stroke-linecap:butt;stroke-linejoin:miter;stroke-opacity:1"
           d="m 104.86192,296.16498 1.06908,0.30068 0.86863,0.73499 0.20045,0.80181"
           id="path1090"
           inkscape:connector-curvature="0" />
        <path
           style="fill:none;stroke:#000000;stroke-width:0.26458332px;stroke-linecap:butt;stroke-linejoin:miter;stroke-opacity:1"
           d="m 71.79738,390.16305 -3.77976,-79.28052 -6.99257,-0.56695 -11.0558,0.75594 -9.73288,1.60639 -9.5439,2.55135 -8.50447,3.21279 -7.46503,3.87426 5.29167,67.94122"
           id="path1112"
           inkscape:connector-curvature="0" />
        <path
           style="fill:none;stroke:#000000;stroke-width:0.26458332px;stroke-linecap:butt;stroke-linejoin:miter;stroke-opacity:1"
           d="m 68.01762,310.88253 -2.83483,-2.3151 -4.67745,-0.33073 -3.2128,0.14173 c 0,0 -3.68527,-0.0472 -4.06324,-0.0472 -0.37798,0 -5.19718,0.28347 -5.57515,0.37795 -0.37798,0.0945 -5.43341,0.8032 -5.90588,0.99219 -0.47247,0.18899 -5.5279,1.27569 -5.5279,1.27569 l -6.99256,1.84261 -6.89807,2.03163 -6.42559,2.78757 -4.11049,2.36236 -1.6064,1.7009 -0.3779803,0.42521 4.9136903,0.18899"
           id="path1114"
           inkscape:connector-curvature="0" />
        <path
           style="fill:none;stroke:#000000;stroke-width:0.26458332px;stroke-linecap:butt;stroke-linejoin:miter;stroke-opacity:1"
           d="M 9.8092797,322.12735 15.19544,390.35204"
           id="path1116"
           inkscape:connector-curvature="0" />
        <path
           style="fill:none;stroke:#000000;stroke-width:0.26458332px;stroke-linecap:butt;stroke-linejoin:miter;stroke-opacity:1"
           d="m 142.56949,378.52129 -4.63021,-67.56326 -4.63021,-1.70089 5.00819,66.24033 z"
           id="path1118"
           inkscape:connector-curvature="0" />
        <path
           style="fill:none;stroke:#000000;stroke-width:0.26458332px;stroke-linecap:butt;stroke-linejoin:miter;stroke-opacity:1"
           d="m 137.93928,310.95803 22.67857,-7.37053 4.7247,60.28719 -1.34724,0.0765 -1.46998,1.00226 -1.33635,0.80181 c 0,0 0.0668,0.13363 -0.66818,-0.13364 -0.73499,-0.26727 -1.13589,-0.33409 -1.46998,-0.33409 -0.33409,0 -0.93544,0.53454 -0.93544,0.93545 0,0.4009 0.20045,0.53454 0.26727,0.86862 0.0668,0.33409 0.4009,1.20272 -0.26727,1.46999 -0.66818,0.26726 -1.33635,0.26726 -1.67044,0.33408 -0.33408,0.0668 -0.93544,0.20045 -1.60361,0.46772 -0.66818,0.26727 -0.86863,0.53454 -1.20272,0.53454 -0.33408,0 -1.80407,-1.26953 -1.80407,-1.26953 0,0 -0.86862,0 -0.86862,0.40091 0,0.4009 0.13363,1.26953 0.13363,1.26953 0,0 -0.80181,0.0668 0.33409,0.4009 1.1359,0.33409 1.87089,-0.0668 1.20271,0.46772 -0.66817,0.53454 -1.06908,0.60136 -1.5368,1.06908 -0.46772,0.46772 -0.73499,0.46772 -1.26953,0.93544 -0.53454,0.46773 -1.13589,0.80181 -1.33634,1.06908 -0.20046,0.26727 -1.33635,-0.53454 -1.33635,-0.53454 0,0 -0.80181,0.0668 -0.80181,0.53454 0,0.46772 0.4009,0.40091 0,0.93545 -0.40091,0.53454 -0.66818,0.66817 -1.00226,0.93544 -0.33409,0.26727 -0.26727,-0.20045 -0.60136,0.73499 -0.33409,0.93544 -0.53454,2.07134 -0.53454,2.07134 l -1.64787,-0.39702"
           id="path1120"
           inkscape:connector-curvature="0"
           sodipodi:nodetypes="ccc" />
        <path
           style="fill:none;stroke:#000000;stroke-width:0.26458332px;stroke-linecap:butt;stroke-linejoin:miter;stroke-opacity:1"
           d="m 160.61785,303.5875 -4.15774,-1.32292 -23.15104,6.99256"
           id="path1122"
           inkscape:connector-curvature="0" />
        <path
           style="fill:none;stroke:#000000;stroke-width:0.26458332px;stroke-linecap:butt;stroke-linejoin:miter;stroke-opacity:1"
           d="m -5.8767303,332.89965 1.88988,24.09597 2.26786,2.26788 -1.51191,-24.47396 z"
           id="path1124"
           inkscape:connector-curvature="0" />
        <path
           style="fill:none;stroke:#000000;stroke-width:0.26458332px;stroke-linecap:butt;stroke-linejoin:miter;stroke-opacity:1"
           d="m -5.8767303,332.89965 15.02455,-5.10268 1.1339303,0.75594"
           id="path1126"
           inkscape:connector-curvature="0" />
        <path
           style="fill:none;stroke:#000000;stroke-width:0.26458332px;stroke-linecap:butt;stroke-linejoin:miter;stroke-opacity:1"
           d="M -3.2309003,334.78954 10.34874,329.6739"
           id="path1128"
           inkscape:connector-curvature="0" />
        <path
           style="fill:none;stroke:#000000;stroke-width:0.26458332px;stroke-linecap:butt;stroke-linejoin:miter;stroke-opacity:1"
           d="m -1.7189903,359.2635 2.14535005,-0.72449 c 0,0 0.80180995,-1.0691 1.03566995,-1.5368 0.23386,-0.46773 0.46772,-1.26952 0.80181,-1.13591 0.33408,0.13364 1.30293,0.73501 1.67043,0.66818 0.3675,-0.0668 1.26953,-0.33409 1.67044,-0.33409 0.4009,0 1.23612,0.10022 1.40316,-0.13364 0.16704,-0.23384 0.3675,-1.06908 0.53454,-1.23611 0.16704,-0.16706 0.16704,-0.86863 0.93544,-0.43431 0.7684,0.43431 1.23612,0.80182 1.23612,0.80182 0,0 0.23386,0.30067 0.6347703,-0.0334 0.4009,-0.33409 0.50113,-0.70159 0.50113,-0.70159 l 1.50339,-0.43432"
           id="path1130"
           inkscape:connector-curvature="0" />
        <path
           style="fill:none;stroke:#000000;stroke-width:0.26458332px;stroke-linecap:butt;stroke-linejoin:miter;stroke-opacity:1"
           d="m 95.23191,371.5477 -0.37798,-1.84263"
           id="path1132"
           inkscape:connector-curvature="0" />
        <path
           style="fill:none;stroke:#000000;stroke-width:0.26458332px;stroke-linecap:butt;stroke-linejoin:miter;stroke-opacity:1"
           d="M 15.19544,390.35204 108.26961,389.275"
           id="path1134"
           inkscape:connector-curvature="0" />
        <path
           style="fill:none;stroke:#000000;stroke-width:0.26458332px;stroke-linecap:butt;stroke-linejoin:miter;stroke-opacity:1"
           d="m 95.70437,387.98968 -0.0591,1.45285"
           id="path1136"
           inkscape:connector-curvature="0" />
        <path
           style="fill:none;stroke:#000000;stroke-width:0.26458332px;stroke-linecap:butt;stroke-linejoin:miter;stroke-opacity:1"
           d="m 112.14502,303.28103 c 0,0 -0.84913,0.32546 -0.96725,0.37271 -0.11812,0.0472 -0.77957,0 -0.77957,0 l -0.92588,-0.30589"
           id="path1142"
           inkscape:connector-curvature="0" />
        <path
           style="opacity:1;fill:#808080;fill-opacity:1;fill-rule:nonzero;stroke:#000000;stroke-width:1;stroke-linejoin:round;stroke-miterlimit:4;stroke-dasharray:none;stroke-dashoffset:0;stroke-opacity:1"
           d="m 74.607163,387.63005 c -0.683741,-1.02981 -1.632738,-2.69211 -2.108888,-3.69401 l -0.865719,-1.82163 -1.70143,-35.67728 c -0.935786,-19.62252 -1.72245,-35.69609 -1.748144,-35.71906 -1.007316,-0.90065 -2.955581,-2.35277 -3.16502,-2.35903 -0.155916,-0.005 -1.149511,-0.0802 -2.207993,-0.16799 -1.058479,-0.0877 -4.672875,-0.0926 -8.031993,-0.0109 -5.17647,0.12595 -6.597237,0.22507 -9.320281,0.65019 -1.767041,0.27587 -3.510455,0.58399 -3.874257,0.68469 -0.363802,0.10072 -1.809562,0.44067 -3.212798,0.75546 -2.080361,0.46668 -9.322488,2.3358 -10.63058,2.74363 -0.299503,0.0934 -0.330774,-0.0721 -0.331213,-1.75226 -2.65e-4,-1.02046 0.122515,-2.87591 0.272846,-4.12323 0.150331,-1.24732 0.359161,-3.01054 0.464066,-3.91825 0.451196,-3.90414 3.321203,-10.73594 6.175475,-14.70018 1.639393,-2.27691 5.687401,-6.12645 7.854389,-7.46929 3.308514,-2.05023 7.675983,-3.90751 10.617279,-4.51506 4.586526,-0.94737 13.097841,0.73821 19.067688,3.77616 1.067025,0.54299 1.898247,0.84076 2.347005,0.84076 h 0.694843 l -0.117835,1.84263 c -0.126346,1.97568 -0.377801,3.49719 -1.194676,7.22879 -0.447889,2.04604 -0.518083,2.79255 -0.524213,5.57515 -0.0068,3.08135 0.02111,3.32492 0.682162,5.95313 1.179761,4.69054 1.783829,6.31838 3.714009,10.00855 1.694931,3.24042 1.938904,3.60325 3.431077,5.10268 1.432515,1.43948 1.903023,1.77 4.346726,3.05347 4.987319,2.61941 9.483698,4.66977 11.437268,5.21541 1.76757,0.49369 2.106623,0.52584 5.382674,0.5103 2.79356,-0.0132 4.38341,-0.1363 7.9101,-0.61227 4.69393,-0.6335 5.5833,-0.81543 6.65231,-1.36079 1.55793,-0.7948 4.09914,-2.94098 7.75535,-6.5498 l 3.89142,-3.84099 0.12458,4.00008 c 0.37633,12.08409 0.0121,16.38043 -1.89595,22.36547 -0.90093,2.82593 -1.77907,4.52257 -4.09482,7.91149 -3.95475,5.7875 -8.9284,15.47487 -11.53184,22.46104 -1.43371,3.84728 -2.39999,6.94248 -3.59401,11.51241 -1.16546,4.46061 -1.14252,5.719 0.12957,7.11023 l 0.38882,0.42521 h -3.40485 c -1.87267,0 -4.545138,0.0546 -5.938823,0.12137 l -2.533973,0.12139 -0.0053,-5.2713 c -0.0049,-4.90603 -0.2692,-10.36925 -0.629269,-13.00961 l -0.153247,-1.12374 1.522661,-1.58604 c 1.813589,-1.88908 2.324129,-2.20422 5.407281,-3.33786 2.5511,-0.93802 2.98779,-1.14863 2.79048,-1.34596 -0.14041,-0.14041 -3.79738,1.15393 -5.415135,1.91662 -1.326727,0.62547 -2.458067,1.59448 -4.188645,3.58767 -1.893742,2.18109 -2.552954,3.1782 -2.99153,4.52493 -0.578583,1.77665 -0.627991,2.41136 -0.402331,5.16829 0.363175,4.43693 0.568383,5.73133 1.239949,7.82116 0.358457,1.11546 0.651737,2.15726 0.651737,2.31511 0,0.24648 -0.502287,0.28696 -3.560027,0.28696 -1.958014,0 -5.984126,0.0559 -8.946909,0.12423 l -5.386885,0.12422 -1.243166,-1.87235 z"
           id="path1144"
           inkscape:connector-curvature="0" />
        <path
           style="opacity:1;fill:#808080;fill-opacity:1;fill-rule:nonzero;stroke:#000000;stroke-width:1;stroke-linejoin:round;stroke-miterlimit:4;stroke-dasharray:none;stroke-dashoffset:0;stroke-opacity:1"
           d="m 98.090878,325.01824 c -0.88352,-0.19751 -2.244235,-0.59089 -3.023809,-0.87419 -2.397231,-0.87115 -11.398657,-5.48731 -12.619879,-6.4718 -1.548487,-1.24831 -2.77677,-2.68977 -3.466636,-4.0683 -0.323038,-0.64551 -1.041763,-1.98158 -1.597168,-2.96905 -1.345367,-2.39194 -1.837772,-3.7518 -2.942606,-8.12648 -1.392238,-5.51269 -1.416455,-7.63913 -0.152236,-13.36731 0.697338,-3.15964 1.187378,-7.06955 1.02489,-8.17734 -0.06861,-0.46774 -0.373142,-1.62794 -0.676741,-2.57821 -0.74953,-2.34604 -1.857301,-7.90746 -1.989796,-9.98949 -0.08426,-1.32403 -0.01921,-2.13109 0.293632,-3.64245 0.54815,-2.64827 1.240546,-4.74893 1.78944,-5.42898 0.401641,-0.49761 0.566524,-0.56285 1.347891,-0.5333 1.144328,0.0433 2.65104,0.39918 3.492185,0.8249 0.988118,0.50011 2.671861,2.10199 5.96936,5.67914 2.408298,2.61253 3.170981,3.31993 4.067148,3.77231 1.337138,0.67499 1.506384,0.68001 3.134598,0.093 1.301721,-0.46932 5.912078,-1.38488 9.533539,-1.89324 3.05648,-0.42905 5.91692,-0.53827 8.19491,-0.31289 1.14338,0.11313 2.64191,0.26114 3.33007,0.32893 l 1.25121,0.12325 0.75458,-1.01723 c 0.41502,-0.55948 1.85053,-2.27667 3.19001,-3.81598 1.33949,-1.53931 3.00916,-3.62291 3.71037,-4.63021 1.44588,-2.07703 2.63401,-3.25753 3.9495,-3.92414 1.25907,-0.63802 1.57483,-0.59178 2.24127,0.32822 1.20015,1.65675 1.67957,4.537 1.34083,8.05544 -0.29397,3.05346 -1.61373,9.31631 -2.20357,10.45694 -0.54001,1.04426 -0.2957,3.07349 0.66852,5.55268 1.2011,3.08827 2.81801,8.62249 3.14729,10.77232 0.44418,2.89994 0.27449,7.95908 -0.46909,13.98511 -0.7449,6.03684 -0.80243,6.2926 -1.71429,7.62212 -0.90949,1.32605 -9.07721,9.47485 -10.88123,10.85601 -2.69768,2.06535 -3.07267,2.18684 -9.16592,2.96945 -5.9214,0.76053 -9.38098,0.88081 -11.528272,0.40079 z m 13.694182,-21.37306 c 0.26928,-0.10238 0.51654,-0.29373 0.54944,-0.42522 0.28494,-1.13852 0.83376,-2.49523 1.36814,-3.3821 0.53834,-0.89342 0.64121,-1.245 0.64121,-2.19132 0,-0.88715 0.0805,-1.2 0.37798,-1.46923 0.42361,-0.38336 0.48946,-0.66145 0.15662,-0.66145 -0.35529,0 -0.91257,0.59493 -0.91257,0.97423 0,0.42568 0.0989,0.42918 -1.24609,-0.0441 -1.57221,-0.55327 -3.37862,-0.39596 -4.5528,0.39648 -0.45906,0.30982 -0.87839,0.5633 -0.93187,0.5633 -0.0535,0 -0.29834,-0.23903 -0.54416,-0.53117 -0.42735,-0.50787 -1.65987,-1.05438 -1.88044,-0.83381 -0.20107,0.20107 -0.10317,0.42004 0.18781,0.42004 0.46956,0 1.37949,0.53849 1.59715,0.94519 0.14995,0.28019 0.1276,0.51494 -0.0889,0.9336 -0.4337,0.8387 -0.36255,1.28638 0.25524,1.60585 0.72314,0.37395 1.43635,1.24557 2.10814,2.57637 0.3029,0.60005 0.70169,1.1303 0.8862,1.17834 0.61028,0.15889 1.53209,0.13392 2.0289,-0.055 z m -8.78049,-9.79308 c 0,-0.1949 -1.17203,-3.64842 -1.61604,-4.76184 -0.44025,-1.10401 -1.4793,-2.76246 -2.230786,-3.56064 -0.326919,-0.34722 -1.104664,-0.89127 -1.728324,-1.20898 -2.64088,-1.34536 -5.957932,-0.37228 -7.417784,2.17605 -0.495941,0.86572 -0.501521,0.89268 -0.184716,0.89268 0.132278,0 0.405892,-0.30711 0.608033,-0.68246 0.202142,-0.37535 0.710488,-0.96181 1.129657,-1.30325 2.791593,-2.27389 6.405716,-1.41997 8.433239,1.99254 0.771581,1.29864 2.214001,4.91184 2.387391,5.98029 0.0577,0.35552 0.21396,0.62746 0.36057,0.62746 0.14232,0 0.25876,-0.0683 0.25876,-0.15185 z m -5.429555,-0.38487 c 1.177147,-0.7762 2.07028,-2.47332 2.047809,-3.89122 -0.02748,-1.73387 -1.572361,-3.25575 -3.767561,-3.71147 -1.905471,-0.39557 -4.029292,0.44331 -4.951481,1.95577 -1.075534,1.76396 0.236445,4.91099 2.373526,5.69334 1.126168,0.41227 3.643313,0.38509 4.297707,-0.0464 z m 16.697195,-3.0068 c -0.0605,-0.70162 -0.0434,-1.61585 0.038,-2.03163 l 0.14801,-0.75595 0.13639,0.97776 c 0.12608,0.90385 0.21105,1.03186 1.12398,1.69336 0.86499,0.62677 1.14719,0.72512 2.27318,0.79227 1.91214,0.11403 3.62176,-0.61742 4.3586,-1.86479 0.53372,-0.90351 0.71618,-2.50757 0.3903,-3.43121 -0.35272,-0.99971 -1.09188,-1.97188 -1.85139,-2.43501 -0.83465,-0.50894 -2.8211,-0.50022 -3.66795,0.0161 -0.87956,0.53627 -0.92155,0.47377 -0.22261,-0.33143 0.88977,-1.02505 1.40972,-1.24756 2.95026,-1.26253 1.13389,-0.011 1.4499,0.0584 1.95199,0.42872 0.63335,0.46715 0.97145,0.41071 0.64451,-0.1076 -0.44523,-0.70584 -2.51239,-1.00747 -4.12378,-0.60171 -0.66487,0.16741 -1.07557,0.49058 -2.23913,1.76195 -1.19244,1.30291 -1.48723,1.75869 -1.80689,2.79361 -0.46366,1.50117 -0.69106,3.60391 -0.51598,4.7714 0.20792,1.38653 0.53908,1.05472 0.41249,-0.41331 z"
           id="path1146"
           inkscape:connector-curvature="0" />
        <path
           style="opacity:1;fill:#ffff00;fill-opacity:1;fill-rule:nonzero;stroke:none;stroke-width:3.53553391;stroke-linejoin:round;stroke-miterlimit:4;stroke-dasharray:none;stroke-dashoffset:0;stroke-opacity:1"
           d="m 94.528303,293.4095 c -0.257246,-0.0324 -0.751615,-0.15073 -1.098597,-0.26292 -0.768231,-0.24839 -1.663454,-1.18638 -2.185514,-2.28992 -0.307787,-0.65062 -0.347488,-0.87551 -0.291841,-1.65325 0.05682,-0.79416 0.120962,-0.96626 0.544566,-1.46114 0.264086,-0.30853 0.678333,-0.69407 0.920554,-0.85678 0.476226,-0.31988 1.609619,-0.73937 1.997697,-0.73937 0.208343,0 0.220789,0.0487 0.09395,0.3675 -0.436006,1.09593 -0.606512,2.12752 -0.499107,3.01969 0.112371,0.9334 0.649412,2.14463 1.012706,2.28404 0.473549,0.18172 0.900755,-0.40282 1.340721,-1.83448 0.253452,-0.82475 0.286025,-2.83457 0.053,-3.26999 -0.231664,-0.43287 0.0013,-0.38869 0.9321,0.17668 1.08095,0.65664 1.690095,1.433 1.864471,2.37628 0.123595,0.6686 0.104664,0.83519 -0.173045,1.52273 -0.344527,0.85296 -1.008187,1.79876 -1.611183,2.29615 -0.329287,0.27161 -0.55649,0.3285 -1.412576,0.3537 -0.561097,0.0165 -1.230651,0.003 -1.487898,-0.0289 z"
           id="path1160"
           inkscape:connector-curvature="0" />
        <path
           style="opacity:1;fill:#ffff00;fill-opacity:1;fill-rule:nonzero;stroke:none;stroke-width:3.53553391;stroke-linejoin:round;stroke-miterlimit:4;stroke-dasharray:none;stroke-dashoffset:0;stroke-opacity:1"
           d="m 116.91213,290.62261 c -0.2205,-0.12033 -0.70733,-0.45006 -1.08184,-0.73275 -0.62388,-0.47092 -0.69543,-0.5823 -0.854,-1.3295 -0.22405,-1.05579 -0.0997,-2.29723 0.28643,-2.86015 0.39764,-0.57967 0.80534,-1.02582 1.06577,-1.16628 0.19419,-0.10474 0.21071,-0.0247 0.15029,0.72813 -0.0775,0.96494 0.25843,2.07443 0.87449,2.88858 1.08293,1.43115 1.7095,1.22251 1.86327,-0.62043 0.0714,-0.85528 -0.29104,-3.48676 -0.51175,-3.71601 -0.25573,-0.26562 -0.0955,-0.34077 0.72635,-0.34077 0.72502,0 0.92676,0.0566 1.3856,0.38902 0.64536,0.4675 1.00577,0.95313 1.44584,1.94821 0.27657,0.62538 0.31637,0.87045 0.24518,1.50987 -0.23868,2.14376 -1.58711,3.29193 -4.04958,3.44818 -0.90955,0.0577 -1.22763,0.0277 -1.54605,-0.1461 z"
           id="path1162"
           inkscape:connector-curvature="0" />
        <path
           style="opacity:1;fill:#000000;fill-opacity:1;fill-rule:nonzero;stroke:none;stroke-width:0.44194174;stroke-linejoin:round;stroke-miterlimit:4;stroke-dasharray:none;stroke-dashoffset:0;stroke-opacity:1"
           d="m 94.944586,291.23166 c -0.15479,-0.23927 -0.211178,-0.34621 -0.344821,-0.65399 -0.153236,-0.3529 -0.161841,-0.37921 -0.210249,-0.64312 -0.03582,-0.1953 -0.05335,-0.35275 -0.06037,-0.54244 -0.0055,-0.147 -0.02564,-0.36875 -0.04485,-0.49278 l -0.03495,-0.22551 0.09464,-0.39255 c 0.05205,-0.2159 0.147297,-0.59514 0.211659,-0.84274 0.11507,-0.44267 0.120409,-0.45769 0.32004,-0.89961 0.11166,-0.24718 0.211442,-0.45265 0.221737,-0.45661 0.02278,-0.009 0.730805,0.14113 0.744754,0.15766 0.0055,0.006 0.08976,0.19965 0.187357,0.42933 l 0.177453,0.41761 0.04778,0.51784 c 0.05295,0.5739 0.05257,0.60734 -0.01492,1.33634 -0.0349,0.37708 -0.03741,0.39024 -0.135345,0.70994 -0.05488,0.17915 -0.136321,0.45163 -0.180982,0.60551 -0.114398,0.39413 -0.298472,0.80531 -0.454311,1.01481 -0.06492,0.0873 -0.118774,0.15994 -0.119671,0.16145 -7.94e-4,0.002 -0.05074,0.0213 -0.110768,0.0438 l -0.109141,0.0411 z"
           id="path1164"
           inkscape:connector-curvature="0" />
        <path
           style="opacity:1;fill:#000000;fill-opacity:1;fill-rule:nonzero;stroke:none;stroke-width:1.76776695;stroke-linejoin:round;stroke-miterlimit:4;stroke-dasharray:none;stroke-dashoffset:0;stroke-opacity:1"
           d="m 118.19685,288.57494 c -0.33006,-0.26018 -0.93318,-1.21234 -1.16349,-1.83683 -0.20506,-0.556 -0.20871,-0.58623 -0.17347,-1.43658 0.047,-1.13484 0.10277,-1.29642 0.53729,-1.55727 0.18829,-0.11304 0.42147,-0.22469 0.51818,-0.24812 0.15835,-0.0384 0.196,-0.007 0.3787,0.31345 0.11157,0.19582 0.22257,0.47632 0.24666,0.62332 0.0241,0.14699 0.10432,0.57889 0.17828,0.95977 0.17627,0.90775 0.15541,2.6144 -0.0375,3.06597 -0.0667,0.15619 -0.15562,0.28364 -0.19757,0.28324 -0.0419,-5.3e-4 -0.17114,-0.0755 -0.28711,-0.16695 z"
           id="path1166"
           inkscape:connector-curvature="0" />
        <path
           style="opacity:1;fill:#ff2a2a;fill-opacity:1;fill-rule:nonzero;stroke:#000000;stroke-width:0.5;stroke-linejoin:round;stroke-miterlimit:4;stroke-dasharray:none;stroke-dashoffset:0;stroke-opacity:1"
           d="m 74.970663,387.0142 c -0.606448,-0.99224 -1.465013,-2.53052 -1.907928,-3.41844 l -0.805297,-1.61438 -0.826981,-17.22813 c -0.45484,-9.47545 -0.942743,-18.55109 -1.084223,-20.16807 -0.141486,-1.61698 -0.576517,-9.97584 -0.96674,-18.57523 l -0.709491,-15.63527 -0.702971,-0.62124 c -0.386636,-0.34167 -1.176097,-0.94303 -1.754357,-1.33634 l -1.051383,-0.71512 -8.57032,0.0195 c -10.021017,0.0228 -11.44479,0.2066 -21.783783,2.81188 -3.445449,0.86821 -6.362028,1.57856 -6.481286,1.57856 -0.688441,0 0.258315,-9.09248 1.286272,-12.35308 1.886275,-5.98313 4.68947,-10.77082 8.455588,-14.44163 3.646639,-3.55436 7.25092,-5.71937 12.625586,-7.58391 4.820624,-1.67234 12.399851,-0.63481 20.012864,2.73959 1.452186,0.64366 2.845202,1.1703 3.095587,1.1703 0.389586,0 0.438383,0.22165 0.338342,1.5368 -0.0643,0.84524 -0.465074,3.38141 -0.890614,5.63594 -0.883706,4.68188 -1.017971,8.74677 -0.387088,11.71911 1.539515,7.25328 4.398642,13.42901 7.787507,16.82106 1.734148,1.73578 2.346198,2.1256 6.953126,4.42856 2.778376,1.38888 6.134031,2.93781 7.457016,3.44207 l 2.405425,0.91684 4.810856,-0.0184 c 4.98861,-0.019 11.18665,-0.73554 13.76438,-1.59119 1.55975,-0.51775 3.81035,-2.28261 8.20368,-6.43312 l 3.55618,-3.35962 v 7.57904 c 0,8.31484 -0.2086,10.77238 -1.25465,14.7813 -1.03385,3.96216 -1.84537,5.72228 -4.69805,10.18967 -7.49837,11.74272 -12.29045,22.60368 -15.29226,34.65905 -0.70416,2.82792 -0.80673,4.99124 -0.29078,6.13294 0.19711,0.43619 -0.12107,0.46773 -4.71894,0.46773 h -4.930308 l -0.196302,-7.41672 c -0.107963,-4.07921 -0.291454,-8.19851 -0.407752,-9.15398 l -0.211455,-1.73725 1.59348,-1.63684 c 1.57217,-1.61494 2.254504,-2.01661 5.951847,-3.50359 1.4444,-0.58092 1.89036,-0.88805 1.9563,-1.34734 0.11404,-0.79438 -0.63324,-0.78581 -3.04538,0.0348 -3.999091,1.36049 -6.364055,3.18413 -9.061641,6.98751 -1.794881,2.53064 -2.121289,3.87768 -1.90681,7.86905 0.186169,3.46454 0.648205,6.4566 1.326965,8.59322 l 0.390083,1.22793 -5.386901,0.17455 c -2.962799,0.096 -6.77242,0.17486 -8.465833,0.17523 h -3.07893 l -1.10263,-1.80406 z"
           id="path1713"
           inkscape:connector-curvature="0" />
        <path
           style="opacity:1;fill:#ff2a2a;fill-opacity:1;fill-rule:nonzero;stroke:#000000;stroke-width:0.30000001;stroke-linejoin:round;stroke-miterlimit:4;stroke-dasharray:none;stroke-dashoffset:0;stroke-opacity:1"
           d="m 97.198246,324.14692 c -2.246919,-0.59719 -4.844614,-1.76261 -10.022607,-4.4965 -4.97753,-2.62805 -6.400189,-3.98601 -8.737622,-8.3403 -1.836573,-3.42126 -2.657123,-5.70792 -3.672009,-10.23298 -0.918043,-4.09326 -0.895739,-6.5347 0.10759,-11.77682 1.218907,-6.36847 1.283208,-7.87225 0.459479,-10.74544 -1.059374,-3.6951 -1.792124,-7.49981 -1.953157,-10.14152 -0.123754,-2.03017 -0.03982,-2.81791 0.538009,-5.04951 0.376552,-1.45425 0.880536,-2.94307 1.119962,-3.30848 0.397153,-0.60613 0.559078,-0.65162 1.846517,-0.51875 0.776155,0.0801 1.815605,0.3496 2.309889,0.59887 0.494284,0.24927 2.823041,2.41287 5.175012,4.80799 2.351971,2.39513 4.68308,4.55787 5.18024,4.80608 1.029412,0.51394 1.34969,0.48422 5.622557,-0.52183 6.832774,-1.60878 12.021934,-2.0412 17.431984,-1.45266 l 2.73151,0.29716 0.55303,-0.75927 c 0.30416,-0.4176 1.59593,-1.99134 2.8706,-3.4972 1.27467,-1.50586 3.2376,-3.93819 4.36208,-5.40518 1.91827,-2.50258 4.12016,-4.43797 4.79365,-4.21347 0.15176,0.0506 0.56899,0.66146 0.92718,1.35749 1.01854,1.9792 1.08946,5.64109 0.20267,10.46473 -0.37949,2.06424 -0.9334,4.5298 -1.23092,5.47902 -0.84393,2.69261 -0.72611,3.97791 0.77585,8.4635 1.78861,5.34166 2.61665,8.65646 2.83136,11.33439 0.26255,3.27468 -0.63126,13.61024 -1.51121,17.47482 -0.28613,1.25664 -0.64903,1.67953 -6.08445,7.09022 -4.00084,3.98264 -6.21626,5.98519 -7.19681,6.50531 -1.57736,0.83667 -3.71404,1.26915 -9.32942,1.88833 -4.92258,0.54278 -7.766802,0.51237 -10.100964,-0.108 z M 112.29514,304.0959 c 0.27256,-0.14588 0.64454,-0.71663 0.82662,-1.26835 0.18209,-0.55172 0.67271,-1.72528 1.09028,-2.60793 0.41756,-0.88264 0.76313,-2.02575 0.76792,-2.54024 0.005,-0.5145 0.17703,-1.15761 0.38276,-1.42915 0.82977,-1.09521 -0.63496,-1.76848 -1.57871,-0.72565 -0.37101,0.40996 -0.60607,0.46566 -1.1279,0.26727 -1.04911,-0.39887 -3.07116,-0.27875 -4.23254,0.25144 -1.01429,0.46304 -1.10332,0.46448 -1.73726,0.0281 -1.08084,-0.74409 -1.76769,-0.8624 -2.24362,-0.38647 -0.63298,0.63298 -0.53689,0.86891 0.57319,1.40747 0.61494,0.29834 0.96102,0.63483 0.89555,0.87073 -0.40935,1.47486 -0.34053,1.80418 0.50743,2.42837 0.46983,0.34584 1.16351,1.17002 1.54151,1.83152 1.10576,1.93505 1.35847,2.13815 2.66035,2.13815 0.64837,0 1.40186,-0.11935 1.67442,-0.26521 z m -14.87538,-9.98832 c 1.183645,-0.49456 2.258983,-1.83886 2.621,-3.27656 0.16483,-0.65461 0.34951,-1.14039 0.4104,-1.07951 0.0609,0.0609 0.45159,1.11786 0.86825,2.34885 0.67093,1.98223 0.83771,2.24782 1.45861,2.32271 0.59129,0.0713 0.70106,-0.0195 0.70106,-0.58005 0,-0.36555 -0.37126,-1.72659 -0.82503,-3.02454 -1.38967,-3.97502 -2.701061,-5.84614 -4.866305,-6.94335 -2.745623,-1.39131 -6.033754,-0.66198 -7.870126,1.74567 -0.987005,1.29405 -1.117788,2.15513 -0.357526,2.35395 0.413289,0.10807 0.486214,0.30286 0.373477,0.99757 -0.167703,1.03344 0.728864,3.29622 1.648275,4.15996 1.307108,1.22796 4.111787,1.69652 5.837915,0.9753 z m 17.23119,-2.09432 c 0.17639,-0.1764 0.32072,-0.53721 0.32072,-0.80181 0,-0.59028 -0.0657,-0.5932 1.20271,0.0535 2.65276,1.35245 6.38943,-0.0983 7.10583,-2.75881 0.59808,-2.22111 -0.37881,-4.70976 -2.20123,-5.60767 -0.55443,-0.27317 -0.71382,-0.44356 -0.41843,-0.44733 0.26242,-0.003 0.75662,0.17705 1.09824,0.40088 1.24713,0.81715 2.06228,-0.34821 0.94857,-1.3561 -0.69634,-0.63018 -3.64055,-0.86571 -4.80296,-0.38422 -0.98509,0.40804 -3.41856,3.02276 -3.9119,4.20328 -0.61232,1.46522 -0.95581,4.71937 -0.62704,5.94036 0.29491,1.09521 0.7059,1.33754 1.28549,0.75796 z"
           id="path1715"
           inkscape:connector-curvature="0" />
        <path
           style="opacity:1;fill:#ff2a2a;fill-opacity:1;fill-rule:nonzero;stroke:#000000;stroke-width:1.01015258;stroke-linejoin:round;stroke-miterlimit:4;stroke-dasharray:none;stroke-dashoffset:0;stroke-opacity:1"
           d="m 20.250426,389.57635 c -0.172239,-0.82984 -5.284354,-67.08646 -5.182847,-67.17334 0.04341,-0.0371 1.882992,-0.97025 4.087966,-2.07355 10.449124,-5.22844 22.945849,-8.45237 36.348654,-9.37731 4.210936,-0.29059 6.413645,-0.32102 8.819896,-0.12182 1.763977,0.14602 3.221021,0.28365 3.237878,0.30583 0.01685,0.0222 0.229732,4.12955 0.473064,9.12749 0.24333,4.99794 1.060752,21.4751 1.816487,36.61591 0.755737,15.14084 1.422728,28.62636 1.482203,29.96785 l 0.10813,2.43906 -3.558878,0.16367 c -1.957388,0.09 -12.458959,0.22757 -23.336829,0.3057 -10.87787,0.0781 -20.765286,0.21021 -21.972032,0.29351 -2.138714,0.14763 -2.197359,0.1357 -2.323692,-0.473 z"
           id="path1717"
           inkscape:connector-curvature="0" />
        <path
           style="opacity:1;fill:#ff2a2a;fill-opacity:1;fill-rule:nonzero;stroke:#000000;stroke-width:1.01015258;stroke-linejoin:round;stroke-miterlimit:4;stroke-dasharray:none;stroke-dashoffset:0;stroke-opacity:1"
           d="m -1.5528733,358.41637 c 0.00273,-0.25725 -0.3129413,-5.61435 -0.701503,-11.9047 -0.3885618,-6.29035 -0.6614081,-11.482 -0.6063271,-11.537 0.2713487,-0.27099 12.9380374,-4.8821 12.9945264,-4.73046 0.167224,0.4489 1.894472,23.4177 1.775483,23.61024 -0.07437,0.12033 -0.364434,0.21879 -0.644583,0.21879 -0.280149,0 -0.636344,0.23727 -0.791543,0.52726 -0.280755,0.52461 -0.286544,0.52461 -1.1452994,0 -1.2085875,-0.73692 -1.6354742,-0.66265 -2.1279908,0.37018 -0.3976925,0.83396 -0.5446527,0.91156 -2.0480575,1.08167 -0.9826757,0.11117 -1.8252757,0.0732 -2.1425561,-0.0966 -0.8520324,-0.45601 -1.057865,-0.34438 -1.9056006,1.03336 -0.53372544,0.86741 -1.09082681,1.41181 -1.64102785,1.60361 -1.05741525,0.36862 -1.02138955,0.37491 -1.01552105,-0.17732 z"
           id="path1719"
           inkscape:connector-curvature="0" />
        <path
           style="opacity:1;fill:#ff2a2a;fill-opacity:1;fill-rule:nonzero;stroke:#000000;stroke-width:1.01015258;stroke-linejoin:round;stroke-miterlimit:4;stroke-dasharray:none;stroke-dashoffset:0;stroke-opacity:1"
           d="m 15.430143,389.82053 c -0.10106,-0.33599 -2.624592,-32.88977 -3.630906,-46.83897 -0.296929,-4.11595 -0.661241,-8.7464 -0.809583,-10.28988 -0.627901,-6.53329 -0.77012,-8.20525 -0.778639,-9.15398 l -0.009,-1.00226 h 2.138156 c 1.973855,0 2.138156,0.0419 2.138156,0.54515 0,1.09787 4.299678,56.81823 4.892209,63.39908 l 0.330888,3.67495 H 17.61603 c -1.436544,0 -2.116664,-0.10395 -2.185884,-0.33409 z"
           id="path1721"
           inkscape:connector-curvature="0" />
        <path
           style="opacity:1;fill:#ff2a2a;fill-opacity:1;fill-rule:nonzero;stroke:#000000;stroke-width:1.01015258;stroke-linejoin:round;stroke-miterlimit:4;stroke-dasharray:none;stroke-dashoffset:0;stroke-opacity:1"
           d="m 11.050313,321.20524 c 1.632132,-2.08888 9.775769,-5.78409 16.79149,-7.61921 7.950186,-2.07955 14.231688,-3.5768 16.860033,-4.01873 3.004362,-0.50516 14.359395,-0.98804 17.751372,-0.75489 2.096738,0.14413 2.542619,0.26585 3.474503,0.9485 l 1.069078,0.78316 -2.004521,-0.21833 c -2.433079,-0.26501 -7.599174,-0.18036 -11.759858,0.19268 -12.887296,1.15548 -24.362987,4.29189 -34.808517,9.51348 -3.857141,1.92814 -3.980976,1.969 -5.967074,1.969 h -2.02819 z"
           id="path1723"
           inkscape:connector-curvature="0" />
        <path
           style="opacity:1;fill:#ff2a2a;fill-opacity:1;fill-rule:nonzero;stroke:#000000;stroke-width:1.01015258;stroke-linejoin:round;stroke-miterlimit:4;stroke-dasharray:none;stroke-dashoffset:0;stroke-opacity:1"
           d="m 143.36906,378.443 c -0.33075,-0.047 -0.60136,-0.25297 -0.60136,-0.45773 0,-0.20479 -1.02602,-15.30681 -2.28004,-33.56004 -1.25402,-18.25324 -2.24626,-33.21829 -2.20498,-33.25569 0.24352,-0.22056 21.89154,-7.13079 21.9998,-7.02253 0.13117,0.13117 4.66859,57.23375 4.66859,58.75333 0,0.61844 -0.11941,0.7946 -0.53865,0.7946 -0.29626,0 -1.16822,0.41473 -1.9377,0.9216 -1.32758,0.8745 -1.45605,0.90612 -2.51445,0.61843 -1.60074,-0.43508 -2.07067,0.003 -1.84342,1.71527 0.1633,1.23108 0.14398,1.27924 -0.57425,1.43042 -0.40879,0.0861 -1.51214,0.39478 -2.45189,0.68604 l -1.70864,0.52959 -0.58038,-0.54526 c -0.3192,-0.29988 -0.90337,-0.54522 -1.29814,-0.54522 -0.61043,0 -0.72376,0.11991 -0.75786,0.80179 -0.022,0.44101 -0.0521,0.95216 -0.0668,1.13591 -0.0147,0.18375 0.24388,0.37251 0.57463,0.4195 0.33074,0.047 0.60135,0.17033 0.60135,0.27418 0,0.10383 -0.82383,0.80529 -1.83073,1.5588 -1.29057,0.9658 -1.94115,1.30011 -2.20497,1.13307 -0.20584,-0.13033 -0.64485,-0.23881 -0.9756,-0.24106 -0.46787,-0.003 -0.60136,0.14759 -0.60136,0.67916 0,0.42132 -0.31374,0.9698 -0.81842,1.43076 -0.45013,0.41114 -0.96129,1.21619 -1.1359,1.78901 -0.26098,0.85616 -0.42447,1.02629 -0.91882,0.95607 z"
           id="path1725"
           inkscape:connector-curvature="0" />
        <path
           style="opacity:1;fill:#ff2a2a;fill-opacity:1;fill-rule:nonzero;stroke:#000000;stroke-width:1.01015258;stroke-linejoin:round;stroke-miterlimit:4;stroke-dasharray:none;stroke-dashoffset:0;stroke-opacity:1"
           d="m 135.72072,309.87995 -1.56795,-0.60078 11.1199,-3.35955 11.1199,-3.35955 1.47292,0.40996 c 0.81011,0.22548 1.47292,0.48851 1.47292,0.58451 0,0.096 -2.37536,0.91942 -5.27857,1.82982 -2.90322,0.91041 -7.6764,2.43574 -10.60707,3.38962 -2.93067,0.95388 -5.5165,1.72813 -5.74629,1.72054 -0.22979,-0.008 -1.12338,-0.28414 -1.98576,-0.61457 z"
           id="path1727"
           inkscape:connector-curvature="0" />
        <path
           style="opacity:1;fill:#ff2a2a;fill-opacity:1;fill-rule:nonzero;stroke:#000000;stroke-width:1.01015258;stroke-linejoin:round;stroke-miterlimit:4;stroke-dasharray:none;stroke-dashoffset:0;stroke-opacity:1"
           d="m 140.28744,376.58219 c -1.03444,-0.73097 -1.78699,-1.45884 -1.79031,-1.73165 -0.003,-0.25884 -1.08818,-14.767 -2.41117,-32.24034 -1.32298,-17.47333 -2.40543,-32.00515 -2.40543,-32.29291 0,-0.50487 0.0696,-0.49919 1.98561,0.16214 l 1.98561,0.68534 0.14976,2.14401 c 0.68084,9.74691 4.33212,64.43067 4.30512,64.47612 -0.019,0.0321 -0.83768,-0.50916 -1.81919,-1.20271 z"
           id="path1729"
           inkscape:connector-curvature="0" />
        <path
           style="opacity:1;fill:#ff2a2a;fill-opacity:1;fill-rule:nonzero;stroke:#000000;stroke-width:0.17857143;stroke-linejoin:round;stroke-miterlimit:4;stroke-dasharray:none;stroke-dashoffset:0;stroke-opacity:1"
           d="m -4.3608698,333.7874 c -0.6266338,-0.44675 -1.1237674,-0.82662 -1.1047412,-0.84416 0.027114,-0.025 13.1138584,-4.48484 14.3055497,-4.87519 l 0.2858347,-0.0936 0.4819279,0.32087 c 0.4349007,0.28956 0.4822137,0.33515 0.4848487,0.46722 0.0016,0.0805 0.01807,0.29726 0.03661,0.48171 l 0.03369,0.33538 -0.7807486,0.28987 c -0.4294108,0.15944 -1.3547989,0.49025 -2.0564157,0.73515 -2.5876118,0.90321 -6.1604313,2.20953 -8.480843,3.10082 -1.3991854,0.53744 -1.7722558,0.69291 -1.9426925,0.80956 l -0.1236821,0.0847 z"
           id="path1731"
           inkscape:connector-curvature="0" />
        <path
           style="opacity:1;fill:#ff2a2a;fill-opacity:1;fill-rule:nonzero;stroke:#000000;stroke-width:0.17857143;stroke-linejoin:round;stroke-miterlimit:4;stroke-dasharray:none;stroke-dashoffset:0;stroke-opacity:1"
           d="m -4.2472762,351.64648 c -0.04027,-0.30118 -1.4489086,-18.37772 -1.433322,-18.3933 0.00741,-0.007 0.5280343,0.35155 1.1569647,0.79767 l 1.1435106,0.81113 0.00212,0.54539 c 0.0036,0.9025 0.2086213,4.69065 0.6415908,11.85454 0.1420521,2.3504 0.2582756,4.34364 0.2582756,4.42941 v 0.15595 h -0.871175 -0.871175 z"
           id="path1733"
           inkscape:connector-curvature="0" />
        <path
           style="opacity:1;fill:#ff2a2a;fill-opacity:1;fill-rule:nonzero;stroke:#000000;stroke-width:0.08928572;stroke-linejoin:round;stroke-miterlimit:4;stroke-dasharray:none;stroke-dashoffset:0;stroke-opacity:1"
           d="m 99.25386,287.25771 c -0.270529,-0.34683 -0.811745,-0.81705 -1.26387,-1.09807 -0.570518,-0.35461 -1.342419,-0.65284 -2.065012,-0.79785 -1.733598,-0.34788 -3.632959,0.21176 -4.849069,1.42878 -0.107193,0.10727 -0.19486,0.18577 -0.194821,0.17446 1.41e-4,-0.0385 0.176697,-0.28641 0.373944,-0.52511 0.703826,-0.85176 1.745411,-1.48418 2.803985,-1.70249 1.347378,-0.27788 2.730619,0.094 3.920863,1.05395 0.271304,0.21883 0.729549,0.6828 0.963827,0.97589 0.191058,0.23901 0.45081,0.61304 0.436015,0.62784 -0.0058,0.006 -0.06241,-0.0561 -0.125862,-0.1374 z"
           id="path1735"
           inkscape:connector-curvature="0" />
        <path
           style="opacity:1;fill:#ff2a2a;fill-opacity:1;fill-rule:nonzero;stroke:#000000;stroke-width:0.01578363;stroke-linejoin:round;stroke-miterlimit:4;stroke-dasharray:none;stroke-dashoffset:0;stroke-opacity:1"
           d="m 100.11158,289.33154 c -2e-5,-0.01 -0.004,-0.0516 -0.008,-0.0929 -0.038,-0.34175 -0.12787,-0.68071 -0.267972,-1.01068 -0.03349,-0.0789 -0.118996,-0.25652 -0.155392,-0.32284 l -0.01905,-0.0347 0.01543,10e-4 0.01542,10e-4 0.04933,0.0919 c 0.0657,0.12235 0.270554,0.5342 0.350014,0.70367 0.129,0.27513 0.26496,0.57559 0.26187,0.57869 -10e-4,10e-4 -0.0129,0.004 -0.0265,0.006 -0.0241,0.004 -0.0915,0.0275 -0.1145,0.0394 -0.006,0.003 -0.0298,0.0173 -0.052,0.0312 -0.0222,0.0139 -0.0422,0.0252 -0.0443,0.0252 -0.002,0 -0.004,-0.008 -0.004,-0.0178 z"
           id="path1737"
           inkscape:connector-curvature="0" />
        <path
           style="opacity:1;fill:#ff2a2a;fill-opacity:1;fill-rule:nonzero;stroke:#000000;stroke-width:0.01578363;stroke-linejoin:round;stroke-miterlimit:4;stroke-dasharray:none;stroke-dashoffset:0;stroke-opacity:1"
           d="m 99.639365,287.83232 c -0.06559,-0.11396 -0.147444,-0.24243 -0.215915,-0.33886 -0.02103,-0.0296 -0.03723,-0.0555 -0.03602,-0.0574 0.0013,-0.002 0.0059,-0.004 0.01037,-0.004 0.0045,0 0.01132,-0.004 0.01521,-0.008 0.0069,-0.008 0.0078,-0.007 0.03054,0.0283 0.06384,0.0994 0.161735,0.26417 0.226915,0.38194 l 0.01561,0.0282 h -0.01463 c -0.01378,0 -0.01566,-0.002 -0.03206,-0.0303 z"
           id="path1739"
           inkscape:connector-curvature="0" />
        <path
           style="opacity:1;fill:#ff2a2a;fill-opacity:1;fill-rule:nonzero;stroke:#000000;stroke-width:0.01578363;stroke-linejoin:round;stroke-miterlimit:4;stroke-dasharray:none;stroke-dashoffset:0;stroke-opacity:1"
           d="m 90.292184,287.84812 c -0.0088,-0.0123 -0.02927,-0.0368 -0.04541,-0.0543 -0.01614,-0.0175 -0.02864,-0.0325 -0.02778,-0.0334 7.94e-4,-8e-4 0.01966,-0.0153 0.0418,-0.0322 0.08073,-0.0615 0.158377,-0.13625 0.24338,-0.23433 0.01349,-0.0156 0.02524,-0.0276 0.02611,-0.0267 7.94e-4,7.9e-4 -0.01696,0.0315 -0.03965,0.068 -0.05486,0.0883 -0.102656,0.17466 -0.145532,0.26307 -0.01939,0.04 -0.0356,0.0726 -0.03604,0.0725 -5.29e-4,-1.1e-4 -0.008,-0.0103 -0.01688,-0.0226 z"
           id="path1741"
           inkscape:connector-curvature="0" />
        <path
           style="opacity:1;fill:#ff2a2a;fill-opacity:1;fill-rule:nonzero;stroke:#000000;stroke-width:0.01578363;stroke-linejoin:round;stroke-miterlimit:4;stroke-dasharray:none;stroke-dashoffset:0;stroke-opacity:1"
           d="m 90.765534,287.1385 c 0,-0.001 0.07769,-0.13392 0.08178,-0.13962 5.29e-4,-7.9e-4 0.0068,0.002 0.014,0.005 0.01548,0.008 0.01979,5.3e-4 -0.04501,0.0787 -0.04323,0.0522 -0.05077,0.0604 -0.05077,0.0555 z"
           id="path1743"
           inkscape:connector-curvature="0" />
        <path
           style="opacity:1;fill:#ff2a2a;fill-opacity:1;fill-rule:nonzero;stroke:#000000;stroke-width:0.00390625;stroke-linejoin:round;stroke-miterlimit:4;stroke-dasharray:none;stroke-dashoffset:0;stroke-opacity:1"
           d="m 90.534654,287.46066 c -0.0021,-0.002 -0.0021,-0.002 0.01376,-0.0214 0.02066,-0.0254 0.02111,-0.026 0.02077,-0.0248 -5.3e-4,0.002 -0.03125,0.048 -0.03183,0.048 -2.64e-4,-1e-5 -0.0016,-7.9e-4 -0.0027,-0.002 z"
           id="path1745"
           inkscape:connector-curvature="0" />
        <path
           style="opacity:1;fill:#ff2a2a;fill-opacity:1;fill-rule:nonzero;stroke:#000000;stroke-width:0.02209709;stroke-linejoin:round;stroke-miterlimit:4;stroke-dasharray:none;stroke-dashoffset:0;stroke-opacity:1"
           d="m 107.11484,298.20206 c 0,-0.003 0.006,-0.0242 0.014,-0.0469 0.008,-0.0227 0.0174,-0.0561 0.0214,-0.0742 l 0.007,-0.0328 0.0911,-0.0746 c 0.0844,-0.0691 0.0944,-0.0756 0.13499,-0.0873 0.0241,-0.007 0.0489,-0.0146 0.055,-0.0169 0.006,-0.002 -0.0415,0.0481 -0.10587,0.11216 -0.0644,0.0641 -0.13976,0.14113 -0.16756,0.17129 -0.0278,0.0302 -0.0505,0.0523 -0.0505,0.0492 z"
           id="path1747"
           inkscape:connector-curvature="0" />
        <path
           style="opacity:1;fill:#ff2a2a;fill-opacity:1;fill-rule:nonzero;stroke:#000000;stroke-width:0.02209709;stroke-linejoin:round;stroke-miterlimit:4;stroke-dasharray:none;stroke-dashoffset:0;stroke-opacity:1"
           d="m 113.82133,297.67843 c -0.0295,-0.052 -0.10646,-0.16346 -0.20055,-0.29047 -0.0537,-0.0725 -0.0953,-0.13274 -0.0923,-0.13377 0.0162,-0.006 0.0477,0.0304 0.17247,0.19726 l 0.13738,0.18368 v 0.0341 c 0,0.0188 -5.3e-4,0.0341 -0.002,0.034 -8e-4,-3e-5 -0.008,-0.0112 -0.0155,-0.0248 z"
           id="path1749"
           inkscape:connector-curvature="0" />
        <path
           style="opacity:1;fill:#ff0000;fill-opacity:1;fill-rule:nonzero;stroke:#000000;stroke-width:0.94488192;stroke-linejoin:round;stroke-miterlimit:4;stroke-dasharray:none;stroke-dashoffset:0;stroke-opacity:1"
           d="m -11.189027,1352.1836 -3.283347,-3.2251 -0.655812,-8.5802 c -0.360697,-4.7191 -0.704243,-8.9458 -0.763436,-9.3927 l -0.107624,-0.8125 h 3.359283 c 1.847605,0 3.3592818,0.095 3.3592818,0.2105 0,0.2643 1.187718,20.7727 1.345168,23.227 0.063951,0.9969 0.096825,1.8093 0.073053,1.8053 -0.023772,0 -1.520727,-1.4585 -3.3265668,-3.2323 z"
           id="path1817"
           inkscape:connector-curvature="0"
           transform="scale(0.26458333)" />
        <path
           style="opacity:1;fill:#000000;fill-opacity:1;fill-rule:nonzero;stroke:#000000;stroke-width:3.77952766;stroke-linejoin:round;stroke-miterlimit:4;stroke-dasharray:none;stroke-dashoffset:0;stroke-opacity:1"
           d="m 412.65578,1141.0216 c -1.57942,-2.6586 -4.16127,-5.9988 -5.73744,-7.4228 -1.57618,-1.424 -2.86578,-3.0243 -2.86578,-3.5562 0,-1.724 2.61474,-4.3523 6.35511,-6.3881 4.15792,-2.263 9.69444,-2.7045 14.5069,-1.1567 5.92829,1.9066 6.16051,3.1665 2.08956,11.3367 -1.25957,2.5279 -2.70965,5.869 -3.22239,7.4246 -1.35748,4.1185 -1.90203,4.5962 -5.23949,4.5962 -2.97427,0 -3.05343,-0.065 -5.88647,-4.8337 z"
           id="path1819"
           inkscape:connector-curvature="0"
           transform="scale(0.26458333)" />
        <path
           style="opacity:1;fill:#000000;fill-opacity:1;fill-rule:nonzero;stroke:#000000;stroke-width:0.07086615;stroke-linejoin:round;stroke-miterlimit:4;stroke-dasharray:none;stroke-dashoffset:0;stroke-opacity:1"
           d="m 404.3496,1131.9274 c -0.84555,-0.4888 -1.0224,-0.7889 -0.87711,-1.4888 0.0718,-0.3459 0.18961,-0.484 0.18961,-0.2224 0,0.277 0.29854,0.7581 1.14583,1.8463 0.15609,0.2005 0.0872,0.1802 -0.45833,-0.1351 z"
           id="path1821"
           inkscape:connector-curvature="0"
           transform="scale(0.26458333)" />
        <flowRoot
           xml:space="preserve"
           id="flowRoot1825"
           style="font-style:normal;font-weight:normal;font-size:40px;line-height:1.25;font-family:sans-serif;letter-spacing:0px;word-spacing:0px;fill:#000000;fill-opacity:1;stroke:none"
           transform="matrix(0.68132789,-0.10204913,0.10204913,0.68132789,205.57749,-640.38475)"><flowRegion
             id="flowRegion1827"><rect
               id="rect1829"
               width="404.46509"
               height="332.34018"
               x="-479.4184"
               y="1347.3796" /></flowRegion><flowPara
             id="flowPara1831">RIP</flowPara></flowRoot>        <flowRoot
           xml:space="preserve"
           id="flowRoot1825-1"
           style="font-style:normal;font-weight:normal;font-size:40px;line-height:1.25;font-family:sans-serif;letter-spacing:0px;word-spacing:0px;fill:#000000;fill-opacity:1;stroke:none"
           transform="matrix(0.27145237,-0.07216284,0.07216284,0.27145237,171.98103,-85.114911)"><flowRegion
             id="flowRegion1827-7"><rect
               id="rect1829-0"
               width="404.46509"
               height="332.34018"
               x="-479.4184"
               y="1347.3796" /></flowRegion><flowPara
             id="flowPara1831-7">RIP</flowPara></flowRoot>        <flowRoot
           xml:space="preserve"
           id="flowRoot1825-7"
           style="font-style:normal;font-weight:normal;font-size:40px;line-height:1.25;font-family:sans-serif;letter-spacing:0px;word-spacing:0px;fill:#000000;fill-opacity:1;stroke:none"
           transform="matrix(0.16478256,-0.06479691,0.06649906,0.22259763,-13.340865,6.7535991)"><flowRegion
             id="flowRegion1827-5"><rect
               id="rect1829-4"
               width="404.46509"
               height="332.34018"
               x="-479.4184"
               y="1347.3796" /></flowRegion><flowPara
             id="flowPara1831-2">RIP</flowPara></flowRoot>      </g>
    </g>
  </g>
</svg>
