<?xml version="1.0" encoding="UTF-8" standalone="no"?>
<svg
   xmlns:dc="http://purl.org/dc/elements/1.1/"
   xmlns:cc="http://creativecommons.org/ns#"
   xmlns:rdf="http://www.w3.org/1999/02/22-rdf-syntax-ns#"
   xmlns:svg="http://www.w3.org/2000/svg"
   xmlns="http://www.w3.org/2000/svg"
   xmlns:sodipodi="http://sodipodi.sourceforge.net/DTD/sodipodi-0.dtd"
   xmlns:inkscape="http://www.inkscape.org/namespaces/inkscape"
   id="svg8"
   version="1.1"
   viewBox="0 0 210 297"
   height="297mm"
   width="210mm"
   sodipodi:docname="redrum.svg"
   inkscape:version="0.92.1 r15371">
  <sodipodi:namedview
     pagecolor="#ffffff"
     bordercolor="#666666"
     borderopacity="1"
     objecttolerance="10"
     gridtolerance="10"
     guidetolerance="10"
     inkscape:pageopacity="0"
     inkscape:pageshadow="2"
     inkscape:window-width="1536"
     inkscape:window-height="801"
     id="namedview25"
     showgrid="false"
     inkscape:zoom="0.55054714"
     inkscape:cx="396.85039"
     inkscape:cy="561.25984"
     inkscape:window-x="-8"
     inkscape:window-y="-8"
     inkscape:window-maximized="1"
     inkscape:current-layer="svg8" />
  <defs
     id="defs2" />
  <metadata
     id="metadata5">
    <rdf:RDF>
      <cc:Work
         rdf:about="">
        <dc:format>image/svg+xml</dc:format>
        <dc:type
           rdf:resource="http://purl.org/dc/dcmitype/StillImage" />
        <dc:title></dc:title>
      </cc:Work>
    </rdf:RDF>
  </metadata>
  <g
     id="layer1">
    <g
       style="fill:#ff0000;fill-opacity:1;stroke:#c70e00;stroke-opacity:1;stroke-width:3.2;stroke-miterlimit:4;stroke-dasharray:none"
       id="g871">
      <g
         transform="matrix(1.2187177,0,0,1.2187177,-15.846125,-46.702352)"
         id="g882">
        <path
           id="path844"
           d="m 21.530709,89.31777 c -0.223305,-0.285406 -0.292566,-0.788627 -0.141776,-1.030081 0.106768,-0.17096 0.0881,-0.418409 -0.07193,-0.953452 -0.28729,-0.960515 -0.624245,-3.524512 -0.839263,-6.386219 -0.05169,-0.687896 -0.147057,-1.064723 -0.315127,-1.245124 -0.212006,-0.227563 -0.24353,-0.548944 -0.26195,-2.670514 -0.02101,-2.420003 -0.09051,-2.781929 -0.534228,-2.781929 -0.289496,0 -0.132599,-0.374587 0.190907,-0.455779 0.261003,-0.06551 0.334087,-0.16927 0.334087,-0.474324 0,-0.21476 -0.06014,-0.427636 -0.133635,-0.473062 -0.08166,-0.05047 -0.133635,-1.091383 -0.133635,-2.676517 0,-2.390455 -0.0221,-2.633266 -0.281681,-3.095435 l -0.281681,-0.501509 0.281681,-0.187029 c 0.154925,-0.102865 0.281681,-0.326485 0.281681,-0.49693 0,-0.170444 0.06014,-0.347067 0.133635,-0.392491 0.0735,-0.04543 0.133635,-0.25945 0.133635,-0.475609 0,-0.21616 0.06014,-0.393018 0.133634,-0.393018 0.0735,0 0.133635,-0.146788 0.133635,-0.326199 0,-0.179409 0.06014,-0.363366 0.133635,-0.408792 0.174406,-0.107789 0.174406,-1.536798 0,-1.536798 -0.17578,0 -0.17578,-1.962703 0,-2.071341 0.07745,-0.04787 0.133635,-0.778295 0.133635,-1.737251 0,-0.958956 0.05619,-1.689386 0.133634,-1.737252 0.0735,-0.04543 0.133635,-0.252105 0.133635,-0.459287 0,-0.207185 0.08225,-0.579483 0.182783,-0.827331 0.352974,-0.870225 0.521452,-4.146656 0.294601,-5.729206 -0.09248,-0.645173 -0.06145,-0.830723 0.253937,-1.518372 0.246393,-0.537218 0.347488,-0.957138 0.321722,-1.336347 -0.08127,-1.196131 0.27072,-2.018837 1.051336,-2.457265 0.163581,-0.09187 0.418507,-0.167042 0.566503,-0.167042 0.147996,0 0.269083,-0.06014 0.269083,-0.133636 0,-0.176527 2.363143,-0.176527 2.472243,0 0.04543,0.0735 0.496442,0.133636 1.002261,0.133636 0.505818,0 0.956835,0.06013 1.00226,0.133633 0.04543,0.0735 0.380916,0.133636 0.745533,0.133636 0.458364,0 0.816769,0.0949 1.161418,0.307517 0.274161,0.169135 1.460645,0.782907 2.636631,1.363938 1.84944,0.91377 2.285037,1.192543 3.225903,2.064501 1.371401,1.270958 1.462281,1.342165 1.712942,1.342165 0.113352,0 0.206562,0.0451 0.207137,0.100227 0.0013,0.110188 0.637328,0.432914 0.860816,0.436676 0.07722,0.0013 0.29074,0.179261 0.474488,0.395471 0.920409,1.083008 1.099389,1.245883 1.985796,1.807138 0.286821,0.18161 0.954169,0.874615 0.954169,0.990852 0,0.05168 -0.08829,0.210693 -0.196202,0.353364 -0.224234,0.296465 -0.270824,0.860758 -0.07107,0.860758 0.07804,0 0.133633,0.448326 0.133633,1.077706 0,1.033397 -0.01648,1.091576 -0.400904,1.415045 -0.236204,0.198752 -0.400902,0.466468 -0.400902,0.651661 0,0.172876 -0.06014,0.351485 -0.133636,0.396909 -0.0735,0.04543 -0.13503,0.394756 -0.136731,0.776288 -0.0029,0.638614 -0.05119,0.744098 -0.608709,1.328459 -0.333083,0.349123 -0.631679,0.634767 -0.663548,0.634767 -0.221843,0 -2.332786,2.04197 -2.332786,2.256565 0,0.186706 -1.154989,0.200557 -1.269529,0.01521 -0.14845,-0.240197 -0.685343,-0.140589 -1.081702,0.200684 -0.213555,0.183875 -0.598757,0.401614 -0.856003,0.483865 -0.257247,0.08225 -0.524849,0.202419 -0.594675,0.267038 -0.06982,0.06462 -0.295334,0.117491 -0.501129,0.117491 -0.205798,0 -0.374179,0.06014 -0.374179,0.133636 0,0.0735 -0.150339,0.133636 -0.334087,0.133636 -0.183748,0 -0.334087,0.06013 -0.334087,0.133633 0,0.0735 -0.09102,0.133635 -0.202266,0.133635 -0.111244,0 -0.32172,0.0746 -0.467719,0.16578 -0.211286,0.131951 -0.319628,0.131951 -0.530913,0 -0.319897,-0.199779 -0.756865,-0.215915 -0.87044,-0.03215 -0.04542,0.0735 -0.277489,0.133635 -0.515699,0.133635 -0.23821,0 -0.499737,0.06663 -0.581176,0.148069 -0.09294,0.09294 -0.388973,0.116483 -0.795127,0.06323 -1.677244,-0.219911 -1.994679,-0.227335 -2.731473,-0.06388 -0.871834,0.193416 -0.938108,0.313894 -0.574079,1.043609 0.134046,0.268703 0.284595,0.403445 0.400904,0.358812 0.104098,-0.03995 0.186251,0.01032 0.186251,0.113959 0,0.28462 0.44799,1.007099 0.625066,1.008049 0.25887,0.0013 0.734369,0.704255 0.652624,0.964684 -0.04124,0.131382 -0.108585,0.345863 -0.149661,0.476626 -0.08476,0.269817 0.339963,0.831326 0.628805,0.831326 0.103777,0 0.275372,0.120272 0.381322,0.267271 0.10595,0.146998 0.255188,0.267269 0.33164,0.267269 0.07645,0 0.364245,0.19544 0.639541,0.434314 0.390976,0.339246 0.500347,0.531302 0.49967,0.877411 -0.0011,0.55917 0.208656,0.959194 0.504962,0.963038 0.12604,0.0016 0.3795,0.120568 0.563248,0.264298 0.183748,0.14373 0.379735,0.262662 0.435528,0.264298 0.0558,0.0016 0.290222,0.183377 0.520951,0.403875 0.23073,0.220496 0.465209,0.400905 0.521063,0.400905 0.05586,0 0.71918,0.606494 1.474052,1.347766 0.754872,0.741273 1.586844,1.508001 1.848826,1.703843 0.698505,0.522158 0.981099,0.830699 1.279962,1.397489 0.146997,0.278781 0.552913,0.806384 0.902033,1.172454 0.349123,0.366067 0.634767,0.714533 0.634767,0.774369 0,0.207518 1.848213,2.023068 2.059461,2.023068 0.116779,0 0.212328,0.06014 0.212328,0.133635 0,0.0735 0.0945,0.133634 0.209998,0.133634 0.344024,0 0.555455,0.314052 0.612229,0.909375 l 0.05346,0.560607 H 40.1151 c -0.309976,0 -0.600758,0.06014 -0.646184,0.133636 -0.158483,0.256431 -0.537396,0.130858 -0.705657,-0.23386 -0.09325,-0.202123 -0.443103,-0.577972 -0.777447,-0.835218 -0.958892,-0.73778 -1.122775,-0.890244 -1.122775,-1.044543 0,-0.07951 -0.224078,-0.313002 -0.497951,-0.518864 -0.273873,-0.205865 -0.769993,-0.632775 -1.102487,-0.948693 -0.332494,-0.315915 -0.971219,-0.753763 -1.419389,-0.972994 -0.787712,-0.385326 -0.900888,-0.512186 -1.272162,-1.425983 -0.315862,-0.777417 -0.510587,-1.037246 -0.809984,-1.080794 -0.391967,-0.05701 -0.823217,-0.455104 -1.285166,-1.186357 -0.198779,-0.314661 -0.406517,-0.572217 -0.46164,-0.572349 -0.05513,-1.33e-4 -0.100227,-0.08435 -0.100227,-0.187153 0,-0.102804 -0.300678,-0.493991 -0.668173,-0.869302 -0.367496,-0.375311 -0.668175,-0.727763 -0.668175,-0.783222 0,-0.05546 -0.298625,-0.422273 -0.663611,-0.815134 -0.364987,-0.392861 -0.699785,-0.828267 -0.743997,-0.967565 -0.04421,-0.139301 -0.136468,-0.253273 -0.205015,-0.253273 -0.06855,0 -0.124629,-0.07886 -0.124629,-0.175252 0,-0.09639 -0.120271,-0.30435 -0.267269,-0.462134 -0.146999,-0.157784 -0.26727,-0.320577 -0.26727,-0.36176 0,-0.04119 -0.375848,-0.454538 -0.835217,-0.918567 -1.187197,-1.199234 -1.703843,-1.794669 -1.703843,-1.963679 0,-0.215932 -0.350037,-0.528553 -0.591811,-0.528553 -0.115499,0 -0.209998,-0.05573 -0.209998,-0.123849 0,-0.24443 -0.814058,-0.547174 -1.08353,-0.402955 -0.212546,0.11375 -0.252818,0.290656 -0.252818,1.110589 0,0.536408 -0.04121,1.0165 -0.09158,1.066871 -0.142835,0.142833 -0.438707,1.058307 -0.440943,1.364337 -0.0011,0.151514 0.11826,0.404575 0.265258,0.562359 0.295851,0.317558 0.368369,1.21258 0.118494,1.462455 -0.09527,0.09527 -0.114364,0.357214 -0.0531,0.728311 0.05262,0.318743 0.12251,1.571702 0.155305,2.784353 0.03279,1.212652 0.116824,2.262018 0.186732,2.331926 0.07324,0.07324 0.127106,1.469724 0.127106,3.294986 0,2.968093 0.01805,3.204493 0.286245,3.748455 0.52367,1.062133 0.553382,1.164381 0.476329,1.639203 -0.05673,0.34957 0.0077,0.630412 0.248598,1.083458 0.38695,0.727752 0.392895,0.839679 0.06545,1.232194 -0.283024,0.339261 -1.213501,0.4255 -1.44186,0.133633 z m 0.391284,-25.848487 c 0.189769,-0.171738 0.284229,-0.187333 0.404745,-0.06682 0.192033,0.192035 1.924972,0.212043 2.041454,0.02358 0.116011,-0.187712 1.754113,-0.1671 2.063251,0.02595 0.198084,0.123706 0.334326,0.123706 0.605831,0 0.192652,-0.08778 0.829348,-0.159596 1.414879,-0.159596 1.044293,0 1.377972,-0.0964 1.929605,-0.557485 0.17568,-0.146841 0.610727,-0.246714 1.269529,-0.291441 1.110802,-0.07541 2.340284,-0.257713 3.110796,-0.461243 0.513744,-0.135708 0.794485,-0.308618 1.181192,-0.727507 0.11887,-0.128764 0.314309,-0.234116 0.434311,-0.234116 0.120002,0 0.218186,-0.04898 0.218186,-0.108842 0,-0.15354 1.043946,-0.692967 1.341088,-0.692967 0.135718,0 0.283922,-0.06013 0.329349,-0.133633 0.04542,-0.0735 0.203305,-0.133636 0.350848,-0.133636 0.211841,0 0.259368,-0.07461 0.225975,-0.354769 -0.03445,-0.28901 0.152411,-0.553144 1.00806,-1.424935 1.00195,-1.020855 1.046567,-1.09225 0.968359,-1.549524 -0.04509,-0.26365 -0.115028,-0.689838 -0.155414,-0.947084 -0.07622,-0.485527 -0.911458,-2.284942 -1.261935,-2.718687 -0.690798,-0.854927 -0.918753,-1.023085 -1.386883,-1.023085 -0.37394,0 -0.529362,-0.07954 -0.714785,-0.365781 -0.346826,-0.535419 -1.12242,-1.285296 -1.506471,-1.456516 -0.829733,-0.369925 -1.116417,-0.449495 -1.619448,-0.449495 -0.473853,0 -0.91961,-0.224798 -0.91961,-0.463765 0,-0.04507 -0.114538,-0.20489 -0.254529,-0.355153 -0.205862,-0.220964 -0.306385,-0.245449 -0.525754,-0.128045 -0.47912,0.256418 -0.888841,0.169322 -1.20311,-0.255749 -0.197284,-0.266843 -0.412711,-0.400905 -0.644221,-0.400905 -0.191302,0 -0.445077,-0.10855 -0.563946,-0.241226 -0.11887,-0.132675 -0.405252,-0.317762 -0.636403,-0.411302 -0.231153,-0.09354 -0.531831,-0.271114 -0.668176,-0.394603 -0.402681,-0.36472 -0.958423,-0.69012 -1.178638,-0.69012 -0.112835,0 -0.205154,-0.06013 -0.205154,-0.133633 0,-0.0735 -0.116722,-0.133636 -0.259383,-0.133636 -0.14266,0 -0.296548,-0.06014 -0.341973,-0.133636 -0.04543,-0.0735 -0.229381,-0.133633 -0.408791,-0.133633 -0.179411,0 -0.326201,-0.06014 -0.326201,-0.133636 0,-0.0735 -0.14679,-0.133636 -0.3262,-0.133636 -0.17941,0 -0.363366,-0.06014 -0.408791,-0.133633 -0.04543,-0.0735 -0.225832,-0.133635 -0.400904,-0.133635 -0.175072,0 -0.355479,0.06014 -0.400904,0.133635 -0.04543,0.0735 -0.216016,0.133633 -0.379092,0.133633 -0.433877,0 -0.72037,0.417174 -0.792929,1.154613 -0.03515,0.357201 -0.165256,1.010272 -0.289133,1.451266 -0.395395,1.407583 -0.442086,1.926058 -0.54029,5.99961 -0.08604,3.56892 -0.123414,4.043339 -0.350373,4.447418 -0.355469,0.632884 -0.348128,0.75297 0.143602,2.349024 0.179075,0.581242 0.07862,1.035148 -0.229103,1.035148 -0.41085,0 -0.703099,0.415949 -0.703099,1.000699 0,0.771308 0.136617,0.896215 0.560583,0.51253 z"
           style="opacity:1;fill:#ff0000;fill-opacity:1;fill-rule:nonzero;stroke:#c70e00;stroke-width:3.20000005;stroke-linejoin:round;stroke-miterlimit:4;stroke-dasharray:none;stroke-dashoffset:0;stroke-opacity:1" />
        <path
           id="path846"
           d="m 48.240363,68.102039 c -0.173647,-0.219829 -0.441249,-0.39969 -0.594675,-0.39969 -0.216964,0 -0.243316,-0.03564 -0.118592,-0.160364 0.187047,-0.187047 0.211831,-0.665498 0.04395,-0.848579 -0.214405,-0.233823 -0.277366,-1.46984 -0.09298,-1.82525 0.207566,-0.400084 0.05069,-0.773946 -0.324749,-0.773946 -0.233868,0 -0.258173,-0.142875 -0.312592,-1.837478 -0.03245,-1.010613 -0.126418,-2.198293 -0.208807,-2.639287 -0.08239,-0.440995 -0.187134,-1.132555 -0.232769,-1.536801 -0.04564,-0.404244 -0.19354,-0.892021 -0.328676,-1.083948 -0.193548,-0.27488 -0.228645,-0.493008 -0.165336,-1.027559 0.06376,-0.538308 0.03282,-0.726157 -0.14963,-0.908606 -0.19957,-0.19957 -0.203713,-0.24471 -0.03132,-0.341188 0.132257,-0.07402 0.228653,-0.435433 0.288333,-1.081048 0.04931,-0.533421 0.143512,-1.150265 0.209343,-1.370761 0.06583,-0.220498 0.148339,-0.821854 0.183348,-1.33635 0.03501,-0.514492 0.06723,-0.971343 0.07159,-1.015222 0.0044,-0.04388 0.120224,-0.209251 0.257469,-0.367495 0.264266,-0.3047 0.615236,-0.376545 0.752726,-0.15408 0.04542,0.0735 0.199314,0.133633 0.341974,0.133633 0.379521,0 0.343718,0.870757 -0.07471,1.816888 -0.368821,0.833972 -0.413324,1.260269 -0.177443,1.69981 0.103609,0.193067 0.163042,1.242039 0.175544,3.098224 0.01265,1.877967 0.07135,2.902889 0.177442,3.098223 0.0872,0.160541 0.158544,0.502772 0.158544,0.760513 0,0.257741 0.06014,0.505785 0.133636,0.551209 0.0735,0.04543 0.133633,0.27749 0.133633,0.515699 0,0.23821 0.07095,0.504055 0.157662,0.59077 0.121124,0.121126 0.118071,0.231637 -0.01318,0.476885 -0.222501,0.415745 -0.144322,0.792001 0.195707,0.941893 0.251151,0.110715 0.267698,0.213809 0.217715,1.356608 -0.05168,1.1816 -0.03999,1.246026 0.261951,1.443834 0.306242,0.200623 0.362312,0.609434 0.260432,1.898801 -0.01646,0.208156 -0.529855,0.726977 -0.717995,0.725567 -0.08901,-7.94e-4 -0.303913,-0.181076 -0.477559,-0.400905 z"
           style="opacity:1;fill:#ff0000;fill-opacity:1;fill-rule:nonzero;stroke:#c70e00;stroke-width:3.20000005;stroke-linejoin:round;stroke-miterlimit:4;stroke-dasharray:none;stroke-dashoffset:0;stroke-opacity:1" />
        <path
           id="path848"
           d="m 62.153421,54.424409 c -0.165372,-0.0819 -0.300677,-0.194791 -0.300677,-0.250862 0,-0.05607 -0.116724,-0.101944 -0.259385,-0.101944 -0.14266,0 -0.296547,-0.06014 -0.341974,-0.133635 -0.09559,-0.154671 -0.600355,-0.182618 -0.6034,-0.03341 -0.0011,0.05512 -0.05396,0.182155 -0.117399,0.282292 -0.08994,0.141954 -0.223723,0.07985 -0.607248,-0.281903 -0.496533,-0.468345 -1.220845,-0.76879 -1.853395,-0.76879 -0.189257,0 -0.38127,-0.06013 -0.426696,-0.133633 -0.04542,-0.0735 -0.578205,-0.133635 -1.183958,-0.133635 -1.01569,0 -1.819256,-0.191569 -1.82178,-0.434314 -5.3e-4,-0.05512 -0.177901,-0.100227 -0.39406,-0.100227 -0.216162,0 -0.430184,-0.06013 -0.47561,-0.133633 -0.04542,-0.0735 -0.285967,-0.133636 -0.534538,-0.133636 -0.248573,0 -0.489114,-0.06013 -0.53454,-0.133633 -0.04542,-0.0735 -0.285967,-0.133635 -0.534538,-0.133635 -0.248573,0 -0.489114,-0.06014 -0.53454,-0.133636 -0.04542,-0.0735 -0.372356,-0.133633 -0.726514,-0.133633 -0.40935,0 -0.704527,-0.07302 -0.810287,-0.200454 -0.114937,-0.138493 -0.119996,-0.200451 -0.01635,-0.200451 0.0825,0 0.149998,-0.0945 0.149998,-0.209997 0,-0.115499 0.09468,-0.304676 0.210394,-0.420391 0.191434,-0.191434 0.258802,-0.184552 0.74762,0.07636 0.40931,0.21848 0.770985,0.286756 1.51897,0.286756 0.539962,0 1.018913,0.06014 1.064337,0.133635 0.04543,0.0735 0.621077,0.133636 1.279231,0.133636 1.147786,0 1.52555,0.09642 1.966664,0.502005 0.37402,0.343889 0.695978,0.43027 1.555594,0.417375 0.54134,-0.0081 0.962218,0.05324 1.089456,0.158839 0.126926,0.105339 0.657354,0.18315 1.367692,0.200634 1.135449,0.02795 1.457354,0.08383 1.926939,0.334518 0.127627,0.06814 0.409723,0.123881 0.626877,0.123881 0.21716,0 0.431999,0.06013 0.477422,0.133635 0.04543,0.0735 0.217356,0.133633 0.382067,0.133633 0.444561,0 0.620196,0.253559 0.620196,0.895353 v 0.57463 l -1.30294,-0.0164 c -0.716616,-0.009 -1.438244,-0.08342 -1.603616,-0.165325 z"
           style="opacity:1;fill:#ff0000;fill-opacity:1;fill-rule:nonzero;stroke:#c70e00;stroke-width:3.20000005;stroke-linejoin:round;stroke-miterlimit:4;stroke-dasharray:none;stroke-dashoffset:0;stroke-opacity:1" />
        <path
           id="path850"
           d="m 62.18683,72.739201 c -0.147,-0.08755 -0.304789,-0.210601 -0.350647,-0.273444 -0.04586,-0.06284 -0.406672,-0.07784 -0.801809,-0.03333 -2.264968,0.255156 -2.582682,0.251095 -3.100332,-0.03965 -0.379172,-0.212966 -0.731914,-0.280483 -1.465426,-0.280483 -0.821325,0 -0.991058,-0.04004 -1.132965,-0.267268 -0.106484,-0.170511 -0.311639,-0.267269 -0.566684,-0.267269 -0.219874,0 -0.399772,-0.06014 -0.399772,-0.133636 0,-0.0735 -0.09102,-0.133636 -0.202264,-0.133636 -0.111247,0 -0.321723,-0.06013 -0.467722,-0.133633 l -0.530913,-0.267269 c -0.146,-0.0735 -0.503267,-0.133635 -0.793922,-0.133635 -0.290656,0 -0.560827,-0.05236 -0.600382,-0.116364 -0.03956,-0.064 -0.375947,-0.145579 -0.747538,-0.181285 -0.79143,-0.07605 -1.056682,-0.339749 -1.062956,-1.056738 -0.0033,-0.371565 0.07318,-0.536498 0.325136,-0.701582 0.645062,-0.422661 1.181608,-0.264438 2.100416,0.619395 0.380992,0.36649 0.636199,0.501213 0.949876,0.501443 0.282913,2.02e-4 0.588123,0.136565 0.896635,0.40059 0.434708,0.372026 0.934075,0.532358 0.936485,0.300681 0.0034,-0.328761 1.619147,-0.598205 1.803027,-0.300681 0.04543,0.0735 0.199313,0.133636 0.341974,0.133636 0.142661,0 0.259384,0.06014 0.259384,0.133636 0,0.0735 0.146789,0.133633 0.3262,0.133633 0.179409,0 0.363365,0.06014 0.408789,0.133636 0.04543,0.0735 0.225833,0.133635 0.400905,0.133635 0.175072,0 0.355481,0.06014 0.400904,0.133633 0.04543,0.0735 0.212336,0.133636 0.370914,0.133636 0.158578,0 0.552228,0.100785 0.874776,0.223967 0.50595,0.193223 0.680829,0.201036 1.273998,0.05692 0.378151,-0.09188 1.069377,-0.194493 1.536057,-0.228034 0.469718,-0.03376 1.081209,-0.179694 1.369759,-0.326901 0.286684,-0.146253 0.521245,-0.218821 0.521245,-0.161255 0,0.05756 0.134953,0.164023 0.299897,0.236577 0.494072,0.217323 0.454163,0.577387 -0.08916,0.804402 -0.418663,0.174929 -0.478007,0.257567 -0.478007,0.665652 0,0.32507 -0.0606,0.465929 -0.200451,0.465929 -0.110249,0 -0.200451,-0.06013 -0.200451,-0.133636 0,-0.0735 -0.176858,-0.133633 -0.393017,-0.133633 -0.216162,0 -0.430186,0.06013 -0.47561,0.133633 -0.112636,0.18225 -1.007462,0.154617 -1.336347,-0.04127 z"
           style="opacity:1;fill:#ff0000;fill-opacity:1;fill-rule:nonzero;stroke:#c70e00;stroke-width:3.20000005;stroke-linejoin:round;stroke-miterlimit:4;stroke-dasharray:none;stroke-dashoffset:0;stroke-opacity:1" />
        <path
           id="path852"
           d="m 49.895323,85.079545 c -0.04384,-0.07093 -0.753073,-0.128342 -1.576083,-0.127593 -0.923136,7.94e-4 -1.514218,-0.05215 -1.542939,-0.138314 -0.02561,-0.07682 -0.130606,-0.139676 -0.233328,-0.139676 -0.278122,0 -0.359934,-0.532656 -0.185401,-1.207079 0.08497,-0.328345 0.204554,-0.957802 0.265742,-1.398799 0.06119,-0.440995 0.183893,-1.102485 0.272677,-1.46998 0.175776,-0.727583 0.205539,-2.47785 0.05717,-3.362029 -0.08409,-0.501153 -0.05263,-0.598202 0.320524,-0.988674 0.30802,-0.322315 0.413771,-0.557691 0.413771,-0.920964 0,-0.268396 -0.05933,-0.547328 -0.131852,-0.619845 -0.190283,-0.190283 -0.207306,-2.976766 -0.01934,-3.164737 0.08315,-0.08315 0.151188,-0.319569 0.151188,-0.525364 0,-0.287859 0.06306,-0.374179 0.273344,-0.374179 0.321797,0 0.92937,0.565076 0.92937,0.864364 0,0.114589 0.07309,0.325377 0.162422,0.468424 0.127477,0.204121 0.127477,0.35673 0,0.709255 -0.08933,0.247047 -0.162422,0.696934 -0.162422,0.99975 0,0.302815 -0.06014,0.58774 -0.133636,0.633163 -0.1872,0.115697 -0.167269,1.182442 0.02569,1.37541 0.282848,0.282848 0.193498,1.403136 -0.150431,1.886141 -0.264761,0.371824 -0.286129,0.479187 -0.147077,0.73901 0.15803,0.295281 0.148691,0.667094 -0.0707,2.814812 -0.04505,0.440995 -0.13675,0.858938 -0.203783,0.928762 -0.174423,0.181687 -0.15046,0.793271 0.03848,0.982215 0.197228,0.197229 2.459289,0.220671 2.57915,0.02673 0.04543,-0.0735 0.19244,-0.133635 0.3267,-0.133635 0.134258,0 0.415758,-0.08905 0.625552,-0.197895 0.359359,-0.186439 0.399243,-0.178703 0.688856,0.133633 l 0.307414,0.331531 h 4.690485 c 4.310409,0 4.704869,0.01894 4.868011,0.233862 0.277103,0.36504 0.221472,0.89122 -0.124616,1.178613 -0.699617,0.580969 -0.815745,0.597379 -1.263835,0.178602 -0.411242,-0.384337 -0.830951,-0.512998 -0.830951,-0.254728 0,0.0735 -0.27061,0.133633 -0.601355,0.133633 -0.330745,0 -0.601356,0.06014 -0.601356,0.133636 0,0.07965 -0.509638,0.133633 -1.261644,0.133633 -0.696945,0 -1.29861,-0.05981 -1.344235,-0.133633 -0.04542,-0.0735 -0.436305,-0.133636 -0.868627,-0.133636 -0.432318,0 -0.8232,-0.06013 -0.868624,-0.133633 -0.04543,-0.0735 -0.409789,-0.133636 -0.809696,-0.133636 -0.399908,0 -0.727105,0.06014 -0.727105,0.133636 0,0.0735 -0.08088,0.133633 -0.179739,0.133633 -0.09886,0 -0.28987,0.121693 -0.424474,0.270428 -0.166923,0.184446 -0.288226,0.226933 -0.381526,0.133636 -0.176088,-0.176091 -1.378048,-0.178644 -1.486503,-0.0031 -0.105463,0.170646 -0.560732,0.173847 -0.665282,0.0047 z"
           style="opacity:1;fill:#ff0000;fill-opacity:1;fill-rule:nonzero;stroke:#c70e00;stroke-width:3.20000005;stroke-linejoin:round;stroke-miterlimit:4;stroke-dasharray:none;stroke-dashoffset:0;stroke-opacity:1" />
        <path
           id="path854"
           d="m 78.156182,84.05336 c -0.330745,-0.113818 -0.658484,-0.261287 -0.728308,-0.327708 -0.06982,-0.06642 -0.321852,-0.120769 -0.560062,-0.120769 -0.238209,0 -0.470273,-0.06013 -0.515699,-0.133633 -0.04542,-0.0735 -0.316034,-0.133636 -0.601356,-0.133636 -0.285321,0 -0.555931,-0.06013 -0.601355,-0.133633 -0.04543,-0.0735 -0.173445,-0.133635 -0.284488,-0.133635 -0.256966,0 -1.344009,-0.739283 -1.807059,-1.228953 -0.194861,-0.206065 -0.42835,-0.374666 -0.518864,-0.374666 -0.204478,0 -0.652963,-0.500618 -0.808093,-0.902033 -0.09014,-0.23323 -0.222218,-0.300678 -0.588812,-0.300678 H 70.66948 l 0.08376,-0.523811 c 0.07047,-0.440714 0.03892,-0.551815 -0.198872,-0.700321 -0.192114,-0.119975 -0.282636,-0.313486 -0.282636,-0.604197 0,-0.235228 -0.06013,-0.464854 -0.133633,-0.510281 -0.0735,-0.04542 -0.133635,-0.199313 -0.133635,-0.341974 0,-0.14266 -0.0451,-0.25985 -0.100227,-0.260424 -0.190611,-0.0019 -0.434311,-0.722574 -0.434311,-1.2842 0,-0.769019 -0.106283,-0.986549 -0.482021,-0.986549 -0.337849,0 -0.421449,-0.24579 -0.169346,-0.497893 0.100613,-0.100613 0.142965,-0.836012 0.127865,-2.220248 -0.01437,-1.316993 0.02813,-2.101139 0.116827,-2.15596 0.07667,-0.04739 0.139403,-0.259467 0.139403,-0.471289 0,-0.21182 0.06014,-0.422296 0.133636,-0.46772 0.0735,-0.04543 0.133636,-0.406958 0.133636,-0.803407 0,-0.396452 0.06762,-0.889022 0.150273,-1.094603 0.08265,-0.205578 0.209939,-0.524121 0.28286,-0.707869 0.07292,-0.183748 0.185706,-0.43851 0.250632,-0.566134 0.06492,-0.127627 0.118041,-0.355674 0.118041,-0.506772 0,-0.151096 0.05971,-0.347353 0.132689,-0.436126 0.766718,-0.932656 1.070025,-1.34185 1.070025,-1.443577 0,-0.06655 0.08512,-0.120992 0.189156,-0.120992 0.104037,0 0.374634,-0.19544 0.601327,-0.434311 0.808968,-0.852432 1.347673,-1.490469 1.347673,-1.59617 0,-0.05905 0.242801,-0.357558 0.539557,-0.663345 0.296757,-0.305787 0.641223,-0.728083 0.765482,-0.938435 0.345818,-0.585425 1.233014,-0.953045 2.257878,-0.935582 0.989266,0.01685 1.172913,-0.166603 0.806267,-0.805445 -0.206052,-0.359026 -0.205378,-0.388535 0.01048,-0.457332 0.302499,-0.09641 0.840026,-0.317804 1.130962,-0.465804 0.127627,-0.06492 0.323067,-0.118044 0.434313,-0.118044 0.111247,0 0.202266,-0.06014 0.202266,-0.133633 0,-0.0735 0.07891,-0.133636 0.175353,-0.133636 0.09644,0 0.424283,-0.120272 0.728536,-0.267269 0.304249,-0.147 0.619947,-0.267269 0.701548,-0.267269 0.217656,0 1.661001,-0.694676 1.713161,-0.824536 0.0245,-0.061 0.246459,-0.110909 0.493244,-0.110909 0.246782,0 0.485862,-0.06013 0.531289,-0.133635 0.04542,-0.0735 0.307556,-0.133633 0.582517,-0.133633 0.274957,0 0.573587,-0.07367 0.66362,-0.163698 0.129175,-0.129172 0.218979,-0.129172 0.425818,0 0.144168,0.09003 0.359156,0.163698 0.47775,0.163698 0.118597,0 0.420089,0.204462 0.669988,0.454358 l 0.454359,0.454358 v 1.416529 c 0,0.77909 -0.0451,1.416997 -0.100227,1.417569 -0.168762,0.0019 -0.434486,0.696706 -0.431343,1.128088 0.0016,0.224218 0.120568,0.558009 0.264298,0.741757 0.214847,0.274666 0.261856,0.549195 0.264298,1.543481 0.0016,0.672944 0.06609,1.272511 0.145261,1.351682 0.0898,0.0898 0.138634,0.94221 0.132384,2.310702 -0.0093,2.032428 0.0062,2.172634 0.247381,2.235697 0.236884,0.06195 0.256479,0.19608 0.247147,1.691658 -0.01249,2.002071 0.130984,2.524334 1.322112,4.812507 0.120253,0.231005 0.27019,0.52443 0.333195,0.652057 0.06301,0.127627 0.114554,0.492136 0.114554,0.81002 0,0.360076 0.08817,0.678201 0.23386,0.843835 0.714476,0.812247 0.930056,2.189959 0.342681,2.189959 -0.28856,0 -0.922325,0.74608 -1.279348,1.506075 -0.22425,0.477361 -0.392443,0.657889 -0.669732,0.718841 -0.20365,0.04477 -0.40264,0.133762 -0.442198,0.19777 -0.03956,0.06401 -0.245232,0.116375 -0.457055,0.116375 -0.211822,0 -0.422296,0.06013 -0.467722,0.133633 -0.04542,0.0735 -0.27749,0.133636 -0.515699,0.133636 -0.23821,0 -0.50236,0.06925 -0.587,0.153892 -0.09044,0.09045 -0.538165,0.146796 -1.085953,0.136681 -0.912069,-0.01685 -0.935836,-0.0087 -1.108167,0.380645 -0.132575,0.299503 -0.265206,0.39786 -0.536507,0.39786 -0.198218,0 -0.39756,-0.06014 -0.442986,-0.133636 -0.10142,-0.1641 -0.959014,-0.178083 -1.05841,-0.01725 -0.03956,0.064 -0.23911,0.14981 -0.44345,0.19068 -0.20434,0.04087 -0.55137,0.229124 -0.771181,0.418346 -0.872919,0.751454 -1.453944,0.874874 -2.470994,0.524883 z m 0.323078,-1.778976 c 0.666377,-0.12658 0.888283,-0.11516 1.410377,0.07258 0.576834,0.207425 0.64674,0.207539 1.013272,0.0016 0.804924,-0.452165 1.331063,-0.781161 1.395953,-0.872884 0.109955,-0.155427 1.63695,-0.944427 1.827799,-0.944427 0.0972,0 0.176721,-0.06014 0.176721,-0.133636 0,-0.0735 0.143465,-0.133633 0.318812,-0.133633 0.467998,0 1.552075,-0.614696 1.552075,-0.88006 0,-0.08118 0.117634,-0.254053 0.261408,-0.384167 0.240655,-0.217789 0.278546,-0.219435 0.477266,-0.02072 0.281681,0.281681 0.48845,0.272296 1.20636,-0.05475 0.43534,-0.198321 0.594027,-0.347504 0.594027,-0.558461 0,-0.158317 0.07143,-0.485381 0.158729,-0.726806 0.136993,-0.378848 0.125007,-0.47622 -0.08753,-0.71107 -0.135443,-0.149661 -0.350776,-0.272113 -0.478517,-0.272113 -0.280459,0 -0.39347,-0.259533 -0.397553,-0.912966 -0.0016,-0.269608 -0.188994,-1.211826 -0.416247,-2.093817 -0.227251,-0.881989 -0.442929,-1.799059 -0.47928,-2.03793 -0.03635,-0.238871 -0.119652,-0.434313 -0.18511,-0.434313 -0.06546,0 -0.119013,-0.180406 -0.119013,-0.400905 0,-0.220496 -0.06014,-0.400904 -0.133635,-0.400904 -0.0735,0 -0.133636,-0.108244 -0.133636,-0.240541 0,-0.1323 -0.05604,-0.297672 -0.124534,-0.367496 -0.06849,-0.06983 -0.155075,-0.698243 -0.192402,-1.396484 -0.160063,-2.994178 -0.245939,-3.666977 -0.517076,-4.051046 l -0.265504,-0.376092 0.299371,-0.318667 c 0.231312,-0.246221 0.277656,-0.403767 0.203846,-0.692988 -0.19304,-0.756399 -0.23303,-1.536147 -0.08631,-1.682869 0.177356,-0.177356 0.198766,-1.457809 0.02739,-1.638097 -0.06637,-0.06982 -0.157771,-0.42763 -0.20311,-0.795125 -0.206602,-1.674718 -0.242967,-1.824525 -0.458835,-1.890295 -0.120801,-0.03681 -0.324059,-0.122666 -0.451683,-0.190801 -0.362506,-0.193525 -0.604761,-0.147672 -0.816433,0.154535 -0.107257,0.153127 -0.45616,0.36839 -0.775348,0.478356 -0.319186,0.109969 -0.925722,0.4357 -1.347857,0.723847 -0.422134,0.288147 -0.884922,0.523904 -1.028414,0.523904 -0.143491,0 -0.298058,0.06014 -0.343485,0.133636 -0.04542,0.0735 -0.207293,0.133633 -0.359706,0.133633 -0.152416,0 -0.374375,0.105648 -0.493244,0.234775 -0.330388,0.358892 -0.823055,0.556953 -1.485657,0.597265 -0.546026,0.03322 -0.605247,0.0704 -0.643641,0.404083 -0.02389,0.207692 -0.124449,0.367495 -0.231235,0.367495 -0.103921,0 -0.632709,0.451017 -1.175084,1.00226 -0.933455,0.948722 -1.01783,1.002261 -1.579514,1.002261 -0.705964,0 -0.914109,0.171648 -0.914109,0.753832 0,0.23821 -0.06014,0.470273 -0.133633,0.515699 -0.0735,0.04542 -0.133636,0.208923 -0.133636,0.363329 0,0.154405 -0.276831,0.842285 -0.61518,1.528622 -0.504452,1.023271 -0.613664,1.374791 -0.606759,1.952937 0.0078,0.656122 -0.01902,0.717198 -0.38708,0.880115 -0.233428,0.103328 -0.395502,0.27677 -0.395502,0.423249 0,0.136501 -0.06014,0.285348 -0.133635,0.330774 -0.180338,0.111453 -0.170953,1.846932 0.01098,2.028854 0.14919,0.149191 -0.09604,0.710658 -0.310388,0.710658 -0.05582,0 -0.101489,0.689729 -0.101489,1.532734 0,1.285031 0.04319,1.60964 0.267272,2.008587 0.178572,0.317936 0.267268,0.723558 0.267268,1.222282 0,0.639085 0.06552,0.835488 0.455576,1.365692 0.250566,0.340593 0.612931,0.766506 0.805257,0.946475 0.409432,0.38312 0.743688,1.005372 0.743688,1.384443 0,0.320593 0.887719,1.196525 1.513644,1.493544 1.213096,0.575654 2.098884,0.656344 3.753919,0.341966 z"
           style="opacity:1;fill:#ff0000;fill-opacity:1;fill-rule:nonzero;stroke:#c70e00;stroke-width:3.20000005;stroke-linejoin:round;stroke-miterlimit:4;stroke-dasharray:none;stroke-dashoffset:0;stroke-opacity:1" />
        <path
           id="path856"
           d="m 98.769345,85.514904 c -0.255275,-0.549675 -0.203814,-0.759421 0.233862,-0.953156 0.425509,-0.188347 0.540761,-0.629918 0.242311,-0.928368 -0.122364,-0.122364 -0.09184,-0.229645 0.133636,-0.469651 0.160724,-0.171085 0.292227,-0.380526 0.292227,-0.465426 0,-0.181856 0.266872,-0.667605 1.115249,-2.029928 0.59762,-0.959647 0.622,-1.038495 0.622,-2.011201 0,-0.556821 0.0479,-1.069528 0.10636,-1.139352 0.33273,-0.397176 0.47991,-1.287057 0.45637,-2.759339 -0.0146,-0.913897 0.0298,-1.597208 0.10704,-1.644915 0.0726,-0.04488 0.13204,-0.28498 0.13204,-0.533551 0,-0.24857 0.0669,-0.49332 0.14876,-0.543882 0.14289,-0.08832 0.12533,-0.457809 -0.0962,-2.02347 -0.10553,-0.745763 -0.34292,-0.940652 -0.8929,-0.733057 -0.27636,0.104314 -0.46294,0.112874 -0.55056,0.02527 -0.0729,-0.07289 -0.41763,-0.132532 -0.76609,-0.132532 -0.348454,0 -0.670722,-0.06014 -0.716146,-0.133633 -0.04543,-0.0735 -0.394755,-0.134975 -0.776287,-0.136607 -0.482016,-0.0021 -0.795642,-0.08272 -1.027782,-0.264298 -0.183748,-0.143729 -0.409258,-0.262665 -0.501132,-0.264297 -0.09187,-0.0016 -0.167513,-0.04807 -0.168087,-0.103198 -0.0016,-0.164828 -0.691951,-0.434314 -1.112411,-0.434314 -0.402376,0 -0.814462,-0.34993 -0.962922,-0.817682 -0.04388,-0.138268 -0.131821,-0.251396 -0.195413,-0.251396 -0.06359,0 -0.155052,-0.124222 -0.20324,-0.27605 -0.137872,-0.434396 -0.867521,-1.193933 -1.146953,-1.193933 -0.164335,0 -0.253426,-0.09396 -0.253426,-0.267269 0,-0.146999 -0.06013,-0.267268 -0.133633,-0.267268 -0.0735,0 -0.133636,-0.120272 -0.133636,-0.267272 0,-0.146997 -0.06527,-0.267269 -0.145036,-0.267269 -0.09692,0 -0.119865,-0.277114 -0.06916,-0.835218 0.04173,-0.459369 0.112064,-1.226098 0.156297,-1.703842 0.04423,-0.477745 0.13549,-0.925754 0.202795,-0.99558 0.06731,-0.06982 0.122375,-0.300961 0.122375,-0.513641 0,-0.274301 -0.07768,-0.407 -0.267269,-0.456581 -0.277992,-0.0727 -0.366413,-0.49621 -0.133635,-0.640077 0.0735,-0.04542 0.133635,-0.316034 0.133635,-0.601356 0,-0.285321 0.06014,-0.555932 0.133636,-0.601355 0.0735,-0.04543 0.133633,-0.275244 0.133633,-0.51071 0,-0.312258 0.09869,-0.499988 0.364667,-0.693695 0.426316,-0.310475 1.42547,-1.188048 1.905813,-1.673907 0.18447,-0.186587 0.545875,-0.486273 0.803121,-0.665964 0.257247,-0.179692 0.659752,-0.517734 0.894459,-0.751205 0.234703,-0.233471 0.610552,-0.533075 0.835218,-0.665787 0.224663,-0.132713 0.408479,-0.288468 0.408479,-0.346118 0,-0.05765 0.08226,-0.104822 0.182801,-0.104822 0.100539,0 0.593794,-0.210476 1.096124,-0.467723 0.50233,-0.257246 0.991355,-0.467722 1.086725,-0.467722 0.0954,0 0.17341,-0.05331 0.17341,-0.118467 0,-0.209169 0.85852,-0.266777 0.97549,-0.06546 0.0599,0.103042 0.32432,0.184825 0.60136,0.185971 0.57771,0.0024 0.69764,0.07308 0.9477,0.558617 0.16225,0.315055 0.1567,0.420928 -0.0443,0.844571 -0.26553,0.559554 -0.19883,0.866556 0.18828,0.866556 0.20047,0 0.27146,0.08737 0.27146,0.334086 0,0.183748 -0.0601,0.334087 -0.13363,0.334087 -0.28619,0 -0.12499,0.652182 0.22404,0.906431 0.30512,0.222266 0.36639,0.380987 0.41696,1.080225 0.0399,0.551278 0.0103,0.819674 -0.0904,0.819674 -0.27158,0 -0.15585,0.374134 0.19473,0.629515 0.33884,0.246824 0.3457,0.285538 0.42213,2.383163 0.0627,1.722257 0.125,2.216554 0.32374,2.570638 0.13533,0.241107 0.24605,0.677908 0.24605,0.970667 0,0.292758 0.0534,0.636709 0.11868,0.764333 0.68111,1.33173 0.81676,1.634075 0.81676,1.820342 0,0.118676 0.0601,0.215775 0.13364,0.215775 0.0735,0 0.13363,0.29713 0.13363,0.660286 0,0.36316 -0.0601,0.697455 -0.13363,0.742879 -0.0751,0.04643 -0.13364,0.686464 -0.13364,1.461757 v 1.379164 l 0.53454,0.550804 c 0.43998,0.453367 0.53454,0.643949 0.53454,1.077307 0,0.289576 0.0601,0.563666 0.13364,0.609089 0.0759,0.04693 0.13363,0.714711 0.13363,1.5465 0,0.805151 0.0531,1.568331 0.11805,1.695958 0.0649,0.127625 0.1792,0.382387 0.25395,0.566135 0.0747,0.183748 0.26217,0.619074 0.41649,0.967393 0.18803,0.424389 0.28059,0.910204 0.28059,1.472668 0,0.461651 0.12027,1.273376 0.26727,1.803837 0.147,0.53046 0.26727,1.194284 0.26727,1.475163 0,0.280879 0.0883,0.62742 0.1962,0.770091 0.2209,0.292052 0.27709,1.395299 0.0711,1.395299 -0.0735,0 -0.13364,0.08088 -0.13364,0.179739 0,0.286113 -0.45675,0.622067 -0.84574,0.622067 -0.25466,0 -0.35697,-0.06894 -0.35697,-0.24054 0,-0.303041 -0.25208,-0.561266 -0.54792,-0.561266 -0.17069,0 -0.23103,-0.124622 -0.24265,-0.501132 -0.062,-2.008674 -0.10789,-2.315429 -0.39182,-2.61765 -0.30375,-0.323334 -0.37781,-0.622993 -0.15396,-0.622993 0.0735,0 0.13364,-0.146791 0.13364,-0.326199 0,-0.179412 -0.0601,-0.363366 -0.13364,-0.408792 -0.0735,-0.04542 -0.13363,-0.37972 -0.13363,-0.742879 0,-0.452683 -0.0546,-0.660286 -0.17373,-0.660286 -0.37608,0 -0.48964,-0.289832 -0.27568,-0.703591 0.20379,-0.394096 0.20124,-0.626435 -0.0269,-2.436825 -0.0463,-0.367496 -0.13849,-0.725302 -0.20486,-0.795129 -0.0664,-0.06982 -0.12068,-0.321347 -0.12068,-0.55894 0,-0.314624 -0.0726,-0.455036 -0.26727,-0.516818 -0.28871,-0.09163 -0.3477,-0.268605 -0.13363,-0.400905 0.2183,-0.134922 0.15251,-0.59227 -0.12863,-0.894032 -0.26058,-0.279707 -0.26058,-0.283845 0,-0.649806 0.14424,-0.202568 0.26203,-0.569498 0.26176,-0.815399 -5.3e-4,-0.516048 -0.43984,-1.31572 -0.72274,-1.31572 -0.21275,0 -0.61311,0.706369 -0.61311,1.081723 0,0.131368 -0.0544,0.272492 -0.12095,0.313605 -0.0665,0.04111 -0.11785,0.859716 -0.11407,1.819116 0.005,1.14191 -0.046,1.797281 -0.14632,1.897568 -0.0843,0.08426 -0.1532,0.256347 -0.1532,0.382413 0,0.126069 -0.1804,0.399492 -0.4009,0.607605 -0.38194,0.360492 -0.55096,0.980615 -0.26727,0.980615 0.0735,0 0.13363,0.26706 0.13363,0.593468 0,0.326409 -0.0601,0.630637 -0.13363,0.676061 -0.0735,0.04543 -0.13363,0.276124 -0.13363,0.512667 0,0.313859 -0.11217,0.528497 -0.41507,0.794287 -0.23984,0.210463 -0.38418,0.444669 -0.34192,0.554808 0.19056,0.496588 0.24513,1.238072 0.15886,2.158645 -0.0831,0.886971 -0.1327,1.02517 -0.41376,1.153231 -0.17563,0.08002 -0.35918,0.271675 -0.40788,0.425895 -0.0487,0.154218 -0.2002,0.358976 -0.33666,0.455017 -0.13645,0.09604 -0.24916,0.306517 -0.25046,0.467723 -0.002,0.219395 -0.16979,0.372276 -0.66817,0.607956 -0.366196,0.17317 -0.665813,0.368613 -0.665813,0.434311 0,0.0657 -0.135305,0.118989 -0.300678,0.118417 -0.195376,-7.93e-4 -0.359179,-0.12701 -0.467722,-0.36073 z M 99.09792,67.55418 c 0.08817,-0.08816 0.816039,-0.162615 1.79739,-0.183845 0.90707,-0.01963 1.73942,-0.0709 1.84967,-0.113954 0.11025,-0.04305 0.41093,-0.09562 0.66817,-0.116832 0.4617,-0.03806 0.46817,-0.04716 0.50254,-0.706731 0.0868,-1.665256 -0.1,-3.063708 -0.5128,-3.840186 -0.0679,-0.127627 -0.12337,-0.439791 -0.12337,-0.693695 0,-0.253908 -0.0601,-0.498814 -0.13364,-0.54424 -0.0735,-0.04542 -0.13363,-0.229381 -0.13363,-0.408792 0,-0.179409 -0.0541,-0.3262 -0.12018,-0.3262 -0.11569,0 -0.18766,-0.369017 -0.35186,-1.804069 -0.071,-0.620676 -0.18238,-0.985322 -0.479,-1.568395 -0.0649,-0.127627 -0.11804,-0.95578 -0.11804,-1.840343 0,-1.593586 -0.003,-1.609712 -0.34024,-1.763319 -0.28759,-0.131034 -0.53313,-0.08819 -1.58688,0.276882 -0.825451,0.285977 -1.363288,0.402627 -1.591875,0.345254 -0.241163,-0.06053 -0.463902,-0.0021 -0.738942,0.193707 -0.216545,0.154194 -0.459605,0.280353 -0.540133,0.280353 -0.08053,0 -0.146416,0.06014 -0.146416,0.133635 0,0.0735 -0.082,0.133636 -0.182229,0.133636 -0.364791,0 -0.918612,0.752875 -1.629915,2.215748 -0.399804,0.822238 -0.726916,1.545267 -0.726916,1.606735 0,0.29853 -0.629518,1.380405 -0.835216,1.435383 -0.324302,0.08667 -0.30422,0.763416 0.03341,1.125816 0.146999,0.157784 0.267271,0.439734 0.267271,0.626554 0,0.186822 0.06014,0.339675 0.133633,0.339675 0.0735,0 0.133636,0.0902 0.133636,0.200453 0,0.110247 0.0451,0.20092 0.100227,0.201494 0.178302,0.0019 0.434311,0.707326 0.434311,1.196805 0,0.426107 0.155003,0.634871 1.468538,1.97788 0.878718,0.898435 1.573297,1.501489 1.729367,1.501489 0.143454,0 0.297992,0.06014 0.343418,0.133636 0.110869,0.179387 0.645142,0.170032 0.829704,-0.01453 z"
           style="opacity:1;fill:#ff0000;fill-opacity:1;fill-rule:nonzero;stroke:#c70e00;stroke-width:3.20000005;stroke-linejoin:round;stroke-miterlimit:4;stroke-dasharray:none;stroke-dashoffset:0;stroke-opacity:1" />
        <path
           id="path858"
           d="m 128.2024,85.475771 c -0.0454,-0.0735 -0.31603,-0.133635 -0.60135,-0.133635 -0.28532,0 -0.55594,-0.06014 -0.60136,-0.133634 -0.0454,-0.0735 -0.40928,-0.133635 -0.80856,-0.133635 -0.59121,0 -0.75719,-0.0514 -0.89415,-0.276921 -0.18721,-0.308261 -0.91197,-0.658522 -1.36261,-0.658522 -0.17143,0 -0.62249,-0.308213 -1.08617,-0.742172 -0.43615,-0.408194 -1.09368,-0.97251 -1.46117,-1.254035 -0.3675,-0.281527 -0.8448,-0.699246 -1.06067,-0.928264 -0.21588,-0.229021 -0.44093,-0.416399 -0.50012,-0.416399 -0.23829,0 -0.77782,-0.600733 -0.77782,-0.866065 0,-0.174102 -0.4379,-0.737286 -1.13589,-1.460879 -0.62475,-0.647652 -1.14029,-1.27604 -1.14567,-1.396415 -0.0168,-0.377052 -0.4554,-0.997514 -0.86585,-1.224944 -0.21665,-0.120044 -0.41597,-0.333666 -0.44292,-0.474716 -0.0464,-0.242755 -0.50287,-0.980979 -0.69569,-1.125085 -0.0492,-0.03675 -0.1229,-0.277291 -0.16383,-0.534537 -0.16129,-1.013667 -0.32958,-1.578885 -0.6392,-2.146792 -0.17774,-0.325996 -0.36826,-0.612767 -0.42338,-0.637265 -0.0551,-0.0245 -0.10023,-0.24646 -0.10023,-0.493244 0,-0.246785 -0.0601,-0.485865 -0.13364,-0.531292 -0.18634,-0.115165 -0.17047,-1.502246 0.0179,-1.565036 0.0971,-0.03235 0.0668,-0.135195 -0.0841,-0.286092 -0.12957,-0.129569 -0.31803,-0.203941 -0.4188,-0.165272 -0.10078,0.03867 -0.18323,0.01908 -0.18323,-0.04354 0,-0.06262 0.11609,-0.144211 0.25797,-0.181314 0.24078,-0.06297 0.25816,-0.206173 0.26084,-2.149832 0.002,-1.177261 -0.0524,-2.116542 -0.12433,-2.160987 -0.07,-0.04324 -0.1272,-0.763077 -0.1272,-1.599641 0,-0.869868 -0.0572,-1.556383 -0.13364,-1.603616 -0.0735,-0.04543 -0.13364,-0.560128 -0.13364,-1.143783 0,-0.799844 0.0443,-1.061191 0.17975,-1.061191 0.0988,0 0.28987,-0.121693 0.42447,-0.270428 0.18762,-0.207314 0.20804,-0.307115 0.0875,-0.42763 -0.19464,-0.194641 -0.21617,-2.241907 -0.0236,-2.241907 0.0735,0 0.13363,-0.06443 0.13363,-0.14318 0,-0.228317 0.35903,-0.524994 0.63533,-0.524994 0.64705,0 1.05153,1.054076 0.68016,1.772473 -0.34777,0.672716 -0.37992,0.786371 -0.37707,1.332722 0.002,0.35877 0.0997,0.693478 0.26429,0.903848 0.3368,0.430573 0.33412,0.8083 -0.0101,1.421149 -0.22663,0.4035 -0.26616,0.654812 -0.21606,1.373822 0.0337,0.483992 0.10607,1.048822 0.16079,1.255178 0.0729,0.27495 0.0166,0.536422 -0.21089,0.978631 -0.2549,0.495615 -0.28183,0.64912 -0.15069,0.859115 0.0878,0.140621 0.15968,0.403283 0.15968,0.583689 0,0.180409 0.0601,0.365181 0.13363,0.410605 0.0735,0.04543 0.13364,0.247422 0.13364,0.448881 0,0.201462 0.054,0.423421 0.11995,0.493244 0.066,0.06982 0.15721,0.397563 0.20276,0.728311 0.23252,1.688327 0.34613,2.386629 0.46746,2.873147 0.0733,0.293997 0.17315,0.700257 0.22183,0.902804 0.0532,0.221067 0.0229,0.447381 -0.0757,0.566211 -0.23021,0.277378 -0.0602,0.82288 0.28449,0.913029 0.26213,0.06855 0.2809,0.137226 0.20732,0.758529 -0.0793,0.669501 -0.069,0.695409 0.51504,1.296334 0.32778,0.337251 0.59596,0.667131 0.59596,0.733065 0,0.06593 0.0622,0.192513 0.13825,0.281286 0.076,0.08877 0.52435,0.702622 0.99626,1.364115 1.67092,2.342169 2.4515,3.14021 3.07207,3.1408 0.29812,2.65e-4 0.47293,0.103542 0.66785,0.39447 0.14522,0.216749 0.41583,0.471741 0.60136,0.566653 0.18553,0.09491 0.42752,0.26603 0.53777,0.380267 0.11025,0.114239 0.41093,0.35474 0.66818,0.534453 0.25724,0.17971 0.66722,0.514646 0.91105,0.744302 0.42801,0.403135 0.67646,0.551005 1.46096,0.869566 0.20213,0.08207 0.47192,0.202346 0.59955,0.267269 0.31907,0.162314 2.33867,0.149413 2.44065,-0.01558 0.0454,-0.0735 0.19039,-0.133636 0.32215,-0.133636 0.13177,0 0.65441,-0.270152 1.16142,-0.600336 1.84497,-1.201502 2.26721,-1.565119 2.53565,-2.183578 0.11701,-0.269576 0.26281,-0.586536 0.32401,-0.704357 0.0612,-0.117822 0.15442,-0.508704 0.20718,-0.868628 0.0528,-0.35992 0.2081,-0.814027 0.34522,-1.00912 0.13712,-0.195094 0.2493,-0.421418 0.2493,-0.502944 0,-0.08153 0.0531,-0.252648 0.11805,-0.380275 0.29196,-0.573942 0.68376,-1.753457 0.68376,-2.058482 0,-0.112112 -0.0913,-0.386784 -0.20281,-0.610381 -0.15628,-0.313288 -0.17035,-0.491897 -0.0613,-0.778666 0.11075,-0.291296 0.0988,-0.414806 -0.055,-0.568597 -0.17287,-0.172869 -0.16951,-0.237586 0.0279,-0.538758 0.26781,-0.408533 0.42389,-1.614043 0.51008,-3.939702 0.04,-1.07891 0.0123,-1.776147 -0.0746,-1.88092 -0.076,-0.09157 -0.152,-0.49689 -0.1689,-0.900721 -0.025,-0.598847 0.0237,-0.792612 0.26423,-1.050832 0.36737,-0.394322 0.37266,-0.666949 0.0203,-1.045184 l -0.27468,-0.294836 0.29606,-0.415779 c 0.24081,-0.338183 0.26713,-0.462097 0.14105,-0.66399 -0.18429,-0.295093 -0.20537,-0.786379 -0.0337,-0.786379 0.26788,0 0.3699,-2.422663 0.20745,-4.926171 -0.0704,-1.084829 -0.11542,-1.260166 -0.33859,-1.318525 -0.33684,-0.08808 -0.33064,-0.386718 0.01,-0.475763 0.1932,-0.05052 0.26727,-0.182279 0.26727,-0.475422 0,-0.450318 0.19371,-0.647115 0.44016,-0.447185 0.0887,0.07192 0.27222,0.152262 0.40792,0.178546 0.43194,0.08366 0.84748,1.830305 0.48826,2.052312 -0.08,0.04945 -0.13363,0.934201 -0.13363,2.204974 0,1.27077 0.0536,2.15552 0.13363,2.204974 0.0735,0.04542 0.13364,0.255899 0.13364,0.46772 0,0.211822 0.0601,0.422296 0.13363,0.467722 0.0735,0.04542 0.13364,0.285967 0.13364,0.534538 0,0.248573 0.0601,0.489114 0.13363,0.53454 0.17462,0.107918 0.17338,2.014646 -0.002,2.341449 -0.20338,0.380005 -0.22542,2.630006 -0.0277,2.827716 0.24186,0.24186 0.19766,0.557924 -0.10441,0.746569 -0.21456,0.133996 -0.26727,0.31164 -0.26727,0.900771 0,0.563229 -0.0466,0.733859 -0.20045,0.733859 -0.1124,0 -0.20046,0.119253 -0.20046,0.271463 0,0.149307 0.0902,0.306078 0.20046,0.348385 0.15849,0.06082 0.20045,0.339669 0.20045,1.332153 0,0.747733 -0.054,1.255233 -0.13363,1.255233 -0.0735,0 -0.13364,0.116721 -0.13364,0.259382 0,0.142661 -0.0535,0.292444 -0.11887,0.332849 -0.16817,0.103933 -0.30691,0.921665 -0.34106,2.010153 -0.0268,0.854003 -0.0552,0.938088 -0.33996,1.005303 -0.55411,0.130807 -0.62514,0.44319 -0.27215,1.196848 l 0.31842,0.679839 -0.29377,0.36482 c -0.16158,0.200652 -0.47519,0.605364 -0.69691,0.899361 -0.22172,0.293997 -0.49124,0.640464 -0.59894,0.769927 -0.1077,0.129466 -0.19582,0.324906 -0.19582,0.434314 0,0.109408 -0.0601,0.198924 -0.13364,0.198924 -0.0735,0 -0.13363,0.120272 -0.13363,0.267269 0,0.147 -0.0601,0.267272 -0.13363,0.267272 -0.0735,0 -0.13364,0.07845 -0.13364,0.174336 0,0.203859 -0.84722,1.16201 -1.02747,1.16201 -0.20784,0 -0.97705,0.868027 -0.97705,1.102562 0,0.271322 -0.27775,0.901959 -0.39725,0.901959 -0.0479,0 -0.34897,-0.126532 -0.66906,-0.281181 l -0.58198,-0.28118 -0.24196,0.314589 c -0.13308,0.173024 -0.2433,0.359693 -0.24493,0.414816 -0.005,0.151459 -1.44483,0.120209 -1.53977,-0.03341 z"
           style="opacity:1;fill:#ff0000;fill-opacity:1;fill-rule:nonzero;stroke:#c70e00;stroke-width:3.20000005;stroke-linejoin:round;stroke-miterlimit:4;stroke-dasharray:none;stroke-dashoffset:0;stroke-opacity:1" />
        <path
           id="path860"
           d="m 175.86955,90.376011 c -0.088,-0.243348 -0.15999,-0.574432 -0.15999,-0.735746 0,-0.589856 -0.3452,-1.414377 -0.78774,-1.881534 -0.42549,-0.449159 -0.45665,-0.545264 -0.50195,-1.547968 -0.0833,-1.844297 -0.7282,-4.249468 -1.27446,-4.753282 -0.21353,-0.196948 -0.21156,-0.221094 0.0325,-0.396997 0.27646,-0.199265 0.38168,-1.197372 0.12622,-1.197372 -0.0735,0 -0.13363,-0.09102 -0.13363,-0.202266 0,-0.111246 -0.0601,-0.32172 -0.13364,-0.467722 -0.0735,-0.146003 -0.19377,-0.384911 -0.26726,-0.530913 -0.0735,-0.146 -0.13364,-0.537766 -0.13364,-0.87059 0,-0.532726 -0.0493,-0.635114 -0.41201,-0.855689 -0.23272,-0.141531 -0.35117,-0.288153 -0.27221,-0.336955 0.16588,-0.102521 0.16085,-2.325846 -0.006,-2.428656 -0.0617,-0.0381 -0.11209,-0.212518 -0.11209,-0.38759 0,-0.175072 -0.0522,-0.350552 -0.11591,-0.389951 -0.0637,-0.0394 -0.1514,-0.328591 -0.19477,-0.642652 -0.20045,-1.451393 -0.62575,-3.484787 -0.76362,-3.650906 -0.0839,-0.101097 -0.26739,-0.22026 -0.40775,-0.264808 -0.19993,-0.06346 -0.2552,-0.207576 -0.2552,-0.665464 0,-0.321456 0.0601,-0.621628 0.13363,-0.667054 0.0735,-0.04542 0.13364,-0.586645 0.13364,-1.202714 0,-0.616067 -0.0601,-1.157288 -0.13364,-1.202711 -0.0735,-0.04543 -0.13363,-0.367695 -0.13363,-0.716151 0,-0.726784 -0.16566,-0.954286 -0.6949,-0.954286 -0.36493,0 -0.49842,-0.174707 -0.25055,-0.3279 0.19926,-0.123153 0.14565,-1.810256 -0.0575,-1.810256 -0.24322,0 -0.36601,-0.401021 -0.18834,-0.615098 0.0887,-0.106886 0.11859,-0.412909 0.0734,-0.751461 -0.0419,-0.31413 -0.11167,-0.841754 -0.15493,-1.172499 -0.0433,-0.330748 -0.12924,-0.72163 -0.19107,-0.868627 -0.46156,-1.097264 -0.65709,-1.410181 -1.22908,-1.966997 -0.42988,-0.41847 -0.64785,-0.741781 -0.64785,-0.960964 0,-0.181674 -0.0601,-0.367482 -0.13363,-0.412909 -0.0735,-0.04542 -0.13364,-0.235961 -0.13364,-0.42341 0,-0.310176 -0.0391,-0.334356 -0.43431,-0.268917 -1.33555,0.22111 -1.9559,0.477147 -2.31515,0.955537 -0.1618,0.215448 -0.38475,0.338148 -0.61443,0.338148 -0.63681,0 -0.98231,0.225021 -1.30307,0.848675 -0.1724,0.335219 -0.42565,0.729904 -0.56276,0.877078 -0.13712,0.147177 -0.24931,0.316966 -0.24931,0.377314 0,0.06035 -0.12027,0.196409 -0.26726,0.302358 -0.147,0.10595 -0.26727,0.294622 -0.26727,0.41927 0,0.124648 -0.0595,0.246676 -0.13216,0.271176 -0.0727,0.0245 -0.13954,0.553977 -0.14855,1.176616 -0.0177,1.219607 -0.0449,1.271923 -0.87826,1.685128 -0.53962,0.267566 -0.61863,0.486484 -0.42329,1.172745 0.0888,0.311888 0.13861,1.107987 0.11412,1.823169 -0.11126,3.248009 -0.0717,3.491934 0.76232,4.705004 0.42182,0.61351 0.42709,0.638683 0.21217,1.013161 -0.24361,0.424479 -0.16475,0.829937 0.16144,0.829937 0.1159,0 0.36106,0.150339 0.54481,0.334087 0.18375,0.183747 0.27121,0.334086 0.19437,0.334086 -0.0768,0 -0.1397,0.120272 -0.1397,0.267272 0,0.146997 -0.0451,0.268607 -0.10023,0.27024 -0.0551,0.0016 -0.24421,0.113681 -0.4202,0.248989 -0.29983,0.230534 -0.30829,0.272396 -0.13442,0.665202 0.10205,0.230552 0.23101,0.419185 0.28656,0.419185 0.0556,0 0.10102,0.14679 0.10102,0.326199 0,0.179411 0.0601,0.363368 0.13363,0.408792 0.0735,0.04543 0.13364,0.327977 0.13364,0.62789 0,0.493798 -0.0814,0.625468 -0.86146,1.394127 -0.47379,0.466855 -0.89829,0.78921 -0.94333,0.716346 -0.045,-0.07287 -0.49639,-0.132485 -1.00301,-0.132485 h -0.92114 l -0.43191,-0.634764 c -0.23755,-0.34912 -0.46885,-0.664835 -0.51399,-0.701583 -0.0451,-0.03675 -0.22662,-0.277293 -0.40329,-0.53454 -0.17666,-0.257246 -0.35451,-0.49779 -0.39522,-0.534538 -0.0407,-0.03675 -0.23292,-0.277293 -0.42713,-0.53454 -0.19421,-0.257246 -0.46448,-0.588055 -0.6006,-0.735126 -0.13611,-0.147071 -0.37228,-0.507886 -0.52482,-0.801809 -0.45328,-0.873411 -0.64676,-1.188429 -0.86085,-1.401601 -0.11151,-0.111035 -0.34425,-0.483201 -0.5172,-0.827038 -0.17295,-0.343836 -0.48763,-0.791072 -0.69929,-0.993854 -0.21166,-0.202782 -0.38483,-0.43134 -0.38483,-0.507902 0,-0.43134 -0.75834,-2.05586 -1.09039,-2.335824 -0.33545,-0.282837 -0.37959,-0.408911 -0.37959,-1.084027 0,-0.630026 -0.0945,-0.947626 -0.53886,-1.811546 l -0.53886,-1.047584 0.29845,-0.562602 c 0.25471,-0.480128 0.27494,-0.614243 0.13796,-0.914871 -0.0883,-0.193746 -0.1605,-0.560728 -0.1605,-0.815514 0,-0.254786 -0.0526,-0.567669 -0.11691,-0.695296 -0.50057,-0.993614 -0.6849,-1.419114 -0.6849,-1.581023 0,-0.103304 -0.12241,-0.310232 -0.27202,-0.459843 -0.26286,-0.262856 -0.28536,-0.264136 -0.66817,-0.038 -0.21789,0.128709 -0.39616,0.34132 -0.39616,0.472472 0,0.131151 -0.0491,0.238455 -0.10923,0.238455 -0.0601,0 -0.21772,0.345782 -0.35032,0.768401 -0.1326,0.422621 -0.36303,0.940631 -0.51208,1.151133 -0.27504,0.388464 -0.3037,0.608031 -0.22133,1.695593 0.0352,0.464129 -0.0239,0.706617 -0.24911,1.02289 -0.30826,0.432919 -0.39081,1.033401 -0.16155,1.175096 0.0765,0.04729 0.13364,0.737336 0.13364,1.614371 0,1.508093 -0.005,1.534152 -0.33729,1.685457 -0.37793,0.172193 -0.57788,0.716126 -0.34783,0.946179 0.0828,0.08282 0.15058,0.259638 0.15058,0.392933 0,0.133297 0.0718,0.357357 0.15959,0.497911 0.12371,0.198086 0.12371,0.334328 0,0.605832 -0.19055,0.418233 -0.21302,2.25996 -0.0317,2.59877 0.1,0.186769 0.0416,0.321693 -0.26727,0.617574 -0.48664,0.46623 -0.538,1.268884 -0.1279,1.999025 0.28219,0.50241 0.36612,1.593567 0.13363,1.737252 -0.0735,0.04542 -0.13363,0.22938 -0.13363,0.408792 0,0.179408 -0.0601,0.326199 -0.13363,0.326199 -0.0735,0 -0.13364,0.168378 -0.13364,0.374176 0,0.205799 -0.0638,0.438015 -0.14186,0.516036 -0.10005,0.100055 -0.0213,0.262424 0.26727,0.550987 0.41542,0.415422 0.51747,0.747855 0.27549,0.897408 -0.0735,0.04543 -0.13363,0.349652 -0.13363,0.676061 0,0.326408 -0.0601,0.593471 -0.13363,0.593471 -0.0735,0 -0.13498,0.07517 -0.13661,0.167042 -0.002,0.09187 -0.12057,0.317383 -0.2643,0.501131 -0.27891,0.356561 -0.35453,0.999374 -0.13363,1.135896 0.17421,0.107667 0.17421,1.00226 0,1.00226 -0.0735,0 -0.13364,0.120272 -0.13364,0.267269 0,0.147 -0.0601,0.267269 -0.13363,0.267269 -0.0735,0 -0.13364,0.120272 -0.13364,0.267271 0,0.146998 -0.051,0.267269 -0.11334,0.267269 -0.1849,0 -0.515,0.935456 -0.68377,1.937705 -0.21881,1.299414 -0.5443,1.937703 -0.98812,1.937703 -0.26859,0 -0.30242,-0.343675 -0.19729,-2.00452 0.08,-1.26432 0.18696,-1.926056 0.44353,-2.744587 0.0593,-0.189283 -0.0218,-0.387953 -0.26595,-0.651415 l -0.35132,-0.379073 0.36522,-0.381199 c 0.35914,-0.374864 0.36233,-0.393202 0.19199,-1.103273 -0.17213,-0.717526 -0.15852,-0.938024 0.12907,-2.090367 0.0825,-0.330745 0.184,-0.781761 0.22546,-1.00226 0.0415,-0.220498 0.13327,-0.473593 0.20402,-0.562438 0.0708,-0.08884 0.12857,-0.599998 0.12848,-1.135896 -9e-5,-0.535897 0.0439,-1.034497 0.0978,-1.107995 0.0539,-0.0735 0.17936,-0.404247 0.27888,-0.734992 0.0995,-0.330745 0.23062,-0.658484 0.29134,-0.72831 0.1634,-0.187905 0.13393,-1.199224 -0.04,-1.373172 -0.0986,-0.09864 -0.12165,-0.441349 -0.0669,-0.995579 0.046,-0.464842 0.0776,-0.920335 0.0702,-1.012209 -0.0532,-0.666398 0.0274,-2.068314 0.35523,-6.180606 0.0439,-0.551243 0.13535,-1.059391 0.20312,-1.129215 0.0678,-0.06982 0.12323,-0.385535 0.12323,-0.701582 0,-0.316045 0.0451,-0.574855 0.10022,-0.57513 0.262,-0.0013 0.63296,-1.31105 0.63384,-2.23788 5.3e-4,-0.532871 0.0417,-0.968854 0.0916,-0.968854 0.15947,0 0.51067,-0.413568 0.51067,-0.601356 0,-0.09975 -0.0979,-0.279268 -0.21756,-0.398931 -0.20101,-0.201001 -0.19463,-0.265327 0.0837,-0.844761 0.16573,-0.344956 0.36877,-0.777534 0.45122,-0.961282 0.0824,-0.183748 0.18609,-0.364154 0.23033,-0.400904 0.0442,-0.03675 0.15444,-0.207262 0.24489,-0.378916 0.27766,-0.526933 0.71324,-0.957431 0.96873,-0.957431 0.13375,0 0.24318,-0.06014 0.24318,-0.133636 0,-0.0735 0.19544,-0.132898 0.43431,-0.131995 0.4105,0.0016 0.46404,0.06198 0.97669,1.102487 0.29831,0.605467 0.61223,1.086413 0.69759,1.068768 0.25344,-0.05238 0.38858,0.369231 0.47952,1.495986 0.0472,0.584652 0.14566,1.122865 0.21882,1.19603 0.0732,0.07317 0.13303,0.331478 0.13303,0.574024 0,0.242547 0.0601,0.440995 0.13363,0.440995 0.0735,0 0.13364,0.146791 0.13364,0.326202 0,0.179409 0.0601,0.363365 0.13363,0.408789 0.0735,0.04543 0.13364,0.199313 0.13364,0.341974 0,0.142661 0.0522,0.259384 0.11604,0.259384 0.10694,0 0.30559,0.868686 0.30559,1.336347 0,0.467662 -0.19865,1.336347 -0.30559,1.336347 -0.20108,0 -0.12596,0.47316 0.11799,0.743201 0.22184,0.245565 0.53663,0.846548 1.02517,1.957226 0.11986,0.2725 0.28272,0.535496 0.36191,0.584436 0.22628,0.139848 0.6445,1.152718 0.64774,1.568728 0.003,0.37321 0.62997,1.42713 1.09703,1.843823 0.13324,0.118869 0.24226,0.272904 0.24226,0.342297 0,0.06939 0.10687,0.242747 0.23749,0.38523 0.13062,0.142481 0.38081,0.469532 0.55597,0.726779 0.17517,0.257249 0.75986,0.904634 1.29931,1.438635 0.69499,0.687959 0.98083,1.067675 0.98083,1.30294 0,0.279829 0.063,0.332026 0.4009,0.332026 0.26358,0 0.4009,-0.06727 0.4009,-0.196387 0,-0.108014 0.12028,-0.410522 0.26727,-0.67224 0.41128,-0.732245 0.3601,-1.906712 -0.13975,-3.207234 -0.0565,-0.146998 -0.17443,-0.567947 -0.26206,-0.935443 -0.0876,-0.367495 -0.24969,-0.908716 -0.36014,-1.202713 -0.15513,-0.412901 -0.19011,-0.990682 -0.15375,-2.539061 l 0.0471,-2.00452 -0.43431,-0.191162 c -0.49907,-0.21966 -0.54737,-0.349459 -0.16705,-0.448916 0.19287,-0.05044 0.26727,-0.182279 0.26727,-0.473622 0,-0.293241 0.11413,-0.493046 0.41701,-0.730092 0.39091,-0.305932 0.40788,-0.354642 0.27095,-0.778086 -0.26851,-0.830414 0.15539,-1.935689 1.1507,-3.00032 0.59042,-0.631539 0.79462,-0.912873 1.15842,-1.595961 0.0788,-0.148032 0.2709,-0.448712 0.42681,-0.668174 0.34132,-0.480438 0.85242,-1.524306 0.85242,-1.740958 0,-0.254259 1.33169,-1.527032 2.0111,-1.922121 1.92203,-1.117695 2.51797,-1.20791 3.17919,-0.48128 0.23231,0.255289 0.42237,0.521848 0.42237,0.592352 0,0.07051 0.12028,0.166365 0.26727,0.213019 0.147,0.04666 0.26727,0.140911 0.26727,0.209457 0,0.06855 0.0752,0.124704 0.16705,0.124793 0.1872,1.88e-4 0.90203,0.578483 0.90203,0.729748 0,0.0536 0.13353,0.284988 0.29674,0.514191 0.23596,0.331364 0.3171,0.691483 0.39612,1.757881 0.0547,0.737632 0.13722,1.8523 0.18348,2.477042 0.0811,1.095233 0.10154,1.151443 0.57127,1.57021 0.26795,0.238871 0.55657,0.434311 0.64138,0.434311 0.25228,0 0.31011,0.350472 0.10593,0.641974 -0.24185,0.345297 -0.11834,0.673828 0.29206,0.776833 0.24269,0.06091 0.31935,0.171024 0.31935,0.458681 0,0.20819 -0.0601,0.415695 -0.13363,0.461121 -0.0735,0.04542 -0.13364,0.285967 -0.13364,0.534538 0,0.248574 -0.0601,0.489114 -0.13363,0.534541 -0.0735,0.04542 -0.13364,0.345598 -0.13364,0.667054 0,0.467101 0.0537,0.601498 0.26727,0.669292 0.147,0.04666 0.26727,0.13008 0.26727,0.185389 0,0.169169 0.74894,0.950507 0.91109,0.950507 0.11307,0 0.11388,0.08424 0.003,0.327287 -0.11415,0.250534 -0.0938,0.697119 0.0868,1.904296 0.12977,0.867355 0.3034,2.257338 0.38585,3.088855 0.13467,1.358101 0.18729,1.55199 0.51741,1.906603 0.22709,0.243941 0.36749,0.544031 0.36749,0.785469 0,0.214889 0.0601,0.427873 0.13364,0.473297 0.0735,0.04543 0.13363,0.383675 0.13363,0.751665 0,0.367988 0.0625,0.785892 0.13894,0.928672 0.0764,0.142782 0.1438,0.905557 0.14976,1.695058 0.009,1.229149 0.051,1.493076 0.29055,1.836362 0.15385,0.220496 0.327,0.420949 0.38478,0.445447 0.0578,0.0245 0.10505,0.177848 0.10505,0.34077 0,0.162923 0.0497,0.353351 0.1104,0.423178 0.0607,0.06982 0.19212,0.397562 0.29201,0.728307 0.0999,0.330748 0.31595,0.913543 0.48014,1.295102 l 0.29852,0.693745 -0.33059,0.356714 c -0.32084,0.346189 -0.32347,0.364871 -0.0894,0.633007 0.13265,0.151961 0.42159,0.4424 0.64209,0.64542 0.35178,0.323897 0.38043,0.402632 0.23386,0.642548 -0.1991,0.325888 -0.22369,1.562611 -0.0334,1.680213 0.0735,0.04542 0.13364,0.337624 0.13364,0.649332 0,0.311709 0.0645,0.631259 0.14336,0.710113 0.0789,0.07885 0.12396,0.346456 0.10023,0.594675 -0.039,0.408022 -0.0879,0.455551 -0.5097,0.495586 -0.2566,0.02437 -0.50032,0.09891 -0.54159,0.165692 -0.0413,0.06678 -0.14703,-0.07769 -0.23503,-0.321037 z"
           style="opacity:1;fill:#ff0000;fill-opacity:1;fill-rule:nonzero;stroke:#c70e00;stroke-width:3.20000005;stroke-linejoin:round;stroke-miterlimit:4;stroke-dasharray:none;stroke-dashoffset:0;stroke-opacity:1" />
      </g>
    </g>
  </g>
</svg>
