<?xml version="1.0" encoding="UTF-8" standalone="no"?>
<!-- Created with Inkscape (http://www.inkscape.org/) -->

<svg
   xmlns:dc="http://purl.org/dc/elements/1.1/"
   xmlns:cc="http://creativecommons.org/ns#"
   xmlns:rdf="http://www.w3.org/1999/02/22-rdf-syntax-ns#"
   xmlns:svg="http://www.w3.org/2000/svg"
   xmlns="http://www.w3.org/2000/svg"
   xmlns:sodipodi="http://sodipodi.sourceforge.net/DTD/sodipodi-0.dtd"
   xmlns:inkscape="http://www.inkscape.org/namespaces/inkscape"
   width="210mm"
   height="297mm"
   viewBox="0 0 210 297"
   version="1.1"
   id="svg8"
   inkscape:version="0.92.1 r15371"
   sodipodi:docname="salem.svg">
  <defs
     id="defs2" />
  <sodipodi:namedview
     id="base"
     pagecolor="#ffffff"
     bordercolor="#666666"
     borderopacity="1.0"
     inkscape:pageopacity="0.0"
     inkscape:pageshadow="2"
     inkscape:zoom="0.38"
     inkscape:cx="208.1967"
     inkscape:cy="480.83441"
     inkscape:document-units="mm"
     inkscape:current-layer="g1478"
     showgrid="false"
     inkscape:window-width="1536"
     inkscape:window-height="801"
     inkscape:window-x="-8"
     inkscape:window-y="-8"
     inkscape:window-maximized="1" />
  <metadata
     id="metadata5">
    <rdf:RDF>
      <cc:Work
         rdf:about="">
        <dc:format>image/svg+xml</dc:format>
        <dc:type
           rdf:resource="http://purl.org/dc/dcmitype/StillImage" />
        <dc:title></dc:title>
      </cc:Work>
    </rdf:RDF>
  </metadata>
  <g
     inkscape:label="Layer 1"
     inkscape:groupmode="layer"
     id="layer1">
    <g
       id="layer1-3"
       inkscape:label="Layer 1"
       transform="translate(-28.682456,-85.828564)">
      <g
         transform="matrix(1.0204227,0,0,1.0204227,-14.444646,24.094051)"
         id="g1478">
        <g
           id="g1215">
          <path
             sodipodi:nodetypes="ccccccccccccccccccccccc"
             inkscape:connector-curvature="0"
             id="path21"
             d="m 77.267809,193.87224 c -0.280149,-4.24044 -0.472762,-8.52464 0.177187,-13.23012 l -0.41344,-20.08144 3.071285,-14.64764 6.615055,-14.41138 8.505077,-12.28512 9.213847,-6.85131 12.04885,-5.4338 10.8676,-3.07128 13.23012,-0.94501 11.10386,0.23625 10.3951,1.65377 10.3951,3.54378 7.56007,3.78003 8.50508,6.14256 5.9063,7.79632 6.37881,8.97759 5.67005,12.52136 2.12628,13.23013 0.4725,8.50508 -0.94501,9.80447 -1.18126,13.46637 -0.35438,2.83503"
             style="fill:none;stroke:#000000;stroke-width:0.44197372;stroke-linecap:butt;stroke-linejoin:miter;stroke-miterlimit:4;stroke-dasharray:none;stroke-opacity:1" />
          <path
             inkscape:connector-curvature="0"
             id="path23"
             d="m 77.267809,193.87224 0.07337,2.09612 -0.709987,0.0835 -3.174052,-0.91881 -3.257585,-0.96056 -4.594025,-1.12763 -3.591699,-0.20881 -1.294674,-0.33412 -3.215818,-1.08586 -1.795854,-1.08586 -1.419973,-0.25059 -2.213484,-0.16705 -1.670555,-0.29234 -0.208815,1.08586 1.169383,2.83994 1.294682,2.21349 0.459406,1.67055 0.250581,2.58937 0.877044,2.21348 2.338774,3.09053 2.422308,3.71698 0.751744,2.12996 1.712321,2.17172 1.962903,2.33878 2.297017,4.25992 1.921136,3.96756 0.375881,3.25759 0.835268,1.87937 1.294683,2.92347 1.879378,3.42465 2.297017,3.96756 1.754079,0.91881 0.709986,2.33877 1.46174,2.12996 1.211149,1.08586 1.712321,1.25292 1.044093,1.16939 1.545263,-0.29235 0.292348,-0.66822 0.04172,-0.16706"
             style="fill:none;stroke:#000000;stroke-width:0.44197372;stroke-linecap:butt;stroke-linejoin:miter;stroke-miterlimit:4;stroke-dasharray:none;stroke-opacity:1" />
          <path
             inkscape:connector-curvature="0"
             id="path36"
             d="m 199.8827,251.28153 1.89002,-0.82689 1.29938,-1.89001 0.35439,-1.53565 0.53156,-1.47657 1.47658,-0.70876 0.59063,-0.82688 0.53157,-1.1222 1.41751,-2.00814 3.13035,-2.77596 1.4175,-1.65377 0.29532,-1.35845 0.64969,-1.65376 0.059,-1.35845 0.41344,-2.2444 0.70876,-1.18126 0.94501,-1.47657 -0.41344,-3.48473 1.77189,-0.29532 1.24032,-0.35437 0.64969,-2.06721 0.1772,-2.18533 1.1222,-3.13034 1.71282,-2.30346 1.83096,-1.83096 0.35437,-1.77189 0.64969,-1.18126 1.35846,-0.64969 0.82688,-0.70876 0.29531,-2.36253 0.1772,-1.24032 1.00406,-0.70875 0.6497,-1.59471 -0.23626,-1.77189 0.23626,-2.12626 0.41345,-0.94501 0.76781,-0.59064 1.47658,-0.59063 0.70875,-1.06313 0.1772,-1.24033 0.29531,-1.47657 0.11813,-1.06314 -0.1772,-0.94501 -3.13034,1.29939 -3.30753,0.94501 -4.60692,-0.23625 -3.54378,0.70875 -5.31567,1.89002 -3.07129,0.94501 -3.18939,0.35438 v 0"
             style="fill:none;stroke:#000000;stroke-width:0.44197372;stroke-linecap:butt;stroke-linejoin:miter;stroke-miterlimit:4;stroke-dasharray:none;stroke-opacity:1" />
          <path
             inkscape:connector-curvature="0"
             id="path38"
             d="m 230.24111,190.8305 -0.5611,0.79734 -1.1222,1.50611 -0.97453,0.91548 -1.50612,1.21079 -1.71282,1.26986 -1.71284,0.62016 -1.06313,0.70876 -1.47657,1.18125 -1.38798,0.94502 -2.74644,2.24439 -1.24032,1.2108 -1.38798,1.32891 -0.5611,1.00408 -0.29532,0.945 -1.44704,1.83096 -0.88595,1.44705 -0.25995,0.50574 0.41763,2.50583 0.0835,1.08586 -0.66822,1.41997 -1.33645,1.33645 -1.33644,0.41764 -1.33645,1.16938"
             style="fill:none;stroke:#000000;stroke-width:0.44197372;stroke-linecap:butt;stroke-linejoin:miter;stroke-miterlimit:4;stroke-dasharray:none;stroke-opacity:1" />
          <path
             inkscape:connector-curvature="0"
             id="path40"
             d="m 55.289817,194.29781 1.587031,1.58703 2.171726,0.58469 1.419973,1.08586 1.587022,1.16939 1.002334,0.41764 1.085859,0.0835 1.002334,0.50118 0.584696,0.50116 1.002335,1.33645 1.252916,0.75174 1.754079,1.33645 1.419973,1.25292 1.002334,0.66822 1.587031,1.92113 0.334114,1.58703 1.754079,2.58937 1.58703,1.00232 1.921136,2.6729 1.419973,2.75641 -0.501171,1.58703 -1.169383,1.83761 -0.08353,1.67055 -0.751753,2.00467 -0.08353,1.08586"
             style="fill:none;stroke:#000000;stroke-width:0.44197372;stroke-linecap:butt;stroke-linejoin:miter;stroke-miterlimit:4;stroke-dasharray:none;stroke-opacity:1" />
          <path
             inkscape:connector-curvature="0"
             id="path42"
             d="m 199.8827,251.28153 v 0 l -1.67687,-0.18483 -0.58469,-1.08587"
             style="fill:none;stroke:#000000;stroke-width:0.44197372;stroke-linecap:butt;stroke-linejoin:miter;stroke-miterlimit:4;stroke-dasharray:none;stroke-opacity:1" />
          <path
             inkscape:connector-curvature="0"
             id="path46"
             d="m 197.28702,239.82044 -1.58702,2.92347 -0.66823,2.67289 -0.3341,1.33645 -0.41764,2.4223 v 1.92115 2.17171 l 0.0835,1.58703 -0.0835,1.5035 -1.67056,3.75875 -1.25291,2.08819 -2.0882,3.25759 -1.25292,1.83761 -1.25292,1.08586 -0.9188,0.91881 -1.83761,2.92347 -1.41997,1.33645 -1.41998,2.00466 -0.9188,1.25291 -0.83527,1.08587 -1.83762,2.75641 -2.50583,1.67056 -1.25291,1.5035 -1.92115,1.75408 -2.33877,2.0882 -2.0882,2.17171 -3.50816,2.50585 -4.09287,1.92113 -2.58935,1.83761 -2.25525,0.83528 -2.67289,1.16939 -3.25759,0.16705 h -5.51283 l -4.34345,-0.33411 -5.84694,-0.33411 -2.50583,-0.75175 -3.25758,-0.9188 -3.34111,-1.00234 -4.5105,-3.00699 -2.25525,-2.25525 -3.92581,-3.84228 -5.93047,-5.76342 -2.25525,-2.50583 -1.75408,-1.33645 -2.92347,-2.17172 -2.255249,-2.83995 -2.171726,-2.75641 -1.587022,-3.25758 -1.837611,-3.42465 -1.169392,-3.25757 -1.169392,-3.84228 -1.837612,-6.76575 -1.252916,-5.84695 -0.501162,-2.4223"
             style="fill:none;stroke:#000000;stroke-width:0.44197372;stroke-linecap:butt;stroke-linejoin:miter;stroke-miterlimit:4;stroke-dasharray:none;stroke-opacity:1" />
          <path
             inkscape:connector-curvature="0"
             id="path50"
             d="m 134.89178,258.6142 -1.5035,-0.0835 -1.33645,-0.33412 -1.00233,0.16706 -1.58702,-0.25058 -1.41997,-0.5847 -0.33412,-0.58469 -0.9188,-0.66822 -1.08586,-0.41764 -1.16939,-0.33412 -0.9188,-1.00233 -1.08587,-1.33644 -1.75408,-1.33645 -0.66822,-1.00233 0.58469,-1.00233 0.83528,-1.00233 0.91881,-1.25292 1.16939,-1.58703 1.41996,-0.91881 2.00467,-1.00233 2.00467,-0.66822 2.08819,-0.41764 2.00467,-0.16705 h 1.58702 1.92115 l 1.58702,0.66822 1.16939,0.58469 1.58703,0.5847 h 1.58702 l 1.83762,-0.50117 1.75408,-1.08586 0.75175,-0.33412 3.25758,-0.25058 1.83761,0.16706 2.25525,0.50116 2.92348,0.83528 2.33878,1.67056 1.41997,1.75408 1.25292,0.83528 2.00466,2.33877 -0.25058,1.25292 -1.5035,1.67056 -0.83528,0.75175 -1.75409,0.83528 -1.08585,0.50117 -1.33644,0.58469 -1.58703,0.66822 -1.67056,0.50117 -1.00233,0.25058 -1.5035,0.50117 -1.08587,0.16706 -1.25291,0.25058 -0.83528,0.0835"
             style="fill:none;stroke:#000000;stroke-width:0.44197372;stroke-linecap:butt;stroke-linejoin:miter;stroke-miterlimit:4;stroke-dasharray:none;stroke-opacity:1" />
          <path
             inkscape:connector-curvature="0"
             id="path52"
             d="m 138.90112,266.67463 0.20881,-1.04411 -0.12529,-2.21348 -0.16705,-1.71232 -0.0835,-2.88171 v -1.83761 l -0.12529,-1.58703 0.12529,-0.91881 0.66822,-1.67055 0.16706,-0.83528 0.20882,-1.33644 v -1.00233 l -0.5847,-0.37588 -0.33411,-0.37588 -0.58469,-0.50116 -0.41764,0.0835 -0.37587,-0.20881 -0.16706,-0.37587 -0.50117,-0.0418 -0.58469,0.20881 -0.58469,0.16706 -0.25059,0.58469 -0.37588,0.12529 -0.16705,1.50351 -0.12529,2.33878 0.33411,1.62878 0.25058,1.12763 0.37587,2.04643 0.25059,2.29701 0.66822,2.12996 0.45941,0.9188 1.00232,2.83995 0.41765,0.87704 0.16705,0.20882 z"
             style="fill:none;stroke:#000000;stroke-width:0.44197372;stroke-linecap:butt;stroke-linejoin:miter;stroke-miterlimit:4;stroke-dasharray:none;stroke-opacity:1" />
          <path
             inkscape:connector-curvature="0"
             id="path54"
             d="m 143.45338,249.34261 0.96057,-0.5847 0.87704,-0.12529 1.29468,-0.16706 0.66822,0.1253 0.75176,0.29234 0.3341,1.08587 0.37588,1.9629 -0.0418,2.54759 -0.0835,2.00467 -0.0104,1.11719 -0.38631,1.13806 -0.5847,1.71232 -0.6369,1.37821 -0.49073,0.92925 -0.62646,1.326 -0.44895,0.92925 -0.38632,0.67866 -0.77422,1.24006 -0.64969,0.29532 0.17719,-1.0336 0.23625,-1.35845 0.41344,-2.03767 0.32485,-2.30347 0.17719,-2.00814 0.0886,-1.83095 -0.17718,-2.18533 -0.26579,-1.03361 -0.35438,-0.70876 -0.35438,-0.88595 -0.0295,-0.76781 -0.26579,-0.88595 z"
             style="fill:none;stroke:#000000;stroke-width:0.44197372;stroke-linecap:butt;stroke-linejoin:miter;stroke-miterlimit:4;stroke-dasharray:none;stroke-opacity:1" />
          <path
             inkscape:connector-curvature="0"
             id="path56"
             d="m 130.77893,248.50556 0.44298,-0.53157 0.91547,-0.3839 1.00407,0.11812 0.6497,0.26578 0.44297,0.59064 0.0886,0.44297 v 0.88595 l -0.14765,0.56109 -0.41344,0.79736 -0.11813,0.91547 -0.20672,1.00407 -0.17719,1.03361 -0.17719,0.76781 -0.17719,0.6497 -0.50203,-0.59063 -0.20672,-0.38391 -0.47251,-0.82689 -0.50203,-1.65376 -0.41344,-1.53563 -0.20672,-1.24033 z"
             style="fill:none;stroke:#000000;stroke-width:0.44197372;stroke-linecap:butt;stroke-linejoin:miter;stroke-miterlimit:4;stroke-dasharray:none;stroke-opacity:1" />
          <path
             inkscape:connector-curvature="0"
             id="path58"
             d="m 128.41641,247.97399 -1.06314,0.20672 -0.59062,0.59064 -0.1772,0.26578 -0.29531,0.70876 v 0.67923 l 0.62016,1.24032 0.70876,1.06313 0.62016,0.64969 0.41344,0.1772 0.32485,0.14765 0.0886,-0.67922 0.0295,-0.62016 -0.11813,-0.91548 0.0886,-0.44297 0.11812,-0.94501 v -0.91548 l -0.17719,-0.44297 -0.26578,-0.50204 z"
             style="fill:none;stroke:#000000;stroke-width:0.44197372;stroke-linecap:butt;stroke-linejoin:miter;stroke-miterlimit:4;stroke-dasharray:none;stroke-opacity:1" />
          <path
             inkscape:connector-curvature="0"
             id="path60"
             d="m 149.67911,248.29884 0.35437,-0.4725 0.6497,-0.32485 h 0.76782 l 0.64969,0.4725 0.41345,0.44298 0.20672,0.70875 -0.0295,1.18127 -0.0295,1.00407 -0.11813,0.91547 -0.29531,0.76782 -0.6497,1.2108 -0.62016,0.79735 -0.59063,0.41344 -0.44297,0.11813 -0.0886,-0.85641 0.0886,-0.62017 -0.26578,-1.53564 -0.14766,-0.94501 -0.0886,-0.79735 -0.059,-0.59063 -0.0295,-0.73829 z"
             style="fill:none;stroke:#000000;stroke-width:0.44197372;stroke-linecap:butt;stroke-linejoin:miter;stroke-miterlimit:4;stroke-dasharray:none;stroke-opacity:1" />
          <path
             sodipodi:nodetypes="cccccccccccccccccccccc"
             inkscape:connector-curvature="0"
             id="path62"
             d="m 154.19743,249.09619 0.059,0.6497 v 0.70875 l -0.0295,0.79736 -0.0295,0.67922 -0.0295,0.5611 -0.11812,0.70875 -0.0886,0.17719 0.70876,-0.17719 0.67922,-0.53156 0.47251,-0.62017 0.44297,-0.67922 0.38391,-1.15173 0.20672,-0.62016 v -0.70876 l -0.20672,-0.56109 -0.53157,-0.44298 -0.29531,-0.14766 -0.75053,0.0553 -0.62063,0.15046 -0.29188,0.61541 z"
             style="fill:none;stroke:#000000;stroke-width:0.44197372;stroke-linecap:butt;stroke-linejoin:miter;stroke-miterlimit:4;stroke-dasharray:none;stroke-opacity:1" />
          <path
             inkscape:connector-curvature="0"
             id="path64"
             d="m 150.09384,189.28614 -1.33645,6.84928 -0.33411,8.01866 1.16939,6.34812 0.66823,2.50583 0.66822,-2.00467 0.64001,-0.82972 1.24032,-0.59062 0.94501,0.0295 1.53564,0.82689 1.03361,1.32892 1.24032,2.86455 0.50203,1.65377 0.26579,0.91548 0.0295,1.4175 -0.17719,1.65377 -0.44298,1.24033 -1.24032,1.38798 -0.94501,0.79735 -1.15173,0.41344 -1.80448,0.33882 -1.33645,0.37587 h -1.25291 l -2.5476,-0.20882"
             style="fill:none;stroke:#000000;stroke-width:0.44197372;stroke-linecap:butt;stroke-linejoin:miter;stroke-miterlimit:4;stroke-dasharray:none;stroke-opacity:1" />
          <path
             inkscape:connector-curvature="0"
             id="path66"
             d="m 150.1356,215.76444 -0.41764,1.96291 -0.20882,1.67055 -0.25058,0.87704 -0.83528,1.50351 -0.96057,1.33644 -1.83761,1.5035 -1.16939,0.62646 -2.25525,0.54293 -1.9629,0.0417 -1.21115,-0.29235 -1.6288,-0.50117 -1.33644,-0.62645 -1.0441,-0.66822 -0.62645,-0.75176 -0.66823,-0.79351 -0.50116,-0.91881 -0.16706,-1.00233 -0.0835,-1.21115 -0.0835,-1.33644 0.41763,-1.71232 0.0835,-0.70999"
             style="fill:none;stroke:#000000;stroke-width:0.44197372;stroke-linecap:butt;stroke-linejoin:miter;stroke-miterlimit:4;stroke-dasharray:none;stroke-opacity:1" />
          <path
             inkscape:connector-curvature="0"
             id="path68"
             d="m 133.76416,223.95017 -0.96057,0.83527 -0.79351,0.37588 -1.37822,0.33411 h -1.04409 l -0.87704,-0.29235 -1.83762,-0.62645 -1.21115,-1.00234 -0.4594,-0.66822 -0.37587,-1.9629 0.20882,-1.46174 0.37587,-1.0441 0.20882,-0.96057 0.70998,-1.75408 0.45941,-1.33644 0.9188,-1.46173 1.0441,-1.08586 1.29468,-0.62647 1.16939,-0.20882 h 1.25291 l 0.41765,0.45941 0.25058,0.58469 0.16705,0.33411 1.0441,-2.71465 0.70999,-1.75409 0.50116,-2.17171 0.83529,-5.84695"
             style="fill:none;stroke:#000000;stroke-width:0.44197372;stroke-linecap:butt;stroke-linejoin:miter;stroke-miterlimit:4;stroke-dasharray:none;stroke-opacity:1" />
          <path
             inkscape:connector-curvature="0"
             id="path70"
             d="m 146.91978,167.56892 -1.33644,3.67523 0.0835,1.08585 0.33411,1.16939 0.91881,1.16939 2.0882,0.33411 2.50583,-0.33411 3.25758,-2.33878 2.4223,-1.33644 3.34111,-2.00466 2.42231,-1.67056 1.58703,-1.33645 1.92114,-1.41997 3.007,-1.5035 2.08819,-0.58469 h 1.41998 l 1.67055,0.58469 1.92114,1.08586 1.41997,1.00233 1.25292,0.83528 1.25291,1.41998 1.16939,1.75408 1.33644,2.00466 1.58703,1.08587 0.50117,0.0835"
             style="fill:none;stroke:#000000;stroke-width:0.44197372;stroke-linecap:butt;stroke-linejoin:miter;stroke-miterlimit:4;stroke-dasharray:none;stroke-opacity:1" />
          <path
             inkscape:connector-curvature="0"
             id="path72"
             d="m 167.87052,184.30402 -0.39866,-0.36914 -0.19196,-0.38391 0.0148,-0.36914 0.10336,-0.51681 0.13289,-0.32484 0.25102,-0.29532 0.28054,-0.17718 0.29532,-0.0886 0.41344,-0.0443 0.38392,-0.0148 0.32484,0.0295 0.32485,0.1329 0.20672,0.17718 0.23625,0.25103 0.14766,0.26577 0.0295,0.23626 0.0591,0.26578 0.0148,0.39868 -0.0148,0.35438 -0.0738,0.22148 -0.20672,0.23626 -0.25101,0.11812 -0.25103,0.13289 -0.35437,0.1772 -0.29532,0.0148 -0.41344,-0.0295 -0.47251,-0.10336 z"
             style="fill:none;stroke:#000000;stroke-width:0.44197372;stroke-linecap:butt;stroke-linejoin:miter;stroke-miterlimit:4;stroke-dasharray:none;stroke-opacity:1" />
          <path
             inkscape:connector-curvature="0"
             id="path74"
             d="m 167.8853,178.87022 h -0.10336 l -1.01884,0.41345 -0.94501,0.57586 -0.36915,0.29531 -0.28055,0.42821 -0.28054,0.47251 -0.19196,0.44297 -0.14765,0.31008 -0.16243,0.35437 -0.11813,0.50204 -0.13289,0.93025 0.0443,0.5168 0.19195,0.67923 0.32485,0.60539 0.20672,0.45774 0.53157,0.72352 0.47251,0.36914 0.48726,0.28056 0.5611,0.29531 0.79736,0.26578 0.78258,0.10336 0.59063,0.0295 0.59063,-0.0738 0.48727,-0.13289 0.39868,-0.17719 0.32484,-0.16243 0.22149,-0.14765 0.22148,-0.14766 0.38392,-0.29531 0.69399,-0.70876 0.23625,-0.41344 0.38391,-0.72352 0.0886,-0.41345 0.14766,-0.75305 0.0295,-0.6054 -0.0443,-0.59063 -0.14766,-0.50204 -0.26578,-0.63493 -0.76783,-1.21078 -0.4725,-0.36915 -0.5611,-0.42821 -0.5611,-0.31008 -0.82688,-0.32484 -0.73829,-0.059 -0.45773,0.0148 z"
             style="fill:none;stroke:#000000;stroke-width:0.44197372;stroke-linecap:butt;stroke-linejoin:miter;stroke-miterlimit:4;stroke-dasharray:none;stroke-opacity:1" />
          <path
             inkscape:connector-curvature="0"
             id="path76"
             d="m 158.83389,184.33355 1.74235,1.24033 1.06314,0.76782 1.12219,0.44297 1.47659,0.62017 1.12219,0.50203 1.29939,0.5611 1.1222,0.29532 1.18126,0.26577 0.88594,0.0591 1.50611,-0.14765 1.24032,-0.38391 0.73829,-0.47251 0.5611,-0.41344 1.35845,-0.64969 0.67923,-0.50204 1.00407,-0.85641 0.5611,-0.67922 1.1222,-0.67923 0.23625,-0.35438 -1.00408,-1.0336 -0.73829,-0.56111 -0.35437,-0.26577 -0.62016,-0.6497 -0.50204,-0.67923 -0.62016,-0.88594 -0.64969,-0.73829 -0.53157,-0.53157 -1.44705,-0.64969 -0.945,-0.20672 -0.94501,-0.17719 -1.74237,-0.23625 -0.88595,-0.14766 h -1.26985 l -1.09266,0.44297 -1.47658,0.85642 -0.73829,0.53156 -0.91547,0.82688 -0.88595,0.82689 -0.79735,0.6497 -0.73829,0.62015 -0.91547,1.38799 -0.62017,0.62016 z"
             style="fill:none;stroke:#000000;stroke-width:0.44197372;stroke-linecap:butt;stroke-linejoin:miter;stroke-miterlimit:4;stroke-dasharray:none;stroke-opacity:1" />
          <path
             inkscape:connector-curvature="0"
             id="path78"
             d="m 113.88455,179.63868 -0.20882,0.14618 -0.18794,0.27146 -0.11485,0.16705 -0.1044,0.20883 -0.0313,0.16705 -0.0209,0.16705 -0.0313,0.27147 0.0418,0.22971 0.0731,0.19837 0.11485,0.19838 0.094,0.14617 0.18794,0.18794 0.27146,0.18794 0.27146,0.0835 0.22971,0.0835 0.48028,0.0209 0.29235,-0.0522 0.27146,-0.10441 0.10441,-0.0731 0.1253,-0.14617 0.12529,-0.15662 0.15661,-0.24014 0.0835,-0.20882 0.0209,-0.26103 0.0104,-0.24014 -0.0522,-0.28191 -0.0627,-0.20881 -0.12529,-0.27147 -0.11486,-0.19838 -0.18793,-0.17749 -0.20882,-0.14617 -0.2297,-0.1253 -0.18794,-0.0522 -0.19838,-0.0313 -0.25058,0.0209 -0.24014,0.0209 -0.29235,0.1253 z"
             style="fill:none;stroke:#000000;stroke-width:0.44197372;stroke-linecap:butt;stroke-linejoin:miter;stroke-miterlimit:4;stroke-dasharray:none;stroke-opacity:1" />
          <path
             inkscape:connector-curvature="0"
             id="path80"
             d="m 114.26042,176.71521 -0.9188,0.2297 -1.16939,0.48028 -0.56382,0.54293 -0.54292,0.83528 -0.48029,0.70999 -0.3341,0.87704 -0.18794,1.2738 0.0835,1.10674 0.4594,0.85616 0.77263,1.06498 0.62646,0.60558 0.79351,0.29234 0.62646,0.14618 1.21115,0.0835 0.98146,-0.12529 1.06498,-0.2297 0.9188,-0.62645 0.73086,-0.73088 0.25059,-0.62645 0.43852,-0.89793 0.20882,-0.6891 v -0.60558 l -0.0418,-0.93969 -0.0209,-0.66822 -0.27146,-0.52205 -0.58469,-0.79351 -0.56381,-0.64734 -0.77263,-0.52205 -0.64734,-0.27147 -0.87705,-0.18794 -0.64734,-0.0418 z"
             style="fill:none;stroke:#000000;stroke-width:0.44197372;stroke-linecap:butt;stroke-linejoin:miter;stroke-miterlimit:4;stroke-dasharray:none;stroke-opacity:1" />
          <path
             inkscape:connector-curvature="0"
             id="path82"
             d="m 124.78492,182.87538 -0.6891,-1.02322 -0.89793,-1.39908 -0.77263,-0.89793 -0.93968,-0.93969 -0.5847,-0.50116 -1.71232,-1.10675 -1.25291,-0.6891 -1.2738,-0.43852 -0.96058,-0.29235 -1.50349,-0.10441 -1.29468,0.14618 -0.85616,0.35499 -1.10674,0.52205 -1.12763,0.81439 -0.89792,0.66823 -1.06498,0.93968 -0.50116,0.5847 -1.35733,1.50349 -0.25058,0.52206 -0.31323,0.50117 -0.14618,0.39675 0.64734,0.77263 0.77263,0.56382 1.0441,0.93969 0.83528,0.54293 1.10674,0.60557 1.31557,0.60557 1.10674,0.27147 1.29468,0.10441 1.23203,0.0209 1.0441,0.0209 1.39909,-0.14617 2.15084,-0.52205 0.96057,-0.60558 1.19027,-0.41763 0.50116,-0.18794 0.91881,-0.41764 0.83528,-0.43853 0.77263,-0.39675 0.75174,-0.35499 z"
             style="fill:none;stroke:#000000;stroke-width:0.44197372;stroke-linecap:butt;stroke-linejoin:miter;stroke-miterlimit:4;stroke-dasharray:none;stroke-opacity:1" />
          <path
             inkscape:connector-curvature="0"
             id="path86"
             d="m 144.80641,258.59058 -1.32892,0.11812 -0.9893,0.20672 -1.00408,0.10336 -1.1222,0.0295 h -0.41344 l -0.78258,0.0295 -0.48728,-0.0443"
             style="fill:none;stroke:#000000;stroke-width:0.44197372;stroke-linecap:butt;stroke-linejoin:miter;stroke-miterlimit:4;stroke-dasharray:none;stroke-opacity:1" />
          <path
             inkscape:connector-curvature="0"
             id="path88"
             d="m 149.34209,258.53067 c 0,0 0,0 0,0 z"
             style="fill:none;stroke:#000000;stroke-width:0.44197372;stroke-linecap:butt;stroke-linejoin:miter;stroke-miterlimit:4;stroke-dasharray:none;stroke-opacity:1" />
          <path
             inkscape:connector-curvature="0"
             id="path90"
             d="m 139.77815,249.63496 0.36227,-0.68642 v -0.35439 l 0.11813,-0.67921 0.059,-0.79736 -0.059,-0.56109 -0.059,-0.50204 -0.059,-0.41344"
             style="fill:none;stroke:#000000;stroke-width:0.44197372;stroke-linecap:butt;stroke-linejoin:miter;stroke-miterlimit:4;stroke-dasharray:none;stroke-opacity:1" />
          <path
             inkscape:connector-curvature="0"
             id="path92"
             d="m 135.01706,248.92493 v 0 l -0.31044,-0.77374 -0.11812,-0.6497 -0.11813,-1.09267 -0.0886,-0.59062 0.14765,-0.50204"
             style="fill:none;stroke:#000000;stroke-width:0.44197372;stroke-linecap:butt;stroke-linejoin:miter;stroke-miterlimit:4;stroke-dasharray:none;stroke-opacity:1" />
          <path
             inkscape:connector-curvature="0"
             id="path94"
             d="m 130.77892,248.50556 -0.32484,-0.82688 -0.0886,-0.73829 -0.0295,-0.67922 0.059,-0.67923 0.11812,-0.23625"
             style="fill:none;stroke:#000000;stroke-width:0.44197372;stroke-linecap:butt;stroke-linejoin:miter;stroke-miterlimit:4;stroke-dasharray:none;stroke-opacity:1" />
          <path
             inkscape:connector-curvature="0"
             id="path96"
             d="m 148.00565,248.8832 0.25594,-0.76154 0.20672,-0.85642 0.23625,-0.70875 -0.0295,-0.62017 -0.26578,-0.59063 -0.26579,-0.67922"
             style="fill:none;stroke:#000000;stroke-width:0.44197372;stroke-linecap:butt;stroke-linejoin:miter;stroke-miterlimit:4;stroke-dasharray:none;stroke-opacity:1" />
          <path
             inkscape:connector-curvature="0"
             id="path98"
             d="m 143.45338,249.34261 -0.33027,-0.54173 -0.32485,-0.35438 -0.17719,-0.29531 -0.14765,-0.44298 -0.17719,-0.88595 0.0295,-0.3839"
             style="fill:none;stroke:#000000;stroke-width:0.44197372;stroke-linecap:butt;stroke-linejoin:miter;stroke-miterlimit:4;stroke-dasharray:none;stroke-opacity:1" />
          <path
             inkscape:connector-curvature="0"
             id="path100"
             d="m 142.62107,248.15119 -0.79735,-0.29532 h -0.67922 l -0.88595,0.0591 v 0"
             style="fill:none;stroke:#000000;stroke-width:0.44197372;stroke-linecap:butt;stroke-linejoin:miter;stroke-miterlimit:4;stroke-dasharray:none;stroke-opacity:1" />
          <path
             inkscape:connector-curvature="0"
             id="path102"
             d="m 152.10069,247.97399 0.53157,-0.70875 -0.059,-0.53157 v -0.73829 l -0.0886,-0.4725 -0.17719,-0.32484"
             style="fill:none;stroke:#000000;stroke-width:0.44197372;stroke-linecap:butt;stroke-linejoin:miter;stroke-miterlimit:4;stroke-dasharray:none;stroke-opacity:1" />
          <path
             inkscape:connector-curvature="0"
             id="path104"
             d="m 156.85528,248.88947 0.44296,-0.91548 0.64969,-0.14765 0.64969,-0.11813 h 0.97455 l 0.67922,0.23626 0.44298,0.0295 0.88594,-0.17718"
             style="fill:none;stroke:#000000;stroke-width:0.44197372;stroke-linecap:butt;stroke-linejoin:miter;stroke-miterlimit:4;stroke-dasharray:none;stroke-opacity:1" />
          <path
             inkscape:connector-curvature="0"
             id="path108"
             d="M 155.11292,247.94447 Z"
             style="fill:none;stroke:#000000;stroke-width:0.44197372;stroke-linecap:butt;stroke-linejoin:miter;stroke-miterlimit:4;stroke-dasharray:none;stroke-opacity:1" />
          <path
             inkscape:connector-curvature="0"
             id="path110"
             d="m 155.11292,247.94447 c 0,0 0,0 0,0 z"
             style="fill:none;stroke:#000000;stroke-width:0.44197372;stroke-linecap:butt;stroke-linejoin:miter;stroke-miterlimit:4;stroke-dasharray:none;stroke-opacity:1" />
          <path
             inkscape:connector-curvature="0"
             id="path114"
             d="m 149.67911,248.29884 -0.3579,-0.29267 -1.05962,0.11549"
             style="fill:none;stroke:#000000;stroke-width:0.44197372;stroke-linecap:butt;stroke-linejoin:miter;stroke-miterlimit:4;stroke-dasharray:none;stroke-opacity:1" />
          <path
             inkscape:connector-curvature="0"
             id="path116"
             d="m 134.5885,247.50149 -0.62016,0.13289 -0.17719,0.33961"
             style="fill:none;stroke:#000000;stroke-width:0.44197372;stroke-linecap:butt;stroke-linejoin:miter;stroke-miterlimit:4;stroke-dasharray:none;stroke-opacity:1" />
          <path
             inkscape:connector-curvature="0"
             id="path118"
             d="m 130.77892,248.50556 -0.76781,-0.50203 -0.56109,-0.0148 -0.31008,0.20672 -0.31009,0.19934"
             style="fill:none;stroke:#000000;stroke-width:0.44197372;stroke-linecap:butt;stroke-linejoin:miter;stroke-miterlimit:4;stroke-dasharray:none;stroke-opacity:1" />
          <path
             inkscape:connector-curvature="0"
             id="path120"
             d="m 159.45405,249.03713 -0.14767,0.97454 -0.20672,0.41345 -0.44297,0.20672 -0.62016,0.26577 0.17719,-0.3839 0.0295,-0.26579 0.0295,-0.32484 v -0.41344 l -0.14766,-0.53157"
             style="fill:none;stroke:#000000;stroke-width:0.44197372;stroke-linecap:butt;stroke-linejoin:miter;stroke-miterlimit:4;stroke-dasharray:none;stroke-opacity:1" />
          <path
             inkscape:connector-curvature="0"
             id="path122"
             d="m 125.41138,249.67672 0.12529,0.62646 0.0627,0.56381 0.18793,0.52205 0.10441,0.16705 0.20882,0.20883 -0.20882,0.10441 -0.35499,0.0417 -0.43853,-0.14617 -0.58469,-0.54293 -0.18794,-0.4594 -0.14617,-0.48029 -0.0835,-0.20882 v -0.31323 l 0.0835,-0.18793 0.25058,-0.18794 0.52205,-0.0627 0.29235,0.0835 z"
             style="fill:none;stroke:#000000;stroke-width:0.44197372;stroke-linecap:butt;stroke-linejoin:miter;stroke-miterlimit:4;stroke-dasharray:none;stroke-opacity:1" />
          <path
             inkscape:connector-curvature="0"
             id="path124"
             d="m 126.29014,249.74589 v 0 l -0.87876,-0.0691 v 0"
             style="fill:none;stroke:#000000;stroke-width:0.44197372;stroke-linecap:butt;stroke-linejoin:miter;stroke-miterlimit:4;stroke-dasharray:none;stroke-opacity:1" />
          <path
             inkscape:connector-curvature="0"
             id="path126"
             d="m 124.09582,249.76021 v 0 l -0.58469,0.10445 -0.60559,0.20881 -0.64733,0.14618 -0.37588,0.0209 -0.64733,-0.0209 -0.54294,-0.37587"
             style="fill:none;stroke:#000000;stroke-width:0.44197372;stroke-linecap:butt;stroke-linejoin:miter;stroke-miterlimit:4;stroke-dasharray:none;stroke-opacity:1" />
          <path
             inkscape:connector-curvature="0"
             id="path128"
             d="m 134.78738,258.61942 0.50638,0.0365 0.4855,-0.005"
             style="fill:none;stroke:#000000;stroke-width:0.44197372;stroke-linecap:butt;stroke-linejoin:miter;stroke-miterlimit:4;stroke-dasharray:none;stroke-opacity:1" />
          <path
             inkscape:connector-curvature="0"
             id="path130"
             d="m 154.33287,248.09492 -0.15139,-0.0835 -0.37066,-0.0522 -0.32889,0.0835 -0.37587,0.094 -0.42808,0.2036 -0.16384,0.0767"
             style="fill:none;stroke:#000000;stroke-width:0.44197372;stroke-linecap:butt;stroke-linejoin:miter;stroke-miterlimit:4;stroke-dasharray:none;stroke-opacity:1" />
          <path
             inkscape:connector-curvature="0"
             id="path132"
             d="m 158.27955,187.11442 2.17173,1.1694 2.67289,1.16938 0.7596,0.29389 2.7169,1.09267 2.68737,0.5611 2.09674,0.0295 2.65784,-0.91548 2.39205,-1.89002 1.94908,-1.44705 1.44704,-1.09267 0.35439,-0.4725"
             style="fill:none;stroke:#000000;stroke-width:0.44197372;stroke-linecap:butt;stroke-linejoin:miter;stroke-miterlimit:4;stroke-dasharray:none;stroke-opacity:1" />
          <path
             inkscape:connector-curvature="0"
             id="path134"
             d="m 156.75234,182.31789 0.76782,-1.62424 0.73829,-1.53564 1.74236,-1.56517 2.27393,-2.12626 2.18533,-0.79736 2.12627,-0.88594 2.39205,-0.47251 h 2.4216 l 2.51017,0.91548 1.97862,0.62017 1.83095,1.21078 1.47657,2.12628 0.85642,1.56517"
             style="fill:none;stroke:#000000;stroke-width:0.44197372;stroke-linecap:butt;stroke-linejoin:miter;stroke-miterlimit:4;stroke-dasharray:none;stroke-opacity:1" />
          <path
             inkscape:connector-curvature="0"
             id="path136"
             d="m 125.20256,185.81973 -2.08819,1.41998 -1.58703,0.83527 -1.67056,0.50117 -2.17172,0.66822 -1.54527,0.33411 -2.00465,0.16706 h -2.12996 l -1.83762,-0.45941 -2.04642,-0.79351 -1.33645,-0.87704 -1.00234,-1.29468 -1.29468,-1.5035"
             style="fill:none;stroke:#000000;stroke-width:0.44197372;stroke-linecap:butt;stroke-linejoin:miter;stroke-miterlimit:4;stroke-dasharray:none;stroke-opacity:1" />
          <path
             inkscape:connector-curvature="0"
             id="path138"
             d="m 126.37195,179.8475 -0.96057,-1.25291 -0.87704,-1.00234 -1.41997,-0.87704 -3.25759,-2.33878 -1.62879,-0.66822 -1.37821,-0.50117 -1.8376,-0.33411 -1.96291,0.25059 -2.0882,0.58469 -1.62878,0.79351 -1.96291,1.16939 -1.08586,0.91881 -1.0441,1.58703 -1.54526,1.8376"
             style="fill:none;stroke:#000000;stroke-width:0.44197372;stroke-linecap:butt;stroke-linejoin:miter;stroke-miterlimit:4;stroke-dasharray:none;stroke-opacity:1" />
          <path
             inkscape:connector-curvature="0"
             id="path140"
             d="m 166.54881,253.68605 -1.67056,2.67289 -1.5035,1.5035 -2.00467,1.75409 -6.43164,2.75641 -1.75407,1.25292 -2.58937,0.83527 -2.25525,0.5847 -2.93394,-0.0313"
             style="fill:none;stroke:#000000;stroke-width:0.44197372;stroke-linecap:butt;stroke-linejoin:miter;stroke-miterlimit:4;stroke-dasharray:none;stroke-opacity:1" />
          <path
             inkscape:connector-curvature="0"
             id="path142"
             d="m 118.35328,252.34961 1.00234,3.09053 1.5035,2.17172 1.33645,1.00233 2.00465,1.58703 2.42231,1.16939 3.09053,1.25291 1.92114,0.75175 2.17172,0.33412 2.00466,0.3341 1.61294,-0.0929"
             style="fill:none;stroke:#000000;stroke-width:0.44197372;stroke-linecap:butt;stroke-linejoin:miter;stroke-miterlimit:4;stroke-dasharray:none;stroke-opacity:1" />
          <path
             inkscape:connector-curvature="0"
             id="path144"
             d="m 139.01822,264.06868 0.91548,-0.14766 0.59064,0.0886 0.91547,0.23626 0.5611,0.0886 0.85641,0.23626 0.56111,0.17718 0.59062,0.0886"
             style="fill:none;stroke:#000000;stroke-width:0.44197372;stroke-linecap:butt;stroke-linejoin:miter;stroke-miterlimit:4;stroke-dasharray:none;stroke-opacity:1" />
          <path
             inkscape:connector-curvature="0"
             id="path1065"
             d="m 83.84314,247.90804 1.777795,-2.32573 2.011847,-2.88793"
             style="fill:none;stroke:#000000;stroke-width:0.44197372;stroke-linecap:butt;stroke-linejoin:miter;stroke-miterlimit:4;stroke-dasharray:none;stroke-opacity:1" />
          <path
             inkscape:connector-curvature="0"
             id="path1067"
             d="m 197.62114,250.01083 v 0 l -1.65359,-1.69859 -1.26988,-1.55899"
             style="fill:none;stroke:#000000;stroke-width:0.44197372;stroke-linecap:butt;stroke-linejoin:miter;stroke-miterlimit:4;stroke-dasharray:none;stroke-opacity:1" />
          <path
             inkscape:connector-curvature="0"
             id="path70-8"
             d="m 137.24744,168.01195 1.31141,3.67522 -0.0819,1.08586 -0.32785,1.16938 -0.90159,1.1694 -2.04908,0.33411 -2.4589,-0.33411 -3.19654,-2.33878 -2.37694,-1.33645 -3.27852,-2.00466 -2.37693,-1.67055 -1.5573,-1.33645 -1.88515,-1.41997 -2.95067,-1.5035 -2.04907,-0.5847 h -1.39338 l -1.63926,0.5847 -1.88515,1.08586 -1.39336,1.00233 -1.22945,0.83528 -1.22945,1.41997 -1.14749,1.75409 -1.31139,2.00466 -1.55731,1.08587 -0.491773,0.0835"
             style="fill:none;stroke:#000000;stroke-width:0.44197372;stroke-linecap:butt;stroke-linejoin:miter;stroke-miterlimit:4;stroke-dasharray:none;stroke-opacity:1" />
          <path
             inkscape:connector-curvature="0"
             id="path1147"
             d="m 137.03333,297.41311 c -5.10991,-0.39748 -11.99838,-2.41444 -14.83948,-4.34498 -0.99788,-0.67811 -5.45601,-4.76162 -9.90694,-9.07451 -4.45095,-4.31288 -9.60148,-9.30011 -11.4456,-11.08272 -5.848676,-5.65357 -9.746946,-14.95354 -12.942681,-30.87688 -0.299879,-1.4943 -0.752425,-2.7169 -1.005676,-2.7169 -0.26933,0 -0.333018,0.67905 -0.153418,1.63632 0.3372,1.79752 -0.636406,3.83203 -2.811863,5.87575 l -1.189157,1.11716 -2.329422,-1.95031 c -2.091057,-1.75073 -3.856318,-4.33952 -3.856318,-5.65536 0,-0.26806 -0.381291,-0.6084 -0.847317,-0.75631 -1.52495,-0.48399 -6.360417,-9.58197 -7.357253,-13.84271 -0.832139,-3.55667 -3.580014,-8.95847 -6.485549,-12.74934 -1.276013,-1.66482 -2.320044,-3.23144 -2.320044,-3.48135 0,-0.53226 -2.00169,-3.71712 -3.875729,-6.16662 -0.774904,-1.01289 -1.579393,-2.94925 -1.96307,-4.72504 -0.357557,-1.65487 -1.210063,-4.10287 -1.894432,-5.44 -0.684406,-1.33713 -1.244351,-2.57968 -1.244351,-2.76124 0,-0.51825 4.850388,0.25082 5.942929,0.9423 1.480515,0.93703 5.818761,2.12382 7.763525,2.12382 0.947273,0 3.994001,0.63788 6.770524,1.41751 2.776506,0.77963 5.418059,1.41754 5.870118,1.41758 0.768036,7e-5 0.816352,-1.18476 0.737283,-18.07329 l -0.08468,-18.07336 1.409772,-6.85132 c 1.21275,-5.89396 1.877434,-7.8747 4.756681,-14.17513 2.349134,-5.14041 4.611359,-9.15507 7.588158,-13.46638 3.860154,-5.59068 4.651755,-6.4478 8.81078,-9.53997 5.51955,-4.10367 13.80471,-7.97808 22.01929,-10.29692 13.11591,-3.70241 32.31021,-3.19555 44.969,1.18749 10.87497,3.7654 19.15132,9.01572 23.73188,15.05494 7.14015,9.41392 9.34419,12.85037 12.16623,18.96911 2.70354,5.86181 3.05195,6.99714 4.16417,13.56899 1.53298,9.05815 1.55875,14.75399 0.13375,29.56649 -0.59578,6.19284 -0.91055,11.3664 -0.6995,11.49684 0.67017,0.41419 4.24001,-0.37697 8.14533,-1.80519 2.07903,-0.76032 5.16213,-1.48598 6.85133,-1.61259 1.68918,-0.12661 4.1344,-0.31906 5.4338,-0.42768 l 2.36252,-0.19749 -2.12564,1.91553 c -1.1691,1.05354 -2.97643,2.34642 -4.01627,2.87307 -4.26774,2.16146 -8.98186,6.46633 -11.77684,10.75439 -1.71879,2.637 -1.97351,3.34784 -1.80138,5.02708 0.25263,2.46476 -0.40512,3.70274 -2.49395,4.69396 -0.90607,0.42996 -1.64739,0.97014 -1.64739,1.2004 0,0.55502 0.0836,0.54025 1.80576,-0.31889 2.45345,-1.22394 3.51971,-2.95867 3.25808,-5.3008 -0.17902,-1.60285 0.003,-2.33755 0.87836,-3.54378 0.60731,-0.83694 1.41587,-2.19915 1.79679,-3.02713 0.77963,-1.69456 7.51922,-7.27743 10.52519,-8.71876 1.95092,-0.93541 4.63006,-3.23863 6.65729,-5.72313 0.58301,-0.71451 1.29273,-1.2991 1.57718,-1.2991 0.77159,0 0.0366,3.91626 -0.8425,4.48879 -2.39757,1.56154 -2.62574,1.94855 -2.74614,4.65762 -0.0749,1.68533 -0.40849,3.02548 -0.88383,3.55071 -0.41991,0.46401 -0.7635,1.40455 -0.7635,2.0901 0,0.79448 -0.59963,1.84606 -1.65376,2.90019 -0.90955,0.90957 -1.65376,2.00032 -1.65376,2.42389 0,0.42357 -0.85463,1.74104 -1.89917,2.92772 -1.74469,1.98205 -2.52362,3.81816 -3.4972,8.24369 -0.21652,0.98428 -0.63844,1.3457 -1.83241,1.56969 -1.44263,0.27064 -1.53798,0.40341 -1.36344,1.89843 0.10576,0.90583 -0.22513,2.69558 -0.75807,4.10038 -0.52015,1.37111 -1.19286,3.55171 -1.49496,4.84578 -0.43268,1.85352 -1.19629,3.05688 -3.59796,5.67006 -5.22193,5.68177 -5.80833,6.42915 -6.10531,7.78128 -0.38428,1.74959 -1.92109,3.3359 -3.21325,3.31674 -0.63916,-0.009 -1.7377,-0.8261 -2.82992,-2.10367 l -1.78518,-2.08816 0.88585,-2.50326 c 0.48722,-1.37679 1.04752,-2.87536 1.2451,-3.33014 0.64108,-1.47546 -0.44762,-0.87303 -1.28085,0.70876 -1.2618,2.39542 -2.22538,7.31463 -2.24439,11.45823 -0.0122,2.62119 -0.28149,4.35946 -0.87891,5.67005 -1.22009,2.67661 -4.16291,7.21983 -6.15933,9.50901 -2.70036,3.09632 -4.85334,5.81834 -7.0208,8.87642 -2.87275,4.05319 -14.01008,14.06455 -17.70004,15.91061 -1.63164,0.81628 -3.28556,1.75909 -3.67537,2.09512 -0.38982,0.33605 -2.07433,1.16269 -3.74337,1.83698 -2.66291,1.07582 -3.64681,1.21707 -8.03258,1.15329 -2.74888,-0.04 -7.01792,-0.22982 -9.48676,-0.42186 z m 7.89543,-30.85996 c 0.67609,-0.85951 1.46702,-1.16423 3.45996,-1.33302 2.95482,-0.25026 12.98703,-4.81148 15.25609,-6.93631 1.682,-1.57509 3.36659,-4.26628 2.9385,-4.69437 -0.17905,-0.17907 -0.54912,0.0739 -0.82233,0.56207 -1.51359,2.70462 -4.08964,4.71865 -9.11146,7.12359 -2.88977,1.38392 -6.05624,2.73768 -7.03661,3.00837 -1.7066,0.47121 -3.32256,0.2908 -3.03134,-0.33844 0.0759,-0.1641 0.52994,-1.2834 1.00886,-2.48733 0.86408,-2.17218 0.89668,-2.19517 4.25253,-2.99821 4.33003,-1.03614 10.80613,-4.04019 11.81503,-5.48058 1.35811,-1.93896 0.9637,-2.93582 -2.43382,-6.15134 -3.62357,-3.42943 -5.23323,-4.1193 -10.56412,-4.5275 -3.1646,-0.24235 -3.8251,-0.15025 -5.25332,0.73244 -2.0671,1.27753 -4.33141,1.28138 -7.20051,0.0122 -2.03347,-0.8995 -2.61414,-0.95151 -5.91664,-0.52991 -6.2551,0.79853 -9.52408,2.89879 -12.43298,7.98796 -0.35341,0.61832 4.59792,5.82446 5.53939,5.82446 0.32238,0 1.30665,0.53157 2.18725,1.18126 0.88062,0.64969 2.25084,1.1836 3.04497,1.18646 3.43882,0.0124 4.88049,0.5228 5.14251,1.82068 0.13829,0.68497 0.40837,1.65134 0.6002,2.1475 0.32321,0.83609 0.17215,0.88119 -2.06437,0.61631 -3.08076,-0.36488 -8.92223,-2.79025 -11.54673,-4.79421 -2.00223,-1.52881 -2.6461,-2.42756 -3.74626,-5.22928 -0.42931,-1.09324 -0.60207,-1.22581 -0.75528,-0.57954 -0.35489,1.49687 1.66677,4.79931 4.05113,6.61764 2.99972,2.28762 8.33842,4.46538 11.94779,4.87373 2.61071,0.29537 2.9144,0.44765 3.3426,1.67597 0.63694,1.82709 1.79606,1.77041 1.79606,-0.0879 0,-1.4046 0.0423,-1.4313 1.77189,-1.11921 2.35047,0.42412 2.38976,0.45808 2.12594,1.83809 -0.28661,1.49935 0.48811,1.53645 1.63507,0.0783 z M 79.366495,223.04676 c 0.01167,-0.50267 0.458397,-1.81685 0.99262,-2.92042 l 0.971316,-2.00646 -0.961841,-1.88534 c -0.529016,-1.03694 -1.937215,-2.87474 -3.129359,-4.08401 -1.192145,-1.20928 -2.549269,-3.08659 -3.015825,-4.17183 -0.561289,-1.30557 -1.775913,-2.69253 -3.590056,-4.09942 -1.50797,-1.16945 -3.457922,-2.81731 -4.333234,-3.66191 -0.875293,-0.8446 -2.062779,-1.54155 -2.638848,-1.54878 -0.57606,-0.007 -1.882596,-0.64511 -2.903422,-1.41752 -1.020854,-0.7724 -2.108454,-1.40437 -2.416943,-1.40437 -0.308488,0 -1.132292,-0.44948 -1.830725,-0.99887 -0.698425,-0.54938 -1.39913,-0.86962 -1.557091,-0.71165 -0.471498,0.4715 1.257238,2.07437 2.601006,2.41163 0.687198,0.17248 2.095495,0.9358 3.129589,1.69626 1.034069,0.76047 2.265434,1.38267 2.736348,1.38267 0.470932,0 1.480276,0.58473 2.242999,1.29939 0.762723,0.71466 2.680005,2.33433 4.260644,3.59926 2.054851,1.64443 3.217065,3.02533 4.078154,4.8455 0.662341,1.40009 1.624889,2.77073 2.138949,3.04586 0.514086,0.27513 1.682355,1.66901 2.596162,3.09754 l 1.661495,2.5973 -0.920313,1.76564 c -0.506158,0.9711 -1.0496,2.92503 -1.207649,4.34208 -0.278833,2.49999 -0.267138,2.53438 0.393683,1.15893 0.374555,-0.77964 0.690619,-1.8288 0.702341,-2.33148 z m 54.007845,1.74313 c 1.21124,-1.08696 0.66987,-1.25434 -1.09886,-0.3397 -1.311,0.67795 -1.82333,0.71077 -3.46955,0.22229 -2.47609,-0.73471 -2.98286,-1.17125 -3.36162,-2.89568 -0.40624,-1.84963 1.4626,-7.18428 3.14937,-8.98998 1.4301,-1.5309 3.42327,-1.78416 4.1282,-0.52452 0.25329,0.45262 0.59658,0.68691 0.76284,0.52065 0.77636,-0.77636 2.58718,-7.11858 2.87943,-10.08493 0.42809,-4.3449 -0.24002,-3.63891 -0.99112,1.04731 -0.80737,5.03723 -1.75764,7.22774 -2.99513,6.90412 -1.63093,-0.42649 -4.21665,0.74325 -5.20698,2.3556 -0.50865,0.82806 -1.387,2.88383 -1.95195,4.56835 -0.85962,2.56326 -0.94262,3.34488 -0.50889,4.79251 0.94977,3.17009 6.19696,4.63808 8.66426,2.42398 z m 12.72367,-0.0846 c 0.88918,-0.60927 2.06977,-1.79895 2.62354,-2.64374 1.17311,-1.7896 2.20566,-6.51165 1.36274,-6.23213 -0.29127,0.0966 -0.64431,1.01761 -0.78449,2.04672 -0.33167,2.43428 -1.99386,5.0824 -3.94845,6.2904 -3.0303,1.87283 -7.96569,1.20006 -10.48448,-1.42918 -1.24034,-1.29474 -1.37389,-1.74006 -1.34293,-4.47786 0.0371,-3.28194 -0.45255,-4.02853 -0.93955,-1.43254 -0.38459,2.04995 0.33105,5.26349 1.45317,6.52552 2.55895,2.87801 8.81109,3.5793 12.06045,1.35281 z m 7.66766,-0.0146 c 1.01664,-0.23581 2.50502,-1.08533 3.30752,-1.88784 1.31823,-1.31822 1.45909,-1.74333 1.45909,-4.40316 0,-6.2909 -4.37917,-11.32249 -7.30657,-8.3951 -0.51028,0.51027 -1.01372,0.77606 -1.11875,0.59063 -0.10506,-0.18542 -0.46823,-2.07997 -0.80705,-4.21008 -0.60062,-3.77606 -0.4436,-6.74861 0.81604,-15.44611 0.46107,-3.18368 -0.60068,-1.48957 -1.21167,1.93328 -0.94276,5.2816 -0.8871,12.59739 0.12957,17.03139 0.49159,2.14399 1.05879,3.89816 1.26041,3.89816 0.20165,0 0.5071,-0.63965 0.67881,-1.42144 0.38974,-1.77441 1.83545,-2.6424 3.29417,-1.97777 1.30663,0.59534 3.13544,4.37063 3.45473,7.13175 0.26863,2.32309 -0.68222,4.62195 -2.33993,5.65721 -0.54133,0.33806 -2.55233,0.73326 -4.46891,0.8782 -1.91658,0.14495 -3.48468,0.44548 -3.48468,0.66785 0,0.52894 3.98146,0.49943 6.33722,-0.0469 z m 18.75311,-33.18154 c 1.70072,-0.59033 7.98496,-5.06917 7.98496,-5.69097 0,-0.7242 -0.75559,-0.32181 -3.72794,1.98529 -1.66056,1.2889 -3.73573,2.57993 -4.61154,2.86896 -2.10585,0.695 -5.28338,0.006 -9.97776,-2.16265 -1.97685,-0.91337 -3.79628,-1.59334 -4.04315,-1.51105 -0.69106,0.23036 1.44281,1.44853 5.35023,3.05431 4.98766,2.0497 6.57652,2.30604 9.0252,1.4561 z m -53.88076,-2.08619 c 3.14839,-0.92457 7.11775,-3.01544 6.77558,-3.56906 -0.13852,-0.22416 -1.14228,0.107 -2.23052,0.73593 -2.58914,1.49632 -6.58479,2.64178 -9.21527,2.64178 -3.27746,0 -5.63516,-0.93128 -7.67293,-3.03078 -1.16598,-1.20129 -1.86434,-1.64759 -1.86434,-1.19147 0,1.10429 2.95446,3.73674 5.02026,4.4731 2.46465,0.87852 6.07258,0.85515 9.18722,-0.0595 z m 55.35566,-1.19693 c 1.98109,-1.00279 5.09255,-3.59553 5.09255,-4.24356 0,-0.2344 -1.25082,-1.70846 -2.77959,-3.27567 -3.00905,-3.08469 -4.5126,-3.76031 -8.36838,-3.76031 -2.69518,0 -4.75146,1.20253 -8.28851,4.84721 l -1.93089,1.98966 1.6659,1.42474 c 1.4915,1.27556 6.58114,3.62265 9.07012,4.18267 1.36977,0.30819 3.52374,-0.14475 5.5388,-1.16474 z m -51.71035,-2.95666 c 3.2057,-1.59379 3.40436,-1.78031 2.90007,-2.7226 -1.13735,-2.12511 -4.54706,-5.31568 -6.81398,-6.37601 -3.17038,-1.48292 -5.23538,-1.42382 -7.82195,0.22387 -2.35022,1.49714 -5.64443,4.94514 -5.64443,5.90795 0,0.76888 3.22321,3.41445 5.31709,4.36421 1.06786,0.48437 2.61144,0.6378 5.078,0.50474 2.88972,-0.15588 4.17898,-0.50696 6.9852,-1.90216 z m 35.50948,-3.99619 c 1.00925,-2.43651 4.7349,-5.54657 7.94705,-6.63392 3.56216,-1.20582 4.45967,-1.23163 7.47403,-0.21484 3.10494,1.04734 4.2454,1.83543 5.43005,3.75222 1.40399,2.27173 2.14333,2.00178 0.84489,-0.30848 -1.2172,-2.16572 -2.82819,-3.27743 -6.45514,-4.4546 -4.0162,-1.30347 -9.70661,0.27679 -13.25599,3.68127 -2.33388,2.23863 -4.09175,5.52171 -2.95649,5.52171 0.22833,0 0.66557,-0.60451 0.9716,-1.34336 z m -52.1603,-2.93903 c 2.51705,-3.63212 7.57445,-5.60962 11.40108,-4.45798 2.37036,0.71338 6.90235,3.67185 8.25199,5.38687 0.49135,0.6244 1.01395,1.01471 1.16132,0.86735 0.57693,-0.57693 -0.86856,-2.2375 -3.6978,-4.24804 -5.20881,-3.7015 -8.56663,-4.15273 -13.36805,-1.79641 -2.02896,0.9957 -3.28353,2.01757 -4.37068,3.55991 -1.62833,2.31015 -1.75593,2.6082 -1.11661,2.6082 0.22455,0 1.00696,-0.86396 1.73875,-1.9199 z m 32.46395,-3.80393 c 0.4548,-0.54776 0.8269,-1.42612 0.8269,-1.9519 0,-1.49564 -1.04531,-4.60939 -1.54742,-4.60939 -0.24906,0 -0.31062,0.47841 -0.13683,1.06313 0.93243,3.13714 0.86744,4.46354 -0.25733,5.25135 -1.31023,0.91773 -2.63737,0.97519 -4.05265,0.17549 -3.59148,-2.02937 -10.71725,-6.71892 -12.69451,-8.3544 -2.74407,-2.26972 -6.94035,-3.99321 -8.69095,-3.56953 -2.70828,0.65545 -6.28296,3.32366 -8.38725,6.26039 -1.16367,1.62399 -2.46753,3.14959 -2.89751,3.39023 -0.429987,0.24062 -0.654536,0.56477 -0.498979,0.72032 0.633669,0.63366 1.983629,-0.4818 3.774309,-3.11869 1.93215,-2.8452 5.62189,-5.73075 8.09269,-6.32883 1.63474,-0.39572 5.85871,1.63775 10.60474,5.10524 4.2464,3.10246 9.83232,6.62678 11.17917,7.0533 1.60522,0.50833 3.78012,0.004 4.68562,-1.08671 z m 15.65527,-0.84062 c 1.07003,-0.73464 3.54596,-2.30788 5.50207,-3.49607 1.95608,-1.1882 4.40129,-2.83385 5.43379,-3.65699 2.69191,-2.14609 5.37309,-3.41254 7.33343,-3.46393 2.59608,-0.0681 6.65333,2.61434 8.98762,5.94205 1.76551,2.51696 3.52444,4.06002 4.04012,3.54434 0.11633,-0.11634 -0.48659,-0.95482 -1.33987,-1.86328 -0.85326,-0.90846 -2.35439,-2.6273 -3.33588,-3.81963 -1.15389,-1.4018 -2.84375,-2.68935 -4.78192,-3.64351 -4.25075,-2.09264 -4.65588,-1.95895 -15.06942,4.9726 -10.00463,6.65937 -11.67221,7.32732 -13.56573,5.4338 -1.1304,-1.13038 -1.15956,-1.63561 -0.24426,-4.22984 0.50868,-1.4418 0.54449,-1.93404 0.13059,-1.79608 -1.00541,0.33514 -1.92324,4.19796 -1.35062,5.68422 0.99436,2.58083 4.80848,2.76199 8.26008,0.39232 z"
             style="opacity:1;fill:#ecf6ff;fill-opacity:1;fill-rule:nonzero;stroke:#000000;stroke-width:1.06957638;stroke-linejoin:round;stroke-miterlimit:4;stroke-dasharray:none;stroke-dashoffset:0;stroke-opacity:1" />
          <path
             inkscape:connector-curvature="0"
             id="path1149"
             d="m 168.0065,184.06426 c -0.4085,-0.35868 -0.42745,-0.4077 -0.3737,-0.96704 0.0677,-0.70456 0.33313,-0.96922 1.08514,-1.082 0.96377,-0.14452 1.47753,0.33804 1.48082,1.39087 0.003,0.53258 -0.0202,0.56984 -0.46608,0.79735 -0.69505,0.35459 -1.2112,0.31297 -1.72618,-0.13918 z"
             style="opacity:1;fill:#000000;fill-opacity:0.83076926;fill-rule:nonzero;stroke:#000000;stroke-width:0.22323044;stroke-linejoin:round;stroke-miterlimit:4;stroke-dasharray:none;stroke-dashoffset:0;stroke-opacity:1" />
          <path
             inkscape:connector-curvature="0"
             id="path1151"
             d="m 114.06403,181.89543 c -0.66992,-0.36356 -0.77451,-1.21937 -0.22137,-1.81152 0.66378,-0.71056 1.78126,-0.36119 1.96423,0.61411 0.20443,1.08972 -0.74247,1.7403 -1.74286,1.19741 z"
             style="opacity:1;fill:#000000;fill-opacity:0.83076926;fill-rule:nonzero;stroke:#000000;stroke-width:0.22323044;stroke-linejoin:round;stroke-miterlimit:4;stroke-dasharray:none;stroke-dashoffset:0;stroke-opacity:1" />
          <path
             inkscape:connector-curvature="0"
             id="path1153"
             d="m 167.93501,188.52216 c -0.62882,-0.16013 -1.79826,-0.58063 -2.59878,-0.93443 -0.80052,-0.3538 -1.93389,-0.84028 -2.5186,-1.08108 -0.65926,-0.27149 -1.56182,-0.79085 -2.37576,-1.36708 -1.53929,-1.08975 -1.65181,-1.20081 -1.41545,-1.39699 0.093,-0.0771 0.38452,-0.47106 0.64798,-0.87544 0.26564,-0.40773 0.8356,-1.0307 1.27955,-1.39857 0.44029,-0.36484 1.25019,-1.07217 1.7998,-1.57185 1.63324,-1.48489 3.44451,-2.42408 4.67499,-2.42408 0.51198,0 3.16815,0.38268 4.21604,0.60742 1.39344,0.29883 2.47669,1.07544 3.56135,2.55321 0.73887,1.00667 1.15767,1.43634 2.59695,2.66448 0.36644,0.31266 0.66625,0.61398 0.66625,0.66959 0,0.0556 -0.19936,0.22217 -0.44298,0.37015 -0.24364,0.14797 -0.90939,0.7052 -1.47947,1.23829 -0.70144,0.65594 -1.35048,1.13261 -2.00779,1.47459 -0.53423,0.27793 -1.21068,0.6755 -1.50323,0.88348 -1.16506,0.8283 -3.22541,1.06593 -5.10085,0.58831 z m 2.81655,-0.77773 c 1.80144,-0.87595 2.85381,-2.55333 2.87045,-4.57515 0.009,-1.10975 -0.88607,-2.81231 -1.89477,-3.60368 -1.78114,-1.39737 -3.65876,-1.44223 -5.73016,-0.13689 -0.7398,0.4662 -0.98949,0.77731 -1.51871,1.89224 -0.75302,1.58643 -0.77072,2.78427 -0.0619,4.18428 0.5062,0.99977 1.06255,1.56326 2.02667,2.05261 1.50699,0.76491 2.98721,0.82901 4.30841,0.18659 z"
             style="opacity:1;fill:#ff0000;fill-opacity:0.83076926;fill-rule:nonzero;stroke:#000000;stroke-width:0.22323044;stroke-linejoin:round;stroke-miterlimit:4;stroke-dasharray:none;stroke-dashoffset:0;stroke-opacity:1" />
          <path
             inkscape:connector-curvature="0"
             id="path1155"
             d="m 112.12276,186.44509 c -1.37348,-0.24329 -3.36011,-1.27257 -4.78827,-2.48084 -0.5341,-0.45185 -1.0069,-0.82155 -1.05071,-0.82155 -0.0438,0 -0.21779,-0.18117 -0.38666,-0.4026 l -0.30709,-0.4026 0.31654,-0.57194 c 0.34765,-0.62816 1.88725,-2.40426 2.74272,-3.16406 0.97404,-0.86506 2.52832,-1.91628 3.43317,-2.32196 0.79324,-0.35563 1.01861,-0.40161 2.15382,-0.43933 1.17374,-0.039 1.35355,-0.0137 2.42159,0.34044 1.92194,0.63731 3.97475,1.93057 5.33139,3.35876 0.68416,0.72023 2.81948,3.69914 2.70681,3.77615 -0.31773,0.21715 -3.39731,1.63241 -3.87229,1.77957 -0.35732,0.11071 -0.89042,0.35259 -1.18467,0.53749 -0.95391,0.59949 -2.24925,0.84189 -4.72164,0.88357 -1.20192,0.0202 -2.45955,-0.0118 -2.79471,-0.0711 z m 3.68497,-0.52354 c 1.57228,-0.30084 2.48575,-1.0589 3.20607,-2.66072 0.44572,-0.99116 0.4513,-1.02183 0.43372,-2.38393 -0.0178,-1.37337 -0.0199,-1.3828 -0.43912,-2.00814 -0.89384,-1.33298 -1.77876,-2.00866 -3.01037,-2.29854 -1.25973,-0.2965 -2.26072,-0.15821 -3.62025,0.50015 -0.593,0.28716 -0.80256,0.47827 -1.28301,1.1701 -0.95004,1.36796 -1.15768,1.93984 -1.22234,3.36659 l -0.0562,1.24033 0.45389,0.73597 c 0.6138,0.99528 1.27622,1.76477 1.71411,1.99121 0.46759,0.24181 1.65835,0.4999 2.36176,0.51189 0.30291,0.005 0.96068,-0.069 1.46174,-0.16491 z"
             style="opacity:1;fill:#ff0000;fill-opacity:0.83076926;fill-rule:nonzero;stroke:#000000;stroke-width:0.22323044;stroke-linejoin:round;stroke-miterlimit:4;stroke-dasharray:none;stroke-dashoffset:0;stroke-opacity:1" />
          <path
             inkscape:connector-curvature="0"
             id="path1157"
             d="m 112.85027,185.3161 c -0.69103,-0.202 -1.57736,-1.06771 -2.12693,-2.07741 -0.29047,-0.5337 -0.33638,-0.74477 -0.32855,-1.50994 0.0115,-1.10989 0.25121,-1.81993 0.97721,-2.89283 0.68863,-1.01772 0.82124,-1.13311 1.71452,-1.49197 1.01222,-0.40666 2.68739,-0.39979 3.54378,0.0145 0.67967,0.3288 1.36688,0.97987 1.92841,1.827 0.38939,0.58744 0.39131,0.59735 0.35374,1.83096 -0.0339,1.11643 -0.0768,1.32291 -0.42871,2.06721 -0.83626,1.76863 -1.99777,2.43507 -4.20613,2.41335 -0.46017,-0.004 -1.1025,-0.0859 -1.42734,-0.18088 z m 3.0338,-3.08001 c 1.09742,-1.05141 0.28439,-3.10968 -1.22835,-3.10968 -0.85968,0 -1.74639,0.91149 -1.74639,1.79518 0,1.41856 1.96144,2.28528 2.97474,1.3145 z"
             style="opacity:1;fill:#ffff00;fill-opacity:0.83076926;fill-rule:nonzero;stroke:#000000;stroke-width:0.22323044;stroke-linejoin:round;stroke-miterlimit:4;stroke-dasharray:none;stroke-dashoffset:0;stroke-opacity:1" />
          <path
             inkscape:connector-curvature="0"
             id="path1159"
             d="m 167.80892,187.50926 c -0.63125,-0.15711 -1.74893,-0.74297 -2.11418,-1.10822 -0.42465,-0.42464 -1.13776,-1.8105 -1.23071,-2.39173 -0.11074,-0.69252 0.14407,-1.74525 0.66739,-2.75731 0.36921,-0.714 0.57345,-0.96191 1.04897,-1.27321 0.89949,-0.58885 1.63621,-0.86347 2.51542,-0.93763 0.74712,-0.063 0.85501,-0.0396 1.66784,0.36211 1.06867,0.52818 1.66092,1.09034 2.19935,2.08768 0.38654,0.71596 0.41322,0.83501 0.40964,1.82894 -0.004,0.91478 -0.0512,1.16684 -0.34316,1.80632 -0.38993,0.85391 -1.25724,1.72207 -2.1535,2.15563 -0.63651,0.30792 -1.90796,0.41633 -2.66706,0.22742 z m 2.07689,-2.72846 c 0.28516,-0.13855 0.60553,-0.39924 0.7119,-0.57932 0.39235,-0.66419 0.16975,-1.79267 -0.46326,-2.34845 -0.3657,-0.3211 -0.49929,-0.36409 -1.13101,-0.36409 -1.20749,0 -1.7718,0.43997 -1.94379,1.51555 -0.10131,0.63363 0.0956,1.10209 0.63968,1.52167 0.73964,0.57043 1.38241,0.64529 2.18648,0.25464 z"
             style="opacity:1;fill:#ffff00;fill-opacity:0.83076926;fill-rule:nonzero;stroke:#000000;stroke-width:0.22323044;stroke-linejoin:round;stroke-miterlimit:4;stroke-dasharray:none;stroke-dashoffset:0;stroke-opacity:1" />
          <path
             inkscape:connector-curvature="0"
             id="path1161"
             d="m 138.49175,266.05316 c -0.0832,-0.17339 -0.38574,-0.97303 -0.67233,-1.77698 -0.28658,-0.80396 -0.61651,-1.64979 -0.73317,-1.87961 -0.43395,-0.85499 -0.88681,-2.51903 -1.02286,-3.75852 -0.13998,-1.27525 -0.31548,-2.2854 -0.75711,-4.35779 -0.31089,-1.45899 -0.33756,-1.92513 -0.20446,-3.57734 0.11427,-1.4187 0.15211,-1.60538 0.33529,-1.65327 0.0858,-0.0224 0.20897,-0.1671 0.27352,-0.32141 0.10171,-0.24321 0.1923,-0.30491 0.68011,-0.46322 0.59614,-0.19347 0.76477,-0.18342 0.83886,0.05 0.0603,0.19005 0.60258,0.44455 0.80819,0.3793 0.12156,-0.0385 0.30682,0.0854 0.74452,0.49833 0.32048,0.30233 0.61959,0.54968 0.66466,0.54968 0.28699,0 -0.127,2.59113 -0.59685,3.73593 -0.1843,0.44898 -0.36701,1.00428 -0.40602,1.23398 -0.096,0.56538 0.0532,6.1573 0.21283,7.9769 0.15948,1.81736 0.19127,3.33361 0.0741,3.53107 -0.0776,0.13073 -0.1058,0.11105 -0.23923,-0.16706 z"
             style="opacity:1;fill:#e5e1a6;fill-opacity:0.83076926;fill-rule:nonzero;stroke:#000000;stroke-width:0.15784776;stroke-linejoin:round;stroke-miterlimit:4;stroke-dasharray:none;stroke-dashoffset:0;stroke-opacity:1" />
          <path
             inkscape:connector-curvature="0"
             id="path1163"
             d="m 132.33133,254.35725 c -0.38536,-0.69287 -0.4907,-0.98326 -0.94741,-2.61209 -0.70657,-2.51984 -0.62446,-3.28461 0.39988,-3.72449 0.3351,-0.14389 0.47896,-0.16029 0.9005,-0.10264 0.62083,0.0849 0.92782,0.23877 1.17904,0.59102 0.16216,0.22733 0.19453,0.37699 0.19453,0.89918 0,0.52972 -0.0416,0.71674 -0.26993,1.21115 -0.14844,0.32158 -0.30495,0.81022 -0.34779,1.08586 -0.18865,1.21378 -0.6191,3.29935 -0.68096,3.29935 -0.0373,0 -0.22986,-0.2913 -0.42786,-0.64734 z"
             style="opacity:1;fill:#e5e1a6;fill-opacity:0.83076926;fill-rule:nonzero;stroke:#000000;stroke-width:0.15784776;stroke-linejoin:round;stroke-miterlimit:4;stroke-dasharray:none;stroke-dashoffset:0;stroke-opacity:1" />
          <path
             inkscape:connector-curvature="0"
             id="path1165"
             d="m 128.50326,253.20823 c -0.64009,-0.34115 -1.92291,-2.44691 -1.91929,-3.15057 0.004,-0.74663 0.63928,-1.57144 1.32927,-1.72538 0.48242,-0.10763 0.60761,-0.0318 0.84025,0.5088 0.17721,0.41178 0.18516,0.50156 0.11682,1.3189 -0.0403,0.48238 -0.0636,1.31371 -0.0517,1.84741 0.0119,0.5337 -0.007,1.04727 -0.0424,1.14125 -0.0577,0.15395 -0.0847,0.15985 -0.27286,0.0596 z"
             style="opacity:1;fill:#e5e1a6;fill-opacity:0.83076926;fill-rule:nonzero;stroke:#000000;stroke-width:0.15784776;stroke-linejoin:round;stroke-miterlimit:4;stroke-dasharray:none;stroke-dashoffset:0;stroke-opacity:1" />
          <path
             inkscape:connector-curvature="0"
             id="path1167"
             d="m 125.41274,251.605 c -0.32844,-0.11872 -0.75246,-0.65675 -0.91563,-1.16183 -0.19691,-0.60951 -0.16559,-0.75375 0.1801,-0.82968 0.36451,-0.0801 0.47505,0.0781 0.61508,0.88023 0.0667,0.38216 0.17461,0.80168 0.23977,0.93229 0.11989,0.24033 0.10639,0.26058 -0.11932,0.17899 z"
             style="opacity:1;fill:#e5e1a6;fill-opacity:0.83076926;fill-rule:nonzero;stroke:#000000;stroke-width:0.15784776;stroke-linejoin:round;stroke-miterlimit:4;stroke-dasharray:none;stroke-dashoffset:0;stroke-opacity:1" />
          <path
             inkscape:connector-curvature="0"
             id="path1169"
             d="m 143.9559,266.71725 c 0,-0.14076 0.43143,-2.51523 0.54977,-3.02577 0.15782,-0.68096 0.43336,-2.53469 0.54002,-3.63346 0.20528,-2.11411 0.23906,-3.40929 0.1209,-4.63579 -0.1364,-1.4159 -0.2535,-1.88845 -0.70858,-2.85957 -0.22892,-0.48852 -0.33533,-0.83013 -0.33594,-1.07855 0,-0.19995 -0.0593,-0.5515 -0.13071,-0.78119 -0.0714,-0.22972 -0.15937,-0.5964 -0.19551,-0.81487 l -0.0657,-0.39722 0.3971,-0.24434 c 0.32049,-0.1972 0.58801,-0.2709 1.38669,-0.38196 1.03574,-0.14405 1.39917,-0.12642 1.95185,0.0947 0.30927,0.12375 0.34501,0.17316 0.49739,0.68791 0.0903,0.30502 0.24507,0.98684 0.34393,1.51515 0.17546,0.93775 0.17736,1.0267 0.0798,3.74325 l -0.1,2.78267 -0.49927,1.43548 c -0.54802,1.57569 -2.46663,5.59984 -3.30281,6.92743 -0.44007,0.69867 -0.52894,0.81059 -0.52894,0.66611 z"
             style="opacity:1;fill:#e5e1a6;fill-opacity:0.83076926;fill-rule:nonzero;stroke:#000000;stroke-width:0.15784776;stroke-linejoin:round;stroke-miterlimit:4;stroke-dasharray:none;stroke-dashoffset:0;stroke-opacity:1" />
          <path
             inkscape:connector-curvature="0"
             id="path1171"
             d="m 150.15583,254.60783 c 0.0261,-0.38343 -0.0368,-1.02463 -0.1964,-2.0042 -0.32982,-2.02352 -0.38314,-3.01701 -0.19619,-3.6548 0.19001,-0.64813 0.32842,-0.85054 0.71726,-1.04891 0.47199,-0.24079 0.78255,-0.20825 1.24376,0.1303 0.40812,0.29959 0.64651,0.67956 0.72311,1.15258 0.0238,0.14696 0.003,0.88322 -0.0469,1.63615 l -0.0901,1.36896 -0.40921,0.85667 c -0.4652,0.97384 -0.98813,1.71263 -1.38654,1.95886 -0.14968,0.0925 -0.3003,0.16821 -0.33468,0.16821 -0.0344,0 -0.0453,-0.25372 -0.0242,-0.56382 z"
             style="opacity:1;fill:#e5e1a6;fill-opacity:0.83076926;fill-rule:nonzero;stroke:#000000;stroke-width:0.15784776;stroke-linejoin:round;stroke-miterlimit:4;stroke-dasharray:none;stroke-dashoffset:0;stroke-opacity:1" />
          <path
             inkscape:connector-curvature="0"
             id="path1173"
             d="m 154.41114,252.51964 c 0.0385,-0.26416 0.0645,-1.27179 0.0581,-2.23917 -0.0122,-1.81089 0.0271,-2.07214 0.32436,-2.15424 0.0804,-0.0222 0.32815,-0.0651 0.55043,-0.0954 0.35526,-0.0483 0.44474,-0.0269 0.73954,0.17741 0.38817,0.269 0.48509,0.47319 0.48509,1.02198 0,0.61119 -0.5073,2.01125 -0.95721,2.64175 -0.36357,0.50949 -1.0151,1.12797 -1.18824,1.12797 -0.0521,0 -0.0564,-0.1749 -0.0119,-0.48028 z"
             style="opacity:1;fill:#e5e1a6;fill-opacity:0.83076926;fill-rule:nonzero;stroke:#000000;stroke-width:0.15784776;stroke-linejoin:round;stroke-miterlimit:4;stroke-dasharray:none;stroke-dashoffset:0;stroke-opacity:1" />
          <path
             inkscape:connector-curvature="0"
             id="path1175"
             d="m 158.1251,248.97807 -0.28406,-1.07631"
             style="fill:none;stroke:#000000;stroke-width:0.44197372;stroke-linecap:butt;stroke-linejoin:miter;stroke-miterlimit:4;stroke-dasharray:none;stroke-opacity:1" />
          <path
             inkscape:connector-curvature="0"
             id="path1177"
             d="m 159.45404,249.03713 0.11814,-1.32892"
             style="fill:none;stroke:#000000;stroke-width:0.44197372;stroke-linecap:butt;stroke-linejoin:miter;stroke-miterlimit:4;stroke-dasharray:none;stroke-opacity:1" />
          <path
             inkscape:connector-curvature="0"
             id="path1253"
             d="m 158.50249,249.98616 c 0.0261,-0.4466 0.0237,-0.46264 -0.17019,-1.17744 -0.14428,-0.5318 -0.18425,-0.73703 -0.15016,-0.77111 0.0274,-0.0274 0.27055,-0.0535 0.59333,-0.0635 l 0.5469,-0.0171 -0.024,0.16169 c -0.0134,0.0889 -0.0356,0.31205 -0.0499,0.49581 -0.0422,0.54655 -0.17202,1.32589 -0.24719,1.48341 -0.0662,0.13883 -0.0994,0.16087 -0.49152,0.32668 -0.0185,0.008 -0.0217,-0.1895 -0.007,-0.43852 z"
             style="opacity:1;fill:#e5e1a6;fill-opacity:0.83076926;fill-rule:nonzero;stroke:#000000;stroke-width:0.07892388;stroke-linejoin:round;stroke-miterlimit:4;stroke-dasharray:none;stroke-dashoffset:0;stroke-opacity:1" />
          <path
             inkscape:connector-curvature="0"
             id="path1327"
             d="m 148.78064,257.84074 c 0.0605,-0.24111 0.11831,-1.87616 0.12846,-3.63346 0.0152,-2.63243 -0.0361,-3.39642 -0.29174,-4.33828 -0.31755,-1.17034 -0.27417,-1.37651 0.3102,-1.47397 0.25668,-0.0428 0.31919,0.0217 0.2698,0.27838 -0.13533,0.70298 -0.0306,2.58334 0.22651,4.06494 0.14727,0.84884 0.22581,1.61127 0.17447,1.6943 -0.0513,0.083 -0.0457,0.44857 0.0124,0.81231 0.10335,0.64622 0.11746,0.658 0.61749,0.51459 0.76288,-0.21879 1.40773,-0.92941 2.08319,-2.29565 0.56959,-1.15208 0.6079,-1.33229 0.65626,-3.0866 0.0476,-1.72999 0.077,-1.87258 0.41036,-1.9959 0.19747,-0.073 0.40258,-0.0893 0.45581,-0.0361 0.18146,0.18146 0.0514,4.55461 -0.14648,4.92431 -0.26258,0.49063 -0.14709,0.55174 0.64138,0.33943 1.24484,-0.3352 2.45953,-2.16962 2.86154,-4.32148 0.20818,-1.11429 0.42243,-1.16447 0.66445,-0.15563 0.18385,0.76637 0.17599,0.97519 -0.0577,1.53458 -0.1488,0.35612 -0.2448,0.67323 -0.21337,0.70468 0.0315,0.0315 0.46469,-0.14923 0.96276,-0.40152 0.95377,-0.48311 0.98624,-0.54123 1.23576,-2.2128 0.0872,-0.58376 0.0887,-0.58467 0.96442,-0.57927 0.79804,0.005 0.93593,0.0651 1.52916,0.66822 1.14771,1.16667 1.61061,1.90962 1.49343,2.39701 -0.0579,0.24063 -0.51795,0.91158 -1.0224,1.49099 -0.6984,0.8022 -1.22271,1.20709 -2.19798,1.69745 -3.27985,1.64907 -7.17843,3.02952 -10.17546,3.60301 -1.71725,0.32861 -1.72363,0.32783 -1.59275,-0.1936 z"
             style="opacity:1;fill:#000000;fill-opacity:0.83076926;fill-rule:nonzero;stroke:#000000;stroke-width:0.31569552;stroke-linejoin:round;stroke-miterlimit:4;stroke-dasharray:none;stroke-dashoffset:0;stroke-opacity:1" />
          <path
             inkscape:connector-curvature="0"
             id="path1329"
             d="m 139.02721,256.56678 c 0.0457,-1.75791 0.13053,-2.40259 0.41218,-3.13229 0.19506,-0.50534 0.47141,-1.63297 0.61412,-2.50583 0.41455,-2.53584 0.44888,-2.65391 0.80452,-2.76679 0.18176,-0.0577 0.57968,-0.0582 0.88426,-8.9e-4 0.80144,0.15035 1.32827,0.93542 1.57712,2.35015 0.11312,0.64316 0.35951,1.54527 0.5475,2.00466 0.18799,0.45941 0.4435,1.28633 0.56778,1.83762 0.24006,1.06481 0.31841,3.92376 0.10766,3.9288 -0.069,0.002 -0.83946,0.11306 -1.71231,0.24759 -0.87288,0.13452 -2.09854,0.24593 -2.72369,0.24759 l -1.13667,0.003 z"
             style="opacity:1;fill:#000000;fill-opacity:0.83076926;fill-rule:nonzero;stroke:#000000;stroke-width:0.31569552;stroke-linejoin:round;stroke-miterlimit:4;stroke-dasharray:none;stroke-dashoffset:0;stroke-opacity:1" />
          <path
             inkscape:connector-curvature="0"
             id="path1331"
             d="m 132.92309,258.10976 c -0.25757,-0.0773 -1.00932,-0.13739 -1.67056,-0.13343 -1.35439,0.008 -3.04191,-0.51976 -3.1992,-1.00075 -0.13316,-0.40727 -1.05467,-0.95704 -2.34925,-1.40157 -1.01272,-0.34775 -1.21829,-0.50091 -2.10277,-1.56658 -0.53916,-0.64964 -1.31598,-1.42222 -1.72626,-1.71685 -0.98301,-0.70594 -1.4526,-1.3639 -1.24202,-1.74021 0.12924,-0.2309 0.2178,-0.24771 0.47131,-0.0894 0.23832,0.14884 0.54299,0.14761 1.28794,-0.005 0.53668,-0.11007 1.08197,-0.21785 1.21174,-0.23952 0.13825,-0.0231 0.29209,0.1708 0.37147,0.46806 0.30395,1.1384 1.86543,1.92184 2.39285,1.20054 0.17328,-0.23696 0.23065,-0.21117 0.48382,0.2174 0.52013,0.88052 1.14098,1.50775 1.74027,1.75815 0.32469,0.13566 0.61853,0.21846 0.653,0.18401 0.0345,-0.0345 0.0906,-1.32971 0.12464,-2.87832 0.0386,-1.75496 0.12777,-2.83758 0.23655,-2.87385 0.096,-0.032 0.32433,0.022 0.50739,0.11995 0.26019,0.13925 0.31438,0.29656 0.24831,0.72082 -0.10143,0.65123 0.77594,4.1585 1.2946,5.17519 0.38148,0.74774 1.16354,1.79913 1.33828,1.79914 0.13988,1e-5 0.56917,-1.76704 0.83199,-3.42464 0.11655,-0.73504 0.31048,-1.48473 0.43097,-1.66595 0.19124,-0.28763 0.21909,-0.18051 0.21909,0.84265 0,0.6447 0.22553,2.28081 0.50116,3.6358 0.27565,1.35499 0.50118,2.53567 0.50118,2.62375 0,0.19403 -1.90249,0.18717 -2.5565,-0.009 z"
             style="opacity:1;fill:#000000;fill-opacity:0.83076926;fill-rule:nonzero;stroke:#000000;stroke-width:0.31569552;stroke-linejoin:round;stroke-miterlimit:4;stroke-dasharray:none;stroke-dashoffset:0;stroke-opacity:1" />
          <path
             inkscape:connector-curvature="0"
             id="path1339"
             d="m 143.191,264.40376 c -0.60881,-0.24294 -2.80099,-0.71094 -3.32548,-0.70996 -0.53785,8.9e-4 -0.54803,-0.006 -0.62394,-0.43507 -0.0424,-0.23985 -0.11013,-1.22016 -0.1504,-2.17846 l -0.0732,-1.74235 1.16966,-0.004 c 1.10832,-0.004 1.60422,-0.0526 3.52033,-0.34731 0.44825,-0.069 0.8396,-0.10079 0.86963,-0.0707 0.11083,0.11083 -0.52365,4.69081 -0.74986,5.41276 -0.0723,0.23065 -0.20692,0.24651 -0.63671,0.075 z"
             style="opacity:1;fill:#cf6ffd;fill-opacity:0.25098039;fill-rule:nonzero;stroke:#000000;stroke-width:0.22323044;stroke-linejoin:round;stroke-miterlimit:4;stroke-dasharray:none;stroke-dashoffset:0;stroke-opacity:1" />
          <path
             inkscape:connector-curvature="0"
             id="path1341"
             d="m 142.95199,264.16642 c -0.3512,-0.14011 -2.19322,-0.53301 -2.97315,-0.63417 l -0.55156,-0.0715 -0.066,-0.8506 c -0.0363,-0.46783 -0.0987,-1.36888 -0.13867,-2.00234 l -0.0727,-1.15173 1.28089,-0.002 c 0.70448,-8.8e-4 1.78586,-0.0799 2.40306,-0.17506 1.56521,-0.24123 1.53574,-0.2452 1.53518,0.20672 0,0.45595 -0.55892,4.35853 -0.66201,4.6272 -0.0806,0.21002 -0.32035,0.22706 -0.75503,0.0537 z"
             style="opacity:1;fill:#ecf6ff;fill-opacity:0.83137255;fill-rule:nonzero;stroke:#000000;stroke-width:0.22323044;stroke-linejoin:round;stroke-miterlimit:4;stroke-dasharray:none;stroke-dashoffset:0;stroke-opacity:1" />
          <path
             inkscape:connector-curvature="0"
             id="path1343"
             d="m 121.22611,249.88843 c -0.10021,-0.16216 2.41535,-3.47711 2.95358,-3.89215 0.73075,-0.56349 2.62369,-1.52247 3.79168,-1.9209 2.02133,-0.68952 3.03661,-0.8424 6.00642,-0.90444 l 2.7199,-0.0568 1.17825,0.55499 c 2.21212,1.04198 2.84328,1.24349 3.89482,1.24349 1.34982,0 2.47265,-0.34193 3.87297,-1.1794 1.04122,-0.62272 1.24605,-0.70067 2.0672,-0.78664 0.50131,-0.0525 1.60251,-0.0937 2.44711,-0.0917 1.65968,0.004 2.8236,0.21742 5.61098,1.02854 1.20798,0.35153 1.48276,0.48474 2.48065,1.20267 0.76155,0.54789 1.34503,1.08812 1.81555,1.68095 0.38133,0.48047 0.66944,0.89747 0.64023,0.92667 -0.0292,0.0292 -0.34113,-0.0324 -0.69318,-0.137 -1.01693,-0.302 -2.85598,-0.0359 -3.00538,0.43492 -0.0709,0.22333 -0.0991,0.21566 -0.49982,-0.13621 -0.46514,-0.40839 -0.25652,-0.39536 -2.59677,-0.16229 -0.27516,0.0274 -0.68278,0.12608 -0.90583,0.21928 -0.50541,0.21117 -0.60022,0.12926 -0.31464,-0.27182 0.18189,-0.25545 0.21124,-0.45785 0.1647,-1.13553 -0.0552,-0.8031 -0.22789,-1.4762 -0.37783,-1.47255 -0.29942,0.007 -0.38428,0.2213 -0.26217,0.66107 0.17339,0.6245 0.15538,1.47758 -0.0366,1.73048 -0.13979,0.1842 -0.17484,0.18758 -0.306,0.0295 -0.31319,-0.37737 -1.75252,-0.17725 -2.12738,0.29577 -0.0325,0.041 -0.28498,0.0518 -0.5611,0.024 -0.54005,-0.0544 -0.58869,-0.14598 -0.37032,-0.69729 0.19445,-0.49091 0.1375,-1.19346 -0.15368,-1.896 -0.25333,-0.61122 -0.3706,-0.70662 -0.65013,-0.52888 -0.10389,0.066 -0.0655,0.27351 0.14711,0.79553 0.15822,0.38841 0.28582,0.78592 0.2836,0.88337 -0.005,0.23371 -0.5205,1.98253 -0.61054,2.07257 -0.0385,0.0385 -0.29277,0.004 -0.56496,-0.0781 -0.65313,-0.19569 -2.7097,0.0398 -3.28537,0.37613 -0.21486,0.12554 -0.40697,0.22827 -0.42692,0.22827 -0.16919,0 -0.74273,-1.12065 -0.89664,-1.75207 -0.13986,-0.57365 -0.25018,-0.79873 -0.40622,-0.82879 -0.1913,-0.0369 -0.20834,0.0295 -0.15937,0.62011 l 0.0548,0.66136 h -0.79486 -0.79482 l -0.008,-0.67343 c -0.0124,-1.0323 -0.10742,-1.33472 -0.41967,-1.33472 -0.25909,0 -0.26353,0.0202 -0.16261,0.73829 0.11088,0.7889 -0.0758,2.63193 -0.27921,2.75769 -0.0614,0.038 -0.37259,-0.17493 -0.69141,-0.47313 -0.41996,-0.39282 -0.67647,-0.5422 -0.93112,-0.5422 -0.24414,0 -0.37371,-0.07 -0.42423,-0.22919 -0.10169,-0.32036 -0.67953,-0.35296 -1.51066,-0.0852 -0.48223,0.15534 -0.72792,0.30805 -0.84009,0.52215 -0.15757,0.3007 -0.15936,0.29894 -0.28753,-0.27741 -0.19748,-0.88812 -0.2853,-1.56549 -0.2853,-2.20036 0,-0.52247 -0.0241,-0.5744 -0.25215,-0.54188 -0.23622,0.0337 -0.25057,0.0966 -0.22712,0.99358 0.0245,0.93492 0.0176,0.96131 -0.29532,1.11328 -0.1762,0.0856 -0.37352,0.14093 -0.43849,0.12293 -0.065,-0.018 -0.41048,-0.0736 -0.7678,-0.12354 -0.54828,-0.0766 -0.74614,-0.0483 -1.26755,0.18179 -0.45492,0.2007 -0.64106,0.23562 -0.70589,0.13245 -0.0484,-0.0771 -0.0983,-0.64513 -0.11071,-1.26233 -0.0202,-0.99712 -0.0466,-1.1222 -0.23711,-1.1222 -0.27646,0 -0.39928,0.66893 -0.30905,1.68329 l 0.0657,0.73829 h -0.46596 c -0.25628,0 -0.52403,0.0581 -0.59503,0.12908 -0.0933,0.0933 -0.20083,0.0906 -0.3883,-0.01 -0.16634,-0.089 -0.47778,-0.10979 -0.8691,-0.058 -0.69054,0.0915 -1.14163,0.43503 -1.50902,1.14937 -0.24932,0.48473 -0.57485,0.57141 -0.98391,0.26201 -0.32763,-0.2478 -0.69847,-0.21534 -1.33803,0.11713 -0.96587,0.50209 -2.62263,0.8287 -2.79435,0.55086 z"
             style="opacity:1;fill:#b3b3b3;fill-opacity:0.83137255;fill-rule:nonzero;stroke:#000000;stroke-width:0.22323044;stroke-linejoin:round;stroke-miterlimit:4;stroke-dasharray:none;stroke-dashoffset:0;stroke-opacity:1" />
        </g>
      </g>
    </g>
  </g>
</svg>
