<?xml version="1.0" encoding="UTF-8" standalone="no"?>
<!-- Created with Inkscape (http://www.inkscape.org/) -->

<svg
   xmlns:dc="http://purl.org/dc/elements/1.1/"
   xmlns:cc="http://creativecommons.org/ns#"
   xmlns:rdf="http://www.w3.org/1999/02/22-rdf-syntax-ns#"
   xmlns:svg="http://www.w3.org/2000/svg"
   xmlns="http://www.w3.org/2000/svg"
   xmlns:sodipodi="http://sodipodi.sourceforge.net/DTD/sodipodi-0.dtd"
   xmlns:inkscape="http://www.inkscape.org/namespaces/inkscape"
   width="210mm"
   height="297mm"
   viewBox="0 0 210 297"
   version="1.1"
   id="svg111"
   inkscape:version="0.92.1 r15371"
   sodipodi:docname="stand.svg">
  <defs
     id="defs105" />
  <sodipodi:namedview
     id="base"
     pagecolor="#ffffff"
     bordercolor="#666666"
     borderopacity="1.0"
     inkscape:pageopacity="0.0"
     inkscape:pageshadow="2"
     inkscape:zoom="0.45254834"
     inkscape:cx="507.9749"
     inkscape:cy="578.41165"
     inkscape:document-units="mm"
     inkscape:current-layer="layer1"
     showgrid="false"
     inkscape:window-width="1536"
     inkscape:window-height="801"
     inkscape:window-x="-8"
     inkscape:window-y="-8"
     inkscape:window-maximized="1" />
  <metadata
     id="metadata108">
    <rdf:RDF>
      <cc:Work
         rdf:about="">
        <dc:format>image/svg+xml</dc:format>
        <dc:type
           rdf:resource="http://purl.org/dc/dcmitype/StillImage" />
        <dc:title></dc:title>
      </cc:Work>
    </rdf:RDF>
  </metadata>
  <g
     inkscape:label="Layer 1"
     inkscape:groupmode="layer"
     id="layer1">
    <path
       style="opacity:1;fill:#d40000;fill-opacity:1;fill-rule:nonzero;stroke:none;stroke-width:2.3695426;stroke-linejoin:round;stroke-miterlimit:4;stroke-dasharray:none;stroke-dashoffset:0;stroke-opacity:1"
       d="m 104.09528,224.97239 c -1.42237,-0.3651 -2.58613,-0.74917 -2.58613,-0.85349 0,-0.10433 1.44152,-0.7993 3.20339,-1.5444 2.82848,-1.19618 3.52246,-1.36473 5.92981,-1.44018 4.08691,-0.12807 5.59829,-0.65606 6.56538,-2.29355 0.99662,-1.68747 1.13681,-4.24768 0.35624,-6.50568 -0.35103,-1.01547 -0.74333,-2.40802 -0.87176,-3.09456 -0.12845,-0.68654 -1.25739,-3.22566 -2.50878,-5.64248 -2.96443,-5.72527 -3.83564,-8.53881 -4.10513,-13.25727 -0.19678,-3.44524 -0.268,-3.74584 -1.20363,-5.07948 -2.54374,-3.62585 -5.17123,-9.45045 -5.17123,-11.46351 0,-1.3246 -0.73714,-1.70918 -3.27613,-1.70918 -1.588859,0 -1.691949,0.0506 -2.173879,1.06616 -0.27826,0.58639 -0.50593,1.23112 -0.50593,1.43275 0,0.20162 -0.5474,1.02667 -1.21644,1.83344 -1.41948,1.71168 -2.08929,4.05166 -1.81726,6.34853 0.27506,2.32244 0.85604,3.16759 2.57211,3.74166 l 1.48954,0.49829 -1.90265,0.57608 -1.90265,0.57608 -1.70432,-1.45605 c -3.702512,-3.16316 -5.061629,-10.10713 -2.901662,-14.82511 0.446841,-0.97603 0.96881,-1.67265 1.25331,-1.67265 0.268152,0 0.487552,-0.14106 0.487552,-0.31347 0,-0.17241 -0.16302,-0.31347 -0.36226,-0.31347 -0.199229,0 -0.818565,-0.34806 -1.376296,-0.77345 -0.55772,-0.4254 -1.946391,-1.12439 -3.085927,-1.55331 l -2.071875,-0.77985 v 0.73661 c 0,0.40514 -0.281208,1.64704 -0.624902,2.75977 -0.528692,1.71174 -0.902679,2.27755 -2.429391,3.67555 -3.635304,3.32881 -4.754862,4.51725 -4.857291,5.1561 -0.05758,0.3591 0.377858,1.42587 0.96763,2.37061 0.752048,1.20469 1.396091,2.9835 2.156429,5.95593 0.916876,3.58438 1.080053,4.74605 1.057695,7.5297 -0.0207,2.57391 0.119983,3.73563 0.64519,5.329 0.915526,2.77746 1.944107,3.67742 5.615216,4.91301 4.548462,1.53088 7.813962,2.96329 7.813962,3.4276 0,0.63801 -1.68989,1.37698 -3.14885,1.37698 -0.714542,0 -2.277252,-0.29709 -3.472699,-0.66019 -1.425259,-0.43291 -2.575153,-0.59588 -3.340102,-0.47341 -0.641619,0.10273 -1.732289,0.27329 -2.423718,0.37902 -2.322222,0.35512 -5.194551,-0.87305 -5.199902,-2.22339 -0.0011,-0.34482 0.129731,-1.64946 0.291342,-2.8992 0.499611,-3.86378 -0.784025,-8.59615 -3.071289,-11.32287 -0.887956,-1.05856 -1.499636,-2.32007 -2.259683,-4.66023 -1.523088,-4.68956 -2.452768,-4.15 -2.452768,1.42351 v 3.03273 l -0.796357,-0.85884 c -0.438005,-0.47236 -1.051047,-0.85884 -1.362313,-0.85884 -0.467612,0 -0.560723,0.24945 -0.535887,1.43574 0.03667,1.75256 -0.585205,2.3259 -2.522867,2.3259 -1.868346,0 -2.78385,-0.50776 -3.406972,-1.88958 -0.726859,-1.61188 -2.008661,-2.77397 -5.159839,-4.67791 -3.376261,-2.03994 -4.005999,-2.63137 -4.88159,-4.58467 -0.809665,-1.80621 -1.858149,-2.64054 -3.318344,-2.64054 -0.552026,0 -0.915215,0.0885 -0.807081,0.1966 0.384657,0.38465 -1.681524,2.89914 -6.298935,7.66566 -6.358535,6.56387 -6.201567,6.35266 -6.461501,8.69407 -0.286034,2.57657 0.366577,3.97391 3.116767,6.67352 1.115548,1.09503 2.028264,2.25689 2.028264,2.58191 0,0.52603 -0.163606,0.56748 -1.488988,0.37718 -2.254075,-0.32362 -4.026255,-1.30346 -5.032703,-2.78257 -2.343463,-3.44402 -3.043621,-4.27254 -3.870207,-4.57972 -0.491182,-0.18253 -1.31409,-0.48917 -1.828681,-0.6814 -0.682111,-0.25481 -1.01922,-0.65224 -1.24411,-1.46672 -0.4999,-1.81052 0.06681,-2.53272 3.248621,-4.13971 2.961888,-1.49592 3.283942,-1.84038 5.27552,-5.64247 1.451907,-2.77179 3.369366,-5.32751 5.777568,-7.70072 3.072522,-3.02788 3.132069,-3.45011 1.055089,-7.48071 -0.879163,-1.70609 -1.840863,-3.28612 -2.137127,-3.51117 -0.762546,-0.57924 -2.518469,-0.51011 -3.986846,0.15696 -0.947063,0.43024 -1.427532,0.49212 -1.963581,0.25293 -0.738419,-0.32951 -0.743512,-0.42395 -0.184677,-3.42514 0.115351,-0.61949 0.03196,-0.86204 -0.296318,-0.86204 -0.251258,0 -0.955553,-0.20838 -1.565099,-0.46306 -1.085865,-0.45371 -1.101425,-0.48543 -0.769238,-1.56781 0.237876,-0.77504 0.240986,-1.31508 0.01072,-1.80959 -0.180742,-0.38768 -0.451334,-1.01745 -0.6013,-1.3995 -0.264577,-0.67402 -0.412323,-0.61599 -4.974733,1.95375 -2.586134,1.45661 -6.443958,3.36618 -8.572945,4.24345 -2.128988,0.87729 -4.809165,2.17112 -5.95595,2.87518 -2.6144333,1.60512 -5.3229303,2.82057 -5.7277793,2.57036 -0.617824,-0.38183 4.353134,-3.6491 8.9567333,-5.88699 2.59438,-1.26117 6.762451,-3.56071 9.26238,-5.11009 2.499929,-1.54938 5.571068,-3.41449 6.824743,-4.14468 2.362046,-1.37575 4.972071,-4.14952 4.5614,-4.84757 -0.11742,-0.19959 -0.768787,-1.15774 -1.447466,-2.12923 -1.165935,-1.66896 -1.213804,-1.82742 -0.868223,-2.87453 0.201146,-0.6095 0.562897,-1.27183 0.803872,-1.47182 0.240974,-0.19999 0.60264,-0.88132 0.803713,-1.51406 0.85096,-2.67793 2.951703,-7.78267 3.875678,-9.41778 l 0.996658,-1.76373 -2.705913,-5.7e-4 c -2.610476,-5.7e-4 -2.776912,-0.0448 -4.718851,-1.25218 l -2.012929,-1.25155 -3.840023,-0.11231 c -2.112002,-0.0618 -3.840012,-0.22157 -3.840012,-0.35514 0,-0.43198 0.919707,-1.02152 1.909363,-1.22392 l 0.965088,-0.19739 -0.709197,-0.90159 -0.709198,-0.9016 0.714581,-1.34699 c 0.39301,-0.74083 0.620719,-1.49882 0.506023,-1.68441 -0.114697,-0.18558 0.102836,-0.77479 0.483536,-1.30936 0.595831,-0.83677 0.835529,-0.94866 1.723571,-0.80455 1.259937,0.20446 3.720072,-0.41328 5.395162,-1.35473 0.984678,-0.55343 1.52967,-0.65826 2.614013,-0.50283 4.250747,0.60929 5.260971,0.59001 7.251434,-0.13835 1.075421,-0.39351 2.660618,-1.07131 3.522656,-1.50621 1.385153,-0.69878 1.968202,-0.79229 5.015535,-0.80429 4.397883,-0.0174 6.159446,0.57383 7.078532,2.3754 0.381482,0.74776 0.836237,1.20401 1.20009,1.20401 0.322215,0 0.903333,0.25709 1.291378,0.57131 0.654101,0.52966 0.713423,0.86672 0.813804,4.6237 l 0.108284,4.05237 2.277248,-0.064 c 4.215007,-0.11849 5.996195,-0.61111 10.594443,-2.93005 2.375517,-1.19801 4.465192,-2.17818 4.643725,-2.17818 0.613589,0 0.65763,-0.54294 0.149087,-1.83759 -0.611863,-1.55762 -1.272237,-1.66314 -3.481189,-0.55619 -1.584178,0.79386 -4.221248,1.4229 -3.672857,0.87612 0.17241,-0.1719 1.759344,-1.03254 3.526537,-1.91254 1.957704,-0.97486 3.213084,-1.78559 3.213084,-2.07502 0,-0.26126 -3.087331,-7.2758 -6.860719,-15.58785 C 63.656193,85.862106 53.976719,63.384338 53.672466,61.746914 c -0.445061,-2.395176 0.836676,0.004 4.521704,8.463711 5.98264,13.73435 11.301206,25.056414 17.188923,36.591435 3.012279,5.90155 5.603013,10.80807 5.757193,10.90335 0.154191,0.0953 1.839008,-0.44413 3.744049,-1.19873 2.61009,-1.03385 3.540167,-1.27987 3.773903,-0.99823 0.425941,0.51322 -0.288382,1.0916 -3.057424,2.4756 -1.90769,0.95348 -2.272658,1.26111 -2.272658,1.91562 0,0.79515 0.521668,0.97511 2.386722,0.82333 1.067636,-0.0869 1.516,0.81737 1.709234,3.44718 0.0993,1.35169 0.264244,2.54128 0.366502,2.64354 0.102193,0.10219 0.47336,0.0321 0.824688,-0.15596 1.611566,-0.86249 2.655278,2.72335 1.295742,4.45172 -0.839068,1.0667 -0.796196,1.50488 0.345013,3.527 0.534568,0.94722 1.162247,2.35452 1.394847,3.12736 0.398747,1.32498 0.385827,1.42501 -0.226477,1.7527 -0.872278,0.46683 -1.389968,-0.0873 -3.319448,-3.55319 l -1.525726,-2.74063 -2.801061,1.75982 c -2.395955,1.50529 -9.485318,4.90234 -11.627131,5.57142 -0.371713,0.11611 -1.323816,0.8591 -2.115787,1.65107 l -1.439949,1.43995 -3.213213,-0.20147 c -1.767279,-0.11082 -3.807885,-0.28472 -4.534691,-0.38647 l -1.321456,-0.18499 0.745925,1.90336 c 0.410253,1.04684 0.83776,2.32149 0.950001,2.83254 0.228021,1.03816 0.487482,0.81158 -3.801784,3.32001 -1.404959,0.82165 -2.696755,1.80618 -2.870656,2.18785 -0.306697,0.67313 -0.145504,0.74703 5.375711,2.46443 3.130546,0.97377 6.608796,1.88077 7.729459,2.01555 l 2.03756,0.24505 -0.880642,0.8293 c -0.644075,0.60651 -1.460463,0.92708 -3.039044,1.19334 -1.187115,0.20024 -2.338361,0.58091 -2.558318,0.84593 -0.494785,0.59619 0.07624,1.08813 4.28636,3.69263 1.618343,1.00116 3.37966,2.36436 3.914057,3.02933 0.534397,0.66499 1.080826,1.20907 1.214288,1.20907 0.133473,0 1.125531,-1.96604 2.204587,-4.36895 1.310262,-2.9178 2.219504,-4.53774 2.737397,-4.87708 0.42651,-0.27946 1.511657,-1.17479 2.41143,-1.98964 2.511081,-2.27404 3.129785,-2.44169 6.600228,-1.78843 3.22118,0.60632 5.269677,0.54441 9.245267,-0.27941 1.80768,-0.37459 3.63829,-0.51107 5.877929,-0.43824 1.78894,0.0581 3.25247,0.0486 3.25227,-0.0213 -8.5e-4,-0.30389 -1.62643,-2.22388 -1.88288,-2.22388 -0.1558,0 -0.61185,-0.32859 -1.01346,-0.7302 -0.40161,-0.40161 -0.99144,-0.87639 -1.31072,-1.05507 -0.55374,-0.30988 -0.55568,-0.36691 -0.042,-1.23644 0.89922,-1.52227 7.01865,-5.44199 8.49596,-5.44199 1.29082,0 2.33566,-0.66051 2.33566,-1.47651 0,-0.91847 0.48727,-1.90214 2.85622,-5.76595 1.01521,-1.65585 1.84584,-3.12086 1.84584,-3.25558 0,-0.13474 -3.35021,-0.15038 -7.44493,-0.0348 -4.32637,0.12215 -7.62252,0.091 -7.86891,-0.0742 -0.28403,-0.19056 0.21569,-0.33072 1.5139,-0.42463 2.05124,-0.14836 2.47861,-0.45453 2.54144,-1.82064 l 0.036,-0.78369 0.22487,0.78369 c 0.213,0.74226 0.3305,0.77946 2.22374,0.70397 1.09938,-0.0439 2.07736,-0.18489 2.17328,-0.31346 0.096,-0.12859 0.95026,-0.27223 1.8985,-0.3192 5.76579,-0.28571 6.91592,-1.3013 5.92597,-5.23278 -0.41433,-1.64547 -0.59982,-1.70963 -4.32719,-1.49711 -2.34148,0.1335 -2.85437,0.25316 -2.86219,0.66774 -0.009,0.43745 -0.0523,0.43163 -0.32905,-0.0435 -0.25481,-0.43748 -0.75189,-0.54858 -2.45448,-0.54858 -1.17424,0 -2.78943,0.0898 -3.58933,0.19934 -1.19709,0.16409 -1.45875,0.31658 -1.47913,0.86205 -0.0173,0.4623 -0.0789,0.52052 -0.20373,0.19249 -0.1794,-0.47128 -0.69751,-0.92661 -1.06459,-0.93561 -0.10775,-0.002 -0.28554,0.44335 -0.39509,0.99107 -0.18425,0.92123 -0.23066,0.95282 -0.61916,0.4215 -0.353969,-0.48407 -0.686069,-0.54231 -2.112669,-0.37042 -0.93098,0.11216 -2.08061,0.29159 -2.55474,0.39871 -0.49344,0.11149 -0.86204,0.0613 -0.86204,-0.1172 0,-0.17159 0.38792,-0.46505 0.86204,-0.65214 1.71871,-0.67819 10.695049,-2.88377 15.573979,-3.8267 3.85739,-0.74549 5.19243,-1.13191 5.86454,-1.69745 0.5218,-0.43907 1.50351,-0.81933 2.45206,-0.94978 1.63417,-0.22476 1.67097,-0.26591 1.96251,-2.19417 0.13239,-0.87556 3.33177,-1.45398 6.68267,-1.20816 2.50445,0.18372 2.53283,0.17731 4.34062,-0.97912 1.00083,-0.64022 2.21752,-1.60941 2.70375,-2.15374 0.80712,-0.90357 1.04319,-0.98776 2.71248,-0.96731 1.78336,0.0219 5.69245,0.74611 11.07579,2.05209 1.46548,0.35552 3.92304,0.91735 5.46126,1.24849 1.53823,0.33114 3.22238,0.87156 3.74257,1.20093 0.93992,0.59511 0.9547,0.59437 2.3755,-0.11948 0.78635,-0.39508 1.78236,-0.82381 2.21338,-0.95272 0.9994,-0.29895 1.88082,-1.06961 1.88082,-1.64449 0,-0.24566 -0.64305,-1.59915 -1.42902,-3.00776 -1.30982,-2.34747 -3.14439,-4.81147 -6.63024,-8.90507 l -1.31967,-1.54973 1.56624,-1.852363 c 0.86142,-1.018798 1.68296,-1.85236 1.82564,-1.85236 0.73386,0 3.71366,4.385033 6.33066,9.316083 l 2.94784,5.55444 1.5751,0.64435 c 1.2956,0.53002 1.80537,0.99062 2.87287,2.59581 0.71378,1.07329 1.40017,2.30137 1.52532,2.72906 0.12514,0.42769 0.49576,1.14041 0.8236,1.58383 0.54712,0.74003 0.56545,0.99785 0.22311,3.14077 -0.29292,1.83355 -0.53992,2.47308 -1.15097,2.98005 -1.089,0.90352 -1.34265,2.98143 -0.83868,6.87043 1.18531,9.14667 1.17809,13.50118 -0.0271,16.38575 -0.25182,0.6027 -0.45786,1.78557 -0.45786,2.6286 v 1.53278 l 1.33226,-0.20321 c 2.47869,-0.37807 10.06517,-3.98532 14.278,-6.78898 2.18992,-1.4574 4.54592,-2.97593 5.23554,-3.37451 1.51598,-0.87616 5.08043,-4.87952 7.34399,-8.2483 0.91053,-1.35511 2.42452,-4.24688 3.36444,-6.42616 l 1.70892,-3.96231 -0.20256,1.88083 c -0.7418,6.88806 -9.11493,17.84816 -17.74843,23.23202 -1.95635,1.21998 -4.7738,2.73096 -6.26098,3.35775 -1.4872,0.62678 -3.7402,1.6362 -5.00669,2.24314 -1.86653,0.89452 -2.66921,1.10355 -4.23759,1.10355 -1.71974,0 -2.04749,-0.1052 -2.94762,-0.94603 -0.92245,-0.86171 -0.99427,-1.06143 -0.80571,-2.24062 0.11385,-0.71202 0.56854,-1.72424 1.01042,-2.24937 1.10271,-1.31051 1.27191,-1.85687 1.83168,-5.91449 0.46647,-3.38129 0.45961,-3.69823 -0.1535,-7.09681 -0.35297,-1.95659 -0.91967,-4.10216 -1.25932,-4.76793 -0.45028,-0.88263 -0.61755,-1.84092 -0.61755,-3.53797 0,-2.16599 -0.0571,-2.36485 -0.82246,-2.86637 -1.26435,-0.82843 -2.11568,-0.26291 -2.91345,1.93532 -0.84471,2.32757 -3.1291,6.71692 -3.76763,7.2393 -0.72315,0.59162 -3.89451,0.18145 -5.70993,-0.73848 -1.76877,-0.89631 -4.66705,-1.69992 -6.13085,-1.69992 -1.21493,0 -1.30207,0.43438 -0.53838,2.68375 0.98457,2.90002 0.47841,9.45951 -0.87956,11.39829 -0.53091,0.75799 -5.33756,4.43548 -5.53687,4.23617 -0.0716,-0.0716 0.34338,-0.87233 0.92227,-1.77931 2.25749,-3.5369 2.86702,-5.00077 2.72572,-6.54616 -0.16377,-1.79098 -1.12581,-3.19518 -3.00599,-4.38754 -1.61425,-1.02373 -2.20834,-1.09863 -3.48358,-0.43918 -0.68924,0.35642 -1.04547,0.91956 -1.5368,2.4294 -1.49183,4.58435 -2.40928,10.07385 -2.08171,12.45563 0.11119,0.80841 0.68559,2.30537 1.27644,3.32659 2.00102,3.4585 2.17545,3.88576 1.81787,4.45265 -0.18198,0.28851 -0.66989,0.60459 -1.08423,0.70241 -0.51838,0.12236 -0.81322,0.46679 -0.94526,1.10426 -0.33776,1.63049 0.099,4.62761 0.98008,6.72564 0.47063,1.12066 1.08585,2.8134 1.36715,3.76166 0.2813,0.94824 1.21908,2.81271 2.08394,4.14326 1.37423,2.1142 1.73386,2.46264 2.85268,2.76391 1.24057,0.33405 1.3255,0.30653 2.74316,-0.88886 0.80463,-0.67847 2.21557,-1.61496 3.13542,-2.08108 1.49698,-0.75858 2.02248,-0.8492 5.00832,-0.86371 2.93107,-0.0143 7.31414,0.61414 8.22945,1.17984 0.15326,0.0947 0.28059,0.62235 0.28295,1.1725 0.0117,2.73543 0.86817,3.14957 3.5871,1.73452 2.34015,-1.21792 3.44171,-1.53759 4.54088,-1.31775 1.26618,0.25323 6.44322,4.15799 6.04317,4.55804 -0.41894,0.41894 -1.14496,0.16773 -3.34614,-1.15773 -0.99803,-0.60099 -2.18923,-1.0927 -2.6471,-1.0927 -0.48356,0 -1.52903,0.52335 -2.49428,1.24863 -2.18551,1.64216 -3.71349,2.10027 -5.45885,1.63665 -6.53403,-1.73561 -6.46093,-1.72302 -7.50071,-1.29232 -0.54992,0.22778 -1.66492,1.00482 -2.47777,1.72673 -2.10359,1.8683 -4.18517,3.24542 -5.20401,3.44288 -0.51536,0.0998 -1.9753,-0.17019 -3.54135,-0.6551 -1.46547,-0.45377 -3.71858,-1.12748 -5.0069,-1.49716 -2.1021,-0.60316 -2.54046,-0.87412 -4.27312,-2.64122 -1.06188,-1.083 -2.07447,-1.96909 -2.25016,-1.96909 -0.1757,0 -1.0473,0.33722 -1.93689,0.74937 -1.81102,0.83905 -2.75353,0.75541 -3.14692,-0.27927 -0.29056,-0.76425 -0.90906,-1.09705 -2.03885,-1.09705 -0.57201,0 -0.81661,0.25907 -1.10981,1.17551 -0.20685,0.64654 -0.90581,1.88715 -1.55324,2.7569 -0.69811,0.93783 -1.26947,2.12778 -1.40399,2.92405 -0.19516,1.15509 -0.12438,1.45174 0.50663,2.12341 0.40341,0.42942 1.56095,1.2218 2.57232,1.76085 1.01136,0.53904 2.03892,1.28545 2.28346,1.65866 0.64847,0.98969 5.12666,4.66606 6.59817,5.41677 0.69443,0.35428 1.53029,0.58987 1.85747,0.52352 0.32717,-0.0664 0.96195,-0.19709 1.41061,-0.29058 0.44867,-0.0935 2.05326,-1.15994 3.56578,-2.3699 3.56182,-2.84935 3.74245,-2.8507 8.02953,-0.0601 2.93309,1.90927 3.32825,2.27635 3.66675,3.40618 0.55456,1.85092 0.47859,2.84251 -0.24753,3.23112 -0.58741,0.31437 -0.62695,0.23839 -0.62695,-1.20457 0,-2.65533 -0.60028,-3.57567 -3.03995,-4.66072 -3.73731,-1.6622 -3.20491,-1.80347 -8.33307,2.21114 -1.95463,1.53018 -3.34944,2.40027 -3.84784,2.40027 -0.42999,0 -1.73044,-0.47726 -2.8899,-1.06057 -1.15946,-0.58332 -3.73031,-1.72785 -5.71302,-2.54343 -1.9827,-0.81556 -4.12497,-1.74723 -4.76061,-2.07038 l -1.15571,-0.58757 -0.64675,0.82223 c -0.81045,1.03031 -0.82266,2.08545 -0.0368,3.17975 0.56087,0.78102 0.61597,1.49246 0.68487,8.84285 0.0811,8.64312 0.35976,10.5625 2.00543,13.81008 1.64933,3.2548 0.67349,4.21019 -3.30024,3.2311 -2.95093,-0.72708 -4.29403,-0.69314 -7.05309,0.17818 -3.16631,0.99994 -7.11356,1.09168 -10.4229,0.24223 z m -39.394968,-40.5283 c 0.357999,-0.0961 0.890112,-0.57972 1.182472,-1.07465 0.659195,-1.11593 3.335019,-7.54889 3.337249,-8.02309 8.48e-4,-0.19341 -0.822436,-0.43331 -1.858845,-0.54165 -4.688742,-0.49007 -10.715402,-2.1942 -12.459894,-3.52322 -1.665193,-1.26862 -2.002377,-1.01337 -1.199554,0.90807 0.25691,0.61484 0.384742,1.37265 0.284093,1.684 -0.62651,1.93802 -0.864782,2.23623 -2.338178,2.92633 -1.238726,0.58019 -1.547708,0.87885 -1.547708,1.49601 0,0.71152 0.08793,0.75683 1.138377,0.58638 1.43284,-0.23252 3.047291,0.41619 4.504097,1.80982 1.273642,1.21843 4.12684,3.06485 5.485743,3.55007 1.059915,0.37846 2.502363,0.46235 3.472148,0.20193 z"
       id="path142"
       inkscape:connector-curvature="0" />
  </g>
</svg>
