<?xml version="1.0" encoding="UTF-8" standalone="no"?>
<svg
   xmlns:dc="http://purl.org/dc/elements/1.1/"
   xmlns:cc="http://creativecommons.org/ns#"
   xmlns:rdf="http://www.w3.org/1999/02/22-rdf-syntax-ns#"
   xmlns:svg="http://www.w3.org/2000/svg"
   xmlns="http://www.w3.org/2000/svg"
   id="svg29"
   version="1.1"
   viewBox="0 0 210 297"
   height="297mm"
   width="210mm">
  <defs
     id="defs23" />
  <metadata
     id="metadata26">
    <rdf:RDF>
      <cc:Work
         rdf:about="">
        <dc:format>image/svg+xml</dc:format>
        <dc:type
           rdf:resource="http://purl.org/dc/dcmitype/StillImage" />
        <dc:title></dc:title>
      </cc:Work>
    </rdf:RDF>
  </metadata>
  <g
     id="layer1">
    <path
       transform="scale(0.26458333)"
       id="path65"
       d=""
       style="opacity:1;fill:#b50000;fill-opacity:1;fill-rule:nonzero;stroke:#c30000;stroke-width:1.01174331;stroke-linejoin:round;stroke-miterlimit:4;stroke-dasharray:none;stroke-dashoffset:0;stroke-opacity:0.89743593" />
    <g
       id="g75">
      <path
         style="opacity:1;fill:#b50000;fill-opacity:1;fill-rule:nonzero;stroke:#c30000;stroke-width:2.86164212;stroke-linejoin:round;stroke-miterlimit:4;stroke-dasharray:none;stroke-dashoffset:0;stroke-opacity:0.89743593"
         d="m 78.758793,725.58803 c -1.974796,-50.90189 -1.8124,-53.4298 4.234916,-65.92189 12.0598,-24.91223 38.475361,-43.39934 71.866221,-50.29611 l 16.56864,-3.4222 0.0295,-52.9998 c 0.11849,-213.03614 51.36893,-354.42012 145.37041,-401.03161 22.59849,-11.20566 25.92781,-12.03079 52.25683,-12.95117 98.33262,-3.43739 154.30728,67.93732 178.63308,227.7796 3.51577,23.10172 4.68043,53.53712 4.87854,127.48912 l 0.26029,97.14286 18.747,4.54391 c 52.46591,12.71675 80.96137,38.01189 84.60874,75.10637 1.30149,13.23638 -8.66908,95.18689 -11.98434,98.50215 -2.59877,2.59874 -3.23991,-1.18815 -9.22986,-54.51626 -8.04403,-71.61563 -10.74925,-75.4924 -19.0854,-27.35083 -7.16177,41.35957 -8.67165,42.4068 -9.475,6.5718 -0.38751,-17.28571 -1.41254,-34.46574 -2.2778,-38.17786 -1.49763,-6.42505 -1.83257,-6.51454 -6.97251,-1.86297 -7.56709,6.84815 -11.01149,3.47003 -13.18752,-12.93374 -1.03371,-7.79254 -2.70377,-14.16829 -3.71122,-14.16829 -2.15558,0 -23.51275,35.0448 -28.29475,46.42858 -3.91857,9.32837 -7.65571,9.74682 -19.13734,2.14285 -10.19183,-6.7498 -12.85714,-7.0936 -12.85714,-1.65848 0,2.23071 19.28571,21.70477 42.85714,43.27574 23.57143,21.57094 42.85714,39.6744 42.85714,40.22991 -5e-5,0.55549 -100.538,1.00998 -223.41768,1.00998 H 158.87905 l 9.84619,-10.22672 c 5.4154,-5.62468 24.95333,-23.83797 43.41762,-40.47394 18.46428,-16.636 33.55174,-30.99826 33.52767,-31.91614 -0.024,-0.91792 -1.19804,-3.49258 -2.60884,-5.72149 -2.14396,-3.38723 -5.45127,-2.80089 -20.14457,3.57143 -9.66872,4.1932 -17.96408,7.624 -18.43415,7.624 -0.47006,0 -3.76118,-8.67857 -7.3136,-19.28572 -7.60314,-22.70217 -13.52521,-35 -16.85439,-35 -2.76192,0 -6.02927,20.92495 -6.02927,38.61306 0,15.28229 -2.87505,29.95837 -5.86886,29.95837 -1.26359,0 -3.72491,-7.39285 -5.46961,-16.42857 -5.27937,-27.34166 -5.8261,-29.28571 -8.23605,-29.28571 -2.22116,0 -10.43826,32.75705 -17.72497,70.6598 -1.88239,9.79145 -4.54578,17.10843 -5.91866,16.25994 -1.37287,-0.84849 -2.49613,-18.82397 -2.49613,-39.94551 0,-21.12155 -0.97925,-38.4028 -2.1761,-38.4028 -3.69853,0 -28.888814,54.74345 -33.525333,72.85714 -2.413408,9.42857 -5.187765,23.89286 -6.165238,32.14286 -0.977474,8.25 -2.703144,15 -3.834823,15 -1.131679,0 -2.981693,-23.81926 -4.111143,-52.93166 z M 379.1158,750.98849 c 0.98649,-2.57075 0.49294,-6.74932 -1.09677,-9.28572 -1.58972,-2.53643 -28.03275,-17.98446 -58.76229,-34.329 -53.37869,-28.39123 -56.07525,-30.23503 -60.42911,-41.31888 -4.17142,-10.61943 -4.94298,-11.21578 -9.1142,-7.04455 -3.56948,3.56949 -3.8774,5.82677 -1.42092,10.41675 1.72484,3.22288 3.13606,6.45131 3.13606,7.17425 0,0.72295 -17.94082,17.74029 -39.8685,37.81629 -21.92768,20.076 -39.20894,37.56903 -38.40281,38.87337 0.80613,1.30434 47.07302,2.37154 102.81532,2.37154 91.19542,0 101.52931,-0.46828 103.14322,-4.67405 z m 213.19103,2.5312 c 0.66854,-1.17858 -17.12863,-18.85715 -39.54926,-39.28572 -35.05331,-31.93886 -40.36491,-37.89008 -37.91083,-42.47617 2.08606,-3.89834 1.72189,-6.4654 -1.35351,-9.5408 -3.70517,-3.7052 -4.84697,-2.93283 -9.56463,6.47003 -4.78974,9.54651 -11.25843,13.77808 -61.07146,39.95051 -33.68245,17.69723 -56.09228,31.15423 -56.6702,34.0302 -2.64214,13.1486 -3.86777,12.9948 103.55477,12.9948 55.74229,0 101.8966,-0.96428 102.56512,-2.14285 z M 442.6056,703.74309 c 51.07674,-27.17552 55.73154,-30.29992 58.86154,-39.50912 3.31843,-9.76348 3.07035,-10.36088 -10.489,-25.259 -28.17157,-30.953 -47.54174,-72.74403 -54.51971,-117.62603 l -3.60129,-23.16325 -14.27657,10.167 c -13.61146,9.69334 -15.38448,10.167 -38.05666,10.167 -21.71291,0 -24.85566,-0.74003 -36.15357,-8.5132 l -12.37351,-8.5132 -2.03158,20.65605 c -4.44951,45.24055 -27.71654,93.22112 -57.58648,118.75317 -12.87361,11.00403 -13.01574,11.31563 -9.71843,21.30658 4.21499,12.77154 3.05271,11.91108 47.33966,35.04577 20.42857,10.67151 44.85714,23.67054 54.28571,28.88677 9.42858,5.2162 18.42858,8.95 20,8.29728 1.57143,-0.65268 27.81538,-14.46582 58.31989,-30.69582 z M 224.44725,587.02969 c 5.28517,-2.0094 8.80353,-1.98309 11.29479,0.0846 2.54839,2.11497 5.87685,1.974 11.2557,-0.47677 6.36997,-2.90238 7.30887,-4.69429 5.6581,-10.79875 -8.31043,-30.73165 -9.07325,-80.67957 -2.35899,-154.46191 3.78887,-41.63559 7.06707,-134.28785 4.75128,-134.28619 -2.80744,0.002 -16.58229,33.96898 -27.22907,67.14333 -18.3932,57.31142 -23.3503,89.3214 -23.45043,151.42857 -0.0935,58.00163 2.5597,84.28572 8.5081,84.28572 2.14177,0 7.3485,-1.31335 11.57052,-2.91857 z m 311.42844,-45.65286 c 8.34894,-65.91197 2.38922,-136.97214 -16.15175,-192.58402 -10.19545,-30.58039 -33.44194,-76.6472 -37.93277,-75.1702 -5.20128,1.71066 -5.47614,13.1876 -0.72631,30.32898 10.68503,38.56079 27.49223,163.04092 27.42771,203.13952 -0.052,32.34435 -1.23208,42.5734 -7.14097,61.90058 -1.66443,5.44411 -0.23086,6.67528 11.94994,10.26242 7.61275,2.24189 14.70692,3.3152 15.76486,2.38515 1.05794,-0.93006 4.12214,-19.04815 6.80929,-40.26243 z m -259.19262,28.57603 c 16.86215,-12.21486 30.95226,-32.67912 37.895,-55.03812 l 5.99886,-19.31923 -19.92091,-30.68077 c -23.66741,-36.45085 -26.9594,-42.7276 -33.69869,-64.2522 -2.82906,-9.03571 -6.02216,-16.42857 -7.09577,-16.42857 -3.50814,0 -9.21777,71.79489 -9.54325,120 -0.32474,48.09469 3.5722,74.28572 11.0529,74.28572 1.91714,0 8.80748,-3.85506 15.31186,-8.56683 z M 500.58889,557.8054 c 5.84885,-19.37157 4.27442,-85.38326 -3.18358,-133.48037 -3.52542,-22.73565 -7.1388,-42.51699 -8.02974,-43.95855 -0.89094,-1.44156 -3.99088,6.87461 -6.8888,18.48038 -3.01077,12.05785 -13.50934,37.19503 -24.4964,58.65283 l -19.22751,37.55142 11.944,24.10398 c 11.19843,22.59937 35.25868,50.79317 43.34631,50.79317 1.5782,0 4.51926,-5.46429 6.53572,-12.14286 z m -82.91495,-54.37463 c 17.44012,-11.8248 18.68372,-13.51208 37.3782,-50.71428 24.65203,-49.05773 28.89803,-65.82576 27.09446,-106.9996 -0.75849,-17.3156 -2.45686,-34.05435 -3.77414,-37.1972 -2.30043,-5.48844 -2.45675,-5.45355 -3.9552,0.8829 -2.16935,9.17341 -6.80137,8.3156 -9.74706,-1.80506 -1.85834,-6.38482 -4.6636,-8.93366 -11.29123,-10.25919 -4.8502,-0.97004 -11.82086,-4.58424 -15.49037,-8.03155 -6.33789,-5.95414 -7.05974,-6.03474 -14.42306,-1.61025 -4.2632,2.56168 -10.95171,10.80511 -14.8634,18.31872 -6.27597,12.05495 -7.06671,16.95234 -6.72565,41.65421 0.37622,27.24857 -0.91789,31.78234 -6.97086,24.42164 -8.09269,-9.84103 -12.75312,-37.49482 -10.80094,-64.08971 1.99865,-27.22762 0.63602,-30.95713 -8.11366,-22.20745 -3.21492,3.21492 -3.96792,7.69432 -2.76672,16.45814 1.68549,12.29698 -2.7292,34.74144 -7.40137,37.62902 -1.47563,0.91198 -2.42083,-7.40903 -2.19323,-19.30778 0.33138,-17.32324 -0.73645,-22.74928 -6.22451,-31.62917 -8.01254,-12.96456 -14.24715,-12.63221 -18.83575,1.0041 -4.69505,13.95265 -10.50814,12.57487 -15.06848,-3.57143 -6.05049,-21.42226 -12.52042,-18.28269 -32.77024,15.90192 -10.92263,18.43897 -12.18958,22.49418 -12.45696,39.87193 -0.3331,21.64865 -1.42287,24.33109 -7.10382,17.48596 -2.6416,-3.18293 -4.41898,-16.08523 -5.42139,-39.35476 -1.52289,-35.3517 -3.8477,-37.08891 -7.24294,-5.41225 -3.08062,28.74133 7.23003,78.72603 22.47312,108.94686 3.68259,7.30102 14.65841,25.37925 24.39072,40.17382 14.95643,22.73603 20.66391,28.81329 36.87711,39.26646 17.72709,11.42923 20.63089,12.36872 38.28452,12.38652 17.79568,0.0171 20.33668,-0.81755 37.14285,-12.21252 z M 199.79919,465.90063 c 0.28297,-19.79409 -2.40565,-14.84283 -3.87685,7.13951 -0.7832,11.7024 -0.3402,16.26923 1.22441,12.6224 1.34839,-3.14285 2.54199,-12.03571 2.65244,-19.76191 z m 77.34367,-277.38094 c 5.33081,-5.5 9.04952,-10 8.26381,-10 -0.78572,0 -5.79015,4.5 -11.12096,10 -5.3308,5.5 -9.04952,10 -8.26381,10 0.78572,0 5.79015,-4.5 11.12096,-10 z"
         id="path55"
         transform="scale(0.26458333)" />
      <path
         style="opacity:1;fill:#b50000;fill-opacity:1;fill-rule:nonzero;stroke:#c30000;stroke-width:1.01174331;stroke-linejoin:round;stroke-miterlimit:4;stroke-dasharray:none;stroke-dashoffset:0;stroke-opacity:0.89743593"
         d="m 408.02672,346.64322 c -1.63361,-1.19452 -1.71998,-1.65018 -0.57446,-3.03045 0.97845,-1.17896 3.0989,-1.62454 7.73094,-1.62454 3.51048,0 6.64431,-0.42332 6.96407,-0.9407 0.31976,-0.51739 -0.56255,-2.62638 -1.96069,-4.68665 -1.39814,-2.06028 -2.54207,-4.72803 -2.54207,-5.92834 0,-1.20031 -0.48523,-2.66761 -1.07828,-3.26066 -1.58574,-1.58574 2.4923,-13.22193 5.8917,-16.81124 3.54295,-3.74088 11.81494,-7.76836 15.95535,-7.76836 7.28871,0 17.38464,6.88098 20.28671,13.82662 2.28331,5.46473 1.75775,14.31786 -1.12811,19.00333 -3.74865,6.0863 -3.46441,6.566 3.89057,6.566 7.17028,0 10.05771,1.70462 7.69984,4.54568 -1.79962,2.16841 -58.18173,2.26922 -61.13557,0.10931 z m 35.87379,-6.26421 c 5.74269,-1.99934 6.75331,-2.86497 9.15974,-7.84571 5.9581,-12.33186 -2.93042,-25.13762 -16.34531,-23.54883 -9.04746,1.07154 -14.00268,6.87808 -14.01301,16.42048 -0.006,5.50612 0.33473,6.52945 3.27634,9.84075 2.77862,3.12785 8.57124,6.22212 12.37436,6.61008 0.55559,0.0567 3.05213,-0.60787 5.54788,-1.47677 z"
         id="path57"
         transform="scale(0.26458333)" />
      <path
         style="opacity:1;fill:#b50000;fill-opacity:1;fill-rule:nonzero;stroke:#c30000;stroke-width:1.01174331;stroke-linejoin:round;stroke-miterlimit:4;stroke-dasharray:none;stroke-dashoffset:0;stroke-opacity:0.89743593"
         d="m 283.54676,347.38014 c -1.79773,-0.7254 -1.56458,-4.04977 0.33515,-4.77876 0.87882,-0.33724 4.51537,-0.61315 8.08122,-0.61315 7.1771,0 7.64908,-0.57644 4.31073,-5.2647 -5.20088,-7.30397 -4.31761,-18.88079 1.97019,-25.8228 4.11063,-4.53831 11.72357,-8.31786 16.70118,-8.29153 5.12026,0.0271 13.84096,5.00693 17.24177,9.84569 2.31054,3.2875 3.10295,5.68682 3.44643,10.4353 0.46317,6.40329 -1.10813,13.19949 -3.51327,15.19557 -3.08314,2.55878 -1.48911,3.90247 4.62953,3.90247 3.28806,0 6.69732,0.27591 7.57614,0.61315 2.06678,0.79309 2.06678,4.04151 0,4.83461 -1.90586,0.73135 -58.95812,0.67892 -60.77907,-0.0559 z m 36.27776,-7.0568 c 12.43977,-4.06885 15.12292,-20.84268 4.59498,-28.72573 -4.59882,-3.44347 -15.06227,-3.512 -19.3658,-0.12684 -4.50929,3.54701 -6.60719,7.74271 -6.60719,13.21408 0,8.0732 3.35426,13.00135 10.63314,15.62243 5.32573,1.91777 4.93251,1.91718 10.74487,0.0161 z"
         id="path59"
         transform="scale(0.26458333)" />
      <path
         style="opacity:1;fill:#b50000;fill-opacity:1;fill-rule:nonzero;stroke:#c30000;stroke-width:1.01174331;stroke-linejoin:round;stroke-miterlimit:4;stroke-dasharray:none;stroke-dashoffset:0;stroke-opacity:0.89743593"
         d="m 326.2257,399.10853 c -5.92184,-2.84752 -6.75974,-4.09526 -7.28358,-10.84621 -0.34933,-4.5019 0.001,-7.70771 1.19438,-10.91875 0.92891,-2.50013 2.16606,-6.25032 2.74924,-8.33376 0.58318,-2.08344 1.41513,-3.78808 1.84879,-3.78808 0.43365,0 1.26385,-1.3637 1.84488,-3.03045 1.02987,-2.95428 3.45372,-3.91299 5.70721,-2.25738 1.5241,1.11974 6.46084,11.58064 7.19316,15.24223 0.35416,1.77079 1.03978,3.46428 1.52361,3.7633 0.48382,0.29902 0.87968,3.60236 0.87968,7.34074 0,5.96479 -0.34015,7.18941 -2.77792,10.00121 -3.33356,3.84503 -8.43418,4.96466 -12.87945,2.82715 z m 9.68711,-7.79222 c 1.62424,-3.03493 0.41386,-13.30285 -2.20614,-18.71503 -1.15794,-2.392 -2.42136,-4.34909 -2.8076,-4.34909 -1.45301,0 -4.06185,5.8359 -5.76703,12.90071 -1.50234,6.22441 -1.5647,7.69177 -0.41792,9.83455 1.11566,2.08461 2.09558,2.51856 5.68735,2.51856 3.4175,0 4.58842,-0.46522 5.51134,-2.1897 z"
         id="path61"
         transform="scale(0.26458333)" />
      <path
         style="opacity:1;fill:#b50000;fill-opacity:1;fill-rule:nonzero;stroke:#c30000;stroke-width:1.01174331;stroke-linejoin:round;stroke-miterlimit:4;stroke-dasharray:none;stroke-dashoffset:0;stroke-opacity:0.89743593"
         d="m 331.80973,456.6745 c -0.67614,-0.81469 -1.07273,-1.88258 -0.8813,-2.37308 0.19142,-0.4905 4.18497,-5.05147 8.87456,-10.13549 l 8.52653,-9.24367 h 26.92679 c 24.17322,0 27.14097,0.18077 29.02127,1.76777 1.15197,0.97227 5.56115,4.46081 9.79818,7.75232 5.77804,4.48862 7.62878,6.50607 7.40399,8.0709 -0.42133,2.93301 -3.00275,3.09382 -6.05234,0.37702 -14.62654,-13.03034 -14.27982,-12.91839 -39.98389,-12.91059 -25.32145,0.008 -23.29162,-0.63783 -34.12565,10.85248 -3.79792,4.02799 -7.21434,7.32361 -7.59205,7.32361 -0.37771,0 -1.23995,-0.66657 -1.91609,-1.48127 z"
         id="path63"
         transform="scale(0.26458333)" />
      <path
         style="opacity:1;fill:#b50000;fill-opacity:1;fill-rule:nonzero;stroke:#c30000;stroke-width:1.01174331;stroke-linejoin:round;stroke-miterlimit:4;stroke-dasharray:none;stroke-dashoffset:0;stroke-opacity:0.89743593"
         d="m 367.59145,461.33515 c -0.52781,-0.47368 -3.11021,-1.43947 -5.73868,-2.14621 -5.26253,-1.41499 -7.374,-3.22937 -6.47736,-5.56599 0.76533,-1.99443 3.44513,-1.92893 7.21578,0.17636 3.71201,2.07255 22.3332,2.58569 23.53205,0.64848 1.19245,-1.92688 6.35747,-2.83159 7.31555,-1.2814 1.33064,2.15303 -0.72985,4.73083 -4.82841,6.04066 -2.08771,0.6672 -4.22767,1.61274 -4.75548,2.10121 -1.23248,1.14062 -14.99708,1.16339 -16.26345,0.0269 z"
         id="path67"
         transform="scale(0.26458333)" />
    </g>
  </g>
</svg>
