<?xml version="1.0" encoding="UTF-8" standalone="no"?>
<svg
   xmlns:dc="http://purl.org/dc/elements/1.1/"
   xmlns:cc="http://creativecommons.org/ns#"
   xmlns:rdf="http://www.w3.org/1999/02/22-rdf-syntax-ns#"
   xmlns:svg="http://www.w3.org/2000/svg"
   xmlns="http://www.w3.org/2000/svg"
   id="svg29"
   version="1.1"
   viewBox="0 0 210 297"
   height="297mm"
   width="210mm">
  <defs
     id="defs23" />
  <metadata
     id="metadata26">
    <rdf:RDF>
      <cc:Work
         rdf:about="">
        <dc:format>image/svg+xml</dc:format>
        <dc:type
           rdf:resource="http://purl.org/dc/dcmitype/StillImage" />
        <dc:title></dc:title>
      </cc:Work>
    </rdf:RDF>
  </metadata>
  <g
     id="layer1">
    <path
       transform="scale(0.26458333)"
       id="path65"
       d=""
       style="opacity:1;fill:#b50000;fill-opacity:1;fill-rule:nonzero;stroke:#c30000;stroke-width:1.01174331;stroke-linejoin:round;stroke-miterlimit:4;stroke-dasharray:none;stroke-dashoffset:0;stroke-opacity:0.89743593" />
    <path
       transform="scale(0.26458333)"
       id="path107"
       d=""
       style="opacity:1;fill:#b50000;fill-opacity:1;fill-rule:nonzero;stroke:#c30000;stroke-width:2.86164212;stroke-linejoin:round;stroke-miterlimit:4;stroke-dasharray:none;stroke-dashoffset:0;stroke-opacity:0.89743593" />
    <path
       transform="scale(0.26458333)"
       id="path132"
       d=""
       style="opacity:1;fill:#b50000;fill-opacity:1;fill-rule:nonzero;stroke:#c30000;stroke-width:2.86164212;stroke-linejoin:round;stroke-miterlimit:4;stroke-dasharray:none;stroke-dashoffset:0;stroke-opacity:0.89743593" />
    <g
       transform="translate(-500.44048,-189.74405)"
       id="g141">
      <path
         style="opacity:1;fill:#b50000;fill-opacity:1;fill-rule:nonzero;stroke:#c30000;stroke-width:2.86164212;stroke-linejoin:round;stroke-miterlimit:4;stroke-dasharray:none;stroke-dashoffset:0;stroke-opacity:0.89743593"
         d="m 2498.1593,1589.8816 c -4.5202,-8.7957 -21.8134,-34.6127 -30.7649,-45.9288 -2.5041,-3.1656 -12.1768,-6.8811 -24.6164,-9.4558 -50.5308,-10.4584 -121.3978,-51.5976 -195.7077,-113.6108 -20.5282,-17.1312 -25.8885,-20.4086 -26.578,-16.2503 -1.7593,10.6086 8.285,43.7714 20.8119,68.714 7.1,14.1368 12.909,26.4926 12.909,27.4574 0,4.2737 -50.6233,-44.7616 -66.3867,-64.3043 -34.5478,-42.8305 -66.2877,-97.9145 -86.5469,-150.2006 -5.7168,-14.7543 -12.2423,-28.3598 -14.5011,-30.2344 -6.108,-5.0692 -46.9663,-61.0116 -64.6826,-88.5622 -62.1601,-96.665 -86.8019,-178.43101 -66.7511,-221.49248 5.6962,-12.23314 9.2344,-15.80062 21.9617,-22.14286 42.0514,-20.95513 114.5377,4.52888 207.6288,72.99611 14.54,10.69393 26.9097,19.44363 27.4882,19.44363 0.5785,0 1.9662,-10.6072 3.0837,-23.57147 2.3643,-27.42717 5.6292,-46.20069 11.6768,-67.14286 6.4074,-22.18793 12.3824,-20.76541 36.0116,8.57352 88.0759,109.35851 165.9009,247.58571 224.0015,397.85501 6.6834,17.2858 17.3828,44.3862 23.7763,60.2234 6.3936,15.8371 13.4363,39.234 15.6505,51.9932 4.6803,26.9706 14.0907,41.9597 42.4605,67.633 16.9343,15.3246 17.247,15.8736 13.7911,24.2166 -4.8379,11.6797 -68.0249,63.0767 -77.546,63.0767 -1.319,0 -4.5456,-4.1786 -7.1702,-9.2857 z m 37.2185,-30.5176 c 8.0023,-6.1776 18.1461,-14.9899 22.5418,-19.583 l 7.9921,-8.351 -7.0704,-4.6328 c -6.948,-4.5524 -7.2628,-4.3989 -18.1776,8.8687 -29.3029,35.6192 -31.0864,43.6153 -5.2859,23.6981 z m -16.5108,-22.0086 c 9.2261,-11.9966 18.0064,-23.4927 19.5118,-25.547 1.8812,-2.5673 1.0728,-5.5742 -2.5857,-9.6167 -6.9269,-7.6542 -9.1465,-7.417 -11.3115,1.2089 -2.6762,10.663 -17.8556,26.4273 -28.9826,30.0996 -5.4215,1.7892 -9.8572,4.0381 -9.8572,4.9976 0,2.7759 12.6686,20.6284 14.6538,20.65 0.9882,0.011 9.3453,-9.7958 18.5714,-21.7924 z m -28.102,-21.0235 c 23.3925,-10.6168 29.029,-39.8235 16.3628,-84.7864 l -4.9641,-17.6218 -36.1181,-14.2211 c -84.4291,-33.2429 -167.0647,-51.9639 -229.372,-51.9639 h -16.1459 l -1.2806,12.1429 c -0.7043,6.6786 0.1187,13.9401 1.8289,16.1367 1.7102,2.1966 19.1296,17.3714 38.7099,33.7217 63.9427,53.3949 133.2547,94.9991 177.2844,106.4142 27.2659,7.069 38.4295,7.1059 53.6947,0.1778 z m -287.3208,-102.1646 c -2.7124,-17.6288 -2.584,-49.9906 0.2662,-67.0434 2.1049,-12.5941 2.9159,-13.5967 12.445,-15.3843 5.6063,-1.0518 24.2569,-1.0224 41.4458,0.065 51.601,3.2652 102.578,13.7993 161.7917,33.4334 19.3488,6.4157 35.7817,11.0628 36.5177,10.3269 2.6042,-2.6042 -43.5576,-31.32 -74.5546,-46.378 -55.0333,-26.7346 -130.5951,-48.6877 -191.4285,-55.6159 -26.1518,-2.9783 -75.7143,-4.0601 -75.7143,-1.6526 0,8.3565 39.9811,91.0772 42.7039,88.3541 0.87,-0.87 1.1388,-13.538 0.5973,-28.151 -0.5414,-14.6129 0.1998,-27.3009 1.6471,-28.1953 1.4473,-0.8945 5.426,-0.8956 8.8416,0 5.7425,1.5016 6.2101,3.3992 6.2101,25.2021 0,37.8055 7.0797,71.7795 17.9741,86.254 5.0428,6.7 10.1084,12.2215 11.2569,12.2701 1.1486,0.049 1.1486,-6.0188 0,-13.4831 z m 277.8092,-50 c -10.3452,-34.7054 -58.2114,-143.8429 -86.1508,-196.4286 -39.4734,-74.2941 -112.4859,-189.35586 -117.1783,-184.66345 -0.7942,0.79416 1.8419,11.48975 5.858,23.76795 16.2466,49.6704 17.2278,56.2126 16.5974,110.6628 -0.6907,59.6516 2.5122,87.5087 14.1489,123.0586 14.9953,45.8104 17.1503,48.5204 49.8257,62.657 36.4773,15.7814 60.3806,29.056 90.2081,50.0967 13.165,9.2868 24.9874,16.9734 26.2719,17.0813 1.2845,0.108 1.4731,-2.6966 0.4191,-6.2323 z m -171.4884,-87.1429 c -1.2113,-2.75 -5.3334,-14 -9.1602,-25 -3.8268,-11 -7.4535,-20.5159 -8.0593,-21.1464 -0.6058,-0.6306 -7.308,4.6591 -14.8939,11.7548 -7.5858,7.0957 -16.6056,14.4068 -20.044,16.247 -9.885,5.2902 -7.4527,8.2044 9.8451,11.7954 8.8532,1.838 20.746,5.0528 26.4286,7.1442 14.7085,5.4131 18.5339,5.2217 15.8837,-0.795 z m -112.6947,-29.2857 c -4.9783,-6.2857 -10.2548,-11.4285 -11.7254,-11.4285 -4.5839,0 -26.9862,15.1913 -23.913,16.2157 2.7816,0.9272 32.8991,5.5636 40.8785,6.293 2.1497,0.1965 -0.135,-4.6345 -5.2401,-11.0802 z m 70.2549,-18.2069 c 8.5027,-8.2355 15.4594,-16.2305 15.4594,-17.7667 0,-1.5361 -6.9854,-9.6916 -15.523,-18.1232 l -15.523,-15.3302 -25.693,23.9992 -25.6929,23.9993 14.5213,14.8294 14.5213,14.8294 11.2353,-5.7318 c 6.1794,-3.1525 18.192,-12.47 26.6946,-20.7054 z m -120.0532,8.3619 c 12.305,-6.69 22.7244,-13.3188 23.1543,-14.7307 0.4299,-1.4119 -6.094,-10.2557 -14.4975,-19.6528 l -15.279,-17.0857 -29.6469,15.3782 c -16.3058,8.4581 -30.1424,15.7851 -30.7482,16.2823 -1.5168,1.2451 6.5596,13.2505 16.63,24.7201 10.8934,12.4069 20.2028,11.4995 50.3873,-4.9114 z m 71.1324,-50.7133 20.0945,-19.6939 -17.9301,-17.3622 -17.9301,-17.3622 -14.927,13.938 c -8.2099,7.6658 -19.1953,17.4566 -24.4121,21.7572 l -9.485,7.8193 16.3184,18.4721 c 19.2904,21.8364 18.074,22.0271 48.2714,-7.5683 z m -121.0898,3.1505 c 15.5799,-8.0029 28.2688,-16.0386 28.1975,-17.8571 -0.071,-1.8186 -6.5307,-10.3357 -14.354,-18.9268 l -14.2243,-15.6204 -7.7889,4.989 c -4.2839,2.7439 -16.5554,9.5121 -27.2701,15.0404 l -19.4812,10.0515 5.1955,7.7865 c 15.5542,23.3114 19.5707,29.0202 20.4398,29.0522 0.5271,0.02 13.7057,-6.5124 29.2857,-14.5153 z m 186.0976,-29.0207 c -1.4361,-40.1395 -0.9582,-39.4772 -12.371,-17.146 l -10.3148,20.1829 10.2672,10.2673 c 5.647,5.6469 10.941,10.2672 11.7646,10.2672 0.8235,0 1.1178,-10.6072 0.654,-23.5714 z m -125.6798,-10.3708 c 14.7705,-12.2057 28.0394,-26.9513 27.6757,-30.756 -0.1286,-1.3446 -7.2531,-8.5863 -15.8322,-16.0928 l -15.5985,-13.6481 -21.2484,19.2446 -21.2484,19.2445 6.3102,7.2607 c 14.1912,16.329 23.3487,25.8321 24.8924,25.8321 0.8991,0 7.6713,-4.9882 15.0492,-11.085 z m -92.8049,-13.5193 c 9.8214,-5.4786 17.8015,-11.5053 17.7334,-13.3926 -0.068,-1.8874 -6.471,-10.5031 -14.2288,-19.1459 l -14.1052,-15.7143 -15.0568,8.444 c -8.2813,4.6442 -17.9397,9.787 -21.4632,11.4286 -3.5234,1.6415 -6.4163,4.0614 -6.4286,5.3774 -0.012,1.3161 4.5543,10.5766 10.1479,20.5789 11.6741,20.8752 10.4465,20.8066 43.4013,2.4239 z m 191.3428,-1.2382 c 3.4886,-7.0009 8.1813,-19.8003 10.4283,-28.4432 l 4.0855,-15.7143 -13.1781,-13.5714 c -7.2479,-7.4643 -13.9542,-13.5714 -14.9029,-13.5714 -0.9487,0 -5.4971,7.9653 -10.1074,17.7008 -4.6104,9.7354 -11.2748,22.006 -14.8099,27.268 l -6.4274,9.5671 16.4274,15.4778 c 9.0351,8.5127 17.7131,15.1487 19.2845,14.7466 1.5715,-0.4022 5.7115,-6.4592 9.2,-13.46 z m -133.4245,-39.545 18.5102,-16.8161 -14.0419,-12.4696 c -25.083,-22.2745 -22.4869,-21.9474 -41.7494,-5.26 -9.3862,8.1314 -17.0658,15.4468 -17.0658,16.2566 0,3.3367 29.3989,35.1052 32.4868,35.1052 1.8424,0 11.6795,-7.5672 21.8601,-16.8161 z m 93.1027,-18.8176 c 5.3313,-10.9556 9.6202,-21.8842 9.531,-24.2857 -0.089,-2.4015 -7.7897,-10.5644 -17.1121,-18.1398 -16.8255,-13.6725 -16.9697,-13.7248 -19.678,-7.1428 -7.3438,17.8479 -14.6281,33.1195 -19.3058,40.4746 l -5.1704,8.1298 17.0654,15.6 c 19.786,18.0872 18.4769,18.6398 34.6699,-14.6361 z m -192.8495,9.5214 c 9.2556,-4.9333 16.8285,-10.2589 16.8285,-11.8349 0,-1.5759 -5.8675,-9.7332 -13.0388,-18.1274 l -13.0388,-15.262 -14.8184,8.554 c -8.1501,4.7047 -14.4157,10.1483 -13.9236,12.0969 2.6037,10.3109 14.955,33.5429 17.833,33.5429 1.8313,0 10.9024,-4.0363 20.1581,-8.9695 z m 255.3346,-38.9753 c -8.0263,-36.2324 -34.5405,-105.84643 -38.6568,-101.49449 -3.4082,3.60335 -8.4208,41.34187 -8.4208,63.39869 0,22.5942 -0.2108,22.2533 31.2552,50.541 10.7298,9.646 18.8795,15.0956 19.5531,13.0749 0.6352,-1.9057 -1.0436,-13.3897 -3.7307,-25.5201 z m -204.6236,1.2102 15.1158,-15.306 -14.9742,-13.0991 c -16.7194,-14.6257 -13.4882,-15.0168 -36.5661,4.4262 l -9.327,7.858 13.4244,15.7134 c 7.3834,8.6424 14.2764,15.7135 15.3178,15.7135 1.0414,0 8.6955,-6.8877 17.0093,-15.306 z m 90.6765,-8.5224 c 13.1593,-27.4587 12.7884,-30.7541 -4.7257,-41.99284 -8.0169,-5.14447 -15.43,-8.13963 -16.648,-6.72641 -1.2076,1.4012 -8.2449,11.19255 -15.6386,21.75855 l -13.443,19.211 10.8053,9.7571 c 18.418,16.6313 24.9717,21.349 27.4929,19.7909 1.3368,-0.8262 6.8075,-10.6354 12.1571,-21.7983 z m -174.182,-4.9761 c 5.2926,-3.271 9.623,-6.8967 9.623,-8.0571 0,-1.1604 -4.5953,-7.4784 -10.2117,-14.0399 -8.8083,-10.2905 -11.0053,-11.5054 -15.9861,-8.8397 -4.7676,2.5515 -5.4454,4.8444 -3.8874,13.1494 2.3946,12.7643 6.5374,23.7346 8.9629,23.7346 1.032,0 6.2067,-2.6762 11.4993,-5.9473 z m 130.5745,-41.14447 c 4.1909,-6.25764 7.6199,-12.73708 7.6199,-14.39875 0,-2.68163 -36.511,-24.22372 -41.056,-24.22372 -0.9906,0 -1.8011,1.79801 -1.8011,3.99558 0,2.19757 -3.7085,11.04546 -8.241,19.66198 l -8.241,15.6664 15.6203,13.13328 15.6204,13.1333 6.4293,-7.7953 c 3.536,-4.2874 9.8582,-12.9151 14.0492,-19.17277 z m -90.0423,15.05177 c 6.5713,-5.0505 11.9479,-10.73605 11.9479,-12.63446 0,-4.06047 -22.4868,-23.93525 -26.9428,-23.81317 -3.2771,0.0898 -21.6286,15.88644 -21.6286,18.61752 0,2.40019 20.9042,27.01301 22.9428,27.01301 0.953,0 7.1093,-4.1323 13.6807,-9.1829 z m 32.4375,-38.18932 c 2.6552,-4.58814 5.6546,-11.70024 6.6654,-15.80467 1.6473,-6.68868 0.6248,-7.94798 -9.8592,-12.14285 -15.5265,-6.21246 -15.4324,-6.23409 -24.4802,5.62823 l -7.8627,10.3085 12.5236,10.98999 c 6.8879,6.0445 13.7974,10.62389 15.3545,10.17643 1.557,-0.44746 5.0034,-4.5675 7.6586,-9.15563 z m -70.8749,-1.40658 c 10.0071,-7.87158 9.4962,-12.28641 -2.4786,-21.42004 -8.5514,-6.52252 -10.6755,-7.07748 -14.6053,-3.81603 -8.4018,6.97287 -9.3763,14.84962 -2.8632,23.1425 7.3772,9.39317 10.2799,9.69782 19.9471,2.09357 z m 27.4276,-28.17622 c 4.4339,-8.28465 3.9479,-8.75926 -8.9689,-8.75926 h -11.9266 l 6.7104,7.14285 c 8.0719,8.59223 10.315,8.84783 14.1851,1.61641 z"
         id="path130"
         transform="scale(0.26458333)" />
      <path
         style="opacity:1;fill:#b50000;fill-opacity:1;fill-rule:nonzero;stroke:#c30000;stroke-width:2.86164212;stroke-linejoin:round;stroke-miterlimit:4;stroke-dasharray:none;stroke-dashoffset:0;stroke-opacity:0.89743593"
         d="m 2448.4989,1493.7629 c -32.1259,-10.4203 -85.2337,-40.4936 -144.5863,-81.8745 l -26.879,-18.7403 4.9841,-6.6076 4.9841,-6.6076 30.074,20.7939 c 92.5677,64.0037 165.7088,97.8606 165.7088,76.7062 0,-2.5174 3.1497,-3.98 8.5714,-3.98 10.9453,0 11.6618,8.598 1.5585,18.7013 -8.5282,8.5282 -21.6207,9.0024 -44.4156,1.6086 z"
         id="path134"
         transform="scale(0.26458333)" />
      <path
         style="opacity:1;fill:#b50000;fill-opacity:1;fill-rule:nonzero;stroke:#c30000;stroke-width:2.86164212;stroke-linejoin:round;stroke-miterlimit:4;stroke-dasharray:none;stroke-dashoffset:0;stroke-opacity:0.89743593"
         d="m 2405.9162,1265.5549 c -10.1325,-26.0034 -43.4923,-94.3955 -61.5988,-126.2861 -9.7822,-17.2292 -10.1492,-18.7167 -5.4636,-22.1429 2.7626,-2.0201 6.037,-3.6729 7.2762,-3.6729 8.4883,0 88.7573,166.3715 82.8986,171.8217 -1.0771,1.002 -4.5297,2.5907 -7.6726,3.5305 -4.9745,1.4875 -6.9733,-1.5225 -15.4398,-23.2503 z"
         id="path136"
         transform="scale(0.26458333)" />
    </g>
  </g>
</svg>
