<?xml version="1.0" encoding="UTF-8" standalone="no"?>
<svg
   xmlns:dc="http://purl.org/dc/elements/1.1/"
   xmlns:cc="http://creativecommons.org/ns#"
   xmlns:rdf="http://www.w3.org/1999/02/22-rdf-syntax-ns#"
   xmlns:svg="http://www.w3.org/2000/svg"
   xmlns="http://www.w3.org/2000/svg"
   id="svg29"
   version="1.1"
   viewBox="0 0 210 297"
   height="297mm"
   width="210mm">
  <defs
     id="defs23" />
  <metadata
     id="metadata26">
    <rdf:RDF>
      <cc:Work
         rdf:about="">
        <dc:format>image/svg+xml</dc:format>
        <dc:type
           rdf:resource="http://purl.org/dc/dcmitype/StillImage" />
        <dc:title></dc:title>
      </cc:Work>
    </rdf:RDF>
  </metadata>
  <g
     id="layer1">
    <path
       id="path42"
       d="m 101.40961,170.47421 -23.842222,-20.41737 -3.806799,0.43766 c -3.447466,0.39633 -17.174259,2.20752 -36.640011,4.83447 -10.582196,1.42809 -9.522323,1.82523 -14.187328,-5.31604 -2.271587,-3.47737 -4.364413,-6.71754 -4.650741,-7.20038 -0.375133,-0.63258 1.018972,-1.3906 4.989207,-2.71282 l 5.509798,-1.83493 0.194982,-7.70185 0.194991,-7.70184 5.99055,5.33194 c 3.294802,2.93255 6.405312,5.31872 6.912251,5.30258 0.50694,-0.0161 3.099062,-0.77583 5.760283,-1.68819 l 4.838582,-1.65884 0.201876,-5.22406 0.201885,-5.22407 H 66.23181 c 10.811045,0 13.115065,-0.16939 12.931394,-0.9507 -0.304195,-1.29405 -13.933058,-21.82669 -14.500008,-21.84508 -0.24861,-0.008 -2.378093,1.07402 -4.732175,2.40463 -2.354092,1.33061 -4.501241,2.41929 -4.771448,2.41929 -0.270199,0 -1.554149,-2.19705 -2.853204,-4.88234 -1.299056,-2.68529 -2.70545,-5.16744 -3.125314,-5.5159 -0.516001,-0.42823 -2.297555,1.4952 -5.497362,5.93517 -2.60368,3.61279 -4.952669,6.32824 -5.219978,6.03431 -0.267309,-0.29392 -1.65825,-4.1115 -3.090978,-8.4835 -1.432728,-4.372 -2.845706,-8.22051 -3.139953,-8.55224 -0.294246,-0.33174 -3.12524,1.58579 -6.291115,4.26116 l -5.756113,4.86431 -0.19618,-6.77938 -0.19617,-6.77938 -6.886283,-1.974745 -6.8862834,-1.974747 -0.00274,-16.463186 c -0.00274,-15.359517 0.078454,-16.43847 1.2070417,-16.094545 0.6653006,0.202754 7.5862027,1.799649 15.3797667,3.548654 7.793565,1.749009 18.991419,4.271065 24.884113,5.604572 19.36325,4.38187 22.375574,5.010179 22.790637,4.753662 0.225696,-0.139494 2.397113,-3.387591 4.825351,-7.217996 l 4.414978,-6.964372 h 22.733026 22.73303 l 18.54798,-14.450167 18.54799,-14.45017 5.77784,11.132412 c 3.1778,6.122827 5.71083,11.34892 5.62893,11.61354 -0.0819,0.264617 -1.98269,3.546155 -4.22399,7.292301 -2.24131,3.746148 -7.26519,12.254578 -11.16417,18.907623 -3.899,6.653046 -7.83042,13.256219 -8.73649,14.673722 -0.90608,1.417502 -1.64741,2.881882 -1.64741,3.254182 0,0.68623 6.12972,4.57512 6.4664,4.10248 0.1006,-0.14123 1.53905,-2.58967 3.19654,-5.44097 1.65749,-2.851306 3.73517,-6.339216 4.61708,-7.750913 l 1.60347,-2.566723 11.74111,8.096526 c 6.45762,4.45309 14.43952,9.93166 17.73755,12.17461 l 5.99643,4.07807 -0.44726,10.78327 c -0.24599,5.93081 -0.44829,27.34676 -0.44955,47.59103 l -0.003,36.80775 -36.46214,-0.003 -36.46214,-0.003 -23.84223,-20.41737 z m 39.7315,-102.767898 c -1.75681,-1.546405 -3.87323,-3.369274 -4.70316,-4.050819 l -1.50896,-1.239174 5.87541,-5.495912 5.87542,-5.495909 -1.67574,-1.805741 c -0.92167,-0.993154 -1.9091,-1.805737 -2.19431,-1.805737 -0.75487,0 -15.82987,13.806114 -15.82987,14.49745 0,0.321032 3.03275,3.270015 6.73944,6.553298 l 6.73945,5.969605 1.93826,-2.157708 1.93826,-2.157706 z m -47.814553,3.321675 c 2.293724,-2.125748 2.938753,-4.70509 1.840001,-7.357729 -1.139231,-2.750352 -3.187994,-4.106405 -6.204066,-4.106405 -3.148703,0 -5.22487,1.474559 -6.188879,4.395544 -2.12835,6.448951 5.620831,11.639519 10.552944,7.06859 z"
       style="opacity:1;fill:#b50000;fill-opacity:1;fill-rule:nonzero;stroke:#c30000;stroke-width:0.69231397;stroke-linejoin:round;stroke-miterlimit:4;stroke-dasharray:none;stroke-dashoffset:0;stroke-opacity:0.89743593" />
  </g>
</svg>
