<?xml version="1.0" encoding="UTF-8" standalone="no"?>
<!-- Created with Inkscape (http://www.inkscape.org/) -->

<svg
   xmlns:dc="http://purl.org/dc/elements/1.1/"
   xmlns:cc="http://creativecommons.org/ns#"
   xmlns:rdf="http://www.w3.org/1999/02/22-rdf-syntax-ns#"
   xmlns:svg="http://www.w3.org/2000/svg"
   xmlns="http://www.w3.org/2000/svg"
   xmlns:sodipodi="http://sodipodi.sourceforge.net/DTD/sodipodi-0.dtd"
   xmlns:inkscape="http://www.inkscape.org/namespaces/inkscape"
   width="210mm"
   height="297mm"
   viewBox="0 0 210 297"
   version="1.1"
   id="svg8"
   sodipodi:docname="dead_cat.svg"
   inkscape:version="0.92.1 r15371">
  <defs
     id="defs2" />
  <sodipodi:namedview
     id="base"
     pagecolor="#ffffff"
     bordercolor="#666666"
     borderopacity="1.0"
     inkscape:pageopacity="0.0"
     inkscape:pageshadow="2"
     inkscape:zoom="0.35"
     inkscape:cx="1048.0474"
     inkscape:cy="619.87713"
     inkscape:document-units="mm"
     inkscape:current-layer="layer1"
     showgrid="false"
     inkscape:window-width="1536"
     inkscape:window-height="801"
     inkscape:window-x="-8"
     inkscape:window-y="-8"
     inkscape:window-maximized="1" />
  <metadata
     id="metadata5">
    <rdf:RDF>
      <cc:Work
         rdf:about="">
        <dc:format>image/svg+xml</dc:format>
        <dc:type
           rdf:resource="http://purl.org/dc/dcmitype/StillImage" />
      </cc:Work>
    </rdf:RDF>
  </metadata>
  <g
     inkscape:label="Layer 1"
     inkscape:groupmode="layer"
     id="layer1">
    <path
       style="opacity:1;fill:#b50000;fill-opacity:1;fill-rule:nonzero;stroke:#c30000;stroke-width:0.37857139;stroke-linejoin:round;stroke-miterlimit:4;stroke-dasharray:none;stroke-dashoffset:0;stroke-opacity:0.89743593"
       d="m 101.22869,195.0265 c -20.235579,-0.68041 -40.062379,-8.64015 -54.969189,-22.06813 -8.93118,-8.04517 -14.79002,-15.62122 -20.02523,-25.89456 -6.86821,-13.47787 -9.89766,-27.24127 -9.34884,-42.47364 0.36339,-10.085959 1.50086,-15.980764 4.52197,-23.434524 l 1.30218,-3.212798 -2.89485,-3.023809 C 13.217781,68.028212 8.577181,58.002485 7.096001,47.440993 c -0.9024,-6.434497 -1.1053,-18.312435 -0.42061,-24.621887 0.31221,-2.876987 0.64266,-5.305899 0.73435,-5.397582 0.35514,-0.355142 4.86631,-0.911498 10.41648,-1.284651 9.08654,-0.610912 21.31002,0.501889 27.83997,2.534497 8.69575,2.706765 14.72823,6.259269 20.37381,11.998038 3.11671,3.168158 7.40237,8.372068 8.47869,10.295342 0.20559,0.367366 1.34429,0.273077 5.17134,-0.428215 8.43588,-1.545836 13.2595,-1.904515 25.318419,-1.882642 11.56343,0.02098 18.43545,0.602339 26.0801,2.206355 2.299,0.482378 2.68544,0.483883 2.9498,0.01151 0.70795,-1.265026 5.17353,-6.632501 7.99255,-9.606761 5.58388,-5.891382 11.41183,-9.465004 20.04954,-12.29411 7.06148,-2.312846 19.15132,-3.509111 28.70388,-2.840191 5.71287,0.400043 9.96643,0.94633 10.34926,1.329157 1.08571,1.085715 1.91195,16.607147 1.24479,23.384288 -1.53243,15.566861 -5.90838,26.320326 -14.0653,34.564081 l -2.35399,2.379054 0.78502,1.967672 c 6.53967,16.391832 7.048,33.132732 1.59224,52.437262 -2.64389,9.35505 -8.72789,21.32488 -14.67097,28.86405 -15.03206,19.0691 -36.40468,30.99168 -59.96347,33.45023 -4.43554,0.46289 -8.78252,0.64412 -12.47321,0.52002 z m 15.68601,-6.28461 c 12.6429,-2.32787 21.31731,-5.56929 30.88569,-11.54124 5.24209,-3.27176 7.96029,-5.38563 12.93015,-10.05542 7.34126,-6.89802 12.57778,-13.96689 17.24272,-23.27629 3.75438,-7.49226 6.65619,-16.81034 7.91182,-25.4058 1.17484,-8.04243 0.65543,-20.614403 -1.13754,-27.533725 -0.84762,-3.271054 -3.28562,-9.984838 -4.48283,-12.344839 l -1.01667,-2.004105 3.77009,-3.584736 c 4.48379,-4.263337 7.42367,-8.427249 9.45968,-13.398225 3.40192,-8.30594 4.636,-15.530396 4.58185,-26.822815 -0.0204,-4.261682 -0.16219,-8.428869 -0.31501,-9.260417 l -0.27786,-1.511905 -2.82887,-0.305957 c -1.55588,-0.168277 -6.23066,-0.229812 -10.3884,-0.136745 -11.91922,0.266799 -19.68554,1.890573 -26.98876,5.64278 -5.3381,2.742577 -7.67145,4.627983 -12.53893,10.131769 -1.84787,2.089441 -7.06429,9.235331 -7.35702,10.07827 -0.0164,0.04714 -1.99807,-0.331187 -4.40377,-0.840727 -9.15846,-1.939808 -12.72286,-2.229588 -27.51955,-2.237279 -9.026789,-0.0047 -15.102809,0.160014 -17.575899,0.47644 -3.41327,0.436721 -12.28002,2.064874 -13.86209,2.545424 -0.46901,0.14246 -1.27785,-0.766421 -3.12315,-3.509433 -10.69797,-15.902427 -22.32968,-21.759496 -44.2469,-22.280223 -4.15774,-0.09878 -8.82847,-0.04117 -10.37941,0.128038 l -2.81988,0.307643 -0.32461,1.322917 c -0.17854,0.727604 -0.34343,4.979836 -0.36642,9.449405 -0.0731,14.19888 1.87474,23.083345 6.99329,31.898492 1.73684,2.991188 7.22005,9.232865 9.16914,10.437471 0.72527,0.448238 1.31866,1.044236 1.31866,1.32444 0,0.280205 -0.76325,2.153942 -1.69612,4.163862 -3.77343,8.130093 -5.22769,15.599341 -5.22303,26.82603 0.004,10.04774 1.15509,17.68901 3.84277,25.51339 3.32704,9.68571 6.69531,16.13891 12.52765,24.00149 3.3336,4.49402 10.63492,11.91254 15.11719,15.35983 6.82269,5.24731 15.66364,10.10201 23.31483,12.80254 4.02041,1.41904 11.69187,3.22321 16.76136,3.94194 5.12095,0.72602 18.407479,0.55175 23.045829,-0.30229 z"
       id="path854"
       inkscape:connector-curvature="0" />
    <path
       style="opacity:1;fill:#b50000;fill-opacity:1;fill-rule:nonzero;stroke:#c30000;stroke-width:0.37857139;stroke-linejoin:round;stroke-miterlimit:4;stroke-dasharray:none;stroke-dashoffset:0;stroke-opacity:0.89743593"
       d="m 127.30419,110.63286 -1.86632,-1.89481 6.03384,-6.04269 6.03383,-6.04269 -6.03872,-6.047584 -6.03873,-6.047584 1.90033,-1.900324 1.90032,-1.900325 5.84373,5.857152 c 3.21404,3.221435 6.01187,5.8625 6.2174,5.869041 0.20552,0.0065 3.06544,-2.667021 6.35538,-5.94124 l 5.98171,-5.953125 1.67661,1.831956 c 0.92213,1.007576 1.67661,1.995869 1.67661,2.196209 0,0.200337 -2.55134,2.867411 -5.66965,5.926828 -3.1183,3.059414 -5.66964,5.814655 -5.66964,6.122757 0,0.308099 2.55134,3.085817 5.66964,6.172699 3.11831,3.08689 5.66965,5.74777 5.66965,5.91307 0,0.1653 -0.75448,1.12493 -1.67661,2.1325 l -1.67661,1.83196 -5.98171,-5.95313 c -3.28994,-3.27421 -6.10171,-5.95312 -6.24838,-5.95312 -0.14667,0 -2.93878,2.63638 -6.20469,5.85863 -3.26591,3.22224 -5.95684,5.85863 -5.97984,5.85863 -0.023,0 -0.88167,-0.85266 -1.90815,-1.89481 z"
       id="path856"
       inkscape:connector-curvature="0" />
    <path
       style="opacity:1;fill:#b50000;fill-opacity:1;fill-rule:nonzero;stroke:#c30000;stroke-width:0.37857139;stroke-linejoin:round;stroke-miterlimit:4;stroke-dasharray:none;stroke-dashoffset:0;stroke-opacity:0.89743593"
       d="m 53.213071,110.70352 -1.81093,-2.01314 6.01003,-6.01885 6.01004,-6.01886 -6.03384,-6.042689 -6.03383,-6.042689 1.87123,-1.899801 1.87124,-1.899798 5.87222,5.863619 c 3.22972,3.22499 6.04244,5.863619 6.25047,5.863619 0.20804,0 3.00865,-2.634504 6.22357,-5.854454 l 5.84531,-5.854454 1.8077,1.780514 c 0.99423,0.979283 1.75908,1.92637 1.69965,2.104641 -0.0594,0.178271 -2.73795,2.947022 -5.95229,6.152782 l -5.84424,5.828652 6.03386,6.042718 6.03386,6.04272 -1.87123,1.8998 -1.87123,1.8998 -5.87222,-5.86362 c -3.22973,-3.22499 -6.04038,-5.86225 -6.24591,-5.86058 -0.20552,0.002 -3.03067,2.68058 -6.2781,5.95312 l -5.90442,5.95009 z"
       id="path858"
       inkscape:connector-curvature="0" />
    <path
       style="opacity:1;fill:#b50000;fill-opacity:1;fill-rule:nonzero;stroke:#c30000;stroke-width:0.37857139;stroke-linejoin:round;stroke-miterlimit:4;stroke-dasharray:none;stroke-dashoffset:0;stroke-opacity:0.89743593"
       d="m 84.408751,133.09686 c -5.00605,-3.11448 -10.37501,-4.56805 -15.56003,-4.21266 -3.54404,0.24291 -5.66881,1.31152 -7.30644,3.67463 l -1.07977,1.55812 -4.84647,-4.83571 -4.84646,-4.8357 -4.34924,4.3369 -4.34924,4.33691 -4.76887,-4.76887 c -5.36133,-5.36133 -5.11166,-4.48635 -2.08347,-7.3016 l 1.20169,-1.11718 2.82914,2.81026 2.82913,2.81026 4.34532,-4.333 4.34532,-4.33299 4.64743,4.63628 4.64744,4.63627 2.25038,-1.13709 c 1.23771,-0.6254 3.18588,-1.33282 4.32926,-1.57204 2.96979,-0.62136 8.00883,-0.20919 11.41287,0.93351 2.98599,1.00237 10.38249,4.4955 11.15147,5.26649 0.35182,0.35274 0.15549,0.93833 -0.88084,2.62728 -0.73347,1.19534 -1.44746,2.15984 -1.58666,2.14332 -0.1392,-0.0165 -1.18858,-0.61205 -2.33196,-1.32339 z"
       id="path860"
       inkscape:connector-curvature="0" />
    <path
       style="opacity:1;fill:#b50000;fill-opacity:1;fill-rule:nonzero;stroke:#c30000;stroke-width:0.37857139;stroke-linejoin:round;stroke-miterlimit:4;stroke-dasharray:none;stroke-dashoffset:0;stroke-opacity:0.89743593"
       d="m 124.96366,177.12182 c -2.85349,-1.09699 -4.93776,-3.58989 -6.91082,-8.26571 -0.87953,-2.08436 -1.72918,-3.78975 -1.88809,-3.78975 -0.15892,0 -1.0332,0.27017 -1.94285,0.60037 -0.90966,0.3302 -2.95982,0.62641 -4.55591,0.65825 -2.4866,0.0496 -3.06971,-0.0661 -4.0738,-0.80848 -1.16527,-0.86151 -1.17704,-0.86227 -2.10177,-0.13487 -0.51148,0.40232 -1.68848,0.84525 -2.61557,0.98427 -3.270389,0.49042 -5.958179,-0.35517 -16.088129,-5.06138 -10.67624,-4.96002 -12.71813,-5.68757 -15.96237,-5.68757 -2.84787,0 -4.09796,0.67148 -5.23285,2.81077 -1.01242,1.90843 -1.19981,1.95716 -4.00054,1.0404 l -1.95022,-0.63837 0.71375,-1.88988 c 1.53528,-4.06514 4.96502,-6.58584 9.39188,-6.90258 4.2209,-0.302 7.97056,0.92849 18.93024,6.21217 7.28835,3.51373 10.36279,4.65916 12.5056,4.65916 1.249269,0 1.442809,-0.12462 1.614319,-1.03943 0.10717,-0.57169 0.24825,-7.39191 0.31351,-15.15604 l 0.11865,-14.11661 -1.865449,-0.70902 c -1.93748,-0.73641 -4.42972,-2.87693 -6.30573,-5.41582 -0.911,-1.2329 -1.08924,-1.83943 -1.08924,-3.70657 0,-2.0362 0.10799,-2.33123 1.22843,-3.35603 2.78379,-2.54621 6.64883,-3.55276 12.567699,-3.27294 7.78214,0.3679 12.03405,3.53321 10.81707,8.05272 -0.68685,2.55075 -3.63824,5.83636 -6.56111,7.3041 l -2.54761,1.2793 0.20534,13.83975 c 0.11294,7.61186 0.28906,14.39254 0.39138,15.06817 0.16308,1.07682 0.32834,1.22842 1.33916,1.22842 1.93897,0 5.22862,-1.13384 9.52544,-3.28313 16.80153,-8.40419 23.20472,-9.53324 28.35504,-4.99975 1.52471,1.34211 3.64345,4.73871 3.64345,5.84092 0,0.23838 -1.15805,0.77124 -2.57345,1.18413 l -2.57345,0.75071 -0.67803,-1.63931 c -1.02427,-2.47646 -2.10856,-3.14564 -5.09286,-3.14313 -3.23994,0.003 -5.33519,0.57467 -5.33519,1.45633 0,0.36682 0.8491,2.52746 1.88689,4.80143 1.53765,3.36923 1.88744,4.52301 1.88988,6.23363 0.006,4.06446 -2.96647,8.06651 -6.84666,9.2188 -2.58844,0.76869 -4.24111,0.71711 -6.64603,-0.20743 z m 4.8303,-4.87545 c 1.75288,-0.48693 2.96938,-1.81098 3.24942,-3.53671 0.18673,-1.1507 -0.10829,-2.06632 -1.78338,-5.53486 -1.10392,-2.28583 -2.12558,-4.15606 -2.27035,-4.15606 -0.85242,0 -7.53924,3.46416 -7.53924,3.90576 0,0.84437 3.321,7.62123 4.06454,8.29412 0.58058,0.52542 2.14041,1.31198 2.73904,1.3812 0.10394,0.012 0.79693,-0.14703 1.53997,-0.35345 z"
       id="path862"
       inkscape:connector-curvature="0" />
    <path
       style="opacity:1;fill:#b50000;fill-opacity:1;fill-rule:nonzero;stroke:#c30000;stroke-width:0.37857139;stroke-linejoin:round;stroke-miterlimit:4;stroke-dasharray:none;stroke-dashoffset:0;stroke-opacity:0.89743593"
       d="m 120.24559,132.29211 c -0.7666,-1.18146 -1.30623,-2.28982 -1.19918,-2.46304 0.3927,-0.63539 7.84088,-4.13542 11.21449,-5.26987 6.17025,-2.07489 12.17011,-1.8242 16.45613,0.68758 l 1.66175,0.97384 4.66278,-4.65158 4.66278,-4.65159 0.83043,0.73443 c 0.45674,0.40393 2.44152,2.32481 4.41063,4.26861 l 3.58019,3.53418 2.88774,-2.8708 2.88773,-2.8708 1.89296,1.89295 1.89295,1.89296 -2.51375,2.56915 c -1.38256,1.41304 -3.56258,3.56957 -4.84448,4.7923 l -2.33072,2.22313 -4.32222,-4.30996 -4.32222,-4.30995 -4.74814,4.85262 c -2.61148,2.66893 -4.79375,4.78836 -4.84951,4.70983 -2.78784,-3.92671 -4.41106,-4.883 -8.73341,-5.14514 -4.98625,-0.30239 -9.9767,1.08157 -15.13728,4.19789 -1.24733,0.75322 -2.35291,1.36766 -2.45685,1.36542 -0.10394,-0.002 -0.81621,-0.97071 -1.5828,-2.15216 z"
       id="path864"
       inkscape:connector-curvature="0" />
    <path
       style="opacity:1;fill:#b50000;fill-opacity:1;fill-rule:nonzero;stroke:#c30000;stroke-width:0.37857139;stroke-linejoin:round;stroke-miterlimit:4;stroke-dasharray:none;stroke-dashoffset:0;stroke-opacity:0.89743593"
       d="m 148.96241,145.79017 c -1.86249,-2.69348 -6.2154,-4.14322 -12.46884,-4.15275 -4.50694,-0.007 -6.94341,0.47791 -10.12947,2.01542 -1.35126,0.65209 -2.56824,1.187 -2.7044,1.1887 -0.13615,0.002 -0.94029,-0.86694 -1.78696,-1.93032 -1.72407,-2.16534 -1.67172,-2.34866 1.06746,-3.73778 7.46341,-3.78495 17.28349,-4.02199 25.65154,-0.6192 l 2.0059,0.81568 4.19603,-4.16071 c 2.30782,-2.28839 4.29923,-4.16071 4.42537,-4.16071 0.12613,0 2.33416,2.10991 4.90674,4.68868 l 4.67742,4.68867 -1.62396,1.92591 c -0.89317,1.05925 -1.72113,1.92591 -1.8399,1.92591 -0.11877,0 -1.53858,-1.31487 -3.15512,-2.92193 l -2.93916,-2.92192 -4.44541,4.43383 c -2.44498,2.43861 -4.5279,4.42737 -4.62872,4.41949 -0.10082,-0.008 -0.64466,-0.68153 -1.20852,-1.49697 z"
       id="path866"
       inkscape:connector-curvature="0" />
    <path
       style="opacity:1;fill:#b50000;fill-opacity:1;fill-rule:nonzero;stroke:#c30000;stroke-width:0.37857139;stroke-linejoin:round;stroke-miterlimit:4;stroke-dasharray:none;stroke-dashoffset:0;stroke-opacity:0.89743593"
       d="m 54.059421,142.95952 -4.44201,-4.37659 -1.344,1.02511 c -0.7392,0.56382 -2.09639,1.88522 -3.01598,2.93644 l -1.67197,1.91132 -1.97847,-1.97847 -1.97847,-1.97847 4.90315,-4.91405 4.90315,-4.91406 4.37049,4.35911 4.3705,4.35911 1.76527,-0.78087 c 5.29043,-2.34021 13.70869,-3.11091 19.26708,-1.76392 3.96201,0.96014 8.92723,3.22573 8.96847,4.09226 0.007,0.13724 -0.67269,1.11558 -1.50938,2.17408 l -1.52126,1.92454 -2.2585,-1.14009 c -3.57028,-1.80227 -6.64813,-2.36277 -11.8969,-2.1665 -3.67982,0.1376 -5.03498,0.3557 -7.18154,1.15581 -2.51412,0.93712 -3.03683,1.33455 -4.628,3.51887 l -0.67961,0.93296 z"
       id="path868"
       inkscape:connector-curvature="0" />
  </g>
</svg>
