<?xml version="1.0" encoding="UTF-8" standalone="no"?>
<svg
   xmlns:dc="http://purl.org/dc/elements/1.1/"
   xmlns:cc="http://creativecommons.org/ns#"
   xmlns:rdf="http://www.w3.org/1999/02/22-rdf-syntax-ns#"
   xmlns:svg="http://www.w3.org/2000/svg"
   xmlns="http://www.w3.org/2000/svg"
   id="svg8"
   version="1.1"
   viewBox="0 0 210 297"
   height="297mm"
   width="210mm">
  <defs
     id="defs2" />
  <metadata
     id="metadata5">
    <rdf:RDF>
      <cc:Work
         rdf:about="">
        <dc:format>image/svg+xml</dc:format>
        <dc:type
           rdf:resource="http://purl.org/dc/dcmitype/StillImage" />
        <dc:title></dc:title>
      </cc:Work>
    </rdf:RDF>
  </metadata>
  <g
     id="layer1">
    <path
       id="path3811"
       d="M 68.465892,151.52703 46.157443,148.22221 31.530775,143.48656 C 15.510522,138.29973 16.024436,138.57757 10.663746,132.20505 L 8.1018517,129.1596 8.1200686,114.09585 8.1382856,99.032083 11.680505,83.944828 15.222723,68.857584 25.178589,54.205047 35.134453,39.55251 52.311139,29.008467 69.487824,18.464436 l 16.541611,-3.000055 16.541605,-3.000067 15.78349,3.016738 15.7835,3.016727 16.73999,10.872491 16.73998,10.872479 9.96441,14.246065 9.9644,14.246065 2.98159,8.32484 c 1.63987,4.578667 3.7514,10.583261 4.69225,13.343546 l 1.71069,5.018706 -0.96039,17.289749 c -0.52824,9.50936 -0.97,18.17412 -0.98173,19.25504 l -0.0213,1.96529 -8.52971,4.27579 -8.5297,4.27579 -17.84676,3.8655 -17.84675,3.86549 -24.79988,2.3599 c -13.63991,1.29795 -25.214062,2.33684 -25.720322,2.30863 -0.50626,-0.0282 -10.959276,-1.53845 -23.228923,-3.35612 z m 49.603498,-0.58018 c 11.5479,-1.07295 21.20423,-2.13365 21.4585,-2.35715 0.42243,-0.37129 -21.08593,-35.62417 -21.74488,-35.64053 -0.25041,-0.006 -23.023774,38.73667 -23.527755,40.02633 -0.108677,0.27809 0.466256,0.36947 1.31226,0.20855 0.828127,-0.15751 10.953965,-1.16425 22.501875,-2.2372 z M 83.848676,140.10586 c -3.921173,-7.0009 -9.013474,-16.10555 -11.316227,-20.23252 -2.30275,-4.12697 -4.396673,-7.43363 -4.653151,-7.34814 -0.502945,0.16765 -19.359784,33.32268 -19.359784,34.03935 0,0.23759 1.00388,0.57898 2.230844,0.75863 1.226965,0.17966 9.907578,1.46826 19.290249,2.86355 9.382672,1.3953 17.931969,2.56189 18.998433,2.59249 l 1.939034,0.0556 z m 20.684054,-7.85676 c 6.41233,-11.02621 11.58397,-20.12243 11.49253,-20.21387 -0.22182,-0.22183 -46.19874,-1.14085 -46.418922,-0.92786 -0.223327,0.21602 22.659952,41.18546 23.005172,41.18767 0.144348,9.1e-4 5.508901,-9.01974 11.92122,-20.04594 z m 55.65526,12.52856 c 8.44165,-1.81818 15.49642,-3.45375 15.67727,-3.6346 0.35098,-0.35097 -12.45321,-32.90804 -12.94644,-32.91878 -0.29498,-0.006 -19.39155,38.95075 -19.39155,39.55897 0,0.55345 0.83947,0.40203 16.66072,-3.00559 z m -6.5591,-21.50183 c 4.31965,-8.89565 7.7704,-16.24756 7.66831,-16.33758 -0.22769,-0.20076 -41.55627,4.54581 -41.89569,4.81171 -0.1334,0.10454 0.087,0.71075 0.48974,1.3472 0.40277,0.63644 5.20445,8.36147 10.6704,17.16676 5.46595,8.80526 10.19284,16.32538 10.50421,16.71138 0.65367,0.81031 0.74449,0.63897 12.56303,-23.69947 z M 44.551547,144.04265 c -0.457945,-1.08261 -4.139659,-9.88133 -8.181591,-19.55269 -4.041931,-9.67137 -7.523691,-17.76456 -7.737243,-17.98486 -0.213554,-0.22031 -2.590322,6.58585 -5.281707,15.1248 -2.796962,8.87391 -4.69427,15.71371 -4.428566,15.96498 0.507598,0.48003 24.720589,8.35823 25.798558,8.39411 0.502726,0.0166 0.461729,-0.45418 -0.169451,-1.94634 z m 12.29449,-15.66955 c 5.30133,-9.40345 9.434956,-17.27396 9.185831,-17.49001 -0.502234,-0.43561 -35.8404,-6.56509 -36.121345,-6.26533 -0.09706,0.10359 3.577842,9.13497 8.16645,20.06983 4.588607,10.93486 8.342922,20.08788 8.342922,20.34005 0,1.52774 1.765772,-1.29287 10.426142,-16.65454 z m 129.686593,7.94566 c 5.35154,-2.68165 6.72997,-3.58997 6.57179,-4.33046 -0.11008,-0.51537 -0.81484,-6.25169 -1.56609,-12.74739 -1.38348,-11.96262 -1.63088,-13.48616 -2.11171,-13.00531 -0.31958,0.31956 -10.20583,32.26893 -10.20583,32.98212 0,0.75624 0.084,0.72293 7.31184,-2.89896 z m -3.16978,-16.08002 c 2.91844,-9.41126 5.30623,-17.26515 5.30623,-17.45307 0,-0.18794 -0.47376,-0.34171 -1.0528,-0.34171 -1.11528,0 -21.86086,3.55238 -22.93819,3.92783 -0.42138,0.14685 1.37524,5.18256 5.37822,15.07452 7.69832,19.02379 7.06113,17.62089 7.57592,16.67973 0.23344,-0.42675 2.81221,-8.47604 5.73062,-17.8873 z M 15.851644,134.33192 c -0.129852,-0.36087 -1.385034,-6.26605 -2.789294,-13.12262 -1.40426,-6.85656 -2.740532,-12.46648 -2.969493,-12.46648 -0.2289612,0 -0.4162917,4.50659 -0.4162917,10.01463 v 10.01463 l 2.7032417,3.10799 c 2.531343,2.91034 4.013442,3.95702 3.471837,2.45185 z m 6.390042,-14.17243 c 2.411822,-7.57831 4.486207,-14.36926 4.609746,-15.091 0.219785,-1.28405 0.04937,-1.35702 -7.925165,-3.3932 -4.482379,-1.14452 -8.272428,-1.958289 -8.422328,-1.808388 -0.348129,0.348128 6.618824,34.071348 7.038872,34.071348 0.17256,0 2.287054,-6.20045 4.698875,-13.77876 z m 172.457794,-13.77874 0.37047,-8.923385 -2.09514,2.099624 -2.09513,2.099611 1.23508,9.44829 c 0.67929,5.19655 1.27716,9.80259 1.32859,10.23564 0.20838,1.75462 0.90821,-6.57993 1.25613,-14.95978 z m -78.99216,3.49945 c 0,-0.60673 -21.431706,-31.809285 -21.974739,-31.993189 -0.602004,-0.203868 -23.857089,30.865449 -23.425994,31.297649 0.298109,0.29888 9.868659,0.55193 38.708193,1.02346 3.6809,0.0602 6.69254,-0.0874 6.69254,-0.32792 z m 35.053,-3.38293 c 5.566,-0.64149 10.13713,-1.36171 10.15803,-1.60051 0.0631,-0.72194 -26.90689,-36.154129 -27.2548,-35.806248 -0.44675,0.446764 -14.67441,40.659548 -14.46116,40.872788 0.0946,0.0946 4.95693,-0.38402 10.80501,-1.06379 5.84809,-0.67975 15.1869,-1.76077 20.75292,-2.40224 z m -84.064164,1.85188 C 66.549984,107.84392 64.134159,98.808996 61.327646,88.271537 58.521134,77.734066 56.085584,68.956492 55.915312,68.765792 55.74504,68.575103 49.839441,76.075778 42.791759,85.433983 35.744073,94.792164 30.092733,102.56382 30.23322,102.7043 c 0.22265,0.22265 34.209336,6.35995 36.037201,6.50758 0.419415,0.0339 0.586928,-0.30559 0.425735,-0.86273 z m 51.367104,-0.52491 c 0.20276,-0.50523 2.33603,-6.46946 4.74063,-13.253841 2.40459,-6.784397 5.45276,-15.362339 6.77373,-19.062096 1.32095,-3.699757 2.40175,-6.829502 2.40175,-6.954992 0,-0.499704 -1.9681,-0.108192 -19.04725,3.789485 -11.65618,2.660045 -17.656803,4.250998 -17.506907,4.641636 0.125443,0.32688 4.444974,6.729793 9.598957,14.228686 5.15399,7.498894 9.9614,14.509182 10.68315,15.578432 1.47871,2.19068 1.8295,2.34445 2.35594,1.03269 z M 80.512996,92.160165 C 86.921737,83.617087 92.088504,76.552995 91.9947,76.462157 91.688485,76.165612 59.050463,67.800256 58.199739,67.800256 c -0.545463,0 -0.731642,0.313146 -0.546139,0.918577 0.538559,1.757726 10.287389,38.435407 10.287389,38.703877 0,1.20887 2.415421,-1.72348 12.572007,-15.262545 z M 176.8331,102.64601 c 6.07675,-1.04367 11.21859,-2.05218 11.42633,-2.24113 0.32972,-0.29989 -16.30361,-31.053526 -17.46261,-32.286865 -0.24897,-0.264948 -0.56948,0.07823 -0.73544,0.787354 -0.27127,1.159267 -6.06283,35.021941 -6.06283,35.448821 0,0.41078 2.20806,0.11692 12.83455,-1.70818 z M 165.75745,85.122112 c 1.63481,-9.671374 2.97076,-18.0158 2.96881,-18.54316 -0.002,-0.896136 -0.42406,-0.934918 -6.43365,-0.592948 -22.97895,1.307575 -26.89234,1.596463 -26.81502,1.979479 0.19923,0.986714 26.69143,35.463337 26.98547,35.118557 0.17713,-0.20769 1.65961,-8.290566 3.29439,-17.961928 z M 26.99607,85.054742 C 26.670324,75.718884 26.327883,68.004548 26.235091,67.911765 26.060917,67.737582 10.721437,96.576095 10.55647,97.387859 c -0.08313,0.40908 16.473874,5.095481 16.868135,4.774461 0.09005,-0.0734 -0.102789,-7.771732 -0.428535,-17.107578 z m 16.494547,-2.998038 c 5.941566,-7.892977 10.802848,-14.522423 10.802848,-14.732107 0,-0.327952 -21.619151,-2.184597 -25.130872,-2.158239 l -1.247707,0.0094 0.343258,13.778735 c 0.188792,7.578322 0.487796,15.545075 0.664452,17.703893 l 0.321195,3.925144 1.721988,-2.087978 C 31.912873,97.347213 37.54905,89.94974 43.490617,82.056775 Z m 149.915913,14.862009 1.79398,-1.850911 -2.56163,-7.46614 c -2.85701,-8.327129 -3.91438,-10.751379 -3.94878,-9.053507 -0.0284,1.402848 1.54322,17.558392 1.85229,19.040433 0.33307,1.597077 0.7648,1.496093 2.86414,-0.669875 z m -5.76189,-13.202541 c -0.61833,-6.588529 -1.22227,-12.456613 -1.34206,-13.040205 -0.18205,-0.886898 -1.35318,-1.341532 -7.13504,-2.769866 -3.80448,-0.939838 -7.01269,-1.613347 -7.12936,-1.496682 -0.18754,0.187538 4.21921,8.339021 13.32867,24.654967 1.58294,2.835217 2.99597,5.037029 3.14009,4.892921 0.1441,-0.144095 -0.24392,-5.652607 -0.8623,-12.241135 z M 18.740356,78.469057 c 3.397249,-6.531364 6.076003,-11.976034 5.952787,-12.099246 -0.164805,-0.164802 -7.466212,2.752097 -8.011742,3.20069 -0.08875,0.07292 -4.905217,20.316754 -4.905217,20.61678 0,1.242931 1.783163,-1.75749 6.964172,-11.718224 z m 74.432251,-6.33834 c 0.01989,-1.371323 0.438286,-8.580172 0.929738,-16.019683 0.791661,-11.984057 0.803387,-13.491783 0.10286,-13.222965 -2.286706,0.877494 -35.764507,23.059719 -35.136198,23.281072 2.277455,0.802373 31.898983,8.382228 32.886365,8.415299 1.059742,0.03551 1.184752,-0.216492 1.217229,-2.453723 z m 20.215503,-1.449335 c 9.46176,-2.168445 17.31867,-4.058103 17.4598,-4.199249 0.14113,-0.141134 0.1582,-0.342866 0.038,-0.448298 C 129.686,64.982111 97.247242,42.604821 96.922553,42.604821 c -0.365297,0 -2.26773,26.14096 -2.225175,30.575697 0.0085,0.882662 0.300155,1.443483 0.750755,1.443483 0.405295,0 8.478337,-1.774173 17.940087,-3.942619 z m 70.89698,-3.655276 c -0.22361,-0.582708 -14.38232,-21.093702 -15.37841,-22.277923 -0.10123,-0.120298 -0.27894,-0.120298 -0.39501,0 -0.35959,0.372716 1.90317,18.561046 2.37373,19.0801 0.32167,0.35483 9.8217,3.118985 13.50938,3.930714 0.103,0.02265 0.0537,-0.307117 -0.10973,-0.732891 z m -161.030383,-2.01582 3.342498,-1.671738 2.831408,-7.823542 c 1.557273,-4.302959 2.733201,-7.921766 2.613172,-8.041793 -0.120029,-0.120026 -2.287395,2.810052 -4.816368,6.511295 -2.528973,3.701244 -5.339377,7.792454 -6.245344,9.091593 -2.422913,3.474428 -2.521196,3.678272 -1.754975,3.640127 0.37791,-0.01876 2.191233,-0.78648 4.029609,-1.705942 z M 153.21049,64.891664 c 7.7797,-0.439001 14.2259,-0.879194 14.3249,-0.978195 0.099,-0.09899 -6.61775,-6.762038 -14.92614,-14.806757 -8.98904,-8.703762 -15.16089,-14.310178 -15.24133,-13.844973 -0.3248,1.878543 -2.76403,27.580904 -2.76403,29.124805 0,1.693766 0.0212,1.708101 2.23085,1.506676 1.22695,-0.111851 8.59605,-0.562556 16.37575,-1.001556 z M 57.035317,50.571409 c 0.79236,-7.990339 1.38138,-14.717016 1.308931,-14.948162 -0.07245,-0.231145 -6.720828,5.910229 -14.77417,13.647513 -14.517557,13.947821 -14.627166,14.069275 -12.851301,14.240897 7.447906,0.719795 24.41129,1.952933 24.618966,1.789653 0.141305,-0.111143 0.905213,-6.73955 1.697574,-14.729901 z m 76.410373,8.961596 c 1.41424,-13.951077 2.38305,-25.325325 2.17375,-25.520745 -0.28049,-0.261893 -36.623535,6.757342 -37.015267,7.149078 -0.154391,0.154396 6.760397,5.185715 15.366207,11.180716 8.6058,5.99499 16.23742,11.327586 16.95916,11.850203 0.72176,0.522617 1.45445,0.957701 1.62821,0.966845 0.17376,0.0094 0.57333,-2.522603 0.88794,-5.626097 z M 79.177057,50.628302 c 7.478973,-4.851403 13.595593,-9.054711 13.592485,-9.340696 -0.0065,-0.605113 -31.74601,-7.637621 -32.258485,-7.14752 -0.308434,0.294975 -3.068163,26.737837 -3.068163,29.398212 0,1.248075 -1.092642,1.897114 21.734163,-12.909996 z m 89.521553,10.216963 c -0.0132,-0.64957 -0.54738,-5.314661 -1.18696,-10.366876 l -1.1629,-9.185828 -12.32932,-3.244014 c -6.78114,-1.784225 -12.68365,-3.250468 -13.11669,-3.258337 -0.76429,-0.01392 26.63767,27.179104 27.42628,27.217107 0.21653,0.01062 0.38284,-0.512482 0.36959,-1.162052 z M 47.932441,42.968594 c 4.440621,-4.262112 7.978881,-7.844261 7.862797,-7.960347 -0.292252,-0.29225 -18.903865,5.353196 -19.345224,5.867967 -0.511145,0.596181 -6.827069,18.245612 -6.827069,19.077799 0,0.381743 2.303018,-1.540219 5.11782,-4.271031 2.814802,-2.730812 8.751055,-8.452288 13.191676,-12.714388 z M 95.475338,38.27436 c 0.684643,-3.1183 2.885322,-18.965112 2.6644,-19.186028 -0.363791,-0.363797 -34.984794,13.128883 -34.63251,13.497152 0.36315,0.37963 28.909527,6.757649 30.53777,6.822954 0.808186,0.03245 1.251378,-0.318986 1.43034,-1.134078 z m 19.969532,-2.107848 c 9.23832,-1.800779 16.91505,-3.468942 17.05939,-3.707037 0.21609,-0.356411 -32.0533,-14.106323 -32.38635,-13.799749 -0.0576,0.05297 -0.702585,3.986061 -1.433321,8.74009 -0.730741,4.754041 -1.461997,9.411369 -1.625016,10.34965 -0.243724,1.402778 -0.128932,1.70462 0.645975,1.698556 0.518301,-0.0035 8.500992,-1.480731 17.739322,-3.28151 z m 45.31677,1.740936 c -0.19479,-0.554567 -25.24452,-16.862112 -25.50361,-16.603016 -0.18692,0.186913 1.9752,10.435166 2.26564,10.738908 0.13622,0.142456 21.68455,6.008948 23.23797,6.326482 0.0963,0.0197 0.0963,-0.188399 0,-0.462374 z M 51.370918,34.505723 c 4.261296,-1.278834 7.80343,-2.400818 7.871407,-2.493295 0.06798,-0.0925 1.603616,-2.13318 3.412527,-4.534895 1.808911,-2.401703 3.1929,-4.46277 3.075536,-4.58013 -0.222501,-0.222509 -21.246633,12.510225 -22.152518,13.416107 -0.751365,0.751368 -0.677048,0.734118 7.793048,-1.807787 z m 84.092042,-4.367379 c -0.14382,-0.505226 -0.66038,-2.808246 -1.14792,-5.117826 -0.48755,-2.309579 -1.07452,-4.403741 -1.30441,-4.653694 -0.43494,-0.472921 -27.27575,-2.083342 -27.69728,-1.661803 -0.29783,0.297831 -0.55824,0.184152 15.64301,6.828074 7.3618,3.01898 13.69624,5.496867 14.07657,5.506435 0.41123,0.01062 0.58553,-0.354936 0.43003,-0.901186 z M 77.86818,24.966646 c 14.667456,-5.637069 15.089358,-5.814932 14.699589,-6.196828 -0.1545,-0.151375 -21.118554,1.011786 -22.386062,1.242058 -0.272709,0.04955 -7.489766,9.851751 -7.489766,10.172601 0,0.191148 0.156458,0.347538 0.347682,0.347538 0.191227,0 6.864079,-2.504409 14.828557,-5.565369 z m 21.814962,-9.193945 c 1.030368,-0.983186 1.030368,-0.98787 0,-0.9962 -1.933109,-0.01557 -11.530535,1.749385 -12.056946,2.217339 -0.305589,0.271662 1.880136,0.320001 5.249047,0.116098 4.616044,-0.279402 5.980092,-0.547335 6.807899,-1.337225 z m 18.648698,1.428416 c 0,-0.114564 -3.46146,-0.858404 -7.69214,-1.653002 -7.42862,-1.39525 -7.71633,-1.41165 -8.39847,-0.47875 -0.38849,0.531278 -0.70634,1.146242 -0.70634,1.366568 0,0.220327 1.5944,0.483222 3.54311,0.584218 5.83441,0.302385 13.25384,0.403688 13.25384,0.180966 z"
       style="opacity:1;fill:#b50000;fill-opacity:1;fill-rule:nonzero;stroke:#c30000;stroke-width:0.52573127;stroke-linejoin:round;stroke-miterlimit:4;stroke-dasharray:none;stroke-dashoffset:0;stroke-opacity:0.89743593" />
  </g>
</svg>
