<?xml version="1.0" encoding="UTF-8" standalone="no"?>
<svg
   xmlns:dc="http://purl.org/dc/elements/1.1/"
   xmlns:cc="http://creativecommons.org/ns#"
   xmlns:rdf="http://www.w3.org/1999/02/22-rdf-syntax-ns#"
   xmlns:svg="http://www.w3.org/2000/svg"
   xmlns="http://www.w3.org/2000/svg"
   id="svg8"
   version="1.1"
   viewBox="0 0 210 297"
   height="297mm"
   width="210mm">
  <defs
     id="defs2" />
  <metadata
     id="metadata5">
    <rdf:RDF>
      <cc:Work
         rdf:about="">
        <dc:format>image/svg+xml</dc:format>
        <dc:type
           rdf:resource="http://purl.org/dc/dcmitype/StillImage" />
        <dc:title></dc:title>
      </cc:Work>
    </rdf:RDF>
  </metadata>
  <g
     id="layer1">
    <g
       transform="translate(0.75595238,7.5595238)"
       id="g75">
      <path
         style="opacity:1;fill:#800000;fill-opacity:1;fill-rule:nonzero;stroke:#c30000;stroke-width:2.86164212;stroke-linejoin:round;stroke-miterlimit:4;stroke-dasharray:none;stroke-dashoffset:0;stroke-opacity:0.89743593"
         d="M 132.85714,419.45657 C 97.60812,411.7002 73.141051,382.02666 73.570299,347.55371 c 0.230654,-18.52384 3.77037,-29.2938 14.06299,-42.78812 11.547428,-15.13946 28.526181,-25.76488 46.968461,-29.39317 11.44127,-2.25094 16.82682,-4.66105 16.82682,-7.53027 0,-10.22714 19.03147,-43.01232 33.18312,-57.16396 14.35784,-14.35784 45.208,-32.15114 55.75275,-32.15625 6.22898,-0.003 9.87463,-5.11752 12.13906,-17.02992 3.65439,-19.2246 21.73223,-50.57949 39.27799,-68.125258 31.72012,-31.720113 63.18722,-43.418506 116.78994,-43.418506 48.69788,0 75.58551,8.486104 107.45737,33.915023 25.27526,20.165811 53.06549,68.716501 46.42997,81.115081 -5.89288,11.01093 -14.24408,4.70927 -26.84566,-20.25726 C 520.63506,115.04624 504.38886,98.209008 478.21809,85.238025 439.3866,65.992012 378.5268,65.758508 340.03085,84.707836 303.86683,102.5093 275.55198,141.43637 272.24572,177.89841 l -1.55289,17.12556 -13.56467,1.79942 c -41.76004,5.53966 -80.83486,43.95858 -84.91481,83.48945 l -1.58422,15.3497 h -17.26964 c -22.06738,0 -39.711,8.19656 -49.50677,22.99898 -17.494133,26.43542 -8.785486,59.96654 19.29503,74.29214 10.92545,5.57374 16.15282,5.68537 230.44422,4.92028 l 219.26517,-0.78283 16.27572,-7.62908 c 20.82223,-9.76026 39.18308,-28.17723 49.54017,-49.6916 10.88528,-22.61162 11.8546,-56.2086 2.14766,-74.44066 -16.96772,-31.86969 -35.04083,-42.09366 -76.87443,-43.48795 -30.62792,-1.02081 -44.27729,2.82289 -55.98015,15.76412 -6.54157,7.23378 -13.6804,24.75607 -13.6804,33.5786 0,4.40928 -2.38222,8.40902 -6.23714,10.47211 -5.26717,2.81891 -6.99037,2.40779 -11.0808,-2.64367 -3.91197,-4.83107 -4.37611,-8.48438 -2.41294,-18.99261 4.55854,-24.4008 17.3406,-41.35958 39.30188,-52.14441 14.6826,-7.21039 18.987,-7.92649 47.57186,-7.91431 28.40354,0.012 33.07857,0.78231 48.57143,8.00214 9.42857,4.39381 22.71537,13.38779 29.52626,19.98661 62.54483,60.59764 20.6866,173.18986 -70.83955,190.54743 -14.75097,2.79746 -423.38824,3.69637 -435.82957,0.95874 z"
         id="path54"
         transform="scale(0.26458333)" />
      <path
         style="opacity:1;fill:#aa0000;fill-opacity:1;fill-rule:nonzero;stroke:#c30000;stroke-width:2.86164212;stroke-linejoin:round;stroke-miterlimit:4;stroke-dasharray:none;stroke-dashoffset:0;stroke-opacity:0.89743593"
         d="m 125.5294,465.43977 c -2.73692,-3.29779 -2.94692,-5.84594 -0.76661,-9.30243 2.76219,-4.379 21.63946,-4.76051 235.5486,-4.76051 h 232.54575 v 8.57143 8.57143 l -231.77914,0.731 c -208.91997,0.65891 -232.1509,0.28306 -235.5486,-3.81092 z"
         id="path56"
         transform="scale(0.26458333)" />
      <path
         style="opacity:1;fill:#d40000;fill-opacity:1;fill-rule:nonzero;stroke:#c30000;stroke-width:2.86164212;stroke-linejoin:round;stroke-miterlimit:4;stroke-dasharray:none;stroke-dashoffset:0;stroke-opacity:0.89743593"
         d="m 316.05184,419.33389 c -0.33767,-0.33792 -44.58746,-0.75412 -98.33289,-0.92492 C 155.65965,418.21177 120,417.07114 120,415.28331 c 0,-1.54834 -1.28571,-2.02054 -2.85714,-1.04934 -1.57143,0.9712 -2.85715,0.32834 -2.85715,-1.42857 0,-1.75691 -1.15099,-2.48303 -2.55775,-1.6136 -1.40677,0.86943 -3.32626,-0.42189 -4.26554,-2.86963 -0.93927,-2.44771 -2.68114,-3.98506 -3.87081,-3.41631 -1.85593,0.88725 -19.540931,-15.2618 -18.637108,-17.01846 1.03266,-2.00709 -6.61106,-17.93914 -8.606658,-17.93914 -1.319653,0 -1.528986,-1.40832 -0.465183,-3.12957 1.063803,-1.72129 0.329807,-6.1274 -1.631102,-9.7914 -5.834754,-10.90232 3.961005,-38.49182 20.10613,-56.62835 7.215081,-8.10502 14.971931,-15.27057 17.237461,-15.92344 34.4255,-9.92062 39.74823,-12.75465 43.06786,-22.931 1.82424,-5.59222 7.61252,-16.91767 12.86284,-25.16767 5.25031,-8.25 8.74606,-15 7.76831,-15 -0.97774,0 4.82394,-5.37021 12.89263,-11.93379 8.0687,-6.56358 14.67035,-13.06803 14.67035,-14.45433 0,-1.3863 1.2948,-1.72032 2.87733,-0.74227 1.58252,0.97806 3.56642,-0.0174 4.40866,-2.21233 0.84224,-2.19484 3.08316,-4.11047 4.97982,-4.25695 5.23534,-0.40434 28.69583,-9.35588 32.24925,-12.30496 1.72235,-1.42942 4.77015,-8.0785 6.77289,-14.77573 2.00274,-6.69723 6.73248,-18.28393 10.51054,-25.74821 3.77806,-7.46429 5.95895,-13.57143 4.84642,-13.57143 -1.11254,0 0.47295,-1.88768 3.52329,-4.19485 3.05035,-2.30717 4.48316,-4.23574 3.18402,-4.28571 -1.29914,-0.05 1.56396,-3.39441 6.36245,-7.43208 4.79849,-4.03766 8.43285,-8.216231 8.07636,-9.285711 -0.35649,-1.06948 0.63754,-2.40672 2.20897,-2.971645 1.57143,-0.564923 7.8457,-5.533998 13.94283,-11.042383 12.07058,-10.905043 47.51714,-28.395522 54.3406,-26.813407 1.41303,0.327632 4.62732,-0.249146 7.14286,-1.281729 6.94694,-2.851593 80.28857,-3.049267 80.28826,-0.216397 -1.5e-4,1.361849 2.56988,1.80398 5.71117,0.982514 3.14131,-0.821466 6.48563,-0.240912 7.43185,1.290121 0.94626,1.531033 3.43589,2.125415 5.53255,1.320848 2.09668,-0.804566 4.21663,-0.570789 4.711,0.519504 1.07608,2.373171 25.74691,14.212751 28.63303,13.741048 1.11094,-0.181569 3.68237,1.823771 5.71428,4.456309 2.03194,2.63254 9.48014,9.549454 16.55157,15.37092 7.07143,5.821466 12.30477,10.738998 11.62963,10.927848 -2.24577,0.6282 14.79823,24.62908 17.49009,24.62908 1.45537,0 1.85148,1.28572 0.88028,2.85715 -0.9712,1.57143 -0.40423,2.85714 1.25995,2.85714 1.66417,0 2.78085,0.96429 2.48148,2.14286 -1.12888,4.44442 3.96517,20.71428 6.4856,20.71428 4.54723,0 2.85894,7.05397 -2.4874,10.39283 -4.10294,2.56233 -6.51034,1.95483 -12.14286,-3.06422 -3.86394,-3.44309 -7.43537,-8.1077 -7.93654,-10.36581 -1.92483,-8.67293 -16.43614,-30.42957 -29.5648,-44.32615 C 487.37246,83.339816 452.9388,70.264554 410.68909,70.226791 c -47.45235,-0.04241 -76.16936,10.500611 -103.74295,38.087699 -20.04401,20.05381 -32.06011,42.54181 -34.55219,64.66404 -2.04,18.10904 -4.8767,22.68401 -14.06518,22.68401 -13.08769,0 -38.23629,11.90108 -52.77992,24.97705 -21.86446,19.65803 -30.60473,35.51897 -35.43772,64.30867 l -1.79863,10.71428 -16.29911,0.0627 c -39.06392,0.1504 -63.34128,27.68977 -56.510101,64.10308 2.332751,12.43463 16.781131,29.57529 29.360301,34.8312 7.48818,3.12874 50.95664,3.86012 229.42535,3.86012 h 220.18675 l 13.47642,-6.84526 c 21.90632,-11.12717 39.42738,-28.60377 49.80003,-49.67363 8.40355,-17.06999 9.38712,-21.63455 9.35643,-43.42104 -0.0409,-29.03413 -5.49703,-41.69742 -25.58426,-59.37889 -15.79102,-13.89984 -29.89694,-17.8451 -63.5038,-17.76129 -39.67397,0.0989 -56.28677,11.06136 -63.16688,41.68251 -1.43034,6.36609 -3.86609,13.8359 -5.41272,16.59958 -2.61431,4.67154 -3.34157,4.55482 -10.34202,-1.65998 l -7.52998,-6.68486 5.68618,-17.14286 c 4.68988,-14.13932 25.60205,-47.00843 25.60205,-40.24056 0,1.09571 3.53572,-2.6e-4 7.85715,-2.43548 4.32142,-2.43522 11.71428,-5.85841 16.42857,-7.6071 11.01251,-4.0849 57.5426,-4.05887 68.09691,0.0381 4.45329,1.72868 9.27472,2.41512 10.71429,1.52542 1.43954,-0.8897 2.61737,-0.18017 2.61737,1.57674 0,1.75692 1.28571,2.39977 2.85714,1.42858 1.57143,-0.9712 2.85714,-0.32834 2.85714,1.42857 0,1.75691 1.151,2.48303 2.55778,1.6136 1.40674,-0.86943 3.32625,0.42189 4.26551,2.86961 0.93929,2.44772 2.68114,4.02072 3.87083,3.49555 2.69088,-1.18787 28.99311,25.66735 27.04591,27.61455 -0.77828,0.77827 0.69017,2.22288 3.2632,3.21025 2.57303,0.98736 3.96689,2.9462 3.09746,4.35297 -0.86943,1.40676 -0.54063,2.55866 0.73069,2.55977 1.27131,0.001 2.51445,3.49734 2.76254,7.7694 0.248,4.27205 1.78297,8.21136 3.41091,8.754 1.62795,0.54265 2.2184,2.91887 1.31217,5.28049 -0.90625,2.36163 -0.0228,7.32866 1.96155,11.03785 3.73908,6.98654 3.47685,9.48059 -3.7516,35.68256 -2.37752,8.61805 -3.71426,16.65377 -2.97052,17.85714 0.74375,1.20337 0.0774,2.18797 -1.481,2.18797 -2.56608,0 -5.24623,5.32429 -6.47203,12.85714 -0.25571,1.57143 -2.52108,4.4234 -5.03417,6.33772 -2.51305,1.91428 -3.79397,3.52143 -2.84643,3.57143 0.94755,0.05 -5.48102,7.50263 -14.28571,16.56148 -8.80469,9.05883 -16.92591,16.08337 -18.04717,15.61006 -1.12123,-0.47329 -4.3906,1.43634 -7.26526,4.24369 -2.87463,2.80731 -7.74294,5.5434 -10.81848,6.0802 -3.07555,0.53682 -5.99638,2.07174 -6.49078,3.41094 -0.49437,1.3392 -2.74437,1.72671 -5,0.86114 -2.2556,-0.86554 -4.10111,-0.47188 -4.10111,0.8748 0,1.34672 -2.89286,2.63249 -6.42857,2.85732 -11.36374,0.72257 -256.88294,2.47111 -257.51959,1.834 z"
         id="path58"
         transform="scale(0.26458333)" />
      <path
         style="opacity:1;fill:#d40000;fill-opacity:1;fill-rule:nonzero;stroke:#c30000;stroke-width:2.86164212;stroke-linejoin:round;stroke-miterlimit:4;stroke-dasharray:none;stroke-dashoffset:0;stroke-opacity:0.89743593"
         d="m 211.42857,418.6992 c -51.07143,-0.88443 -94.78571,-2.78811 -97.14286,-4.2304 -26.9914,-16.51529 -40.928018,-38.92586 -41.015758,-65.9548 -0.09759,-30.06365 22.062414,-59.37621 52.642068,-69.63327 23.20576,-7.78371 22.82051,-7.46946 31.00034,-25.28715 16.74237,-36.46903 41.46435,-60.83802 73.02111,-71.9785 13.26905,-4.68437 18.91858,-8.22817 20.17901,-12.65774 0.96278,-3.38357 5.83134,-16.39245 10.81902,-28.90864 7.67759,-19.26633 12.35726,-26.05877 30.51074,-44.285715 34.52489,-34.664599 63.59882,-45.743253 120.17587,-45.793145 45.95015,-0.04052 77.71889,10.555147 106.07298,35.377965 23.44954,20.529085 52.399,69.494495 46.61745,78.849215 -3.29094,5.32487 -15.47137,3.11589 -19.48931,-3.53448 -2.13614,-3.53571 -8.27294,-13.90515 -13.63729,-23.0432 C 501.66886,87.344488 450.89066,64.894637 385.03977,73.007536 328.64164,79.955848 283.93521,119.69272 273.80799,171.87481 c -3.97892,20.50206 -5.96237,23.15143 -19.09508,25.50608 -26.91184,4.82521 -59.89914,29.26899 -72.51601,53.73479 -3.31558,6.42935 -7.46761,18.76115 -9.22673,27.40401 l -3.19841,15.71428 -19.32002,2.14624 c -22.42734,2.49143 -32.59231,7.06746 -42.89341,19.30962 -17.207677,20.45017 -16.284418,45.52228 2.40472,65.30268 l 11.94882,12.64652 32.6155,2.56811 c 17.93852,1.41246 120.04406,2.18917 226.9012,1.72603 l 194.28572,-0.84206 12.54868,-6.69368 c 17.94623,-9.5728 38.01383,-29.33034 47.50763,-46.77357 6.58591,-12.10049 8.42026,-19.56917 9.40246,-38.28281 0.74785,-14.24863 -0.16372,-27.44264 -2.35437,-34.08071 -4.68292,-14.18945 -24.1504,-35.17566 -38.53298,-41.53909 -15.98554,-7.07266 -48.18485,-9.71951 -68.05577,-5.59433 -22.47754,4.66632 -31.5688,13.15086 -39.23454,36.61614 -8.12997,24.88637 -9.7124,26.35834 -18.68746,17.38327 -6.75305,-6.75304 -7.08097,-8.20297 -4.17677,-18.46753 1.7334,-6.12651 7.383,-18.21054 12.55463,-26.8534 7.56249,-12.63843 12.4422,-17.18447 24.93003,-23.22537 19.16248,-9.2697 45.64114,-12.25284 73.5522,-8.28652 26.63928,3.78559 35.19243,8.33232 56.26054,29.90733 17.46294,17.88309 24.39363,31.88924 28.48369,57.56232 2.17225,13.63513 -4.39063,45.21221 -13.18337,63.43133 -8.97649,18.59988 -32.37318,42.35034 -53.18449,53.98868 -18.1398,10.14437 -19.75189,10.49229 -57.53214,12.41706 -45.67243,2.32686 -203.24686,2.37346 -334.58369,0.0989 z"
         id="path60"
         transform="scale(0.26458333)" />
      <path
         style="opacity:1;fill:#d40000;fill-opacity:1;fill-rule:nonzero;stroke:#c30000;stroke-width:2.86164212;stroke-linejoin:round;stroke-miterlimit:4;stroke-dasharray:none;stroke-dashoffset:0;stroke-opacity:0.89743593"
         d="m 129.0736,466.93257 c -4.13972,-1.66531 -6.27905,-4.55958 -5.68043,-7.685 1.57678,-8.23249 36.14348,-9.371 260.89254,-8.59286 l 208.57143,0.72212 v 8.57143 8.57143 l -228.57143,0.54214 C 227.7613,469.38564 133.04004,468.52818 129.0736,466.93257 Z"
         id="path62"
         transform="scale(0.26458333)" />
      <path
         style="opacity:1;fill:#d40000;fill-opacity:1;fill-rule:nonzero;stroke:#c30000;stroke-width:2.86164212;stroke-linejoin:round;stroke-miterlimit:4;stroke-dasharray:none;stroke-dashoffset:0;stroke-opacity:0.89743593"
         d="m 125.84203,517.24504 c -4.74665,-5.71937 -1.07749,-15.53339 6.49126,-17.36239 3.43097,-0.8291 107.66954,-1.15351 231.64126,-0.72092 211.06691,0.7365 225.60371,1.10454 228.55682,5.78653 2.30017,3.64678 2.30014,6.35321 -3e-5,10 -2.95463,4.68436 -17.67545,5.04615 -233.19301,5.7311 -198.66065,0.63138 -230.51086,0.16292 -233.4963,-3.43432 z"
         id="path64"
         transform="scale(0.26458333)" />
      <path
         style="opacity:1;fill:#d40000;fill-opacity:1;fill-rule:nonzero;stroke:#c30000;stroke-width:2.86164212;stroke-linejoin:round;stroke-miterlimit:4;stroke-dasharray:none;stroke-dashoffset:0;stroke-opacity:0.89743593"
         d="m 125.5294,565.43977 c -2.73692,-3.29779 -2.94692,-5.84594 -0.76661,-9.30243 2.76219,-4.379 21.63946,-4.76051 235.5486,-4.76051 h 232.54575 v 8.57143 8.57143 l -231.77914,0.731 c -208.91997,0.65891 -232.1509,0.28306 -235.5486,-3.81092 z"
         id="path66"
         transform="scale(0.26458333)" />
    </g>
  </g>
</svg>
