<?xml version="1.0" encoding="UTF-8" standalone="no"?>
<svg
   xmlns:dc="http://purl.org/dc/elements/1.1/"
   xmlns:cc="http://creativecommons.org/ns#"
   xmlns:rdf="http://www.w3.org/1999/02/22-rdf-syntax-ns#"
   xmlns:svg="http://www.w3.org/2000/svg"
   xmlns="http://www.w3.org/2000/svg"
   id="svg8"
   version="1.1"
   viewBox="0 0 210 297"
   height="297mm"
   width="210mm">
  <defs
     id="defs2" />
  <metadata
     id="metadata5">
    <rdf:RDF>
      <cc:Work
         rdf:about="">
        <dc:format>image/svg+xml</dc:format>
        <dc:type
           rdf:resource="http://purl.org/dc/dcmitype/StillImage" />
        <dc:title></dc:title>
      </cc:Work>
    </rdf:RDF>
  </metadata>
  <g
     id="layer1">
    <g
       id="g3798">
      <path
         style="opacity:1;fill:#b50000;fill-opacity:1;fill-rule:nonzero;stroke:#c30000;stroke-width:1.01174331;stroke-linejoin:round;stroke-miterlimit:4;stroke-dasharray:none;stroke-dashoffset:0;stroke-opacity:0.89743593"
         d="m 395.90719,670.0737 c -13.35504,-3.36339 -23.33589,-14.15576 -32.51897,-35.16299 -5.93747,-13.58258 -10.75492,-20.25656 -16.08643,-22.28574 -3.50983,-1.33586 -4.39907,-1.31377 -8.70692,0.21624 -2.63881,0.93723 -5.88138,1.70405 -7.2057,1.70405 -3.32865,0 -8.98606,-4.0593 -12.27818,-8.80985 -8.30113,-11.97854 -4.69425,-29.72803 10.06356,-49.52284 6.17503,-8.28264 9.59516,-15.38319 10.98941,-22.81522 0.59812,-3.18824 0.43285,-3.70502 -1.18514,-3.7057 -3.93896,-0.002 -14.09432,-5.86382 -18.66304,-10.77318 -4.77453,-5.13052 -6.17058,-7.23246 -8.00073,-12.04611 l -1.0467,-2.75304 16.1858,0.63722 c 18.83986,0.7417 16.74715,2.38443 17.64388,-13.85006 0.30369,-5.49814 1.35548,-15.49865 2.3373,-22.22336 l 1.78513,-12.22674 0.71787,20.20306 c 0.39482,11.11167 0.84939,22.43977 1.01015,25.17355 l 0.29229,4.97049 12.30561,2.24601 c 6.76808,1.23531 12.81763,2.41669 13.44344,2.62529 1.96778,0.65592 -4.73759,8.70488 -10.34203,12.41432 -2.91802,1.93136 -7.80039,4.14637 -10.8497,4.92224 l -5.54421,1.41068 -1.60625,7.07539 c -1.20446,5.30556 -2.84054,8.81497 -6.54067,14.02988 -17.63518,24.85478 -18.99613,27.84832 -18.49663,40.68512 0.32809,8.43157 0.57846,9.37894 3.15993,11.9569 2.65828,2.65468 3.28663,2.7998 12.12183,2.7998 9.23387,0 9.39717,0.0437 18.04045,4.82684 10.44392,5.77959 22.76456,9.15611 39.3821,10.79281 22.41786,2.20798 44.44845,-1.82005 62.91111,-11.50256 10.66546,-5.59335 10.9171,-5.66714 17.14883,-5.02869 11.52582,1.18085 14.77299,-2.4824 14.77152,-16.66426 -10e-4,-9.71596 -2.49683,-15.2545 -14.15218,-31.40544 -9.16982,-12.70673 -10.56678,-15.39762 -11.60438,-22.35297 l -0.69581,-4.66421 -6.21885,-0.63867 c -8.33235,-0.85572 -17.34535,-5.39194 -23.24498,-11.69911 -2.58069,-2.75896 -4.69216,-5.44106 -4.69216,-5.96022 0,-0.7964 9.01684,-2.76403 26.43508,-5.7686 3.53788,-0.61027 3.73196,-0.85342 4.26266,-5.34046 0.30581,-2.5856 0.85266,-13.23181 1.21522,-23.65824 0.36257,-10.42644 0.99091,-19.16217 1.39634,-19.41273 1.31188,-0.81079 4.28625,19.82034 4.81422,33.39305 l 0.51372,13.20591 13.51133,-0.45824 c 15.42778,-0.52323 15.21512,-0.67273 10.5679,7.42929 -3.55753,6.20221 -9.93725,12.13468 -15.87327,14.76046 -2.42923,1.07457 -4.41679,2.11189 -4.41679,2.30516 0,0.19327 0.96035,3.46763 2.13411,7.27634 2.74815,8.91741 4.69791,12.62767 10.53998,20.05692 10.27871,13.07123 16.16499,30.59791 13.64169,40.61883 -2.22241,8.82596 -10.3291,17.48692 -16.33348,17.45024 -1.32339,-0.008 -4.37027,-0.69879 -6.77083,-1.53491 -7.40489,-2.57909 -13.34924,0.21848 -18.64305,8.7739 -0.91159,1.47322 -3.76743,7.38262 -6.34632,13.13198 -8.50404,18.95891 -16.2693,28.43973 -27.29497,33.32522 -5.62954,2.49447 -21.30498,3.52904 -27.98409,1.84695 z M 354.14247,525.13785 c 5.67963,-1.47935 12.94236,-5.65594 15.77927,-9.07421 1.91654,-2.30929 0.53848,-3.01789 -8.79835,-4.52408 l -7.55712,-1.2191 -3.05038,3.12 c -2.59764,2.65692 -3.79377,3.12 -8.05898,3.12 -4.18896,0 -5.49182,-0.48321 -7.96136,-2.95275 -1.62402,-1.62402 -2.95276,-3.66958 -2.95276,-4.54569 0,-1.29877 -1.3058,-1.59293 -7.07106,-1.59293 -3.88909,0 -7.07107,0.41375 -7.07107,0.91944 0,2.34693 8.25625,10.98192 12.93001,13.52317 8.44959,4.59426 15.09999,5.49529 23.8118,3.22615 z m 113.97374,0.38953 c 2.94416,-0.62404 6.96444,-1.94943 8.93396,-2.94532 3.67759,-1.85958 10.94666,-9.09419 13.00857,-12.94691 1.07626,-2.01101 0.92169,-2.16527 -2.1593,-2.15494 -7.86786,0.0263 -10.92438,1.13501 -12.31679,4.46751 -2.87158,6.87267 -11.62673,8.89191 -16.67322,3.84541 -1.5332,-1.53319 -2.97557,-3.34879 -3.20529,-4.03467 -0.32604,-0.97348 -2.41039,-0.89907 -9.50178,0.33918 -4.99627,0.87243 -9.21207,1.71416 -9.36844,1.87053 -0.65506,0.65506 6.62271,6.96164 10.10311,8.75488 7.2236,3.72189 13.14875,4.50643 21.17918,2.80433 z"
         id="path3759"
         transform="scale(0.26458333)" />
      <path
         style="opacity:1;fill:#b50000;fill-opacity:1;fill-rule:nonzero;stroke:#c30000;stroke-width:1.01174331;stroke-linejoin:round;stroke-miterlimit:4;stroke-dasharray:none;stroke-dashoffset:0;stroke-opacity:0.89743593"
         d="m 401.86836,597.29708 c -2.15636,-0.52695 -5.4678,-2.3165 -7.35876,-3.97679 -1.89096,-1.66028 -4.21778,-3.05151 -5.17072,-3.09162 -0.95294,-0.0401 -5.01596,-0.15375 -9.02893,-0.25253 -9.46827,-0.23309 -11.57406,-2.04869 -12.18585,-10.50661 -0.34575,-4.77991 -0.0489,-6.32293 1.61107,-8.373 l 2.03494,-2.51321 23.07036,-0.50508 c 12.6887,-0.27779 28.85044,-0.27779 35.91497,0 15.6059,0.61366 16.28146,1.03313 16.28146,10.10954 0,8.95712 -1.71329,10.37539 -13.54425,11.21202 -7.86095,0.55588 -9.52478,1.00154 -11.85783,3.17616 -1.4926,1.39125 -3.62297,2.99479 -4.73414,3.56343 -3.17606,1.62533 -10.73609,2.20756 -15.03232,1.15769 z"
         id="path3761"
         transform="scale(0.26458333)" />
      <path
         style="opacity:1;fill:#b50000;fill-opacity:1;fill-rule:nonzero;stroke:#c30000;stroke-width:1.01174331;stroke-linejoin:round;stroke-miterlimit:4;stroke-dasharray:none;stroke-dashoffset:0;stroke-opacity:0.89743593"
         d="m 331.99119,664.59326 c -7.43047,-11.39934 -15.51068,-27.75315 -25.47677,-51.56323 -4.41841,-10.55609 -10.71938,-24.42044 -14.00215,-30.80965 -8.33314,-16.2187 -9.84449,-23.54388 -13.02607,-63.13454 -2.60456,-32.41038 -4.81136,-41.894 -13.02694,-55.98266 -10.07355,-17.27482 -13.49768,-35.78835 -14.40091,-77.86255 -0.56647,-26.38749 0.64841,-57.04676 2.80067,-70.67888 6.12423,-38.79002 47.57333,-71.01162 95.74631,-74.43103 8.14238,-0.57797 9.41017,-0.41131 14.37902,1.89023 2.99712,1.38825 9.4306,5.75313 14.29662,9.69973 11.07557,8.98289 15.82024,11.77286 23.47758,13.80531 11.97673,3.17892 22.9433,-0.17805 36.92377,-11.30272 12.58378,-10.01328 15.33683,-11.53569 21.94402,-12.13481 11.23716,-1.01895 31.58772,3.74784 45.17792,10.5822 18.3063,9.20603 36.59346,28.04919 44.00754,45.34553 5.50542,12.84361 6.13397,17.2746 7.40163,52.17781 1.29233,35.58242 0.72424,57.25741 -2.00404,76.46288 -2.13431,15.02424 -5.43465,25.37181 -12.08198,37.88073 -5.14437,9.68063 -8.55657,20.25344 -9.94334,30.80965 -0.32844,2.50013 -1.52468,15.9099 -2.65833,29.7995 -2.82551,34.61891 -4.24673,41.03064 -12.98675,58.58885 -3.87177,7.77817 -9.83011,20.96066 -13.24076,29.29442 -3.41064,8.33376 -9.32281,21.51625 -13.13816,29.29442 -6.91816,14.10376 -16.79989,30.51194 -17.78335,29.52848 -0.28516,-0.28516 1.17955,-3.17291 3.25492,-6.41724 6.24604,-9.76412 15.81087,-30.90046 24.62941,-54.42597 4.58174,-12.22284 10.25931,-26.08719 12.61683,-30.80965 6.89995,-13.82157 8.68049,-23.30247 10.62377,-56.56854 1.97375,-33.78791 4.79272,-47.02734 13.12012,-61.61931 9.9843,-17.4953 12.97844,-31.54151 14.21162,-66.67006 0.47784,-13.61181 1.16082,-30.88542 1.51774,-38.3858 0.52887,-11.11394 0.33187,-14.85189 -1.06477,-20.20305 -0.94253,-3.6113 -2.11057,-11.63059 -2.59564,-17.82065 -1.56285,-19.94402 -7.67076,-33.33616 -21.64103,-47.4498 -13.94357,-14.08669 -30.51523,-22.62988 -50.73636,-26.15615 -17.91866,-3.12475 -21.49695,-2.11917 -36.15883,10.16143 -5.00026,4.18814 -12.03619,9.07173 -15.63542,10.85242 -5.97991,2.95851 -7.37318,3.2376 -16.16244,3.2376 -8.66925,0 -10.26633,-0.30889 -16.18439,-3.13027 -3.61129,-1.72165 -11.36966,-6.74604 -17.2408,-11.16531 -13.9271,-10.48307 -15.01776,-10.90054 -26.26076,-10.05181 -24.93882,1.88263 -49.97288,13.17958 -67.22261,30.33508 -8.64439,8.59718 -14.45501,17.32144 -18.45334,27.70652 -5.87833,15.26806 -6.53148,20.21102 -6.96024,52.67384 -0.41861,31.69461 0.61167,50.33815 3.8587,69.82574 2.63953,15.84158 5.28542,24.01817 11.07334,34.21997 9.07781,16.00057 11.39662,26.72315 13.65255,63.13179 2.23865,36.12985 3.53591,43.06931 10.72385,57.36542 2.21168,4.39881 7.80709,18.06572 12.43425,30.37089 11.81016,31.4072 19.13548,47.25235 27.06538,58.54418 1.09543,1.55984 1.73854,3.08923 1.42913,3.39863 -0.3094,0.30941 -3.13563,-3.3849 -6.28051,-8.20957 z"
         id="path3763"
         transform="scale(0.26458333)" />
      <path
         style="opacity:1;fill:#b50000;fill-opacity:1;fill-rule:nonzero;stroke:#c30000;stroke-width:1.01174331;stroke-linejoin:round;stroke-miterlimit:4;stroke-dasharray:none;stroke-dashoffset:0;stroke-opacity:0.89743593"
         d="m 558.82712,520.03634 c -0.83338,-0.18171 -6.51549,-0.683 -12.62691,-1.11398 -10.87341,-0.7668 -10.61348,-0.79824 12.12183,-1.46644 35.73233,-1.05017 58.54185,-4.80108 73.78923,-12.13426 12.75989,-6.13682 31.50899,-27.03275 47.83412,-53.31124 24.93785,-40.14239 37.64685,-78.26044 39.94362,-119.8028 0.33789,-6.11142 0.24063,-12.43208 -0.21612,-14.0459 l -0.83047,-2.93421 -3.33342,5.19468 c -4.88839,7.6179 -13.1826,14.81225 -18.66955,16.19389 -2.50618,0.63106 -8.69295,1.14738 -13.74839,1.14738 h -9.19172 l 2.75064,-4.79822 c 1.51284,-2.63903 5.33995,-8.23562 8.50465,-12.43686 7.50282,-9.96021 9.03499,-13.0715 9.02306,-18.32263 -0.0136,-5.99009 -3.57482,-13.05836 -11.09482,-22.02098 -8.44363,-10.06344 -11.07762,-14.16361 -13.15616,-20.47942 l -1.73748,-5.27947 -3.1717,6.50985 c -5.1246,10.51815 -9.68931,14.21598 -17.49936,14.17609 -9.98143,-0.051 -20.60028,-7.79448 -49.70296,-36.24446 -41.63011,-40.69646 -58.89462,-52.1322 -83.93988,-55.60044 l -7.07107,-0.9792 8.5863,0.4412 c 10.64776,0.54713 18.36237,2.57693 28.78934,7.5748 16.82019,8.06228 30.55683,18.48297 58.89716,44.67969 21.23584,19.62961 30.6577,27.42259 36.93851,30.55245 9.42885,4.69859 13.03524,3.1075 18.35206,-8.09662 3.6996,-7.79617 5.5019,-9.55238 14.4083,-14.03993 l 5.3574,-2.69937 -0.81171,3.83251 c -1.37912,6.51144 -0.79031,13.65002 1.48261,17.97465 1.16801,2.22233 5.40157,8.13172 9.40792,13.13198 9.26263,11.56052 12.38988,18.16291 12.4321,26.24726 0.038,7.26872 -0.86467,9.10733 -10.42243,21.22991 l -7.16788,9.09137 6.57946,0.29875 c 10.67553,0.48474 16.35142,-3.55344 27.50011,-19.5653 l 5.57548,-8.00757 -0.62043,18.18275 c -1.37513,40.29958 -10.64059,77.31079 -28.82873,115.15739 -14.25172,29.65557 -33.5928,55.31728 -51.00548,67.67395 -10.19823,7.23704 -26.56186,11.82833 -48.57697,13.62966 -11.37428,0.93068 -31.47309,1.19544 -34.85026,0.45909 z"
         id="path3765"
         transform="scale(0.26458333)" />
      <path
         style="opacity:1;fill:#b50000;fill-opacity:1;fill-rule:nonzero;stroke:#c30000;stroke-width:1.01174331;stroke-linejoin:round;stroke-miterlimit:4;stroke-dasharray:none;stroke-dashoffset:0;stroke-opacity:0.89743593"
         d="M 215.88033,519.64412 C 180.83147,516.91524 165.01248,509.53843 145.87772,487.00006 125.66304,463.1897 107.84669,429.01609 97.717405,394.62361 90.133857,368.8748 87.302432,351.30994 86.434793,324.63148 l -0.607767,-18.68782 5.068138,7.13381 c 6.913689,9.73158 14.327606,16.2129 20.715856,18.11001 4.61055,1.36918 13.86065,2.12609 13.86065,1.13418 0,-0.21508 -2.00605,-4.19256 -4.45789,-8.83884 -5.66803,-10.74101 -8.50957,-20.09794 -9.325,-30.70632 -0.7953,-10.34661 0.85759,-16.13136 7.44504,-26.05598 5.37708,-8.10109 11.84672,-13.50412 22.71036,-18.96625 8.87304,-4.46128 8.70994,-4.61373 6.26063,5.85131 -3.63478,15.5302 3.15788,31.62995 13.34503,31.62995 8.06537,0 15.97301,-6.99524 52.34235,-46.30296 27.72202,-29.96176 44.88106,-44.28923 63.70744,-53.19447 10.33796,-4.89005 15.20711,-6.23994 25.25382,-7.0012 l 7.07106,-0.53578 -7.57614,1.38563 c -9.96856,1.82319 -17.22236,4.65315 -27.01875,10.54096 -16.30419,9.7991 -35.01612,27.71037 -65.15627,62.36829 -32.05055,36.85468 -43.41853,44.86561 -55.16386,38.8736 -9.08785,-4.63628 -15.29568,-15.97885 -15.29568,-27.94736 v -6.5852 l -3.11175,1.82487 c -4.74451,2.78241 -12.51006,11.45647 -15.72594,17.56576 -2.64841,5.03125 -2.87008,6.28652 -2.75023,15.57385 0.15394,11.92962 2.51565,19.99709 10.52834,35.96423 l 5.10876,10.1804 -7.88373,-0.67101 c -16.07588,-1.36826 -22.78736,-4.82418 -32.12739,-16.54329 l -5.050763,-6.33728 -0.303967,10.42176 c -0.782703,26.83557 7.269938,61.28558 21.79805,93.25426 17.85162,39.28194 47.11555,77.98587 65.95268,87.22778 14.63761,7.18154 38.41542,11.12763 72.66242,12.05885 17.35603,0.47193 21.9732,0.83195 17.17259,1.339 -11.61871,1.22719 -39.60209,1.75768 -50.00255,0.9479 z"
         id="path3767"
         transform="scale(0.26458333)" />
      <path
         style="opacity:1;fill:#b50000;fill-opacity:1;fill-rule:nonzero;stroke:#c30000;stroke-width:1.01174331;stroke-linejoin:round;stroke-miterlimit:4;stroke-dasharray:none;stroke-dashoffset:0;stroke-opacity:0.89743593"
         d="m 331.87765,211.78359 c -7.08882,-8.3213 -12.36378,-16.02588 -15.39162,-22.4809 -2.40455,-5.12626 -2.61932,-6.67152 -2.60167,-18.71948 0.0136,-9.3132 0.53557,-15.04137 1.79481,-19.69797 2.25556,-8.34094 7.58323,-19.54434 11.75618,-24.7217 3.06951,-3.80833 13.85315,-12.62064 15.47166,-12.64333 0.41669,-0.006 0.75761,2.83344 0.75761,6.30951 0,3.47607 0.44409,7.86854 0.98685,9.76106 1.0379,3.61895 5.83849,11.19293 7.09437,11.19293 0.40447,0 1.98392,-1.80162 3.5099,-4.00361 3.86209,-5.57299 10.53134,-10.34732 30.36513,-21.73756 24.00265,-13.78435 30.77278,-19.826901 32.2925,-28.82207 l 0.67242,-3.979999 4.2082,2.136832 c 9.1311,4.636558 23.54689,22.740837 29.88913,37.536667 1.11457,2.60019 2.63945,4.72761 3.38862,4.72761 2.14159,0 6.30371,-5.01269 9.53877,-11.48809 l 2.96371,-5.93225 5.98304,6.76748 c 12.26544,13.87357 21.47468,28.76317 26.26944,42.47266 1.10818,3.16858 1.79587,8.25049 1.8454,13.63706 0.069,7.4983 -0.28862,9.33725 -2.82186,14.51268 -2.69417,5.50423 -14.90585,19.83251 -16.90282,19.83251 -0.48604,0 1.40783,-2.84105 4.20859,-6.31345 10.26407,-12.72549 13.12065,-23.38435 9.57582,-35.73062 -2.33121,-8.11934 -10.19553,-22.83513 -17.59323,-32.92062 -10.16899,-13.86366 -8.55413,-12.9322 -13.22357,-7.62742 -7.51208,8.53417 -13.16832,8.20714 -16.2661,-0.94047 -2.71675,-8.02244 -9.54013,-20.46758 -14.18827,-25.87792 -4.51212,-5.252024 -14.05878,-12.242246 -15.07108,-11.035292 -0.34261,0.408493 -1.16964,2.665464 -1.83782,5.01549 -2.08655,7.338412 -10.73302,15.408582 -30.44042,28.411492 -20.57382,13.57458 -27.80968,19.88558 -29.34744,25.59636 -0.58396,2.1687 -0.7803,4.82987 -0.4363,5.91373 0.78401,2.47019 0.35661,2.45934 -4.69787,-0.11927 -6.12182,-3.12312 -12.32632,-9.89345 -15.01799,-16.38757 -1.31447,-3.1714 -2.70692,-5.76619 -3.09432,-5.76619 -1.41462,0 -6.25396,7.34831 -9.5112,14.4423 -4.95833,10.79883 -6.87936,20.9082 -6.42906,33.83279 0.36803,10.56354 0.48106,11.00953 4.78985,18.90006 2.42711,4.44467 6.42049,10.97582 8.87417,14.51368 2.45368,3.53785 4.27101,6.62268 4.03851,6.85518 -0.2325,0.2325 -2.66342,-2.20754 -5.40204,-5.4223 z"
         id="path3769"
         transform="scale(0.26458333)" />
      <path
         style="opacity:1;fill:#b50000;fill-opacity:1;fill-rule:nonzero;stroke:#c30000;stroke-width:0.17885263;stroke-linejoin:round;stroke-miterlimit:4;stroke-dasharray:none;stroke-dashoffset:0;stroke-opacity:0.89743593"
         d="m 476.38629,211.20093 c -0.14218,-0.17132 0.17184,-0.55123 1.2812,-1.55003 0.80825,-0.72769 2.33338,-2.16051 3.38919,-3.18404 1.0558,-1.02353 1.91964,-1.80485 1.91964,-1.73628 0,0.0686 -0.16071,0.4397 -0.35714,0.82473 -0.43633,0.85527 -0.43644,0.80507 0.003,1.2143 0.35683,0.33244 0.34251,0.34781 -1.65179,1.77317 -3.02766,2.16393 -4.35519,2.93374 -4.58391,2.65815 z"
         id="path3771"
         transform="scale(0.26458333)" />
      <path
         style="opacity:1;fill:#b50000;fill-opacity:1;fill-rule:nonzero;stroke:#c30000;stroke-width:0.17885263;stroke-linejoin:round;stroke-miterlimit:4;stroke-dasharray:none;stroke-dashoffset:0;stroke-opacity:0.89743593"
         d="m 501.74406,183.7127 c 0.17684,-0.38812 0.43115,-0.47961 2.30297,-0.82852 1.56385,-0.2915 2.18948,-0.34318 2.43638,-0.20126 0.18271,0.10503 1.37684,0.34322 2.65363,0.52932 l 2.32142,0.33836 -2.58928,0.0217 c -2.31533,0.0194 -4.26973,0.16024 -6.56374,0.47306 -0.75346,0.10274 -0.75842,0.0998 -0.56138,-0.33264 z"
         id="path3773"
         transform="scale(0.26458333)" />
      <path
         style="opacity:1;fill:#b50000;fill-opacity:1;fill-rule:nonzero;stroke:#c30000;stroke-width:0.17885263;stroke-linejoin:round;stroke-miterlimit:4;stroke-dasharray:none;stroke-dashoffset:0;stroke-opacity:0.89743593"
         d="m 396.01203,707.88904 -4.375,-0.1214 -5.27941,-1.10237 c -6.27714,-1.31068 -7.5809,-1.67389 -11.12936,-3.10045 -6.82859,-2.74524 -13.1195,-6.23686 -17.87694,-9.92218 -3.11636,-2.41405 -8.2319,-6.8964 -9.71109,-8.50904 -0.82324,-0.89752 -2.35406,-2.55596 -3.40183,-3.68543 -2.76683,-2.98255 -6.79779,-7.89304 -6.79779,-8.28101 0,-0.0684 0.14062,-0.0507 0.3125,0.0393 0.17797,0.0933 0.48546,0.0984 0.71428,0.012 0.31474,-0.11884 0.40179,-0.29177 0.40179,-0.79816 0,-0.62965 0.0377,-0.59384 1.44896,1.37817 2.22393,3.10748 3.42737,4.59118 6.73143,8.29906 3.80695,4.27223 9.51447,9.431 13.68364,12.36804 5.49023,3.86767 14.52809,8.38749 19.65382,9.82886 0.98215,0.27618 4.0759,0.9928 6.875,1.59249 l 5.08929,1.09035 6.78571,0.22996 c 5.41009,0.18335 8.10704,0.18638 13.30358,0.015 3.58482,-0.11825 6.7991,-0.24633 7.14285,-0.28462 1.08219,-0.12056 9.82224,-2.06343 11.86773,-2.63813 4.81498,-1.35283 12.55986,-5.08272 17.9537,-8.64642 2.99176,-1.97664 4.35191,-3.04627 8.72152,-6.85865 2.88718,-2.51899 4.37186,-3.98543 6.72273,-6.64008 3.636,-4.10589 4.36909,-5.01463 6.8391,-8.4778 2.70521,-3.79297 2.57888,-3.62617 2.43162,-3.21054 -0.30292,0.85498 -0.29832,1.5771 0.0115,1.80363 0.16955,0.12397 0.421,0.18215 0.55877,0.12929 0.13778,-0.0529 0.2505,-0.0394 0.2505,0.0299 0,0.36287 -4.49529,5.91581 -6.80357,8.40431 -0.825,0.88941 -2.38393,2.57249 -3.46428,3.74018 -2.23806,2.41897 -8.8123,8.13164 -11.85796,10.30394 -4.47093,3.18886 -10.6747,6.49822 -16.47271,8.78725 -3.40374,1.34379 -5.47959,1.89692 -12.13567,3.23369 l -4.75206,0.95438 -9.53366,0.0789 c -5.24351,0.0434 -11.50241,0.0243 -13.90866,-0.0425 z"
         id="path3775"
         transform="scale(0.26458333)" />
      <path
         style="opacity:1;fill:#b50000;fill-opacity:1;fill-rule:nonzero;stroke:#c30000;stroke-width:0.17885263;stroke-linejoin:round;stroke-miterlimit:4;stroke-dasharray:none;stroke-dashoffset:0;stroke-opacity:0.89743593"
         d="m 349.78635,457.19038 c -0.0209,-0.97148 -0.0752,-1.14609 -0.38146,-1.22618 -0.42744,-0.11178 -0.4282,-0.20379 -0.0196,-2.37317 l 0.31951,-1.69643 0.13682,2.76786 c 0.0753,1.52232 0.0991,2.96875 0.0529,3.21428 -0.0461,0.24554 -0.0948,-0.0633 -0.1082,-0.68636 z"
         id="path3777"
         transform="scale(0.26458333)" />
      <path
         style="opacity:1;fill:#b50000;fill-opacity:1;fill-rule:nonzero;stroke:#c30000;stroke-width:0.17885263;stroke-linejoin:round;stroke-miterlimit:4;stroke-dasharray:none;stroke-dashoffset:0;stroke-opacity:0.89743593"
         d="m 463.10667,457.07317 c 0.0539,-1.27678 0.14706,-3.08482 0.20704,-4.01785 l 0.10904,-1.69643 0.68542,3.30357 c 0.37698,1.81696 0.72969,3.50446 0.78379,3.75 l 0.0984,0.44643 -0.39497,-0.49107 c -0.21723,-0.27009 -0.49721,-0.49108 -0.62218,-0.49108 -0.32315,0 -0.77017,0.54731 -0.87511,1.07143 -0.0492,0.24554 -0.0453,-0.59821 0.009,-1.875 z"
         id="path3779"
         transform="scale(0.26458333)" />
      <path
         style="opacity:1;fill:#b50000;fill-opacity:1;fill-rule:nonzero;stroke:#c30000;stroke-width:0.17885263;stroke-linejoin:round;stroke-miterlimit:4;stroke-dasharray:none;stroke-dashoffset:0;stroke-opacity:0.89743593"
         d="m 339.59783,220.97473 c -1.87699,-1.93004 -3.37325,-3.54863 -3.325,-3.59688 0.0482,-0.0482 0.20577,0.0103 0.35006,0.13001 0.14429,0.11975 0.44757,0.19147 0.67396,0.15938 0.36582,-0.0519 0.40811,-0.14775 0.38016,-0.86193 l -0.0315,-0.80357 0.29931,0.44199 c 0.16463,0.2431 1.52561,2.07753 3.02441,4.07651 1.4988,1.99899 2.67933,3.70858 2.62339,3.79909 -0.0559,0.0905 -0.20979,0.16456 -0.3419,0.16456 -0.13211,0 -1.77593,-1.57912 -3.65293,-3.50916 z"
         id="path3781"
         transform="scale(0.26458333)" />
      <path
         style="opacity:1;fill:#b50000;fill-opacity:1;fill-rule:nonzero;stroke:#c30000;stroke-width:0.17885263;stroke-linejoin:round;stroke-miterlimit:4;stroke-dasharray:none;stroke-dashoffset:0;stroke-opacity:0.89743593"
         d="m 311.10132,179.6288 c -1.17857,-0.0883 -2.94643,-0.1223 -3.92857,-0.0756 -2.13501,0.1016 -2.06863,0.0613 0.71428,-0.43391 1.17858,-0.20971 2.23276,-0.45563 2.34263,-0.54649 0.25483,-0.21072 2.96455,0.17331 3.14571,0.44583 0.17216,0.25899 0.17412,0.82959 0.003,0.79652 -0.0737,-0.0142 -1.09822,-0.0981 -2.27679,-0.18639 z"
         id="path3783"
         transform="scale(0.26458333)" />
    </g>
  </g>
</svg>
