<?xml version="1.0" encoding="UTF-8" standalone="no"?>
<svg
   xmlns:dc="http://purl.org/dc/elements/1.1/"
   xmlns:cc="http://creativecommons.org/ns#"
   xmlns:rdf="http://www.w3.org/1999/02/22-rdf-syntax-ns#"
   xmlns:svg="http://www.w3.org/2000/svg"
   xmlns="http://www.w3.org/2000/svg"
   id="svg29"
   version="1.1"
   viewBox="0 0 210 297"
   height="297mm"
   width="210mm">
  <defs
     id="defs23" />
  <metadata
     id="metadata26">
    <rdf:RDF>
      <cc:Work
         rdf:about="">
        <dc:format>image/svg+xml</dc:format>
        <dc:type
           rdf:resource="http://purl.org/dc/dcmitype/StillImage" />
        <dc:title></dc:title>
      </cc:Work>
    </rdf:RDF>
  </metadata>
  <g
     id="layer1">
    <path
       transform="scale(0.26458333)"
       id="path65"
       d=""
       style="opacity:1;fill:#b50000;fill-opacity:1;fill-rule:nonzero;stroke:#c30000;stroke-width:1.01174331;stroke-linejoin:round;stroke-miterlimit:4;stroke-dasharray:none;stroke-dashoffset:0;stroke-opacity:0.89743593" />
    <g
       transform="translate(-374.95238,-11.339286)"
       id="g94">
      <path
         style="opacity:1;fill:#b50000;fill-opacity:1;fill-rule:nonzero;stroke:#c30000;stroke-width:2.86164212;stroke-linejoin:round;stroke-miterlimit:4;stroke-dasharray:none;stroke-dashoffset:0;stroke-opacity:0.89743593"
         d="m 1628.4458,513.24117 c -7.7803,-5.4495 -12.1387,-20.62301 -12.1594,-42.33185 -0.012,-12.72777 -1.5456,-18.84623 -6.4445,-25.71429 -8.8157,-12.35914 -9.0306,-37.95983 -0.4156,-49.51725 20.6363,-27.68469 62.3816,-23.91181 75.9972,6.86852 6.823,15.42436 4.9249,31.47776 -5.1352,43.43356 -5.9544,7.07637 -6.875,11.10541 -6.875,30.08868 0,31.38669 -6.5023,41.2881 -27.2214,41.45171 -6.3289,0.05 -14.3147,-1.87561 -17.7461,-4.27908 z m 24.3551,-43.08488 c 0.7343,-23.41334 1.5231,-26.69033 7.8572,-32.64089 14.9899,-14.08228 5.7424,-39.90428 -14.2907,-39.90428 -24.1737,0 -31.3944,24.41685 -12.7378,43.07341 4.6176,4.61766 5.498,9.64731 5.498,31.41102 0,25.2385 0.1673,25.88924 6.4286,25 6.0584,-0.86044 6.4755,-2.41149 7.2447,-26.93926 z"
         id="path88"
         transform="scale(0.26458333)" />
      <path
         style="opacity:1;fill:#b50000;fill-opacity:1;fill-rule:nonzero;stroke:#c30000;stroke-width:2.86164212;stroke-linejoin:round;stroke-miterlimit:4;stroke-dasharray:none;stroke-dashoffset:0;stroke-opacity:0.89743593"
         d="m 1490.3574,733.08592 c -7.0197,-8.45829 0.2753,-13.95194 19.7816,-14.89686 l 17.56,-0.8506 V 449.03969 180.74093 l -17.56,-0.85062 c -19.5063,-0.94489 -26.8013,-6.43855 -19.7816,-14.89684 3.3847,-4.07832 34.5828,-4.52521 315.9131,-4.52521 281.3302,0 312.5283,0.44689 315.913,4.52521 7.0198,8.45829 -0.2754,13.95195 -19.7816,14.89684 l -17.56,0.85062 v 268.29876 268.29877 l 17.56,0.8506 c 19.5063,0.94492 26.8014,6.43857 19.7816,14.89686 -3.3847,4.07831 -34.5828,4.5252 -315.913,4.5252 -281.3303,0 -312.5284,-0.44689 -315.9131,-4.5252 z m 145.9131,-81.18909 v -65.71428 h -44.2858 -44.2857 v 65.71428 65.71429 h 44.2857 44.2858 z m 105.7142,0 v -65.71428 h -42.8571 -42.8571 v 65.71428 65.71429 h 42.8571 42.8571 z M 1847.699,448.96332 V 180.3155 l -42.1428,0.79067 -42.1429,0.79066 -0.042,267.85715 -0.042,267.85714 h 42.1852 42.1853 v -268.6478 z m 108.5715,0.0763 V 180.46818 h -42.8572 -42.8571 v 268.57143 268.57142 h 42.8571 42.8572 z m 107.1428,0 V 181.89675 h -42.8571 -42.8572 l -0.7289,267.93163 -0.729,267.93165 43.5861,-0.7888 43.5861,-0.78868 V 449.03969 Z m -322.11,2.10488 0.7471,-113.60946 -96.4614,0.75233 -96.4614,0.75233 -0.7489,109.99209 c -0.4119,60.49565 -0.1242,111.62017 0.6394,113.61003 1.0898,2.84 21.8322,3.45605 96.4632,2.86505 l 95.0749,-0.75288 z m -105.6954,-201.39051 -0.766,-67.85715 h -42.8572 -42.8571 l -0.766,67.85715 -0.766,67.85714 h 44.3891 44.3892 z m 106.3768,-0.71429 v -68.57143 h -42.8571 -42.8571 v 68.57143 68.57143 h 42.8571 42.8571 z"
         id="path90"
         transform="scale(0.26458333)" />
    </g>
  </g>
</svg>
