<?xml version="1.0" encoding="UTF-8" standalone="no"?>
<svg
   xmlns:dc="http://purl.org/dc/elements/1.1/"
   xmlns:cc="http://creativecommons.org/ns#"
   xmlns:rdf="http://www.w3.org/1999/02/22-rdf-syntax-ns#"
   xmlns:svg="http://www.w3.org/2000/svg"
   xmlns="http://www.w3.org/2000/svg"
   id="svg8"
   version="1.1"
   viewBox="0 0 210 297"
   height="297mm"
   width="210mm">
  <defs
     id="defs2" />
  <metadata
     id="metadata5">
    <rdf:RDF>
      <cc:Work
         rdf:about="">
        <dc:format>image/svg+xml</dc:format>
        <dc:type
           rdf:resource="http://purl.org/dc/dcmitype/StillImage" />
        <dc:title></dc:title>
      </cc:Work>
    </rdf:RDF>
  </metadata>
  <g
     id="layer1">
    <path
       id="path21"
       d="m 35.907734,211.35373 c -1.66309,-0.76999 -3.94125,-2.37838 -5.06257,-3.57418 -4.4956,-4.79422 -4.38683,-3.41949 -4.38683,-55.44455 v -47.64928 h -8.7516 c -8.7152197,0 -8.7610297,-0.009 -11.0184697,-2.26686 l -2.26686,-2.26687 0.24614,-10.652861 c 0.31878,-13.796499 0.0759,-13.539607 12.8031097,-13.539607 h 8.98768 v -4.7625 c 0,-2.696229 0.39357,-5.156073 0.90714,-5.669643 0.58214,-0.582133 3.56138,-0.907142 8.31548,-0.907142 h 7.40833 V 41.185713 17.751189 h 62.744046 62.74405 v 23.434524 23.434524 h 7.40833 c 4.7541,0 7.73334,0.325009 8.31547,0.907142 0.51358,0.51357 0.90715,2.973414 0.90715,5.669643 v 4.7625 h 8.98768 c 12.72724,0 12.48432,-0.256892 12.80311,13.539607 l 0.24613,10.652861 -2.26686,2.26687 c -2.25744,2.25743 -2.30325,2.26686 -11.01846,2.26686 h -8.7516 V 152.335 c 0,52.02506 0.10876,50.65033 -4.38683,55.44455 -1.12132,1.1958 -3.39948,2.80419 -5.06258,3.57418 -2.87125,1.32934 -6.3992,1.39997 -69.92559,1.39997 -63.526386,0 -67.054346,-0.0706 -69.925596,-1.39997 z m 117.826816,-5.58049 c 1.05464,-0.77117 1.27441,-1.87676 1.08943,-5.48066 l -0.23173,-4.5146 -48.56993,-0.19455 -48.569936,-0.19454 v 5.23423 c 0,3.48005 0.31668,5.36201 0.94494,5.61551 0.51971,0.20971 21.88594,0.40815 47.480506,0.44097 36.65319,0.047 46.81614,-0.14546 47.85672,-0.90636 z M 54.401974,190.91398 c 1.18056,-2.2059 0.9398,-6.18248 -0.46854,-7.73868 -1.56777,-1.73236 -6.48894,-1.84989 -8.14432,-0.19452 -1.41442,1.41442 -1.60462,7.16443 -0.28078,8.48827 0.49893,0.49893 2.52803,0.90714 4.50911,0.90714 2.78749,0 3.77893,-0.33064 4.38453,-1.46221 z m 11.97064,0.55507 c 0.49893,-0.49893 0.90715,-2.52804 0.90715,-4.50912 0,-3.94455 -1.16258,-5.16707 -4.91369,-5.16707 -3.75112,0 -4.91369,1.22252 -4.91369,5.16707 0,4.40812 0.91459,5.41626 4.91369,5.41626 1.70467,0 3.50762,-0.40821 4.00654,-0.90714 z m 12.97579,-0.55507 c 1.18056,-2.2059 0.9398,-6.18248 -0.46855,-7.73868 -1.56776,-1.73236 -6.48893,-1.84989 -8.14431,-0.19452 -1.41442,1.41442 -1.60462,7.16443 -0.28078,8.48827 0.49893,0.49893 2.52803,0.90714 4.50911,0.90714 2.78749,0 3.77893,-0.33064 4.38453,-1.46221 z m 11.97064,0.55507 c 0.49893,-0.49893 0.90715,-2.52804 0.90715,-4.50912 0,-4.02951 -1.15406,-5.16707 -5.24197,-5.16707 -3.57313,0 -5.61178,2.49194 -5.10847,6.24433 0.22463,1.67475 0.85943,3.33094 1.41067,3.68042 1.50699,0.95542 6.99857,0.78549 8.03262,-0.24856 z m 12.851186,0 c 1.32384,-1.32384 1.13364,-7.07385 -0.28078,-8.48827 -1.54367,-1.54367 -6.663806,-1.54367 -8.207476,0 -1.41442,1.41442 -1.60462,7.16443 -0.28078,8.48827 0.49892,0.49893 2.47196,0.90714 4.38452,0.90714 1.912556,0 3.885586,-0.40821 4.384516,-0.90714 z m 12.09524,0 c 0.49893,-0.49893 0.90714,-2.52804 0.90714,-4.50912 0,-2.78748 -0.33063,-3.77892 -1.4622,-4.38453 -2.35436,-1.26 -5.96604,-0.91382 -7.60922,0.72936 -1.83382,1.83381 -2.01302,6.19446 -0.32398,7.8835 1.41441,1.41442 7.16442,1.60463 8.48826,0.28079 z m 12.85119,0 c 1.32384,-1.32384 1.13363,-7.07385 -0.28078,-8.48827 -1.54367,-1.54367 -6.66381,-1.54367 -8.20748,0 -1.41442,1.41442 -1.60462,7.16443 -0.28079,8.48827 0.49893,0.49893 2.47197,0.90714 4.38453,0.90714 1.91256,0 3.88559,-0.40821 4.38452,-0.90714 z m 12.09524,0 c 0.49893,-0.49893 0.90714,-2.52804 0.90714,-4.50912 0,-3.94455 -1.16258,-5.16707 -4.91369,-5.16707 -3.87884,0 -4.91369,1.18639 -4.91369,5.63324 0,2.54719 0.35329,4.2107 0.94494,4.44944 1.85923,0.75021 7.08494,0.48387 7.9753,-0.40649 z m 12.97579,-0.55507 c 1.18056,-2.2059 0.9398,-6.18248 -0.46855,-7.73868 -1.56776,-1.73236 -6.48894,-1.84989 -8.14431,-0.19452 -1.41442,1.41442 -1.60463,7.16443 -0.28079,8.48827 0.49893,0.49893 2.52804,0.90714 4.50912,0.90714 2.78748,0 3.77892,-0.33064 4.38453,-1.46221 z m 11.97064,0.55507 c 0.49892,-0.49893 0.90714,-2.52804 0.90714,-4.50912 0,-3.94455 -1.16258,-5.16707 -4.91369,-5.16707 -3.87884,0 -4.91369,1.18639 -4.91369,5.63324 0,2.54719 0.35329,4.2107 0.94494,4.44944 1.85923,0.75021 7.08494,0.48387 7.9753,-0.40649 z M 48.399664,177.58591 c 1.80191,-4.73938 -0.27791,-8.64424 -4.60412,-8.64424 -4.08792,0 -5.24197,1.13756 -5.24197,5.16707 0,1.98108 0.40821,4.01019 0.90714,4.50912 0.49893,0.49893 2.54842,0.90714 4.55442,0.90714 3.21954,0 3.73375,-0.22741 4.38453,-1.93909 z m 11.92533,1.03195 c 0.49893,-0.49893 0.90715,-2.52804 0.90715,-4.50912 0,-4.06044 -1.1504,-5.16707 -5.37144,-5.16707 -3.27947,0 -5.2119,1.88373 -5.2119,5.08055 0,4.35624 1.07659,5.50278 5.16708,5.50278 1.98108,0 4.01019,-0.40821 4.50911,-0.90714 z m 12.97579,-0.55507 c 1.26001,-2.35435 0.91383,-5.96603 -0.72936,-7.60922 -1.64318,-1.64318 -5.25486,-1.98936 -7.60922,-0.72936 -1.13157,0.60561 -1.46221,1.59705 -1.46221,4.38453 0,1.98108 0.40822,4.01019 0.90715,4.50912 0.49893,0.49893 2.52803,0.90714 4.50911,0.90714 2.78749,0 3.77893,-0.33064 4.38453,-1.46221 z m 11.97064,0.55507 c 0.49893,-0.49893 0.90715,-2.52804 0.90715,-4.50912 0,-4.06044 -1.15041,-5.16707 -5.37144,-5.16707 -3.27947,0 -5.2119,1.88373 -5.2119,5.08055 0,4.35624 1.07659,5.50278 5.16707,5.50278 1.98109,0 4.01019,-0.40821 4.50912,-0.90714 z m 12.97579,-0.55507 c 1.40445,-2.62423 0.94955,-6.65056 -0.89756,-7.94433 -1.93151,-1.35288 -5.31484,-1.53213 -7.44102,-0.39425 -1.13157,0.60561 -1.46221,1.59705 -1.46221,4.38453 0,1.98108 0.40822,4.01019 0.90715,4.50912 0.49892,0.49893 2.52803,0.90714 4.50912,0.90714 2.78747,0 3.77892,-0.33064 4.38452,-1.46221 z m 11.970636,0.55507 c 0.49893,-0.49893 0.90714,-2.52804 0.90714,-4.50912 0,-4.06044 -1.1504,-5.16707 -5.37143,-5.16707 -3.27947,0 -5.2119,1.88373 -5.2119,5.08055 0,4.35624 1.07659,5.50278 5.16707,5.50278 1.98109,0 4.01019,-0.40821 4.50912,-0.90714 z m 12.97579,-0.55507 c 1.26,-2.35435 0.91382,-5.96603 -0.72936,-7.60922 -1.64318,-1.64318 -5.25487,-1.98936 -7.60922,-0.72936 -1.13157,0.60561 -1.46221,1.59705 -1.46221,4.38453 0,1.98108 0.40822,4.01019 0.90714,4.50912 0.49893,0.49893 2.52804,0.90714 4.50912,0.90714 2.78748,0 3.77893,-0.33064 4.38453,-1.46221 z m 11.97064,0.55507 c 0.49893,-0.49893 0.90714,-2.52804 0.90714,-4.50912 0,-4.10691 -1.14428,-5.16707 -5.57707,-5.16707 -3.08446,0 -5.00626,2.11501 -5.00626,5.50957 0,3.9152 1.17987,5.07376 5.16707,5.07376 1.98109,0 4.01019,-0.40821 4.50912,-0.90714 z m 13.07124,-1.16386 c 1.04113,-2.73836 0.2232,-6.79092 -1.5636,-7.7472 -1.84287,-0.98627 -5.01002,-0.97824 -6.87043,0.0174 -1.13157,0.6056 -1.46221,1.59704 -1.46221,4.38452 0,1.98109 0.40821,4.01019 0.90714,4.50912 0.49893,0.49893 2.54842,0.90714 4.55443,0.90714 3.27992,0 3.72659,-0.20859 4.43467,-2.071 z m 11.87519,1.16386 c 0.49893,-0.49893 0.90714,-2.52804 0.90714,-4.50912 0,-4.06044 -1.1504,-5.16707 -5.37143,-5.16707 -3.27948,0 -5.2119,1.88373 -5.2119,5.08055 0,4.35624 1.07659,5.50278 5.16707,5.50278 1.98109,0 4.01019,-0.40821 4.50912,-0.90714 z m 12.97578,-0.55507 c 1.40445,-2.62423 0.94956,-6.65056 -0.89756,-7.94433 -1.9315,-1.35288 -5.31484,-1.53213 -7.44101,-0.39425 -1.13157,0.60561 -1.46221,1.59705 -1.46221,4.38453 0,1.98108 0.40821,4.01019 0.90714,4.50912 0.49893,0.49893 2.52803,0.90714 4.50912,0.90714 2.78748,0 3.77892,-0.33064 4.38452,-1.46221 z M 41.426194,165.76667 c 0.49892,-0.49893 0.90714,-2.52804 0.90714,-4.50912 0,-4.02951 -1.15406,-5.16707 -5.24197,-5.16707 -4.32621,0 -6.40603,3.90486 -4.60412,8.64424 0.65078,1.71168 1.16498,1.93909 4.38452,1.93909 2.00601,0 4.0555,-0.40821 4.55443,-0.90714 z m 12.97578,-0.55507 c 1.18056,-2.20591 0.9398,-6.18248 -0.46854,-7.73868 -1.56777,-1.73236 -6.48894,-1.84989 -8.14432,-0.19452 -1.41442,1.41442 -1.60462,7.16443 -0.28078,8.48827 0.49893,0.49893 2.52803,0.90714 4.50911,0.90714 2.78749,0 3.77893,-0.33064 4.38453,-1.46221 z m 11.97064,0.55507 c 0.49893,-0.49893 0.90715,-2.52804 0.90715,-4.50912 0,-3.94455 -1.16258,-5.16707 -4.91369,-5.16707 -3.87884,0 -4.91369,1.18639 -4.91369,5.63324 0,2.54719 0.35328,4.2107 0.94494,4.44944 1.85922,0.75021 7.08494,0.48387 7.97529,-0.40649 z m 12.97579,-0.55507 c 1.18056,-2.20591 0.9398,-6.18248 -0.46855,-7.73868 -1.56776,-1.73236 -6.48893,-1.84989 -8.14431,-0.19452 -1.41442,1.41442 -1.60462,7.16443 -0.28078,8.48827 0.49893,0.49893 2.52803,0.90714 4.50911,0.90714 2.78749,0 3.77893,-0.33064 4.38453,-1.46221 z m 11.97064,0.55507 c 0.49893,-0.49893 0.90715,-2.52804 0.90715,-4.50912 0,-4.02951 -1.15406,-5.16707 -5.24197,-5.16707 -3.57313,0 -5.61178,2.49194 -5.10847,6.24433 0.22463,1.67474 0.85943,3.33094 1.41067,3.68042 1.50699,0.95542 6.99857,0.78549 8.03262,-0.24856 z m 12.851186,0 c 1.33913,-1.33913 1.11769,-6.67866 -0.34395,-8.29375 -1.56776,-1.73236 -6.488926,-1.84989 -8.144306,-0.19452 -1.41442,1.41442 -1.60462,7.16443 -0.28078,8.48827 0.49892,0.49893 2.47196,0.90714 4.38452,0.90714 1.912556,0 3.885586,-0.40821 4.384516,-0.90714 z m 12.09524,0 c 0.49893,-0.49893 0.90714,-2.52804 0.90714,-4.50912 0,-4.02951 -1.15405,-5.16707 -5.24197,-5.16707 -4.3184,0 -6.79181,4.94872 -4.55881,9.12112 0.6056,1.13157 1.59705,1.46221 4.38452,1.46221 1.98109,0 4.01019,-0.40821 4.50912,-0.90714 z m 12.85119,0 c 1.33913,-1.33913 1.11769,-6.67866 -0.34395,-8.29375 -1.56776,-1.73236 -6.48894,-1.84989 -8.14431,-0.19452 -1.41442,1.41442 -1.60462,7.16443 -0.28079,8.48827 0.49893,0.49893 2.47197,0.90714 4.38453,0.90714 1.91256,0 3.88559,-0.40821 4.38452,-0.90714 z m 12.09524,0 c 0.49893,-0.49893 0.90714,-2.52804 0.90714,-4.50912 0,-3.94455 -1.16258,-5.16707 -4.91369,-5.16707 -3.87884,0 -4.91369,1.18639 -4.91369,5.63324 0,2.54719 0.35329,4.2107 0.94494,4.44944 1.85923,0.75021 7.08494,0.48387 7.9753,-0.40649 z m 12.97579,-0.55507 c 1.18056,-2.20591 0.9398,-6.18248 -0.46855,-7.73868 -1.56776,-1.73236 -6.48894,-1.84989 -8.14431,-0.19452 -1.41442,1.41442 -1.60463,7.16443 -0.28079,8.48827 0.49893,0.49893 2.52804,0.90714 4.50912,0.90714 2.78748,0 3.77892,-0.33064 4.38453,-1.46221 z m 11.97064,0.55507 c 0.49892,-0.49893 0.90714,-2.52804 0.90714,-4.50912 0,-3.94455 -1.16258,-5.16707 -4.91369,-5.16707 -3.87884,0 -4.91369,1.18639 -4.91369,5.63324 0,2.54719 0.35329,4.2107 0.94494,4.44944 1.85923,0.75021 7.08494,0.48387 7.9753,-0.40649 z m 12.97578,-0.55507 c 1.18057,-2.20591 0.9398,-6.18248 -0.46854,-7.73868 -1.56776,-1.73236 -6.48894,-1.84989 -8.14432,-0.19452 -1.41441,1.41442 -1.60462,7.16443 -0.28078,8.48827 0.49893,0.49893 2.52803,0.90714 4.50912,0.90714 2.78748,0 3.77892,-0.33064 4.38452,-1.46221 z m -36.87467,-21.24269 c 3.87589,-1.0765 6.66317,-4.58391 6.66317,-8.38469 0,-7.59121 -3.84975,-9.73184 -17.50196,-9.73184 -7.89962,0 -9.49864,-0.21182 -11.65388,-1.54384 -3.25171,-2.00966 -4.56749,-5.72877 -3.34127,-9.44424 1.68851,-5.11624 2.20024,-5.22106 27.54803,-5.64287 l 22.71396,-0.37798 v -9.82738 -9.827382 l -5.59639,-0.224441 c -3.20382,-0.128489 -5.93473,0.113901 -6.38779,0.566965 -1.0238,1.023795 -14.85213,1.056804 -14.85213,0.03545 0,-1.039599 -67.015226,-1.039599 -67.657726,0 -0.61012,0.987189 -14.50893,0.987189 -15.11905,0 -0.25696,-0.415775 -2.99847,-0.755955 -6.09223,-0.755955 h -5.62503 v 10.205358 10.205355 h 21.96016 c 23.52972,0 24.88242,0.19392 27.50883,3.94364 1.51448,2.16223 1.51448,6.58145 0,8.74367 -2.26194,3.22936 -4.92115,3.94364 -14.68192,3.94364 -10.53231,0 -13.56043,0.8929 -15.86888,4.67921 -2.98986,4.90395 -1.28055,10.35328 3.9995,12.7505 2.95539,1.34179 5.39212,1.43671 37.180516,1.44828 20.92478,0.008 35.09024,-0.28546 36.80409,-0.76146 z M 57.452384,85.408927 c 0.69744,-0.840361 2.55668,-1.133927 7.18154,-1.133927 4.62486,0 6.48411,0.293566 7.18155,1.133927 1.39634,1.682491 66.143046,1.659724 68.369186,-0.02405 2.09702,-1.586111 12.72704,-1.545474 14.05426,0.05373 0.74725,0.90039 2.26451,1.11415 6.70714,0.944941 l 5.74143,-0.218673 V 52.902976 19.641071 L 106.02232,19.447586 45.357144,19.254099 v 33.644379 33.644377 h 5.57708 c 4.03518,0 5.83726,-0.313497 6.51816,-1.133928 z m -31.37203,-4.157739 v -3.401785 l -8.12836,-0.214582 C 8.0973843,77.374667 6.8035743,77.8878 6.8035743,82.056326 v 3.019795 l 9.6383897,-0.211571 9.63839,-0.211574 z m 178.782736,0.78255 c 0,-4.143073 -1.30685,-4.658727 -11.14843,-4.398917 l -8.12836,0.214582 -0.24225,2.528808 c -0.4415,4.608695 -0.3464,4.652741 10.04591,4.652741 h 9.47313 z"
       style="opacity:1;fill:#b50000;fill-opacity:1;fill-rule:nonzero;stroke:#c30000;stroke-width:0.75714278;stroke-linejoin:round;stroke-miterlimit:4;stroke-dasharray:none;stroke-dashoffset:0;stroke-opacity:0.89743593" />
  </g>
</svg>
